<?xml version="1.0" encoding="UTF-8"?>
<svg id="Layer_1" data-name="Layer 1" xmlns="http://www.w3.org/2000/svg" version="1.1" viewBox="0 0 500 500">
  <defs>
    <style>
      .cls-1 {
        fill: none;
        stroke-linecap: round;
      }

      .cls-1, .cls-2 {
        stroke: #231f20;
        stroke-miterlimit: 10;
        stroke-width: 5px;
      }

      .cls-2, .cls-3 {
        fill: #9bd3dd;
      }

      .cls-4 {
        fill: #009eac;
      }

      .cls-4, .cls-5, .cls-3, .cls-6, .cls-7 {
        stroke-width: 0px;
      }

      .cls-5 {
        fill: #042c33;
      }

      .cls-6 {
        fill: #086977;
      }

      .cls-7 {
        fill: #231f20;
      }
    </style>
  </defs>
  <g id="Layer_2" data-name="Layer 2">
    <rect class="cls-4" y="-.3" width="500" height="500"/>
  </g>
  <g id="Layer_1-2" data-name="Layer 1">
    <g>
      <g>
        <g>
          <g>
            <path class="cls-6" d="M193.1,412.3h-50.8s10.6-60.9,36.9-78.1c12.1-7.9,27-12.4,48-12.9,6.8,4.6,14.7,6.9,22.6,6.9s16.5-2.5,23.5-7.5c21,.4,35.5,5.5,47.6,13.5,26.6,17.7,36.9,78.1,36.9,78.1h-164.6,0Z"/>
            <path class="cls-5" d="M306.9,192.2l11.8,114.2h-45.8l-.2-11.9c20.1-8.8,34.1-28.8,34.1-52.2v-50.1h0Z"/>
            <path class="cls-3" d="M272.8,294.4c-7,3-14.7,4.7-22.8,4.7s-16.1-1.8-23.2-4.9c-6.4-2.8-12.1-6.9-17-11.7-10.3-10.3-16.7-24.5-16.7-40.2v-44.5h19.4l7.1-10.9,7.2,10.9h80.1v44.5c0,23.3-14,43.4-34.1,52.2h0ZM282.4,224.7c0-3.4-2.8-6.2-6.2-6.2s-6.2,2.8-6.2,6.2,2.8,6.2,6.2,6.2,6.2-2.8,6.2-6.2ZM230,224.7c0-3.4-2.8-6.2-6.2-6.2s-6.2,2.8-6.2,6.2,2.8,6.2,6.2,6.2,6.2-2.8,6.2-6.2Z"/>
            <path class="cls-5" d="M306.9,197.7h-80.1l-7.2-10.9-7.1,10.9h-19.4c0-37,25.5-62.4,56.9-62.4s56.9,25.5,56.9,62.4Z"/>
            <path class="cls-7" d="M276.2,218.4c3.4,0,6.2,2.8,6.2,6.2s-2.8,6.2-6.2,6.2-6.2-2.8-6.2-6.2,2.8-6.2,6.2-6.2Z"/>
            <path class="cls-3" d="M273,306.4l.2,14.3c-7,5-15.2,7.5-23.5,7.5s-15.7-2.3-22.6-6.9l-.2-14.9-.2-12.1h0c7.1,3.1,15,4.9,23.2,4.9s15.8-1.7,22.8-4.7l.2,11.9h0Z"/>
            <path class="cls-7" d="M223.8,218.4c3.4,0,6.2,2.8,6.2,6.2s-2.8,6.2-6.2,6.2-6.2-2.8-6.2-6.2,2.8-6.2,6.2-6.2Z"/>
            <path class="cls-5" d="M226.8,294.2l.2,12.1h-45.6l11.7-114.2v50.1c0,15.7,6.4,30,16.7,40.2,4.9,4.9,10.6,8.9,17,11.7h0s0,0,0,0Z"/>
          </g>
          <g>
            <path class="cls-1" d="M227.2,321.3c-21,.4-35.9,5-48,12.9-26.3,17.2-36.9,78.1-36.9,78.1h110.9"/>
            <path class="cls-1" d="M253.2,412.3h104.5s-10.3-60.4-36.9-78.1c-12-8-26.5-13.1-47.6-13.5"/>
            <path class="cls-1" d="M306.9,192.2v50.1c0,23.3-14,43.4-34.1,52.2-7,3-14.7,4.7-22.8,4.7s-16.1-1.8-23.2-4.9c-6.4-2.8-12.1-6.9-17-11.7-10.3-10.3-16.7-24.5-16.7-40.2v-50.1"/>
            <path class="cls-1" d="M272.8,294.4h0s.2,12,.2,12l.2,14.3c-7,5-15.2,7.5-23.5,7.5s-15.7-2.3-22.6-6.9l-.2-14.9-.2-12.1"/>
            <line class="cls-1" x1="193.1" y1="390.9" x2="193.1" y2="412.3"/>
            <line class="cls-1" x1="307.1" y1="390.7" x2="307.1" y2="412"/>
            <path class="cls-1" d="M193.1,197.7h19.4l7.1-10.9,7.2,10.9h80.1c0-37-25.5-62.4-56.9-62.4s-56.9,25.5-56.9,62.4Z"/>
            <polyline class="cls-1" points="306.9 192.2 318.7 306.4 273.2 306.4"/>
            <polyline class="cls-1" points="193.1 192.2 181.4 306.4 226.9 306.4"/>
          </g>
        </g>
        <path class="cls-1" d="M246.9,276c-11.1,0-20.1-9-20.1-20.1"/>
      </g>
      <path class="cls-2" d="M236.8,87.7h26.4v20.3l-5.1,40.7h-16.3l-5-40.7v-20.3h0ZM237.7,160.8h24.6v21.3h-24.6v-21.3h0Z"/>
    </g>
  </g>
</svg>