<?xml version="1.0" encoding="UTF-8"?>
<svg id="Layer_1" xmlns="http://www.w3.org/2000/svg" version="1.1" viewBox="0 0 500 500">
  <!-- Generator: Adobe Illustrator 29.0.1, SVG Export Plug-In . SVG Version: 2.1.0 Build 192)  -->
  <defs>
    <style>
      .st0 {
        fill: #4197cb;
      }

      .st1 {
        fill: #112c3c;
      }

      .st2 {
        fill: #c7dfee;
      }

      .st3 {
        fill: #fff;
      }

      .st4 {
        fill: #3579a2;
      }

      .st5 {
        fill: none;
        stroke: #221f1f;
        stroke-linecap: round;
        stroke-miterlimit: 10;
        stroke-width: 5px;
      }
    </style>
  </defs>
  <rect class="st0" x="0" width="500" height="500"/>
  <g>
    <g>
      <path class="st1" d="M397,185.5c5.2,14.7,8,30.5,8,46.9,0,38.4-15.8,73.3-41,98.5l-56.7-56.7c45.4-.9,81.9-37.3,82.7-83,0-1.5.2-.2,0-4.4s5.6-5.2,7-1.3Z"/>
      <path class="st4" d="M379.5,142.5c2.3,3.1-.5,7.4-4.2,6.6l-15.8-3.5c-1.2-.2-2.4,0-3.4.7l-12.9,9.6c-3.1,2.3-7.4-.5-6.5-4.2l3.5-15.8c.2-1.2,0-2.4-.7-3.4l-9.6-12.9c-2.3-3.1.5-7.4,4.2-6.6l15.8,3.5c1.2.2,2.4,0,3.4-.7l12.9-9.6c3.1-2.3,7.4.5,6.5,4.2l-3.5,15.8c-.2,1.2,0,2.4.7,3.4l9.6,12.9Z"/>
      <path class="st2" d="M364,331l26,26-26.4,45.7h-52.7l-45.7,26.4-45.7-26.4h-52.7l-26.4-45.7-45.7-26.4v-52.7l-26.4-45.7,26.4-45.7v-52.7l45.7-26.4,26.1,26.1c-25.4,25.4-41.2,60.3-41.2,98.6h0c0,76.9,62.1,139.3,138.9,139.7,38.6.2,73.6-15.4,99.2-40.7l.3-.3Z"/>
      <path class="st3" d="M307.2,274.3l56.7,56.7-.3.3c-25.5,25.3-60.6,41-99.2,40.7-76.8-.4-138.9-62.9-138.9-139.7h0c0-38.3,15.8-73.2,41.2-98.6l54.5,54.5h0v.9c-.4,46.5,36.8,84.4,83,85.2h3.1Z"/>
      <path class="st1" d="M305.1,98.3c4,1.2,3.2,7.1-1,7.1h-.9c-44.9,1.2-81.2,38-82,82.8l-54.5-54.5c25.4-25.4,60.4-41.1,98.7-41.1s27.1,2,39.7,5.7Z"/>
    </g>
    <g>
      <polyline class="st5" points="390 357 363.6 402.8 311 402.8 265.3 429.1 219.6 402.8 166.9 402.8 140.5 357 94.8 330.7 94.8 278 68.5 232.3 94.8 186.6 94.8 134 140.5 107.6"/>
      <path class="st5" d="M375.3,149.1l-15.8-3.5c-1.2-.2-2.4,0-3.4.7l-12.9,9.6c-3.1,2.3-7.4-.5-6.5-4.2l3.5-15.8c.2-1.2,0-2.4-.7-3.4l-9.6-12.9c-2.3-3.1.5-7.4,4.2-6.6l15.8,3.5c1.2.2,2.4,0,3.4-.7l12.9-9.6c3.1-2.3,7.4.5,6.5,4.2l-3.5,15.8c-.2,1.2,0,2.4.7,3.4l9.6,12.9c2.3,3.1-.5,7.4-4.2,6.6Z"/>
      <path class="st5" d="M363.6,331.3l.3-.3c25.3-25.3,41-60.1,41-98.5s-2.8-32.3-8-46.9c-1.4-3.9-7.2-2.8-7,1.3s0,2.9,0,4.4c-.8,45.8-37.3,82.1-82.7,83h-3"/>
      <path class="st5" d="M221.1,188.2c.8-44.8,37.2-81.5,82-82.8h.9c4.2,0,5-5.9,1-7.1-12.6-3.7-25.9-5.7-39.7-5.7-38.3,0-73.3,15.8-98.7,41.1"/>
      <path class="st5" d="M221.1,189.1v-.9"/>
      <path class="st5" d="M264.4,372.1c38.6.2,73.6-15.4,99.2-40.7"/>
      <path class="st5" d="M125.5,232.3c0,76.9,62.1,139.3,138.9,139.7"/>
      <path class="st5" d="M166.7,133.7c-25.4,25.4-41.2,60.3-41.2,98.6"/>
      <path class="st5" d="M304.2,274.3h0c-46.2-.8-83.4-38.7-83-85.2"/>
      <polyline class="st5" points="431.5 398.6 390 357 364 331 307.2 274.3 221.1 188.2 221.1 188.2 166.7 133.7 140.5 107.6 104.4 71.4"/>
    </g>
  </g>
</svg>