<?xml version="1.0" encoding="UTF-8"?>
<svg xmlns="http://www.w3.org/2000/svg" viewBox="0 0 500 500">
  <defs>
    <style>
      .cls-1 {
        fill: #027788;
      }

      .cls-1, .cls-2, .cls-3, .cls-4 {
        stroke: #231f20;
        stroke-miterlimit: 10;
        stroke-width: 5px;
      }

      .cls-2 {
        fill: none;
      }

      .cls-2, .cls-4 {
        stroke-linecap: round;
      }

      .cls-3 {
        fill: #9bd4dd;
      }

      .cls-5 {
        fill: #009eac;
      }

      .cls-5, .cls-6 {
        stroke-width: 0px;
      }

      .cls-6 {
        fill: #231f20;
      }

      .cls-4 {
        fill: #68bfcb;
      }
    </style>
  </defs>
  <g id="Layer_2" data-name="Layer 2">
    <rect class="cls-5" width="500" height="500"/>
  </g>
  <g id="Layer_1" data-name="Layer 1">
    <path class="cls-4" d="M282.06,287.82V107.78c0-17.7-14.35-32.06-32.06-32.06h0c-17.7,0-32.06,14.35-32.06,32.06v180.04c-23.67,11.79-39.94,36.22-39.94,64.46,0,39.76,32.23,72,72,72s72-32.23,72-72c0-28.24-16.27-52.67-39.94-64.46Z"/>
    <line class="cls-2" x1="322" y1="276.2" x2="294.4" y2="276.2"/>
    <line class="cls-2" x1="303.65" y1="254.96" x2="294.4" y2="254.96"/>
    <line class="cls-2" x1="303.65" y1="233.71" x2="294.4" y2="233.71"/>
    <line class="cls-2" x1="303.65" y1="212.47" x2="294.4" y2="212.47"/>
    <line class="cls-2" x1="303.65" y1="169.98" x2="294.4" y2="169.98"/>
    <line class="cls-2" x1="303.65" y1="148.73" x2="294.4" y2="148.73"/>
    <line class="cls-2" x1="303.65" y1="127.49" x2="294.4" y2="127.49"/>
    <line class="cls-2" x1="322" y1="191.22" x2="294.4" y2="191.22"/>
    <line class="cls-2" x1="322" y1="106.24" x2="294.4" y2="106.24"/>
    <g>
      <path class="cls-1" d="M255.73,301.42v-108.2l-11.46,11.46v96.73c-24.73,2.84-43.94,23.84-43.94,49.33,0,27.43,22.24,49.67,49.67,49.67s49.67-22.24,49.67-49.67c0-25.49-19.21-46.49-43.94-49.33Z"/>
      <path class="cls-3" d="M255.73,108.37c0-3.17-2.57-5.73-5.73-5.73s-5.73,2.57-5.73,5.73v96.32l11.46-11.46v-84.86Z"/>
    </g>
    <g>
      <path class="cls-6" d="M336.58,283.04c-.44,0-.81-.13-1.09-.4-.28-.27-.43-.61-.43-1.03,0-.16.05-.41.15-.72.04-.1.07-.2.1-.29.03-.09.07-.19.1-.28l3.46-9.04c.29-.75.62-1.29,1-1.61.37-.33.86-.49,1.47-.49s1.12.16,1.49.49c.37.33.71.87,1,1.61l3.46,9.04c.04.11.08.23.13.35.05.12.09.24.11.37.03.11.05.22.08.31.03.09.04.18.04.26,0,.42-.14.76-.43,1.03-.28.27-.65.4-1.09.4-.38,0-.71-.13-.99-.39-.28-.26-.49-.62-.65-1.09l-.93-2.66-.21-.89-1.92-5.24h-.19l-1.9,5.24-.23.97-.91,2.58c-.15.47-.37.83-.66,1.09-.28.26-.61.39-.98.39ZM337,279.89l1.01-2.7h6.69l.97,2.7h-8.66Z"/>
      <path class="cls-6" d="M350.73,283.04c-.42,0-.78-.14-1.07-.41-.3-.27-.45-.61-.45-1.02v-10.71c0-.43.16-.79.47-1.09.32-.3.71-.45,1.18-.45.38,0,.72.12,1.03.36.3.24.61.6.93,1.06l4.43,6.72h.19v-6.72c0-.41.15-.74.44-1.02.29-.27.65-.41,1.08-.41.27,0,.52.06.75.19.23.13.42.3.56.51.14.22.21.46.21.72v10.71c0,.43-.16.79-.47,1.09-.32.3-.7.45-1.16.45-.39,0-.74-.12-1.04-.36-.3-.24-.61-.6-.94-1.06l-4.43-6.72h-.19v6.72c0,.41-.15.74-.44,1.02-.29.27-.65.41-1.08.41Z"/>
      <path class="cls-6" d="M364.61,283.04c-.42,0-.78-.14-1.07-.41-.3-.27-.45-.61-.45-1.02v-10.71c0-.43.16-.79.47-1.09.32-.3.71-.45,1.18-.45.38,0,.72.12,1.03.36.3.24.61.6.93,1.06l4.43,6.72h.19v-6.72c0-.41.15-.74.44-1.02.29-.27.65-.41,1.08-.41.27,0,.52.06.75.19.23.13.42.3.56.51.14.22.21.46.21.72v10.71c0,.43-.16.79-.47,1.09-.32.3-.7.45-1.16.45-.39,0-.74-.12-1.04-.36-.3-.24-.61-.6-.94-1.06l-4.43-6.72h-.19v6.72c0,.41-.15.74-.44,1.02-.29.27-.65.41-1.08.41Z"/>
      <path class="cls-6" d="M382.65,283.23c-1.15,0-2.17-.23-3.05-.7-.88-.47-1.56-1.12-2.05-1.96-.49-.84-.73-1.77-.73-2.81v-3.11c0-1.04.24-1.98.73-2.81s1.17-1.49,2.05-1.96c.88-.47,1.9-.7,3.05-.7s2.15.23,3.03.7c.88.47,1.56,1.12,2.05,1.96s.73,1.77.73,2.81v3.11c0,1.04-.24,1.98-.73,2.81-.49.84-1.17,1.49-2.05,1.96s-1.89.7-3.03.7ZM382.65,280.59c.52,0,.99-.12,1.41-.35.42-.23.74-.57.98-1,.23-.43.35-.92.35-1.48v-3.11c0-.56-.12-1.05-.35-1.48-.23-.43-.56-.76-.98-1-.42-.23-.89-.35-1.41-.35s-1.01.12-1.42.35c-.42.23-.74.57-.98,1-.23.43-.35.92-.35,1.48v3.11c0,.56.12,1.05.35,1.48.23.43.56.76.98,1,.42.23.89.35,1.42.35Z"/>
      <path class="cls-6" d="M395.4,283.04c-.27,0-.52-.06-.75-.19s-.42-.3-.56-.51c-.14-.22-.21-.46-.21-.72v-4.58l.49,1.56-4.62-6.8c-.24-.35-.34-.72-.31-1.1.03-.38.18-.7.46-.95.27-.25.62-.38,1.05-.38.28,0,.54.07.77.2s.43.33.58.58l3,4.67h.19l3-4.67c.17-.25.36-.45.6-.58s.49-.2.77-.2c.42,0,.77.12,1.04.37.28.25.43.56.47.93.03.37-.07.72-.29,1.05l-4.63,6.88.47-1.56v4.58c0,.41-.15.74-.44,1.02-.29.27-.65.41-1.08.41Z"/>
      <path class="cls-6" d="M404.4,282.85c-.28,0-.54-.06-.77-.19-.23-.13-.42-.3-.55-.51-.13-.22-.2-.46-.2-.72v-10.45c0-.41.15-.74.45-1.02.3-.27.66-.41,1.07-.41h7.33c.46,0,.82.13,1.1.4s.42.58.42.95-.14.7-.42.97-.65.4-1.1.4h-5.81v7.86h6c.46,0,.82.13,1.1.4.28.27.42.59.42.97s-.14.68-.42.95c-.28.27-.65.4-1.1.4h-7.52ZM404.4,277.51v-2.62h5.6c.46,0,.82.13,1.08.38.27.25.4.56.4.93s-.13.68-.4.93c-.27.25-.63.38-1.08.38h-5.6Z"/>
      <path class="cls-6" d="M416.65,282.85c-.28,0-.54-.06-.77-.19-.23-.13-.42-.3-.55-.51-.13-.22-.2-.46-.2-.72v-10.45c0-.39.15-.73.45-1.01.3-.28.66-.42,1.07-.42h3.61c1.14,0,2.15.23,3.04.7.89.47,1.57,1.12,2.05,1.96.48.84.72,1.77.72,2.81v2.36c0,1.04-.24,1.98-.72,2.81s-1.17,1.49-2.05,1.96c-.89.47-1.9.7-3.04.7h-3.61ZM418.17,281.07l-.86-.85h2.94c.53,0,1-.12,1.42-.35.41-.23.73-.57.97-1,.23-.43.35-.92.35-1.48v-2.36c0-.56-.12-1.05-.35-1.48-.23-.43-.56-.76-.97-1-.41-.23-.88-.35-1.42-.35h-2.94l.86-.85v9.72Z"/>
    </g>
    <g>
      <path class="cls-6" d="M337.64,198.16c-.27,0-.52-.06-.75-.19-.23-.13-.42-.3-.56-.51-.14-.22-.21-.46-.21-.72v-10.64c0-.46.17-.84.5-1.15.34-.31.74-.47,1.21-.47.49,0,.91.13,1.25.39.34.26.63.6.85,1.04l3.44,6.89h.19l3.42-6.89c.23-.43.51-.78.86-1.04.34-.26.76-.39,1.25-.39.3,0,.59.07.85.22.27.15.48.34.63.58.15.24.23.51.23.82v10.64c0,.41-.15.74-.44,1.02-.29.27-.65.41-1.08.41-.28,0-.53-.06-.76-.19-.23-.13-.41-.3-.55-.51-.14-.22-.21-.46-.21-.72v-6.29h-.19l-2.34,4.79c-.23.44-.48.78-.75,1.01s-.61.34-1.02.34-.75-.11-1.03-.34-.53-.56-.76-1.01l-2.34-4.79h-.19v6.29c0,.41-.15.74-.44,1.02-.29.27-.65.41-1.08.41Z"/>
      <path class="cls-6" d="M353.88,198.16c-.44,0-.81-.13-1.09-.4-.28-.27-.43-.61-.43-1.03,0-.16.05-.41.15-.72.04-.1.07-.2.1-.29.03-.09.07-.19.1-.28l3.46-9.04c.29-.75.62-1.29,1-1.61.37-.33.86-.49,1.47-.49s1.12.16,1.49.49c.37.33.71.87,1,1.61l3.46,9.04c.04.11.08.23.13.35.05.12.09.24.11.37.03.11.05.22.08.31.03.09.04.18.04.26,0,.42-.14.76-.43,1.03-.28.27-.65.4-1.09.4-.38,0-.71-.13-.99-.39-.28-.26-.49-.62-.65-1.09l-.93-2.66-.21-.89-1.92-5.24h-.19l-1.9,5.24-.23.97-.91,2.58c-.15.47-.37.83-.66,1.09-.28.26-.61.39-.98.39ZM354.3,195l1.01-2.7h6.69l.97,2.7h-8.66Z"/>
      <path class="cls-6" d="M368.03,197.97c-.28,0-.54-.06-.77-.19-.23-.13-.42-.3-.55-.51-.13-.22-.2-.46-.2-.72v-10.45c0-.39.15-.73.45-1.01.3-.28.66-.42,1.07-.42h3.61c1.14,0,2.15.23,3.04.7.89.47,1.57,1.12,2.05,1.96.48.84.72,1.77.72,2.81v2.36c0,1.04-.24,1.98-.72,2.81s-1.17,1.49-2.05,1.96c-.89.47-1.9.7-3.04.7h-3.61ZM369.55,196.18l-.86-.85h2.94c.53,0,1-.12,1.42-.35.41-.23.73-.57.97-1,.23-.43.35-.92.35-1.48v-2.36c0-.56-.12-1.05-.35-1.48-.23-.43-.56-.76-.97-1-.41-.23-.88-.35-1.42-.35h-2.94l.86-.85v9.72Z"/>
    </g>
    <g>
      <path class="cls-6" d="M337.64,112.57c-.28,0-.54-.06-.77-.19-.23-.13-.42-.3-.55-.51-.13-.22-.2-.46-.2-.72v-10.45c0-.41.15-.74.45-1.02.3-.27.66-.41,1.07-.41h7.33c.46,0,.82.13,1.1.4s.42.58.42.95-.14.7-.42.97-.65.4-1.1.4h-5.81v7.86h6c.46,0,.82.13,1.1.4.28.27.42.59.42.97s-.14.68-.42.95c-.28.27-.65.4-1.1.4h-7.52ZM337.64,107.23v-2.62h5.6c.46,0,.82.13,1.08.38.27.25.4.56.4.93s-.13.68-.4.93c-.27.25-.63.38-1.08.38h-5.6Z"/>
      <path class="cls-6" d="M349.89,112.76c-.42,0-.78-.14-1.07-.41-.3-.27-.45-.61-.45-1.02v-10.71c0-.43.16-.79.47-1.09.32-.3.71-.45,1.18-.45.38,0,.72.12,1.03.36.3.24.61.6.93,1.06l4.43,6.72h.19v-6.72c0-.41.15-.74.44-1.02.29-.27.65-.41,1.08-.41.27,0,.52.06.75.19.23.13.42.3.56.51.14.22.21.46.21.72v10.71c0,.43-.16.79-.47,1.09-.32.3-.7.45-1.16.45-.39,0-.74-.12-1.04-.36-.3-.24-.61-.6-.94-1.06l-4.43-6.72h-.19v6.72c0,.41-.15.74-.44,1.02-.29.27-.65.41-1.08.41Z"/>
      <path class="cls-6" d="M363.78,112.76c-.28,0-.54-.06-.77-.19s-.42-.3-.55-.51c-.13-.22-.2-.46-.2-.72v-10.64c0-.41.15-.74.45-1.02.3-.27.66-.41,1.07-.41h4.06c1.08,0,2,.18,2.76.53.77.35,1.34.85,1.73,1.47.39.63.58,1.35.58,2.16s-.25,1.59-.74,2.21c-.49.63-1.15,1.04-1.98,1.24l.49-1.01v1.04l2.43,3.29c.28.35.42.73.41,1.13,0,.4-.14.73-.41,1.01-.27.27-.63.41-1.1.41-.25,0-.49-.07-.72-.2-.23-.13-.44-.32-.63-.56l-3.84-5.32,1.73.91h-4.77v-2.64h4.05c.41,0,.76-.06,1.06-.19.3-.13.53-.3.69-.53.16-.23.24-.49.24-.8s-.07-.55-.22-.79c-.15-.23-.37-.41-.67-.54-.3-.13-.67-.19-1.1-.19h-2.54v9.42c0,.39-.15.73-.44,1.01s-.65.42-1.08.42Z"/>
      <path class="cls-6" d="M375.84,112.76c-.44,0-.81-.13-1.09-.4-.28-.27-.43-.61-.43-1.03,0-.16.05-.41.15-.72.04-.1.07-.2.1-.29.03-.09.07-.19.1-.28l3.46-9.04c.29-.75.62-1.29,1-1.61.37-.33.86-.49,1.47-.49s1.12.16,1.49.49c.37.33.71.87,1,1.61l3.46,9.04c.04.11.08.23.13.35.05.12.09.24.11.37.03.11.05.22.08.31.03.09.04.18.04.26,0,.42-.14.76-.43,1.03-.28.27-.65.4-1.09.4-.38,0-.71-.13-.99-.39-.28-.26-.49-.62-.65-1.09l-.93-2.66-.21-.89-1.92-5.24h-.19l-1.9,5.24-.23.97-.91,2.58c-.15.47-.37.83-.66,1.09-.28.26-.61.39-.98.39ZM376.25,109.61l1.01-2.7h6.69l.97,2.7h-8.66Z"/>
      <path class="cls-6" d="M393.69,112.95c-1.13,0-2.13-.23-3-.7-.87-.47-1.55-1.12-2.03-1.96-.48-.84-.72-1.77-.72-2.81v-3.11c0-1.04.24-1.98.72-2.81s1.16-1.49,2.03-1.96c.87-.47,1.87-.7,3-.7.77,0,1.5.12,2.19.36.69.24,1.26.57,1.72.99.32.28.56.57.74.86.18.3.27.6.27.92,0,.41-.14.74-.41,1-.27.26-.62.39-1.05.39-.24,0-.45-.05-.63-.16-.18-.11-.41-.31-.68-.62-.34-.38-.67-.65-.99-.8-.32-.15-.7-.23-1.16-.23-.51,0-.97.11-1.38.34s-.73.55-.96.97-.34.9-.34,1.44v3.11c0,.54.11,1.03.34,1.44s.55.74.96.97.87.34,1.38.34c.7,0,1.26-.11,1.7-.33.44-.22.8-.53,1.09-.94l-.46,1.35v-3.72l.89.87h-2.17c-.44,0-.8-.13-1.07-.39-.27-.26-.41-.57-.41-.92s.14-.66.41-.93.63-.4,1.07-.4h2.7c.27,0,.51.06.74.18.23.12.41.28.54.49.13.21.2.44.2.69v3.7c0,.41-.22.85-.66,1.33-.44.48-1.05.89-1.85,1.23s-1.71.5-2.74.5Z"/>
      <path class="cls-6" d="M402.98,112.57c-.28,0-.54-.06-.77-.19-.23-.13-.42-.3-.55-.51-.13-.22-.2-.46-.2-.72v-10.45c0-.41.15-.74.45-1.02.3-.27.66-.41,1.07-.41h7.33c.46,0,.82.13,1.1.4s.42.58.42.95-.14.7-.42.97-.65.4-1.1.4h-5.81v7.86h6c.46,0,.82.13,1.1.4.28.27.42.59.42.97s-.14.68-.42.95c-.28.27-.65.4-1.1.4h-7.52ZM402.98,107.23v-2.62h5.6c.46,0,.82.13,1.08.38.27.25.4.56.4.93s-.13.68-.4.93c-.27.25-.63.38-1.08.38h-5.6Z"/>
      <path class="cls-6" d="M415.23,112.57c-.28,0-.54-.06-.77-.19-.23-.13-.42-.3-.55-.51-.13-.22-.2-.46-.2-.72v-10.45c0-.39.15-.73.45-1.01.3-.28.66-.42,1.07-.42h3.61c1.14,0,2.15.23,3.04.7.89.47,1.57,1.12,2.05,1.96.48.84.72,1.77.72,2.81v2.36c0,1.04-.24,1.98-.72,2.81s-1.17,1.49-2.05,1.96c-.89.47-1.9.7-3.04.7h-3.61ZM416.75,110.79l-.86-.85h2.94c.53,0,1-.12,1.42-.35.41-.23.73-.57.97-1,.23-.43.35-.92.35-1.48v-2.36c0-.56-.12-1.05-.35-1.48-.23-.43-.56-.76-.97-1-.41-.23-.88-.35-1.42-.35h-2.94l.86-.85v9.72Z"/>
    </g>
  </g>
</svg>