<?xml version="1.0" encoding="UTF-8"?>
<svg xmlns="http://www.w3.org/2000/svg" viewBox="0 0 500 500">
  <defs>
    <style>
      .cls-1 {
        stroke-linecap: round;
      }

      .cls-1, .cls-2 {
        fill: none;
        stroke: #231f20;
        stroke-miterlimit: 10;
        stroke-width: 5px;
      }

      .cls-3 {
        fill: #a09dc3;
      }

      .cls-3, .cls-4, .cls-5, .cls-6 {
        stroke-width: 0px;
      }

      .cls-4 {
        fill: #d2cfe1;
      }

      .cls-5 {
        fill: #46416e;
      }

      .cls-6 {
        fill: #625d9c;
      }
    </style>
  </defs>
  <g id="Layer_2" data-name="Layer 2">
    <rect class="cls-6" width="500" height="500"/>
  </g>
  <g id="Layer_1" data-name="Layer 1">
    <g>
      <g>
        <path class="cls-5" d="M406.73,341.28v59.7h-109.03v-59.7c0-6.96,5.64-12.6,12.59-12.6h83.85c6.95,0,12.59,5.64,12.59,12.6Z"/>
        <path class="cls-5" d="M204.45,341.28v59.7h-109.03v-59.7c0-6.96,5.64-12.6,12.59-12.6h83.85c6.95,0,12.59,5.64,12.59,12.6Z"/>
        <path class="cls-4" d="M210.38,279.39c0,2.13-.46,4.16-1.28,5.99-.73,1.64-1.76,3.11-3.01,4.36-2.65,2.65-6.31,4.29-10.36,4.29h-91c-8.09,0-14.65-6.56-14.65-14.64,0-4.05,1.64-7.71,4.29-10.36s6.31-4.29,10.36-4.29h91c8.09,0,14.65,6.56,14.65,14.65Z"/>
        <path class="cls-4" d="M407.78,269.03c2.65,2.65,4.29,6.31,4.29,10.36,0,8.08-6.56,14.64-14.65,14.64h-91c-4.04,0-7.71-1.64-10.36-4.29-1.25-1.25-2.28-2.72-3.01-4.36-.82-1.83-1.28-3.86-1.28-5.99,0-8.09,6.56-14.65,14.65-14.65h91c4.04,0,7.71,1.64,10.36,4.29Z"/>
        <rect class="cls-3" x="314.88" y="294.03" width="74.08" height="34.65"/>
        <rect class="cls-3" x="113.19" y="294.03" width="74.08" height="34.65"/>
        <path class="cls-3" d="M214.24,139.22c2.7-2.04,5.97-3.11,9.28-3.11,3.06,0,6.15.91,8.84,2.81,5.64,3.98,7.94,11.22,5.63,17.72-6.35,17.85-19.79,52.82-33.54,71.27-18.96,25.46-17.18,36.83-17.18,36.83h-74.08v-32.88c0-8.09-1.37-16.12-4.05-23.74l-13.04-37.05c-3.59-10.21-.24-21.58,8.32-28.22l43.19-33.48c3.49-2.71,7.47-4.71,11.73-5.91l3.22-.91c3.06-.87,6.2-1.29,9.33-1.29,5.68,0,11.32,1.41,16.4,4.16,5.72,3.11,10.44,7.78,13.61,13.46l12.34,20.33h0Z"/>
        <path class="cls-3" d="M287.84,139.17h0s12.41-20.29,12.41-20.29c3.17-5.68,7.89-10.35,13.61-13.46,5.08-2.75,10.73-4.16,16.4-4.16,3.13,0,6.27.42,9.33,1.29l3.22.91c4.26,1.2,8.24,3.2,11.73,5.91l43.19,33.48c8.56,6.64,11.91,18.01,8.32,28.22l-13.04,37.05c-2.68,7.62-4.05,15.65-4.05,23.74v32.88h-74.08s1.78-11.37-17.18-36.83c-13.75-18.45-27.19-53.42-33.54-71.27-2.31-6.5-.01-13.74,5.63-17.72,2.69-1.9,5.78-2.81,8.84-2.81,3.28,0,6.53,1.05,9.21,3.06Z"/>
      </g>
      <g>
        <path class="cls-2" d="M209.1,285.38c-.73,1.64-1.76,3.11-3.01,4.36-2.65,2.65-6.31,4.29-10.36,4.29h-91c-8.09,0-14.65-6.56-14.65-14.64,0-4.05,1.64-7.71,4.29-10.36s6.31-4.29,10.36-4.29h91c8.09,0,14.65,6.56,14.65,14.65,0,2.13-.46,4.16-1.28,5.99Z"/>
        <path class="cls-2" d="M113.19,328.68h-5.18c-6.95,0-12.59,5.64-12.59,12.6v59.7h109.03v-59.7c0-6.96-5.64-12.6-12.59-12.6h-78.67Z"/>
        <line class="cls-2" x1="187.27" y1="294.03" x2="187.27" y2="328.68"/>
        <line class="cls-2" x1="113.19" y1="294.03" x2="113.19" y2="328.68"/>
        <path class="cls-1" d="M187.27,264.74s-1.78-11.37,17.18-36.83c13.75-18.45,27.19-53.42,33.54-71.27,2.31-6.5.01-13.74-5.63-17.72-2.69-1.9-5.78-2.81-8.84-2.81-3.31,0-6.58,1.07-9.28,3.11-1.28.96-2.42,2.14-3.38,3.52l-26.44,38.17c-2.71,3.9-8.02,4.95-12,2.36l-16.91-10.97c-3.08-2-3.98-6.12-1.99-9.22l2.83-4.44c2.21-3.46,6.31-5.21,10.33-4.43l13.48,2.62"/>
        <path class="cls-2" d="M214.24,139.21l-12.34-20.33c-3.17-5.68-7.89-10.35-13.61-13.46-5.08-2.75-10.72-4.16-16.4-4.16-3.13,0-6.27.42-9.33,1.29l-3.22.91c-4.26,1.2-8.24,3.2-11.73,5.91l-43.19,33.48c-8.56,6.64-11.91,18.01-8.32,28.22l13.04,37.05c2.68,7.62,4.05,15.65,4.05,23.74v32.88"/>
        <line class="cls-1" x1="166.68" y1="154.21" x2="166.68" y2="138.46"/>
        <polyline class="cls-1" points="232.53 308.09 227.47 303.19 209.1 285.38"/>
        <path class="cls-2" d="M293.05,285.38c.73,1.64,1.76,3.11,3.01,4.36,2.65,2.65,6.32,4.29,10.36,4.29h91c8.09,0,14.65-6.56,14.65-14.64,0-4.05-1.64-7.71-4.29-10.36s-6.32-4.29-10.36-4.29h-91c-8.09,0-14.65,6.56-14.65,14.65,0,2.13.46,4.16,1.28,5.99Z"/>
        <path class="cls-2" d="M388.96,328.68h5.18c6.95,0,12.59,5.64,12.59,12.6v59.7h-109.03v-59.7c0-6.96,5.64-12.6,12.59-12.6h78.67Z"/>
        <line class="cls-2" x1="314.88" y1="294.03" x2="314.88" y2="328.68"/>
        <line class="cls-2" x1="388.96" y1="294.03" x2="388.96" y2="328.68"/>
        <path class="cls-1" d="M314.88,264.74s1.78-11.37-17.18-36.83c-13.75-18.45-27.19-53.42-33.54-71.27-2.31-6.5-.01-13.74,5.63-17.72,2.69-1.9,5.78-2.81,8.84-2.81,3.28,0,6.53,1.05,9.21,3.06,1.3.97,2.47,2.16,3.45,3.57l26.44,38.17c2.71,3.9,8.02,4.95,12,2.36l16.91-10.97c3.08-2,3.98-6.12,1.99-9.22l-2.83-4.44c-2.21-3.46-6.31-5.21-10.33-4.43l-13.48,2.62"/>
        <path class="cls-2" d="M287.84,139.16l12.41-20.28c3.17-5.68,7.89-10.35,13.61-13.46,5.08-2.75,10.73-4.16,16.4-4.16,3.13,0,6.27.42,9.33,1.29l3.22.91c4.26,1.2,8.24,3.2,11.73,5.91l43.19,33.48c8.56,6.64,11.91,18.01,8.32,28.22l-13.04,37.05c-2.68,7.62-4.05,15.65-4.05,23.74v32.88"/>
        <line class="cls-1" x1="335.47" y1="154.21" x2="335.47" y2="138.46"/>
        <polyline class="cls-1" points="269.62 308.09 274.51 303.35 293.05 285.38"/>
        <path class="cls-2" d="M274.51,303.35c.3,1.21.46,2.48.46,3.79,0,4.31-1.75,8.21-4.57,11.04-2.83,2.82-6.73,4.57-11.04,4.57h-16.78c-8.62,0-15.61-6.99-15.61-15.61,0-1.37.18-2.69.5-3.95.72-2.72,2.14-5.16,4.07-7.09,2.83-2.82,6.73-4.57,11.04-4.57h16.78c7.31,0,13.45,5.03,15.15,11.82Z"/>
      </g>
    </g>
  </g>
</svg>