<?xml version="1.0" encoding="UTF-8"?>
<svg xmlns="http://www.w3.org/2000/svg" viewBox="0 0 500 500">
  <defs>
    <style>
      .cls-1 {
        fill: none;
      }

      .cls-1, .cls-2, .cls-3 {
        stroke: #231f20;
        stroke-linecap: round;
        stroke-miterlimit: 10;
        stroke-width: 5px;
      }

      .cls-4 {
        fill: #a09dc3;
      }

      .cls-4, .cls-5, .cls-6, .cls-7, .cls-8 {
        stroke-width: 0px;
      }

      .cls-5 {
        fill: #d2cfe1;
      }

      .cls-2, .cls-8 {
        fill: #27253d;
      }

      .cls-3 {
        fill: #c0bed7;
      }

      .cls-6 {
        fill: #231f20;
      }

      .cls-7 {
        fill: #625d9c;
      }
    </style>
  </defs>
  <g id="Layer_2" data-name="Layer 2">
    <rect class="cls-7" x="0" width="500" height="500"/>
  </g>
  <g id="Layer_1" data-name="Layer 1">
    <g>
      <path class="cls-2" d="M299.39,181.3s71.08,27.26,50.14,74.69c-32.26,73.06,6.57,74.33,6.57,74.33,0,0-38.83,9.54-42.81-26.85-3.99-36.39,17.48-61.69-23.24-63.8l9.35-58.37Z"/>
      <g>
        <g>
          <g>
            <g>
              <path class="cls-4" d="M313.51,387.24s18.66,9.98,18.23,26.04h-38.88c0-14.39,9.24-26.04,20.65-26.04Z"/>
              <path class="cls-4" d="M293.11,374.66c10.85,6.07,20.39,12.58,20.39,12.58-11.41,0-20.65,11.64-20.65,26.04h-122.55c-.43-12.15,9.98-18.23,9.98-18.23,0,0,16.05-9.11,28.63-13.89,12.3-4.66,16.76-13.07,16.95-13.44h.02c16.4,16.41,43,16.41,59.4,0,1.93,2.55,4.47,5.05,7.82,6.93Z"/>
              <path class="cls-5" d="M225.87,367.72h0v-21.99c-6.61,1.43-14.67,2.43-22.59,1.59-18.45-1.96-19.37-21.05-19.37-21.05,21.61-1.96,20.04-19.65,20.04-19.65h-19.67c-3.06,0-5.56-2.43-5.65-5.48l-.19-6.65c-4.83,1.08-7.48-1.2-8.93-3.75-1.44-2.55-1.59-5.63-.64-8.4l7.96-23.28v-14.49c0-7.28,2.11-11.1,2.23-11.34,6.57,4.87,15.57,8.45,28.07,8.45,2.49,0-8.59-31.57-5.88-31.39,2.71.17,16.57,20.52,19.37,20.94,19.59,3,38.74,8.9,33.24,40.41l6.29,4.97s9.61-21.65,18.25-12.21c8.65,9.43,2.58,30.05-12.35,29.26,0,0,10.32,32.26,13.79,34.25v28.1s1.16,6.02,5.45,11.73c-16.4,16.4-43,16.4-59.4,0h-.02Z"/>
              <path class="cls-8" d="M207.14,241.67c-12.5,0-21.51-3.58-28.07-8.45-7.07-5.26-11.31-12.01-14.03-17.41-9.25-35.03,27.65-48.34,39.55-50.94,27.82-6.09,38.6-8.63,49.29-6.45,91.19,18.66,68.62,92.62,46.07,136.42-10.04,19.51-20.09,33.04-20.09,33.04-3.47-1.99-13.79-34.25-13.79-34.25,14.93.79,21-19.83,12.35-29.26-8.64-9.44-18.25,12.21-18.25,12.21l-6.29-4.97c5.5-31.5-13.65-37.4-33.24-40.41-2.8-.43-16.66-20.77-19.37-20.94-2.71-.17,8.37,31.39,5.88,31.39Z"/>
            </g>
            <g>
              <path class="cls-1" d="M179.08,233.21h0c-.13.24-2.23,4.06-2.23,11.35v14.49l-7.96,23.28c-.95,2.77-.8,5.84.64,8.4,1.45,2.55,4.1,4.83,8.93,3.75l.19,6.65c.09,3.05,2.59,5.48,5.65,5.48h19.67s1.57,17.69-20.04,19.65c0,0,.92,19.09,19.37,21.05,7.92.84,15.98-.16,22.59-1.59,8.78-1.89,15.03-4.52,15.03-4.52"/>
              <path class="cls-1" d="M165.04,215.81c2.72,5.39,6.96,12.15,14.03,17.41,6.57,4.87,15.57,8.45,28.07,8.45,2.49,0-8.59-31.57-5.88-31.39,2.71.17,16.57,20.52,19.37,20.94,19.59,3,38.74,8.9,33.24,40.41l6.29,4.97s9.61-21.65,18.25-12.21c8.65,9.43,2.58,30.05-12.35,29.26,0,0,10.32,32.26,13.79,34.25,0,0,10.05-13.53,20.09-33.04,22.55-43.81,45.12-117.77-46.07-136.42-10.68-2.18-21.47.36-49.29,6.45-11.9,2.6-48.79,15.91-39.55,50.94"/>
              <path class="cls-1" d="M279.85,327.89v28.1s1.16,6.02,5.45,11.73c1.93,2.55,4.47,5.05,7.82,6.93,10.85,6.07,20.39,12.58,20.39,12.58,0,0,18.66,9.98,18.23,26.04h-161.43c-.43-12.15,9.98-18.23,9.98-18.23,0,0,16.05-9.11,28.63-13.89,12.3-4.66,16.76-13.07,16.95-13.44h0v-21.99"/>
              <path class="cls-1" d="M221.8,258.36c-9.29-6.92-22.4-5-29.31,4.29"/>
              <path class="cls-1" d="M285.3,367.73c-16.4,16.4-43,16.4-59.4,0"/>
              <path class="cls-1" d="M292.86,413.28c0-14.39,9.24-26.04,20.65-26.04"/>
            </g>
          </g>
          <circle class="cls-6" cx="201.27" cy="262.03" r="5.66"/>
        </g>
        <g>
          <circle class="cls-3" cx="240.7" cy="157.68" r="34.2"/>
          <g>
            <line class="cls-1" x1="240.7" y1="136.46" x2="240.7" y2="162.12"/>
            <line class="cls-1" x1="240.7" y1="173.14" x2="240.7" y2="178.9"/>
          </g>
        </g>
        <line class="cls-1" x1="370.56" y1="267.69" x2="418" y2="267.69"/>
        <line class="cls-1" x1="142.68" y1="267.69" x2="82" y2="267.69"/>
        <line class="cls-1" x1="313.94" y1="164.02" x2="351.23" y2="106.29"/>
        <line class="cls-1" x1="103.62" y1="118.88" x2="163.24" y2="165.3"/>
        <line class="cls-1" x1="240.9" y1="86.72" x2="240.9" y2="110.24"/>
      </g>
      <path class="cls-1" d="M327.43,197.22c13.49,19.81,8.37,46.76-11.45,60.25"/>
      <line class="cls-1" x1="367.03" y1="203.87" x2="386.2" y2="188.79"/>
      <line class="cls-1" x1="128.07" y1="210.91" x2="142.68" y2="216.07"/>
      <line class="cls-1" x1="367.03" y1="314.9" x2="380.3" y2="321.54"/>
      <line class="cls-1" x1="157.57" y1="307.98" x2="142.68" y2="321.54"/>
      <line class="cls-1" x1="297.7" y1="329.79" x2="325.47" y2="366.34"/>
      <line class="cls-1" x1="195.61" y1="358.81" x2="192.49" y2="373.88"/>
    </g>
  </g>
</svg>