<?xml version="1.0" encoding="UTF-8"?>
<svg id="Layer_1" data-name="Layer 1" xmlns="http://www.w3.org/2000/svg" version="1.1" viewBox="0 0 500 500">
  <defs>
    <style>
      .cls-1, .cls-2 {
        fill: none;
        stroke: #231f20;
        stroke-linecap: round;
        stroke-miterlimit: 10;
        stroke-width: 5px;
      }

      .cls-3 {
        fill: #b1d9f3;
      }

      .cls-3, .cls-4, .cls-5, .cls-6, .cls-7, .cls-8 {
        stroke-width: 0px;
      }

      .cls-2 {
        stroke-dasharray: 0 0 0 12;
      }

      .cls-4 {
        fill: #5eb3e4;
      }

      .cls-5 {
        fill: #a2cfef;
      }

      .cls-6 {
        fill: #d1e7f7;
      }

      .cls-7 {
        fill: #3c6b93;
      }

      .cls-8 {
        fill: #4d8fc2;
      }
    </style>
  </defs>
  <g id="Layer_2" data-name="Layer 2">
    <rect class="cls-4" width="500" height="500"/>
  </g>
  <g id="Layer_1-2" data-name="Layer 1">
    <g>
      <g>
        <path class="cls-6" d="M426.3,263c0,1.6-.7,3.1-1.7,4.2-1.1,1.1-2.5,1.7-4.2,1.7h-50.4v-21.3h40.9c8.5,0,15.4,6.9,15.4,15.4Z"/>
        <path class="cls-8" d="M408.9,268.9v74.8c0,28.5-23.1,51.6-51.6,51.6h-214.7c-28.5,0-51.6-23.1-51.6-51.6v-74.8h209.4v75.7c0,1.9,1.5,3.5,3.5,3.5h62.6c1.9,0,3.5-1.5,3.5-3.5v-75.7h38.9Z"/>
        <path class="cls-7" d="M370,336.7v7.9c0,1.9-1.5,3.5-3.5,3.5h-62.6c-1.9,0-3.5-1.5-3.5-3.5v-7.9h69.6,0Z"/>
        <rect class="cls-3" x="300.5" y="328.2" width="69.6" height="8.4"/>
        <rect class="cls-7" x="300.5" y="268.9" width="69.6" height="59.3"/>
        <rect class="cls-7" x="300.5" y="247.6" width="69.6" height="21.3"/>
        <path class="cls-7" d="M370,246.2v1.5h-69.6v-1.5c0-1.9,1.5-3.5,3.5-3.5h62.6c1.9,0,3.5,1.6,3.5,3.5h0Z"/>
        <path class="cls-5" d="M369.8,413.3c.5.8,0,1.8-1,1.8h-27.1c-.7,0-1.3-.7-1.2-1.4,1.6-7.9-7.6-18.3-7.6-18.3h15.2l5.5,9.8h3.3c6.8,0,11,5.2,12.8,8.1h0Z"/>
        <path class="cls-6" d="M300.5,247.6v21.3H79.6c-3.2,0-5.9-2.6-5.9-5.9s1.7-8.1,4.5-10.9,6.6-4.5,10.9-4.5h211.4Z"/>
        <polygon class="cls-5" points="196.5 100.4 196.5 113.8 153.6 113.8 153.6 100.4 175.1 100.4 196.5 100.4"/>
        <path class="cls-5" d="M175.1,85v15.4h-43.5c-3.6,0-6.5,2.9-6.5,6.5v140.7h-15.4V100.4c0-4.2,1.7-8.1,4.5-10.9s6.7-4.5,10.9-4.5h50Z"/>
        <path class="cls-5" d="M151.8,395.4h15.2s-9.2,10.4-7.6,18.3c.1.7-.4,1.4-1.2,1.4h-27.1c-.9,0-1.5-1-1-1.8,1.8-2.8,6-8.1,12.8-8.1h3.3l5.6-9.8h0Z"/>
      </g>
      <g>
        <path class="cls-1" d="M151.8,395.4h-9.2c-28.5,0-51.6-23.1-51.6-51.6v-74.8"/>
        <line class="cls-1" x1="332.9" y1="395.4" x2="167.1" y2="395.4"/>
        <path class="cls-1" d="M408.9,268.9v74.8c0,28.5-23.1,51.6-51.6,51.6h-9.2"/>
        <line class="cls-1" x1="125.1" y1="247.6" x2="300.5" y2="247.6"/>
        <path class="cls-1" d="M300.5,268.9H79.6c-3.2,0-5.9-2.6-5.9-5.9s1.7-8.1,4.5-10.9,6.6-4.5,10.9-4.5h20.5"/>
        <path class="cls-1" d="M370,247.6h40.9c8.5,0,15.4,6.9,15.4,15.4s-.7,3.1-1.7,4.2c-1.1,1.1-2.5,1.7-4.2,1.7h-50.4"/>
        <path class="cls-1" d="M131.1,415c-.9,0-1.5-1-1-1.8,1.8-2.8,6-8.1,12.8-8.1h3.3l5.6-9.8h15.2s-9.2,10.4-7.6,18.3c.1.7-.4,1.4-1.2,1.4"/>
        <path class="cls-1" d="M368.9,415c.9,0,1.5-1,1-1.8-1.8-2.8-6-8.1-12.8-8.1h-3.3l-5.5-9.8h-15.2s9.2,10.4,7.6,18.3c-.1.7.4,1.4,1.2,1.4"/>
        <polyline class="cls-1" points="73.7 415 131.1 415 158.3 415 341.7 415 368.9 415 426.3 415"/>
        <path class="cls-1" d="M175.1,100.4v-15.4h-50c-4.2,0-8.1,1.7-10.9,4.5s-4.5,6.7-4.5,10.9v147.3h15.4V106.9c0-3.6,2.9-6.5,6.5-6.5h22.1"/>
        <polygon class="cls-1" points="175.1 100.4 196.5 100.4 196.5 113.8 153.6 113.8 153.6 100.4 175.1 100.4"/>
        <line class="cls-2" x1="175.1" y1="125" x2="175.1" y2="210.4"/>
        <line class="cls-2" x1="190" y1="125" x2="190" y2="172.7"/>
        <line class="cls-2" x1="160.1" y1="125" x2="160.1" y2="190"/>
        <path class="cls-1" d="M370,336.7v7.9c0,1.9-1.5,3.5-3.5,3.5h-62.6c-1.9,0-3.5-1.5-3.5-3.5v-98.4c0-1.9,1.5-3.5,3.5-3.5h62.6c1.9,0,3.5,1.6,3.5,3.5v90.5Z"/>
        <line class="cls-1" x1="300.5" y1="336.7" x2="370" y2="336.7"/>
        <line class="cls-1" x1="300.5" y1="328.2" x2="370" y2="328.2"/>
      </g>
    </g>
  </g>
</svg>