<?xml version="1.0" encoding="UTF-8"?>
<svg xmlns="http://www.w3.org/2000/svg" viewBox="0 0 500 500">
  <defs>
    <style>
      .cls-1 {
        fill: #1b3648;
      }

      .cls-1, .cls-2, .cls-3, .cls-4, .cls-5, .cls-6 {
        stroke-width: 0px;
      }

      .cls-2, .cls-7 {
        fill: #d1e7f7;
      }

      .cls-8 {
        fill: none;
      }

      .cls-8, .cls-7 {
        stroke: #231f20;
        stroke-miterlimit: 10;
        stroke-width: 5px;
      }

      .cls-3 {
        fill: #5eb3e4;
      }

      .cls-4 {
        fill: #3c6b93;
      }

      .cls-5 {
        fill: #4d8fc2;
      }

      .cls-6 {
        fill: #85c0e9;
      }
    </style>
  </defs>
  <g id="Layer_2" data-name="Layer 2">
    <rect class="cls-3" x="0" width="500" height="500"/>
  </g>
  <g id="Layer_1" data-name="Layer 1">
    <g>
      <g>
        <path class="cls-2" d="M186.49,135.66v8.87h-25.87v-8.87c0-2.17,1.76-3.93,3.93-3.93h18c2.17,0,3.94,1.76,3.94,3.93Z"/>
        <path class="cls-2" d="M339.37,135.66v8.87h-25.86v-8.87c0-2.17,1.76-3.93,3.93-3.93h18c2.17,0,3.93,1.76,3.93,3.93Z"/>
        <path class="cls-1" d="M388.51,161.42v37.93c0,2.25-1.82,4.08-4.08,4.08H115.56c-2.26,0-4.08-1.83-4.08-4.08v-37.93c0-2.26,1.82-4.08,4.08-4.08h268.87c2.26,0,4.08,1.82,4.08,4.08Z"/>
        <path class="cls-6" d="M376.66,307.95v48.16c0,2.27-1.83,4.1-4.09,4.1H127.42c-2.26,0-4.09-1.83-4.09-4.1v-48.16h253.33Z"/>
        <rect class="cls-5" x="123.33" y="255.69" width="253.33" height="52.26"/>
        <rect class="cls-4" x="123.33" y="203.43" width="253.33" height="52.26"/>
        <polygon class="cls-1" points="344.22 144.53 344.22 157.34 308.66 157.34 308.66 144.53 313.51 144.53 339.37 144.53 344.22 144.53"/>
        <polygon class="cls-1" points="191.33 144.53 191.33 157.34 155.77 157.34 155.77 144.53 160.62 144.53 186.49 144.53 191.33 144.53"/>
      </g>
      <g>
        <path class="cls-8" d="M376.66,203.43v152.68c0,2.27-1.83,4.1-4.09,4.1H127.42c-2.26,0-4.09-1.83-4.09-4.1v-152.68"/>
        <path class="cls-8" d="M376.66,203.43h7.77c2.26,0,4.08-1.83,4.08-4.08v-37.93c0-2.26-1.82-4.08-4.08-4.08H115.56c-2.26,0-4.08,1.82-4.08,4.08v37.93c0,2.25,1.82,4.08,4.08,4.08h261.1Z"/>
        <polyline class="cls-8" points="308.66 157.34 308.66 144.53 313.51 144.53 339.37 144.53 344.22 144.53 344.22 157.34"/>
        <polyline class="cls-8" points="155.77 157.34 155.77 144.53 160.62 144.53 186.49 144.53 191.33 144.53 191.33 157.34"/>
        <path class="cls-8" d="M160.62,144.53v-8.87c0-2.17,1.76-3.93,3.93-3.93h18c2.17,0,3.94,1.76,3.94,3.93v8.87"/>
        <path class="cls-8" d="M313.51,144.53v-8.87c0-2.17,1.76-3.93,3.93-3.93h18c2.17,0,3.93,1.76,3.93,3.93v8.87"/>
        <line class="cls-8" x1="160.26" y1="180.38" x2="186.84" y2="180.38"/>
        <polyline class="cls-8" points="313.15 180.38 326.44 180.38 339.73 180.38"/>
        <polyline class="cls-8" points="326.44 167.1 326.44 180.38 326.44 193.67"/>
        <line class="cls-8" x1="123.33" y1="255.69" x2="376.66" y2="255.69"/>
        <line class="cls-8" x1="123.33" y1="307.95" x2="376.66" y2="307.95"/>
      </g>
    </g>
    <path class="cls-7" d="M225.41,284.3c7.51-3.31,14.84-6.54,22.31-9.84-4.39-13.7-8.76-27.31-13.12-40.93.11-.06.22-.12.33-.18,13.16,15.27,26.31,30.55,39.67,46.05-7.51,3.31-14.82,6.54-22.31,9.84,4.38,13.66,8.74,27.26,13.1,40.86-.11.06-.23.13-.34.19-13.16-15.27-26.31-30.55-39.62-46Z"/>
  </g>
</svg>