<?xml version="1.0" encoding="UTF-8"?>
<svg id="Layer_1" xmlns="http://www.w3.org/2000/svg" version="1.1" viewBox="0 0 500 500">
  <!-- Generator: Adobe Illustrator 29.0.1, SVG Export Plug-In . SVG Version: 2.1.0 Build 192)  -->
  <defs>
    <style>
      .st0, .st1 {
        fill: #03463f;
      }

      .st2 {
        stroke: #d7d8da;
      }

      .st2, .st3 {
        fill: none;
        stroke-linecap: round;
      }

      .st2, .st3, .st1 {
        stroke-miterlimit: 10;
        stroke-width: 5px;
      }

      .st3, .st1 {
        stroke: #231f20;
      }

      .st4 {
        fill: #068a7c;
      }

      .st5 {
        fill: #e9ebed;
      }

      .st6 {
        fill: #00aa9a;
      }
    </style>
  </defs>
  <rect class="st6" x=".3" y="-.4" width="500" height="500"/>
  <g>
    <rect class="st1" x="93.4" y="178.8" width="165.7" height="165.7" rx="12.8" ry="12.8"/>
    <path class="st2" d="M121.6,316.2v-107.8c0-.5.7-.8,1-.4l107.1,107.1c.4.4,1,.1,1-.4v-107.8"/>
  </g>
  <g>
    <g>
      <polygon class="st5" points="435.9 184.8 417.5 203.2 404.3 202.3 404.3 202.3 423 183.5 435.9 184.8"/>
      <polygon class="st0" points="421.8 170.7 423 183.5 404.3 202.3 403.4 189.1 421.8 170.7"/>
      <path class="st0" d="M386.3,220.2c-10.9-11.1-26.1-18-42.9-18-33.3,0-60.3,27-60.3,60.3s27,60.3,60.3,60.3,60.3-27,60.3-60.3-6.6-31.4-17.4-42.3ZM402.8,203.8c14.5,14.9,23.5,35.3,23.5,57.8,0,45.8-37.1,82.8-82.8,82.8s-82.8-37.1-82.8-82.8,37.1-82.8,82.8-82.8,44.3,9.6,59.4,25.1Z"/>
      <path class="st5" d="M370.1,236.4c-6.8-6.9-16.3-11.3-26.7-11.3-20.6,0-37.4,16.7-37.4,37.4s16.7,37.4,37.4,37.4,37.4-16.7,37.4-37.4-4.1-19.4-10.6-26.1ZM386.3,220.2c10.7,10.9,17.4,25.8,17.4,42.3,0,33.3-27,60.3-60.3,60.3s-60.3-27-60.3-60.3,27-60.3,60.3-60.3,32,6.9,42.9,18Z"/>
      <path class="st0" d="M370.1,236.4c6.6,6.7,10.6,15.9,10.6,26.1,0,20.6-16.7,37.4-37.4,37.4s-37.4-16.7-37.4-37.4,16.7-37.4,37.4-37.4,19.9,4.3,26.7,11.3ZM353.9,252.7c-2.6-2.8-6.3-4.5-10.5-4.5-7.9,0-14.4,6.4-14.4,14.4s6.4,14.4,14.4,14.4,14.4-6.4,14.4-14.4-1.5-7.3-3.9-9.8Z"/>
      <path class="st4" d="M353.9,252.7c2.4,2.6,3.9,6,3.9,9.8,0,7.9-6.4,14.4-14.4,14.4s-14.4-6.4-14.4-14.4,6.4-14.4,14.4-14.4,7.8,1.7,10.5,4.5Z"/>
    </g>
    <g>
      <path class="st3" d="M426.3,261.6c0,45.8-37.1,82.8-82.8,82.8s-82.8-37.1-82.8-82.8,37.1-82.8,82.8-82.8,44.3,9.6,59.4,25.1c14.5,14.9,23.5,35.3,23.5,57.8Z"/>
      <path class="st3" d="M403.7,262.6c0,33.3-27,60.3-60.3,60.3s-60.3-27-60.3-60.3,27-60.3,60.3-60.3,32,6.9,42.9,18c10.7,10.9,17.4,25.8,17.4,42.3Z"/>
      <path class="st3" d="M380.8,262.6c0,20.6-16.7,37.4-37.4,37.4s-37.4-16.7-37.4-37.4,16.7-37.4,37.4-37.4,19.9,4.3,26.7,11.3c6.6,6.7,10.6,15.9,10.6,26.1Z"/>
      <path class="st3" d="M357.8,262.6c0,7.9-6.4,14.4-14.4,14.4s-14.4-6.4-14.4-14.4,6.4-14.4,14.4-14.4,7.8,1.7,10.5,4.5c2.4,2.6,3.9,6,3.9,9.8Z"/>
      <polyline class="st3" points="404.3 202.3 403.4 189.1 421.8 170.7 423 183.5 435.9 184.8 417.5 203.2 404.3 202.3"/>
      <polyline class="st3" points="423 183.5 404.3 202.3 404.3 202.3 402.8 203.8 386.3 220.2 370.1 236.4 353.9 252.7 343.4 263.2"/>
    </g>
  </g>
</svg>