<?xml version="1.0" encoding="UTF-8"?>
<svg xmlns="http://www.w3.org/2000/svg" viewBox="0 0 500 500">
  <defs>
    <style>
      .cls-1 {
        fill: none;
        stroke: #231f20;
        stroke-linecap: round;
        stroke-miterlimit: 10;
        stroke-width: 5px;
      }

      .cls-2 {
        fill: #d2cfe1;
      }

      .cls-2, .cls-3, .cls-4, .cls-5, .cls-6, .cls-7, .cls-8, .cls-9, .cls-10 {
        stroke-width: 0px;
      }

      .cls-3 {
        fill: #005a65;
      }

      .cls-4 {
        fill: #cdebef;
      }

      .cls-5 {
        fill: #009eac;
      }

      .cls-6 {
        fill: #68bfcb;
      }

      .cls-7 {
        fill: #027788;
      }

      .cls-8 {
        fill: #b5dfe7;
      }

      .cls-9 {
        fill: #022c33;
      }

      .cls-10 {
        fill: #0b8699;
      }
    </style>
  </defs>
  <g id="Layer_2" data-name="Layer 2">
    <rect class="cls-5" width="500" height="500"/>
  </g>
  <g id="Layer_1" data-name="Layer 1">
    <g>
      <g>
        <path class="cls-9" d="M150.74,278.87c-37.06,0-67.11,30.04-67.11,67.11s30.04,67.1,67.11,67.1c34.62,0,63.11-26.22,66.71-59.88h-11.31c-3.75,27.25-27.13,48.23-55.41,48.23-30.89,0-55.94-25.04-55.94-55.93s25.05-55.93,55.94-55.93c2.3,0,4.57.13,6.8.41l2.49-10.46c-3.04-.42-6.15-.64-9.3-.64Z"/>
        <path class="cls-9" d="M140.08,219.22c-3.34,0-5.79,3.15-4.96,6.39l2.09,8.25c1.65,6.47,7.48,11.01,14.16,11.01h15.83c-.24-.34-.48-.68-.7-1.03l-1.8-2.76c-4.29-6.57-6.63-14.15-6.85-21.85h-17.76Z"/>
        <path class="cls-6" d="M145.12,342c-.61,2.53-.12,5.19,1.38,7.31.85,1.21,1.96,2.18,3.24,2.85,1.28.66,2.7,1.03,4.19,1.03h77.05c-.19-.68-.23-1.4-.08-2.14l1.88-9.23h-74.69c-.29,0-.51-.28-.44-.56l11.27-48.7,2.43-10.48,5.38-23.22c.38-1.63.1-3.33-.72-4.74-2.99-2.31-5.65-5.02-7.91-8.05l-.04-.04-7.99,33.48-2.49,10.46-12.42,52.04Z"/>
        <path class="cls-3" d="M157.84,219.22c.23,7.7,2.56,15.28,6.85,21.85l1.8,2.76c.23.35.46.69.7,1.03.28.41.58.82.88,1.21l6.82,6.65c.43.43.8.89,1.09,1.41,1.78,1.39,3.68,2.63,5.67,3.73l31.01,11.15,12.5,37.96,9.07,27.56h22.22l-1.41-16.21-.83-9.57-3.69-42.38c-.33-3.82-1.64-7.46-3.79-10.59-.66-.96-1.39-1.88-2.2-2.73l-7.75-8.18-24.77-26.17-51.56-16.31-1.31,5.09c-.99,3.88-1.43,7.83-1.31,11.75Z"/>
        <path class="cls-10" d="M160.46,202.38l51.56,16.31,41.84-24.8c3.66-2.18,8.27-1.93,11.69.61l44.28,32.94c1.35,1,2.87,1.4,4.34,1.31,2.37-.13,4.58-1.55,5.65-3.74.41-.86.65-1.84.65-2.91v-13.79l-60.77-57.13-.25.47-16.13-7.21c-1.77-.79-2.75-2.45-2.84-4.16-4.24.04-8.47,1.53-11.91,4.44l-68.1,57.66Z"/>
        <path class="cls-7" d="M174.89,252.72l-6.82-6.65c2.27,3.04,4.93,5.75,7.91,8.05-.29-.52-.66-.98-1.09-1.41Z"/>
        <path class="cls-9" d="M171.32,282.08l-2.43,10.48c20.22,6.98,35.3,25.28,37.51,47.29.06.65.12,1.3.16,1.96h11.16c-1.71-28.06-20.66-51.46-46.39-59.74Z"/>
        <polygon class="cls-9" points="181.65 257.85 225.16 306.97 212.66 269 181.65 257.85"/>
        <path class="cls-4" d="M230.88,351.05c-.15.74-.11,1.47.08,2.14.53,1.85,2.23,3.26,4.33,3.26h41.62c1.98,0,3.01-2.38,1.65-3.83,0,0-2.3-4.41-6.19-6.65-4.72-2.73-7.05-1.75-11.98-4.39-.91-.49-1.61-1.3-2-2.26l-1.94-4.8h-22.22l-1.48,7.3-1.88,9.23Z"/>
        <path class="cls-6" d="M236.78,244.86l7.75,8.18c.81.86,1.54,1.78,2.2,2.73l53.77,7.7,24.03,3.44-6-22.05h-81.76Z"/>
        <path class="cls-8" d="M242.2,136.34c-1.25,1.03-1.81,2.5-1.74,3.94,4.28-.06,8.57,1.34,12.09,4.2l7.13,6.7,3.28-6.23,18.09-2.74c3.52-.53,4.64-4.94,4.64-8.51l5.19-6.75-3.71-17.5c-.23,0-.45-.04-.69-.08l-12-2.29c-2.9-.55-5.89.27-8.1,2.22l1.01,7.29c-1.97,1.73-6.95-.62-7.04,2l-.34,9.36-17.79,8.4Z"/>
        <path class="cls-2" d="M252.55,144.48c-3.52-2.86-7.81-4.26-12.09-4.2.08,1.71,1.07,3.37,2.84,4.16l16.13,7.21.25-.47-7.13-6.7Z"/>
        <path class="cls-9" d="M242.2,112.79v23.55l17.79-8.4.34-9.36c.09-2.62,5.07-.27,7.04-2l-1.01-7.29c2.22-1.95,5.2-2.77,8.1-2.22l12,2.29c.24.04.47.08.69.08,3.59.17,6.15-3.74,4.29-7.03l-2.19-3.9c-4.04-7.15-11.62-11.59-19.85-11.59h-2.71c-7.28,0-14.08,3.64-18.12,9.7l-2.73,4.09c-2.38,3.58-3.66,7.78-3.66,12.07Z"/>
        <polygon class="cls-6" points="254.21 308.74 255.05 318.31 324.55 266.95 324.54 266.92 300.51 263.47 254.21 308.74"/>
        <path class="cls-9" d="M328.67,282.08c-26.99,8.7-46.51,34.01-46.51,63.89,0,37.06,30.03,67.1,67.1,67.1s67.1-30.04,67.1-67.1-30.04-67.11-67.1-67.11c-3.24,0-6.74.25-9.86.69l.27,1.18,2.31,8.82.1.46c2.35-.31,4.75-.46,7.19-.46,30.89,0,55.93,25.04,55.93,55.93s-25.04,55.93-55.93,55.93-55.93-25.04-55.93-55.93c0-24.5,16.21-45.49,38.14-53.06l-2.79-10.33v-.02Z"/>
        <path class="cls-6" d="M318.54,244.86l6,22.05h.04s-.03.03-.03.03l4.13,15.13v.02l2.79,10.33,15.17,56.15c.5,1.85,2.18,3.13,4.09,3.13,2.38,0,4.23-1.95,4.23-4.23,0-.31-.03-.62-.1-.93l-12.77-56.53-.1-.46-2.31-8.82-.27-1.18-10.92-48.55-8.67-6c-1.07,2.19-3.28,3.61-5.65,3.74h0s4.39,16.11,4.39,16.11Z"/>
        <path class="cls-8" d="M319.8,225.01l8.67,6,7.4,5.13c4.31,2.98,10.25.32,10.9-4.89l.58-4.69c1.04-8.32-4.94-15.89-13.28-16.79l-13.62-1.47v13.79c0,1.07-.24,2.05-.65,2.91Z"/>
      </g>
      <g>
        <path class="cls-1" d="M217.46,353.19c-3.6,33.66-32.09,59.88-66.71,59.88-37.06,0-67.11-30.04-67.11-67.1s30.04-67.11,67.11-67.11c3.15,0,6.25.23,9.3.64"/>
        <path class="cls-1" d="M171.32,282.08c25.73,8.28,44.69,31.68,46.39,59.74"/>
        <path class="cls-1" d="M339.4,279.56c3.13-.44,6.62-.69,9.86-.69,37.06,0,67.1,30.04,67.1,67.11s-30.04,67.1-67.1,67.1-67.1-30.04-67.1-67.1c0-29.88,19.52-55.19,46.51-63.89"/>
        <path class="cls-1" d="M240.46,140.27c-4.24.04-8.47,1.53-11.91,4.44l-68.1,57.66,51.56,16.31,41.84-24.8c3.66-2.18,8.27-1.93,11.69.61l44.28,32.94c1.35,1,2.87,1.4,4.34,1.31,2.37-.13,4.58-1.55,5.65-3.74.41-.86.65-1.84.65-2.91v-13.79l-60.77-57.13"/>
        <path class="cls-1" d="M287.17,109.45l3.71,17.5-5.19,6.75c0,3.57-1.13,7.98-4.64,8.51l-18.09,2.74-3.28,6.23-.25.47-16.13-7.21c-1.77-.79-2.75-2.45-2.84-4.16-.07-1.43.49-2.9,1.74-3.94v-23.55c0-4.29,1.28-8.5,3.66-12.07l2.73-4.09c4.04-6.05,10.84-9.7,18.12-9.7h2.71c8.22,0,15.8,4.44,19.85,11.59l2.19,3.9c1.86,3.29-.7,7.2-4.29,7.03-.23,0-.45-.04-.69-.08l-12-2.29c-2.9-.55-5.89.27-8.1,2.22l1.01,7.29c-1.97,1.73-6.95-.62-7.04,2l-.34,9.36-17.79,8.4"/>
        <line class="cls-1" x1="277.53" y1="117.81" x2="280.75" y2="117.81"/>
        <path class="cls-1" d="M320.45,208.31l13.62,1.47c8.35.9,14.33,8.47,13.28,16.79l-.58,4.69c-.65,5.2-6.59,7.86-10.9,4.89l-7.4-5.13-8.67-6"/>
        <path class="cls-1" d="M314.16,228.76l4.39,16.1,6,22.05v.03s4.14,15.13,4.14,15.13v.02l2.79,10.33,15.17,56.15c.5,1.85,2.18,3.13,4.09,3.13,2.38,0,4.23-1.95,4.23-4.23,0-.31-.03-.62-.1-.93l-12.77-56.53-.1-.46-2.31-8.82-.27-1.18-10.92-48.55"/>
        <path class="cls-1" d="M160.46,202.38l-1.31,5.09c-.99,3.88-1.43,7.83-1.31,11.75.23,7.7,2.56,15.28,6.85,21.85l1.8,2.76c.23.35.46.69.7,1.03.28.41.58.82.88,1.21,2.27,3.04,4.93,5.75,7.91,8.05,1.78,1.39,3.68,2.63,5.67,3.73l31.01,11.15,12.5,37.96,9.07,27.56h22.22l-1.41-16.21-.83-9.57-3.69-42.38c-.33-3.82-1.64-7.46-3.79-10.59-.66-.96-1.39-1.88-2.2-2.73l-7.75-8.18-24.77-26.17"/>
        <path class="cls-1" d="M234.23,334.52l-1.48,7.3-1.88,9.23c-.15.74-.11,1.47.08,2.14.53,1.85,2.23,3.26,4.33,3.26h41.62c1.98,0,3.01-2.38,1.65-3.83,0,0-2.3-4.41-6.19-6.65-4.72-2.73-7.05-1.75-11.98-4.39-.91-.49-1.61-1.3-2-2.26l-1.94-4.8"/>
        <polyline class="cls-1" points="236.78 244.86 318.54 244.86 318.62 244.86"/>
        <polyline class="cls-1" points="246.73 255.78 300.51 263.47 324.54 266.92 324.58 266.92"/>
        <line class="cls-1" x1="300.51" y1="263.47" x2="254.21" y2="308.74"/>
        <polyline class="cls-1" points="324.58 266.92 324.55 266.95 255.05 318.31"/>
        <path class="cls-1" d="M232.76,341.82h-74.69c-.29,0-.51-.28-.44-.56l11.27-48.7,2.43-10.48,5.38-23.22c.38-1.63.1-3.33-.72-4.74-.29-.52-.66-.98-1.09-1.41l-6.82-6.65-.04-.04-7.99,33.48-2.49,10.46-12.42,52.04c-.61,2.53-.12,5.19,1.38,7.31.85,1.21,1.96,2.18,3.24,2.85,1.28.66,2.7,1.03,4.19,1.03h77.05"/>
        <path class="cls-1" d="M157.85,219.22h-17.77c-3.34,0-5.79,3.15-4.96,6.39l2.09,8.25c1.65,6.47,7.48,11.01,14.16,11.01h15.82"/>
        <path class="cls-1" d="M334.08,209.77h14.03c6.5,0,11.76,5.27,11.76,11.77v7c0,3.76-3.05,6.81-6.81,6.81"/>
        <path class="cls-1" d="M206.15,353.19c-3.75,27.25-27.13,48.23-55.41,48.23-30.89,0-55.94-25.04-55.94-55.93s25.05-55.93,55.94-55.93c2.3,0,4.57.13,6.8.41"/>
        <path class="cls-1" d="M168.89,292.56c20.22,6.98,35.3,25.28,37.51,47.29.06.65.12,1.3.16,1.96"/>
        <path class="cls-1" d="M342.07,290.01c2.35-.31,4.75-.46,7.19-.46,30.89,0,55.93,25.04,55.93,55.93s-25.04,55.93-55.93,55.93-55.93-25.04-55.93-55.93c0-24.5,16.21-45.49,38.14-53.06"/>
        <line class="cls-1" x1="181.65" y1="257.85" x2="225.16" y2="306.97"/>
      </g>
    </g>
  </g>
</svg>