<?xml version="1.0" encoding="UTF-8"?>
<svg xmlns="http://www.w3.org/2000/svg" viewBox="0 0 500 500">
  <defs>
    <style>
      .cls-1 {
        fill: none;
        stroke: #231f20;
        stroke-linecap: round;
        stroke-miterlimit: 10;
        stroke-width: 5px;
      }

      .cls-2 {
        fill: #437eac;
      }

      .cls-2, .cls-3, .cls-4, .cls-5 {
        stroke-width: 0px;
      }

      .cls-3 {
        fill: #5eb3e4;
      }

      .cls-4 {
        fill: #4d8fc2;
      }

      .cls-5 {
        fill: #85c0e9;
      }
    </style>
  </defs>
  <g id="Layer_2" data-name="Layer 2">
    <rect class="cls-3" width="500" height="500"/>
  </g>
  <g id="Layer_1" data-name="Layer 1">
    <g>
      <g>
        <path class="cls-2" d="M381.39,175.71c.4-.02.81-.03,1.21-.03,17.51,0,31.7,14.19,31.7,31.7,0,6.33-1.86,12.23-5.06,17.18,3.24,6.55,5.06,13.93,5.06,21.74s-1.94,15.65-5.38,22.36c-8.13,15.89-24.67,26.77-43.75,26.77-13.01,0-24.84-5.06-33.63-13.31v-1.24c-13.38,0-24.22-10.85-24.22-24.22,4.41-36.9-21.57-17.87-43.24-6.69l-.15-.29c-11.01,4.38-36.22-5.99-29.73-28.66h0c2.27-.44,4.53-1.07,6.76-1.93,20.21-7.75,30.31-30.4,22.57-50.61l-.45-1.95c7.76-1.63,15.2-8.01,15.25-23.19.09-24.48,23.71-26.56,29.2-26.66.51,0,.87,0,1.03,0,35.93-1.83,66.97,23.65,72.83,59.03Z"/>
        <path class="cls-4" d="M367.63,330.97c23.35,17.91,16.76,74.5,16.76,74.5h-26.13s7.96-30.29-31.81-40.14c-39.77-9.85-42.42-41.38-42.42-41.38v-.1c-8.27-.54-16.43-3.71-23.16-9.57l-2.85-.18c-9.01,10.33-22.27,16.86-37.06,16.86-21.89,0-40.44-14.32-46.79-34.11-1.52-4.73-2.34-9.78-2.34-15.02,0-2.02.12-4.02.36-5.98l-.47-1.06c6.04-2.62,10.79-7.86,16.12-12.17,23.43-18.93,35.88,3.36,66.93-8.38,2.93-1.11,6.07-2.6,9.31-4.27,21.67-11.18,47.65-30.21,43.24,6.69,0,13.37,10.84,24.22,24.22,24.22v1.24c8.79,8.25,20.62,13.31,33.63,13.31,19.08,0,35.62-10.88,43.75-26.77l.59.11c-.98,27.92-18,51.5-41.88,62.2Z"/>
        <path class="cls-5" d="M263.08,166.53l.45,1.95c7.74,20.21-2.36,42.86-22.57,50.61-2.23.86-4.49,1.49-6.76,1.92h0c-15.37,2.93-31.05-3.69-39.74-16.57h-.14c1.09-12.89-4.3-25.72-14.59-33.93l1.64-.34c10.13-10.56,9.78-27.33-.78-37.46l-.58-.56c-1.79-1.7-3.75-3.21-5.86-4.5h0c4.6-11.42,15.76-21.66,30.67-26.64,18.3-6.1,36.85-2.46,46.94,7.96,5.65-8.69,15.45-14.44,26.59-14.44,14.14,0,24.36,9.41,29.18,22.15-5.49.1-29.11,2.18-29.2,26.66-.05,15.18-7.49,21.56-15.25,23.19Z"/>
        <path class="cls-2" d="M263.93,249.68l.15.29c-3.24,1.67-6.38,3.16-9.31,4.27-31.05,11.74-43.5-10.55-66.93,8.38-5.33,4.31-10.08,9.55-16.12,12.17-2.37,1.03-4.95,1.66-7.84,1.66-15.28,0-27.67-12.39-27.67-27.67l-.35-1.22c4.36-1.24,8.19-4.15,10.51-8.26,17.36,4.06,35.85-4.19,44.06-20.87,2.23-4.52,3.5-9.26,3.89-13.99h.14c8.69,12.88,24.37,19.5,39.74,16.58-6.49,22.67,18.72,33.04,29.73,28.66Z"/>
        <path class="cls-5" d="M179.73,170.51c10.29,8.21,15.68,21.04,14.59,33.93-.39,4.73-1.66,9.47-3.89,13.99-8.21,16.68-26.7,24.93-44.06,20.87-2.32,4.11-6.15,7.02-10.51,8.26l.35,1.22c0,15.28,12.39,27.67,27.67,27.67,2.89,0,5.47-.63,7.84-1.66l.47,1.06c-.24,1.96-.36,3.96-.36,5.98,0,5.24.82,10.29,2.34,15.02-7.38,2.93-15.43,4.54-23.85,4.54-35.69,0-64.63-28.93-64.63-64.63,0-12.95,3.81-25.02,10.38-35.13-.18-1.46-.28-2.95-.28-4.46,0-15.83,10.34-29.23,24.63-33.83-.27-1.77-.41-3.58-.41-5.42,0-19.63,15.91-35.54,35.53-35.54,6.82,0,13.2,1.93,18.61,5.27,2.11,1.29,4.07,2.8,5.86,4.5l.58.56c10.56,10.13,10.91,26.9.78,37.46l-1.64.34Z"/>
      </g>
      <g>
        <path class="cls-1" d="M174.15,127.64c4.6-11.41,15.76-21.65,30.67-26.63,18.3-6.1,36.85-2.46,46.94,7.96"/>
        <path class="cls-1" d="M308.56,116.68c35.93-1.83,66.97,23.65,72.83,59.03"/>
        <path class="cls-1" d="M409.51,268.77c-.98,27.92-18,51.5-41.88,62.2-2.66,1.19-5.41,2.22-8.23,3.08"/>
        <path class="cls-1" d="M316.31,310.46c-8.39,9.63-20.44,14.19-32.27,13.39-8.28-.54-16.44-3.71-23.17-9.57"/>
        <path class="cls-1" d="M372.87,177.21c2.7-.87,5.56-1.39,8.52-1.5.4-.02.81-.03,1.21-.03,17.51,0,31.7,14.19,31.7,31.7,0,6.33-1.86,12.23-5.06,17.18-1.73,2.67-3.84,5.05-6.25,7.09"/>
        <path class="cls-1" d="M355.76,256.66c0,13.37-10.85,24.22-24.22,24.22s-24.22-10.85-24.22-24.22"/>
        <path class="cls-1" d="M286.44,279.01c1.27,12.14-7.55,23.01-19.69,24.28-12.14,1.26-23.01-7.56-24.27-19.7"/>
        <path class="cls-1" d="M96.07,201.63c-.18-1.46-.28-2.95-.28-4.46,0-15.83,10.34-29.23,24.63-33.83"/>
        <path class="cls-1" d="M125.59,177.04c-2.61-4.07-4.4-8.72-5.17-13.7-.27-1.77-.41-3.58-.41-5.42,0-19.63,15.91-35.54,35.53-35.54,6.82,0,13.2,1.93,18.61,5.27,2.11,1.29,4.07,2.8,5.86,4.5"/>
        <path class="cls-1" d="M174.17,296.85c-7.38,2.93-15.43,4.54-23.85,4.54-35.69,0-64.63-28.93-64.63-64.63,0-12.95,3.81-25.02,10.38-35.13,3.87-5.97,8.7-11.25,14.27-15.65"/>
        <path class="cls-1" d="M264.52,304.58c-1.79,3.43-3.98,6.62-6.5,9.52-9.01,10.33-22.27,16.86-37.06,16.86-21.89,0-40.44-14.32-46.79-34.11-1.52-4.73-2.34-9.78-2.34-15.02,0-2.02.12-4.02.36-5.98"/>
        <path class="cls-1" d="M409.24,224.56c3.24,6.55,5.06,13.93,5.06,21.74s-1.94,15.65-5.38,22.36c-8.13,15.89-24.67,26.77-43.75,26.77-13.01,0-24.84-5.06-33.63-13.31"/>
        <path class="cls-1" d="M367.62,330.96h.01c23.35,17.92,16.76,74.51,16.76,74.51h-26.13s7.96-30.29-31.81-40.14c-39.77-9.85-42.42-41.38-42.42-41.38"/>
        <path class="cls-1" d="M172.56,165.97c2.6,1.28,4.99,2.8,7.17,4.54,10.29,8.21,15.68,21.04,14.59,33.93-.39,4.73-1.66,9.47-3.89,13.99-8.21,16.68-26.7,24.93-44.06,20.87"/>
        <path class="cls-1" d="M180.59,132.71c10.56,10.13,10.91,26.9.78,37.46"/>
        <path class="cls-1" d="M349.6,203.95c-2.47,13.63-15.53,22.67-29.16,20.2"/>
        <path class="cls-1" d="M172.27,156.72c2.5,6.03-.36,12.94-6.38,15.44"/>
        <path class="cls-1" d="M120.18,187.18c2.64-7.18,10.61-10.86,17.79-8.22"/>
        <path class="cls-1" d="M147.81,225.3c1.16,3.63,1.16,7.66-.28,11.5-.33.88-.72,1.71-1.16,2.5-2.32,4.11-6.15,7.02-10.51,8.26-3.48.99-7.3.91-10.95-.45-2.93-1.1-5.4-2.89-7.28-5.13"/>
        <path class="cls-1" d="M234.2,221.02c-15.37,2.92-31.05-3.7-39.74-16.58"/>
        <path class="cls-1" d="M263.53,168.48c7.74,20.21-2.36,42.86-22.57,50.61-2.23.86-4.49,1.49-6.76,1.92"/>
        <path class="cls-1" d="M308.56,116.68c-.16,0-.52,0-1.03,0-5.49.1-29.11,2.18-29.2,26.66-.05,15.18-7.49,21.56-15.25,23.19-5.09,1.08-10.32.12-13.69-1.72-2.75-1.51-4.93-3.64-6.48-6.12"/>
        <path class="cls-1" d="M302.07,174.19c-7.57-9.11-6.33-22.63,2.78-30.21,7.83-6.5,18.92-6.5,26.69-.59"/>
        <path class="cls-1" d="M299.91,187.64c-.99-1.83-1.39-4-1-6.21.91-5.24,5.9-8.74,11.13-7.83,1.69.3,3.2,1.02,4.44,2.03"/>
        <path class="cls-1" d="M200.42,277.17c.52-11.84,10.53-21.01,22.37-20.49"/>
        <path class="cls-1" d="M263.93,249.68c-11.01,4.38-36.22-5.99-29.73-28.66h0"/>
        <path class="cls-1" d="M370.23,193.81c-1.72,3.4-4.56,6.26-8.28,7.99-8.81,4.07-19.26.23-23.33-8.58-1.32-2.84-1.63-4.85-1.57-8.77.18-12.58,14.89-35.76-17.33-47.27,0,0-8.19-1.42-9.68-10.96-.52-3.31-1.36-6.52-2.51-9.54-4.82-12.74-15.04-22.15-29.18-22.15-11.14,0-20.94,5.75-26.59,14.44-1.53,2.35-2.75,4.9-3.61,7.62"/>
        <path class="cls-1" d="M307.32,256.66c4.41-36.9-21.57-17.87-43.24-6.69-3.24,1.67-6.38,3.16-9.31,4.27-31.05,11.74-43.5-10.55-66.93,8.38-5.33,4.31-10.08,9.55-16.12,12.17-2.37,1.03-4.95,1.66-7.84,1.66-15.28,0-27.67-12.39-27.67-27.67"/>
      </g>
    </g>
  </g>
</svg>