<?xml version="1.0" encoding="UTF-8"?>
<svg id="Layer_2" data-name="Layer 2" xmlns="http://www.w3.org/2000/svg" viewBox="0 0 500 500">
  <defs>
    <style>
      .cls-1 {
        fill: #a09dc3;
      }

      .cls-1, .cls-2, .cls-3, .cls-4, .cls-5 {
        stroke-width: 0px;
      }

      .cls-2 {
        fill: #d2cfe1;
      }

      .cls-6 {
        fill: none;
        stroke: #231f20;
        stroke-miterlimit: 10;
        stroke-width: 5px;
      }

      .cls-3 {
        fill: #46416e;
      }

      .cls-4 {
        fill: #625d9c;
      }

      .cls-5 {
        fill: #27253d;
      }
    </style>
  </defs>
  <rect class="cls-4" y="-.27" width="500" height="500"/>
  <g>
    <g>
      <path class="cls-3" d="M410.05,104.05v291.9c0,7.79-6.31,14.1-14.1,14.1H104.04c-7.79,0-14.1-6.31-14.1-14.1V104.05c0-7.79,6.31-14.1,14.1-14.1h291.91c7.79,0,14.1,6.31,14.1,14.1ZM355.54,248.97c0-38.86-31.5-70.36-70.36-70.36-12.81,0-24.83,3.42-35.18,9.42-10.35-5.99-22.37-9.42-35.19-9.42-38.86,0-70.36,31.5-70.36,70.36s31.5,70.37,70.36,70.37c12.82,0,24.84-3.43,35.19-9.42,10.35,5.99,22.37,9.42,35.18,9.42,38.86,0,70.36-31.5,70.36-70.37Z"/>
      <path class="cls-1" d="M285.18,178.61c38.86,0,70.36,31.5,70.36,70.36s-31.5,70.37-70.36,70.37c-12.81,0-24.83-3.43-35.18-9.42,21.03-12.16,35.18-34.9,35.18-60.95s-14.15-48.78-35.18-60.94c10.35-6,22.37-9.42,35.18-9.42Z"/>
      <path class="cls-5" d="M250,188.03c21.03,12.16,35.18,34.9,35.18,60.94s-14.15,48.79-35.18,60.95c-21.04-12.16-35.19-34.9-35.19-60.95s14.15-48.78,35.19-60.94Z"/>
      <path class="cls-2" d="M250,188.03c-21.04,12.16-35.19,34.89-35.19,60.94s14.15,48.79,35.19,60.95c-10.35,5.99-22.37,9.42-35.19,9.42-38.86,0-70.36-31.5-70.36-70.37s31.5-70.36,70.36-70.36c12.82,0,24.84,3.43,35.19,9.42Z"/>
    </g>
    <g>
      <rect class="cls-6" x="89.94" y="89.95" width="320.11" height="320.1" rx="14.1" ry="14.1"/>
      <path class="cls-6" d="M250,188.03c21.03,12.16,35.18,34.9,35.18,60.94s-14.15,48.79-35.18,60.95c-10.35,5.99-22.37,9.42-35.19,9.42-38.86,0-70.36-31.5-70.36-70.37s31.5-70.36,70.36-70.36c12.82,0,24.84,3.43,35.19,9.42Z"/>
      <path class="cls-6" d="M250,188.03c10.35-6,22.37-9.42,35.18-9.42,38.86,0,70.36,31.5,70.36,70.36s-31.5,70.37-70.36,70.37c-12.81,0-24.83-3.43-35.18-9.42-21.04-12.16-35.19-34.9-35.19-60.95s14.15-48.78,35.19-60.94Z"/>
    </g>
  </g>
</svg>