<?xml version="1.0" encoding="UTF-8"?>
<svg id="Layer_2" data-name="Layer 2" xmlns="http://www.w3.org/2000/svg" version="1.1" viewBox="0 0 500 500">
  <defs>
    <style>
      .cls-1, .cls-2, .cls-3, .cls-4, .cls-5 {
        stroke-width: 0px;
      }

      .cls-1, .cls-6 {
        fill: #a09dc3;
      }

      .cls-7 {
        fill: none;
      }

      .cls-7, .cls-8, .cls-6, .cls-9 {
        stroke: #231f20;
        stroke-miterlimit: 10;
        stroke-width: 5px;
      }

      .cls-2 {
        fill: #625d9c;
      }

      .cls-3 {
        fill: #27253d;
      }

      .cls-4, .cls-9 {
        fill: #46416e;
      }

      .cls-8, .cls-5 {
        fill: #d2cfe1;
      }
    </style>
  </defs>
  <rect class="cls-2" y="-.3" width="500" height="500"/>
  <g>
    <rect class="cls-9" x="82.8" y="112.9" width="327" height="207.4" transform="translate(-11.9 14.4) rotate(-3.3)"/>
    <g>
      <rect class="cls-6" x="94" y="150.3" width="327" height="207.4" transform="translate(28.7 -26.1) rotate(6.2)"/>
      <line class="cls-7" x1="124.8" y1="167.1" x2="256.6" y2="181.3"/>
      <line class="cls-7" x1="112.8" y1="278.5" x2="164.2" y2="284"/>
      <line class="cls-7" x1="118.4" y1="226" x2="222.7" y2="237.3"/>
      <line class="cls-7" x1="116.5" y1="243.5" x2="190.4" y2="251.5"/>
      <line class="cls-7" x1="114.7" y1="261" x2="206.4" y2="270.9"/>
    </g>
    <g>
      <rect class="cls-8" x="82.8" y="165" width="327" height="207.4" transform="translate(-38.3 41) rotate(-8.8)"/>
      <g>
        <g>
          <path class="cls-4" d="M383.6,247.4c-4.2-26.9-29.3-45.2-56.2-41.1-8.9,1.4-16.8,5-23.3,10.3-7.8-3-16.5-4.1-25.3-2.7-26.9,4.2-45.2,29.3-41.1,56.2s29.3,45.2,56.2,41.1c8.9-1.4,16.8-5,23.3-10.3,7.8,3,16.5,4.1,25.3,2.7,26.9-4.2,45.2-29.3,41.1-56.2h0Z"/>
          <path class="cls-1" d="M327.4,206.3c26.9-4.2,52,14.2,56.2,41.1,4.2,26.9-14.2,52-41.1,56.2-8.9,1.4-17.5.3-25.3-2.7,13.2-10.7,20.6-27.9,17.8-45.9-2.8-18-15-32.2-30.8-38.3,6.5-5.3,14.4-8.9,23.3-10.3h0Z"/>
          <path class="cls-3" d="M304.1,216.6c15.8,6.1,28.1,20.3,30.8,38.3s-4.5,35.2-17.8,45.9c-15.8-6.1-28.1-20.3-30.9-38.3-2.8-18,4.5-35.2,17.8-45.9h0Z"/>
          <path class="cls-5" d="M304.1,216.6c-13.2,10.7-20.6,27.9-17.8,45.9,2.8,18,15,32.2,30.9,38.3-6.5,5.2-14.4,8.9-23.3,10.3-26.9,4.2-52-14.2-56.2-41.1s14.2-52,41.1-56.2,17.5-.3,25.3,2.7h0Z"/>
        </g>
        <g>
          <path class="cls-7" d="M304.1,216.6c15.8,6.1,28.1,20.3,30.8,38.3s-4.5,35.2-17.8,45.9c-6.5,5.2-14.4,8.9-23.3,10.3-26.9,4.2-52-14.2-56.2-41.1s14.2-52,41.1-56.2,17.5-.3,25.3,2.7h0Z"/>
          <path class="cls-7" d="M304.1,216.6c6.5-5.3,14.4-8.9,23.3-10.3,26.9-4.2,52,14.2,56.2,41.1,4.2,26.9-14.2,52-41.1,56.2-8.9,1.4-17.5.3-25.3-2.7-15.8-6.1-28.1-20.3-30.9-38.3s4.5-35.2,17.8-45.9h0Z"/>
        </g>
      </g>
      <line class="cls-7" x1="95.7" y1="219.1" x2="226.7" y2="198.7"/>
      <line class="cls-7" x1="112.8" y1="329.8" x2="163.9" y2="321.8"/>
      <line class="cls-7" x1="104.8" y1="277.7" x2="208.4" y2="261.6"/>
      <line class="cls-7" x1="107.5" y1="295" x2="180.9" y2="283.6"/>
      <line class="cls-7" x1="110.1" y1="312.4" x2="201.3" y2="298.2"/>
    </g>
  </g>
</svg>