<?xml version="1.0" encoding="UTF-8"?>
<svg id="Layer_1" data-name="Layer 1" xmlns="http://www.w3.org/2000/svg" version="1.1" viewBox="0 0 500 500">
  <defs>
    <style>
      .cls-1 {
        fill: #1b3648;
      }

      .cls-1, .cls-2, .cls-3, .cls-4, .cls-5, .cls-6, .cls-7 {
        stroke: #231f20;
        stroke-miterlimit: 10;
      }

      .cls-2, .cls-4 {
        fill: none;
        stroke-width: 5px;
      }

      .cls-3 {
        fill: #85c0e9;
      }

      .cls-4 {
        stroke-linecap: round;
      }

      .cls-5 {
        fill: #3c6b93;
      }

      .cls-6 {
        fill: #4d8fc2;
      }

      .cls-8 {
        stroke-width: 0px;
      }

      .cls-8, .cls-7 {
        fill: #5eb3e4;
      }
    </style>
  </defs>
  <g id="Layer_2" data-name="Layer 2">
    <rect class="cls-8" y="-.3" width="500" height="500"/>
  </g>
  <g id="Layer_1-2" data-name="Layer 1">
    <g>
      <g>
        <rect class="cls-7" x="147.6" y="147.4" width="206.6" height="204.7"/>
        <rect class="cls-6" x="354.2" y="352.1" width="65.9" height="68.1"/>
        <rect class="cls-6" x="354.2" y="147.4" width="65.9" height="204.7"/>
        <rect class="cls-6" x="354.2" y="79.8" width="65.9" height="67.6"/>
        <rect class="cls-6" x="147.6" y="352.1" width="206.6" height="68.1"/>
        <rect class="cls-6" x="147.6" y="79.8" width="206.6" height="67.6"/>
        <rect class="cls-6" x="79.8" y="352.1" width="67.8" height="68.1"/>
        <rect class="cls-6" x="79.8" y="147.4" width="67.8" height="204.7"/>
        <rect class="cls-6" x="79.8" y="79.8" width="67.8" height="67.6"/>
      </g>
      <g>
        <polygon class="cls-2" points="420.2 352.1 420.2 420.2 354.2 420.2 147.6 420.2 79.8 420.2 79.8 352.1 79.8 147.4 79.8 79.8 147.6 79.8 354.2 79.8 420.2 79.8 420.2 147.4 420.2 352.1"/>
        <polyline class="cls-2" points="147.6 79.8 147.6 147.4 147.6 352.1 147.6 420.2"/>
        <polyline class="cls-2" points="354.2 79.8 354.2 147.4 354.2 352.1 354.2 420.2"/>
        <polyline class="cls-2" points="420.2 147.4 354.2 147.4 147.6 147.4 79.8 147.4"/>
        <polyline class="cls-2" points="420.2 352.1 354.2 352.1 147.6 352.1 79.8 352.1"/>
      </g>
    </g>
    <line class="cls-4" x1="79.8" y1="352.1" x2="147.6" y2="420.2"/>
    <line class="cls-4" x1="147.6" y1="352.1" x2="79.8" y2="420.2"/>
    <line class="cls-4" x1="354.2" y1="352.1" x2="420.2" y2="420.2"/>
    <line class="cls-4" x1="420.2" y1="352.1" x2="354.2" y2="420.2"/>
    <line class="cls-4" x1="420.2" y1="79.8" x2="354.2" y2="147.4"/>
    <line class="cls-4" x1="354.2" y1="79.8" x2="420.2" y2="147.4"/>
    <line class="cls-4" x1="79.8" y1="79.8" x2="147.6" y2="147.4"/>
    <line class="cls-4" x1="79.8" y1="147.4" x2="147.6" y2="79.8"/>
    <g>
      <g>
        <path class="cls-5" d="M285.6,181.1c37.9,0,68.6,30.7,68.6,68.7s-30.7,68.6-68.6,68.6-24.2-3.3-34.3-9.2c20.5-11.9,34.3-34.1,34.3-59.5s-13.8-47.6-34.3-59.5c10.1-5.8,21.8-9.2,34.3-9.2Z"/>
        <path class="cls-3" d="M251.2,190.3c-20.5,11.9-34.3,34.1-34.3,59.5s13.8,47.6,34.3,59.5c-10.1,5.9-21.8,9.2-34.3,9.2-37.9,0-68.6-30.7-68.6-68.6s30.7-68.7,68.6-68.7,24.2,3.4,34.3,9.2h0Z"/>
        <path class="cls-1" d="M251.2,190.3c20.5,11.9,34.3,34.1,34.3,59.5s-13.8,47.6-34.3,59.5c-20.5-11.9-34.3-34.1-34.3-59.5s13.8-47.6,34.3-59.5h0Z"/>
      </g>
      <g>
        <path class="cls-2" d="M251.2,190.3c20.5,11.9,34.3,34.1,34.3,59.5s-13.8,47.6-34.3,59.5c-10.1,5.9-21.8,9.2-34.3,9.2-37.9,0-68.6-30.7-68.6-68.6s30.7-68.7,68.6-68.7,24.2,3.4,34.3,9.2h0Z"/>
        <path class="cls-2" d="M251.2,190.3c10.1-5.8,21.8-9.2,34.3-9.2,37.9,0,68.6,30.7,68.6,68.7s-30.7,68.7-68.6,68.7-24.2-3.3-34.3-9.2c-20.5-11.9-34.3-34.1-34.3-59.5s13.8-47.6,34.3-59.5h0Z"/>
      </g>
    </g>
  </g>
</svg>