<?xml version="1.0" encoding="UTF-8"?>
<svg xmlns="http://www.w3.org/2000/svg" viewBox="0 0 500 500">
  <defs>
    <style>
      .cls-1 {
        fill: none;
        stroke: #231f20;
        stroke-linecap: round;
        stroke-miterlimit: 10;
        stroke-width: 5px;
      }

      .cls-2 {
        fill: #1b3648;
      }

      .cls-2, .cls-3, .cls-4, .cls-5 {
        stroke-width: 0px;
      }

      .cls-3 {
        fill: #d1e7f7;
      }

      .cls-4 {
        fill: #5eb3e4;
      }

      .cls-5 {
        fill: #3d88b9;
      }
    </style>
  </defs>
  <g id="Layer_2" data-name="Layer 2">
    <rect class="cls-4" x="0" width="500" height="500"/>
  </g>
  <g id="Layer_1" data-name="Layer 1">
    <g>
      <g>
        <path class="cls-5" d="M286.55,352.01c18.13,18.13,47.53,18.13,65.66,0,2.13,2.82,4.94,5.58,8.64,7.66,11.99,6.71,22.54,13.91,22.54,13.91-12.61,0-22.82,12.87-22.82,28.78h-135.46c-.48-13.43,11.03-20.15,11.03-20.15,0,0,17.74-10.07,31.65-15.35,13.6-5.15,18.52-14.45,18.74-14.86h.02Z"/>
        <path class="cls-5" d="M383.39,373.58s20.63,11.03,20.15,28.78h-42.97c0-15.91,10.21-28.78,22.82-28.78Z"/>
        <path class="cls-3" d="M286.53,327.69c-7.31,1.58-16.22,2.69-24.97,1.76-20.39-2.17-21.41-23.27-21.41-23.27,23.89-2.17,22.15-21.72,22.15-21.72h-21.74c-3.38,0-6.14-2.69-6.24-6.06l-.21-7.35c-6.67,1.48-12.88-2.82-16.6-6.27-2.19-2.02-2.62-5.32-1.02-7.84l15.84-25.05v-16.02c0-8.31,5.43-20.29,5.43-20.29l.41-2.17c5.64,1.11,13.18,1.69,24.13,1.69,2.63,0,5.4.07,8.26.24.02,0,.05.01.07.01,1.05.11,2.12.19,3.19.23,23.45,2.08,50.34,11.98,43.66,50.21l6.95,5.49s11.73-16.35,21.29-5.92c9.55,10.43,1.73,25.63-14.77,24.76l2.35,23.85c.43,4.39,2.96,8.3,6.78,10.5l6.11,3.51v31.06s1.28,6.65,6.02,12.97c-18.13,18.13-47.53,18.13-65.66,0h-.02v-24.32Z"/>
        <path class="cls-2" d="M270.56,195.34c-2.86-.17-5.63-.24-8.26-.24-10.95,0-18.49-.58-24.13-1.69-9.17-1.8-13.32-4.99-18.88-9.31-50.39-56.04,27.37-86.45,27.37-86.45,5.65,19.98,22.59,23.02,22.59,23.02,0,0,36.42-2.41,48.23,0,145.67,29.8,32.38,189.42,32.38,189.42l-3.67-2.11-6.11-3.51c-3.82-2.2-6.35-6.11-6.78-10.5l-2.35-23.85c16.5.87,24.32-14.33,14.77-24.76-9.56-10.43-21.29,5.92-21.29,5.92l-6.95-5.49c6.68-38.23-20.21-48.13-43.66-50.21-1.07-.09-2.14-.17-3.19-.23-.02,0-.05-.01-.07-.01Z"/>
      </g>
      <g>
        <path class="cls-1" d="M237.76,195.58s-5.43,11.98-5.43,20.29v16.02l-15.84,25.05c-1.6,2.52-1.17,5.82,1.02,7.84,3.72,3.45,9.93,7.75,16.6,6.27l.21,7.35c.1,3.37,2.86,6.06,6.24,6.06h21.74s1.74,19.55-22.15,21.72c0,0,1.02,21.1,21.41,23.27,8.75.93,17.66-.18,24.97-1.76,9.71-2.09,16.61-5,16.61-5"/>
        <path class="cls-1" d="M270.63,195.35c1.05.06,2.12.14,3.19.23,23.45,2.08,50.34,11.98,43.66,50.21l6.95,5.49s11.73-16.35,21.29-5.92c9.55,10.43,1.73,25.63-14.77,24.76l2.35,23.85c.43,4.39,2.96,8.3,6.78,10.5l6.11,3.51,3.67,2.11s113.29-159.62-32.38-189.42c-11.81-2.41-48.23,0-48.23,0,0,0-16.94-3.04-22.59-23.02,0,0-77.76,30.41-27.37,86.45"/>
        <path class="cls-1" d="M219.29,184.1c5.56,4.32,9.71,7.51,18.88,9.31,5.64,1.11,13.18,1.69,24.13,1.69,2.63,0,5.4.07,8.26.24"/>
        <path class="cls-1" d="M346.19,307.98v31.06s1.28,6.65,6.02,12.97c2.13,2.82,4.94,5.58,8.64,7.66,11.99,6.71,22.54,13.91,22.54,13.91,0,0,20.63,11.03,20.15,28.78h-178.43c-.48-13.43,11.03-20.15,11.03-20.15,0,0,17.74-10.07,31.65-15.35,13.6-5.15,18.52-14.45,18.74-14.86h0v-24.31"/>
        <path class="cls-1" d="M232.96,151.72c-.79,22.31,15.77,41.18,37.6,43.62.02,0,.05.01.07.01,1.05.11,2.12.19,3.19.23"/>
        <path class="cls-1" d="M250.84,226.9c4.64,11.93,18.05,17.83,29.97,13.19"/>
        <path class="cls-1" d="M134.58,290.68c-21.06,0-38.13-17.08-38.13-38.14,0-16.85,13.66-30.51,30.5-30.51,13.48,0,24.41,10.93,24.41,24.41,0,10.78-8.74,19.53-19.52,19.53-8.63,0-15.62-7-15.62-15.62"/>
        <line class="cls-1" x1="134.58" y1="290.68" x2="213.94" y2="290.68"/>
        <path class="cls-1" d="M126.92,304.32c-.16,0-.32-.01-.48-.01-6.72,0-13.44,2.55-18.56,7.68-8.19,8.18-8.19,21.45,0,29.64,6.54,6.54,17.16,6.54,23.71,0,5.24-5.24,5.24-13.74,0-18.97-4.19-4.19-10.99-4.19-15.18,0"/>
        <line class="cls-1" x1="126.44" y1="304.31" x2="187.84" y2="304.31"/>
        <path class="cls-1" d="M352.21,352.01c-18.13,18.13-47.53,18.13-65.66,0"/>
        <path class="cls-1" d="M360.57,402.36c0-15.91,10.21-28.78,22.82-28.78"/>
      </g>
    </g>
  </g>
</svg>