<?xml version="1.0" encoding="UTF-8"?>
<svg id="Layer_1" data-name="Layer 1" xmlns="http://www.w3.org/2000/svg" version="1.1" viewBox="0 0 500 500">
  <defs>
    <style>
      .cls-1 {
        fill: #d1cee0;
      }

      .cls-1, .cls-2, .cls-3, .cls-4, .cls-5, .cls-6 {
        stroke-width: 0px;
      }

      .cls-2 {
        fill: #9f9cc2;
      }

      .cls-3 {
        fill: #625d9c;
      }

      .cls-7 {
        stroke-linecap: round;
      }

      .cls-7, .cls-8 {
        fill: none;
        stroke: #221f1f;
        stroke-miterlimit: 10;
        stroke-width: 5px;
      }

      .cls-4 {
        fill: #322f4e;
      }

      .cls-5 {
        fill: #fff;
      }

      .cls-6 {
        fill: #84bfe8;
      }
    </style>
  </defs>
  <rect class="cls-3" x="0" width="500" height="500"/>
  <g>
    <g>
      <path class="cls-4" d="M410.6,73.5c7.2,7.2-5.3,32.7-24.9,61.5-26.7,39.2-59.5,73.9-96.7,103.3l-28.6,22.5-37.4-37.4-.3-.3,25.6-31.7c25.7-31.7,55.3-60.1,88.3-84.1,33.6-24.4,65.8-42,74.1-33.8Z"/>
      <path class="cls-1" d="M260.3,260.8c3.3,3.3,2.3,8.8-1.8,10.8l-21.5,10.5-2-2c-2-14-11.6-26.4-25.9-31.2-2.3-.8-4.7-1.3-7-1.7l-1.7-1.7,11.8-20.8c2.2-3.9,7.5-4.6,10.6-1.4l37.4,37.4Z"/>
      <path class="cls-2" d="M235,280.1c.8,5.8.3,11.9-1.7,17.8,0,0-4.8,28.1-48.6,32.9,0-35.1-33.6-41.5-34.1-41.6h0c4.4-5.7,7.9-11.3,9.5-16.1,6.1-17.9,23.9-28.4,42-25.9l32.9,32.9Z"/>
      <path class="cls-1" d="M235,280.1l-32.9-32.9c2.3.3,4.7.9,7,1.7,14.3,4.8,23.9,17.2,25.9,31.2Z"/>
      <path class="cls-6" d="M184.8,330.8v.7l-.5-.6c.2,0,.3,0,.5,0Z"/>
      <path class="cls-5" d="M184.8,330.8c-.2,0-.3,0-.5,0l-33.6-41.7c.5,0,34.1,6.5,34.1,41.6Z"/>
      <path class="cls-5" d="M150.7,289.2l33.6,41.7c-16.2,1.7-37.8.2-66.4-7.2,0,0,20-17.7,32.8-34.5Z"/>
      <path class="cls-6" d="M150.7,289.1h0s0,0,0,0h0Z"/>
      <path class="cls-5" d="M140.5,402.5c0,14.7-11.9,26.6-26.6,26.6s-26.6-11.9-26.6-26.6,26.6-46.1,26.6-46.1c0,0,26.6,31.4,26.6,46.1Z"/>
    </g>
    <g>
      <path class="cls-7" d="M222.9,223.3l-.3-.3,25.6-31.7c25.7-31.7,55.3-60.1,88.3-84.1,33.6-24.4,65.8-42,74.1-33.8,7.2,7.2-5.3,32.7-24.9,61.5-26.7,39.2-59.5,73.9-96.7,103.3l-28.6,22.5"/>
      <path class="cls-7" d="M150.7,289.2c-12.8,16.8-32.8,34.5-32.8,34.5,28.6,7.3,50.1,8.8,66.4,7.2"/>
      <path class="cls-7" d="M202.1,247.2c-18-2.6-35.9,8-42,25.9-1.6,4.7-5.1,10.3-9.5,16"/>
      <path class="cls-7" d="M184.8,330.8c43.7-4.7,48.6-32.9,48.6-32.9,2-5.9,2.5-12,1.7-17.8"/>
      <path class="cls-7" d="M260.3,260.8c3.3,3.3,2.3,8.8-1.8,10.8l-21.5,10.5-2-2-32.9-32.9-1.7-1.7,11.8-20.8c2.2-3.9,7.5-4.6,10.6-1.4l37.4,37.4Z"/>
      <path class="cls-7" d="M140.5,402.5c0,14.7-11.9,26.6-26.6,26.6s-26.6-11.9-26.6-26.6,26.6-46.1,26.6-46.1c0,0,26.6,31.4,26.6,46.1Z"/>
      <path class="cls-8" d="M150.7,289.2c.5,0,34.1,6.5,34.1,41.6v.7"/>
      <line class="cls-7" x1="150.7" y1="289.1" x2="150.7" y2="289.2"/>
      <path class="cls-8" d="M150.7,289.1h0"/>
    </g>
  </g>
</svg>