<?xml version="1.0" encoding="UTF-8"?>
<svg id="Layer_2" data-name="Layer 2" xmlns="http://www.w3.org/2000/svg" version="1.1" viewBox="0 0 500 500">
  <defs>
    <style>
      .cls-1 {
        fill: #3579a3;
      }

      .cls-1, .cls-2, .cls-3, .cls-4 {
        stroke: #231f20;
        stroke-miterlimit: 10;
        stroke-width: 5px;
      }

      .cls-2 {
        fill: #a1cbe5;
      }

      .cls-3 {
        fill: #dae8f4;
      }

      .cls-5 {
        fill: #4197cb;
        stroke-width: 0px;
      }

      .cls-4 {
        fill: #fff;
      }
    </style>
  </defs>
  <rect class="cls-5" y="-.3" width="500" height="500"/>
  <g>
    <path class="cls-2" d="M347.4,228.6c.9-2.9,3.4-5.1,6.5-5.6l26.8-4.4v-40.8l-26.8-4.5c-3-.5-5.5-2.7-6.5-5.6-1.8-5.8-4.2-11.4-7-16.7-1.4-2.7-1.2-6.1.6-8.6l15.8-22.1-28.9-28.8-22.1,15.8c-2.5,1.8-5.8,2-8.6.6-5.3-2.8-10.9-5.1-16.7-7-3-.9-5.1-3.4-5.6-6.4l-4.5-26.8h-40.8l-4.5,26.8c-.5,3.1-2.7,5.5-5.6,6.4-5.8,1.8-11.4,4.2-16.7,7-2.7,1.4-6.1,1.2-8.6-.6l-22.1-15.8-28.9,28.8,15.8,22.1c1.8,2.5,2,5.8.6,8.6-2.8,5.3-5.1,10.9-7,16.7-.9,2.9-3.4,5.1-6.4,5.6l-26.8,4.4v40.8h0l26.8,4.5c3.1.5,5.5,2.7,6.4,5.6,1.8,5.8,4.2,11.4,7,16.7,1.4,2.7,1.2,6.1-.6,8.6l-15.8,22.1,28.9,28.8,22.1-15.8c2.5-1.8,5.8-2,8.6-.6,5.3,2.8,10.9,5.1,16.7,7,2.9.9,5.1,3.4,5.6,6.5l4.4,26.8h40.8l4.5-26.8c.5-3,2.7-5.5,5.6-6.5,5.8-1.8,11.4-4.2,16.7-7,2.7-1.4,6-1.2,8.6.6l22.1,15.8,28.9-28.9-15.8-22.1c-1.8-2.5-2-5.8-.6-8.6,2.8-5.3,5.1-10.9,7-16.7h0ZM250,257c-33.6,0-60.9-27.3-60.9-60.9s27.3-60.9,60.9-60.9,60.9,27.3,60.9,60.9-27.3,60.9-60.9,60.9h0Z"/>
    <g>
      <path class="cls-3" d="M173.6,190.6v44.9h24.5v-38.9c0-1.9,1.5-3.4,3.4-3.4h97.2c1.9,0,3.4,1.5,3.4,3.4v38.9h24.3v-44.9c0-11-8.9-19.9-19.9-19.9h-113c-11,0-19.9,8.9-19.9,19.9h0Z"/>
      <rect class="cls-1" x="93.2" y="219" width="313.7" height="213.5"/>
      <path class="cls-1" d="M93.2,219h313.7v97.3c0,17.8-14.5,32.3-32.3,32.3H125.4c-17.8,0-32.3-14.5-32.3-32.3v-97.3h0Z"/>
      <path class="cls-4" d="M182.7,322.4h0c8.3,0,15,6.7,15,15v22.4c0,8.3-6.7,15-15,15h0c-8.3,0-15-6.7-15-15v-22.4c0-8.3,6.7-15,15-15Z"/>
      <path class="cls-4" d="M326.9,322.4h0c8.3,0,15,6.7,15,15v22.4c0,8.3-6.7,15-15,15h0c-8.3,0-15-6.7-15-15v-22.4c0-8.3,6.7-15,15-15Z"/>
    </g>
  </g>
</svg>