<?xml version="1.0" encoding="UTF-8"?>
<svg xmlns="http://www.w3.org/2000/svg" viewBox="0 0 500 500">
  <defs>
    <style>
      .cls-1 {
        fill: none;
      }

      .cls-1, .cls-2, .cls-3 {
        stroke: #231f20;
        stroke-linecap: round;
        stroke-miterlimit: 10;
        stroke-width: 5px;
      }

      .cls-2, .cls-4 {
        fill: #c0bed7;
      }

      .cls-4, .cls-5, .cls-6, .cls-7, .cls-8 {
        stroke-width: 0px;
      }

      .cls-3, .cls-7 {
        fill: #322f4e;
      }

      .cls-5 {
        fill: #231f20;
      }

      .cls-6 {
        fill: #625d9c;
      }

      .cls-8 {
        fill: #817db0;
      }
    </style>
  </defs>
  <g id="Layer_2" data-name="Layer 2">
    <rect class="cls-6" width="500" height="500"/>
  </g>
  <g id="Layer_1" data-name="Layer 1">
    <g>
      <g>
        <g>
          <path class="cls-7" d="M431.06,226.99c.26,1.13.4,2.28.4,3.42,0,3.17-1.01,6.3-2.94,8.89l-7.15,9.62c-4.53-4.42-10.87-9.58-19.67-15.19l23.23-9.85c2.57-1.1,5.5.4,6.13,3.11Z"/>
          <path class="cls-8" d="M296.98,230.66h42.43c25.17,0,15.38-6.53,15.38-6.53-10.68-6.89-29.22-12.73-45.68-16.95-5.29-1.35-10.36-2.54-14.89-3.54-11.32-2.5-22.88-3.75-34.48-3.75h-1.61c-3.51,0-6.9,1.23-9.6,3.48l-32.66,27.28h81.12ZM401.7,233.74c8.8,5.61,15.14,10.77,19.67,15.19,2.29,2.23,4.12,4.28,5.58,6.1,2.65,3.31,2.36,7.6,1.3,11.47h-10.75c-3.84,0-7.57,1.27-10.62,3.62l-15.93,12.29H68.54v-12.43c0-3.31,1.63-6.39,4.36-8.26l5.89-4.01h6.69c3.94,0,7.57-2.11,9.54-5.52l13.11-22.81,81.15-8.97c6.76,3.07,14.36,3.18,21.04.57,2.63-1.03,5.12-2.48,7.37-4.34l19.22-15.89c2.87-2.38,2.89-6.78.04-9.19l3.15-1.91h25.81c15.56,0,31.07,2.15,46,6.54,43.91,12.91,71.94,26.18,89.79,37.56Z"/>
          <path class="cls-4" d="M417.51,266.5h10.75c-.5,1.86-1.19,3.63-1.81,5.13l-4.68,10.78h-30.81l15.93-12.29c3.05-2.35,6.78-3.62,10.62-3.62Z"/>
          <path class="cls-7" d="M421.76,282.4l-3.27,7.52c-1.05,2.42-3.31,4.07-5.93,4.34l-36.28,3.73H77.36c-4.87,0-8.82-3.96-8.82-8.83v-6.76h353.22Z"/>
          <path class="cls-4" d="M354.79,224.13s9.78,6.53-15.38,6.53h-42.43l12.14-23.48c16.46,4.22,35,10.06,45.68,16.95Z"/>
          <path class="cls-4" d="M309.11,207.18l-12.14,23.48h-46.38l9.14-30.77c11.6,0,23.16,1.25,34.48,3.75,4.53,1,9.6,2.19,14.89,3.54Z"/>
          <path class="cls-4" d="M259.74,199.89l-9.14,30.77h-34.74l32.66-27.28c2.7-2.26,6.09-3.48,9.6-3.48h1.61Z"/>
          <path class="cls-4" d="M236.95,191.54c2.85,2.41,2.83,6.81-.04,9.19l-19.22,15.89c-2.25,1.86-4.73,3.31-7.37,4.34-6.69,2.62-14.28,2.5-21.04-.57l47.66-28.86Z"/>
          <path class="cls-4" d="M108.13,229.37l-13.11,22.81c-1.96,3.41-5.6,5.52-9.54,5.52h-6.69l10.75-21.13c1.73-3.4,5.05-5.69,8.84-6.12l9.75-1.08Z"/>
        </g>
        <g>
          <path class="cls-1" d="M68.54,282.4v6.76c0,4.87,3.95,8.83,8.82,8.83h298.92l36.28-3.73c2.62-.27,4.88-1.93,5.93-4.34l3.27-7.52,4.68-10.78c.62-1.5,1.31-3.27,1.81-5.13,1.06-3.87,1.35-8.17-1.3-11.47-1.46-1.82-3.3-3.87-5.58-6.1-4.53-4.42-10.87-9.58-19.67-15.19-17.85-11.38-45.88-24.65-89.79-37.56-14.93-4.39-30.44-6.54-46-6.54h-25.81l-3.15,1.91-47.66,28.86-81.15,8.97-9.75,1.08c-3.79.42-7.11,2.72-8.84,6.12l-10.75,21.13-5.89,4.01c-2.73,1.87-4.36,4.96-4.36,8.26v12.43Z"/>
          <path class="cls-1" d="M189.28,220.4c6.76,3.07,14.36,3.18,21.04.57,2.63-1.03,5.12-2.48,7.37-4.34l19.22-15.89c2.87-2.38,2.89-6.78.04-9.19"/>
          <path class="cls-1" d="M215.86,230.66l32.66-27.28c2.7-2.26,6.09-3.48,9.6-3.48h1.61c11.6,0,23.16,1.25,34.48,3.75,4.53,1,9.6,2.19,14.89,3.54,16.46,4.22,35,10.06,45.68,16.95,0,0,9.78,6.53-15.38,6.53h-123.55"/>
          <path class="cls-1" d="M210.33,220.97l-7.67,6.85c-5.84,5.22-9.18,12.68-9.18,20.51v31.28"/>
          <path class="cls-1" d="M296.98,230.66c0,8-1.64,15.9-4.84,23.23l-14.36,28.51"/>
          <path class="cls-1" d="M401.69,233.74h0l23.23-9.85c2.57-1.1,5.5.4,6.13,3.11.26,1.13.4,2.28.4,3.42,0,3.17-1.01,6.3-2.94,8.89l-7.15,9.62"/>
          <path class="cls-1" d="M78.8,257.69h6.69c3.94,0,7.57-2.11,9.54-5.52l13.11-22.81"/>
          <polyline class="cls-1" points="421.76 282.4 390.96 282.4 277.79 282.4 68.54 282.4"/>
          <line class="cls-1" x1="280.11" y1="247.29" x2="268.58" y2="247.29"/>
          <path class="cls-1" d="M428.26,266.5h-10.75c-3.84,0-7.57,1.27-10.62,3.62l-15.93,12.29"/>
          <line class="cls-1" x1="259.74" y1="199.89" x2="250.6" y2="230.66"/>
          <line class="cls-1" x1="309.11" y1="207.18" x2="296.98" y2="230.66"/>
        </g>
      </g>
      <g>
        <g>
          <circle class="cls-3" cx="150.39" cy="282.12" r="28.25"/>
          <circle class="cls-2" cx="150.39" cy="282.12" r="17.21"/>
        </g>
        <circle class="cls-5" cx="150.39" cy="282.12" r="8.97"/>
        <line class="cls-1" x1="162.56" y1="294.29" x2="138.22" y2="269.95"/>
        <line class="cls-1" x1="162.56" y1="269.95" x2="138.22" y2="294.29"/>
      </g>
      <g>
        <g>
          <circle class="cls-3" cx="349.51" cy="282.12" r="28.25"/>
          <circle class="cls-2" cx="349.51" cy="282.12" r="17.21"/>
        </g>
        <circle class="cls-5" cx="349.51" cy="282.12" r="8.97"/>
        <line class="cls-1" x1="361.68" y1="294.29" x2="337.34" y2="269.95"/>
        <line class="cls-1" x1="361.68" y1="269.95" x2="337.34" y2="294.29"/>
      </g>
    </g>
  </g>
</svg>