<?xml version="1.0" encoding="UTF-8"?>
<svg xmlns="http://www.w3.org/2000/svg" viewBox="0 0 500 500">
  <defs>
    <style>
      .cls-1 {
        fill: #00ab9b;
      }

      .cls-1, .cls-2, .cls-3, .cls-4, .cls-5, .cls-6 {
        stroke-width: 0px;
      }

      .cls-2 {
        fill: #03463f;
      }

      .cls-7 {
        fill: none;
        stroke: #231f20;
        stroke-miterlimit: 10;
        stroke-width: 5px;
      }

      .cls-3 {
        fill: #84cfc9;
      }

      .cls-4 {
        fill: #00695d;
      }

      .cls-5 {
        fill: #078b7c;
      }

      .cls-6 {
        fill: #b6e1df;
      }
    </style>
  </defs>
  <g id="Layer_2" data-name="Layer 2">
    <rect class="cls-1" x="0" width="500" height="500"/>
  </g>
  <g id="Layer_1" data-name="Layer 1">
    <g>
      <g>
        <path class="cls-5" d="M171.94,183.28h7.83c7.05,0,12.77,5.72,12.77,12.77v17.84l-11.08-12.82,1.82-1.57-4.92-5.7c-1.48-1.72-3.58-2.61-5.7-2.61-1.74,0-3.49.6-4.91,1.83-3.15,2.72-3.49,7.46-.78,10.61l4.92,5.7,1.83-1.57,18.82,21.78v13.06h-42.11l5.34-44.96c.97-8.19,7.92-14.36,16.17-14.36Z"/>
        <path class="cls-3" d="M165.15,174.35l33.15-17.39c.02.31.03.62.03.94v10.83c0,7.22-5.85,13.06-13.07,13.06h-5.88c-5.9,0-11.1-2.94-14.23-7.45Z"/>
        <polygon class="cls-6" points="393.36 122.8 377.88 140.58 393.36 158.37 347.99 158.37 347.99 122.8 393.36 122.8"/>
        <polygon class="cls-2" points="383.32 206.88 383.32 410.15 312.66 410.15 312.66 249.45 312.66 206.88 347.99 206.88 383.32 206.88"/>
        <polygon class="cls-5" points="312.66 249.45 312.66 410.15 242 410.15 242 292.02 242 249.45 312.66 249.45"/>
        <polygon class="cls-3" points="242 292.02 242 410.15 171.33 410.15 171.33 334.6 171.33 292.02 195.95 292.02 223.76 292.02 242 292.02"/>
        <path class="cls-6" d="M223.76,292.02h-27.81v-11.98h15.83c3.31,0,6.31,1.34,8.47,3.51,2.17,2.17,3.51,5.16,3.51,8.47Z"/>
        <path class="cls-4" d="M213.12,260.83l-4.22,19.21h-12.89v-14.67c0-2.5-2.03-4.54-4.53-4.54h-20.57c-4.72,0-9-1.91-12.09-5.01s-5.01-7.37-5.01-12.1h42.2c4.72,0,9,1.91,12.1,5.01s5.01,7.37,5.01,12.1Z"/>
        <path class="cls-3" d="M206.92,230.53c1.85,2.14,1.61,5.36-.52,7.21s-5.37,1.61-7.21-.52l-6.64-7.68v-15.64l14.37,16.64Z"/>
        <path class="cls-5" d="M198.34,156.96h-.03s0,0,0,0h.03Z"/>
        <path class="cls-2" d="M198.31,156.96h-19.33c-3.11,0-5.64,2.52-5.64,5.64v2.49c0,2.52-1.28,4.85-3.4,6.21l-4.79,3.05c-1.95-2.8-3.09-6.2-3.09-9.87v-6.58c0-9.56,7.75-17.32,17.32-17.32h1.64c9.24,0,16.8,7.25,17.29,16.37Z"/>
        <polygon class="cls-3" points="192.54 213.9 192.54 229.54 173.73 207.76 181.46 201.07 192.54 213.9"/>
        <path class="cls-5" d="M178.37,193.8l4.92,5.7-1.82,1.57-7.74,6.69-1.83,1.57-4.92-5.7c-2.72-3.14-2.37-7.89.78-10.61,1.42-1.23,3.17-1.83,4.91-1.83,2.11,0,4.21.89,5.7,2.61Z"/>
        <polygon class="cls-6" points="171.33 334.6 171.33 410.15 100.66 410.15 100.66 334.6 129.96 334.6 157.77 334.6 171.33 334.6"/>
        <path class="cls-4" d="M170.92,260.83l-29.07,61.78h-13.14l21.73-80.01h3.39v1.12c0,4.72,1.91,9,5.01,12.1s7.37,5.01,12.09,5.01Z"/>
        <path class="cls-3" d="M198.31,156.97l-33.15,17.39,4.79-3.05c2.12-1.36,3.4-3.69,3.4-6.21v-2.49c0-3.12,2.52-5.64,5.64-5.64h19.33s0,.01,0,.01Z"/>
        <path class="cls-6" d="M157.77,334.6h-27.81v-11.98h15.83c3.31,0,6.3,1.34,8.47,3.51,2.17,2.17,3.51,5.17,3.51,8.47Z"/>
      </g>
      <g>
        <polyline class="cls-7" points="129.96 334.6 100.66 334.6 100.66 410.15 171.33 410.15"/>
        <line class="cls-7" x1="171.33" y1="334.6" x2="157.77" y2="334.6"/>
        <polyline class="cls-7" points="195.95 292.02 171.33 292.02 171.33 334.6 171.33 410.15 242 410.15"/>
        <line class="cls-7" x1="242" y1="292.02" x2="223.76" y2="292.02"/>
        <polyline class="cls-7" points="312.66 249.45 242 249.45 242 292.02 242 410.15 312.66 410.15"/>
        <polygon class="cls-7" points="312.66 410.15 383.32 410.15 383.32 206.88 347.99 206.88 312.66 206.88 312.66 249.45 312.66 410.15"/>
        <line class="cls-7" x1="347.99" y1="206.88" x2="347.99" y2="158.37"/>
        <polygon class="cls-7" points="347.99 122.8 393.36 122.8 377.88 140.58 393.36 158.37 347.99 158.37 347.99 122.8"/>
        <path class="cls-7" d="M192.54,229.54v13.06h-42.11l5.34-44.96c.97-8.19,7.92-14.36,16.17-14.36h7.83c7.05,0,12.77,5.72,12.77,12.77v17.84"/>
        <path class="cls-7" d="M208.9,280.04l4.22-19.21c0-4.72-1.91-9-5.01-12.1s-7.37-5.01-12.1-5.01h-42.2c0,4.72,1.91,9,5.01,12.1s7.37,5.01,12.09,5.01h20.57c2.5,0,4.53,2.03,4.53,4.54v14.67"/>
        <path class="cls-7" d="M223.76,292.02c0-3.31-1.34-6.31-3.51-8.47-2.17-2.17-5.17-3.51-8.47-3.51h-15.83v11.98h27.81Z"/>
        <path class="cls-7" d="M198.31,156.97c.02.31.03.62.03.94v10.83c0,7.22-5.85,13.06-13.07,13.06h-5.88c-5.9,0-11.1-2.94-14.23-7.45-1.95-2.8-3.09-6.2-3.09-9.87v-6.58c0-9.56,7.75-17.32,17.32-17.32h1.64c9.24,0,16.8,7.25,17.29,16.37"/>
        <path class="cls-7" d="M165.15,174.35l4.79-3.05c2.12-1.36,3.4-3.69,3.4-6.21v-2.49c0-3.12,2.52-5.64,5.64-5.64h19.36"/>
        <path class="cls-7" d="M173.73,207.76l-1.83,1.57-4.92-5.7c-2.72-3.14-2.37-7.89.78-10.61,1.42-1.23,3.17-1.83,4.91-1.83,2.11,0,4.21.89,5.7,2.61l4.92,5.7-1.82,1.57"/>
        <path class="cls-7" d="M192.54,213.9l14.37,16.64c1.85,2.14,1.61,5.36-.52,7.21s-5.37,1.61-7.21-.52l-6.64-7.68-18.82-21.78,7.74-6.69,11.08,12.82Z"/>
        <line class="cls-7" x1="141.84" y1="322.61" x2="170.92" y2="260.83"/>
        <polyline class="cls-7" points="150.43 242.6 128.7 322.61 129.96 322.61"/>
        <path class="cls-7" d="M157.77,334.6c0-3.31-1.34-6.31-3.51-8.47-2.17-2.17-5.16-3.51-8.47-3.51h-15.83v11.98h27.81Z"/>
      </g>
    </g>
  </g>
</svg>