<?xml version="1.0" encoding="UTF-8"?>
<svg id="Layer_1" xmlns="http://www.w3.org/2000/svg" version="1.1" viewBox="0 0 500 500">
  <!-- Generator: Adobe Illustrator 29.0.1, SVG Export Plug-In . SVG Version: 2.1.0 Build 192)  -->
  <defs>
    <style>
      .st0 {
        fill: #d1cee0;
      }

      .st1 {
        fill: none;
      }

      .st1, .st2, .st3, .st4 {
        stroke: #231f20;
        stroke-linecap: round;
        stroke-miterlimit: 10;
        stroke-width: 5px;
      }

      .st2, .st5 {
        fill: #625d9c;
      }

      .st6, .st4 {
        fill: #9f9cc2;
      }

      .st3 {
        fill: #322f4e;
      }

      .st7 {
        fill: #46416e;
      }
    </style>
  </defs>
  <rect class="st5" x=".3" y="-.4" width="500" height="500"/>
  <g>
    <g>
      <g>
        <path class="st7" d="M283.1,118.4c.5,0,.9,0,1,0,35.9-1.8,67,23.7,72.8,59h0c.4,0,.8,0,1.2,0,17.5,0,31.7,14.2,31.7,31.7s-1.9,12.2-5.1,17.2c3.2,6.6,5.1,13.9,5.1,21.7s-1.9,15.6-5.4,22.4c-8.1,15.9-24.7,26.8-43.8,26.8s-24.8-5.1-33.6-13.3v-1.2c-13.4,0-24.2-10.8-24.2-24.2,4.4-36.9-21.6-17.9-43.2-6.7l-.2-.3c-11,4.4-36.2-6-29.7-28.7,2.3-.4,4.5-1.1,6.8-1.9,20.2-7.8,30.3-30.4,22.6-50.6l-.4-2c7.8-1.6,15.2-8,15.2-23.2,0-24.5,23.7-26.6,29.2-26.7Z"/>
        <path class="st0" d="M238.7,168.2l.4,2c7.8,20.2-2.4,42.9-22.6,50.6-2.2.9-4.5,1.5-6.8,1.9-15.4,2.9-31-3.7-39.7-16.6h-.1c1.1-12.9-4.3-25.7-14.6-33.9l1.6-.3c10.1-10.6,9.8-27.3-.8-37.5l-.6-.6c-1.8-1.7-3.8-3.2-5.9-4.5h0c4.6-11.4,15.8-21.7,30.7-26.6,18.3-6.1,36.9-2.5,46.9,8,5.7-8.7,15.5-14.4,26.6-14.4s24.4,9.4,29.2,22.1c-5.5.1-29.1,2.2-29.2,26.7,0,15.2-7.5,21.6-15.2,23.2Z"/>
        <path class="st7" d="M209.8,222.7c-6.5,22.7,18.7,33.1,29.7,28.7l.2.3c-3.2,1.7-6.4,3.2-9.3,4.3-31,11.7-43.5-10.6-66.9,8.4-5.3,4.3-10.1,9.6-16.1,12.2-2.4,1-5,1.6-7.8,1.6-15.3,0-27.7-12.4-27.7-27.7l-.4-1.2c4.4-1.2,8.2-4.1,10.5-8.3,17.4,4.1,35.9-4.2,44.1-20.9,2.2-4.5,3.5-9.3,3.9-14h.1c8.7,12.9,24.4,19.5,39.7,16.6Z"/>
        <path class="st6" d="M163.4,264.3c23.4-18.9,35.9,3.4,66.9-8.4,2.9-1.1,6.1-2.6,9.3-4.3,21.7-11.2,47.7-30.2,43.2,6.7,0,13.4,10.8,24.2,24.2,24.2v1.2c8.8,8.2,20.6,13.3,33.6,13.3,19.1,0,35.6-10.9,43.8-26.8h.6c-1,28-18,51.6-41.9,62.3,23.4,17.9,16.8,74.5,16.8,74.5h-26.1s8-30.3-31.8-40.1c-39.8-9.9-42.4-41.4-42.4-41.4h0c-8.3-.6-16.5-3.8-23.2-9.7l-2.9-.2c-9,10.3-22.3,16.9-37,16.9-21.9,0-40.5-14.3-46.8-34.1-1.5-4.7-2.3-9.8-2.3-15s.1-4,.4-6l-.5-1.1c6-2.6,10.8-7.9,16.1-12.2Z"/>
        <path class="st0" d="M71.7,203.3c-.2-1.5-.3-3-.3-4.5,0-15.8,10.3-29.2,24.6-33.8-.3-1.8-.4-3.6-.4-5.4,0-19.6,15.9-35.5,35.5-35.5s13.2,1.9,18.6,5.3c2.1,1.3,4.1,2.8,5.9,4.5l.6.6c10.6,10.1,10.9,26.9.8,37.5l-1.6.3c10.3,8.2,15.7,21,14.6,33.9-.4,4.7-1.7,9.5-3.9,14-8.2,16.7-26.7,24.9-44.1,20.9-2.3,4.1-6.1,7-10.5,8.3l.4,1.2c0,15.3,12.4,27.7,27.7,27.7s5.5-.6,7.8-1.6l.5,1.1c-.2,2-.4,4-.4,6,0,5.2.8,10.3,2.3,15h0c-7.4,2.9-15.4,4.5-23.8,4.5-35.7,0-64.6-28.9-64.6-64.6s3.8-25,10.4-35.1Z"/>
      </g>
      <g>
        <path class="st1" d="M149.7,129.3c4.6-11.4,15.8-21.7,30.7-26.6,18.3-6.1,36.9-2.5,46.9,8"/>
        <path class="st1" d="M284.1,118.4c35.9-1.8,67,23.7,72.8,59"/>
        <path class="st1" d="M385.1,270.5c-1,27.9-18,51.5-41.9,62.2-2.7,1.2-5.4,2.2-8.2,3.1"/>
        <path class="st1" d="M291.9,312.2c-8.4,9.6-20.4,14.2-32.3,13.4-8.3-.5-16.5-3.7-23.2-9.6"/>
        <path class="st1" d="M348.5,178.9c2.7-.9,5.5-1.4,8.5-1.5.4,0,.8,0,1.2,0,17.5,0,31.7,14.2,31.7,31.7s-1.9,12.2-5.1,17.2c-1.7,2.7-3.8,5.1-6.2,7.1"/>
        <path class="st1" d="M331.3,258.4c0,13.4-10.8,24.2-24.2,24.2s-24.2-10.8-24.2-24.2"/>
        <path class="st1" d="M262,280.7c1.3,12.1-7.5,23-19.7,24.3-12.1,1.3-23-7.6-24.3-19.7"/>
        <path class="st1" d="M71.7,203.3c-.2-1.5-.3-3-.3-4.5,0-15.8,10.3-29.2,24.6-33.8h0"/>
        <path class="st1" d="M101.2,178.7c-2.6-4.1-4.4-8.7-5.2-13.7-.3-1.8-.4-3.6-.4-5.4,0-19.6,15.9-35.5,35.5-35.5s13.2,1.9,18.6,5.3c2.1,1.3,4.1,2.8,5.9,4.5"/>
        <path class="st1" d="M149.8,298.6c-7.4,2.9-15.4,4.5-23.8,4.5-35.7,0-64.6-28.9-64.6-64.6s3.8-25,10.4-35.1c3.9-6,8.7-11.2,14.3-15.7"/>
        <path class="st1" d="M240.1,306.3c-1.8,3.4-4,6.6-6.5,9.5-9,10.3-22.3,16.9-37,16.9-21.9,0-40.5-14.3-46.8-34.1-1.5-4.7-2.3-9.8-2.3-15s.1-4,.4-6"/>
        <path class="st1" d="M384.8,226.3c3.2,6.6,5.1,13.9,5.1,21.7s-1.9,15.6-5.4,22.4c-8.1,15.9-24.7,26.8-43.8,26.8s-24.8-5.1-33.6-13.3"/>
        <path class="st1" d="M343.2,332.7c23.4,17.9,16.8,74.5,16.8,74.5h-26.1s8-30.3-31.8-40.1c-39.8-9.9-42.4-41.4-42.4-41.4"/>
        <path class="st1" d="M148.2,167.7c2.6,1.3,5,2.8,7.2,4.5,10.3,8.2,15.7,21,14.6,33.9-.4,4.7-1.7,9.5-3.9,14-8.2,16.7-26.7,24.9-44.1,20.9"/>
        <path class="st1" d="M156.2,134.4c10.6,10.1,10.9,26.9.8,37.5"/>
        <path class="st1" d="M325.2,205.7c-2.5,13.6-15.5,22.7-29.2,20.2"/>
        <path class="st1" d="M147.9,158.4c2.5,6-.3,12.9-6.4,15.4"/>
        <path class="st1" d="M95.8,188.9c2.6-7.2,10.6-10.9,17.8-8.2"/>
        <path class="st1" d="M123.4,227c1.2,3.6,1.2,7.7-.3,11.5s-.7,1.7-1.2,2.5c-2.3,4.1-6.1,7-10.5,8.3-3.5,1-7.3.9-10.9-.4-2.9-1.1-5.4-2.9-7.3-5.1"/>
        <path class="st1" d="M239.1,170.2c7.8,20.2-2.4,42.9-22.6,50.6-2.2.9-4.5,1.5-6.8,1.9-15.4,2.9-31-3.7-39.7-16.6"/>
        <path class="st1" d="M284.1,118.4c-.2,0-.5,0-1,0-5.5.1-29.1,2.2-29.2,26.7,0,15.2-7.5,21.6-15.2,23.2-5.1,1.1-10.3.1-13.7-1.7-2.8-1.5-4.9-3.6-6.5-6.1"/>
        <path class="st1" d="M277.7,175.9c-7.6-9.1-6.3-22.6,2.8-30.2,7.8-6.5,18.9-6.5,26.7-.6"/>
        <path class="st1" d="M275.5,189.3c-1-1.8-1.4-4-1-6.2.9-5.2,5.9-8.7,11.1-7.8,1.7.3,3.2,1,4.4,2"/>
        <path class="st1" d="M176,278.9c.5-11.8,10.5-21,22.4-20.5"/>
        <path class="st1" d="M239.5,251.4c-11,4.4-36.2-6-29.7-28.7"/>
        <path class="st1" d="M345.8,195.5c-1.7,3.4-4.6,6.3-8.3,8-8.8,4.1-19.2.2-23.3-8.6-1.3-2.8-1.6-4.8-1.6-8.8.2-12.6,14.9-35.8-17.3-47.3,0,0-8.2-1.4-9.7-11-.5-3.3-1.4-6.5-2.5-9.5-4.8-12.7-15-22.1-29.2-22.1s-20.9,5.7-26.6,14.4c-1.5,2.3-2.8,4.9-3.6,7.6"/>
        <path class="st1" d="M282.9,258.4c4.4-36.9-21.6-17.9-43.2-6.7-3.2,1.7-6.4,3.2-9.3,4.3-31,11.7-43.5-10.6-66.9,8.4-5.3,4.3-10.1,9.6-16.1,12.2-2.4,1-5,1.6-7.8,1.6-15.3,0-27.7-12.4-27.7-27.7"/>
      </g>
    </g>
    <circle class="st2" cx="352.2" cy="179.2" r="87.2"/>
    <g>
      <path class="st1" d="M366.4,125.1c5.2,1.4,10.2,3.6,15,6.6,25.4,16.1,33,49.7,16.9,75.1s-49.7,33-75.1,16.9c-25.4-16.1-33-49.7-16.9-75.1s20.5-21,34.1-24"/>
      <circle class="st4" cx="352.3" cy="124" r="14.7"/>
      <circle class="st4" cx="398" cy="205.5" r="14.7"/>
      <circle class="st4" cx="306.8" cy="205.5" r="14.7"/>
      <circle class="st3" cx="352.3" cy="177.9" r="24.4"/>
    </g>
  </g>
</svg>