<?xml version="1.0" encoding="UTF-8"?>
<svg id="Layer_1" xmlns="http://www.w3.org/2000/svg" version="1.1" viewBox="0 0 500 500">
  <!-- Generator: Adobe Illustrator 29.0.1, SVG Export Plug-In . SVG Version: 2.1.0 Build 192)  -->
  <defs>
    <style>
      .st0 {
        fill: #4197cb;
      }

      .st1 {
        fill: #d0e6f6;
      }

      .st1, .st2, .st3 {
        stroke: #000;
        stroke-miterlimit: 10;
        stroke-width: 5px;
      }

      .st2 {
        fill: #3c6b92;
      }

      .st3 {
        fill: #1b3648;
      }
    </style>
  </defs>
  <rect class="st0" x="0" width="500" height="500"/>
  <g>
    <polygon class="st3" points="206.7 417.1 194.9 368.9 148.9 387.6 218.8 250.7 276.6 280.2 206.7 417.1"/>
    <polygon class="st3" points="293.3 417.1 305.1 368.9 351.1 387.6 281.2 250.7 223.4 280.2 293.3 417.1"/>
    <path class="st1" d="M268.1,90.9l11.2,11.2c4.8,4.8,11.3,7.5,18.1,7.5h15.9c14.1,0,25.6,11.4,25.6,25.6v15.9c0,6.8,2.7,13.3,7.5,18.1l11.2,11.2c10,10,10,26.2,0,36.2l-11.2,11.2c-4.8,4.8-7.5,11.3-7.5,18.1v15.9c0,14.1-11.4,25.6-25.6,25.6h-15.9c-6.8,0-13.3,2.7-18.1,7.5l-11.2,11.2c-10,10-26.2,10-36.2,0l-11.2-11.2c-4.8-4.8-11.3-7.5-18.1-7.5h-15.9c-14.1,0-25.6-11.4-25.6-25.6v-15.9c0-6.8-2.7-13.3-7.5-18.1l-11.2-11.2c-10-10-10-26.2,0-36.2l11.2-11.2c4.8-4.8,7.5-11.3,7.5-18.1v-15.9c0-14.1,11.4-25.6,25.6-25.6h15.9c6.8,0,13.3-2.7,18.1-7.5l11.2-11.2c10-10,26.2-10,36.2,0Z"/>
    <circle class="st2" cx="250" cy="198.5" r="62.7"/>
  </g>
  <path class="st1" d="M254.5,165.1l6.8,21h22.1c4.6,0,6.5,5.9,2.8,8.6l-17.9,13,6.8,21c1.4,4.4-3.6,8-7.3,5.3l-17.9-13-17.9,13c-3.7,2.7-8.7-.9-7.3-5.3l6.8-21-17.9-13c-3.7-2.7-1.8-8.6,2.8-8.6h22.1s6.8-21,6.8-21c1.4-4.4,7.6-4.4,9,0Z"/>
</svg>