<?xml version="1.0" encoding="UTF-8"?>
<svg xmlns="http://www.w3.org/2000/svg" viewBox="0 0 500 500">
  <defs>
    <style>
      .cls-1 {
        fill: #027788;
      }

      .cls-1, .cls-2, .cls-3, .cls-4, .cls-5, .cls-6, .cls-7 {
        stroke: #231f20;
        stroke-miterlimit: 10;
        stroke-width: 5px;
      }

      .cls-2 {
        fill: #9bd4dd;
      }

      .cls-3 {
        fill: none;
      }

      .cls-8 {
        fill: #009eac;
        stroke-width: 0px;
      }

      .cls-4 {
        fill: #cdebef;
      }

      .cls-5 {
        fill: #82cad3;
      }

      .cls-6 {
        fill: #828d8f;
      }

      .cls-7 {
        fill: #0b8699;
      }
    </style>
  </defs>
  <g id="Layer_2" data-name="Layer 2">
    <rect class="cls-8" width="500" height="500"/>
  </g>
  <g id="Layer_1" data-name="Layer 1">
    <g>
      <rect class="cls-1" x="143" y="137.35" width="213.99" height="257.63" rx="8.67" ry="8.67"/>
      <rect class="cls-4" x="168.34" y="137.35" width="163.31" height="231.47"/>
      <g>
        <g>
          <line class="cls-6" x1="217.83" y1="209.68" x2="305.3" y2="209.68"/>
          <line class="cls-6" x1="217.83" y1="234.46" x2="305.3" y2="234.46"/>
          <line class="cls-6" x1="217.83" y1="259.24" x2="305.3" y2="259.24"/>
          <line class="cls-6" x1="217.83" y1="284.01" x2="305.3" y2="284.01"/>
          <line class="cls-6" x1="217.83" y1="308.79" x2="305.3" y2="308.79"/>
        </g>
        <g>
          <line class="cls-6" x1="195.64" y1="209.68" x2="205.02" y2="209.68"/>
          <line class="cls-6" x1="195.64" y1="234.46" x2="205.02" y2="234.46"/>
          <line class="cls-6" x1="195.64" y1="259.24" x2="205.02" y2="259.24"/>
          <line class="cls-6" x1="195.64" y1="284.01" x2="205.02" y2="284.01"/>
          <line class="cls-6" x1="195.64" y1="308.79" x2="205.02" y2="308.79"/>
        </g>
      </g>
      <path class="cls-5" d="M197.32,121.01h105.36c2.98,0,5.41,2.42,5.41,5.41v27.27h-116.17v-27.27c0-2.98,2.42-5.41,5.41-5.41Z"/>
      <path class="cls-5" d="M228.78,125.74c0-11.44,9.28-20.72,20.72-20.72s20.72,9.28,20.72,20.72"/>
    </g>
    <g>
      <g>
        <g>
          <path class="cls-7" d="M162.43,338.87l-56.22,43.92c-5.81,5.82-5.8,15.25.02,21.06h0c5.85,5.84,15.33,5.8,21.13-.08l40.49-56.01"/>
          <g>
            <path class="cls-2" d="M149.71,324.71c8.1,18.37,26.12,31.5,47.53,32.3,29.89,1.13,55.03-22.18,56.16-52.07,1.13-29.89-22.18-55.03-52.07-56.16-14.07-.53-27.08,4.35-37.03,12.79"/>
            <path class="cls-2" d="M164.29,261.58c-11.2,9.49-18.53,23.46-19.12,39.28-.32,8.48,1.33,16.58,4.54,23.85"/>
          </g>
        </g>
        <circle class="cls-5" cx="199.4" cy="302.9" r="38.53"/>
      </g>
      <polyline class="cls-3" points="182.57 303.6 192.96 314.82 218.2 293.23"/>
    </g>
  </g>
</svg>