<?xml version="1.0" encoding="UTF-8"?>
<svg xmlns="http://www.w3.org/2000/svg" viewBox="0 0 500 500">
  <defs>
    <style>
      .cls-1, .cls-2, .cls-3, .cls-4, .cls-5, .cls-6, .cls-7, .cls-8 {
        stroke: #231f20;
        stroke-miterlimit: 10;
        stroke-width: 5px;
      }

      .cls-1, .cls-2, .cls-4, .cls-7 {
        fill: none;
      }

      .cls-1, .cls-3, .cls-4, .cls-5, .cls-6, .cls-7, .cls-8 {
        stroke-linecap: round;
      }

      .cls-3 {
        fill: #3c6b93;
      }

      .cls-4 {
        stroke-dasharray: 0 0 12.72 12.72;
      }

      .cls-5 {
        fill: #d1e7f7;
      }

      .cls-9 {
        fill: #5eb3e4;
        stroke-width: 0px;
      }

      .cls-6 {
        fill: #a2cfef;
      }

      .cls-7 {
        stroke-dasharray: 0 0 11.22 11.22;
      }

      .cls-8 {
        fill: #4d8fc2;
      }
    </style>
  </defs>
  <g id="Layer_2" data-name="Layer 2">
    <rect class="cls-9" x="0" y="-.27" width="500" height="500"/>
  </g>
  <g id="Layer_1" data-name="Layer 1">
    <g>
      <path class="cls-6" d="M311.22,213.25l14.45-41.24,55.14.18,15.51,39.34c6.33,16.49,9.58,34.01,9.58,51.67v148.3h-102.87v-150.4c0-16.3,2.77-32.49,8.18-47.86Z"/>
      <polyline class="cls-8" points="325.67 144.04 325.67 172.01 380.82 172.19 380.82 144.04"/>
      <path class="cls-8" d="M294.35,107.01h50.08c27.64,0,50.05,22.41,50.05,50.05h0s-80.36,0-80.36,0v-30.72h-19.77v-19.33Z"/>
      <line class="cls-1" x1="314.12" y1="126.33" x2="314.12" y2="107.01"/>
      <g>
        <path class="cls-3" d="M238.07,255.46l11.36-32.27h43.66l11.87,30.92c4.98,12.96,7.53,26.73,7.53,40.61v116.56h-80.85v-118.2c0-12.81,2.17-25.53,6.43-37.62Z"/>
        <polygon class="cls-6" points="249.43 201.07 249.43 223.05 292.77 223.19 292.77 201.07 249.43 201.07"/>
      </g>
      <g>
        <path class="cls-8" d="M66.69,328.89h195.62v76.92c0,9.73-7.9,17.63-17.63,17.63H84.32c-9.73,0-17.63-7.9-17.63-17.63v-76.92h0Z"/>
        <rect class="cls-5" x="255.71" y="366.42" width="32.7" height="19.5" transform="translate(-104.1 648.23) rotate(-90)"/>
        <path class="cls-3" d="M341.21,300.42h32.7v135.14c0,9.02-7.33,16.35-16.35,16.35h0c-9.02,0-16.35-7.33-16.35-16.35v-135.14h0Z" transform="translate(-18.6 733.73) rotate(-90)"/>
        <line class="cls-2" x1="66.69" y1="350.77" x2="262.32" y2="350.77"/>
        <g>
          <path class="cls-1" d="M149.3,273.68c-10.02-10.02-10.02-26.26,0-36.27"/>
          <path class="cls-1" d="M149.3,273.68c10.02,10.02,10.02,26.26,0,36.27"/>
        </g>
        <g>
          <path class="cls-1" d="M175.34,273.68c-10.02-10.02-10.02-26.26,0-36.27"/>
          <path class="cls-1" d="M175.34,273.68c10.02,10.02,10.02,26.26,0,36.27"/>
        </g>
      </g>
      <g>
        <line class="cls-1" x1="282.48" y1="116.91" x2="276.48" y2="116.91"/>
        <line class="cls-7" x1="265.25" y1="116.91" x2="113.74" y2="116.91"/>
        <line class="cls-1" x1="108.13" y1="116.91" x2="102.13" y2="116.91"/>
      </g>
      <g>
        <line class="cls-1" x1="108.05" y1="157.26" x2="113.95" y2="156.18"/>
        <line class="cls-4" x1="126.46" y1="153.89" x2="270.32" y2="127.56"/>
        <line class="cls-1" x1="276.57" y1="126.41" x2="282.48" y2="125.33"/>
      </g>
      <g>
        <line class="cls-1" x1="282.48" y1="108.48" x2="276.57" y2="107.4"/>
        <line class="cls-4" x1="264.06" y1="105.11" x2="120.2" y2="78.78"/>
        <line class="cls-1" x1="113.95" y1="77.64" x2="108.05" y2="76.56"/>
      </g>
    </g>
  </g>
</svg>