<?xml version="1.0" encoding="UTF-8"?>
<svg id="Layer_1" data-name="Layer 1" xmlns="http://www.w3.org/2000/svg" version="1.1" viewBox="0 0 500 500">
  <defs>
    <style>
      .cls-1 {
        fill: #016a5e;
      }

      .cls-1, .cls-2, .cls-3 {
        stroke-width: 0px;
      }

      .cls-4 {
        fill: #108c7d;
      }

      .cls-4, .cls-5, .cls-6, .cls-7, .cls-8 {
        stroke-miterlimit: 10;
        stroke-width: 5px;
      }

      .cls-4, .cls-6, .cls-7, .cls-8 {
        stroke: #231f20;
      }

      .cls-2 {
        fill: #06af9a;
      }

      .cls-5 {
        fill: none;
        stroke: #fff;
      }

      .cls-6 {
        fill: #06342f;
      }

      .cls-7 {
        fill: #9ed8d5;
      }

      .cls-3, .cls-8 {
        fill: #fff;
      }
    </style>
  </defs>
  <g id="Layer_2" data-name="Layer 2">
    <g id="Layer_2-2" data-name="Layer 2-2">
      <rect class="cls-2" y=".5" width="500" height="500"/>
    </g>
  </g>
  <g id="Layer_1-2" data-name="Layer 1">
    <g id="Layer_1-2" data-name="Layer 1-2">
      <g>
        <g>
          <path class="cls-7" d="M264.7,416.1H95.5c-5.7,0-10.4-4.6-10.4-10.4V95.4c0-5.7,4.7-10.4,10.4-10.4h169.2c5.7,0,10.4,4.7,10.4,10.4v310.2c0,5.7-4.6,10.4-10.4,10.4h0Z"/>
          <path class="cls-6" d="M255.7,401.2H104.3c-2.4,0-4.4-2-4.4-4.4V129.5c0-2.4,2-4.4,4.4-4.4h151.4c2.4,0,4.4,2,4.4,4.4v267.3c0,2.4-2,4.4-4.4,4.4h0Z"/>
          <line class="cls-8" x1="152.6" y1="107.6" x2="207.6" y2="107.6"/>
          <line class="cls-5" x1="132" y1="288.8" x2="243.2" y2="149.9"/>
          <line class="cls-5" x1="111.3" y1="349" x2="222.5" y2="210.1"/>
        </g>
        <g>
          <path class="cls-8" d="M243.9,323l-39.3-29.2h-17.2c-8,0-14.6-6.6-14.6-14.6v-97.3c0-8,6.6-14.6,14.6-14.6h142.7c8,0,14.6,6.6,14.6,14.6v97.3c0,8-6.6,14.6-14.6,14.6h-89.9l3.7,29.2Z"/>
          <path class="cls-4" d="M356.8,378.7l32.1-23.9h14.1c6.6,0,11.9-5.4,11.9-11.9v-79.5c0-6.6-5.4-11.9-11.9-11.9h-116.5c-6.6,0-11.9,5.4-11.9,11.9v79.5c0,6.6,5.4,11.9,11.9,11.9h73.4l-3,23.9Z"/>
          <g>
            <rect class="cls-3" x="323.5" y="299.2" width="8.3" height="8.3"/>
            <rect class="cls-3" x="340.5" y="299.2" width="8.3" height="8.3"/>
            <rect class="cls-3" x="357.6" y="299.2" width="8.3" height="8.3"/>
          </g>
          <g>
            <rect class="cls-1" x="223.2" y="223.4" width="13.9" height="13.9"/>
            <rect class="cls-1" x="251.8" y="223.4" width="13.9" height="13.9"/>
            <rect class="cls-1" x="280.4" y="223.4" width="13.9" height="13.9"/>
          </g>
        </g>
      </g>
    </g>
  </g>
</svg>