<?xml version="1.0" encoding="UTF-8"?>
<svg xmlns="http://www.w3.org/2000/svg" viewBox="0 0 500 500">
  <defs>
    <style>
      .cls-1 {
        fill: #275b7a;
      }

      .cls-1, .cls-2, .cls-3 {
        stroke: #231f20;
        stroke-linecap: round;
        stroke-miterlimit: 10;
        stroke-width: 5px;
      }

      .cls-2 {
        fill: #a1cbe5;
      }

      .cls-4 {
        fill: #4197cb;
        stroke-width: 0px;
      }

      .cls-3 {
        fill: #3579a3;
      }
    </style>
  </defs>
  <g id="Layer_2" data-name="Layer 2">
    <rect class="cls-4" width="500" height="500"/>
  </g>
  <g id="Layer_1" data-name="Layer 1">
    <g>
      <path class="cls-1" d="M237.64,407.69c-5.56-.81-11.15-1.43-16.66-2.45-40.23-7.42-72.49-27.22-95.28-61.63-.51-.76-1.05-1.5-1.61-2.3-1.34.7-2.55,1.46-3.86,2-5.24,2.19-10.66-.96-11.37-6.58-.13-1.01-.16-2.05-.15-3.07.27-18.27.56-36.53.84-54.8.11-7.41,5.94-11.25,12.61-8.08,16.92,8.05,33.81,16.17,50.65,24.39,7.04,3.43,7.36,11.05.83,15.36-1.61,1.06-3.26,2.07-5.27,3.35,18.82,23.27,41.89,39.05,71.99,41.93,30.34,2.9,55.06-10.41,77.61-29.87,2.02,7.06,3.93,13.69,5.81,20.32,1.12,3.94,2.27,7.87,3.27,11.83,1.95,7.72,5.74,13.99,14.21,17.51-4.67,3.39-8.71,6.62-13.04,9.41-20.2,13.06-42.44,20.08-66.34,22.07-.9.07-1.78.39-2.67.59h-21.56Z"/>
      <path class="cls-2" d="M241.18,109.57c0-2.9-.07-5.55.01-8.19.25-7.92,6.75-11.51,13.47-7.27,15.86,10.01,31.67,20.12,47.43,30.29,6.09,3.93,6.01,10.82-.14,14.78-15.68,10.11-31.4,20.16-47.16,30.14-6.53,4.13-12.09,1.35-13.92-7.14-27,3-49.9,13.9-67.02,35.34-16.93,21.21-24.71,45.45-21.97,73.11-4.85-2.31-9.43-4.52-14.05-6.67-4.36-2.03-8.71-4.07-13.12-5.98-4.98-2.16-9.86-1.69-14.39,1.2-3.61,2.3-7.06,4.87-11.04,7.65-1.21-26.8,4.03-51.95,16.14-75.63,12.21-23.88,29.59-43.25,51.9-58.09,22.24-14.8,46.65-23.12,73.85-23.53Z"/>
      <path class="cls-3" d="M389.07,308.33c1.96.63,3.81,1.16,5.61,1.83,6.72,2.48,8.38,9.73,3.02,14.4-14.3,12.48-28.71,24.84-43.21,37.08-5.59,4.72-12.07,2.63-14.1-4.43-5.14-17.79-10.12-35.62-15.21-53.42-1-3.51-.84-6.72,1.82-9.43,2.68-2.74,5.91-2.98,9.38-1.83.67.22,1.36.36,2.03.54,18.06-45.06-1.87-103.11-56.67-125.39,1-.69,1.78-1.27,2.6-1.8,7.43-4.75,14.75-9.66,22.32-14.19,9.12-5.46,14.14-12.85,12.32-24.46,31.72,18.59,55.39,43.65,68.2,77.94,12.7,33.98,13.25,68.43,1.89,103.17Z"/>
    </g>
  </g>
</svg>