<?xml version="1.0" encoding="UTF-8"?>
<svg id="Layer_2" data-name="Layer 2" xmlns="http://www.w3.org/2000/svg" viewBox="0 0 500 500">
  <defs>
    <style>
      .cls-1 {
        fill: #3579a3;
      }

      .cls-1, .cls-2, .cls-3, .cls-4 {
        stroke-width: 0px;
      }

      .cls-5 {
        fill: none;
      }

      .cls-5, .cls-6 {
        stroke: #231f20;
        stroke-miterlimit: 10;
        stroke-width: 5px;
      }

      .cls-2 {
        fill: #4197cb;
      }

      .cls-6 {
        fill: #eaecee;
        stroke-linecap: round;
      }

      .cls-3 {
        fill: #fff;
      }

      .cls-4 {
        fill: #dae8f4;
      }
    </style>
  </defs>
  <rect class="cls-2" x="0" y="-.27" width="500" height="500"/>
  <g>
    <g>
      <g>
        <path class="cls-4" d="M347.19,89.95l35.73,244.84c.16,1.09.16,2.18-.01,3.25l-1.5-.16-36.85,5.38c-3.93.57-6.64,4.2-6.07,8.1l5.31,36.37,1.04,1.86c-1.12.6-2.32,1-3.6,1.18l-196.17,28.63c-6.05.88-11.66-3.3-12.54-9.35L91.26,127.3c-.88-6.05,3.3-11.66,9.35-12.54l234.04-34.15c6.05-.88,11.66,3.3,12.54,9.35Z"/>
        <path class="cls-4" d="M381.41,337.88l1.5.16c-.27,1.78-.98,3.49-2.07,4.95l-32.33,43.45c-.98,1.32-2.25,2.39-3.67,3.15l-1.04-1.86,37.62-49.85Z"/>
        <path class="cls-4" d="M381.41,337.88l-37.62,49.85-5.31-36.37c-.57-3.9,2.15-7.53,6.07-8.1l36.85-5.38Z"/>
      </g>
      <g>
        <path class="cls-5" d="M344.83,389.59c-1.12.6-2.32,1-3.6,1.18l-196.17,28.63c-6.05.88-11.66-3.3-12.54-9.35L91.26,127.3c-.88-6.05,3.3-11.66,9.35-12.54l234.04-34.15c6.05-.88,11.66,3.3,12.54,9.35l35.73,244.84c.16,1.09.16,2.18-.01,3.25-.27,1.78-.98,3.49-2.07,4.95l-32.33,43.45c-.98,1.32-2.25,2.39-3.67,3.15Z"/>
        <path class="cls-5" d="M381.41,337.88l-36.85,5.38c-3.93.57-6.64,4.2-6.07,8.1l5.31,36.37"/>
      </g>
    </g>
    <g>
      <g>
        <path class="cls-3" d="M406.92,357.4h-37.24c-3.97,0-7.18,3.2-7.18,7.14v36.76l.76,1.99c-1.19.43-2.44.65-3.73.65h-198.25c-6.11,0-11.06-4.95-11.06-11.06V107.13c0-6.11,4.95-11.06,11.06-11.06h236.52c6.11,0,11.06,4.95,11.06,11.06v247.43c0,1.1-.16,2.18-.48,3.21l-1.46-.37Z"/>
        <path class="cls-1" d="M406.92,357.4l-44.42,43.9v-36.76c0-3.94,3.21-7.14,7.18-7.14h37.24Z"/>
        <path class="cls-1" d="M406.92,357.4l1.46.37c-.52,1.72-1.47,3.31-2.76,4.6l-38.27,38.33c-1.16,1.16-2.57,2.04-4.09,2.59l-.76-1.99,44.42-43.9Z"/>
      </g>
      <g>
        <path class="cls-5" d="M363.26,403.29c-1.19.43-2.44.65-3.73.65h-198.25c-6.11,0-11.06-4.95-11.06-11.06V107.13c0-6.11,4.95-11.06,11.06-11.06h236.52c6.11,0,11.06,4.95,11.06,11.06v247.43c0,1.1-.16,2.18-.48,3.21-.52,1.72-1.47,3.31-2.76,4.6l-38.27,38.33c-1.16,1.16-2.57,2.04-4.09,2.59Z"/>
        <path class="cls-5" d="M406.92,357.4h-37.24c-3.97,0-7.18,3.2-7.18,7.14v36.76"/>
      </g>
    </g>
    <line class="cls-6" x1="176.87" y1="190.14" x2="374" y2="190.14"/>
    <line class="cls-6" x1="176.87" y1="138.35" x2="226.15" y2="138.35"/>
    <line class="cls-6" x1="176.87" y1="152.68" x2="209.72" y2="152.68"/>
    <line class="cls-6" x1="176.87" y1="207.99" x2="365.78" y2="207.99"/>
    <line class="cls-6" x1="176.87" y1="225.85" x2="382.21" y2="225.85"/>
    <line class="cls-6" x1="176.87" y1="243.71" x2="365.78" y2="243.71"/>
    <line class="cls-6" x1="176.87" y1="261.56" x2="374" y2="261.56"/>
    <line class="cls-6" x1="176.87" y1="279.42" x2="275.43" y2="279.42"/>
  </g>
</svg>