<?xml version="1.0" encoding="UTF-8"?>
<svg xmlns="http://www.w3.org/2000/svg" viewBox="0 0 500 500">
  <defs>
    <style>
      .cls-1 {
        stroke-linecap: round;
      }

      .cls-1, .cls-2 {
        fill: none;
        stroke: #231f20;
        stroke-miterlimit: 10;
        stroke-width: 5px;
      }

      .cls-3 {
        fill: #016876;
      }

      .cls-3, .cls-4, .cls-5, .cls-6, .cls-7, .cls-8 {
        stroke-width: 0px;
      }

      .cls-4 {
        fill: #009eac;
      }

      .cls-5 {
        fill: #34aabb;
      }

      .cls-6 {
        fill: #027788;
      }

      .cls-7 {
        fill: #9bd4dd;
      }

      .cls-8 {
        fill: #0b8699;
      }
    </style>
  </defs>
  <g id="Layer_2" data-name="Layer 2">
    <rect class="cls-4" width="500" height="500"/>
  </g>
  <g id="Layer_1" data-name="Layer 1">
    <line class="cls-1" x1="65.79" y1="394.54" x2="434.21" y2="394.54"/>
    <g>
      <g>
        <path class="cls-7" d="M412.87,377.93c8.12,8.12,8.12,21.28,0,29.4-8.11,8.12-21.27,8.12-29.39,0l29.39-29.4Z"/>
        <path class="cls-7" d="M412.87,377.93l-29.39,29.4c-4.06-4.06-6.09-9.38-6.09-14.7s2.03-10.64,6.09-14.7c8.12-8.12,21.28-8.12,29.39,0Z"/>
        <path class="cls-7" d="M392.09,341.03c8.12,8.12,8.12,21.28,0,29.4l-29.4-29.4c8.12-8.12,21.28-8.12,29.4,0Z"/>
        <path class="cls-7" d="M362.69,341.03l29.4,29.4c-8.12,8.12-21.28,8.12-29.4,0s-8.12-21.28,0-29.4Z"/>
        <path class="cls-7" d="M371.3,377.93c4.06,4.06,6.09,9.38,6.09,14.7s-2.03,10.64-6.09,14.7c-8.12,8.12-21.28,8.12-29.4,0l29.4-29.4Z"/>
        <path class="cls-7" d="M371.3,377.93l-29.4,29.4c-8.11-8.12-8.11-21.28,0-29.4,8.12-8.12,21.28-8.12,29.4,0Z"/>
        <polygon class="cls-3" points="328.55 250.79 328.55 364.86 307.96 364.86 287.36 364.86 287.36 294.49 328.55 250.79"/>
        <polygon class="cls-4" points="328.55 212.1 328.55 250.79 287.36 294.49 287.36 212.1 307.96 212.1 328.55 212.1"/>
        <path class="cls-8" d="M196.34,298.77h44.66v98.31c0,9.02-7.32,16.34-16.34,16.34h-58.06c-9.03,0-16.34-7.32-16.34-16.34v-2.54h10.39c5.75,0,10.81-2.97,13.72-7.46,1.66-2.55,2.62-5.61,2.62-8.88v-79.43h19.35Z"/>
        <polygon class="cls-7" points="241 269.69 241 298.77 218.31 298.77 196.34 298.77 176.99 298.77 176.99 269.69 241 269.69"/>
        <path class="cls-6" d="M176.99,350.95v27.25c0,3.27-.96,6.33-2.62,8.88v-36.13h2.62Z"/>
        <rect class="cls-6" x="174.37" y="298.77" width="2.62" height="52.18"/>
        <path class="cls-7" d="M176.99,269.69v29.08h-14.32c.97-4.01,1.5-8.27,1.5-12.68,0-5.8-.91-11.33-2.57-16.4h15.39Z"/>
        <path class="cls-5" d="M176.99,221.23v48.46h-15.39c-5.22-15.99-17.84-27.26-32.59-27.26-19.42,0-35.16,19.55-35.16,43.66s15.74,43.67,35.16,43.67c7.98,0,15.35-3.31,21.25-8.88v30.07h-69.23v-129.72h95.96Z"/>
        <path class="cls-3" d="M176.99,207.77v13.46h-95.96v-13.46c0-11.65,5.7-21.96,14.46-28.31,13-9.41,20.54-24.6,20.61-40.64l.12-42.47h25.58l.12,42.47c.07,16.04,7.61,31.23,20.61,40.64,8.76,6.35,14.46,16.66,14.46,28.31Z"/>
        <path class="cls-8" d="M174.37,350.95v36.13c-2.91,4.49-7.97,7.46-13.72,7.46h-10.39v-43.59h24.11Z"/>
        <path class="cls-8" d="M174.37,298.77v52.18h-24.11v-30.07c5.83-5.49,10.23-13.2,12.41-22.11h11.7Z"/>
        <path class="cls-7" d="M164.17,286.09c0,4.41-.53,8.67-1.5,12.68h-12.41v-29.08h11.34c1.66,5.07,2.57,10.6,2.57,16.4Z"/>
        <path class="cls-8" d="M150.26,298.77h12.41c-2.18,8.91-6.58,16.62-12.41,22.11v-22.11Z"/>
        <path class="cls-8" d="M161.6,269.69h-11.34v51.19c-5.9,5.57-13.27,8.88-21.25,8.88-19.42,0-35.16-19.55-35.16-43.67s15.74-43.66,35.16-43.66c14.75,0,27.37,11.27,32.59,27.26Z"/>
        <path class="cls-3" d="M150.26,350.95v43.59h-52.89c-9.03,0-16.34-7.32-16.34-16.34v-27.25h69.23Z"/>
        <polygon class="cls-3" points="148.13 86.57 148.13 96.35 141.8 96.35 116.22 96.35 109.89 96.35 109.89 86.57 148.13 86.57"/>
      </g>
      <g>
        <path class="cls-2" d="M176.99,269.69v-61.92c0-11.65-5.7-21.96-14.46-28.31-13-9.41-20.54-24.6-20.61-40.64l-.12-42.47"/>
        <path class="cls-2" d="M116.22,96.35l-.12,42.47c-.07,16.04-7.61,31.23-20.61,40.64-8.76,6.35-14.46,16.66-14.46,28.31v170.43c0,9.02,7.31,16.34,16.34,16.34h52.89"/>
        <polygon class="cls-2" points="141.8 96.35 148.13 96.35 148.13 86.57 109.89 86.57 109.89 96.35 116.22 96.35 141.8 96.35"/>
        <path class="cls-2" d="M150.26,320.88c-5.9,5.57-13.27,8.88-21.25,8.88-19.42,0-35.16-19.55-35.16-43.67s15.74-43.66,35.16-43.66c14.75,0,27.37,11.27,32.59,27.26"/>
        <line class="cls-2" x1="81.03" y1="221.23" x2="176.99" y2="221.23"/>
        <line class="cls-2" x1="81.03" y1="350.95" x2="150.26" y2="350.95"/>
        <path class="cls-2" d="M241,378.75v18.33c0,9.02-7.32,16.34-16.34,16.34h-58.06c-9.03,0-16.34-7.32-16.34-16.34v-127.39h90.74v32.25"/>
        <path class="cls-2" d="M241,301.94h12.42c9.02,0,16.34,7.32,16.34,16.34v44.13c0,9.02-7.32,16.34-16.34,16.34h-12.42v-76.81Z"/>
        <polyline class="cls-1" points="174.37 298.77 174.37 350.95 174.37 387.08 174.37 387.66"/>
        <line class="cls-1" x1="196.34" y1="298.77" x2="196.34" y2="387.66"/>
        <line class="cls-1" x1="218.31" y1="298.77" x2="218.31" y2="387.66"/>
        <polyline class="cls-2" points="241 298.77 218.31 298.77 196.34 298.77 176.99 298.77 174.37 298.77 162.67 298.77 150.26 298.77"/>
        <path class="cls-2" d="M371.3,377.93c4.06,4.06,6.09,9.38,6.09,14.7s-2.03,10.64-6.09,14.7c-8.12,8.12-21.28,8.12-29.4,0-8.11-8.12-8.11-21.28,0-29.4,8.12-8.12,21.28-8.12,29.4,0Z"/>
        <line class="cls-2" x1="341.9" y1="407.33" x2="371.3" y2="377.93"/>
        <path class="cls-2" d="M412.87,377.93c8.12,8.12,8.12,21.28,0,29.4-8.11,8.12-21.27,8.12-29.39,0-4.06-4.06-6.09-9.38-6.09-14.7s2.03-10.64,6.09-14.7c8.12-8.12,21.28-8.12,29.39,0Z"/>
        <line class="cls-2" x1="383.48" y1="407.33" x2="412.87" y2="377.93"/>
        <circle class="cls-2" cx="377.39" cy="355.73" r="20.79"/>
        <line class="cls-2" x1="392.09" y1="370.43" x2="362.69" y2="341.03"/>
        <polygon class="cls-2" points="328.55 250.79 328.55 364.86 307.96 364.86 287.36 364.86 287.36 294.49 287.36 212.1 307.96 212.1 328.55 212.1 328.55 250.79"/>
        <line class="cls-1" x1="307.96" y1="212.1" x2="307.96" y2="130.48"/>
        <line class="cls-1" x1="328.55" y1="250.79" x2="287.36" y2="294.49"/>
        <line class="cls-1" x1="307.96" y1="364.86" x2="307.96" y2="413.42"/>
        <polyline class="cls-1" points="285.44 413.42 307.96 413.42 328.55 413.42"/>
      </g>
    </g>
  </g>
</svg>