<?xml version="1.0" encoding="UTF-8"?>
<svg id="Layer_1" data-name="Layer 1" xmlns="http://www.w3.org/2000/svg" version="1.1" viewBox="0 0 500 500">
  <defs>
    <style>
      .cls-1 {
        fill: #a09dc3;
      }

      .cls-1, .cls-2, .cls-3, .cls-4, .cls-5 {
        stroke-width: 0px;
      }

      .cls-6, .cls-7 {
        fill: none;
        stroke: #231f20;
        stroke-miterlimit: 10;
        stroke-width: 5px;
      }

      .cls-7 {
        stroke-linecap: round;
      }

      .cls-2 {
        fill: #625d9c;
      }

      .cls-3 {
        fill: #4d4b7e;
      }

      .cls-4 {
        fill: #e1dfeb;
      }

      .cls-5 {
        fill: #fff;
      }
    </style>
  </defs>
  <g id="Layer_2" data-name="Layer 2">
    <rect class="cls-2" width="500" height="500"/>
  </g>
  <g id="Layer_1-2" data-name="Layer 1">
    <g>
      <g>
        <path class="cls-4" d="M402.4,342.9h0s-280.1,0-280.1,0c-6.8,0-13-2.8-17.5-7.2-4.5-4.5-7.2-10.6-7.2-17.5,0-13.6,11.1-24.7,24.7-24.7h280.1c-13.5.2-24.3,11.2-24.3,24.7s10.9,24.5,24.3,24.7h0Z"/>
        <path class="cls-4" d="M250,267.2c39.6,0,73.4-5.9,86.9-14.2h35c-11,.2-19.9,9.2-19.9,20.2s8.9,20.1,19.9,20.2h-229.6c-5.6,0-10.6-2.3-14.3-5.9-3.7-3.7-5.9-8.7-5.9-14.3,0-11.2,9.1-20.2,20.3-20.2h20.7c13.6,8.3,47.4,14.2,86.9,14.2Z"/>
        <path class="cls-3" d="M343.3,191.5v53.5c0,2.9-2.2,5.6-6.3,8.1h-173.9c-4.1-2.5-6.3-5.2-6.3-8.1v-53.5l93.3,34.9,93.3-34.9Z"/>
        <path class="cls-3" d="M163.1,253h173.9c-13.5,8.3-47.4,14.2-86.9,14.2s-73.4-5.9-86.9-14.2Z"/>
        <path class="cls-5" d="M156.7,179.5h9c-3.1,0-6.1.2-9,.6v-.6Z"/>
        <polyline class="cls-1" points="156.7 191.5 250 226.4 343.3 191.5 382.2 176.9 250 132.6 117.8 176.9 139.8 185.1 139.8 185.1 156.7 191.5"/>
        <path class="cls-1" d="M104.4,231.2c5.4.4,9.6,5,9.6,10.5s-4.7,10.5-10.5,10.5v-10.5c0-3.6.3-7.1.9-10.5Z"/>
        <path class="cls-1" d="M103.6,231.2c.3,0,.6,0,.9,0-.6,3.4-.9,6.9-.9,10.5v10.5c-5.8,0-10.5-4.7-10.5-10.5s4.7-10.5,10.5-10.5Z"/>
      </g>
      <g>
        <path class="cls-6" d="M163.1,253h-20.7c-11.2,0-20.2,9.1-20.2,20.2s2.3,10.7,5.9,14.3c3.7,3.7,8.7,5.9,14.3,5.9"/>
        <path class="cls-6" d="M371.9,293.5h0c-11-.2-19.9-9.2-19.9-20.2s8.9-20.1,19.9-20.2h-35"/>
        <line class="cls-7" x1="264.8" y1="279.3" x2="153.6" y2="279.3"/>
        <polyline class="cls-7" points="352.4 267.2 250 267.2 241.7 267.2"/>
        <path class="cls-6" d="M142.4,293.5h-20c-13.6,0-24.7,11.1-24.7,24.7s2.8,13,7.2,17.5c4.5,4.5,10.7,7.2,17.5,7.2h280.1c-13.5-.2-24.3-11.2-24.3-24.7s10.9-24.5,24.3-24.7h0s-260,0-260,0h0Z"/>
        <line class="cls-7" x1="271.7" y1="325.6" x2="136.1" y2="325.6"/>
        <line class="cls-7" x1="378.6" y1="310.9" x2="243.5" y2="310.9"/>
        <path class="cls-6" d="M156.7,191.5v53.5c0,2.9,2.2,5.6,6.3,8.1,13.6,8.3,47.4,14.2,86.9,14.2s73.4-5.9,86.9-14.2c4.1-2.5,6.3-5.2,6.3-8.1v-53.5"/>
        <polygon class="cls-6" points="343.3 191.5 250 226.4 156.7 191.5 139.8 185.1 117.8 176.9 250 132.6 382.2 176.9 343.3 191.5"/>
        <line class="cls-7" x1="103.6" y1="252.2" x2="103.6" y2="267.2"/>
        <path class="cls-7" d="M250,179.5h-84.3c-3.1,0-6.1.2-9,.6-6,.9-11.6,2.6-16.9,5-18.4,8.4-31.9,25.5-35.4,46.1"/>
        <path class="cls-6" d="M104.4,231.2c5.4.4,9.6,5,9.6,10.5s-4.7,10.5-10.5,10.5-10.5-4.7-10.5-10.5,4.7-10.5,10.5-10.5.6,0,.9,0Z"/>
      </g>
    </g>
  </g>
</svg>