<?xml version="1.0" encoding="UTF-8"?>
<svg xmlns="http://www.w3.org/2000/svg" viewBox="0 0 500 500">
  <defs>
    <style>
      .cls-1 {
        fill: #a1cbe5;
      }

      .cls-1, .cls-2, .cls-3, .cls-4 {
        stroke-width: 0px;
      }

      .cls-5 {
        fill: none;
      }

      .cls-5, .cls-6 {
        stroke: #231f20;
        stroke-linecap: round;
        stroke-miterlimit: 10;
        stroke-width: 5px;
      }

      .cls-2 {
        fill: #3579a3;
      }

      .cls-3 {
        fill: #4197cb;
      }

      .cls-6 {
        fill: #112c3c;
      }

      .cls-4 {
        fill: #231f20;
      }
    </style>
  </defs>
  <g id="Layer_2" data-name="Layer 2">
    <rect class="cls-3" x="0" width="500" height="500"/>
  </g>
  <g id="Layer_1" data-name="Layer 1">
    <g>
      <path class="cls-6" d="M264.08,302.66h0c-8.25-6.17-19.58-6.17-27.83,0h0c-12.42,9.28-30.26,4.04-35.69-10.48h0c-3.61-9.65-13.14-15.78-23.42-15.05h0c-15.46,1.1-27.64-12.96-24.36-28.11h0c2.18-10.07-2.52-20.38-11.56-25.32h0c-13.6-7.44-16.25-25.85-5.29-36.82h0c7.28-7.29,8.89-18.5,3.96-27.55h0c-7.42-13.61.31-30.53,15.45-33.84h0c10.07-2.2,17.49-10.76,18.23-21.04h0c1.12-15.46,16.77-25.52,31.29-20.11h0c9.66,3.59,20.53.4,26.71-7.84h0c9.3-12.4,27.9-12.4,37.2,0h0c6.18,8.24,17.05,11.44,26.71,7.84h0c14.53-5.41,30.18,4.65,31.29,20.11h0c.74,10.28,8.16,18.84,18.23,21.04h0c15.14,3.31,22.87,20.23,15.45,33.84h0c-4.93,9.05-3.32,20.26,3.96,27.55h0c10.95,10.97,8.31,29.38-5.29,36.82h0c-9.04,4.94-13.75,15.25-11.56,25.32h0c3.28,15.15-8.9,29.21-24.36,28.11h0c-10.28-.73-19.81,5.4-23.42,15.05h0c-5.43,14.52-23.28,19.76-35.69,10.48Z"/>
      <g>
        <g>
          <path class="cls-2" d="M182.04,432.8h-60.65s12.68-72.77,44.07-93.28c14.42-9.43,32.22-14.83,57.33-15.36,8.14,5.48,17.53,8.21,26.91,8.21,9.84,0,19.66-2.99,28.02-8.97,25.11.52,42.45,6.57,56.79,16.12,31.75,21.11,44.07,93.28,44.07,93.28h-196.56Z"/>
          <path class="cls-1" d="M277.21,292.06c-8.33,3.66-17.53,5.68-27.21,5.68s-19.26-2.11-27.72-5.9c-7.62-3.41-14.5-8.18-20.33-14.01-12.3-12.29-19.91-29.28-19.91-48.05v-38.89c0-10.94,10.79-18.87,21.09-15.19,1.74.63,3.55,1.48,5.4,2.62,3.95,2.58,8.33,3.79,12.64,3.79,9.22,0,18.11-5.52,21.69-14.95,1.63-4.3,4.34-7.37,7.86-9.68,3.51-2.32,7.83-3.89,12.65-5.22,0,0,21.41-6.06,39.09,2.61,9.6,4.71,15.49,14.67,15.49,25.36v49.54c0,27.85-16.76,51.79-40.74,62.28ZM288.74,208.78c0-4.09-3.32-7.41-7.41-7.41s-7.41,3.32-7.41,7.41,3.32,7.41,7.41,7.41,7.41-3.32,7.41-7.41ZM226.13,208.78c0-4.09-3.32-7.41-7.42-7.41s-7.41,3.32-7.41,7.41,3.32,7.41,7.41,7.41,7.42-3.32,7.42-7.41Z"/>
          <circle class="cls-4" cx="281.33" cy="208.78" r="7.41"/>
          <path class="cls-1" d="M277.21,292.06l.52,31.34c-8.37,5.98-18.19,8.97-28.02,8.97s-18.77-2.73-26.91-8.21l-.54-32.3v-.03c8.47,3.79,17.86,5.9,27.74,5.9s18.88-2.02,27.21-5.68Z"/>
          <path class="cls-4" d="M218.71,201.37c4.1,0,7.42,3.32,7.42,7.41s-3.32,7.41-7.42,7.41-7.41-3.32-7.41-7.41,3.32-7.41,7.41-7.41Z"/>
        </g>
        <g>
          <path class="cls-5" d="M222.8,324.17c-25.11.52-42.91,5.93-57.33,15.36-31.39,20.51-44.07,93.28-44.07,93.28h132.41"/>
          <path class="cls-5" d="M253.8,432.8h124.8s-12.33-72.16-44.07-93.28c-14.35-9.55-31.68-15.59-56.79-16.12"/>
          <path class="cls-5" d="M277.21,292.03v.04l.52,31.34c-8.37,5.98-18.19,8.97-28.02,8.97s-18.77-2.73-26.91-8.21l-.54-32.3"/>
          <line class="cls-5" x1="182.04" y1="407.32" x2="182.04" y2="432.8"/>
          <line class="cls-5" x1="318.23" y1="407.04" x2="318.23" y2="432.51"/>
          <path class="cls-5" d="M233.04,258.6c9.09-9.64,24.27-10.07,33.91-.98"/>
          <path class="cls-5" d="M263.37,152.27s21.41-6.06,39.09,2.61c9.6,4.71,15.49,14.67,15.49,25.36v49.54c0,27.85-16.76,51.79-40.74,62.28-8.33,3.66-17.53,5.68-27.21,5.68s-19.26-2.11-27.72-5.9c-7.62-3.41-14.5-8.18-20.33-14.01-12.3-12.29-19.91-29.28-19.91-48.05v-38.89c0-10.94,10.79-18.87,21.09-15.19,1.74.63,3.55,1.48,5.4,2.62,3.95,2.58,8.33,3.79,12.64,3.79,9.22,0,18.11-5.52,21.69-14.95,1.63-4.3,4.34-7.37,7.86-9.68,3.51-2.32,7.83-3.89,12.65-5.22"/>
        </g>
      </g>
    </g>
  </g>
</svg>