<?xml version="1.0" encoding="UTF-8"?>
<svg id="Layer_1" data-name="Layer 1" xmlns="http://www.w3.org/2000/svg" version="1.1" viewBox="0 0 500 500">
  <defs>
    <style>
      .cls-1 {
        fill: none;
        stroke: #231f20;
        stroke-linecap: round;
        stroke-miterlimit: 10;
        stroke-width: 5px;
      }

      .cls-2 {
        fill: #009eac;
      }

      .cls-2, .cls-3, .cls-4, .cls-5, .cls-6, .cls-7, .cls-8 {
        stroke-width: 0px;
      }

      .cls-3 {
        fill: #003c44;
      }

      .cls-4 {
        fill: #0b8699;
      }

      .cls-5 {
        fill: #9bd4dd;
      }

      .cls-6 {
        fill: #027788;
      }

      .cls-7 {
        fill: #231f20;
      }

      .cls-8 {
        fill: #68bfcb;
      }
    </style>
  </defs>
  <g id="Layer_2" data-name="Layer 2">
    <rect class="cls-2" width="500" height="500"/>
  </g>
  <g id="Layer_1-2" data-name="Layer 1-2">
    <g>
      <g>
        <path class="cls-4" d="M430.5,146.4c0,13.8-11.1,25.1-24.8,25.2h-98.7c-1.4-20.6-16.3-37.4-36-41.8,3.9-9.6,12.7-17.3,23.5-18.9,4.3-.7,8.6-.5,12.7.5,2.5.7,4.1-.2,4.8-2.7,3.4-10.2,12-16.2,22.7-15.9,3.3,0,6.4,1,9.3,2.5,2.7,1.4,4.3.9,5.7-1.9,6.6-11.7,16.6-17.3,29.9-16.4,13.8.9,25.3,12.2,27.3,26,.5,4.5.3,8.9-1,13.2-1,3.3,0,5,3.4,5.6,12.1,2,21.1,12.3,21.1,24.6h0Z"/>
        <path class="cls-5" d="M376,193.2l-15.6,33.2-6.8-19.3h-21.9l12.2-33.6v-2.1h19.1v2l-8.2,19.6h21.3v.2Z"/>
        <path class="cls-6" d="M193.6,422.9h-50.7s10.6-60.9,36.8-78c12.1-7.9,27-12.4,47.9-12.8,6.8,4.6,14.7,6.9,22.5,6.9s16.4-2.5,23.5-7.5c20.9.4,35.5,5.5,47.5,13.5,26.5,17.7,36.8,78,36.8,78h-164.4,0Z"/>
        <path class="cls-5" d="M323.6,219.5c3.8,3.8,6.1,9.1,6.1,14.9,0,11.6-9.4,21.1-21.1,21.1h-1.5v-42.1h1.5c5.8,0,11.1,2.3,14.9,6.1h.1Z"/>
        <path class="cls-5" d="M273.2,305.3c-7,3.1-14.7,4.7-22.7,4.7s-16.1-1.8-23.1-4.9c-6.4-2.9-12.2-6.8-17-11.7-10.3-10.3-16.7-24.5-16.7-40.1v-39.8s36.8,5.5,36.8-16.3c0,0,28,15.8,76.8,16.3v39.9c0,23.2-14,43.3-34.1,52.1h0v-.2ZM282.8,235.6c0-3.4-2.7-6.2-6.1-6.2s-6.2,2.7-6.2,6.2,2.7,6.1,6.2,6.1,6.1-2.7,6.1-6.1ZM230.4,235.6c0-3.4-2.7-6.2-6.1-6.2s-6.1,2.7-6.1,6.2,2.7,6.1,6.1,6.1,6.1-2.7,6.1-6.1Z"/>
        <path class="cls-7" d="M276.6,229.4c3.4,0,6.1,2.7,6.1,6.2s-2.7,6.1-6.1,6.1-6.2-2.7-6.2-6.1,2.7-6.2,6.2-6.2Z"/>
        <path class="cls-5" d="M273.2,305.3l.4,26.2c-7,5-15.2,7.5-23.5,7.5s-15.7-2.3-22.5-6.9l-.4-27h0c7.1,3.2,14.9,4.9,23.1,4.9s15.8-1.6,22.7-4.7h.2Z"/>
        <path class="cls-3" d="M271.2,129.8c-3.2-.7-6.5-1.1-9.9-1.1-10.2,0-19.5,3.3-27.2,8.9-4.6,3.4-8.6,7.7-11.6,12.5-1.3-.2-2.5-.3-3.8-.3-12.9,0-23.5,9.8-24.8,22.4,0,.9-.1,1.8-.1,2.6v38.5s36.8,5.5,36.8-16.3c0,0,28,15.8,76.8,16.3v-38.5c0-1.1,0-2.1-.1-3.2h0c-1.4-20.6-16.3-37.5-36-41.8"/>
        <path class="cls-7" d="M224.3,229.4c3.4,0,6.1,2.7,6.1,6.2s-2.7,6.1-6.1,6.1-6.1-2.7-6.1-6.1,2.7-6.2,6.1-6.2Z"/>
        <path class="cls-8" d="M234.1,137.6c-4.6,3.4-8.6,7.6-11.6,12.5-1.2-.2-2.5-.3-3.8-.3-12.9,0-23.5,9.8-24.8,22.4h-70.9c-11.4,0-20.6-9.4-20.5-20.8,0-10.1,7.5-18.6,17.4-20.3,2.7-.4,3.6-1.9,2.9-4.6-1.1-3.6-1.3-7.2-.9-10.9,1.5-11.4,11.2-20.7,22.6-21.5,11.1-.8,19.3,3.8,24.8,13.6,1.2,2.2,2.4,2.6,4.7,1.5,2.4-1.2,4.9-2.1,7.7-2.1,8.9-.2,15.9,4.7,18.7,13.2.7,2.1,1.9,2.7,4.1,2.2,3.5-.9,7-1,10.5-.4,8.9,1.3,16.2,7.7,19.4,15.7h-.2v-.2Z"/>
        <path class="cls-5" d="M193.6,213.9v41.4h-1.5c-5.8,0-11.1-2.3-14.9-6.1s-6.1-9.1-6.1-14.9c0-11.6,9.4-21.1,21.1-21.1h1.5v.7h-.1Z"/>
      </g>
      <g>
        <path class="cls-1" d="M234.1,137.6c-3.2-8-10.5-14.4-19.4-15.7-3.5-.5-7-.4-10.5.4-2.1.5-3.3,0-4.1-2.2-2.9-8.4-9.9-13.4-18.7-13.2-2.7,0-5.3.9-7.7,2.1-2.3,1.2-3.5.8-4.7-1.5-5.4-9.6-13.7-14.3-24.8-13.6-11.4.8-20.9,10.1-22.6,21.5-.5,3.7-.2,7.3.9,10.9.9,2.7,0,4.2-2.9,4.6-10.1,1.6-17.4,10.2-17.4,20.3s9.1,20.8,20.5,20.8h70.9"/>
        <line class="cls-1" x1="135.5" y1="182.7" x2="130.1" y2="195.6"/>
        <line class="cls-1" x1="153.9" y1="182.7" x2="148.5" y2="195.6"/>
        <line class="cls-1" x1="144.3" y1="205.8" x2="138.9" y2="218.8"/>
        <line class="cls-1" x1="173" y1="182.7" x2="167.6" y2="195.6"/>
        <line class="cls-1" x1="163.2" y1="205.8" x2="157.9" y2="218.8"/>
        <path class="cls-1" d="M271.2,129.8c3.9-9.6,12.6-17.3,23.5-18.9,4.3-.7,8.6-.5,12.7.5,2.5.7,4.1-.2,4.8-2.7,3.4-10.2,12-16.2,22.7-15.9,3.3,0,6.4,1,9.3,2.5,2.7,1.4,4.3.9,5.7-1.9,6.6-11.7,16.6-17.3,29.9-16.4,13.8.9,25.3,12.2,27.3,26,.5,4.5.3,8.9-1,13.2-1,3.3,0,5,3.4,5.6,12.1,2,21.1,12.3,21.1,24.6s-11.1,25.1-24.8,25.2h-98.7"/>
        <path class="cls-1" d="M227.7,332.1c-20.9.4-35.9,4.9-47.9,12.8-26.2,17.1-36.8,78-36.8,78h110.7"/>
        <path class="cls-1" d="M253.7,422.9h104.4s-10.3-60.3-36.8-78c-12.1-8-26.5-13-47.5-13.5"/>
        <path class="cls-1" d="M307.3,253.2c0,23.2-14,43.3-34.1,52.1-7,3.1-14.7,4.7-22.7,4.7s-16.1-1.8-23.1-4.9c-6.4-2.9-12.2-6.8-17-11.7-10.3-10.3-16.7-24.5-16.7-40.1"/>
        <path class="cls-1" d="M193.6,213.3h-1.5c-11.6,0-21.1,9.4-21.1,21.1s2.3,11.1,6.1,14.9,9.1,6.1,14.9,6.1h1.5v-42.1h.1Z"/>
        <path class="cls-1" d="M307.3,253.2v2.2h1.5c11.6,0,21.1-9.4,21.1-21.1s-2.3-11.1-6.1-14.9-9.1-6.1-14.9-6.1h-1.5v39.9h-.1Z"/>
        <line class="cls-1" x1="307.3" y1="174.8" x2="307.3" y2="213.3"/>
        <path class="cls-1" d="M193.6,174.8v38.5s36.8,5.5,36.8-16.3c0,0,28,15.8,76.8,16.3"/>
        <path class="cls-1" d="M307.3,174.8c0-1.1,0-2.1-.1-3.2-1.4-20.6-16.3-37.4-36-41.8-3.2-.7-6.5-1.1-10-1.1-10.2,0-19.5,3.3-27.2,8.9-4.6,3.4-8.6,7.6-11.6,12.5-1.2-.2-2.5-.3-3.8-.3-12.9,0-23.5,9.8-24.8,22.4,0,.9-.1,1.8-.1,2.6"/>
        <path class="cls-1" d="M273.2,305.2h0l.4,26.2c-7,5-15.2,7.5-23.5,7.5s-15.7-2.3-22.5-6.9l-.4-27"/>
        <polyline class="cls-1" points="344 173.7 331.7 207.1 353.7 207.1 360.5 226.4 376 193.2 354.9 193.2 363 173.7"/>
        <line class="cls-1" x1="193.6" y1="401.6" x2="193.6" y2="422.9"/>
        <line class="cls-1" x1="307.5" y1="401.3" x2="307.5" y2="422.7"/>
      </g>
    </g>
  </g>
</svg>