<?xml version="1.0" encoding="UTF-8"?>
<svg id="Layer_1" data-name="Layer 1" xmlns="http://www.w3.org/2000/svg" version="1.1" viewBox="0 0 500 500">
  <defs>
    <style>
      .cls-1 {
        fill: none;
        stroke-linecap: round;
      }

      .cls-1, .cls-2, .cls-3, .cls-4, .cls-5, .cls-6, .cls-7 {
        stroke: #231f20;
        stroke-miterlimit: 10;
      }

      .cls-1, .cls-2, .cls-3, .cls-7 {
        stroke-width: 5px;
      }

      .cls-8 {
        fill: #232c33;
      }

      .cls-8, .cls-9, .cls-10 {
        stroke-width: 0px;
      }

      .cls-9 {
        fill: #625d9c;
      }

      .cls-2, .cls-6 {
        fill: #eaecee;
      }

      .cls-3, .cls-5 {
        fill: #5b666d;
      }

      .cls-4 {
        fill: #03463f;
      }

      .cls-7 {
        fill: #00695d;
      }

      .cls-10 {
        fill: #231f20;
      }
    </style>
  </defs>
  <g id="Layer_2" data-name="Layer 2">
    <rect class="cls-9" y="-.3" width="500" height="500"/>
  </g>
  <g id="Layer_1-2" data-name="Layer 1">
    <g>
      <g>
        <g>
          <path class="cls-5" d="M375.7,414.8H124.3s12.4-71.1,43.1-91.2c14.1-9.2,31.5-14.5,56.1-15,8,5.4,17.1,8,26.3,8s19.2-2.9,27.4-8.8c24.5.5,41.5,6.4,55.5,15.8,31,20.6,43.1,91.2,43.1,91.2h0Z"/>
          <path class="cls-6" d="M318.2,169.7c6.8,0,13,2.8,17.4,7.2,4.5,4.4,7.2,10.6,7.2,17.4,0,13.6-11,24.6-24.6,24.6h-1.8v-49.2h1.8Z"/>
          <path class="cls-6" d="M316.4,170.4v45.9c0,27.2-16.4,50.6-39.8,60.9-8.1,3.6-17.1,5.5-26.6,5.5s-18.8-2-27.1-5.8c-7.5-3.3-14.2-8-19.9-13.7-12-12-19.5-28.6-19.5-47v-46.6s43.1,6.4,43.1-19.2c0,0,32.6,18.4,89.8,19.2v.7h0Z"/>
          <path class="cls-4" d="M187.3,124.7c5-8.9,14.5-14.8,25.4-14.8s3,.2,4.5.4c9.5-15,26.3-25,45.4-25s45.6,16.7,51.9,39.5"/>
          <path class="cls-6" d="M276.6,277.2l.5,30.6c-8.2,5.9-17.8,8.8-27.4,8.8s-18.4-2.7-26.3-8l-.5-31.6h0c8.3,3.7,17.4,5.8,27.1,5.8s18.5-2,26.6-5.5h0Z"/>
          <path class="cls-6" d="M183.6,170.4v48.5h-1.8c-6.8,0-12.9-2.8-17.4-7.2-4.4-4.4-7.2-10.6-7.2-17.4,0-13.6,11-24.6,24.6-24.6h1.8v.7h0Z"/>
        </g>
        <g>
          <path class="cls-1" d="M223.4,308.6c-24.6.5-41.9,5.8-56.1,15-30.7,20-43.1,91.2-43.1,91.2h129.5"/>
          <path class="cls-1" d="M253.7,414.8h122s-12-70.6-43.1-91.2c-14-9.3-31-15.2-55.5-15.8"/>
          <path class="cls-1" d="M316.4,216.3c0,27.2-16.4,50.6-39.8,60.9-8.1,3.6-17.1,5.5-26.6,5.5s-18.8-2-27.1-5.8c-7.5-3.3-14.2-8-19.9-13.7-12-12-19.5-28.6-19.5-47"/>
          <path class="cls-1" d="M183.6,169.7h-1.8c-13.6,0-24.6,11-24.6,24.6s2.8,12.9,7.2,17.4c4.5,4.4,10.6,7.2,17.4,7.2h1.8v-49.2h0Z"/>
          <path class="cls-1" d="M316.4,216.3v2.6h1.8c13.6,0,24.6-11,24.6-24.6s-2.8-13-7.2-17.4c-4.5-4.4-10.6-7.2-17.4-7.2h-1.8v46.6h0Z"/>
          <g>
            <path class="cls-8" d="M316.4,139v30.7c-57.1-.7-89.8-19.2-89.8-19.2,0,25.5-43.1,19.2-43.1,19.2v-30.7h0c0-5.2,1.4-10.1,3.8-14.3,5-8.9,14.5-14.8,25.4-14.8s3,.2,4.5.4c9.5-15,26.3-25,45.4-25s45.6,16.7,51.9,39.5c1.3,4.6,1.9,9.4,1.9,14.3Z"/>
            <g>
              <line class="cls-1" x1="316.4" y1="139" x2="316.4" y2="169.7"/>
              <path class="cls-1" d="M183.6,139v30.7s43.1,6.4,43.1-19.2c0,0,32.6,18.4,89.8,19.2"/>
              <path class="cls-1" d="M316.4,139c0-5-.7-9.8-1.9-14.3-6.3-22.7-27.1-39.4-51.9-39.4s-35.9,10-45.4,25c-1.5-.2-3-.4-4.5-.4-10.9,0-20.4,6-25.4,14.8-2.4,4.2-3.8,9.1-3.8,14.3h0"/>
            </g>
          </g>
          <path class="cls-1" d="M276.6,277.2h0s.5,30.7.5,30.7c-8.2,5.9-17.8,8.8-27.4,8.8s-18.4-2.7-26.3-8l-.5-31.6"/>
        </g>
      </g>
      <g>
        <polygon class="cls-3" points="378.3 414.8 316.4 414.8 348.6 291.9 391.3 291.9 378.3 414.8"/>
        <g>
          <path class="cls-2" d="M392,271.8l15.1-18.6c1.9-2.4,4.7-4.4,8-5.6,4.4-1.6,9.4-1.7,6.9,7.7-4.2,15.8-21,17.9-21,17.9l-8.9-1.4h0Z"/>
          <path class="cls-2" d="M342.8,309l59.2-19.4c11.1-1.7,21.5-6.3,30.2-13.3,12.6-10.2,29.1-24.8,28.1-31.1-1.2-7.6-26.1,8.5-38.5,17.1-4.6,3.2-10,5.3-15.5,6.2l-48.3,7.4c-4.5.7-8.5,3.7-10.1,8-1,2.9-1.3,8.4-3.1,12.5-3.7,8.5-5.8,13.2-2.2,12.6h0Z"/>
          <path class="cls-7" d="M348,283.8c-1,2.9-1.3,8.4-3.1,12.5-3.7,8.5-2.2,12.6-2.2,12.6"/>
        </g>
      </g>
      <g>
        <polygon class="cls-3" points="121.7 414.8 183.6 414.8 151.4 291.9 108.7 291.9 121.7 414.8"/>
        <g>
          <path class="cls-2" d="M107.9,271.8l-15.1-18.6c-1.9-2.4-4.7-4.4-8-5.6-4.4-1.6-9.4-1.7-6.9,7.7,4.2,15.8,21,17.9,21,17.9l8.9-1.4Z"/>
          <path class="cls-2" d="M157.2,309l-59.2-19.4c-11.1-1.7-21.5-6.3-30.2-13.3-12.7-10.2-29.1-24.8-28.1-31.1,1.2-7.6,26.1,8.5,38.5,17.1,4.6,3.2,9.9,5.3,15.5,6.2l48.3,7.4c4.5.7,8.5,3.7,10.1,8,1,2.9,1.3,8.4,3.1,12.5,3.7,8.5,5.8,13.2,2.2,12.6h0Z"/>
          <path class="cls-7" d="M152,283.8c1,2.9,1.3,8.4,3.1,12.5,3.7,8.5,2.2,12.6,2.2,12.6"/>
        </g>
      </g>
      <circle class="cls-10" cx="221.3" cy="202.9" r="7.3"/>
      <circle class="cls-10" cx="282.5" cy="202.9" r="7.3"/>
      <line class="cls-1" x1="224.9" y1="248.4" x2="278.9" y2="248.4"/>
    </g>
  </g>
</svg>