<?xml version="1.0" encoding="UTF-8"?>
<svg id="Layer_1" data-name="Layer 1" xmlns="http://www.w3.org/2000/svg" version="1.1" viewBox="0 0 500 500">
  <defs>
    <style>
      .cls-1 {
        stroke-linejoin: round;
        stroke-width: .5px;
      }

      .cls-1, .cls-2 {
        fill: none;
      }

      .cls-1, .cls-2, .cls-3 {
        stroke: #231f20;
        stroke-linecap: round;
      }

      .cls-2, .cls-3 {
        stroke-miterlimit: 10;
        stroke-width: 5px;
      }

      .cls-4 {
        fill: #3579a3;
      }

      .cls-4, .cls-5, .cls-6, .cls-7 {
        stroke-width: 0px;
      }

      .cls-5 {
        fill: #dae8f4;
      }

      .cls-6 {
        fill: #231f20;
      }

      .cls-7 {
        fill: #4197cb;
      }

      .cls-3 {
        fill: #193c51;
      }
    </style>
  </defs>
  <g id="Layer_2" data-name="Layer 2">
    <rect class="cls-7" width="500" height="500"/>
  </g>
  <g id="Layer_1-2" data-name="Layer 1">
    <g>
      <g>
        <g>
          <path class="cls-4" d="M183.6,422h-59.3s12.4-71.2,43.1-91.2c14.1-9.2,31.5-14.5,56.1-15,8,5.4,17.1,8,26.3,8s19.2-2.9,27.4-8.8c24.6.5,41.5,6.4,55.6,15.8,31,20.6,43.1,91.2,43.1,91.2h-192.2,0Z"/>
          <path class="cls-5" d="M335.7,184.1c4.5,4.4,7.2,10.6,7.2,17.4,0,13.6-11,24.6-24.6,24.6h-1.8v-49.2h1.8c6.8,0,13,2.8,17.4,7.2h0Z"/>
          <path class="cls-5" d="M276.6,284.4c-8.1,3.6-17.1,5.5-26.6,5.5s-18.8-2.1-27.1-5.8c-7.4-3.3-14.2-8-19.9-13.7-12-12-19.5-28.6-19.5-47v-46.6s43.1,6.4,43.1-19.2c0,0,32.6,18.4,89.8,19.2v46.6c0,27.2-16.4,50.7-39.9,60.9h0ZM287.9,202.9c0-4-3.2-7.2-7.3-7.2s-7.2,3.2-7.2,7.2,3.2,7.3,7.2,7.3,7.3-3.2,7.3-7.3ZM226.6,202.9c0-4-3.2-7.2-7.2-7.2s-7.2,3.2-7.2,7.2,3.2,7.3,7.2,7.3,7.2-3.2,7.2-7.3Z"/>
          <path class="cls-6" d="M280.6,195.7c4,0,7.3,3.2,7.3,7.2s-3.2,7.3-7.3,7.3-7.2-3.2-7.2-7.3,3.2-7.2,7.2-7.2Z"/>
          <path class="cls-5" d="M276.6,284.4l.5,30.6c-8.2,5.9-17.8,8.8-27.4,8.8s-18.4-2.7-26.3-8l-.5-31.6h0c8.3,3.7,17.5,5.7,27.1,5.7s18.4-2,26.6-5.5h0Z"/>
          <path class="cls-6" d="M219.4,195.7c4,0,7.2,3.2,7.2,7.2s-3.2,7.3-7.2,7.3-7.2-3.2-7.2-7.3,3.2-7.2,7.2-7.2Z"/>
          <path class="cls-5" d="M183.6,177.6v48.5h-1.8c-6.8,0-12.9-2.8-17.4-7.2-4.5-4.4-7.2-10.6-7.2-17.4,0-13.6,11-24.6,24.6-24.6h1.8v.7h0Z"/>
        </g>
        <g>
          <path class="cls-2" d="M223.4,315.8c-24.6.5-41.9,5.8-56.1,15-30.7,20.1-43.1,91.2-43.1,91.2h129.5"/>
          <path class="cls-2" d="M253.7,422h122s-12-70.6-43.1-91.2c-14-9.3-31-15.2-55.6-15.8"/>
          <path class="cls-2" d="M316.5,223.5c0,27.2-16.4,50.7-39.9,60.9-8.1,3.6-17.1,5.5-26.6,5.5s-18.8-2.1-27.1-5.8c-7.4-3.3-14.2-8-19.9-13.7-12-12-19.5-28.6-19.5-47"/>
          <path class="cls-2" d="M183.6,176.9h-1.8c-13.6,0-24.6,11-24.6,24.6s2.8,12.9,7.2,17.4c4.4,4.4,10.6,7.2,17.4,7.2h1.8v-49.2Z"/>
          <path class="cls-2" d="M316.5,223.5v2.6h1.8c13.6,0,24.6-11,24.6-24.6s-2.8-13-7.2-17.4c-4.5-4.4-10.6-7.2-17.4-7.2h-1.8v46.6h0Z"/>
          <path class="cls-3" d="M316.5,176.9v-45.1c0-29.7-24.1-53.8-53.8-53.8s-35.9,10-45.4,25c-1.5-.2-3-.4-4.5-.4-16.1,0-29.2,13.1-29.2,29.2v45.1s43.1,6.4,43.1-19.2c0,0,32.6,18.4,89.8,19.2"/>
          <path class="cls-2" d="M276.6,284.3h0s.5,30.7.5,30.7c-8.2,5.9-17.8,8.8-27.4,8.8s-18.4-2.7-26.3-8l-.5-31.6"/>
          <line class="cls-2" x1="183.6" y1="397.1" x2="183.6" y2="422"/>
          <line class="cls-2" x1="316.7" y1="396.8" x2="316.7" y2="421.8"/>
        </g>
      </g>
      <line class="cls-2" x1="223" y1="248.4" x2="277" y2="248.4"/>
    </g>
    <circle class="cls-1" cx="219.4" cy="202.9" r="7.3"/>
    <circle class="cls-1" cx="280.6" cy="202.9" r="7.3"/>
    <line class="cls-2" x1="223" y1="248.4" x2="277" y2="248.4"/>
  </g>
</svg>