<?xml version="1.0" encoding="UTF-8"?>
<svg xmlns="http://www.w3.org/2000/svg" viewBox="0 0 500 500">
  <defs>
    <style>
      .cls-1 {
        fill: #00ab9b;
      }

      .cls-1, .cls-2 {
        stroke-width: 0px;
      }

      .cls-3 {
        fill: none;
        stroke-linecap: round;
        stroke-width: 5px;
      }

      .cls-3, .cls-4, .cls-5, .cls-6, .cls-7 {
        stroke: #231f20;
        stroke-miterlimit: 10;
      }

      .cls-2, .cls-4 {
        fill: #03463f;
      }

      .cls-5 {
        fill: #00695d;
      }

      .cls-6 {
        fill: #b6e1df;
      }

      .cls-7 {
        fill: #84cfc9;
      }
    </style>
  </defs>
  <g id="Layer_2" data-name="Layer 2">
    <g id="Layer_2-2" data-name="Layer 2">
      <rect class="cls-1" width="500" height="500"/>
    </g>
  </g>
  <g id="Layer_1" data-name="Layer 1">
    <g>
      <g>
        <path class="cls-5" d="M375.74,414.8H124.26s12.4-71.15,43.09-91.2c14.1-9.22,31.5-14.5,56.05-15.01,7.96,5.36,17.14,8.03,26.31,8.03,9.62,0,19.22-2.92,27.4-8.77,24.55.51,41.5,6.42,55.53,15.76,31.05,20.64,43.1,91.19,43.1,91.19Z"/>
        <path class="cls-6" d="M318.23,169.71c6.8,0,12.95,2.76,17.4,7.21,4.45,4.45,7.21,10.6,7.21,17.41,0,13.59-11.01,24.6-24.6,24.6h-1.79v-49.23h1.78Z"/>
        <path class="cls-6" d="M316.44,170.42v45.9c0,27.23-16.39,50.64-39.84,60.89-8.14,3.58-17.14,5.55-26.6,5.55s-18.82-2.05-27.09-5.76c-7.46-3.33-14.19-8-19.89-13.71-12.03-12.03-19.46-28.63-19.46-46.98v-46.61s43.13,6.38,43.13-19.16c0,0,32.64,18.44,89.75,19.16v.72ZM290.31,230.68c.33-2.71-1.82-5.08-4.54-5.08h-71.54c-2.72,0-4.87,2.37-4.54,5.08,1.53,12.23,8.49,22.77,18.4,29.12,6.32,4.08,13.85,6.42,21.91,6.42s15.59-2.35,21.91-6.42c9.91-6.35,16.87-16.89,18.4-29.12Z"/>
        <path class="cls-4" d="M187.33,124.65c5-8.86,14.5-14.85,25.41-14.85,1.54,0,3.03.15,4.5.38,9.54-15.01,26.31-24.99,45.41-24.99,24.75,0,45.58,16.71,51.85,39.46"/>
        <path class="cls-4" d="M285.77,225.6c2.72,0,4.87,2.37,4.54,5.08-1.53,12.23-8.49,22.77-18.4,29.12l-.14-.23c-12.03-12.03-31.51-12.03-43.54,0l-.14.23c-9.91-6.35-16.87-16.89-18.4-29.12-.33-2.71,1.82-5.08,4.54-5.08h71.54Z"/>
        <path class="cls-6" d="M276.6,277.21l.51,30.64c-8.18,5.85-17.78,8.77-27.4,8.77s-18.35-2.67-26.31-8.03l-.51-31.58h0c8.27,3.7,17.44,5.75,27.09,5.75,9.47,0,18.47-1.98,26.61-5.55Z"/>
        <path class="cls-7" d="M271.77,259.56l.14.23c-6.32,4.08-13.85,6.42-21.91,6.42s-15.59-2.35-21.91-6.42l.14-.23c12.02-12.02,31.51-12.02,43.54,0Z"/>
        <path class="cls-6" d="M183.56,170.42v48.52h-1.78c-6.8,0-12.95-2.76-17.41-7.21-4.45-4.45-7.21-10.6-7.21-17.4,0-13.6,11.01-24.62,24.62-24.62h1.78v.71h0Z"/>
      </g>
      <g>
        <path class="cls-3" d="M223.41,308.59c-24.55.51-41.95,5.8-56.05,15.01-30.69,20.05-43.09,91.2-43.09,91.2h129.46"/>
        <path class="cls-3" d="M253.72,414.8h122.02s-12.05-70.56-43.09-91.2c-14.03-9.33-30.98-15.24-55.53-15.76"/>
        <path class="cls-3" d="M316.44,216.32c0,27.23-16.39,50.64-39.84,60.89-8.14,3.58-17.14,5.55-26.6,5.55s-18.82-2.05-27.09-5.76c-7.46-3.33-14.19-8-19.89-13.71-12.03-12.03-19.46-28.63-19.46-46.98"/>
        <path class="cls-3" d="M183.56,169.71h-1.78c-13.6,0-24.62,11.01-24.62,24.62,0,6.8,2.76,12.95,7.21,17.4,4.46,4.45,10.62,7.21,17.41,7.21h1.78v-49.23h0Z"/>
        <path class="cls-3" d="M316.44,216.32v2.62h1.79c13.59,0,24.6-11.01,24.6-24.6,0-6.81-2.76-12.96-7.21-17.41-4.45-4.45-10.6-7.21-17.4-7.21h-1.79v46.6h0Z"/>
        <g>
          <path class="cls-2" d="M316.44,138.98v30.73c-57.11-.72-89.75-19.16-89.75-19.16,0,25.54-43.13,19.16-43.13,19.16v-30.72h0c0-5.21,1.37-10.1,3.77-14.33,5-8.86,14.5-14.85,25.41-14.85,1.54,0,3.03.15,4.5.38,9.54-15.02,26.31-24.99,45.41-24.99,24.75,0,45.58,16.71,51.85,39.45,1.27,4.56,1.94,9.37,1.94,14.33Z"/>
          <g>
            <line class="cls-3" x1="316.44" y1="138.98" x2="316.44" y2="169.71"/>
            <path class="cls-3" d="M183.56,138.99v30.72s43.13,6.38,43.13-19.16c0,0,32.64,18.44,89.75,19.16"/>
            <path class="cls-3" d="M316.44,138.98c0-4.96-.67-9.77-1.94-14.33-6.27-22.74-27.1-39.45-51.85-39.45-19.1,0-35.87,9.97-45.41,24.99-1.47-.23-2.96-.38-4.5-.38-10.91,0-20.41,5.99-25.41,14.85-2.4,4.23-3.77,9.12-3.77,14.32h0"/>
          </g>
        </g>
        <path class="cls-3" d="M276.6,277.17v.04l.51,30.64c-8.18,5.85-17.78,8.77-27.4,8.77s-18.35-2.67-26.31-8.03l-.51-31.58"/>
        <line class="cls-3" x1="183.56" y1="389.89" x2="183.56" y2="414.8"/>
        <line class="cls-3" x1="316.71" y1="389.62" x2="316.71" y2="414.53"/>
        <path class="cls-3" d="M210.89,196.94c5.06-5.06,13.27-5.06,18.33,0"/>
        <path class="cls-3" d="M270.77,196.94c5.06-5.06,13.27-5.06,18.33,0"/>
        <path class="cls-3" d="M271.91,259.79c9.91-6.35,16.87-16.89,18.4-29.12.33-2.71-1.82-5.08-4.54-5.08h-71.54c-2.72,0-4.87,2.37-4.54,5.08,1.53,12.23,8.49,22.77,18.4,29.12,6.32,4.08,13.85,6.42,21.91,6.42,8.06,0,15.59-2.34,21.91-6.42Z"/>
        <path class="cls-3" d="M228.23,259.56c12.03-12.03,31.51-12.03,43.54,0"/>
      </g>
    </g>
  </g>
</svg>