<?xml version="1.0" encoding="UTF-8"?>
<svg id="Layer_1" data-name="Layer 1" xmlns="http://www.w3.org/2000/svg" version="1.1" viewBox="0 0 500 500">
  <defs>
    <style>
      .cls-1 {
        fill: none;
      }

      .cls-1, .cls-2 {
        stroke-linecap: round;
        stroke-width: 5px;
      }

      .cls-1, .cls-2, .cls-3, .cls-4, .cls-5, .cls-6 {
        stroke: #231f20;
        stroke-miterlimit: 10;
      }

      .cls-2, .cls-3 {
        fill: #042c33;
      }

      .cls-4 {
        fill: #34aabb;
      }

      .cls-5 {
        fill: #9bd3dd;
      }

      .cls-6 {
        fill: #086977;
      }

      .cls-7 {
        fill: #0096aa;
        stroke-width: 0px;
      }
    </style>
  </defs>
  <g id="Layer_2" data-name="Layer 2">
    <rect class="cls-7" x=".4" y=".5" width="500" height="500"/>
  </g>
  <g id="Layer_1-2" data-name="Layer 1">
    <g>
      <g>
        <path class="cls-3" d="M183.4,216.6c0,27.3,16.3,50.7,39.7,61.2h0s.5,31.9.5,31.9c-16,.3-29,2.7-40.1,6.8v-.3c-.1,0-.1-99.6-.1-99.6h0Z"/>
        <path class="cls-3" d="M317.4,216.6v99.6c-10.9-4.3-23.7-7-39.7-7.3l-.5-30.9c7.7-3.4,14.7-8.2,20.6-14,12.1-12.1,19.6-28.9,19.6-47.4h0Z"/>
        <path class="cls-3" d="M278.6,237.2c9.7,9.2,5.4,24.6-6,28.7l-.3-.8c-12.1-12.1-31.8-12.1-43.9,0l-.3.8c-11.3-4.1-15.7-19.5-6-28.7,7.3-7,17.3-11.2,28.2-11.2s20.9,4.3,28.2,11.2h0Z"/>
        <path class="cls-5" d="M273.9,150.3c0,25.8,43.5,19.3,43.5,19.3v47c0,18.5-7.5,35.2-19.6,47.4-5.9,5.9-12.8,10.7-20.6,14-8.2,3.6-17.3,5.6-26.8,5.6s-19-2.1-27.3-5.8c-23.4-10.5-39.7-33.9-39.7-61.2v-47c57.6-.7,90.5-19.3,90.5-19.3h0ZM272.7,265.9c11.3-4.1,15.7-19.5,6-28.7-7.3-7-17.3-11.2-28.2-11.2s-20.9,4.3-28.2,11.2c-9.7,9.2-5.4,24.6,6,28.7,1.8.7,3.8,1,6,1h32.5c2.2,0,4.2-.4,6-1Z"/>
        <path class="cls-4" d="M272.4,265.1l.3.8c-1.8.7-3.8,1-6,1h-32.5c-2.1,0-4.1-.4-6-1l.3-.8c12.1-12.1,31.8-12.1,43.9,0h0Z"/>
        <path class="cls-6" d="M183.4,416.8h-59.8s12.5-71.8,43.5-92c5-3.3,10.4-6.1,16.4-8.3,11-4.1,24-6.5,40.1-6.8,8,5.4,17.3,8.1,26.6,8.1s19.4-3,27.6-8.8c16,.3,28.8,3,39.7,7.3,6,2.4,11.3,5.3,16.3,8.6,31.3,20.8,43.5,92,43.5,92h-193.8,0Z"/>
        <path class="cls-5" d="M336.8,176.9c4.5,4.5,7.3,10.7,7.3,17.6,0,13.7-11.1,24.8-24.8,24.8h-1.8v-49.6h1.8c6.9,0,13.1,2.8,17.6,7.3Z"/>
        <path class="cls-5" d="M277.2,278l.5,30.9c-8.2,5.9-17.9,8.8-27.6,8.8s-18.5-2.7-26.6-8.1l-.5-31.8h0c8.4,3.7,17.6,5.8,27.4,5.8,9.5,0,18.6-2,26.8-5.6h0Z"/>
        <path class="cls-5" d="M183.4,170.3v48.9h-1.8c-6.9,0-13.1-2.8-17.6-7.3s-7.3-10.7-7.3-17.6c0-13.7,11.1-24.8,24.8-24.8h1.8v.7h0Z"/>
      </g>
      <g>
        <path class="cls-1" d="M223.6,309.6c-16,.3-29,2.7-40.1,6.8-6,2.2-11.4,5-16.4,8.3-31,20.2-43.5,92-43.5,92h130.6"/>
        <path class="cls-1" d="M254.2,416.8h123.1s-12.1-71.2-43.5-92c-5-3.3-10.4-6.2-16.3-8.6-10.9-4.3-23.7-7-39.7-7.3"/>
        <path class="cls-1" d="M183.4,216.6c0,27.3,16.3,50.7,39.7,61.2,8.4,3.7,17.6,5.8,27.3,5.8s18.6-2,26.8-5.6c7.7-3.4,14.7-8.2,20.6-14,12.1-12.1,19.6-28.9,19.6-47.4"/>
        <path class="cls-2" d="M183.4,169.6c57.6-.7,90.5-19.3,90.5-19.3,0,25.8,43.5,19.3,43.5,19.3v-33.4c0-4.2-.6-8.2-1.8-12.1-7-22.8-33.5-39.8-65.2-39.8s-58.2,17-65.2,39.8c-1.2,3.9-1.8,7.9-1.8,12.1v33.4"/>
        <path class="cls-1" d="M183.4,169.6h-1.8c-13.7,0-24.8,11.1-24.8,24.8s2.8,13.1,7.3,17.6,10.7,7.3,17.6,7.3h1.8v-49.7h0Z"/>
        <path class="cls-1" d="M317.4,219.2h1.8c13.7,0,24.8-11.1,24.8-24.8s-2.8-13.1-7.3-17.6c-4.5-4.5-10.7-7.3-17.6-7.3h-1.8v49.6Z"/>
        <path class="cls-1" d="M277.2,277.9h0s.5,30.9.5,30.9c-8.2,5.9-17.9,8.8-27.6,8.8s-18.5-2.7-26.6-8.1l-.5-31.8"/>
        <line class="cls-1" x1="183.4" y1="391.6" x2="183.4" y2="416.8"/>
        <line class="cls-1" x1="317.7" y1="391.4" x2="317.7" y2="416.5"/>
        <path class="cls-1" d="M228.2,265.9c1.8.7,3.8,1,6,1h32.5c2.2,0,4.2-.4,6-1,11.3-4.1,15.7-19.5,6-28.7-7.3-7-17.3-11.2-28.2-11.2s-20.9,4.3-28.2,11.2c-9.7,9.2-5.4,24.6,6,28.7h0Z"/>
        <path class="cls-1" d="M228.5,265.1c12.1-12.1,31.8-12.1,43.9,0"/>
        <line class="cls-1" x1="317.4" y1="219.2" x2="317.4" y2="316.2"/>
        <line class="cls-1" x1="183.4" y1="219.2" x2="183.4" y2="316.2"/>
        <polyline class="cls-1" points="295.8 185.9 270 199.8 279.6 207.5"/>
        <polyline class="cls-1" points="205.1 185.9 230.8 199.8 221.3 207.5"/>
      </g>
    </g>
  </g>
</svg>