<?xml version="1.0" encoding="UTF-8"?>
<svg xmlns="http://www.w3.org/2000/svg" viewBox="0 0 500 500">
  <defs>
    <style>
      .cls-1 {
        fill: #a1cbe5;
      }

      .cls-1, .cls-2, .cls-3, .cls-4, .cls-5 {
        stroke-width: 0px;
      }

      .cls-2 {
        fill: #3579a3;
      }

      .cls-3 {
        fill: #4197cb;
      }

      .cls-4 {
        fill: #231f20;
      }

      .cls-5 {
        fill: #275b7a;
      }
    </style>
  </defs>
  <g id="Layer_2" data-name="Layer 2">
    <rect class="cls-3" width="500" height="500"/>
  </g>
  <g id="Layer_1" data-name="Layer 1">
    <g>
      <g>
        <g>
          <g>
            <circle class="cls-1" cx="387.33" cy="173.29" r="35.68"/>
            <path class="cls-4" d="M387.33,211.77c-21.22,0-38.47-17.26-38.47-38.47s17.26-38.47,38.47-38.47,38.47,17.26,38.47,38.47-17.26,38.47-38.47,38.47ZM387.33,140.41c-18.13,0-32.89,14.75-32.89,32.89s14.75,32.89,32.89,32.89,32.89-14.75,32.89-32.89-14.75-32.89-32.89-32.89Z"/>
          </g>
          <circle class="cls-4" cx="373.87" cy="164.51" r="4.11"/>
          <circle class="cls-4" cx="400.8" cy="164.51" r="4.11"/>
          <path class="cls-4" d="M387.33,195c-7.08,0-14.16-2.69-19.55-8.08-1.09-1.09-1.09-2.86,0-3.95s2.86-1.09,3.95,0c8.6,8.6,22.6,8.6,31.2,0,1.09-1.09,2.86-1.09,3.95,0s1.09,2.86,0,3.95c-5.39,5.39-12.47,8.08-19.55,8.08Z"/>
        </g>
        <g>
          <g>
            <circle class="cls-2" cx="126.17" cy="175.94" r="51.81"/>
            <path class="cls-4" d="M126.17,230.55c-30.11,0-54.6-24.49-54.6-54.6s24.49-54.6,54.6-54.6,54.6,24.49,54.6,54.6-24.49,54.6-54.6,54.6ZM126.17,126.93c-27.03,0-49.01,21.99-49.01,49.02s21.99,49.01,49.01,49.01,49.02-21.99,49.02-49.01-21.99-49.02-49.02-49.02Z"/>
          </g>
          <circle class="cls-4" cx="106.61" cy="163.19" r="5.97"/>
          <circle class="cls-4" cx="145.72" cy="163.19" r="5.97"/>
          <path class="cls-4" d="M145.46,195.66c-.71,0-1.43-.27-1.98-.82-9.55-9.55-25.09-9.55-34.64,0-1.09,1.09-2.86,1.09-3.95,0s-1.09-2.86,0-3.95c11.73-11.73,30.81-11.73,42.54,0,1.09,1.09,1.09,2.86,0,3.95-.55.55-1.26.82-1.98.82Z"/>
        </g>
        <g>
          <g>
            <circle class="cls-1" cx="199.47" cy="290.43" r="68.05"/>
            <path class="cls-4" d="M199.47,361.27c-39.07,0-70.85-31.78-70.85-70.85s31.78-70.85,70.85-70.85,70.85,31.78,70.85,70.85-31.78,70.85-70.85,70.85ZM199.47,225.16c-35.98,0-65.26,29.28-65.26,65.26s29.28,65.26,65.26,65.26,65.26-29.28,65.26-65.26-29.28-65.26-65.26-65.26Z"/>
          </g>
          <path class="cls-4" d="M239.1,271.52c-.71,0-1.43-.27-1.98-.82-6.6-6.6-17.35-6.6-23.95,0-1.09,1.09-2.86,1.09-3.95,0s-1.09-2.86,0-3.95c8.78-8.78,23.07-8.78,31.85,0,1.09,1.09,1.09,2.86,0,3.95-.55.55-1.26.82-1.98.82Z"/>
          <path class="cls-4" d="M188.07,271.52c-.71,0-1.43-.27-1.98-.82-6.6-6.6-17.35-6.6-23.95,0-1.09,1.09-2.86,1.09-3.95,0s-1.09-2.86,0-3.95c8.78-8.78,23.07-8.78,31.85,0,1.09,1.09,1.09,2.86,0,3.95-.55.55-1.26.82-1.98.82Z"/>
          <g>
            <path class="cls-5" d="M158.02,291.92c0,22.89,18.56,41.45,41.45,41.45s41.45-18.56,41.45-41.45h-82.89Z"/>
            <path class="cls-4" d="M199.47,336.16c-24.39,0-44.24-19.85-44.24-44.24v-2.79h88.48v2.79c0,24.39-19.85,44.24-44.24,44.24ZM160.92,294.72c1.44,20.01,18.18,35.86,38.55,35.86s37.12-15.84,38.55-35.86h-77.11Z"/>
          </g>
        </g>
        <g>
          <g>
            <circle class="cls-1" cx="305.05" cy="257.19" r="26.41"/>
            <path class="cls-4" d="M305.05,286.4c-16.1,0-29.21-13.1-29.21-29.21s13.1-29.21,29.21-29.21,29.21,13.1,29.21,29.21-13.1,29.21-29.21,29.21ZM305.05,233.57c-13.02,0-23.62,10.6-23.62,23.62s10.6,23.62,23.62,23.62,23.62-10.6,23.62-23.62-10.6-23.62-23.62-23.62Z"/>
          </g>
          <circle class="cls-4" cx="295.08" cy="250.68" r="3.04"/>
          <circle class="cls-4" cx="315.02" cy="250.68" r="3.04"/>
          <path class="cls-4" d="M314.88,268.61h-19.67c-1.54,0-2.79-1.25-2.79-2.79s1.25-2.79,2.79-2.79h19.67c1.54,0,2.79,1.25,2.79,2.79s-1.25,2.79-2.79,2.79Z"/>
        </g>
        <g>
          <g>
            <circle class="cls-2" cx="324.6" cy="350.76" r="51.81"/>
            <path class="cls-4" d="M324.6,405.36c-30.11,0-54.6-24.49-54.6-54.6s24.49-54.6,54.6-54.6,54.6,24.49,54.6,54.6-24.49,54.6-54.6,54.6ZM324.6,301.74c-27.03,0-49.01,21.99-49.01,49.02s21.99,49.01,49.01,49.01,49.02-21.99,49.02-49.01-21.99-49.02-49.02-49.02Z"/>
          </g>
          <g>
            <circle class="cls-5" cx="324.6" cy="366.71" r="16.92"/>
            <path class="cls-4" d="M324.6,386.42c-10.87,0-19.71-8.84-19.71-19.71s8.84-19.71,19.71-19.71,19.71,8.84,19.71,19.71-8.84,19.71-19.71,19.71ZM324.6,352.59c-7.79,0-14.12,6.34-14.12,14.13s6.34,14.12,14.12,14.12,14.13-6.34,14.13-14.12-6.34-14.13-14.13-14.13Z"/>
          </g>
        </g>
        <g>
          <g>
            <circle class="cls-2" cx="387.33" cy="264" r="38.31"/>
            <path class="cls-4" d="M387.33,305.11c-22.67,0-41.1-18.44-41.1-41.1s18.44-41.1,41.1-41.1,41.1,18.44,41.1,41.1-18.44,41.1-41.1,41.1ZM387.33,228.48c-19.58,0-35.52,15.93-35.52,35.52s15.93,35.52,35.52,35.52,35.52-15.93,35.52-35.52-15.93-35.52-35.52-35.52Z"/>
          </g>
          <path class="cls-4" d="M401.6,279.3c-.71,0-1.43-.27-1.98-.82-6.77-6.78-17.8-6.78-24.58,0-1.09,1.09-2.86,1.09-3.95,0s-1.09-2.86,0-3.95c8.96-8.96,23.53-8.96,32.49,0,1.09,1.09,1.09,2.86,0,3.95-.55.55-1.26.82-1.98.82Z"/>
          <path class="cls-4" d="M368.99,262.92c-.97,0-1.9-.5-2.42-1.4-.77-1.34-.31-3.04,1.02-3.82l5.44-3.14-5.44-3.14c-1.34-.77-1.79-2.48-1.02-3.82.77-1.34,2.48-1.8,3.82-1.02l13.83,7.98-13.83,7.98c-.44.25-.92.37-1.39.37Z"/>
          <path class="cls-4" d="M405.68,262.92c-.47,0-.95-.12-1.39-.37l-13.82-7.98,13.82-7.98c1.34-.77,3.04-.31,3.82,1.02.77,1.34.31,3.04-1.02,3.82l-5.44,3.14,5.44,3.14c1.34.77,1.79,2.48,1.02,3.82-.52.9-1.46,1.4-2.42,1.4Z"/>
        </g>
        <g>
          <g>
            <circle class="cls-1" cx="240.91" cy="395.22" r="29.06"/>
            <path class="cls-4" d="M240.91,427.07c-17.56,0-31.85-14.29-31.85-31.85s14.29-31.85,31.85-31.85,31.85,14.29,31.85,31.85-14.29,31.85-31.85,31.85ZM240.91,368.96c-14.48,0-26.26,11.78-26.26,26.26s11.78,26.26,26.26,26.26,26.26-11.78,26.26-26.26-11.78-26.26-26.26-26.26Z"/>
          </g>
          <path class="cls-4" d="M230.09,391.21c-2.87,0-5.74-1.09-7.93-3.28-1.09-1.09-1.09-2.86,0-3.95,1.09-1.09,2.86-1.09,3.95,0,2.2,2.2,5.77,2.19,7.96,0,1.09-1.09,2.86-1.09,3.95,0s1.09,2.86,0,3.95c-2.19,2.19-5.06,3.28-7.93,3.28Z"/>
          <path class="cls-4" d="M251.88,391.21c-2.87,0-5.74-1.09-7.93-3.28-1.09-1.09-1.09-2.86,0-3.95,1.09-1.09,2.86-1.09,3.95,0,2.2,2.2,5.77,2.19,7.96,0,1.09-1.09,2.86-1.09,3.95,0s1.09,2.86,0,3.95c-2.19,2.19-5.06,3.28-7.93,3.28Z"/>
          <path class="cls-4" d="M240.91,405.98c-5.9,0-11.8-2.25-16.29-6.74-1.09-1.09-1.09-2.86,0-3.95s2.86-1.09,3.95,0c6.8,6.8,17.87,6.8,24.67,0,1.09-1.09,2.86-1.09,3.95,0s1.09,2.86,0,3.95c-4.49,4.49-10.39,6.74-16.29,6.74Z"/>
        </g>
        <g>
          <g>
            <g>
              <circle class="cls-2" cx="264.81" cy="149.09" r="73.37"/>
              <path class="cls-4" d="M264.81,225.26c-42,0-76.16-34.17-76.16-76.16s34.17-76.16,76.16-76.16,76.16,34.17,76.16,76.16-34.17,76.16-76.16,76.16ZM264.81,78.52c-38.91,0-70.57,31.66-70.57,70.58s31.66,70.58,70.57,70.58,70.58-31.66,70.58-70.58-31.66-70.58-70.58-70.58Z"/>
            </g>
            <circle class="cls-4" cx="237.13" cy="131.03" r="8.45"/>
            <circle class="cls-4" cx="292.5" cy="131.03" r="8.45"/>
            <g>
              <circle class="cls-5" cx="264.81" cy="173.05" r="23.96"/>
              <path class="cls-4" d="M264.81,199.8c-14.75,0-26.75-12-26.75-26.75s12-26.75,26.75-26.75,26.75,12,26.75,26.75-12,26.75-26.75,26.75ZM264.81,151.88c-11.67,0-21.16,9.5-21.16,21.16s9.5,21.17,21.16,21.17,21.17-9.5,21.17-21.17-9.5-21.16-21.17-21.16Z"/>
            </g>
          </g>
          <path class="cls-4" d="M254.86,128.25c-.69,0-1.38-.25-1.92-.76l-19.46-18.38c-1.12-1.06-1.17-2.83-.11-3.95,1.06-1.12,2.83-1.17,3.95-.11l19.46,18.38c1.12,1.06,1.17,2.83.11,3.95-.55.58-1.29.87-2.03.87Z"/>
          <path class="cls-4" d="M274.77,128.25c-.74,0-1.48-.29-2.03-.87-1.06-1.12-1.01-2.89.11-3.95l19.46-18.38c1.12-1.06,2.89-1.01,3.95.11,1.06,1.12,1.01,2.89-.11,3.95l-19.46,18.38c-.54.51-1.23.76-1.92.76Z"/>
        </g>
      </g>
      <g>
        <circle class="cls-4" cx="305.05" cy="333.37" r="5.97"/>
        <circle class="cls-4" cx="344.15" cy="333.37" r="5.97"/>
      </g>
    </g>
  </g>
</svg>