<?xml version="1.0" encoding="UTF-8"?>
<svg xmlns="http://www.w3.org/2000/svg" viewBox="0 0 500 500">
  <defs>
    <style>
      .cls-1 {
        fill: none;
      }

      .cls-1, .cls-2, .cls-3 {
        stroke: #231f20;
        stroke-linecap: round;
        stroke-width: 5px;
      }

      .cls-1, .cls-3 {
        stroke-miterlimit: 10;
      }

      .cls-2 {
        stroke-linejoin: round;
      }

      .cls-2, .cls-3 {
        fill: #f0eff4;
      }

      .cls-4 {
        fill: #c0bed7;
      }

      .cls-4, .cls-5, .cls-6, .cls-7, .cls-8 {
        stroke-width: 0px;
      }

      .cls-5 {
        fill: #231f20;
      }

      .cls-6 {
        fill: #625d9c;
      }

      .cls-7 {
        fill: #322f4e;
      }

      .cls-8 {
        fill: #817db0;
      }
    </style>
  </defs>
  <g id="Layer_2" data-name="Layer 2">
    <rect class="cls-6" x="0" width="500" height="500"/>
  </g>
  <g id="Layer_1" data-name="Layer 1">
    <g>
      <g>
        <g>
          <path class="cls-8" d="M179.32,422.01h-63.09s13.19-75.69,45.83-97.02c15.02-9.81,33.51-15.43,59.63-15.97,8.47,5.7,18.24,8.54,28,8.54s20.43-3.11,29.14-9.33c26.12.55,44.15,6.83,59.09,16.76,33.02,21.96,45.83,97.02,45.83,97.02h-204.44Z"/>
          <path class="cls-7" d="M320.69,148.67l14.68,141.8h-56.82l-.25-14.83c24.96-10.91,42.39-35.81,42.39-64.79v-62.19Z"/>
          <path class="cls-4" d="M278.29,275.64c-8.66,3.79-18.24,5.89-28.29,5.89s-20.02-2.2-28.84-6.14c-7.92-3.53-15.09-8.51-21.14-14.57-12.79-12.79-20.71-30.46-20.71-49.98v-55.31h24.1l8.8-13.6,8.93,13.6h99.53v55.31c0,28.99-17.43,53.88-42.39,64.79ZM290.3,189c0-4.26-3.45-7.71-7.72-7.71s-7.71,3.45-7.71,7.71,3.45,7.72,7.71,7.72,7.72-3.45,7.72-7.72ZM225.17,189c0-4.26-3.45-7.71-7.71-7.71s-7.71,3.45-7.71,7.71,3.45,7.72,7.71,7.72,7.71-3.45,7.71-7.72Z"/>
          <path class="cls-7" d="M320.69,155.54h-99.53l-8.93-13.6-8.8,13.6h-24.1c0-45.91,31.65-77.56,70.68-77.56s70.68,31.65,70.68,77.56Z"/>
          <path class="cls-5" d="M282.58,181.29c4.27,0,7.72,3.45,7.72,7.71s-3.45,7.72-7.72,7.72-7.71-3.45-7.71-7.72,3.45-7.71,7.71-7.71Z"/>
          <path class="cls-4" d="M278.54,290.47l.3,17.76c-8.7,6.22-18.92,9.33-29.14,9.33s-19.53-2.84-28-8.54l-.3-18.55-.25-15.03v-.04c8.83,3.94,18.58,6.14,28.85,6.14s19.63-2.1,28.29-5.89l.25,14.83Z"/>
          <path class="cls-5" d="M217.46,181.29c4.26,0,7.71,3.45,7.71,7.71s-3.45,7.72-7.71,7.72-7.71-3.45-7.71-7.72,3.45-7.71,7.71-7.71Z"/>
          <path class="cls-7" d="M221.16,275.44l.25,15.03h-56.63l14.55-141.8v62.19c0,19.52,7.91,37.18,20.71,49.98,6.06,6.06,13.22,11.03,21.14,14.57v.04Z"/>
        </g>
        <g>
          <path class="cls-1" d="M221.7,309.02c-26.12.55-44.62,6.17-59.63,15.97-32.64,21.33-45.83,97.02-45.83,97.02h137.72"/>
          <path class="cls-1" d="M253.96,422.01h129.8s-12.81-75.06-45.83-97.02c-14.94-9.93-32.97-16.22-59.09-16.76"/>
          <path class="cls-1" d="M320.69,148.67v62.19c0,28.99-17.43,53.88-42.39,64.79-8.66,3.79-18.24,5.89-28.29,5.89s-20.02-2.2-28.84-6.14c-7.92-3.53-15.09-8.51-21.14-14.57-12.79-12.79-20.71-30.46-20.71-49.98v-62.19"/>
          <path class="cls-1" d="M278.29,275.59v.05l.25,14.83.3,17.76c-8.7,6.22-18.92,9.33-29.14,9.33s-19.53-2.84-28-8.54l-.3-18.55-.25-15.03"/>
          <line class="cls-1" x1="179.32" y1="395.53" x2="179.32" y2="422.01"/>
          <line class="cls-1" x1="320.97" y1="395.23" x2="320.97" y2="421.73"/>
          <path class="cls-1" d="M179.32,155.54h24.1l8.8-13.6,8.93,13.6h99.53c0-45.91-31.65-77.56-70.68-77.56s-70.68,31.65-70.68,77.56Z"/>
          <polyline class="cls-1" points="320.69 148.67 335.36 290.47 278.84 290.47"/>
          <polyline class="cls-1" points="179.32 148.67 164.77 290.47 221.29 290.47"/>
        </g>
      </g>
      <rect class="cls-2" x="219.37" y="222.7" width="61.25" height="26.9" rx="13.45" ry="13.45"/>
      <line class="cls-1" x1="219.37" y1="236.15" x2="280.63" y2="236.15"/>
      <path class="cls-3" d="M311.96,153.78c0,8.11-6.58,14.69-14.69,14.69s-14.69-6.58-14.69-14.69,14.69-24.92,14.69-24.92c0,0,14.69,16.81,14.69,24.92Z"/>
    </g>
  </g>
</svg>