<?xml version="1.0" encoding="UTF-8"?>
<svg id="Layer_1" data-name="Layer 1" xmlns="http://www.w3.org/2000/svg" version="1.1" viewBox="0 0 500 500">
  <defs>
    <style>
      .cls-1 {
        fill: none;
        stroke: #231f20;
        stroke-linecap: round;
        stroke-miterlimit: 10;
        stroke-width: 5px;
      }

      .cls-2 {
        fill: #625d9c;
      }

      .cls-2, .cls-3, .cls-4, .cls-5, .cls-6 {
        stroke-width: 0px;
      }

      .cls-3 {
        fill: #27253d;
      }

      .cls-4 {
        fill: #46416e;
      }

      .cls-5 {
        fill: #d2cfe1;
      }

      .cls-6 {
        fill: #231f20;
      }
    </style>
  </defs>
  <g id="Layer_2" data-name="Layer 2">
    <rect class="cls-2" width="500" height="500"/>
  </g>
  <g>
    <g>
      <path class="cls-5" d="M322.5,172.3c7.2,0,13.8,2.9,18.5,7.7h0c4.7,4.7,7.7,11.3,7.7,18.5s-2.9,13.8-7.7,18.5c4.7-4.7,7.7-11.3,7.7-18.5s-2.9-13.8-7.7-18.5-11.3-7.7-18.5-7.7h-1.9s1.9,0,1.9,0Z"/>
      <path class="cls-5" d="M341,216.9c-4.7,4.7-11.3,7.7-18.5,7.7h-1.9v-52.3h1.9c7.2,0,13.8,2.9,18.5,7.7s7.7,11.3,7.7,18.5-2.9,13.8-7.7,18.5Z"/>
      <path class="cls-5" d="M320.6,172.3v49.5c0,.4,0,.9,0,1.3v-50.9h0Z"/>
      <path class="cls-3" d="M320.6,124.4v47.9c-1.9,0-3.8,0-5.6-.1-.9,0-1.8,0-2.8-.1-6.4-.3-12.4-.7-18.2-1.4-44.2-4.8-68.9-18.8-68.9-18.8h0c0,5.7-2,9.8-5.1,12.9-12,11.7-40.7,7.4-40.7,7.4v-47.9c0-17.1,13.9-31,31-31s3.2.2,4.8.4c10.1-16,28-26.6,48.3-26.6,31.6,0,57.2,25.6,57.2,57.2Z"/>
      <path class="cls-6" d="M290.3,200c0,2.1-.9,4.1-2.3,5.5s-.4.3-.5.5c-.2.1-.4.3-.6.4-.1,0-.2.1-.3.2-1.2.7-2.5,1.1-4,1.1-3,0-5.7-1.8-6.9-4.4-.5-1-.8-2.1-.8-3.4,0-2.1.9-4,2.3-5.4s3.3-2.3,5.4-2.3,2.8.4,4,1.1c.1,0,.2.1.3.2.2.1.4.3.6.4.2.2.4.3.5.5,1.4,1.4,2.3,3.3,2.3,5.4Z"/>
      <path class="cls-6" d="M287.5,194c.2.2.4.3.5.5-.2-.2-.4-.3-.5-.5Z"/>
      <path class="cls-6" d="M286.9,193.6c.2.1.4.3.6.4-.2-.1-.4-.3-.6-.4Z"/>
      <path class="cls-6" d="M282.6,192.3c1.5,0,2.8.4,4,1.1-1.2-.7-2.5-1.1-4-1.1-2.1,0-4,.9-5.4,2.3,1.4-1.4,3.3-2.3,5.4-2.3Z"/>
      <path class="cls-5" d="M320.6,222.5v.7h0c-.5,28.4-17.8,52.7-42.4,63.4h0c24.7-10.8,42.1-35.4,42.4-64.1Z"/>
      <path class="cls-5" d="M277.2,320.2c-7.8,5.1-16.7,7.8-25.6,8.2,8.6-.3,17.8-3.1,25.6-8.2Z"/>
      <path class="cls-5" d="M225,321.9c7.1,4,15,6.2,22.9,6.5-8.2-.3-15.8-2.4-22.9-6.5Z"/>
      <path class="cls-5" d="M250,292.4c10.1,0,19.6-2.1,28.3-5.9h0c-1.1.5-2.2.9-3.3,1.3s-2.2.8-3.4,1.2c-5.1,1.6-10.5,2.7-16,3.1-1.8.2-3.7.2-5.6.2s-2.6,0-3.8-.1c-3.8-.2-7.5-.7-11.1-1.5,4.8,1,9.9,1.6,14.9,1.6Z"/>
      <path class="cls-5" d="M249.7,328.4c-9.6,0-18.3-2.5-26.4-7.5.3.2.5.3.8.5.3.2.5.3.8.5,7.1,4.1,14.7,6.2,22.9,6.5.6,0,1.3,0,1.9,0s1.2,0,1.8,0c8.9-.3,17.8-3,25.6-8.2.6-.4,1.1-.7,1.6-1.1h0c-8.7,6.2-18.9,9.3-29.1,9.3Z"/>
      <path class="cls-5" d="M228,288.9c2.3.8,4.7,1.4,7.1,1.9-2.4-.5-4.8-1.2-7.1-1.9Z"/>
      <path class="cls-6" d="M225.2,200c0,2.1-.9,4.1-2.3,5.5s-.4.3-.6.5c-.2.1-.4.3-.6.4,0,0-.2.1-.3.2-1.2.7-2.5,1.1-4,1.1-3.1,0-5.7-1.8-6.9-4.4-.5-1-.8-2.1-.8-3.4,0-2.1.9-4,2.3-5.4,1.4-1.4,3.3-2.3,5.4-2.3s2.8.4,4,1.1c.1,0,.2.1.3.2.2.1.4.3.6.4.2.2.4.3.6.5,1.4,1.4,2.3,3.3,2.3,5.4Z"/>
      <path class="cls-5" d="M224.5,287.7h0s0,0,0,0h0Z"/>
      <path class="cls-5" d="M224.1,321.4c-.3-.1-.5-.3-.8-.5h0c.3.1.5.3.8.5Z"/>
      <path class="cls-5" d="M223.3,320.9h0s0,0,0,0Z"/>
      <path class="cls-5" d="M221.7,319.9c.5.4,1,.7,1.6,1-.5-.3-1.1-.7-1.6-1h0Z"/>
      <path class="cls-5" d="M222.8,287s0,0,0,0h0Z"/>
      <path class="cls-6" d="M222.4,194c.2.2.4.3.6.5-.2-.2-.4-.3-.6-.5Z"/>
      <path class="cls-6" d="M221.8,193.6c.2.1.4.3.6.4-.2-.1-.4-.3-.6-.4Z"/>
      <polygon class="cls-5" points="221.2 286.3 221.2 286.3 221.2 286.3 221.2 286.3"/>
      <path class="cls-5" d="M221.2,286.3c.5.2,1.1.5,1.6.7h0c.6.2,1.1.5,1.7.7,0,0,0,0,0,0,6.8,2.6,14.1,4.2,21.6,4.6,1.3,0,2.5.1,3.8.1,1.9,0,3.8,0,5.6-.2,5.6-.4,10.9-1.5,16-3.1,1.1-.4,2.2-.8,3.4-1.2s2.2-.9,3.3-1.3l.5,32.6h0c-.5.4-1.1.8-1.6,1.1-7.8,5.1-17,7.8-25.6,8.2-.6,0-1.2,0-1.8,0s-1.3,0-1.9,0c-7.9-.3-15.8-2.5-22.9-6.5-.3-.1-.5-.3-.8-.5-.3-.1-.5-.3-.8-.5,0,0,0,0,0,0-.5-.3-1.1-.7-1.6-1l-.6-33.5h0s0,0,0,0Z"/>
      <path class="cls-6" d="M217.5,192.3c1.5,0,2.8.4,4,1.1-1.2-.7-2.5-1.1-4-1.1-2.1,0-4.1.9-5.4,2.3,1.4-1.4,3.3-2.3,5.4-2.3Z"/>
      <path class="cls-5" d="M179.4,172.3s28.8,4.3,40.7-7.4c3.1-3.1,5.1-7.3,5.1-12.9,0,0,24.7,14,68.9,18.8,5.7.6,11.8,1.1,18.2,1.4.9,0,1.8,0,2.8.1,1.8,0,3.7.1,5.6.1v50.2c-.3,28.7-17.6,53.2-42.4,64.1h0c-8.6,3.8-18.2,5.9-28.3,5.9s-10-.5-14.9-1.6c-2.4-.5-4.8-1.2-7.1-1.9s-2.3-.8-3.4-1.2h0c-.6-.2-1.1-.5-1.7-.7,0,0,0,0,0,0-.6-.2-1.1-.5-1.6-.7h0c-7.9-3.5-15.1-8.5-21.1-14.6-2.4-2.4-4.6-5-6.7-7.7-.7-.9-1.3-1.8-2-2.8-.6-.9-1.3-1.9-1.8-2.9-2.4-3.9-4.4-8-5.9-12.3-.2-.5-.4-1.1-.6-1.6-2.4-7.1-3.7-14.7-3.7-22.6v-49.5ZM290.3,200c0-2.1-.9-4.1-2.3-5.4-.2-.2-.4-.3-.5-.5s-.4-.3-.6-.4c-.1,0-.2-.1-.3-.2-1.2-.7-2.5-1.1-4-1.1-2.1,0-4.1.9-5.4,2.3-1.4,1.4-2.3,3.3-2.3,5.4s.3,2.3.8,3.4c1.2,2.6,3.9,4.4,6.9,4.4s2.8-.4,4-1.1c.1,0,.2-.1.3-.2.2-.1.4-.3.6-.4s.4-.3.5-.5c1.4-1.4,2.3-3.3,2.3-5.5ZM225.2,200c0-2.1-.9-4.1-2.3-5.4-.2-.2-.4-.3-.6-.5s-.4-.3-.6-.4c0,0-.2-.1-.3-.2-1.2-.7-2.5-1.1-4-1.1-2.1,0-4.1.9-5.4,2.3-1.4,1.4-2.3,3.3-2.3,5.4s.3,2.3.8,3.4c1.2,2.6,3.9,4.4,6.9,4.4s2.8-.4,4-1.1c.1,0,.2-.1.3-.2.2-.1.4-.3.6-.4s.4-.3.6-.5c1.4-1.4,2.3-3.3,2.3-5.5Z"/>
      <path class="cls-5" d="M177.5,172.3h1.9v52.3h-1.9c-5.9,0-11.3-1.9-15.6-5.2-.7-.5-1.3-1-1.9-1.6-.3-.3-.6-.6-.9-.9-.3-.3-.6-.6-.9-.9-.8-.9-1.6-1.9-2.3-2.9-2.8-4.2-4.5-9.2-4.5-14.6s0-1,0-1.4c0-.9.1-1.7.3-2.5.2-1,.4-2,.6-2.9,0-.3.2-.6.3-.9.1-.4.3-.8.4-1.2.3-.8.6-1.6,1-2.3,1.3-2.7,3-5.1,5.1-7.2,1.8-1.8,3.8-3.3,6-4.5t0,0c1.1-.6,2.3-1.1,3.5-1.6,0,0,0,0,0,0,2.8-1,5.8-1.6,9-1.6Z"/>
      <path class="cls-5" d="M179.4,172.3h-1.9c-3.2,0-6.2.6-9,1.6,2.8-1,5.8-1.6,9-1.6h1.9Z"/>
      <path class="cls-5" d="M165,175.4c1.1-.6,2.3-1.1,3.5-1.6-1.2.4-2.4,1-3.5,1.6Z"/>
      <path class="cls-4" d="M337.9,335.9c33,21.9,45.8,96.9,45.8,96.9H116.4c0-.3.9-5.2,2.7-12.9.1-.4.2-.8.3-1.3v-.4c.2-.4.3-.8.4-1.1,0-.1,0-.2,0-.4.2-.6.3-1.3.5-2,0-.4.2-.8.3-1.2.1-.4.2-.8.3-1.2v-.5c.4-1,.7-2,.9-3,.2-.7.4-1.5.6-2.2.1-.5.3-1,.4-1.4.2-.7.4-1.4.6-2.1.3-1,.6-1.9.9-2.9,0-.3.2-.6.3-1,.2-.6.4-1.3.6-2,0-.3.2-.7.3-1,1.1-3.3,2.2-6.7,3.5-10.1.5-1.4,1-2.8,1.6-4.1.7-1.9,1.5-3.7,2.3-5.6.5-1.1.9-2.2,1.4-3.3.7-1.6,1.5-3.2,2.2-4.8,1.5-3.1,3.2-6.2,4.9-9.1,1-1.6,1.9-3.3,3-4.8,3.1-4.8,6.5-9.1,10.2-12.7,2.3-2.3,4.7-4.3,7.3-5.9,15-9.8,33.5-15.4,59.6-16h0c.5.4,1,.7,1.6,1h0c8,5,16.8,7.5,26.4,7.5s20.4-3.1,29.1-9.3h0c26.1.5,44.1,6.8,59,16.7Z"/>
      <path class="cls-5" d="M159,179.9c1.8-1.8,3.8-3.3,6-4.5-2.2,1.2-4.2,2.7-6,4.5Z"/>
    </g>
    <g>
      <path class="cls-1" d="M221.7,319.9c-26.1.6-44.6,6.2-59.6,16-2.6,1.7-5,3.7-7.3,5.9-3.7,3.6-7.1,7.9-10.2,12.7-1,1.6-2,3.2-3,4.8-1.7,2.9-3.4,6-4.9,9.1-.8,1.6-1.5,3.2-2.2,4.8-.5,1.1-1,2.2-1.4,3.3-.8,1.9-1.6,3.7-2.3,5.6-.5,1.4-1.1,2.8-1.6,4.1-1.3,3.4-2.4,6.8-3.5,10.1-.1.3-.2.7-.3,1-.2.7-.4,1.3-.6,2,0,.3-.2.6-.3,1-.3,1-.6,1.9-.9,2.9-.2.7-.4,1.4-.6,2.1-.1.5-.3,1-.4,1.4-.2.8-.4,1.5-.6,2.2-.3,1-.6,2-.8,3v.5c-.2.4-.3.8-.4,1.2-.1.4-.2.8-.3,1.2-.2.7-.3,1.3-.5,2,0,.1,0,.3,0,.4-.1.4-.2.8-.3,1.1v.4c-.2.4-.3.9-.4,1.3-1.8,7.6-2.7,12.6-2.7,12.9h0s137.6,0,137.6,0"/>
      <path class="cls-1" d="M254,432.8h129.7s-12.8-75-45.8-96.9c-14.9-9.9-32.9-16.2-59-16.8"/>
      <path class="cls-1" d="M320.6,222.5c-.3,28.7-17.6,53.2-42.4,64.1h0c-8.6,3.8-18.2,5.9-28.3,5.9s-10-.5-14.9-1.6c-2.4-.5-4.8-1.2-7.1-1.9s-2.3-.8-3.4-1.2h0c-.6-.2-1.1-.5-1.7-.7,0,0,0,0,0,0-.6-.2-1.1-.5-1.6-.7h0c-7.9-3.5-15.1-8.5-21.1-14.6-2.4-2.4-4.6-5-6.7-7.7-.7-.9-1.3-1.8-2-2.8-.6-.9-1.3-1.9-1.8-2.9-2.4-3.9-4.4-8-5.9-12.3-.2-.5-.4-1.1-.6-1.6-2.3-6.8-3.6-14.1-3.7-21.8,0-.3,0-.6,0-.9"/>
      <path class="cls-1" d="M179.4,172.3h-1.9c-3.2,0-6.2.6-9,1.6,0,0,0,0,0,0-1.2.4-2.4,1-3.5,1.6t0,0c-2.2,1.2-4.2,2.7-6,4.5-2.1,2.1-3.8,4.5-5.1,7.2-.4.8-.7,1.5-1,2.3-.1.4-.3.8-.4,1.2,0,.3-.2.6-.3.9-.3.9-.5,1.9-.6,2.9-.1.8-.2,1.7-.3,2.5,0,.5,0,1,0,1.4,0,5.4,1.6,10.5,4.5,14.6.7,1,1.5,2,2.3,2.9.3.3.6.6.9.9h0c.3.3.6.6.9.9.6.6,1.3,1.1,1.9,1.6,4.4,3.3,9.8,5.2,15.6,5.2h1.9v-52.3Z"/>
      <path class="cls-1" d="M320.6,222.5v.7h0v1.4h1.9c7.2,0,13.8-2.9,18.5-7.7,4.7-4.7,7.7-11.3,7.7-18.5s-2.9-13.8-7.7-18.5-11.3-7.7-18.5-7.7h-1.9v49.5"/>
      <line class="cls-1" x1="320.6" y1="222.5" x2="320.6" y2="221.8"/>
      <polyline class="cls-1" points="320.6 124.4 320.6 172.3 320.6 172.3"/>
      <path class="cls-1" d="M179.4,124.4v47.9s28.7,4.3,40.7-7.4c3.1-3.1,5.1-7.3,5.1-12.9h0s24.7,13.9,68.9,18.8c5.7.6,11.8,1.1,18.2,1.4.9,0,1.8,0,2.8.1,1.8,0,3.7,0,5.6.1h0"/>
      <path class="cls-1" d="M320.6,124.4c0-31.6-25.6-57.2-57.2-57.2s-38.1,10.6-48.3,26.6c-1.6-.2-3.2-.4-4.8-.4-17.1,0-31,13.9-31,31"/>
      <path class="cls-1" d="M278.3,286.5h0c0,0,.5,32.6.5,32.6h0c-.5.4-1.1.8-1.6,1.1-7.8,5.1-16.7,7.8-25.6,8.2-.6,0-1.2,0-1.8,0s-1.3,0-1.9,0c-8.2-.3-15.8-2.4-22.9-6.5-.3-.1-.5-.3-.8-.5-.3-.1-.5-.3-.8-.5,0,0,0,0,0,0-.5-.3-1.1-.7-1.6-1l-.6-33.5"/>
      <line class="cls-1" x1="179.4" y1="406.3" x2="179.4" y2="432.8"/>
      <line class="cls-1" x1="320.9" y1="406" x2="320.9" y2="432.5"/>
      <path class="cls-1" d="M278.7,239c-15.8,15.8-41.5,15.8-57.4,0"/>
    </g>
  </g>
</svg>