<?xml version="1.0" encoding="UTF-8"?>
<svg id="Layer_2" data-name="Layer 2" xmlns="http://www.w3.org/2000/svg" version="1.1" viewBox="0 0 500 500">
  <defs>
    <style>
      .cls-1 {
        fill: none;
        stroke: #231f20;
        stroke-linecap: round;
        stroke-miterlimit: 10;
        stroke-width: 5px;
      }

      .cls-2 {
        fill: #9ed8d5;
      }

      .cls-2, .cls-3, .cls-4, .cls-5 {
        stroke-width: 0px;
      }

      .cls-3 {
        fill: #00ab9b;
      }

      .cls-4 {
        fill: #00695d;
      }

      .cls-5 {
        fill: #078b7c;
      }
    </style>
  </defs>
  <rect class="cls-3" width="500" height="500"/>
  <g>
    <g>
      <path class="cls-2" d="M287.1,231.9h0s-17.8-10.5-17.8-10.5l-18.6,10.5c-.2.3-.4.6-.6.9-.2-.3-.4-.6-.6-.9l-17.6-10.1-18.9,10.1c-2.7,3.7-4.3,8.3-4.3,13.3,0,10.9,9.7,21.9,19.8,30.3,10.7,9,21.7,15.1,21.7,15.1,0,0,11.7-6.4,22.7-15.8,9.7-8.3,18.8-18.9,18.8-29.6,0-5-1.7-9.6-4.4-13.3Z"/>
      <path class="cls-5" d="M382.6,231.9c.8,5.9,1.2,12,1.2,18.1s-.4,12.2-1.2,18.1h-70.3c1.7-5.8,2.5-11.8,2.5-18.1s-.9-12.4-2.5-18.1h70.3Z"/>
      <path class="cls-4" d="M117.4,231.9c-.8,5.9-1.2,12-1.2,18.1s.4,12.2,1.2,18.1c8,59.4,55,106.4,114.3,114.5,6,.8,12.1,1.2,18.3,1.2s12.3-.4,18.3-1.2c59.4-8.1,106.3-55.1,114.4-114.5.8-5.9,1.2-12,1.2-18.1s-.4-12.2-1.2-18.1c-8.8-65.4-64.9-115.8-132.6-115.8s-123.8,50.4-132.6,115.8ZM250,75.2c96.5,0,174.8,78.3,174.8,174.8s-78.3,174.8-174.8,174.8-174.8-78.2-174.8-174.8S153.5,75.2,250,75.2Z"/>
      <path class="cls-5" d="M268.2,382.2v.5c-5.9.8-12,1.2-18.2,1.2s-12.3-.4-18.3-1.2v-.5c0,0,0-69.9,0-69.9,5.8,1.7,11.9,2.6,18.2,2.6s12.4-.9,18.2-2.6v69.9h0Z"/>
      <path class="cls-4" d="M187.7,268.1c6.2,21.2,22.9,38,44.1,44.2h0c5.8,1.7,11.9,2.6,18.2,2.6s12.5-.9,18.2-2.6c21.2-6.2,38-22.9,44.1-44.2h0c1.6-5.8,2.5-11.8,2.5-18.1s-.9-12.4-2.5-18.1h0c-7.8-27-32.8-46.8-62.3-46.8s-54.5,19.8-62.4,46.8h0c-1.6,5.7-2.5,11.8-2.5,18.1s.9,12.3,2.6,18.1M250,290.6s-11-6.1-21.7-15.1h0c-10-8.4-19.8-19.4-19.8-30.3s1.6-9.6,4.3-13.3h0c4.1-5.6,10.7-9.2,18.2-9.2h.2c7.2,0,14,3.4,18.1,9.3h1.3c4.2-5.8,11-9.3,18.3-9.3,7.4,0,14.1,3.7,18.2,9.3h0c2.8,3.7,4.4,8.3,4.4,13.3,0,10.7-9.1,21.3-18.8,29.6h0c-11,9.4-22.7,15.8-22.7,15.8Z"/>
      <path class="cls-5" d="M117.4,231.9h70.3c-1.7,5.8-2.6,11.8-2.6,18.1s.9,12.4,2.6,18.1h-70.3c-.8-5.9-1.2-12-1.2-18.1s.4-12.2,1.2-18.1Z"/>
    </g>
    <g>
      <path class="cls-1" d="M250,75.2c-96.5,0-174.8,78.3-174.8,174.8s78.3,174.8,174.8,174.8,174.8-78.2,174.8-174.8-78.3-174.8-174.8-174.8h0Z"/>
      <path class="cls-1" d="M268.3,382.6c-6,.8-12.1,1.2-18.3,1.2s-12.3-.4-18.3-1.2c-59.4-8.1-106.3-55.1-114.3-114.5-.8-5.9-1.2-12-1.2-18.1s.4-12.2,1.2-18.1c8.8-65.4,64.8-115.8,132.6-115.8s123.8,50.4,132.6,115.8c.8,5.9,1.2,12,1.2,18.1s-.4,12.2-1.2,18.1c-8,59.4-55,106.4-114.4,114.5h0Z"/>
      <line class="cls-1" x1="312.3" y1="231.9" x2="382.6" y2="231.9"/>
      <polyline class="cls-1" points="117.4 231.9 117.4 231.9 187.6 231.9"/>
      <polyline class="cls-1" points="187.6 268.1 117.4 268.1 117.4 268.1"/>
      <line class="cls-1" x1="231.8" y1="382.2" x2="231.8" y2="312.3"/>
      <line class="cls-1" x1="312.3" y1="268.1" x2="382.6" y2="268.1"/>
      <line class="cls-1" x1="268.2" y1="382.2" x2="268.2" y2="312.3"/>
      <path class="cls-1" d="M312.3,231.9c1.7,5.8,2.5,11.8,2.5,18.1s-.9,12.4-2.5,18.1c-6.2,21.2-22.9,38-44.1,44.2-5.8,1.7-11.9,2.6-18.2,2.6s-12.4-.9-18.2-2.6c-21.2-6.2-38-22.9-44.1-44.2-1.7-5.8-2.6-11.8-2.6-18.1s.9-12.4,2.6-18.1c7.8-27,32.8-46.8,62.3-46.8s54.5,19.8,62.3,46.8h0Z"/>
      <path class="cls-1" d="M250.6,231.9c4.2-5.8,11-9.3,18.3-9.3,7.5,0,14.1,3.7,18.2,9.3,2.8,3.7,4.4,8.3,4.4,13.3,0,10.7-9.1,21.3-18.8,29.6-11,9.4-22.7,15.8-22.7,15.8,0,0-11-6.1-21.7-15.1-10-8.4-19.8-19.4-19.8-30.3s1.6-9.6,4.4-13.3c4.1-5.6,10.7-9.3,18.2-9.3h.2c7.2,0,13.9,3.4,18.1,9.3.2.3.4.6.6.9.2-.3.4-.6.6-.9h0Z"/>
    </g>
  </g>
</svg>