<?xml version="1.0" encoding="UTF-8"?>
<svg xmlns="http://www.w3.org/2000/svg" viewBox="0 0 500 500">
  <defs>
    <style>
      .cls-1 {
        fill: #a1cbe5;
      }

      .cls-1, .cls-2, .cls-3, .cls-4, .cls-5 {
        stroke-width: 0px;
      }

      .cls-6 {
        fill: none;
        stroke: #231f20;
        stroke-linecap: round;
        stroke-miterlimit: 10;
        stroke-width: 5px;
      }

      .cls-2 {
        fill: #3579a3;
      }

      .cls-3 {
        fill: #4197cb;
      }

      .cls-4 {
        fill: #275b7a;
      }

      .cls-5 {
        fill: #dae8f4;
      }
    </style>
  </defs>
  <g id="Layer_2" data-name="Layer 2">
    <rect class="cls-3" width="500" height="500"/>
  </g>
  <g id="Layer_1" data-name="Layer 1">
    <g>
      <g>
        <path class="cls-5" d="M351.31,148.29c1.01,4.33,1.54,8.84,1.54,13.48,0,32.81-26.59,59.4-59.4,59.4s-59.39-26.59-59.39-59.4,26.59-59.39,59.39-59.39c28.17,0,51.76,19.6,57.86,45.91Z"/>
        <rect class="cls-4" x="104.59" y="211.88" width="24.96" height="185.74"/>
        <rect class="cls-4" x="129.55" y="211.88" width="24.95" height="185.74"/>
        <polygon class="cls-4" points="179.46 211.88 179.46 263.62 173.9 263.62 173.9 397.62 154.5 397.62 154.5 211.88 179.46 211.88"/>
        <rect class="cls-4" x="179.46" y="211.88" width="24.95" height="51.74"/>
        <polygon class="cls-2" points="273.72 263.62 273.72 397.62 204.41 397.62 173.9 397.62 173.9 263.62 179.46 263.62 204.41 263.62 273.72 263.62"/>
        <path class="cls-1" d="M344.43,331.1c-5.37,5.81-13.05,9.44-21.58,9.44-16.24,0-29.4-13.16-29.4-29.39,0-14.29,10.21-26.2,23.73-28.84-1.59-3.62-2.48-7.61-2.48-11.81,0-16.23,13.16-29.39,29.4-29.39s29.39,13.16,29.39,29.39c0,4.16-.87,8.12-2.43,11.7,13.82,2.4,24.34,14.44,24.34,28.95,0,16.23-13.16,29.39-29.39,29.39-8.53,0-16.21-3.63-21.58-9.44Z"/>
      </g>
      <g>
        <polyline class="cls-6" points="273.72 397.62 344.43 397.62 418.04 397.62"/>
        <line class="cls-6" x1="81.95" y1="397.62" x2="104.59" y2="397.62"/>
        <line class="cls-6" x1="191.6" y1="289.13" x2="257.6" y2="289.13"/>
        <line class="cls-6" x1="191.6" y1="309.7" x2="257.6" y2="309.7"/>
        <line class="cls-6" x1="191.6" y1="330.26" x2="257.6" y2="330.26"/>
        <line class="cls-6" x1="191.6" y1="350.82" x2="257.6" y2="350.82"/>
        <line class="cls-6" x1="191.6" y1="371.38" x2="257.6" y2="371.38"/>
        <polyline class="cls-6" points="344.43 397.62 344.43 331.1 344.43 318.96 344.43 303.64 344.43 275.63"/>
        <path class="cls-6" d="M371.06,282.2c1.56-3.58,2.43-7.54,2.43-11.7,0-16.23-13.16-29.39-29.39-29.39s-29.4,13.16-29.4,29.39c0,4.2.89,8.19,2.48,11.81-13.52,2.64-23.73,14.55-23.73,28.84,0,16.23,13.16,29.39,29.4,29.39,8.53,0,16.21-3.63,21.58-9.44,5.37,5.81,13.05,9.44,21.58,9.44,16.23,0,29.39-13.16,29.39-29.39,0-14.51-10.52-26.55-24.34-28.95Z"/>
        <line class="cls-6" x1="344.43" y1="318.96" x2="359.75" y2="303.64"/>
        <line class="cls-6" x1="344.43" y1="303.64" x2="329.1" y2="288.31"/>
        <polyline class="cls-6" points="173.9 397.62 154.5 397.62 129.55 397.62 104.59 397.62 104.59 211.88 129.55 211.88 154.5 211.88 179.46 211.88 204.41 211.88 204.41 263.62"/>
        <polygon class="cls-6" points="273.72 397.62 273.72 263.62 204.41 263.62 179.46 263.62 173.9 263.62 173.9 397.62 204.41 397.62 273.72 397.62"/>
        <line class="cls-6" x1="129.55" y1="211.88" x2="129.55" y2="397.62"/>
        <line class="cls-6" x1="154.5" y1="211.88" x2="154.5" y2="397.62"/>
        <line class="cls-6" x1="179.46" y1="211.88" x2="179.46" y2="263.62"/>
        <path class="cls-6" d="M352.85,161.77c0,32.81-26.59,59.4-59.4,59.4s-59.39-26.59-59.39-59.4,26.59-59.39,59.39-59.39c28.17,0,51.76,19.6,57.86,45.91,1.01,4.33,1.54,8.84,1.54,13.48Z"/>
        <line class="cls-6" x1="205.77" y1="161.77" x2="159.51" y2="161.77"/>
        <line class="cls-6" x1="179.46" y1="148.29" x2="129.55" y2="148.29"/>
        <polyline class="cls-6" points="336.76 148.29 351.31 148.29 389.4 148.29"/>
        <line class="cls-6" x1="363.08" y1="128.63" x2="418.04" y2="128.63"/>
        <line class="cls-6" x1="154.5" y1="178.2" x2="129.55" y2="178.2"/>
      </g>
    </g>
  </g>
</svg>