<?xml version="1.0" encoding="UTF-8"?>
<svg xmlns="http://www.w3.org/2000/svg" viewBox="0 0 500 500">
  <defs>
    <style>
      .cls-1 {
        stroke-linecap: round;
      }

      .cls-1, .cls-2 {
        fill: none;
        stroke: #231f20;
        stroke-miterlimit: 10;
        stroke-width: 5px;
      }

      .cls-3 {
        fill: #4cb6c3;
      }

      .cls-3, .cls-4, .cls-5, .cls-6, .cls-7 {
        stroke-width: 0px;
      }

      .cls-4 {
        fill: #009eac;
      }

      .cls-5 {
        fill: #027788;
      }

      .cls-6 {
        fill: #9bd4dd;
      }

      .cls-7 {
        fill: #054b56;
      }
    </style>
  </defs>
  <g id="Layer_2" data-name="Layer 2">
    <rect class="cls-4" x="0" width="500" height="500"/>
  </g>
  <g id="Layer_1" data-name="Layer 1">
    <g>
      <g>
        <g>
          <path class="cls-6" d="M384.01,217.97c5.82,1.44,9.31,7.41,7.71,13.18l-19.89,72.18c-.42,1.54.05,3.18,1.22,4.25l15.72,10.57c4.12,2.77,2.16,9.19-2.81,9.19h-18.12c-2.18,0-4.32-.59-6.2-1.7l-2.83-1.68c-4.87-2.89-11.08-2.03-14.98,2.07l-.13.13c-.74.77-1.71,1.2-2.74,1.2h-.08c-2.39-.01-4.23-2.14-3.91-4.51.04-.28.08-.55.12-.82,1.03-6.33,4.53-12,9.52-16.01l3.3-2.65,1.36-26.49,3.22-24.16c.47-3.53-1.83-6.86-5.32-7.64l-5.1-1.16,11.49-33.03.06-.23,28.36,7.33Z"/>
          <path class="cls-5" d="M355.64,210.64l-.06.23-11.49,33.03-15.14-3.44-22.08,19.79c-1.24,1.13-2.14,2.59-2.54,4.23l-.86,3.4c-.76,3.09-2.36,5.91-4.61,8.15l-2.16,2.16-17.92,17.92c-3.29,3.29-7.75,5.14-12.4,5.14h-32.88c-4.65,0-9.11-1.85-12.4-5.14l-17.92-17.92-2.16-2.16c-2.25-2.24-3.85-5.06-4.61-8.15l-.86-3.4c-.4-1.63-1.29-3.1-2.54-4.23l-22.08-19.79-15.13,3.44-11.51-33.03-.02-.07,79.94-20.16h.01s-15.19,12.47-15.19,12.47l9.43,30.45v7.33c0,4.63,1.35,9.15,3.87,13.02l11.08,16.94c1.34,2.05,3.63,3.29,6.07,3.29h20.91c2.44,0,4.73-1.23,6.07-3.29l11.08-16.94c2.52-3.87,3.87-8.39,3.87-13.02v-7.33l9.44-39.66,64.78,16.73Z"/>
          <path class="cls-3" d="M296.7,278.2v34.18c0,7.64-6.19,13.83-13.83,13.83h-10.21c-7.64,0-13.83-6.19-13.83-13.83v-11.12h7.56c4.65,0,9.11-1.85,12.4-5.14l17.92-17.92Z"/>
          <polygon class="cls-7" points="293.97 180.82 290.86 193.91 281.42 233.57 271.2 216.08 271.69 207.22 245.07 212.09 245.13 221.02 231.3 214.6 218.46 233.57 209.03 203.12 224.22 190.66 241.06 176.84 249.88 186.67 293.97 180.82"/>
          <path class="cls-6" d="M281.42,233.57v7.33c0,4.63-1.35,9.15-3.87,13.02l-11.08,16.94c-1.34,2.05-3.63,3.29-6.07,3.29h-20.91c-2.44,0-4.73-1.23-6.07-3.29l-11.08-16.94c-2.52-3.87-3.87-8.39-3.87-13.02v-7.33l12.84-18.97,13.83,6.42-.06-8.93,26.62-4.87-.49,8.86,10.23,17.49Z"/>
          <path class="cls-3" d="M241.06,301.25v11.12c0,7.64-6.19,13.83-13.83,13.83h-10.21c-7.64,0-13.83-6.19-13.83-13.83v-34.18l17.92,17.92c3.29,3.29,7.75,5.14,12.4,5.14h7.56Z"/>
          <path class="cls-6" d="M162.89,322.84c.32,2.37-1.51,4.5-3.91,4.51h-.08c-1.02,0-2-.42-2.74-1.2l-.13-.13c-3.9-4.1-10.11-4.95-14.98-2.07l-2.83,1.68c-1.88,1.12-4.02,1.7-6.2,1.7h-18.12c-4.97,0-6.93-6.42-2.81-9.19l15.72-10.57c1.17-1.07,1.64-2.71,1.22-4.25l-19.89-72.18c-1.58-5.78,1.89-11.74,7.71-13.18l28.4-7.16.02.07,11.51,33.03-5.11,1.16c-3.48.79-5.79,4.11-5.32,7.64l3.22,24.16,1.37,26.49,3.29,2.65c4.99,4.02,8.5,9.69,9.52,16.01.04.27.08.54.12.82Z"/>
        </g>
        <g>
          <polyline class="cls-2" points="255.97 254.79 249.88 254.79 249.88 238.22"/>
          <path class="cls-2" d="M224.21,190.65l-79.94,20.16-28.4,7.16c-5.82,1.44-9.3,7.41-7.71,13.18l19.89,72.18c.42,1.54-.05,3.18-1.22,4.25l-15.72,10.57c-4.12,2.77-2.16,9.19,2.81,9.19h18.12c2.18,0,4.32-.59,6.2-1.7l2.83-1.68c4.87-2.89,11.08-2.03,14.98,2.07l.13.13c.74.77,1.71,1.2,2.74,1.2h.08c2.39-.01,4.23-2.14,3.91-4.51-.04-.28-.08-.55-.12-.82-1.02-6.33-4.53-12-9.52-16.01l-3.29-2.65-1.37-26.49-3.22-24.16c-.47-3.53,1.84-6.86,5.32-7.64l5.11-1.16,15.13-3.44,22.08,19.79c1.24,1.13,2.14,2.59,2.54,4.23l.86,3.4c.76,3.09,2.36,5.91,4.61,8.15l2.16,2.16,17.92,17.92c3.29,3.29,7.75,5.14,12.4,5.14h16.38"/>
          <path class="cls-2" d="M218.46,233.57v7.33c0,4.63,1.35,9.15,3.87,13.02l11.08,16.94c1.34,2.05,3.63,3.29,6.07,3.29h10.39"/>
          <path class="cls-2" d="M203.19,278.2v34.18c0,7.64,6.19,13.83,13.83,13.83h10.21c7.64,0,13.83-6.19,13.83-13.83v-11.12"/>
          <line class="cls-2" x1="144.3" y1="210.88" x2="155.8" y2="243.9"/>
          <path class="cls-2" d="M290.86,193.91l64.78,16.73,28.36,7.33c5.82,1.44,9.31,7.41,7.71,13.18l-19.89,72.18c-.42,1.54.05,3.18,1.22,4.25l15.72,10.57c4.12,2.77,2.16,9.19-2.81,9.19h-18.12c-2.18,0-4.32-.59-6.2-1.7l-2.83-1.68c-4.87-2.89-11.08-2.03-14.98,2.07l-.13.13c-.74.77-1.71,1.2-2.74,1.2h-.08c-2.39-.01-4.23-2.14-3.91-4.51.04-.28.08-.55.12-.82,1.03-6.33,4.53-12,9.52-16.01l3.3-2.65,1.36-26.49,3.22-24.16c.47-3.53-1.83-6.86-5.32-7.64l-5.1-1.16-15.14-3.44-22.08,19.79c-1.24,1.13-2.14,2.59-2.54,4.23l-.86,3.4c-.76,3.09-2.36,5.91-4.61,8.15l-2.16,2.16-17.92,17.92c-3.29,3.29-7.75,5.14-12.4,5.14h-16.51"/>
          <path class="cls-2" d="M281.42,233.57v7.33c0,4.63-1.35,9.15-3.87,13.02l-11.08,16.94c-1.34,2.05-3.63,3.29-6.07,3.29h-10.52"/>
          <path class="cls-2" d="M296.7,278.2v34.18c0,7.64-6.19,13.83-13.83,13.83h-10.21c-7.64,0-13.83-6.19-13.83-13.83v-11.12"/>
          <line class="cls-2" x1="355.58" y1="210.88" x2="344.09" y2="243.9"/>
          <polygon class="cls-2" points="281.42 233.57 290.86 193.91 293.97 180.82 249.88 186.67 241.06 176.84 224.22 190.66 209.03 203.12 218.46 233.57 231.3 214.6 245.13 221.02 245.07 212.09 271.69 207.22 271.2 216.08 281.42 233.57"/>
        </g>
      </g>
      <line class="cls-1" x1="72.95" y1="327.35" x2="427.05" y2="327.35"/>
    </g>
  </g>
</svg>