<?xml version="1.0" encoding="UTF-8"?>
<svg xmlns="http://www.w3.org/2000/svg" viewBox="0 0 500 500">
  <defs>
    <style>
      .cls-1 {
        fill: #00ab9b;
      }

      .cls-1, .cls-2, .cls-3, .cls-4, .cls-5, .cls-6 {
        stroke-width: 0px;
      }

      .cls-2 {
        fill: #03463f;
      }

      .cls-7 {
        fill: none;
      }

      .cls-7, .cls-8 {
        stroke: #231f20;
        stroke-miterlimit: 10;
        stroke-width: 5px;
      }

      .cls-3 {
        fill: #84cfc9;
      }

      .cls-4 {
        fill: #00695d;
      }

      .cls-5 {
        fill: #078b7c;
      }

      .cls-8 {
        fill: #06796d;
      }

      .cls-6 {
        fill: #b6e1df;
      }
    </style>
  </defs>
  <g id="Layer_2" data-name="Layer 2">
    <rect class="cls-1" width="500" height="500"/>
  </g>
  <g id="Layer_1" data-name="Layer 1">
    <rect class="cls-8" x="171.12" y="87.69" width="41.55" height="324.62"/>
    <g>
      <g>
        <path class="cls-6" d="M328.88,409.12v3.19h-46.09v-19.85h29.43c9.2,0,16.66,7.46,16.66,16.66Z"/>
        <path class="cls-4" d="M311.14,320.6l-6.99,71.86h-21.36v-64.34c0-4.15-3.36-7.52-7.52-7.52h-34.07c-7.82,0-14.91-3.17-20.04-8.3-5.14-5.13-8.31-12.22-8.31-20.04h28.2v3.93c0,4.68,3.8,8.47,8.48,8.47s8.47-3.79,8.47-8.47v-3.93h24.79c7.83,0,14.92,3.17,20.05,8.3s8.3,12.22,8.3,20.04Z"/>
        <path class="cls-3" d="M292.05,151.9v17.95c0,11.96-9.7,21.65-21.66,21.65h-1.26v-12.34h-18.51v10.54c-5.53-2.06-10.25-5.77-13.56-10.54l54.94-28.81c.04.52.05,1.03.05,1.55Z"/>
        <path class="cls-5" d="M292.05,150.33l-.05.02s.01-.01,0-.02h.05Z"/>
        <path class="cls-3" d="M292,150.33s0,.02,0,.02l-54.94,28.81,7.93-5.06c3.51-2.25,5.63-6.12,5.63-10.29v-4.13c0-5.17,4.18-9.35,9.34-9.35h32.04Z"/>
        <path class="cls-2" d="M292,150.33h-32.04c-5.16,0-9.34,4.18-9.34,9.35v4.13c0,4.17-2.12,8.04-5.63,10.29l-7.93,5.06c-3.23-4.64-5.12-10.28-5.12-16.36v-10.9c0-15.85,12.85-28.7,28.7-28.7h2.71c15.32,0,27.84,12.01,28.65,27.13Z"/>
        <path class="cls-5" d="M282.45,215.12v77.14h-24.45v-60.59h4v-12.46c0-3.45-1.4-6.56-3.66-8.82s-5.37-3.65-8.81-3.65c-6.89,0-12.47,5.58-12.47,12.47v12.46h3.99v60.59h-28.39l8.85-74.51c1.61-13.57,13.12-23.8,26.79-23.8h2.42c.66,4.47,4.5,7.9,9.16,7.9,4.17,0,7.69-2.76,8.85-6.55,8.02,3.01,13.72,10.75,13.72,19.82Z"/>
        <path class="cls-3" d="M269.13,191.5v1.09c0,.94-.14,1.85-.4,2.71-2.32-.87-4.83-1.35-7.45-1.35h-10.56c-.07-.45-.1-.9-.1-1.36v-2.89c3.12,1.16,6.5,1.8,10.02,1.8h8.49Z"/>
        <path class="cls-3" d="M269.13,179.16v12.34h-8.49c-3.52,0-6.9-.64-10.02-1.8v-10.54h18.51Z"/>
        <path class="cls-3" d="M268.73,195.3c-1.16,3.79-4.68,6.55-8.85,6.55-4.66,0-8.5-3.43-9.16-7.9h10.56c2.62,0,5.13.48,7.45,1.35Z"/>
        <path class="cls-5" d="M262,219.21v12.46h-24.94v-12.46c0-6.89,5.58-12.47,12.47-12.47,3.44,0,6.56,1.4,8.81,3.65s3.66,5.37,3.66,8.82Z"/>
        <path class="cls-3" d="M258,292.26v3.93c0,4.68-3.79,8.47-8.47,8.47s-8.48-3.79-8.48-8.47v-3.93h16.95Z"/>
        <rect class="cls-3" x="241.05" y="231.67" width="16.95" height="60.59"/>
      </g>
      <g>
        <path class="cls-7" d="M268.73,195.3c8.02,3.01,13.72,10.75,13.72,19.82v77.14"/>
        <path class="cls-7" d="M212.85,292.26h-.19l8.85-74.51c1.61-13.57,13.12-23.8,26.79-23.8h2.42"/>
        <path class="cls-7" d="M241.05,292.26h-28.2c0,7.82,3.17,14.91,8.31,20.04,5.13,5.13,12.22,8.3,20.04,8.3h34.07c4.16,0,7.52,3.37,7.52,7.52v64.34"/>
        <path class="cls-7" d="M304.15,392.46l6.99-71.86c0-7.82-3.17-14.91-8.3-20.04s-12.22-8.3-20.05-8.3h-24.79"/>
        <path class="cls-7" d="M282.79,392.46v19.85h46.09v-3.19c0-9.2-7.46-16.66-16.66-16.66h-29.43Z"/>
        <path class="cls-7" d="M269.13,191.5v1.09c0,.94-.14,1.85-.4,2.71-1.16,3.79-4.68,6.55-8.85,6.55-4.66,0-8.5-3.43-9.16-7.9-.07-.45-.1-.9-.1-1.36v-2.89"/>
        <path class="cls-7" d="M292,150.35c.04.52.05,1.03.05,1.55v17.95c0,11.96-9.7,21.65-21.66,21.65h-9.75c-3.52,0-6.9-.64-10.02-1.8-5.53-2.06-10.25-5.77-13.56-10.54-3.23-4.64-5.12-10.28-5.12-16.36v-10.9c0-15.85,12.85-28.7,28.7-28.7h2.71c15.32,0,27.84,12.01,28.65,27.13"/>
        <path class="cls-7" d="M237.06,179.16l7.93-5.06c3.51-2.25,5.63-6.12,5.63-10.29v-4.13c0-5.17,4.18-9.35,9.34-9.35h32.09"/>
        <path class="cls-7" d="M241.05,231.67h-3.99v-12.46c0-6.89,5.58-12.47,12.47-12.47,3.44,0,6.56,1.4,8.81,3.65s3.66,5.37,3.66,8.82v12.46h-4"/>
        <path class="cls-7" d="M258,292.26v3.93c0,4.68-3.79,8.47-8.47,8.47s-8.48-3.79-8.48-8.47v-64.52h16.95v60.59Z"/>
      </g>
    </g>
    <g>
      <line class="cls-7" x1="171.12" y1="119.8" x2="212.86" y2="103.35"/>
      <line class="cls-7" x1="171.12" y1="141.1" x2="212.86" y2="124.65"/>
      <line class="cls-7" x1="171.12" y1="162.39" x2="212.86" y2="145.94"/>
      <line class="cls-7" x1="171.12" y1="183.69" x2="212.86" y2="167.24"/>
      <line class="cls-7" x1="171.12" y1="204.99" x2="212.86" y2="188.53"/>
      <line class="cls-7" x1="171.12" y1="226.28" x2="212.86" y2="209.83"/>
      <line class="cls-7" x1="171.12" y1="247.58" x2="212.86" y2="231.13"/>
      <line class="cls-7" x1="171.12" y1="268.87" x2="212.86" y2="252.42"/>
      <line class="cls-7" x1="171.12" y1="290.17" x2="212.86" y2="273.72"/>
      <line class="cls-7" x1="171.12" y1="311.47" x2="212.86" y2="295.01"/>
      <line class="cls-7" x1="171.12" y1="332.76" x2="212.86" y2="316.31"/>
      <line class="cls-7" x1="171.12" y1="354.06" x2="212.86" y2="337.61"/>
      <line class="cls-7" x1="171.12" y1="375.35" x2="212.86" y2="358.9"/>
      <line class="cls-7" x1="171.12" y1="396.65" x2="212.86" y2="380.2"/>
    </g>
  </g>
</svg>