<?xml version="1.0" encoding="UTF-8"?>
<svg xmlns="http://www.w3.org/2000/svg" viewBox="0 0 500 500">
  <defs>
    <style>
      .cls-1 {
        stroke-linecap: round;
      }

      .cls-1, .cls-2 {
        fill: none;
        stroke: #231f20;
        stroke-miterlimit: 10;
        stroke-width: 5px;
      }

      .cls-3 {
        fill: #a09dc3;
      }

      .cls-3, .cls-4, .cls-5, .cls-6, .cls-7, .cls-8 {
        stroke-width: 0px;
      }

      .cls-4 {
        fill: #4d4b7e;
      }

      .cls-5 {
        fill: #404450;
      }

      .cls-6 {
        fill: #46416e;
      }

      .cls-7 {
        fill: #625d9c;
      }

      .cls-8 {
        fill: #e1dfeb;
      }
    </style>
  </defs>
  <g id="Layer_2" data-name="Layer 2">
    <rect class="cls-7" width="500" height="500"/>
  </g>
  <g id="Layer_1" data-name="Layer 1">
    <g>
      <g>
        <path class="cls-4" d="M402.12,181.36v95.96c0,8-6.46,14.48-14.46,14.48h-24.33c-8,0-14.48-6.48-14.48-14.48v-95.96c0-7.98,6.48-14.46,14.48-14.46h24.33c8,0,14.46,6.48,14.46,14.46Z"/>
        <path class="cls-8" d="M348.86,216.67v25.36h-37.48v-25.36h37.48Z"/>
        <path class="cls-3" d="M219.32,174.57v-5c0-8.49,6.86-15.35,15.33-15.35s15.35,6.86,15.35,15.35v9.68c0-8.47,6.88-15.35,15.35-15.35s15.35,6.88,15.35,15.35c0-8.47,6.86-15.35,15.35-15.35s15.33,6.88,15.33,15.35v100.71c0,10.71-4.92,14.12-10.01,16.33l-.02.11c-.54-.07-1.1-.11-1.68-.11h-26.52c-2.23-3.38-6.06-5.61-10.41-5.61h-25.47c-4.36,0-8.2,2.23-10.41,5.61h-25.81c-18.24-.07-27.71-26.75-33.36-40.71l-4.85-13.56h25.77v-67.46c0-8.47,6.88-15.35,15.35-15.35s15.35,6.88,15.35,15.35Z"/>
        <path class="cls-8" d="M301.34,296.4c6.86.83,12.18,6.68,12.18,13.76,0,3.82-1.56,7.29-4.05,9.81-2.52,2.5-5.99,4.05-9.81,4.05h-26.52c1.29-1.97,2.05-4.31,2.05-6.84v-14.05c0-2.53-.76-4.87-2.05-6.84h26.52c.58,0,1.14.04,1.68.11Z"/>
        <path class="cls-3" d="M293.38,324.02l5.3,90.79h-100.02l5.3-90.79h22.9c2.21,3.38,6.05,5.63,10.41,5.63h25.47c4.34,0,8.18-2.24,10.41-5.63h20.24Z"/>
        <path class="cls-6" d="M275.19,303.13v14.05c0,2.53-.76,4.87-2.05,6.84h-46.28c-1.3-1.97-2.06-4.31-2.06-6.84v-14.05c0-2.53.76-4.87,2.06-6.84h46.28c1.29,1.97,2.05,4.31,2.05,6.84Z"/>
        <path class="cls-5" d="M273.15,296.29h-46.28c2.21-3.38,6.05-5.61,10.41-5.61h25.47c4.34,0,8.18,2.23,10.41,5.61Z"/>
        <path class="cls-5" d="M226.86,324.02h46.28c-2.23,3.38-6.06,5.63-10.41,5.63h-25.47c-4.36,0-8.2-2.24-10.41-5.63Z"/>
        <path class="cls-8" d="M201.13,296.29h25.74c-1.3,1.97-2.06,4.31-2.06,6.84v14.05c0,2.53.76,4.87,2.06,6.84h-25.81c-7.66,0-13.86-6.21-13.86-13.86,0-3.82,1.56-7.29,4.05-9.81,2.52-2.5,5.99-4.05,9.81-4.05h.07Z"/>
        <polygon class="cls-8" points="188.62 216.67 188.62 242.03 162.85 242.03 151.14 242.03 151.14 216.67 158.25 216.67 188.62 216.67"/>
        <path class="cls-3" d="M188.62,204.56v12.11h-30.37c1.79-8.72,8.51-17.86,30.37-12.11Z"/>
        <path class="cls-4" d="M151.14,216.67v59.8c0,7.98-6.48,14.46-14.46,14.46h-24.34c-7.98,0-14.46-6.48-14.46-14.46v-95.96c0-8,6.48-14.48,14.46-14.48h24.34c7.98,0,14.46,6.48,14.46,14.48v36.16Z"/>
      </g>
      <g>
        <path class="cls-2" d="M273.15,296.29h26.52c.58,0,1.14.04,1.68.11,6.86.83,12.18,6.68,12.18,13.76,0,3.82-1.56,7.29-4.05,9.81-2.52,2.5-5.99,4.05-9.81,4.05h-26.52"/>
        <line class="cls-2" x1="201.13" y1="296.29" x2="226.86" y2="296.29"/>
        <path class="cls-2" d="M226.86,324.02h-25.81c-7.66,0-13.86-6.21-13.86-13.86,0-3.82,1.56-7.29,4.05-9.81,2.52-2.5,5.99-4.05,9.81-4.05"/>
        <path class="cls-2" d="M311.37,216.67v-37.41"/>
        <path class="cls-2" d="M301.36,296.29c5.09-2.21,10.01-5.61,10.01-16.33v-37.94"/>
        <line class="cls-1" x1="188.62" y1="242.03" x2="188.62" y2="260.78"/>
        <polyline class="cls-1" points="188.62 174.57 188.62 204.56 188.62 216.67"/>
        <path class="cls-2" d="M158.25,216.67c1.79-8.72,8.51-17.86,30.37-12.11"/>
        <path class="cls-2" d="M201.13,296.29h-.07c-18.24-.07-27.71-26.75-33.36-40.71l-4.85-13.56"/>
        <path class="cls-2" d="M188.62,174.57c0-8.47,6.88-15.35,15.35-15.35s15.35,6.88,15.35,15.35"/>
        <path class="cls-1" d="M250,179.26c0-8.47,6.88-15.35,15.35-15.35s15.35,6.88,15.35,15.35v12.47"/>
        <line class="cls-1" x1="250" y1="191.73" x2="250" y2="180.62"/>
        <path class="cls-2" d="M280.69,179.26c0-8.47,6.86-15.35,15.35-15.35s15.33,6.88,15.33,15.35"/>
        <path class="cls-1" d="M219.32,191.73v-22.15c0-8.49,6.86-15.35,15.33-15.35s15.35,6.86,15.35,15.35v11.04"/>
        <path class="cls-2" d="M273.15,324.02c-2.23,3.38-6.06,5.63-10.41,5.63h-25.47c-4.36,0-8.2-2.24-10.41-5.63-1.3-1.97-2.06-4.31-2.06-6.84v-14.05c0-2.53.76-4.87,2.06-6.84,2.21-3.38,6.05-5.61,10.41-5.61h25.47c4.34,0,8.18,2.23,10.41,5.61,1.29,1.97,2.05,4.31,2.05,6.84v14.05c0,2.53-.76,4.87-2.05,6.84Z"/>
        <polyline class="cls-2" points="203.97 324.02 198.67 414.8 298.68 414.8 293.38 324.02"/>
        <line class="cls-2" x1="248.67" y1="85.19" x2="248.67" y2="110.9"/>
        <line class="cls-2" x1="306.38" y1="101.25" x2="291.01" y2="120.74"/>
        <line class="cls-2" x1="325.56" y1="154.23" x2="342.96" y2="142.48"/>
        <line class="cls-2" x1="191.46" y1="101.79" x2="203.97" y2="123.2"/>
        <line class="cls-2" x1="149.72" y1="140.87" x2="170.05" y2="154.23"/>
        <path class="cls-2" d="M348.86,242.03h-37.48v-25.36h37.48"/>
        <path class="cls-2" d="M348.86,216.67v-35.31c0-7.98,6.48-14.46,14.48-14.46h24.33c8,0,14.46,6.48,14.46,14.46v95.96c0,8-6.46,14.48-14.46,14.48h-24.33c-8,0-14.48-6.48-14.48-14.48v-60.65Z"/>
        <polyline class="cls-2" points="151.14 216.67 158.25 216.67 188.62 216.67 188.62 242.03 162.85 242.03 151.14 242.03"/>
        <path class="cls-2" d="M151.14,242.03v34.44c0,7.98-6.48,14.46-14.46,14.46h-24.34c-7.98,0-14.46-6.48-14.46-14.46v-95.96c0-8,6.48-14.48,14.46-14.48h24.34c7.98,0,14.46,6.48,14.46,14.48v61.52Z"/>
      </g>
    </g>
  </g>
</svg>