<?xml version="1.0" encoding="UTF-8"?>
<svg xmlns="http://www.w3.org/2000/svg" viewBox="0 0 500 500">
  <defs>
    <style>
      .cls-1 {
        fill: none;
        stroke: #231f20;
        stroke-linecap: round;
        stroke-miterlimit: 10;
        stroke-width: 5px;
      }

      .cls-2 {
        fill: #a09dc3;
      }

      .cls-2, .cls-3, .cls-4, .cls-5, .cls-6 {
        stroke-width: 0px;
      }

      .cls-3 {
        fill: #d2cfe1;
      }

      .cls-4 {
        fill: #46416e;
      }

      .cls-5 {
        fill: #625d9c;
      }

      .cls-6 {
        fill: #27253d;
      }
    </style>
  </defs>
  <g id="Layer_2" data-name="Layer 2">
    <rect class="cls-5" width="500" height="500"/>
  </g>
  <g id="Layer_1" data-name="Layer 1">
    <g>
      <g>
        <path class="cls-4" d="M394.88,164.84l-43.2-36.04,11.62-19.35c17.96,10.54,38.9,23.52,55.56,36.64,28.26,22.27,0,51.26,0,51.26l-61.41,47.36.61,166.87h-23.98c-10.08-41.36-15.22-106.69-17.69-150.44-1.51-26.92-2.01-45.68-2.01-45.68,9.42-26.54,38.54-23.04,38.54-23.04l41.97-27.58Z"/>
        <path class="cls-3" d="M367.23,100.74c0,1.37-.36,2.76-1.12,4.02l-2.82,4.69-11.62,19.35-74.88,84.05c-5.39,6.04-14.97,5.58-19.73-.96-1.65-2.25-2.44-4.88-2.44-7.48,0-1.7.34-3.39,1.01-4.96.75-1.78,1.93-3.41,3.5-4.74l40.76-34.4c1.09-.92,2.14-1.87,3.15-2.86l38.07-37.46,9.04-18.23,2.24-4.51c1.88-3.8,6.45-5.41,10.3-3.63,2.89,1.34,4.55,4.18,4.55,7.12Z"/>
        <path class="cls-3" d="M355.19,411.58l2.86,18.56h-56.34c3.04-3.06,6.38-5.8,9.96-8.17,3.57-2.37,7.4-4.37,11.4-5.98l11-4.4h21.12Z"/>
        <path class="cls-4" d="M350.15,101.76l-9.04,18.23-3.62-3.02v-22.36s2.72,1.38,12.66,7.15Z"/>
        <path class="cls-3" d="M337.49,94.61v22.36h-21.11l-14.67-47.1,2.34.92c8.16,3.17,15.67,7.79,22.16,13.65l11.28,10.17Z"/>
        <path class="cls-3" d="M316.38,261.13l-29.36,14.23,5.4-58.58,21.95-1.33s.5,18.76,2.01,45.68Z"/>
        <path class="cls-2" d="M292.42,216.79l-5.4,58.58-1.52,16.54s-34.24-11.21-46.55-12.51c-26.24-2.77-41.2-10.12-49.64-18.27-14.24-13.73-9.96-29.69-9.96-29.69l20.01-8.4,2.12,3.14c2.06,3.04,6,4.17,9.36,2.68l11.38-5.09c4.73-2.12,5.98-8.27,2.45-12.06l30.98-12.26c-.67,1.57-1.01,3.27-1.01,4.96,0,2.6.79,5.22,2.44,7.48,4.76,6.54,14.35,7,19.73.96l10.46,4.25,5.16-.31Z"/>
        <path class="cls-6" d="M226.69,153.23c16.77,13.58,11.46,38.83,11.46,38.83l-21.7-16.37c0-4.96-1.46-9.82-4.22-13.95l-3.15-4.73c-1.37-2.05-3.01-3.85-4.86-5.39,1.58-.19,10.56-8.03,22.47,1.61Z"/>
        <path class="cls-3" d="M224.66,211.71c3.54,3.8,2.28,9.94-2.45,12.06l-11.38,5.09c-3.35,1.49-7.29.37-9.36-2.68l-2.12-3.14-6.88-10.19-20.9-3.16c-4.08-.63-5.37-5.72-5.37-9.85l-6-7.78,4.29-20.23c.26,0,.53-.05.81-.1l13.86-2.64c3.35-.65,6.8.31,9.36,2.56l-1.17,8.41c2.27,2,8.02-.71,8.13,2.31l.4,10.82,20.55,9.71,8.21,8.81Z"/>
        <path class="cls-6" d="M216.45,175.68v27.22l-20.55-9.71-.4-10.82c-.12-3.03-5.86-.31-8.13-2.31l1.17-8.41c-2.56-2.25-6.01-3.21-9.36-2.56l-13.86,2.64c-.28.05-.55.09-.81.1-4.14.19-7.1-4.33-4.95-8.12l2.53-4.5c4.67-8.28,13.43-13.39,22.93-13.39h3.13c5.84,0,11.41,2.02,15.83,5.61,0,.17.09.23.25.2,1.85,1.53,3.49,3.33,4.86,5.39l3.15,4.73c2.76,4.13,4.22,8.99,4.22,13.95Z"/>
        <path class="cls-3" d="M189.31,261.13l-64.25-8.43c-5.1-.69-9.73-3.32-12.94-7.35l-43.54-54.78v-25.73c1.56-.97,3.29-1.44,4.99-1.44,3.36,0,6.63,1.8,8.33,5,3.25,6.06,4.95,12.83,4.95,19.71v4.51l35.93,33.47c3.7,3.44,8.56,5.35,13.59,5.35h42.97s-4.28,15.96,9.96,29.69Z"/>
      </g>
      <g>
        <polyline class="cls-1" points="355.19 411.58 358.05 411.58 357.45 244.71"/>
        <path class="cls-1" d="M351.67,128.79l43.2,36.04-41.97,27.58s-29.12-3.51-38.54,23.04c0,0,.5,18.76,2.01,45.68,2.47,43.75,7.61,109.08,17.69,150.44"/>
        <path class="cls-1" d="M350.15,101.76c-9.94-5.77-12.66-7.15-12.66-7.15v22.36l3.62,3.02"/>
        <path class="cls-1" d="M346.91,252.82l10.53-8.11,61.41-47.36s28.26-28.99,0-51.26c-16.66-13.12-37.6-26.1-55.56-36.64"/>
        <path class="cls-1" d="M255.64,199.44c.75-1.78,1.93-3.41,3.5-4.74l40.76-34.4c1.09-.92,2.14-1.87,3.15-2.86l38.07-37.46,9.04-18.23,2.24-4.51c1.88-3.8,6.45-5.41,10.3-3.63,2.89,1.34,4.55,4.18,4.55,7.12,0,1.37-.36,2.76-1.12,4.02l-2.82,4.69-11.62,19.35-74.88,84.05c-5.39,6.04-14.97,5.58-19.73-.96-1.65-2.25-2.44-4.88-2.44-7.48,0-1.7.34-3.39,1.01-4.96Z"/>
        <polyline class="cls-1" points="314.37 215.46 292.42 216.79 287.26 217.09 276.79 212.85"/>
        <path class="cls-1" d="M199.36,223.04l-20.01,8.4s-4.28,15.96,9.96,29.69c8.44,8.15,23.4,15.5,49.64,18.27,12.31,1.3,46.55,12.51,46.55,12.51l1.52-16.54,5.4-58.58"/>
        <line class="cls-1" x1="255.64" y1="199.44" x2="224.66" y2="211.71"/>
        <line class="cls-1" x1="287.03" y1="275.36" x2="316.38" y2="261.13"/>
        <path class="cls-1" d="M179.35,231.44h-42.97c-5.04,0-9.89-1.91-13.59-5.35l-35.93-33.47v-4.51c0-6.88-1.71-13.65-4.95-19.71-1.71-3.2-4.97-5-8.33-5-1.71,0-3.43.46-4.99,1.44v25.73l43.54,54.78c3.21,4.03,7.84,6.66,12.94,7.35l64.25,8.43"/>
        <path class="cls-1" d="M164.5,171.82l-4.29,20.23,6,7.78c0,4.12,1.29,9.22,5.37,9.85l20.9,3.16,6.88,10.19,2.12,3.14c2.06,3.04,6,4.17,9.36,2.68l11.38-5.09c4.73-2.12,5.98-8.27,2.45-12.06l-8.21-8.81v-27.22c0-4.96-1.46-9.82-4.22-13.95l-3.15-4.73c-1.37-2.05-3.01-3.85-4.86-5.39-.08-.07-.16-.13-.25-.2-4.42-3.58-9.99-5.61-15.83-5.61h-3.13c-9.5,0-18.26,5.12-22.93,13.39l-2.53,4.5c-2.15,3.8.81,8.31,4.95,8.12.26,0,.53-.05.81-.1l13.86-2.64c3.35-.65,6.8.31,9.36,2.56l-1.17,8.41c2.27,2,8.02-.71,8.13,2.31l.4,10.82,20.55,9.71"/>
        <path class="cls-1" d="M203.98,151.42c0,.17.09.23.25.2,1.58-.19,10.56-8.03,22.47,1.61,16.77,13.58,11.46,38.83,11.46,38.83l-21.7-16.37"/>
        <line class="cls-1" x1="175.63" y1="181.48" x2="171.92" y2="181.48"/>
        <path class="cls-1" d="M337.49,116.97h-21.11l-14.67-47.1,2.34.92c8.16,3.17,15.67,7.79,22.16,13.65l11.28,10.17"/>
        <path class="cls-1" d="M355.19,411.58l2.86,18.56h-56.34c3.04-3.06,6.38-5.8,9.96-8.17,3.57-2.37,7.4-4.37,11.4-5.98l11-4.4h21.12Z"/>
        <line class="cls-1" x1="394.88" y1="164.84" x2="404.3" y2="158.36"/>
      </g>
    </g>
  </g>
</svg>