<?xml version="1.0" encoding="UTF-8"?>
<svg id="Layer_1" data-name="Layer 1" xmlns="http://www.w3.org/2000/svg" version="1.1" viewBox="0 0 500 500">
  <defs>
    <style>
      .cls-1, .cls-2, .cls-3, .cls-4, .cls-5, .cls-6, .cls-7, .cls-8, .cls-9, .cls-10, .cls-11, .cls-12 {
        stroke: #231f20;
      }

      .cls-1, .cls-2, .cls-3, .cls-4, .cls-5, .cls-6, .cls-9, .cls-12 {
        stroke-miterlimit: 10;
        stroke-width: 5px;
      }

      .cls-1, .cls-3 {
        fill: none;
      }

      .cls-2 {
        fill: #3c6b93;
      }

      .cls-3 {
        stroke-linecap: round;
      }

      .cls-4 {
        fill: #c2e0f6;
      }

      .cls-5 {
        fill: #2f5a79;
      }

      .cls-13 {
        fill: #5eb3e4;
        stroke-width: 0px;
      }

      .cls-6 {
        fill: #1b3648;
      }

      .cls-7, .cls-8, .cls-12 {
        fill: #95c8ec;
      }

      .cls-7, .cls-11 {
        stroke-miterlimit: 10;
        stroke-width: 5px;
      }

      .cls-8 {
        stroke-miterlimit: 10;
        stroke-width: 5px;
      }

      .cls-9, .cls-10, .cls-11 {
        fill: #d1e7f7;
      }

      .cls-10 {
        stroke-miterlimit: 10;
        stroke-width: 5px;
      }
    </style>
  </defs>
  <g id="Layer_2" data-name="Layer 2">
    <rect class="cls-13" width="500" height="500"/>
  </g>
  <g id="Layer_1-2" data-name="Layer 1">
    <rect class="cls-2" x="123.1" y="72.9" width="253.8" height="315"/>
    <rect class="cls-6" x="145.1" y="96.5" width="209.8" height="291.4"/>
    <line class="cls-1" x1="354.9" y1="96.5" x2="376.9" y2="72.9"/>
    <line class="cls-1" x1="145.1" y1="96.5" x2="123.1" y2="72.9"/>
    <g>
      <g>
        <path class="cls-4" d="M230.4,152.3c-11.6-2.3-22.8,5.1-25.1,16.7-1.3,6.4,2,15,7.1,21.8l-2.9,9.3,9.5,2.9,1.4-4.4c2.2,1.5,4.5,2.6,6.7,3,11.6,2.3,17.7-12.6,20.1-24.2s-5.1-22.8-16.7-25.1h0Z"/>
        <g>
          <path class="cls-5" d="M161.2,276.1l-6.9,34c-.6,3.1-3.6,5.1-6.7,4.4l-44.3-8.8-3.3,16.3,55.3,18.2c9.3,2.8,18.9-3,20.8-12.5h0l1.4-7,8-39.5-24.4-4.9Z"/>
          <path class="cls-11" d="M82.1,342.8l-4.1-.8,8.1-40,18,3.7-5.3,26.1c-1.6,7.7-9.1,12.7-16.8,11.1h0Z"/>
        </g>
        <path class="cls-8" d="M178.2,192.1l31.4,6.4c12,2.4,19.7,14.1,17.3,26.1l-12.6,62.2-53.1-10.8,17-83.9h0Z"/>
        <path class="cls-12" d="M178.2,192.1l-20.9-4.2h0c-8.5-1.7-16.7,3.8-18.4,12.2l-11.4,56.3c-.9,4.2,1.9,8.4,6.1,9.2h0c4.2.9,8.4-1.9,9.2-6.1l10.8-53.1c.4-1.7,2-2.9,3.8-2.5l17.8,3.6,3.1-15.3h0Z"/>
        <path class="cls-7" d="M271.2,262.7l-50-10.1,3.1-15.3,50,10.1c4.2.9,7,5,6.1,9.2h0c-.9,4.2-5,7-9.2,6.1h0Z"/>
        <path class="cls-5" d="M235.2,388l6.3-78.9c.7-9.3-5.6-17.7-14.7-19.5l-65.6-13.5-.2,1.2c-2.8,13.6,6.3,25.7,19.9,28.5l31,6.3c3.9.8,6.7,4.2,6.7,8.2v67.7c-.1,0,16.6,0,16.6,0h0Z"/>
        <path class="cls-10" d="M259.2,402.3v4.2s-40.8,0-40.8,0v-18.4s26.6,0,26.6,0c7.8,0,14.2,6.4,14.2,14.3h0Z"/>
        <line class="cls-1" x1="266.2" y1="245.7" x2="262.5" y2="262"/>
        <line class="cls-1" x1="128.6" y1="247.6" x2="143.9" y2="250.7"/>
      </g>
      <line class="cls-3" x1="198.9" y1="374.5" x2="158.7" y2="374.5"/>
      <line class="cls-3" x1="193" y1="401.5" x2="118.6" y2="401.5"/>
      <line class="cls-3" x1="103.8" y1="238.1" x2="52.6" y2="238.1"/>
      <line class="cls-3" x1="111.1" y1="254.3" x2="73.9" y2="254.3"/>
      <line class="cls-3" x1="104.9" y1="269.6" x2="45.7" y2="269.6"/>
    </g>
    <polygon class="cls-9" points="354.9 387.9 218.1 427.1 218.1 135.6 354.9 96.5 354.9 387.9"/>
    <ellipse class="cls-2" cx="244.4" cy="265" rx="7.9" ry="8.9"/>
  </g>
</svg>