<?xml version="1.0" encoding="UTF-8"?>
<svg id="Layer_1" data-name="Layer 1" xmlns="http://www.w3.org/2000/svg" version="1.1" viewBox="0 0 500 500">
  <defs>
    <style>
      .cls-1, .cls-2 {
        stroke: #231f20;
      }

      .cls-1, .cls-2, .cls-3 {
        stroke-linecap: round;
        stroke-miterlimit: 10;
        stroke-width: 5px;
      }

      .cls-1, .cls-3 {
        fill: none;
      }

      .cls-2, .cls-4 {
        fill: #46416e;
      }

      .cls-5 {
        fill: #625d9c;
      }

      .cls-5, .cls-6, .cls-4, .cls-7, .cls-8, .cls-9, .cls-10, .cls-11 {
        stroke-width: 0px;
      }

      .cls-6 {
        fill: #27253d;
      }

      .cls-7 {
        fill: #042c33;
      }

      .cls-8 {
        fill: #d2cfe1;
      }

      .cls-9 {
        fill: #9bd3dd;
      }

      .cls-10 {
        fill: #086977;
      }

      .cls-3 {
        stroke: #010101;
      }

      .cls-11 {
        fill: #231f20;
      }
    </style>
  </defs>
  <g id="Layer_2" data-name="Layer 2">
    <rect class="cls-5" y="-.3" width="500" height="500"/>
  </g>
  <g id="Layer_1-2" data-name="Layer 1-2">
    <g>
      <g>
        <path class="cls-10" d="M384.2,371h0s-3.2-18.7-10.7-37.7c7.5,19,10.7,37.7,10.7,37.7Z"/>
        <path class="cls-6" d="M384.2,371h-199.8s4-23.2,13.4-44c.7-1.5,1.4-3,2.1-4.5,1-2,2-3.9,3.1-5.8h0c.6-.9,1.1-1.9,1.7-2.8h0c.6-.9,1.2-1.8,1.8-2.6q.3-.4,0,0c.6-.9,1.2-1.7,1.8-2.5h0c.6-.8,1.3-1.6,1.9-2.4.3-.4.6-.8,1-1.1,2.3-2.6,4.8-4.8,7.5-6.5,3.9-2.6,8.2-4.8,12.9-6.5,7.6-2.9,16.4-4.6,26.9-5.2,1.5,0,3-.1,4.6-.2.8.5,1.6,1,2.4,1.5.4.2.8.5,1.2.7.8.4,1.7.8,2.5,1.2.9.4,1.7.7,2.6,1,3.9,1.4,8,2,12.1,2s3.8-.1,5.7-.4c2.8-.4,5.6-1.2,8.3-2.3.9-.4,1.8-.8,2.7-1.2s1.7-.9,2.6-1.4c.4-.3.9-.5,1.3-.8s.8-.5,1.2-.8h2.3c6,.2,11.4.9,16.3,1.9.9.2,1.8.4,2.7.6.9.2,1.8.5,2.7.7,1.9.5,3.8,1.1,5.6,1.8.5.2,1.1.4,1.6.6,4.7,1.9,8.9,4.1,12.9,6.8,1.9,1.3,3.8,2.8,5.5,4.5s1.4,1.4,2,2.2c1,1.1,2,2.3,2.9,3.5,1.2,1.7,2.5,3.4,3.6,5.2.6.9,1.1,1.8,1.7,2.8,2.5,4.2,4.6,8.8,6.6,13.4.4,1,.8,2,1.2,3.1,7.5,19,10.7,37.7,10.7,37.7h0l.2-.2h0Z"/>
        <path class="cls-10" d="M372.3,330.3c.4,1,.9,2,1.2,3.1-.4-1-.8-2-1.2-3.1Z"/>
        <path class="cls-10" d="M364.1,314.1c.6.9,1.1,1.8,1.7,2.8-.5-.9-1.1-1.9-1.7-2.8Z"/>
        <path class="cls-10" d="M357.6,305.3c1,1.1,2,2.3,2.9,3.5-1-1.2-1.9-2.4-2.9-3.5Z"/>
        <path class="cls-8" d="M337.1,214.1v-37.7h1.4c5.4,0,10.3,2.2,13.8,5.7,1.8,1.8,3.2,3.9,4.2,6.2.3.6.5,1.2.7,1.8.6,1.8.9,3.8.9,5.8,0,4.4-1.5,8.4-3.9,11.7-2.5,3.3-6,5.8-10.1,7.1-.5.1-.9.3-1.4.4h-.4c-.5.1-1.1.2-1.6.2s-1.4.1-2.1.1h-1.4v-1.4h-.1Z"/>
        <path class="cls-10" d="M355.5,303.1c.7.7,1.4,1.4,2,2.2-.7-.8-1.4-1.5-2-2.2Z"/>
        <path class="cls-9" d="M342.7,215c.5,0,.9-.2,1.4-.4-.5.1-.9.3-1.4.4Z"/>
        <path class="cls-9" d="M340.7,215.3c.5,0,1.1-.1,1.6-.2-.5.1-1.1.2-1.6.2Z"/>
        <path class="cls-7" d="M337.1,150.1v26.3h0v-26.3c0-2-.2-4.1-.6-6,.4,2,.6,4,.6,6h0Z"/>
        <path class="cls-10" d="M337.1,291.8h0c-.5-.2-1.1-.4-1.6-.6.5.2,1.1.4,1.6.6Z"/>
        <path class="cls-4" d="M337.1,215.5v76.4c-.5-.2-1.1-.4-1.6-.6-1.8-.7-3.7-1.3-5.6-1.8-.9-.2-1.8-.5-2.7-.7-.9-.2-1.8-.4-2.7-.6-4.9-1-10.4-1.7-16.3-1.9h-2.3l-.4-24.3h0c.4-.2.8-.3,1.1-.5q.1,0,0,0c.4-.2.7-.4,1.1-.5.2-.1.4-.2.6-.3.2,0,.4-.2.5-.3h0c.4-.2.7-.4,1.1-.6.2-.1.4-.2.6-.4.1,0,.3-.2.5-.3h0c.4-.2.7-.4,1-.6h0c.4-.2.7-.5,1-.7q.1,0,0,0c.3-.2.7-.5,1-.7h0c.3-.2.7-.5,1-.7h0c.5-.4,1-.7,1.4-1.1.5-.4,1-.8,1.5-1.2h0c.6-.5,1.2-1.1,1.9-1.6.1-.1.3-.3.4-.4.5-.4.9-.9,1.3-1.3h0c1.2-1.2,2.3-2.4,3.4-3.8.3-.3.5-.6.8-1h0c.3-.3.5-.7.8-1,.2-.3.5-.7.7-1h0l.7-1.1c.6-.9,1.2-1.9,1.8-2.8.2-.3.3-.5.5-.8,4.1-7.3,6.5-15.6,6.8-24.5v.7h.1Z"/>
        <path class="cls-9" d="M337.1,214.1v1.4h0v-1.4Z"/>
        <path class="cls-9" d="M337.1,213.4v1.4-1.4Z"/>
        <path class="cls-9" d="M337.1,176.9v37.1-37.7h0v.6h0Z"/>
        <path class="cls-9" d="M337.1,176.4h0Z"/>
        <path class="cls-7" d="M337.1,214.1v.7c-.2,8.9-2.6,17.2-6.8,24.5,4.2-7.5,6.6-16,6.8-25.2h0Z"/>
        <path class="cls-8" d="M305.5,261.8c-.4.2-.8.4-1.2.5-6.1,2.5-12.9,3.9-19.9,3.9s-15-1.6-21.5-4.6h0c-5.8-2.6-10.9-6.1-15.4-10.5-3.1-3.1-5.9-6.5-8.1-10.2-.3-.5-.6-1.1-.9-1.6-.6-1.1-1.2-2.2-1.7-3.4-.5-1.1-1-2.3-1.5-3.5s-.9-2.4-1.2-3.6c-1.5-4.9-2.3-10.1-2.3-15.4h0v-37c45.4-.6,71.3-15.2,71.3-15.2,0,1.1,0,2.1.3,3,0,.4.1.7.2,1.1.2.9.6,1.7,1,2.4.2.3.3.6.5.9,7.1,11.3,31.3,8,32.3,7.9h0v37.7c-.1,9.1-2.5,17.7-6.8,25.2-.1.3-.3.5-.5.8-.6,1-1.2,1.9-1.8,2.8-.2.4-.5.7-.7,1h0c-.2.4-.5.7-.7,1-.3.3-.5.7-.8,1h0c-.3.3-.5.7-.8,1-1.1,1.3-2.2,2.6-3.4,3.8-.3.3-.6.6-.9.9-.3.3-.6.6-.9.8-.6.6-1.2,1.1-1.9,1.6h0c-.3.3-.6.5-1,.8-.2.1-.4.3-.5.4-.5.4-.9.7-1.4,1h0c-.3.2-.7.5-1,.7h0c-.3.2-.7.5-1,.7h0c-.4.2-.7.4-1,.7h0c-.3.2-.7.4-1,.6h0c-.1,0-.3.2-.5.3-.2.1-.4.2-.6.4-.4.2-.7.4-1.1.6h0c-.2.1-.4.2-.5.3-.2.1-.4.2-.6.3-.4.2-.7.4-1.1.5h0c-.4.2-.7.3-1.1.5h-.3ZM316.1,196.1c0-3.4-2.7-6.1-6.1-6.1s-6.1,2.7-6.1,6.1,2.7,6.1,6.1,6.1,6.1-2.7,6.1-6.1ZM264.8,196.1c0-3.4-2.7-6.1-6.1-6.1s-6.1,2.7-6.1,6.1,2.7,6.1,6.1,6.1,6.1-2.7,6.1-6.1Z"/>
        <path class="cls-7" d="M335.7,140.6c.1.4.2.8.3,1.1-.1-.4-.2-.8-.3-1.1h0Z"/>
        <path class="cls-7" d="M329.9,240.1c-.6,1-1.2,1.9-1.8,2.8.6-.9,1.2-1.9,1.8-2.8Z"/>
        <path class="cls-7" d="M327.4,243.9h0Z"/>
        <path class="cls-7" d="M325.9,246h0Z"/>
        <circle class="cls-11" cx="310" cy="196.1" r="6.1"/>
        <path class="cls-8" d="M305.5,261.8l.4,24.3c-.4.3-.8.6-1.2.9-.4.3-.8.5-1.3.8-.8.5-1.7,1-2.6,1.4s-1.8.8-2.7,1.2c-2.7,1.1-5.5,1.8-8.3,2.3-1.9.3-3.8.4-5.7.4-4.1,0-8.2-.7-12.1-2-.9-.3-1.7-.6-2.6-1s-1.7-.8-2.5-1.2-.8-.5-1.2-.7c-.8-.5-1.6-1-2.4-1.5l-.4-25.1h0c6.6,2.9,13.9,4.5,21.5,4.5s13.8-1.4,19.9-3.9c.4-.2.8-.3,1.2-.5h0Z"/>
        <path class="cls-9" d="M305.5,261.8h0c-.4.2-.8.4-1.2.5.4-.2.8-.3,1.2-.5Z"/>
        <path class="cls-11" d="M258.7,190.1c3.4,0,6.1,2.7,6.1,6.1s-2.7,6.1-6.1,6.1-6.1-2.7-6.1-6.1,2.7-6.1,6.1-6.1Z"/>
        <path class="cls-4" d="M262.8,261.6l.4,25.1c-1.6,0-3.1,0-4.6.2-10.6.6-19.4,2.4-26.9,5.2v-.2h0v-76.4h0v-2.1c0,5.4.8,10.6,2.3,15.4.4,1.2.8,2.4,1.2,3.6.4,1.2.9,2.3,1.5,3.5s1.1,2.2,1.7,3.4c.3.5.6,1.1.9,1.6,2.3,3.7,5,7.2,8.1,10.2,4.4,4.4,9.6,7.9,15.4,10.5h0Z"/>
        <polygon class="cls-9" points="262.8 261.6 262.8 261.6 262.8 261.6 262.8 261.6"/>
        <path class="cls-9" d="M239.3,240.9c2.3,3.7,5,7.2,8.1,10.2-3.1-3-5.9-6.5-8.1-10.2Z"/>
        <path class="cls-9" d="M236.6,235.9c.5,1.1,1.1,2.2,1.7,3.4-.6-1.1-1.2-2.2-1.7-3.4Z"/>
        <path class="cls-9" d="M235.1,232.4c.5,1.2,1,2.3,1.5,3.5-.5-1.1-1-2.3-1.5-3.5Z"/>
        <path class="cls-9" d="M233.9,228.8c.4,1.2.8,2.4,1.2,3.6-.5-1.2-.9-2.4-1.2-3.6Z"/>
        <path class="cls-8" d="M231.6,213.4v2.1h-1.4c-2,0-4-.3-5.8-.9-2.6-.8-4.9-2.1-6.9-3.8-.4-.3-.8-.7-1.1-1-1.6-1.6-2.8-3.4-3.8-5.4-1.2-2.6-1.9-5.4-1.9-8.5s0-2,.2-3c.1-.6.2-1.3.4-1.9.2-.6.4-1.2.6-1.8.6-1.5,1.3-2.9,2.1-4.2,3.5-5.2,9.5-8.6,16.2-8.6h1.4v37h0Z"/>
        <polygon class="cls-9" points="231.6 176.4 231.6 176.4 231.6 176.4 231.6 176.4"/>
        <path class="cls-9" d="M231.6,176.4h-1.4c-6.8,0-12.7,3.4-16.2,8.6,3.5-5.2,9.5-8.6,16.2-8.6h1.4Z"/>
        <path class="cls-9" d="M210.6,195.9c0,3,.7,5.9,1.9,8.5-1.2-2.6-1.9-5.4-1.9-8.5s0-2,.2-3c-.1,1-.2,2-.2,3Z"/>
        <path class="cls-9" d="M211.8,189.2c-.2.6-.4,1.2-.6,1.8.2-.6.4-1.2.6-1.8Z"/>
        <path class="cls-9" d="M211.2,191c-.2.6-.3,1.3-.4,1.9,0-.6.2-1.3.4-1.9Z"/>
      </g>
      <g>
        <path class="cls-1" d="M263.2,286.7c-1.6,0-3.1,0-4.6.2-10.6.6-19.4,2.4-26.9,5.2-4.7,1.8-9,4-13,6.5-2.7,1.7-5.2,4-7.5,6.5-.3.4-.7.8-1,1.1-.7.8-1.3,1.6-1.9,2.4h0c-.6.8-1.2,1.7-1.8,2.5q-.3.4,0,0c-.6.9-1.2,1.8-1.8,2.6h0c-.6.9-1.1,1.8-1.7,2.8h0c-1.1,1.9-2.1,3.8-3.1,5.8-.8,1.5-1.5,3-2.1,4.5-9.3,20.9-13.4,44-13.4,44h102.8"/>
        <path class="cls-1" d="M287.3,371h96.9s-3.2-18.7-10.7-37.7c-.4-1-.8-2-1.2-3.1-1.9-4.6-4.1-9.2-6.6-13.4-.5-.9-1.1-1.9-1.7-2.8-1.1-1.8-2.4-3.6-3.6-5.2-1-1.2-1.9-2.4-2.9-3.5-.7-.8-1.4-1.5-2-2.2-1.8-1.7-3.6-3.2-5.5-4.5-3.9-2.6-8.2-4.9-12.9-6.8-.5-.2-1.1-.4-1.6-.6-1.8-.7-3.7-1.3-5.6-1.8-.9-.2-1.8-.5-2.7-.7-.9-.2-1.8-.4-2.7-.6-4.9-1-10.4-1.7-16.3-1.9h-2.3"/>
        <path class="cls-1" d="M305.5,261.8h0c.4-.2.8-.3,1.1-.5h0l1.1-.5c.2-.1.4-.2.6-.3.2,0,.4-.2.5-.3h0c.4-.2.7-.4,1.1-.6.2-.1.4-.2.6-.4.1,0,.3-.2.5-.3h0c.4-.2.7-.4,1-.6h0c.4-.2.7-.5,1-.7h0c.3-.2.7-.5,1-.7h0c.3-.2.7-.5,1-.7h0c.5-.4,1-.7,1.4-1.1.2-.1.4-.3.5-.4.3-.2.6-.5,1-.8h0c.6-.5,1.2-1.1,1.9-1.6.1-.1.3-.3.4-.4.2-.1.3-.3.5-.4.3-.3.6-.6.9-.9,1.2-1.2,2.3-2.4,3.4-3.8.3-.3.5-.6.8-1h0c.3-.3.5-.7.8-1,.2-.3.5-.7.7-1h0l.7-1.1c.6-.9,1.2-1.9,1.8-2.8.2-.3.3-.5.5-.8,4.1-7.3,6.5-15.6,6.8-24.5v-1.4"/>
        <path class="cls-1" d="M231.6,213.4c0,5.4.8,10.6,2.3,15.4.4,1.2.8,2.4,1.2,3.6s1,2.3,1.5,3.5c.5,1.1,1.1,2.2,1.7,3.4.3.5.6,1.1.9,1.6,2.3,3.7,5,7.2,8.1,10.2,4.4,4.4,9.6,7.9,15.4,10.5h0c6.6,3,13.9,4.6,21.5,4.6s13.8-1.4,19.9-3.9c.4-.2.8-.3,1.2-.5"/>
        <path class="cls-2" d="M231.6,176.4c45.4-.6,71.3-15.2,71.3-15.2,0,1.1,0,2.1.3,3,0,.4.1.7.2,1.1.2.9.6,1.7,1,2.4.2.3.3.6.5.9,7.1,11.3,31.3,8,32.3,7.9.6,0,.7,0,0,0h0v-26.3c0-2-.2-4.1-.6-6-.2-.8-.3-1.6-.5-2.3-.1-.4-.2-.8-.3-1.1-5.5-18-26.4-31.3-51.3-31.3s-45.8,13.4-51.3,31.3c-.9,3.1-1.4,6.2-1.4,9.5v26.3h0"/>
        <path class="cls-1" d="M231.6,215.5v-2.1h0v-37h-1.4c-6.8,0-12.7,3.4-16.2,8.6-.9,1.3-1.6,2.7-2.1,4.2-.2.6-.4,1.2-.6,1.8-.2.6-.3,1.3-.4,1.9-.1,1-.2,2-.2,3,0,3,.7,5.9,1.9,8.5,1,2,2.3,3.8,3.8,5.4s.7.7,1.1,1c2,1.7,4.3,3,6.9,3.8,1.8.6,3.8.9,5.8.9h1.4"/>
        <path class="cls-1" d="M337.1,215.5h1.4c.7,0,1.4,0,2.1-.1.5,0,1.1-.1,1.6-.2h.4c.5,0,.9-.2,1.4-.4,4.1-1.2,7.6-3.7,10.1-7.1,2.4-3.3,3.9-7.3,3.9-11.7s-.3-4-.9-5.8c-.2-.6-.4-1.2-.7-1.8-1-2.3-2.4-4.4-4.2-6.2h0c-3.5-3.5-8.4-5.7-13.8-5.7h-1.4v39.1h.1Z"/>
        <path class="cls-1" d="M305.5,261.7h0l.4,24.4c-.4.3-.8.6-1.2.9-.4.3-.8.5-1.3.8-.8.5-1.7,1-2.6,1.4s-1.8.8-2.7,1.2c-2.7,1.1-5.5,1.8-8.3,2.3-1.9.3-3.8.4-5.7.4-4.1,0-8.2-.7-12.1-2-.9-.3-1.7-.6-2.6-1s-1.7-.8-2.5-1.2-.8-.5-1.2-.7c-.8-.5-1.6-1-2.4-1.5l-.4-25.1"/>
        <line class="cls-3" x1="337.4" y1="351" x2="337.4" y2="370.8"/>
        <line class="cls-3" x1="337.1" y1="215.5" x2="337.1" y2="291.8"/>
        <polyline class="cls-1" points="231.6 215.5 231.6 215.5 231.6 291.8"/>
        <path class="cls-1" d="M304,220.7c0,10.9-8.8,19.7-19.7,19.7s-19.7-8.8-19.7-19.7"/>
      </g>
    </g>
    <g>
      <g>
        <g>
          <path class="cls-4" d="M102.6,371h-45.2s9.4-54.2,32.8-69.5c10.7-7,24-11,42.7-11.4,6.1,4.1,13.1,6.1,20.1,6.1s14.6-2.2,20.9-6.7c18.7.4,31.6,4.9,42.3,12,23.6,15.7,32.8,69.5,32.8,69.5H102.6Z"/>
          <path class="cls-8" d="M218.5,189.8c3.4,3.4,5.5,8.1,5.5,13.3,0,10.4-8.4,18.7-18.8,18.7h-1.4v-37.5h1.4c5.2,0,9.9,2.1,13.3,5.5Z"/>
          <path class="cls-8" d="M173.5,266.2c-6.2,2.7-13.1,4.2-20.3,4.2s-14.3-1.6-20.6-4.4c-5.7-2.5-10.8-6.1-15.1-10.4-9.2-9.2-14.8-21.8-14.8-35.8v-35.5s32.9,4.9,32.9-14.6c0,0,24.9,14.1,68.4,14.6v35.5c0,20.8-12.5,38.6-30.4,46.4h-.1ZM182.1,204.2c0-3.1-2.5-5.5-5.5-5.5s-5.5,2.5-5.5,5.5,2.5,5.5,5.5,5.5,5.5-2.5,5.5-5.5ZM135.4,204.2c0-3.1-2.5-5.5-5.5-5.5s-5.5,2.5-5.5,5.5,2.5,5.5,5.5,5.5,5.5-2.5,5.5-5.5Z"/>
          <path class="cls-11" d="M176.6,198.7c3.1,0,5.5,2.5,5.5,5.5s-2.5,5.5-5.5,5.5-5.5-2.5-5.5-5.5,2.5-5.5,5.5-5.5Z"/>
          <path class="cls-8" d="M173.5,266.2l.4,23.3c-6.2,4.5-13.6,6.7-20.9,6.7s-14-2-20.1-6.1l-.4-24h0c6.3,2.8,13.3,4.4,20.7,4.4s14.1-1.5,20.3-4.2h0Z"/>
          <path class="cls-11" d="M129.9,198.7c3.1,0,5.5,2.5,5.5,5.5s-2.5,5.5-5.5,5.5-5.5-2.5-5.5-5.5,2.5-5.5,5.5-5.5Z"/>
          <path class="cls-8" d="M102.6,184.9v37h-1.4c-5.2,0-9.9-2.1-13.3-5.5s-5.5-8.1-5.5-13.3c0-10.4,8.4-18.8,18.7-18.8h1.4v.5h.1Z"/>
        </g>
        <g>
          <path class="cls-1" d="M133,290.1c-18.7.4-31.9,4.4-42.7,11.4-23.4,15.3-32.8,69.5-32.8,69.5h98.6"/>
          <path class="cls-1" d="M156.1,371h93s-9.2-53.8-32.8-69.5c-10.7-7.1-23.6-11.6-42.3-12"/>
          <path class="cls-1" d="M203.9,219.8c0,20.8-12.5,38.6-30.4,46.4-6.2,2.7-13.1,4.2-20.3,4.2s-14.3-1.6-20.6-4.4c-5.7-2.5-10.8-6.1-15.1-10.4-9.2-9.2-14.8-21.8-14.8-35.8"/>
          <path class="cls-1" d="M102.6,184.3h-1.4c-10.3,0-18.7,8.4-18.7,18.8s2.1,9.9,5.5,13.3,8.1,5.5,13.3,5.5h1.4v-37.5h-.1Z"/>
          <path class="cls-1" d="M203.9,219.8v2h1.4c10.4,0,18.8-8.4,18.8-18.7s-2.1-9.9-5.5-13.3-8.1-5.5-13.3-5.5h-1.4v35.5Z"/>
          <g>
            <path class="cls-6" d="M135.5,169.7c0,19.5-32.9,14.6-32.9,14.6v-34.4c0-12.2,10-22.2,22.3-22.2s2.3,0,3.4.3c7.3-11.4,11.9-19,34.6-19s41,18.4,41,41v34.3c-43.5-.5-68.4-14.6-68.4-14.6Z"/>
            <g>
              <path class="cls-1" d="M102.7,149.9v34.4s32.8,4.9,32.8-14.6c0,0,24.9,14.1,68.4,14.6"/>
              <path class="cls-1" d="M102.7,149.9c0-12.2,9.9-22.2,22.2-22.2s2.3,0,3.4.3c7.3-11.4,11.9-19,34.6-19s41,18.4,41,41v34.3"/>
            </g>
          </g>
          <path class="cls-1" d="M173.5,266.2h0l.4,23.4c-6.2,4.5-13.6,6.7-20.9,6.7s-14-2-20.1-6.1l-.4-24"/>
          <line class="cls-1" x1="102.6" y1="352.1" x2="102.6" y2="371"/>
        </g>
      </g>
      <path class="cls-1" d="M173.8,232.2c-11.4,11.4-29.8,11.4-41.1,0"/>
    </g>
    <g>
      <path class="cls-2" d="M382.2,308.1h0c-4-3-9.5-3-13.5,0h0c-6,4.5-14.6,2-17.3-5.1h0c-1.7-4.7-6.4-7.6-11.3-7.3h0c-7.5.5-13.4-6.3-11.8-13.6h0c1.1-4.9-1.2-9.9-5.6-12.2h0c-6.6-3.6-7.9-12.5-2.6-17.8h0c3.5-3.5,4.3-8.9,1.9-13.3h0c-3.6-6.6.1-14.8,7.5-16.4h0c4.9-1.1,8.5-5.2,8.8-10.2h0c.5-7.5,8.1-12.3,15.1-9.7h0c4.7,1.7,9.9.2,12.9-3.8h0c4.5-6,13.5-6,18,0h0c3,4,8.2,5.5,12.9,3.8h0c7-2.6,14.6,2.2,15.1,9.7h0c.4,5,4,9.1,8.8,10.2h0c7.3,1.6,11.1,9.8,7.5,16.4h0c-2.4,4.4-1.6,9.8,1.9,13.3h0c5.3,5.3,4,14.2-2.6,17.8h0c-4.4,2.4-6.6,7.4-5.6,12.2h0c1.6,7.3-4.3,14.1-11.8,13.6h0c-5-.4-9.6,2.6-11.3,7.3h0c-2.6,7-11.3,9.6-17.3,5.1h.3Z"/>
      <g>
        <g>
          <path class="cls-6" d="M342.5,371.1h-29.3s6.1-35.2,21.3-45.1c7-4.6,15.6-7.2,27.7-7.4,3.9,2.6,8.5,4,13,4s9.5-1.5,13.5-4.3c12.1.2,20.5,3.2,27.5,7.8,15.4,10.2,21.3,45.1,21.3,45.1h-95.1.1Z"/>
          <path class="cls-8" d="M388.5,303c-4,1.8-8.5,2.8-13.2,2.8s-9.3-1-13.4-2.9c-3.7-1.6-7-4-9.8-6.8-6-5.9-9.6-14.2-9.6-23.2v-18.8c0-5.3,5.2-9.1,10.2-7.3.8.3,1.7.7,2.6,1.3,1.9,1.2,4,1.8,6.1,1.8,4.5,0,8.8-2.7,10.5-7.2.8-2.1,2.1-3.6,3.8-4.7,1.7-1.1,3.8-1.9,6.1-2.5,0,0,10.4-2.9,18.9,1.3,4.6,2.3,7.5,7.1,7.5,12.3v24c0,13.5-8.1,25-19.7,30.1h0v-.2ZM394.1,262.7c0-2-1.6-3.6-3.6-3.6s-3.6,1.6-3.6,3.6,1.6,3.6,3.6,3.6,3.6-1.6,3.6-3.6ZM363.8,262.7c0-2-1.6-3.6-3.6-3.6s-3.6,1.6-3.6,3.6,1.6,3.6,3.6,3.6,3.6-1.6,3.6-3.6Z"/>
          <circle class="cls-11" cx="390.5" cy="262.7" r="3.6"/>
          <path class="cls-8" d="M388.5,303l.2,15.2c-4,2.9-8.8,4.3-13.5,4.3s-9.1-1.3-13-4l-.3-15.6h0c4.1,1.8,8.6,2.8,13.4,2.8s9.1-1,13.2-2.8h0Z"/>
          <path class="cls-11" d="M360.2,259.1c2,0,3.6,1.6,3.6,3.6s-1.6,3.6-3.6,3.6-3.6-1.6-3.6-3.6,1.6-3.6,3.6-3.6Z"/>
        </g>
        <g>
          <path class="cls-1" d="M362.2,318.5c-12.1.2-20.8,2.9-27.7,7.4-15.2,9.9-21.3,45.1-21.3,45.1h64"/>
          <path class="cls-1" d="M377.2,371.1h60.4s-6-34.9-21.3-45.1c-6.9-4.6-15.3-7.5-27.5-7.8"/>
          <path class="cls-1" d="M388.5,303h0l.2,15.2c-4,2.9-8.8,4.3-13.5,4.3s-9.1-1.3-13-4l-.3-15.6"/>
          <line class="cls-1" x1="342.5" y1="358.7" x2="342.5" y2="371.1"/>
          <line class="cls-1" x1="408.4" y1="358.6" x2="408.4" y2="370.9"/>
          <path class="cls-1" d="M383.6,286.3c-4.4,4.7-11.7,4.9-16.4.5"/>
          <path class="cls-1" d="M381.9,235.4s10.4-2.9,18.9,1.3c4.6,2.3,7.5,7.1,7.5,12.3v24c0,13.5-8.1,25-19.7,30.1-4,1.8-8.5,2.8-13.2,2.8s-9.3-1-13.4-2.9c-3.7-1.6-7-4-9.8-6.8-6-5.9-9.6-14.2-9.6-23.2v-18.8c0-5.3,5.2-9.1,10.2-7.3.8.3,1.7.7,2.6,1.3,1.9,1.2,4,1.8,6.1,1.8,4.5,0,8.8-2.7,10.5-7.2.8-2.1,2.1-3.6,3.8-4.7,1.7-1.1,3.8-1.9,6.1-2.5"/>
        </g>
      </g>
    </g>
  </g>
</svg>