<?xml version="1.0" encoding="UTF-8"?>
<svg xmlns="http://www.w3.org/2000/svg" viewBox="0 0 500 500">
  <defs>
    <style>
      .cls-1 {
        fill: #00ab9b;
        stroke-width: 0px;
      }

      .cls-2 {
        fill: none;
        stroke-linecap: round;
      }

      .cls-2, .cls-3, .cls-4 {
        stroke: #231f20;
        stroke-miterlimit: 10;
        stroke-width: 5px;
      }

      .cls-3 {
        fill: #078b7c;
      }

      .cls-4 {
        fill: #b6e1df;
      }
    </style>
  </defs>
  <g id="Layer_2" data-name="Layer 2">
    <rect class="cls-1" x="0" y="-.27" width="500" height="500"/>
  </g>
  <g id="Layer_1" data-name="Layer 1">
    <g>
      <path class="cls-3" d="M206.95,355.08c-.42-2.08-.76-5.92-.76-7.17,0-1.87.36-3.17,1.09-3.9.73-.73,1.4-1.09,2.03-1.09,5.4-1.04,9.77-2.23,13.1-3.59,3.32-1.35,4.99-3.38,4.99-6.08,0-1.25-.42-2.81-1.25-4.68l-19.64-51.45h-69.53l-19.96,50.2c-1.04,2.49-1.56,4.57-1.56,6.24,0,4.37,6.34,7.48,19.02,9.35,1.45.21,2.44.78,2.96,1.71.52.94.78,2.03.78,3.27s-.21,5.12-.62,7.19M74.75,355.1c-.42-1.66-.45-5.53-.45-7.19,0-1.45.26-2.7.78-3.74.52-1.04,1.61-1.66,3.27-1.87,6.44-1.04,11.27-2.34,14.5-3.9,3.22-1.56,5.56-4,7.02-7.33l75.14-180.84c1.45-3.53,3.43-5.3,5.92-5.3.83,0,2.08.21,3.74.62l75.46,186.46c1.25,2.91,4.05,5.2,8.42,6.86,4.37,1.67,8.62,2.81,12.78,3.43,1.25.42,2.23.99,2.96,1.71.73.73,1.09,2.03,1.09,3.9,0,1.25-.39,5.1-.81,7.17M201.51,264.34l-29-76.39-30.24,76.39h59.24Z"/>
      <path class="cls-4" d="M421.96,342.92c2.28,0,3.53,2.18,3.74,6.55-5.41,3.74-12.27,5.61-20.58,5.61-4.6,0-8.58-.68-11.95-2.03-3.37-1.35-6.21-3.17-8.53-5.46-2.32-2.28-4.11-4.88-5.37-7.8-1.27-2.91-2.11-5.92-2.53-9.04-5.2,9.35-11.38,15.75-18.55,19.18-7.17,3.43-15.43,5.14-24.79,5.14-4.16,0-8.57-.37-13.25-1.09-4.68-.73-9.1-2.24-13.25-4.52-4.16-2.29-7.59-5.51-10.29-9.67-2.7-4.16-4.05-9.67-4.05-16.53,0-7.69,1.82-14.19,5.46-19.49,3.63-5.3,8.31-9.67,14.03-13.1,5.71-3.43,11.95-6.18,18.71-8.26,6.75-2.08,13.25-3.84,19.49-5.3,3.53-.62,6.81-1.3,9.82-2.03,3.01-.73,5.66-1.51,7.95-2.34,2.91-.83,4.73-1.97,5.46-3.43.73-1.45,1.09-4.26,1.09-8.42,0-9.77-1.87-17.82-5.61-24.16-3.74-6.34-10.4-9.51-19.96-9.51-3.54,0-6.55.42-9.04,1.25-2.49.83-4.57,2.13-6.24,3.9-1.67,1.77-3.12,4.11-4.37,7.02-1.25,2.91-2.49,6.34-3.74,10.29-.62,2.29-2.03,3.95-4.21,4.99-2.18,1.04-5.88,2.29-11.07,3.74-1.25.42-2.81.83-4.68,1.25-1.87.42-3.43.62-4.68.62-2.08,0-3.12-2.18-3.12-6.55s1.76-9.14,5.3-13.72c3.53-4.57,8.05-8.62,13.56-12.16,5.51-3.53,11.48-6.39,17.93-8.57,6.44-2.18,12.57-3.27,18.4-3.27,7.27,0,13.84.62,19.68,1.87,5.85,1.25,10.87,3.54,15.08,6.86,4.21,3.33,7.42,7.8,9.63,13.41,2.21,5.61,3.31,12.89,3.31,21.83v53.63c0,7.28.26,12.53.78,15.75.52,3.23,1.3,5.77,2.34,7.64,1.45,2.91,3.06,4.83,4.83,5.77,1.76.94,3.59,1.4,5.46,1.4,2.28,0,3.9-.2,4.83-.62.94-.41,1.92-.62,2.96-.62ZM374.57,282.12l-10.04,1.56c-5.44,1.04-10.72,2.29-15.84,3.74-5.13,1.46-9.67,3.48-13.64,6.08-3.98,2.6-7.16,5.88-9.57,9.82-2.41,3.95-3.61,8.84-3.61,14.65,0,7.9,2.04,13.93,6.11,18.08,4.08,4.16,9.15,6.24,15.21,6.24,3.97,0,7.89-.88,11.76-2.65,3.87-1.76,7.21-4.26,10.04-7.48,2.83-3.22,5.13-7.02,6.9-11.38,1.77-4.37,2.66-9.14,2.66-14.34v-24.32Z"/>
    </g>
    <g>
      <line class="cls-2" x1="47.96" y1="144.92" x2="452.04" y2="144.92"/>
      <line class="cls-2" x1="47.96" y1="355.08" x2="452.04" y2="355.08"/>
    </g>
  </g>
</svg>