<?xml version="1.0" encoding="UTF-8"?>
<svg id="Layer_1" data-name="Layer 1" xmlns="http://www.w3.org/2000/svg" version="1.1" viewBox="0 0 500 500">
  <defs>
    <style>
      .cls-1 {
        fill: none;
        stroke: #231f20;
        stroke-linecap: round;
        stroke-miterlimit: 10;
        stroke-width: 5px;
      }

      .cls-2 {
        fill: #65abd4;
      }

      .cls-2, .cls-3, .cls-4, .cls-5, .cls-6, .cls-7, .cls-8 {
        stroke-width: 0px;
      }

      .cls-3 {
        fill: #a1cbe5;
      }

      .cls-4 {
        fill: #d2cfe1;
      }

      .cls-5 {
        fill: #3579a3;
      }

      .cls-6 {
        fill: #224d68;
      }

      .cls-7 {
        fill: #c8e0ee;
      }

      .cls-8 {
        fill: #4197cb;
      }
    </style>
  </defs>
  <g id="Layer_2" data-name="Layer 2">
    <rect class="cls-8" width="500" height="500"/>
  </g>
  <g>
    <g>
      <path class="cls-6" d="M434.3,340.3c0,1.5,0,3-.3,4.5l-1.8,8.8-9.8-.7c-4.7-.3-9.4-1.4-13.8-3.1-5.8-2.2-11.9-3.3-18.1-3.2-43.2.9-85.5,7.3-117.1,13.3-2-6.9-4.9-12.9-8.4-18.2,4.2.2,8.4,0,12.6-.9,24.3-4.8,44.3-8.2,60.8-10.6,46.1-6.6,65.8-5.4,77.3-5.9,5.3-.2,9.2,1.2,12,3.3,3.6,2.6,5.8,6.5,6.5,10.8h0c.1,1.3.2,1.9.2,1.9h0Z"/>
      <path class="cls-2" d="M425.3,284.6c2.6,1.7,4.5,4.2,4.7,7.8.7,10.7,3.3,38.5,4.1,46-.7-4.3-2.9-8.2-6.5-10.8-2.9-2.1-6.8-3.5-12-3.3-11.5.5-31.2-.6-77.3,5.9,0,0,8.7-22.1,23.6-33.2,2.7-2,5.7-3.7,8.8-4.8,14.4-5,27.5-8.6,33.8-10.3,3.4-.9,6.9-1.2,10.3-.8,3.4.4,7.4,1.3,10.5,3.3Z"/>
      <path class="cls-4" d="M432.1,353.6v20c0,3.8-2,7.3-5.3,9.2l-7.8,4.5c-2,1.2-4.2,1.9-6.5,2.2-11.2,1.4-48.1,5.6-94.2,8.1h-127c-29.2-2.1-56.7-6.2-78.9-13.2l.5-1.7c2.2.5,4.6.9,7,1.1,14.1,1.3,30.9-2.3,49.2-9.2,1.7-.6,3.3-1.3,5-2,1.6-.7,3.3-1.4,5-2.1,20.9.6,38.4.5,44.8-.5,7.6-1.3,25.4-5.5,49.3-10,31.6-6,73.9-12.4,117.1-13.3,6.2-.1,12.3,1,18.1,3.2,4.4,1.7,9.1,2.7,13.8,3.1l9.8.7Z"/>
      <path class="cls-3" d="M421.5,272.2l3.8,12.4c-3.1-2-7.1-2.9-10.5-3.3-3.4-.4-6.9-.1-10.3.8-6.3,1.7-19.4,5.3-33.8,10.3-3.1,1.1-6.1,2.7-8.8,4.8,0,0-24.9-3.3-51.2-10.3,1-.8,2-1.6,3.1-2.4l2.5-2c2.5-2,5-4,7.4-5.9.7-.5,1.4-1.1,2-1.6,14.5,6.1,23.9,6.2,23.9,6.2,15.8,1.5,31.3-9.6,40.3-17.7,3.6-3.3,8.3-5,13-5s4.6.4,6.9,1.3c5.6,2.1,10,6.7,11.7,12.5Z"/>
      <path class="cls-4" d="M414,179.9c2.2,3,2.7,7.1,1.1,10.5l-3.6,8.3c-.8,1.8-1.9,3.5-3.4,5-.2.2-.4.4-.6.6-4,3.7-12.3,11.4-23.9,21.7-5.3,4.7-11.2,9.9-17.7,15.4-7.8,6.7-16.4,13.9-25.5,21.5-4.7,3.9-9.6,7.9-14.6,11.9-6-2.5-12.8-6.1-20.2-11.1-8.2-5.5-13.6-9.5-17.2-12.4,1.6-1.7,3.3-3.4,5-5.1,1.6-1.6,3.2-3.2,4.9-4.9,19-19,41.6-39.8,66.3-58.6,4.9-3.8,10.5-6.5,16.5-8.1,4.6-1.2,9-3.1,13-5.7l8.3-5.2,11.8,16.2Z"/>
      <path class="cls-7" d="M407.5,204.4c.2-.2.4-.4.6-.6-.2.2-.4.4-.6.6-4,3.7-12.3,11.4-23.9,21.7,11.6-10.3,20-18,23.9-21.7Z"/>
      <path class="cls-7" d="M402.2,163.8h0s0,0,0,0Z"/>
      <path class="cls-7" d="M402.2,163.8h0s-8.3,5.2-8.3,5.2c-4,2.5-8.4,4.4-13,5.7-6,1.6-11.6,4.4-16.5,8.1-24.7,18.8-47.4,39.7-66.3,58.6,18.9-19,41.6-39.8,66.3-58.7,4.9-3.8,10.5-6.5,16.5-8.1,4.6-1.2,9-3.2,13-5.7l8.3-5.2h0Z"/>
      <path class="cls-6" d="M402.2,163.8l-8.3,5.2c-4,2.5-8.4,4.4-13,5.7-6,1.6-11.6,4.4-16.5,8.1-24.7,18.8-47.4,39.7-66.3,58.7-1.7,1.7-3.3,3.3-4.9,4.9-1.7,1.7-3.4,3.4-5,5.1-.6-.4-1.1-.9-1.6-1.3-3.6-3-8.9-3-12.5,0l-7.2,5.8c-2.3-1.2-4.6-2.2-6.9-3,3.5-2.3,6.8-5,9.6-8.1,16.8-18.2,30.9-32.7,42.9-44.4,4.7-4.6,9.1-8.7,13.1-12.5.5-.4.9-.8,1.4-1.2,23.9-22.1,36.9-30.6,44.5-36.7,4.1-3.3,8.1-4.4,11.6-4.5,1.4,0,2.7.2,4,.5,2.6.7,5,2,7,3.8.2.2.3.3.5.5s0,0,0,0h0c0,0,0,0,0,0,.8.9,1.2,1.4,1.2,1.4.9,1.2,1.7,2.4,2.4,3.8l3.7,8.2Z"/>
      <path class="cls-2" d="M394.8,150.2s0,0,0,0c-.2-.2-.3-.3-.5-.5.1.1.3.3.4.4s0,0,0,0Z"/>
      <path class="cls-2" d="M394.7,150.2c-.1-.1-.3-.3-.4-.4-2-1.8-4.4-3.1-7-3.8-1.3-.3-2.7-.5-4.1-.5s-.4,0-.6,0c.2,0,.4,0,.7,0,4.4,0,8.4,1.8,11.5,4.8Z"/>
      <path class="cls-2" d="M394.7,150.2c-3-3-7.1-4.8-11.5-4.8-.2,0-.4,0-.7,0h0c-.6,0-1.3,0-1.9.2,0,0-.1,0-.2,0-.9.2-1.8.4-2.7.7-1.2.4-2.5,1-3.7,1.8-.4.2-.8.5-1.2.8-.4.2-.7.5-1.1.8-7.5,6-20.1,14.3-43.2,35.5-1.3,1.2-2.6,2.4-4,3.7-3.7,3.4-7.6,7.1-11.7,11.2,0-.2-.7-2.8-1.4-6.9-1.4-8.2-2.7-22.1,1-33.8,1-3.2,2.4-6.3,4.3-9l.8-1.2s0,0,0,0c.8-1.2,1.6-2.3,2.4-3.4,0,0,0,0,0,0,.3-.4.5-.7.8-1.1,0,0,0,0,0,0,.3-.4.5-.7.8-1.1,0,0,0,0,0,0,.5-.7,1.1-1.4,1.6-2.1t0,0c4.4-6,8.5-11.3,11.6-15.2t0,0c0,0,.1-.2.2-.3.2-.3.4-.5.6-.8,0,0,.1-.2.2-.3t0,0c0,0,.1-.1.2-.2.4-.5.9-1.1,1.2-1.5,0,0,0,0,0,0,.3-.4.6-.7.8-1,.5-.7,1.1-1.3,1.7-1.9,1.8-1.9,3.9-3.5,6.1-4.8,2-1.1,4.4-2.3,7-2.9,1.1-.3,2.3-.5,3.4-.6h0s0,0,0,0c2.7-.1,5.4.5,7.5,2.6.3.3.6.6.8.9,6.8,8.2,25.1,28.8,30.3,34.7Z"/>
      <path class="cls-2" d="M380.6,145.6c.6-.1,1.3-.2,1.9-.2-.6,0-1.3.1-1.9.2Z"/>
      <path class="cls-2" d="M377.6,146.4c.9-.3,1.9-.6,2.7-.7-.9.2-1.8.4-2.7.7Z"/>
      <path class="cls-2" d="M372.7,149c.4-.3.8-.6,1.2-.8-.4.2-.8.5-1.2.8Z"/>
      <path class="cls-7" d="M365.9,241.5c6.5-5.6,12.4-10.8,17.7-15.4-5.3,4.7-11.2,9.9-17.7,15.4Z"/>
      <path class="cls-3" d="M345.6,104.2l10.4,7.8c-.7,0-1.4.1-2.1.3-.2,0-.5.1-.7.1-2.8.6-5.5,1.9-7.6,3.1-2.3,1.3-4.3,2.9-6.1,4.8-.6.6-1.2,1.2-1.7,1.9-.3.3-.5.7-.8,1h0c-.4.5-.8,1-1.2,1.5,0,0-.1.2-.2.2s0,0,0,0c0,0-.1.2-.2.3-.2.2-.4.5-.6.8,0,0-.1.2-.2.3,0,0,0,0,0,0-3.1,3.9-7.1,9.1-11.5,15.1,0,0,0,0,0,0-.5.7-1,1.4-1.6,2.1,0,0,0,0,0,0-.3.4-.5.7-.8,1.1,0,0,0,0,0,0-.3.4-.5.7-.8,1.1,0,0,0,0,0,0-.8,1.1-1.6,2.3-2.4,3.4,0,0,0,0,0,0-.3.4-.5.8-.8,1.1-1.9,2.7-3.3,5.8-4.3,9h0s0,0,0,0c0,0,0,0,0,0h0s0,0,0,0h0s0,0,0,0h0s0,0,0,0h0s0,0-.1,0t0,0s0,0-.1,0c0,0,0,0,0,0,0,0-.1,0-.2,0t0,0s-.1,0-.2,0h0c0,0-.1,0-.2.1h0c0,0-.1,0-.2.1,0,0,0,0,0,0,0,0-.2,0-.2.1h0c0,0-.2,0-.3.1,0,0,0,0,0,0-.1,0-.2.1-.3.1h0c-.2.1-.4.2-.6.3h0c-.1,0-.2.1-.3.2,0,0,0,0,0,0-.1,0-.2.1-.4.2h0c-.1,0-.2.1-.4.2h0c-.1,0-.3.2-.4.2h0c-.1,0-.3.2-.4.2h0c-.1,0-.3.2-.4.2,0,0,0,0,0,0-.1,0-.3.2-.4.2t0,0l-.5.2h0c-.2,0-.3.2-.5.2,0,0,0,0,0,0-.2,0-.3.2-.5.2h0c-.2.1-.4.2-.5.3t0,0c-.2,0-.4.2-.5.3h0c-.2.1-.4.2-.6.3,0,0,0,0,0,0-.4.2-.8.4-1.2.6,0,0,0,0,0,0-.4.2-.8.4-1.2.6,0,0,0,0,0,0-.2.1-.4.2-.6.3h0c-.4.2-.9.4-1.3.6t0,0c-.2.1-.4.2-.7.3h0c-.2.1-.5.2-.7.3h0c-.5.2-1,.5-1.4.7h0c-.2.1-.5.2-.7.4h0c-.2.1-.5.2-.7.4h0c-.5.2-1,.5-1.5.7h0c-.3.1-.5.2-.8.4h0c-.3.1-.5.3-.8.4h0c-.3.1-.5.3-.8.4h0c-.5.3-1.1.5-1.6.8h0c-.3.1-.5.3-.8.4h0c-.6.3-1.1.5-1.7.8t0,0c-1.2.5-2.3,1.1-3.5,1.6h0c-10.3,4.6-22.2,9.5-34,13.4-.7.2-1.4.4-2.1.7t0,0c-.7.2-1.4.4-2.1.6t0,0c-1.4.4-2.8.8-4.1,1.2,0,0,0,0,0,0-.7.2-1.4.4-2,.6,0,0,0,0,0,0-.7.2-1.4.4-2,.5,0,0,0,0,0,0-2.7.7-5.4,1.3-8,1.9-7.6,1.5-14.6,2.2-20.5,1.7l5.7-21.2c1.2-4.6,5.5-7.6,10.2-7.4,4.6.3,11.8.4,23.2,0,30.6-1.1,45.8-12.1,45.8-12.1,13.7-8.1,19.6-26.1,22.1-38.1,1-4.8,3.7-8.9,7.6-11.7,1.9-1.4,4-2.4,6.3-3,3.8-1.1,7.7-.9,11.3.3.5.2,1,.3,1.4.6,1.4.6,2.8,1.4,4.1,2.3Z"/>
      <path class="cls-5" d="M361.9,297.1c-15,11.1-23.6,33.2-23.6,33.2-16.6,2.4-36.6,5.7-60.8,10.6-4.1.8-8.4,1.1-12.6.9-3.3-5.1-7.2-9.4-11.5-13.2.6-.4,1.1-.8,1.7-1.1,1.8-1.2,3.7-2.5,5.5-3.7,1.8-1.3,3.7-2.5,5.5-3.8,1.8-1.3,3.6-2.6,5.5-3.8.9-.7,1.8-1.3,2.7-1.9,1.8-1.3,3.6-2.6,5.4-3.9,5.4-3.9,10.8-7.9,16-11.9,1.8-1.3,3.5-2.6,5.2-4,3.3-2.5,6.6-5,9.8-7.5,26.4,6.9,51.2,10.3,51.2,10.3Z"/>
      <path class="cls-7" d="M340.4,263c9.2-7.6,17.8-14.8,25.5-21.5-7.8,6.7-16.4,13.9-25.5,21.5Z"/>
      <path class="cls-3" d="M341.6,101.9c-.5-.2-1-.4-1.4-.6.5.2,1,.3,1.4.6Z"/>
      <path class="cls-2" d="M339.5,120.3s0,0,0,0c-.6.6-1.2,1.3-1.7,1.9-.3.3-.5.7-.8,1,.3-.4.6-.7.8-1,.5-.7,1.1-1.3,1.7-1.9Z"/>
      <path class="cls-3" d="M336.9,123.2s0,0,0,0c0,0,0,0,0,0h0Z"/>
      <path class="cls-2" d="M336.9,123.2s0,0,0,0c-.4.5-.8,1-1.2,1.5.4-.5.8-1,1.2-1.5Z"/>
      <path class="cls-3" d="M335.5,125s0,0,0,0c0,0,0,0,0,0,0,0,0,0,0,0Z"/>
      <path class="cls-2" d="M335.5,125c0,0-.1.2-.2.3,0,0,.1-.2.2-.3,0,0,0,0,0,0Z"/>
      <path class="cls-2" d="M334.7,126c.2-.3.4-.5.6-.8-.2.2-.4.5-.6.8Z"/>
      <path class="cls-3" d="M340.1,101.3c-3.6-1.2-7.6-1.3-11.3-.3-2.3.6-4.4,1.7-6.3,3-3.8,2.8-6.6,6.9-7.6,11.7-2.5,11.9-8.5,30-22.1,38.1,0,0-15.2,11-45.8,12.1-11.5.4-18.7.3-23.2,0-4.7-.3-8.9,2.8-10.2,7.4l-5.7,21.2h0l5.7-21.2c1.2-4.5,5.5-7.6,10.2-7.3,4.6.3,11.8.4,23.2,0,30.6-1.1,45.8-12.1,45.8-12.1,13.7-8.1,19.6-26.1,22.1-38,1-4.8,3.7-8.9,7.5-11.7,1.9-1.4,4-2.4,6.3-3,3.8-1,7.7-.9,11.3.3Z"/>
      <path class="cls-3" d="M334.5,126.3s0,0,0,0c0,0,0,0,0,0,0,0,0,0,0,0Z"/>
      <path class="cls-2" d="M334.4,126.3s0,0,0,0c-3.1,3.9-7.1,9.1-11.6,15.2,4.4-6,8.5-11.3,11.5-15.1Z"/>
      <path class="cls-2" d="M328.4,185.3c-.4.4-.9.8-1.3,1.2-.5.4-.9.8-1.4,1.2-.5.4-.9.8-1.4,1.2,1.4-1.3,2.7-2.5,4-3.7Z"/>
      <path class="cls-7" d="M325.7,274.9c5-4,9.9-8,14.6-11.9-4.7,3.9-9.6,7.9-14.6,11.9Z"/>
      <path class="cls-3" d="M325.7,274.9c-.7.5-1.3,1.1-2,1.6-2.4,2-4.9,3.9-7.4,5.9l-2.5,2c-1,.8-2,1.6-3.1,2.4-14.8-3.9-30-8.9-41.6-15,.8-.9,1.7-1.8,2.6-2.8,1.4-1.6,2.9-3.2,4.5-4.8.5-.5,1-1.1,1.5-1.6h0c3.4-3.6,6.9-7.3,10.7-11.2,3.6,2.9,9,6.9,17.2,12.4,7.4,5,14.3,8.6,20.2,11.1Z"/>
      <path class="cls-3" d="M322.9,141.5s0,0,0,0c0,0,0,0,0,0,0,0,0,0,0,0Z"/>
      <path class="cls-2" d="M322.9,141.5s0,0,0,0c-.5.7-1,1.4-1.6,2.1.5-.7,1-1.4,1.6-2.1Z"/>
      <path class="cls-3" d="M321.3,143.6s0,0,0,0h0s0,0,0,0Z"/>
      <path class="cls-2" d="M321.3,143.6c-.3.4-.5.7-.8,1.1.3-.4.5-.7.8-1.1h0Z"/>
      <path class="cls-3" d="M320.5,144.7s0,0,0,0c0,0,0,0,0,0,0,0,0,0,0,0Z"/>
      <path class="cls-2" d="M320.5,144.7c-.3.4-.5.7-.8,1.1.3-.4.5-.7.8-1.1,0,0,0,0,0,0Z"/>
      <path class="cls-3" d="M319.7,145.9s0,0,0,0c0,0,0,0,0,0,0,0,0,0,0,0Z"/>
      <path class="cls-2" d="M319.7,145.9s0,0,0,0c-.8,1.1-1.6,2.3-2.4,3.4.8-1.2,1.6-2.3,2.4-3.4Z"/>
      <path class="cls-3" d="M316.3,282.5c2.5-2,5-4,7.4-5.9-2.4,2-4.9,3.9-7.4,5.9Z"/>
      <path class="cls-7" d="M191.3,397.7h127c-39.2,2.2-84.9,3.1-127,0Z"/>
      <path class="cls-3" d="M317.3,149.3s0,0,0,0c0,0,0,0,0,0,0,0,0,0,0,0Z"/>
      <path class="cls-2" d="M317.3,149.3l-.8,1.2c-1.9,2.7-3.3,5.8-4.3,9-3.6,11.7-2.3,25.6-1,33.8-1.4-8.2-2.7-22.1.9-33.8h0c1-3.3,2.4-6.3,4.3-9.1.3-.4.5-.8.8-1.1,0,0,0,0,0,0Z"/>
      <path class="cls-2" d="M312.6,200.2h0s0,0,0,0c0,0-.7-2.7-1.4-6.9.7,4.1,1.4,6.7,1.4,6.9Z"/>
      <path class="cls-5" d="M312.6,200.2h0s-6-23-.5-40.7c0,0,0,0,0,0-3.6,11.7-2.3,25.6-.9,33.8.7,4.2,1.4,6.9,1.4,6.9Z"/>
      <polygon class="cls-3" points="312.2 159.5 312.2 159.5 312.2 159.5 312.2 159.5"/>
      <path class="cls-5" d="M312.2,159.5h0s0,0,0,0h0s0,0,0,0Z"/>
      <path class="cls-5" d="M173.5,254.7l-.2.3.2-.4.7-1.2,33.6-59h0c5.9.5,13-.2,20.5-1.7,2.6-.5,5.3-1.2,8-1.9h0c.7-.2,1.4-.4,2-.6h0c.7-.2,1.4-.4,2-.6,0,0,0,0,0,0,1.4-.4,2.7-.8,4.1-1.2h0c.7-.2,1.4-.4,2.1-.6h0c.7-.2,1.4-.5,2.1-.7,11.8-3.9,23.8-8.8,34-13.4h0c1.2-.5,2.4-1.1,3.5-1.6t0,0c.6-.3,1.1-.5,1.7-.8h0c.3-.1.6-.3.8-.4h0c.6-.3,1.1-.5,1.6-.8h0c.3-.1.5-.3.8-.4h0c.3-.1.5-.2.8-.4h0c.3-.1.5-.2.8-.4h0c.5-.2,1-.5,1.5-.7h0c.2-.1.5-.2.7-.4h0c.2-.1.5-.2.7-.3h0c.5-.2,1-.5,1.4-.7h0c.2-.1.5-.2.7-.3h0c.2-.1.5-.2.7-.3t0,0c.5-.2.9-.4,1.3-.6h0c.2-.1.4-.2.6-.3h0c.4-.2.8-.4,1.2-.6h0c.4-.2.8-.4,1.2-.6h0c.2-.1.4-.2.6-.3h0c.2,0,.4-.2.5-.3t0,0c.2,0,.4-.2.5-.3,0,0,0,0,0,0,.2,0,.3-.2.5-.3,0,0,0,0,0,0,.2,0,.3-.2.5-.2h0c.2,0,.3-.2.5-.2h0l.4-.2s0,0,0,0c.1,0,.3-.1.4-.2h0c.1,0,.3-.1.4-.2h0c.1,0,.3-.1.4-.2h0c.1,0,.3-.1.4-.2h0c.1,0,.2-.1.4-.2h0c.1,0,.2-.1.3-.2h0c.2-.1.4-.2.6-.3h0c.1,0,.2,0,.3-.2h0c0,0,.2,0,.3-.1h0c0,0,.2,0,.2-.1h0c0,0,.2,0,.2-.1h0c0,0,.1,0,.2-.1h0c0,0,.1,0,.2-.1t0,0c0,0,.1,0,.2,0,0,0,0,0,0,0,0,0,.1,0,.1,0t0,0s0,0,.1,0h0s0,0,0,0h0s0,0,0,0h0s0,0,0,0h0s0,0,0,0h0c-5.5,17.8.5,40.8.5,40.8-12,11.7-26.2,26.2-42.9,44.4-2.9,3.1-6.1,5.8-9.6,8.2-.5-.2-1-.4-1.5-.5h0c-17.8-6.2-36-3.8-51.9,1.6h0c-.6.2-1.2.4-1.7.6h0c-.6.2-1.1.4-1.7.6,0,0,0,0,0,0-.6.2-1.1.4-1.7.6h0c-.6.2-1.1.4-1.7.7h0c-.6.2-1.1.4-1.6.7h0c-.5.2-1.1.5-1.6.7h0c-.5.2-1.1.5-1.6.7h0c-.5.2-1.1.5-1.6.7h0c-.5.2-1,.5-1.6.8h0c-.5.2-1,.5-1.5.8h0c-.5.2-1,.5-1.5.8h0c-.5.3-1,.5-1.5.8,0,0,0,0,0,0-.5.3-1,.5-1.4.8h0c-.5.3-.9.5-1.4.8,0,0,0,0,0,0-.5.3-.9.5-1.4.8h0c-.5.3-.9.5-1.4.8h0c-.4.3-.9.5-1.3.8h0c-.4.3-.9.5-1.3.8h0c-.4.3-.8.5-1.3.8h0c-.4.3-.8.5-1.2.8h0c-.4.2-.8.5-1.2.8h0c-.4.2-.8.5-1.2.8h0c-.4.2-.8.5-1.1.8,0,0,0,0,0,0-.4.2-.7.5-1.1.8h0c-.4.2-.7.5-1.1.7h0c-.3.2-.7.5-1,.7h0c-.3.2-.7.5-1,.7h0c-.3.2-.6.5-.9.7t0,0c-.3.2-.6.4-.9.7,0,0,0,0,0,0-.3.2-.6.4-.9.6h0c-.3.2-.6.4-.8.6t0,0c-.3.2-.5.4-.8.6,0,0,0,0,0,0-.3.2-.5.4-.8.6h0c-.2.2-.5.4-.7.6,0,0,0,0,0,0-.2.2-.4.4-.7.5h0c-.2.2-.4.3-.6.5h0c-.2.2-.4.3-.6.5h0c-.2.1-.4.3-.5.4h0c-.2.1-.3.3-.5.4h0c-.1.1-.3.2-.4.4h0c-.1.1-.3.2-.4.3,0,0,0,0,0,0-.1.1-.2.2-.3.3h0c-.1,0-.2.2-.3.2h0c0,0-.2.1-.2.2,0,0,0,0,0,0,0,0-.1.1-.2.2h0s0,0-.1.1c0,0,0,0,0,0h0l15.6-27.4Z"/>
      <path class="cls-5" d="M312.2,159.5s0,0,0,0h0s0,0,0,0Z"/>
      <path class="cls-5" d="M312.1,159.5s0,0,0,0h0s0,0,0,0Z"/>
      <path class="cls-5" d="M312.1,159.6s0,0,0,0h0s0,0,0,0Z"/>
      <path class="cls-5" d="M312,159.6s0,0,0,0h0s0,0,0,0Z"/>
      <path class="cls-5" d="M311.9,159.7s0,0-.1,0h0s0,0,.1,0Z"/>
      <path class="cls-5" d="M311.8,159.7s0,0-.1,0h0s.1,0,.1,0Z"/>
      <path class="cls-5" d="M311.6,159.8c0,0-.1,0-.2,0h0c0,0,.1,0,.2,0Z"/>
      <path class="cls-5" d="M311.4,159.9s-.1,0-.2.1h0c0,0,.1,0,.2-.1Z"/>
      <path class="cls-5" d="M311.2,160c0,0-.1,0-.2.1h0c0,0,.1,0,.2-.1Z"/>
      <path class="cls-3" d="M310.7,286.8c1-.8,2-1.6,3.1-2.4-1,.8-2,1.6-3.1,2.4Z"/>
      <path class="cls-5" d="M311,160.1c0,0-.1,0-.2.1h0c0,0,.2,0,.2-.1Z"/>
      <path class="cls-5" d="M310.8,160.2c0,0-.2,0-.2.1h0c0,0,.2,0,.2-.1Z"/>
      <path class="cls-5" d="M310.5,160.4c0,0-.2,0-.3.1h0c0,0,.2-.1.3-.1Z"/>
      <path class="cls-5" d="M310.3,160.5c-.1,0-.2.1-.3.2h0c.1,0,.2-.1.3-.2Z"/>
      <path class="cls-5" d="M309.3,161c.2-.1.4-.2.6-.3-.2.1-.4.2-.6.3h0Z"/>
      <path class="cls-5" d="M309.3,161c-.1,0-.2.1-.3.2h0c.1,0,.2-.1.3-.2Z"/>
      <path class="cls-5" d="M309,161.2c-.1,0-.2.1-.4.2h0c.1,0,.2-.1.4-.2Z"/>
      <path class="cls-5" d="M308.6,161.4c-.1,0-.2.1-.4.2h0c.1,0,.3-.1.4-.2Z"/>
      <path class="cls-5" d="M308.2,161.6c-.1,0-.3.1-.4.2h0c.1,0,.3-.1.4-.2Z"/>
      <path class="cls-5" d="M307.8,161.8c-.1,0-.3.1-.4.2h0c.1,0,.3-.2.4-.2Z"/>
      <path class="cls-5" d="M307.4,162c-.1,0-.3.2-.4.2h0c.1,0,.3-.1.4-.2Z"/>
      <path class="cls-5" d="M306.9,162.2l-.4.2h0l.4-.2Z"/>
      <path class="cls-5" d="M306.5,162.5c-.2,0-.3.2-.5.2h0c.2,0,.3-.2.5-.2Z"/>
      <path class="cls-5" d="M306,162.7c-.2,0-.3.2-.5.2h0c.2,0,.3-.2.5-.2Z"/>
      <path class="cls-5" d="M305.5,163c-.2,0-.3.2-.5.3h0c.2,0,.3-.2.5-.3Z"/>
      <path class="cls-5" d="M305,163.2c-.2.1-.4.2-.5.3h0c.2,0,.4-.2.5-.3Z"/>
      <path class="cls-5" d="M304.4,163.5c-.2,0-.4.2-.5.3h0c.2-.1.4-.2.5-.3Z"/>
      <path class="cls-5" d="M303.9,163.8c-.2.1-.4.2-.6.3h0c.2-.1.4-.2.6-.3Z"/>
      <path class="cls-5" d="M310.7,286.8c-3.2,2.5-6.5,5-9.8,7.5-1.7,1.3-3.5,2.6-5.2,4-5.3,4-10.6,7.9-16,11.9-1.8,1.3-3.6,2.6-5.4,3.9-.9.6-1.8,1.3-2.7,1.9-1.8,1.3-3.6,2.6-5.5,3.8-1.8,1.3-3.6,2.5-5.5,3.8-1.8,1.2-3.7,2.5-5.5,3.7-.6.4-1.1.8-1.7,1.1-7.9-6.9-17-11.9-26.4-15.4,8.1-5.9,14.1-10.6,16.8-13.4,3.7-3.8,10.5-11.5,19.8-21.8,1.3-1.4,2.6-2.8,3.9-4.3.6-.6,1.1-1.2,1.6-1.8,11.6,6.2,26.9,11.2,41.6,15Z"/>
      <path class="cls-5" d="M302.1,164.7c.4-.2.8-.4,1.2-.6-.4.2-.8.4-1.2.6h0Z"/>
      <path class="cls-5" d="M300.9,165.3c.4-.2.8-.4,1.2-.6-.4.2-.8.4-1.2.6h0Z"/>
      <path class="cls-5" d="M300.9,165.3c-.2.1-.4.2-.6.3h0c.2-.1.4-.2.6-.3Z"/>
      <path class="cls-5" d="M298.9,166.2c.5-.2.9-.4,1.3-.6-.4.2-.9.4-1.3.6h0Z"/>
      <path class="cls-5" d="M298.9,166.3c-.2.1-.4.2-.7.3h0c.2-.1.5-.2.7-.3Z"/>
      <path class="cls-5" d="M295.6,298.4c1.8-1.3,3.5-2.6,5.2-4-1.7,1.3-3.5,2.6-5.2,4Z"/>
      <path class="cls-5" d="M298.2,166.6c-.2.1-.5.2-.7.3h0c.2-.1.5-.2.7-.3Z"/>
      <path class="cls-5" d="M296.1,167.6c.5-.2,1-.5,1.4-.7-.5.2-.9.5-1.4.7h0Z"/>
      <path class="cls-5" d="M296.1,167.6c-.2.1-.5.2-.7.3h0c.2-.1.5-.2.7-.3Z"/>
      <path class="cls-5" d="M295.3,168c-.2.1-.5.2-.7.4h0c.2-.1.5-.2.7-.4Z"/>
      <path class="cls-5" d="M293.1,169.1c.5-.2,1-.5,1.5-.7-.5.2-1,.5-1.5.7h0Z"/>
      <path class="cls-5" d="M293,169.1c-.3.1-.5.2-.8.4h0c.3-.1.5-.2.8-.4Z"/>
      <path class="cls-5" d="M292.3,169.5c-.3.1-.5.2-.8.4h0c.3-.1.5-.3.8-.4Z"/>
      <path class="cls-5" d="M291.5,169.8c-.3.1-.5.2-.8.4h0c.3-.1.5-.3.8-.4Z"/>
      <path class="cls-5" d="M289,171c.6-.3,1.1-.5,1.6-.8-.5.2-1.1.5-1.6.8h0Z"/>
      <path class="cls-5" d="M289,171c-.3.1-.5.3-.8.4h0c.3-.1.6-.3.8-.4Z"/>
      <path class="cls-7" d="M288.3,251.4c1.6-1.7,3.3-3.4,5-5.1-1.7,1.7-3.3,3.4-5,5.1h0Z"/>
      <path class="cls-3" d="M288.3,251.4h0c-3.7,3.9-7.3,7.6-10.7,11.2h0s0,0,0,0c3.4-3.6,6.9-7.3,10.6-11.2Z"/>
      <path class="cls-5" d="M286.4,172.2c.6-.2,1.1-.5,1.7-.8-.6.3-1.1.5-1.7.8h0Z"/>
      <path class="cls-3" d="M286.7,250.1c.5.4,1,.8,1.6,1.3-3.7,3.9-7.3,7.6-10.6,11.2-3.5-2.7-7-4.9-10.6-6.7l7.2-5.8c3.7-3,8.9-3,12.5,0Z"/>
      <path class="cls-5" d="M282.9,173.8c1.2-.5,2.4-1.1,3.5-1.6-1.1.5-2.3,1.1-3.5,1.6h0Z"/>
      <path class="cls-5" d="M248.9,187.1c11.8-3.9,23.8-8.8,34-13.4-10.2,4.6-22.2,9.5-34,13.4Z"/>
      <path class="cls-3" d="M277.6,262.6h0c-3.5-2.6-7-4.9-10.6-6.7h0c3.6,1.8,7.1,4,10.6,6.7Z"/>
      <path class="cls-3" d="M277.6,262.6c-.5.6-1,1.1-1.5,1.6-1.5,1.6-3,3.2-4.5,4.8-.9.9-1.7,1.9-2.6,2.8-4.6-2.5-8.7-5.1-12-8l9.9-8c3.6,1.8,7.1,4,10.6,6.7Z"/>
      <path class="cls-5" d="M274.2,314.1c1.8-1.3,3.6-2.6,5.4-3.9-1.8,1.3-3.6,2.6-5.4,3.9Z"/>
      <path class="cls-3" d="M276.1,264.2c-1.5,1.6-3,3.2-4.5,4.8,1.4-1.6,2.9-3.2,4.5-4.8Z"/>
      <path class="cls-5" d="M269.1,271.8c-.6.6-1.1,1.2-1.6,1.8.5-.6,1.1-1.2,1.6-1.8Z"/>
      <path class="cls-5" d="M269.1,271.8c-.6.6-1.1,1.2-1.6,1.8-1.4,1.5-2.7,2.9-3.9,4.3-9.3,10.2-16.1,18-19.8,21.8-2.7,2.8-8.7,7.5-16.8,13.4h0c-11.5-4.3-23.4-6.5-33.6-7.5,2.3-1.1,4.4-2.7,6.1-4.6,0,0,0,0,0,0,.7-.7,1.3-1.5,1.8-2.3h0c.2-.4.5-.7.7-1.1,0-.1.1-.2.2-.4.2-.3.3-.6.5-.9.1-.3.3-.6.4-.9h0c.2-.5.4-.9.5-1.4.2-.4.3-.8.4-1.3,0-.3.2-.6.2-.9.2-.8.3-1.5.4-2.3l.2-2.1,52.4-23.5c3.2,2.8,7.3,5.5,12,8Z"/>
      <path class="cls-5" d="M266,319.9c1.8-1.3,3.6-2.6,5.5-3.8-1.8,1.3-3.6,2.6-5.5,3.8Z"/>
      <path class="cls-6" d="M267,255.8h0c-2.3-1.1-4.6-2.2-6.9-3,0,0,0,0,0,0,2.3.9,4.6,1.9,6.9,3Z"/>
      <path class="cls-6" d="M267,255.9l-9.9,8-52.4,23.5.6-6.5c0-.3,0-.6.1-.9,0-.3.1-.6.2-.9t0,0c0-.3.2-.6.2-.9.1-.3.2-.6.4-1,.3-.8.8-1.6,1.2-2.3.5-.8,1.1-1.4,1.8-2.1,1.3-1.3,2.9-2.2,4.7-2.8l34.2-11.4c1.6-.5,3.1-1.1,4.7-1.8,0,0,0,0,0,0,.5-.2,1-.5,1.5-.7,0,0,0,0,0,0,.5-.2,1-.5,1.5-.7h0c.5-.3,1-.5,1.4-.8,0,0,0,0,0,0,1-.5,1.9-1.1,2.8-1.7h0s0,0,0,0c0,0,0,0,0,0,2.3.9,4.6,1.9,6.9,3.1Z"/>
      <path class="cls-6" d="M264.8,341.8c3.5,5.3,6.4,11.3,8.4,18.2-23.9,4.5-41.7,8.7-49.3,10-6.4,1.1-23.9,1.1-44.8.5.9-.4,1.8-.8,2.7-1.2,18.1-8,37.3-18.8,56.6-31.1,1.1-.7,2.2-1.4,3.2-2.1l10.1,3.2c4.2,1.4,8.6,2.1,13.1,2.4Z"/>
      <path class="cls-5" d="M267.4,273.6c-1.4,1.5-2.7,2.9-3.9,4.3,1.3-1.4,2.6-2.8,3.9-4.3Z"/>
      <path class="cls-5" d="M260.5,323.7c1.8-1.3,3.7-2.5,5.5-3.8-1.8,1.3-3.6,2.5-5.5,3.8Z"/>
      <path class="cls-3" d="M258.6,252.2c.5.2,1,.4,1.5.5h0c-.5-.2-1-.4-1.5-.5Z"/>
      <path class="cls-3" d="M258.6,252.2c.5.2,1,.4,1.5.5-.5-.2-1-.4-1.5-.5h0Z"/>
      <path class="cls-3" d="M260.1,252.8c-.9.6-1.9,1.2-2.8,1.7h0c-.5.3-1,.5-1.4.8t0,0c-.5.2-1,.5-1.5.8,0,0,0,0,0,0-.5.2-1,.5-1.5.7,0,0,0,0,0,0-.5.2-1,.4-1.5.6-1,.4-2.1.8-3.1,1.1l-34.2,11.4c-1.8.6-3.4,1.6-4.7,2.8-.9.8-1.6,1.8-2.3,2.8-.2.3-.3.5-.4.8-.3.6-.5,1.1-.7,1.7-.1.3-.2.6-.2.9,0,0,0,0,0,0,0,.3-.1.6-.2.9,0,.3,0,.6-.1.9h0s-.6,6.5-.6,6.5l-9.5,4.3-1.3.6c-8.2,3.6-35,13.4-60.5,22.1,5.8-8.2,11.8-17,17.4-25.2.8-1.2,1.6-2.3,2.4-3.5,4.7-7,9.1-13.5,12.6-18.9.9-1.3,1.7-2.6,2.5-3.8,0,0,0,0,0,0,.8-1.2,1.5-2.3,2.1-3.3,1.1-1.7,2-3.1,2.7-4.3l-15.2,26.7h0s0,0,0,0c0,0,0,0,0,0h0c0-.1,0-.1.1-.2s0,0,0,0c0,0,.1-.1.2-.2h0c0,0,.1-.1.2-.2t0,0c0,0,.2-.2.3-.2,0,0,0,0,0,0,0,0,.2-.2.3-.3h0c.1-.1.2-.2.4-.3,0,0,0,0,0,0,.1-.1.3-.2.4-.4,0,0,0,0,0,0,.1-.1.3-.3.5-.4t0,0c.2-.1.3-.3.5-.4,0,0,0,0,0,0,.2-.1.4-.3.6-.5h0c.2-.2.4-.3.6-.5,0,0,0,0,0,0,.2-.2.4-.3.7-.5h0c.2-.2.5-.4.7-.6h0c.2-.2.5-.4.8-.6h0c.2-.2.5-.4.8-.6h0c.3-.2.6-.4.8-.6,0,0,0,0,0,0,.3-.2.6-.4.9-.6h0c.3-.2.6-.4.9-.7h0c.3-.2.6-.5.9-.7h0c.3-.2.7-.5,1-.7,0,0,0,0,0,0,.3-.2.7-.5,1-.7,0,0,0,0,0,0,.3-.2.7-.5,1.1-.7h0c.4-.2.7-.5,1.1-.8h0c.4-.2.8-.5,1.1-.8h0c.4-.2.8-.5,1.2-.8,0,0,0,0,0,0,.4-.3.8-.5,1.2-.8,0,0,0,0,0,0,.4-.3.8-.5,1.2-.8h0c.4-.3.8-.5,1.3-.8,0,0,0,0,0,0,.4-.3.9-.5,1.3-.8h0c.4-.3.9-.5,1.3-.8,0,0,0,0,0,0,.5-.3.9-.5,1.4-.8h0c.5-.3.9-.5,1.4-.8h0c.5-.3.9-.5,1.4-.8h0c.5-.3,1-.5,1.4-.8h0c.5-.2,1-.5,1.5-.8h0c.5-.2,1-.5,1.5-.8h0c.5-.2,1-.5,1.5-.8,0,0,0,0,0,0,.5-.2,1-.5,1.6-.8h0c.5-.2,1-.5,1.6-.7h0c.5-.2,1.1-.5,1.6-.7h0c.5-.2,1.1-.5,1.6-.7h0c.5-.2,1.1-.5,1.6-.7,0,0,0,0,0,0,.6-.2,1.1-.5,1.7-.7h0c.6-.2,1.1-.4,1.7-.6h0c.6-.2,1.1-.4,1.7-.6h0c.6-.2,1.1-.4,1.7-.6,16-5.4,34.2-7.7,51.9-1.6.5.2,1,.4,1.5.5Z"/>
      <path class="cls-5" d="M255,327.4c1.8-1.2,3.7-2.5,5.5-3.7-1.8,1.3-3.7,2.5-5.5,3.7Z"/>
      <path class="cls-3" d="M257.3,254.5h0c-.5.3-1,.5-1.4.8.5-.3,1-.5,1.4-.8Z"/>
      <path class="cls-3" d="M255.8,255.3h0c-.5.3-1,.5-1.5.8.5-.2,1-.5,1.5-.8Z"/>
      <path class="cls-4" d="M253.3,328.5c4.3,3.8,8.2,8.2,11.5,13.2-4.4-.2-8.8-1-13.1-2.4l-10.1-3.2c3.5-2.3,7-4.6,10.6-6.9l1.1-.7Z"/>
      <path class="cls-3" d="M254.3,256.1h0c-.5.2-1,.5-1.5.7.5-.2,1-.5,1.5-.7Z"/>
      <path class="cls-4" d="M253.3,328.5l-1.1.7c-3.5,2.4-7,4.7-10.6,6.9l-24.3-7.8c-4.8-1.5-10.1,0-13.4,3.7l-5.7,6.5c-4.5,5.1-11.3,7.5-17.9,6.5,16.9-11.2,33.8-22.7,46.1-31.7l.4-.3c9.4,3.5,18.6,8.5,26.4,15.4Z"/>
      <path class="cls-3" d="M252.8,256.8h0c-.5.2-1,.4-1.5.6.5-.2,1-.4,1.5-.6Z"/>
      <path class="cls-5" d="M248.9,187.1c-.7.2-1.4.5-2.1.7h0c.7-.2,1.4-.5,2.1-.7Z"/>
      <path class="cls-5" d="M246.8,187.8c-.7.2-1.4.4-2.1.6h0c.7-.2,1.4-.4,2.1-.6Z"/>
      <path class="cls-5" d="M240.6,189.7c1.4-.4,2.7-.8,4.1-1.2-1.4.4-2.8.8-4.1,1.2h0Z"/>
      <path class="cls-3" d="M241.7,336.2c3.5-2.3,7-4.6,10.6-6.9-3.5,2.4-7,4.7-10.6,6.9h0Z"/>
      <path class="cls-6" d="M241.7,336.2h0c-1.1.7-2.2,1.4-3.2,2.1,1.1-.7,2.2-1.4,3.2-2.1Z"/>
      <path class="cls-6" d="M217.4,328.4l24.3,7.8c-1.1.7-2.2,1.4-3.2,2.1-19.3,12.3-38.5,23.1-56.6,31.1-.9.4-1.8.8-2.7,1.2,0,0,0,0,0,0-11.3-.3-23.7-.8-35.8-1.3.8-.5,1.7-1.1,2.6-1.6,1.1-.7,2.2-1.4,3.3-2.1.8-.5,1.5-1,2.2-1.4,1.1-.7,2.3-1.5,3.4-2.2,0,0,0,0,0,0,1.2-.8,2.3-1.5,3.5-2.3.8-.5,1.6-1,2.4-1.5h0c1.2-.8,2.4-1.6,3.6-2.4.4-.3.8-.5,1.2-.8.8-.5,1.6-1.1,2.5-1.6.8-.5,1.7-1.1,2.5-1.6,1.2-.8,2.5-1.6,3.8-2.5,1.3-.8,2.5-1.6,3.8-2.5.8-.5,1.5-1,2.3-1.5,6.6,1,13.4-1.4,17.9-6.5l5.7-6.5c3.3-3.8,8.6-5.2,13.4-3.7Z"/>
      <path class="cls-5" d="M240.6,189.7c-.7.2-1.4.4-2,.6h0c.7-.2,1.4-.4,2-.6Z"/>
      <path class="cls-5" d="M238.5,190.3c-.7.2-1.4.4-2,.6h0c.7-.2,1.4-.4,2-.6Z"/>
      <path class="cls-5" d="M228.5,192.7c2.6-.5,5.3-1.2,8-1.9-2.7.7-5.4,1.3-8,1.9Z"/>
      <path class="cls-3" d="M226.9,313.1l-.4.3c.1-.1.3-.2.4-.3h0Z"/>
      <path class="cls-4" d="M226.9,313.1c-.1.1-.3.2-.4.3-12.3,9-29.2,20.5-46.1,31.7-1.4-.2-2.7-.5-4.1-1-4.5-1.7-9.2-3.1-13.9-4.1s-9.5-1.8-14.3-2.2l-16.8-1.4,2.7-1.2c4.9-2.2,9.7-4.8,14.3-7.6l15.1-9.2c4.1-2.5,8.4-4.8,12.8-6.7s9-3.5,13.7-4.8c1.2-.3,2.3-.8,3.4-1.3,10.2,1,22.1,3.2,33.6,7.5Z"/>
      <path class="cls-3" d="M209.2,272.8s0,0,0,0c-.7.6-1.3,1.3-1.8,2.1s-.3.5-.5.8c.6-1.1,1.4-2,2.3-2.8Z"/>
      <path class="cls-5" d="M207.9,194.4l-33.6,59-.7,1.2-.2.4h0c0,.1,0,.2-.1.3l.4-.7.7-1.2,33.6-59h0Z"/>
      <path class="cls-3" d="M206.5,276.5c-.1.2-.2.5-.3.8-.1.3-.2.6-.4,1,.2-.6.4-1.2.7-1.7Z"/>
      <path class="cls-3" d="M205.8,278.2c0,.3-.2.6-.2.9h0c0-.3.1-.6.2-.9Z"/>
      <path class="cls-3" d="M205.6,279s0,0,0,0c0,0,0,0,0,0h0Z"/>
      <path class="cls-3" d="M205.6,279.1c0,.3-.1.6-.2.9h0c0-.3.1-.6.2-.9Z"/>
      <path class="cls-3" d="M205.4,280c0,.3,0,.6-.1.9l-.6,6.5.6-6.5h0c0-.3,0-.6.1-1h0Z"/>
      <polygon class="cls-3" points="205.3 280.9 204.7 287.4 204.7 287.4 205.3 280.9"/>
      <path class="cls-5" d="M204.7,287.4l-.2,2.1c0,.8-.2,1.6-.4,2.3,0-.2.1-.5.1-.8,0-.5.1-1,.2-1.6l.2-2.1h0Z"/>
      <path class="cls-5" d="M204.7,287.4l-.2,2.1c0,.5-.1,1-.2,1.6-.2,1-.4,2-.7,2.9,0,0,0,0,0,0-.2.5-.3.9-.5,1.4t0,0c-1.1,2.5-2.6,4.8-4.6,6.7-1.5,1.4-3.2,2.6-5.1,3.5h0c-16.2-1.6-28.3-.4-28.3-.4l28.9-13,1.3-.6,9.5-4.3Z"/>
      <path class="cls-5" d="M204.3,291c0,.2,0,.5-.1.8,0,.3-.1.6-.2.9-.1.4-.2.8-.4,1.2.3-.9.6-1.9.7-2.9Z"/>
      <path class="cls-5" d="M203.5,294c.1-.4.3-.8.4-1.2-.1.4-.2.9-.4,1.3,0,0,0,0,0,0Z"/>
      <path class="cls-5" d="M203.5,294c-.1.5-.3.9-.5,1.4h0c.2-.5.4-.9.5-1.4Z"/>
      <path class="cls-5" d="M203,295.4h0s0,0,0,0h0Z"/>
      <path class="cls-5" d="M203,295.4c-.1.3-.3.6-.4.9-.1.3-.3.6-.5.9,0,.1-.1.2-.2.4-.2.4-.4.7-.7,1.1h0c-.6.8-1.1,1.6-1.8,2.3,0,0,0,0,0,0-.3.4-.7.7-1,1,2-1.9,3.5-4.2,4.6-6.7Z"/>
      <path class="cls-5" d="M202.1,297.2c.2-.3.3-.6.5-.9-.1.3-.3.6-.5.9Z"/>
      <path class="cls-5" d="M201.2,298.7c.2-.4.5-.7.7-1.1-.2.4-.4.7-.7,1.1Z"/>
      <path class="cls-5" d="M199.4,301c.7-.7,1.3-1.5,1.8-2.3-.5.8-1.1,1.6-1.8,2.3Z"/>
      <path class="cls-5" d="M198.4,302.1c.3-.3.7-.7,1-1-1.7,1.9-3.8,3.5-6.1,4.6,0,0,0,0,0,0,1.9-.9,3.6-2.1,5.1-3.5Z"/>
      <path class="cls-4" d="M193.9,292.2l-28.9,13s12.1-1.2,28.3.4c-1.1.5-2.2.9-3.3,1.3-4.7,1.3-9.2,2.9-13.7,4.8s-8.7,4.2-12.8,6.7l-15.1,9.2c-1.7,1.1-3.5,2.1-5.3,3.1-1.2.6-2.4,1.3-3.6,1.9-1.8.9-3.7,1.8-5.5,2.6h0s-2.8,1.2-2.8,1.2h-.8c-4-.4-7.9-.9-11.9-1.6,1.2-1.6,2.5-3.4,3.8-5.2.8-1,1.5-2.1,2.3-3.1,2.8-3.8,5.7-7.9,8.6-12.1,25.4-8.7,52.2-18.6,60.5-22.1Z"/>
      <path class="cls-4" d="M193.3,305.6s0,0,0,0c-1.1.5-2.2.9-3.4,1.3-4.7,1.3-9.2,2.9-13.7,4.8s-8.7,4.2-12.8,6.7l-15.1,9.2c-4.6,2.8-9.4,5.4-14.3,7.6l-2.7,1.2h0l2.7-1.2h0c1.8-.8,3.7-1.7,5.5-2.6,1.2-.6,2.4-1.2,3.6-1.9,1.8-1,3.5-2,5.3-3.1l15.1-9.2c4.1-2.5,8.4-4.8,12.8-6.7s9-3.5,13.7-4.8c1.2-.3,2.3-.7,3.3-1.3h0Z"/>
      <path class="cls-6" d="M181.8,369.4c18.1-8,37.3-18.8,56.6-31.1-19.3,12.3-38.5,23.1-56.6,31.1Z"/>
      <path class="cls-6" d="M180.4,345.1c-.8.5-1.5,1-2.3,1.5-1.3.8-2.5,1.7-3.8,2.5-1.2.8-2.5,1.7-3.8,2.5-.8.5-1.7,1.1-2.5,1.6-.8.5-1.6,1.1-2.5,1.6s-.8.5-1.2.8c-1.2.8-2.4,1.6-3.6,2.4h0c-.8.5-1.6,1-2.4,1.5-1.2.8-2.4,1.5-3.5,2.3,0,0,0,0,0,0-1.2.8-2.3,1.5-3.4,2.2-.8.5-1.5,1-2.2,1.4-1.1.7-2.2,1.4-3.3,2.1-.9.5-1.7,1.1-2.6,1.6-15.5-.7-30.7-1.6-43.2-2.4,0-.4,0-.8,0-1.2,0-2.8.4-5.5,1.3-8.1.2-.6.5-1.2.7-1.8.1-.3.3-.6.4-.9.4-.8.9-1.6,1.5-2.4s.7-1,1.1-1.5c.8-.6,2-1.8,3.4-3.5,1.6-1.3,3.4-2.4,5.3-3.3l17.5-7.9,16.8,1.4c4.8.4,9.6,1.1,14.3,2.2s9.3,2.4,13.9,4.1c1.3.5,2.7.9,4.1,1Z"/>
      <path class="cls-6" d="M179.1,370.6c.9-.4,1.8-.8,2.7-1.2-.9.4-1.8.8-2.7,1.2Z"/>
      <path class="cls-7" d="M179.1,370.6s0,0,0,0c-1.7.7-3.3,1.4-5,2.1,1.6-.7,3.3-1.4,4.9-2.1Z"/>
      <path class="cls-4" d="M179.1,370.6c-1.6.7-3.3,1.4-4.9,2.1-1.7.7-3.4,1.3-5,2-18.3,7-35.1,10.5-49.2,9.2v-.4c.8-.4,1.7-.9,2.7-1.5.4-.2.8-.5,1.2-.7.4-.2.9-.5,1.3-.8.7-.4,1.4-.8,2.1-1.3.5-.3,1-.6,1.5-.9.8-.5,1.6-1,2.4-1.5,1.1-.7,2.3-1.4,3.5-2.2,2.1-1.3,4.4-2.8,6.8-4.3,0,0,0,0,0,0,.5-.3,1.1-.7,1.6-1,12.2.6,24.5,1,35.8,1.3Z"/>
      <path class="cls-6" d="M178.1,346.7c-1.3.8-2.5,1.7-3.8,2.5,1.2-.8,2.5-1.7,3.8-2.5Z"/>
      <path class="cls-3" d="M173.5,254.7l-15.6,27.4h0s15.2-26.8,15.2-26.8h0s.2-.3.2-.3h0c0-.2.1-.3.2-.4Z"/>
      <path class="cls-3" d="M173.3,255.1l-.2.2s0,0,0,0c0,0,0-.2.1-.2Z"/>
      <path class="cls-3" d="M173.2,255.4l-15.2,26.8h0s15.2-26.7,15.2-26.7c0,0,0,0,0,0Z"/>
      <path class="cls-7" d="M169.1,374.6c1.7-.6,3.3-1.3,5-2-1.7.7-3.4,1.4-5,2Z"/>
      <path class="cls-6" d="M168.1,353.2c.8-.5,1.6-1.1,2.5-1.6-.8.5-1.7,1.1-2.5,1.6Z"/>
      <path class="cls-3" d="M168.3,263c.8-1.2,1.5-2.3,2.1-3.3-.6,1-1.4,2.1-2.1,3.3Z"/>
      <path class="cls-6" d="M168.1,353.2c-.8.5-1.6,1.1-2.5,1.6.8-.5,1.6-1.1,2.5-1.6Z"/>
      <path class="cls-3" d="M165.8,266.8c.9-1.3,1.7-2.6,2.5-3.8-.8,1.2-1.6,2.5-2.5,3.8Z"/>
      <path class="cls-6" d="M164.4,355.7c-1.2.8-2.4,1.6-3.6,2.4,1.2-.8,2.4-1.6,3.6-2.4Z"/>
      <path class="cls-6" d="M160.7,358c-.8.5-1.6,1-2.4,1.5.8-.5,1.6-1,2.4-1.5Z"/>
      <path class="cls-3" d="M157.9,282.1h0s0,0,0,0h0Z"/>
      <path class="cls-3" d="M157.9,282.1h0s0,0,0,0Z"/>
      <path class="cls-6" d="M158.3,359.6c-1.2.8-2.4,1.5-3.5,2.3,1.2-.8,2.3-1.5,3.5-2.3Z"/>
      <path class="cls-6" d="M154.8,361.9c-1.2.8-2.3,1.5-3.4,2.2,1.1-.7,2.3-1.5,3.4-2.2Z"/>
      <path class="cls-3" d="M150.9,289.2c.8-1.2,1.6-2.3,2.4-3.5-.8,1.2-1.6,2.3-2.4,3.5Z"/>
      <path class="cls-6" d="M149.1,365.5c.7-.5,1.5-1,2.2-1.4-.8.5-1.5,1-2.2,1.4Z"/>
      <path class="cls-6" d="M145.8,367.6c-.9.6-1.7,1.1-2.6,1.6t0,0c.8-.5,1.7-1.1,2.6-1.6Z"/>
      <path class="cls-7" d="M143.2,369.2s0,0,0,0c-.6.4-1.1.7-1.6,1,.5-.4,1.1-.7,1.6-1Z"/>
      <path class="cls-4" d="M119.9,383.9h0c-2.4-.2-4.8-.6-7-1.1-9.2-3.8-12.4-9.9-12.9-15.9,12.5.8,27.7,1.7,43.2,2.4-.6.4-1.1.7-1.6,1,0,0,0,0,0,0-2.4,1.5-4.7,2.9-6.8,4.3-1.2.8-2.4,1.5-3.5,2.2-.8.5-1.7,1-2.4,1.5-.5.3-1,.6-1.5.9-.7.5-1.5.9-2.1,1.3-.4.3-.9.5-1.3.8-.4.2-.8.5-1.2.7-1,.6-1.9,1.1-2.6,1.5v.4Z"/>
      <path class="cls-3" d="M143.1,330.6c-1.2.6-2.4,1.3-3.6,1.9,1.2-.6,2.4-1.2,3.6-1.9Z"/>
      <path class="cls-7" d="M141.6,370.3c-2.4,1.5-4.7,2.9-6.8,4.3,2.1-1.3,4.4-2.8,6.8-4.3Z"/>
      <polygon class="cls-3" points="134.1 335.2 131.3 336.4 131.3 336.4 134.1 335.2"/>
      <path class="cls-4" d="M133.4,314.4c-3,4.2-5.9,8.3-8.6,12.1-.8,1.1-1.6,2.1-2.3,3.1-1.3,1.8-2.6,3.5-3.8,5.2-1.4-.2-2.8-.5-4.1-.8l-21.7-4.6c-2.1-.4-4.2-.6-6.2-.5,9.1-2.1,27.6-8,46.9-14.6Z"/>
      <path class="cls-7" d="M131.2,376.7c1.1-.7,2.3-1.4,3.5-2.2-1.2.8-2.4,1.5-3.5,2.2Z"/>
      <path class="cls-6" d="M131.3,336.4l-17.5,7.9c-1.9.9-3.7,2-5.3,3.3t0,0s0,0,0,0c1.6-1.3,3.4-2.4,5.3-3.2h0l17.5-7.9h0Z"/>
      <polygon class="cls-6" points="131.3 336.4 113.9 344.3 131.3 336.4 131.3 336.4"/>
      <path class="cls-6" d="M131.3,336.4l-17.4,7.9h0c-1.9.9-3.7,2-5.3,3.2,2.6-2.9,6-7.4,10-12.7,3.9.7,7.9,1.2,11.9,1.5h.8Z"/>
      <path class="cls-7" d="M128.8,378.2c.8-.5,1.6-1,2.4-1.5-.8.5-1.7,1-2.4,1.5Z"/>
      <path class="cls-7" d="M127.3,379.2c.5-.3,1-.6,1.5-.9-.5.3-1,.6-1.5.9Z"/>
      <path class="cls-7" d="M119.9,383.9c14.1,1.3,30.9-2.3,49.2-9.2-18.3,7-35.1,10.5-49.2,9.2h0Z"/>
      <path class="cls-7" d="M127.3,379.2c-.7.5-1.5.9-2.1,1.3.7-.4,1.4-.8,2.1-1.3Z"/>
      <path class="cls-7" d="M123.8,381.2c.4-.2.9-.5,1.3-.8-.4.3-.9.5-1.3.8Z"/>
      <path class="cls-3" d="M122.5,329.6c.8-1,1.5-2.1,2.3-3.1-.8,1.1-1.5,2.1-2.3,3.1Z"/>
      <path class="cls-7" d="M122.6,382c.4-.2.8-.5,1.2-.7-.4.2-.8.5-1.2.7Z"/>
      <path class="cls-6" d="M108.5,347.5s0,0,0,0c-1.5,1.7-2.6,2.9-3.4,3.5-.4.5-.8,1-1.1,1.5-.5.8-1,1.6-1.5,2.4-.1.3-.3.6-.4.9-.3.6-.5,1.2-.7,1.8-.9,2.5-1.4,5.2-1.3,8.1s0,.8,0,1.2c-11.4-.8-20.5-1.5-25.4-2.1l-.3.3c-1.8-1.6-3.5-3.3-5-5-5.5-9-4-16.2-.4-21.5,3.1-4.5,7.6-7.5,12.7-8.8h0c1,0,2.6-.3,4.8-.8,2.1-.1,4.2,0,6.2.5l21.7,4.6c1.4.3,2.8.6,4.1.8-4,5.4-7.5,9.8-10,12.7,0,0,0,0,0,0Z"/>
      <path class="cls-4" d="M112.9,382.8l-.5,1.7c-15.7-4.9-28.8-11.3-38.1-19.5l.3-.3c4.9.6,14,1.4,25.4,2.1.5,6,3.7,12.1,12.9,15.9Z"/>
      <path class="cls-6" d="M103.9,352.5c-.5.8-1,1.6-1.5,2.4.4-.8.9-1.6,1.5-2.4Z"/>
      <path class="cls-6" d="M102.1,355.8c-.3.6-.5,1.2-.7,1.8.2-.6.5-1.2.7-1.8Z"/>
    </g>
    <g>
      <line class="cls-1" x1="318.3" y1="397.7" x2="434.3" y2="397.7"/>
      <line class="cls-1" x1="81.7" y1="397.7" x2="191.3" y2="397.7"/>
      <path class="cls-1" d="M402.2,163.8l11.8,16.2c2.2,3,2.7,7.1,1.1,10.5l-3.6,8.3c-.8,1.8-1.9,3.5-3.4,5-.2.2-.4.4-.6.6-4,3.7-12.3,11.4-23.9,21.7-5.3,4.7-11.2,9.9-17.7,15.4-7.8,6.7-16.4,13.9-25.5,21.5-4.7,3.9-9.6,7.9-14.6,11.9"/>
      <path class="cls-1" d="M288.3,251.4c1.6-1.7,3.3-3.4,5-5.1,1.6-1.6,3.2-3.2,4.9-4.9,18.9-19,41.6-39.8,66.3-58.7,4.9-3.8,10.5-6.5,16.5-8.1,4.6-1.2,9-3.2,13-5.7l8.3-5.2"/>
      <path class="cls-1" d="M260.1,252.8c-.9.6-1.9,1.2-2.8,1.7h0c-.5.3-1,.5-1.4.8t0,0c-.5.2-1,.5-1.5.8,0,0,0,0,0,0-.5.2-1,.5-1.5.7,0,0,0,0,0,0-.5.2-1,.4-1.5.6-1,.4-2.1.8-3.1,1.1l-34.2,11.4c-1.8.6-3.4,1.6-4.7,2.8-.9.8-1.6,1.8-2.3,2.8-.2.3-.3.5-.4.8-.3.6-.5,1.1-.7,1.7-.1.3-.2.6-.2.9,0,0,0,0,0,0,0,.3-.1.6-.2.9,0,.3,0,.6-.1.9h0s-.6,6.5-.6,6.5"/>
      <path class="cls-1" d="M312.6,200.2h0c-12,11.7-26.2,26.2-42.9,44.4-2.9,3.1-6.1,5.8-9.6,8.2"/>
      <path class="cls-1" d="M394.8,150.2s0,0,0,0c-3-3-7.1-4.8-11.5-4.8-.2,0-.4,0-.7,0h0c-.6,0-1.3,0-1.9.2,0,0-.1,0-.2,0-.9.2-1.8.4-2.7.7-1.2.4-2.5,1-3.7,1.8-.4.2-.8.5-1.2.8-.4.2-.7.5-1.1.8-7.5,6-20.1,14.3-43.2,35.5-1.3,1.2-2.6,2.4-4,3.7-3.7,3.4-7.6,7.1-11.7,11.2"/>
      <path class="cls-1" d="M402.2,163.8h0s-3.7-8.2-3.7-8.2c-.6-1.4-1.4-2.6-2.4-3.8h0c-.4-.5-.8-.9-1.2-1.4"/>
      <path class="cls-1" d="M173.4,255l.2-.3s0,0,0,0"/>
      <path class="cls-1" d="M173.2,255.3s0,0,0,0c0,0,0-.2.1-.2"/>
      <path class="cls-1" d="M133.4,314.4c5.8-8.2,11.8-17,17.4-25.2.8-1.2,1.6-2.3,2.4-3.5,4.7-7,9.1-13.5,12.6-18.9.9-1.3,1.7-2.6,2.5-3.8,0,0,0,0,0,0,.8-1.2,1.5-2.3,2.1-3.3,1.1-1.7,2-3.1,2.7-4.3,0,0,0,0,0,0"/>
      <path class="cls-1" d="M356,112c2.7-.1,5.4.5,7.5,2.6.3.3.6.6.8.9,6.8,8.2,25.2,28.9,30.4,34.7,0,0,0,0,0,0h0s0,0,0,0h0s0,0,0,0c.8.9,1.2,1.4,1.2,1.4"/>
      <path class="cls-1" d="M312.6,200.2h0c0-.2-.7-2.9-1.4-6.9-1.4-8.2-2.7-22.1,1-33.8,1-3.2,2.4-6.3,4.3-9l.8-1.2s0,0,0,0c.8-1.2,1.6-2.3,2.4-3.4,0,0,0,0,0,0,.3-.4.5-.7.8-1.1,0,0,0,0,0,0,.3-.4.5-.7.8-1.1,0,0,0,0,0,0,.5-.7,1.1-1.4,1.6-2.1t0,0c4.4-6,8.5-11.3,11.6-15.2t0,0c0,0,.1-.2.2-.3.2-.3.4-.5.6-.8,0,0,.1-.2.2-.3t0,0c0,0,.1-.1.2-.2.4-.5.9-1.1,1.2-1.5,0,0,0,0,0,0,.3-.4.6-.7.8-1,.5-.7,1.1-1.3,1.7-1.9,1.8-1.9,3.9-3.5,6.1-4.8,2-1.1,4.4-2.3,7-2.9.2,0,.5-.1.7-.2.2,0,.5,0,.7-.1.7-.1,1.4-.2,2.1-.2"/>
      <path class="cls-1" d="M356,112h0s-10.4-7.8-10.4-7.8c-1.3-.9-2.6-1.7-4.1-2.3-.5-.2-1-.4-1.4-.6-3.6-1.2-7.6-1.3-11.3-.3-2.3.6-4.4,1.7-6.3,3-3.8,2.8-6.6,6.9-7.6,11.7-2.5,11.9-8.5,30-22.1,38.1,0,0-15.2,11-45.8,12.1-11.5.4-18.7.3-23.2,0-4.7-.3-8.9,2.8-10.2,7.4l-5.7,21.2h0"/>
      <path class="cls-1" d="M312.2,159.5h0s0,0,0,0h0s0,0,0,0h0s0,0,0,0h0s0,0,0,0h0s0,0,0,0h0s0,0-.1,0t0,0s0,0-.1,0c0,0,0,0,0,0,0,0-.1,0-.2,0t0,0s-.1,0-.2.1h0c0,0-.1,0-.2.1h0c0,0-.1,0-.2.1h0c0,0-.2,0-.2.1h0c0,0-.2,0-.3.1h0c-.1,0-.2.1-.3.2h0c-.2.1-.4.2-.6.3h0c-.1,0-.2.1-.3.2h0c-.1,0-.2.1-.4.2h0c-.1,0-.2.1-.4.2h0c-.1,0-.3.1-.4.2h0c-.1,0-.3.1-.4.2h0c-.1,0-.3.2-.4.2,0,0,0,0,0,0l-.4.2h0c-.2,0-.3.2-.5.2h0c-.2,0-.3.2-.5.2,0,0,0,0,0,0-.2,0-.3.2-.5.3,0,0,0,0,0,0-.2.1-.4.2-.5.3t0,0c-.2,0-.4.2-.5.3h0c-.2.1-.4.2-.6.3h0c-.4.2-.8.4-1.2.6h0c-.4.2-.8.4-1.2.6h0c-.2.1-.4.2-.6.3h0c-.4.2-.9.4-1.3.6t0,0c-.2.1-.4.2-.7.3h0c-.2.1-.5.2-.7.3h0c-.5.2-.9.5-1.4.7h0c-.2.1-.5.2-.7.3h0c-.2.1-.5.2-.7.4h0c-.5.2-1,.5-1.5.7h0c-.3.1-.5.2-.8.4h0c-.3.1-.5.2-.8.4h0c-.3.1-.5.2-.8.4h0c-.5.2-1.1.5-1.6.8h0c-.3.1-.5.3-.8.4h0c-.6.3-1.1.5-1.7.8t0,0c-1.1.5-2.3,1.1-3.5,1.6h0c-10.2,4.6-22.2,9.5-34,13.4-.7.2-1.4.5-2.1.7h0c-.7.2-1.4.4-2.1.6h0c-1.4.4-2.8.8-4.1,1.2,0,0,0,0,0,0-.7.2-1.4.4-2,.6h0c-.7.2-1.4.4-2,.6h0c-2.7.7-5.4,1.3-8,1.9-7.6,1.5-14.6,2.2-20.5,1.7h0l-33.6,59-.7,1.2-.2.4h0c0,0-.2.3-.2.3h0s-15.2,26.8-15.2,26.8h0s0,0,0,0h0s0,0,0,0c0,0,0,0,0,0,0,0,0,0,0,0h0s0,0,.1-.1h0s0,0,0,0c0,0,.1-.1.2-.2,0,0,0,0,0,0h0c0,0,.1-.1.2-.2h0s0,0,0,0c0,0,.2-.2.3-.2h0s0,0,0,0c0,0,.2-.2.3-.3,0,0,0,0,0,0h0c.1-.1.2-.2.4-.3h0s0,0,0,0l.4-.4h0s0,0,0,0c.1-.1.3-.3.5-.4h0s0,0,0,0c.2-.1.3-.3.5-.4h0s0,0,0,0c.2-.2.4-.3.6-.5h0c.2-.2.4-.3.6-.5h0s0,0,0,0c.2-.2.4-.3.7-.5,0,0,0,0,0,0h0c.2-.2.5-.4.7-.6h0c.2-.2.5-.4.7-.6,0,0,0,0,0,0h0c.2-.2.5-.4.8-.6t0,0h0c.3-.2.5-.4.8-.6h0s0,0,0,0c.3-.2.6-.4.9-.6,0,0,0,0,0,0h0c.3-.2.6-.4.9-.7t0,0h0c.3-.2.6-.5.9-.7h0c.3-.2.6-.5,1-.7h0s0,0,0,0c.3-.2.7-.5,1-.7h0s0,0,0,0c.3-.2.7-.5,1.1-.7h0c.4-.2.7-.5,1.1-.8,0,0,0,0,0,0h0c.4-.2.7-.5,1.1-.8h0c.4-.2.8-.5,1.2-.8h0s0,0,0,0c.4-.3.8-.5,1.2-.8h0s0,0,0,0c.4-.3.8-.5,1.2-.8h0c.4-.3.8-.5,1.3-.8h0s0,0,0,0c.4-.3.9-.5,1.3-.8h0c.4-.3.9-.5,1.3-.8h0s0,0,0,0c.5-.3.9-.5,1.4-.8h0c.5-.3.9-.5,1.4-.8,0,0,0,0,0,0h0l1.4-.8h0c.5-.3.9-.5,1.4-.8,0,0,0,0,0,0h0c.5-.3,1-.5,1.5-.8h0c.5-.2,1-.5,1.5-.8h0c.5-.3,1-.5,1.5-.8h0s0,0,0,0c.5-.3,1-.5,1.5-.8h0c.5-.2,1-.5,1.6-.7h0c.5-.2,1.1-.5,1.6-.7h0c.5-.2,1.1-.5,1.6-.7h0c.5-.2,1.1-.5,1.6-.7h0s0,0,0,0c.6-.2,1.1-.5,1.7-.7h0c.6-.2,1.1-.4,1.7-.6,0,0,0,0,0,0h0c.6-.2,1.1-.4,1.7-.6h0c.6-.2,1.1-.4,1.7-.6h0c16-5.4,34.2-7.7,51.9-1.6h0c.5.2,1,.4,1.5.5h0s0,0,0,0c2.3.9,4.6,1.9,6.9,3"/>
      <path class="cls-1" d="M74.6,364.7c4.9.6,14,1.4,25.4,2.1,12.5.8,27.7,1.7,43.2,2.4t0,0c12.2.6,24.5,1,35.8,1.3,0,0,0,0,0,0,20.9.6,38.4.5,44.8-.5,7.6-1.3,25.4-5.5,49.3-10,31.6-6,73.9-12.4,117.1-13.3,6.2-.1,12.3,1,18.1,3.2,4.4,1.7,9.1,2.7,13.8,3.1l9.8.7v20c0,3.8-2,7.3-5.3,9.2l-7.8,4.5c-2,1.2-4.2,1.9-6.5,2.2-11.2,1.4-48.1,5.6-94.2,8.1-39.2,2.2-84.9,3.1-127,0-29.2-2.1-56.7-6.2-78.9-13.2-15.7-4.9-28.8-11.3-38.1-19.5-1.8-1.6-3.5-3.3-5-5"/>
      <path class="cls-1" d="M81.7,329.7c-5.1,1.3-9.6,4.3-12.7,8.8-3.7,5.3-5.2,12.4.4,21.5"/>
      <path class="cls-1" d="M434.1,338.4c-.7-4.3-2.9-8.2-6.5-10.8-2.9-2.1-6.8-3.5-12-3.3-11.5.5-31.2-.6-77.3,5.9-16.6,2.4-36.6,5.7-60.8,10.6-4.1.8-8.4,1.1-12.6.9-4.4-.2-8.8-1-13.1-2.4l-10.1-3.2h0s-24.3-7.8-24.3-7.8c-4.8-1.5-10.1,0-13.4,3.7l-5.7,6.5c-4.5,5.1-11.3,7.5-17.9,6.5-1.4-.2-2.7-.5-4.1-1-4.5-1.7-9.2-3.1-13.9-4.1s-9.5-1.8-14.3-2.2l-16.8-1.4h0s-.8,0-.8,0c-4-.3-7.9-.8-11.9-1.5-1.4-.2-2.8-.5-4.1-.8l-21.7-4.6c-2.1-.4-4.2-.6-6.2-.5-1.6,0-3.3.3-4.8.8"/>
      <path class="cls-1" d="M432.1,353.6l1.8-8.8c.3-1.5.4-3,.3-4.5,0-.6,0-1.2-.2-1.8"/>
      <path class="cls-1" d="M81.7,329.7h0c1,0,2.6-.3,4.8-.8,9.1-2.1,27.6-8,46.9-14.6,25.4-8.7,52.2-18.6,60.5-22.1"/>
      <path class="cls-1" d="M338.2,330.3s8.7-22.1,23.6-33.2c2.7-2,5.7-3.7,8.8-4.8,14.4-5,27.5-8.6,33.8-10.3,3.4-.9,6.9-1.2,10.3-.8,3.4.4,7.4,1.3,10.5,3.3,2.6,1.7,4.5,4.2,4.7,7.8.7,10.7,3.3,38.5,4.1,46h0c.1,1.3.2,1.9.2,1.9"/>
      <path class="cls-1" d="M425.3,284.6h0s-3.8-12.4-3.8-12.4c-1.8-5.8-6.1-10.4-11.7-12.5-2.2-.9-4.6-1.3-6.9-1.3-4.7,0-9.4,1.7-13,5-9,8.1-24.5,19.2-40.3,17.7,0,0-9.4,0-23.9-6.2-6-2.5-12.8-6.1-20.2-11.1-8.2-5.5-13.6-9.5-17.2-12.4h0c-.6-.5-1.1-.9-1.6-1.3-3.6-3-8.9-3-12.5,0l-7.2,5.8h0s-9.9,8-9.9,8"/>
      <path class="cls-1" d="M361.9,297.1s-24.9-3.3-51.2-10.3c-14.8-3.9-30-8.9-41.6-15-4.6-2.5-8.7-5.1-12-8l-52.4,23.5h0l-9.5,4.3-1.3.6-28.9,13s12.1-1.2,28.3.4h0s0,0,0,0c10.2,1,22.1,3.2,33.6,7.5h0c9.4,3.5,18.6,8.5,26.4,15.4,4.3,3.8,8.2,8.2,11.5,13.2,3.5,5.3,6.4,11.3,8.4,18.2"/>
      <line class="cls-1" x1="326.9" y1="373.2" x2="386.3" y2="369.7"/>
      <line class="cls-1" x1="328.8" y1="241.6" x2="374.6" y2="203.7"/>
    </g>
  </g>
</svg>