<?xml version="1.0" encoding="UTF-8"?>
<svg xmlns="http://www.w3.org/2000/svg" viewBox="0 0 500 500">
  <defs>
    <style>
      .cls-1, .cls-2 {
        stroke: #231f20;
      }

      .cls-1, .cls-2, .cls-3 {
        fill: none;
        stroke-miterlimit: 10;
        stroke-width: 5px;
      }

      .cls-1, .cls-3 {
        stroke-linecap: round;
      }

      .cls-4 {
        fill: #086977;
      }

      .cls-4, .cls-5, .cls-6, .cls-7, .cls-8, .cls-9, .cls-10, .cls-11, .cls-12 {
        stroke-width: 0px;
      }

      .cls-5 {
        fill: #03463f;
      }

      .cls-6 {
        fill: #009eac;
      }

      .cls-7 {
        fill: #68bfcb;
      }

      .cls-3 {
        stroke: #010101;
      }

      .cls-8 {
        fill: #231f20;
      }

      .cls-9 {
        fill: #84cfc9;
      }

      .cls-10 {
        fill: #042c33;
      }

      .cls-11 {
        fill: #9bd3dd;
      }

      .cls-12 {
        fill: #b6e1df;
      }
    </style>
  </defs>
  <g id="Layer_2" data-name="Layer 2">
    <rect class="cls-6" width="500" height="500"/>
  </g>
  <g id="Layer_1" data-name="Layer 1">
    <g>
      <g>
        <g>
          <path class="cls-10" d="M324.46,209.47c0,17.46,10.43,32.49,25.4,39.18v.03s.33,20.38.33,20.38c-10.26.22-18.6,1.72-25.66,4.37l-.06-.18v-63.78h0Z"/>
          <path class="cls-10" d="M410.28,209.47v63.78c-6.95-2.78-15.15-4.46-25.4-4.67l-.33-19.78c4.94-2.16,9.41-5.23,13.17-8.99,7.77-7.77,12.57-18.5,12.57-30.35Z"/>
          <path class="cls-10" d="M409.1,150.27h-83.46c4.5-14.61,21.47-25.48,41.73-25.48s37.24,10.87,41.73,25.48Z"/>
          <path class="cls-10" d="M324.46,179.38v-21.37c0-2.66.4-5.25,1.18-7.74h83.46c.77,2.48,1.18,5.07,1.18,7.74v21.37s-27.85,4.12-27.85-12.37c0,0-21.09,11.92-57.96,12.37Z"/>
          <path class="cls-11" d="M382.42,167.01c0,16.5,27.85,12.37,27.85,12.37v30.1c0,11.85-4.8,22.57-12.57,30.34-3.76,3.77-8.22,6.83-13.17,8.99-5.26,2.3-11.07,3.58-17.17,3.58s-12.15-1.33-17.51-3.73c-14.96-6.69-25.4-21.72-25.4-39.18v-30.1c36.88-.45,57.96-12.37,57.96-12.37Z"/>
          <path class="cls-4" d="M324.46,337.66h-38.29s8-45.94,27.83-58.89c3.21-2.1,6.68-3.88,10.53-5.32,7.06-2.65,15.39-4.16,25.66-4.37,5.14,3.46,11.07,5.18,17,5.18s12.4-1.89,17.69-5.66c10.25.22,18.45,1.89,25.4,4.67,3.82,1.52,7.26,3.37,10.46,5.51,20.04,13.33,27.83,58.89,27.83,58.89h-124.11Z"/>
          <path class="cls-11" d="M422.67,184.04c2.88,2.88,4.66,6.85,4.66,11.24,0,8.78-7.11,15.89-15.9,15.89h-1.15v-31.79h1.15c4.39,0,8.36,1.78,11.24,4.66Z"/>
          <path class="cls-11" d="M384.54,248.8l.33,19.78c-5.28,3.78-11.48,5.66-17.69,5.66s-11.86-1.72-17-5.18l-.33-20.38v-.03c5.35,2.39,11.28,3.73,17.51,3.73,6.1,0,11.92-1.28,17.17-3.58Z"/>
          <path class="cls-11" d="M324.46,179.83v31.33h-1.16c-4.39,0-8.36-1.78-11.24-4.66-2.88-2.88-4.66-6.85-4.66-11.24,0-8.78,7.11-15.9,15.89-15.9h1.17v.46Z"/>
        </g>
        <g>
          <path class="cls-3" d="M350.19,269.06c-10.26.22-18.6,1.72-25.66,4.37-3.85,1.44-7.32,3.22-10.53,5.32-19.82,12.95-27.83,58.89-27.83,58.89h83.61"/>
          <path class="cls-3" d="M369.77,337.66h78.8s-7.78-45.57-27.83-58.89c-3.2-2.14-6.65-3.99-10.46-5.51-6.95-2.78-15.15-4.46-25.4-4.67"/>
          <path class="cls-3" d="M324.46,209.47c0,17.46,10.43,32.49,25.4,39.18,5.35,2.39,11.27,3.73,17.51,3.73s11.92-1.27,17.17-3.58c4.94-2.16,9.41-5.23,13.17-8.99,7.77-7.77,12.57-18.49,12.57-30.34"/>
          <path class="cls-3" d="M324.46,179.38c36.88-.45,57.96-12.37,57.96-12.37,0,16.5,27.85,12.37,27.85,12.37v-21.37c0-2.66-.4-5.25-1.18-7.74-4.5-14.61-21.47-25.48-41.73-25.48s-37.24,10.87-41.73,25.48c-.77,2.48-1.18,5.07-1.18,7.74v21.37"/>
          <path class="cls-3" d="M324.46,179.38h-1.16c-8.78,0-15.89,7.12-15.89,15.9,0,4.39,1.78,8.36,4.66,11.24,2.88,2.88,6.85,4.66,11.24,4.66h1.15v-31.79Z"/>
          <path class="cls-3" d="M410.28,211.16h1.15c8.79,0,15.9-7.11,15.9-15.89,0-4.39-1.78-8.36-4.66-11.24-2.88-2.88-6.86-4.66-11.24-4.66h-1.15v31.79Z"/>
          <path class="cls-3" d="M384.54,248.77v.03l.33,19.78c-5.28,3.78-11.48,5.66-17.69,5.66s-11.86-1.72-17-5.18l-.33-20.38"/>
          <line class="cls-3" x1="324.46" y1="321.57" x2="324.46" y2="337.66"/>
          <line class="cls-3" x1="410.45" y1="321.39" x2="410.45" y2="337.48"/>
          <line class="cls-3" x1="410.28" y1="211.16" x2="410.28" y2="273.25"/>
          <line class="cls-3" x1="324.46" y1="211.16" x2="324.46" y2="273.25"/>
        </g>
      </g>
      <circle class="cls-8" cx="346.51" cy="195.46" r="4.94"/>
      <circle class="cls-8" cx="388.21" cy="195.46" r="4.94"/>
      <path class="cls-1" d="M383.35,215.39c0,8.83-7.16,15.98-15.98,15.98s-15.98-7.16-15.98-15.98"/>
    </g>
    <g>
      <g>
        <g>
          <path class="cls-4" d="M90.45,337.65h-39.03s8.17-46.82,28.36-60.03c9.28-6.07,20.74-9.54,36.9-9.88,5.24,3.54,11.28,5.29,17.32,5.29,6.33,0,12.65-1.93,18.04-5.78,16.16.35,27.32,4.23,36.56,10.37,20.43,13.59,28.36,60.03,28.36,60.03h-126.5Z"/>
          <path class="cls-10" d="M177.92,168.53l9.09,87.74h-35.16l-.15-9.19c15.44-6.75,26.22-22.15,26.22-40.08v-38.48Z"/>
          <path class="cls-11" d="M151.7,247.08c-5.36,2.35-11.28,3.65-17.51,3.65s-12.39-1.36-17.83-3.8c-4.91-2.19-9.33-5.26-13.09-9.01-7.92-7.91-12.81-18.85-12.81-30.92v-34.22h14.92l5.44-8.41,5.53,8.41h61.57v34.22c0,17.93-10.79,33.33-26.22,40.08ZM159.12,193.49c0-2.64-2.14-4.78-4.77-4.78s-4.77,2.14-4.77,4.78,2.14,4.77,4.77,4.77,4.77-2.14,4.77-4.77ZM118.83,193.49c0-2.64-2.14-4.78-4.77-4.78s-4.78,2.14-4.78,4.78,2.14,4.77,4.78,4.77,4.77-2.14,4.77-4.77Z"/>
          <path class="cls-10" d="M177.92,172.78h-61.57l-5.53-8.41-5.44,8.41h-14.92c0-28.41,19.58-47.99,43.73-47.99s43.73,19.58,43.73,47.99Z"/>
          <path class="cls-8" d="M154.35,188.71c2.63,0,4.77,2.14,4.77,4.78s-2.14,4.77-4.77,4.77-4.77-2.14-4.77-4.77,2.14-4.78,4.77-4.78Z"/>
          <path class="cls-11" d="M151.85,256.27l.19,10.98c-5.38,3.85-11.71,5.78-18.04,5.78s-12.08-1.76-17.32-5.29l-.19-11.47-.15-9.31v-.03c5.45,2.44,11.49,3.8,17.84,3.8s12.15-1.3,17.51-3.65l.15,9.19Z"/>
          <path class="cls-8" d="M114.06,188.71c2.63,0,4.77,2.14,4.77,4.78s-2.14,4.77-4.77,4.77-4.78-2.14-4.78-4.77,2.14-4.78,4.78-4.78Z"/>
          <path class="cls-10" d="M116.35,246.96l.15,9.31h-35.04l9-87.74v38.48c0,12.08,4.89,23.01,12.81,30.92,3.76,3.76,8.18,6.83,13.09,9.01v.03Z"/>
        </g>
        <g>
          <path class="cls-1" d="M116.68,267.74c-16.16.34-27.61,3.81-36.9,9.88-20.2,13.21-28.36,60.03-28.36,60.03h85.21"/>
          <path class="cls-1" d="M136.64,337.65h80.32s-7.92-46.44-28.36-60.03c-9.24-6.14-20.4-10.03-36.56-10.37"/>
          <path class="cls-1" d="M177.92,168.53v38.48c0,17.93-10.79,33.33-26.22,40.08-5.36,2.35-11.28,3.65-17.51,3.65s-12.39-1.36-17.83-3.8c-4.91-2.19-9.33-5.26-13.09-9.01-7.92-7.91-12.81-18.85-12.81-30.92v-38.48"/>
          <path class="cls-1" d="M151.7,247.06v.02l.15,9.19.19,10.98c-5.38,3.85-11.71,5.78-18.04,5.78s-12.08-1.76-17.32-5.29l-.19-11.47-.15-9.31"/>
          <line class="cls-1" x1="90.45" y1="321.26" x2="90.45" y2="337.65"/>
          <line class="cls-1" x1="178.11" y1="321.08" x2="178.11" y2="337.48"/>
          <path class="cls-1" d="M90.45,172.78h14.92l5.44-8.41,5.53,8.41h61.57c0-28.41-19.58-47.99-43.73-47.99s-43.73,19.58-43.73,47.99Z"/>
          <polyline class="cls-1" points="177.92 168.53 187.01 256.27 152.04 256.27"/>
          <polyline class="cls-1" points="90.45 168.53 81.46 256.27 116.43 256.27"/>
        </g>
      </g>
      <path class="cls-1" d="M131.81,232.95c-8.53,0-15.44-6.91-15.44-15.44"/>
    </g>
    <g>
      <g>
        <path class="cls-10" d="M293.79,181.71c.85,3.04,1.29,6.25,1.29,9.56v20.49c-19.04-.24-34-3.43-44.21-6.57-10.2-3.13-15.65-6.21-15.65-6.21h0c0,3.38-1.13,5.92-2.93,7.82-4.28,4.5-12.38,5.44-18.38,5.44-4.25,0-7.45-.47-7.45-.47v-20.48h0c0-3.47.91-6.74,2.51-9.56h0c.83-1.48,1.85-2.83,3.03-4.04,1.18-1.21,2.51-2.26,3.97-3.13,2.91-1.73,6.32-2.73,9.95-2.73,1.03,0,2.02.1,3,.25h0c1.39-2.19,3.01-4.22,4.83-6.06.52-.53,1.05-1.03,1.61-1.53.55-.49,1.11-.97,1.69-1.42,3.77-2.97,8.16-5.2,12.94-6.47,2.94-.78,6.02-1.19,9.21-1.19,8.26,0,15.85,2.79,21.91,7.47,1.13.88,2.21,1.82,3.24,2.83,4.42,4.35,7.72,9.85,9.42,16.01Z"/>
        <path class="cls-4" d="M206.47,375.21h-39.54s0-.03.01-.08c.19-1.03,2.27-12.42,6.68-25.32,1.3-3.81,2.8-7.74,4.51-11.59.19-.43.39-.85.58-1.27.79-1.7,1.61-3.37,2.48-5,.22-.41.44-.81.66-1.21.67-1.21,1.36-2.39,2.08-3.53.48-.76.97-1.51,1.47-2.23.25-.37.51-.73.76-1.08.77-1.06,1.57-2.08,2.38-3.05.55-.65,1.11-1.27,1.67-1.86.29-.3.57-.59.87-.87,1.45-1.43,2.97-2.67,4.57-3.72,1.17-.77,2.39-1.49,3.63-2.18.93-.51,1.89-1,2.87-1.47h0c1.31-.62,2.66-1.2,4.06-1.74,7.36-2.8,16.05-4.39,26.8-4.62h0c5.31,3.57,11.42,5.36,17.54,5.36,6.42,0,12.82-1.95,18.27-5.85,3.58.07,6.92.32,10.05.73h0c.89.12,1.77.25,2.63.39,4.73.77,8.98,1.93,12.84,3.42.7.27,1.39.55,2.07.85h0c1.02.44,2.01.9,2.98,1.38,2.26,1.13,4.4,2.39,6.45,3.75,1.94,1.29,3.77,2.87,5.5,4.67.58.61,1.14,1.23,1.69,1.89s1.09,1.32,1.61,2.01c0,0,0,0,0,0,.53.69,1.04,1.41,1.55,2.13.25.37.51.74.75,1.12.49.75.97,1.51,1.44,2.29t0,0c.47.77.93,1.57,1.37,2.37,10.5,18.93,14.84,44.31,14.84,44.31h-128.16Z"/>
        <path class="cls-12" d="M312.69,228.18h0s0,0,0,0c0-1.14-.11-2.25-.33-3.31h0c.22,1.07.33,2.17.33,3.31Z"/>
        <path class="cls-12" d="M312.69,228.18h0c0,1.7-.26,3.34-.74,4.88.47-1.55.73-3.18.73-4.88Z"/>
        <path class="cls-11" d="M312.35,224.87c.22,1.07.33,2.17.33,3.31,0,1.7-.26,3.33-.73,4.88-1.6,5.14-5.65,9.18-10.78,10.78-1.55.47-3.18.73-4.88.73h-1.19v-1.74h0v-30.61h0v-.47h1.19c2.27,0,4.42.46,6.38,1.29,1.97.83,3.73,2.03,5.22,3.51.19.19.37.37.55.57.53.58,1.01,1.2,1.46,1.85.14.22.29.45.43.67.41.67.77,1.39,1.08,2.12.41.98.74,2.01.96,3.08Z"/>
        <path class="cls-12" d="M312.36,224.87h0c-.22-1.07-.55-2.1-.96-3.08h0c.42.98.74,2.01.96,3.08Z"/>
        <path class="cls-12" d="M310.31,219.67c.42.67.78,1.39,1.09,2.12h0c-.31-.73-.67-1.45-1.08-2.12Z"/>
        <path class="cls-12" d="M308.43,217.14c.53.58,1.02,1.2,1.46,1.85-.45-.65-.93-1.27-1.46-1.85Z"/>
        <path class="cls-12" d="M307.89,216.57c.19.19.37.37.54.57-.18-.19-.36-.38-.55-.57-1.49-1.48-3.25-2.69-5.22-3.51h0c1.97.82,3.73,2.02,5.22,3.51Z"/>
        <path class="cls-12" d="M302.66,213.05h0c-1.96-.83-4.11-1.29-6.38-1.29h0c2.27,0,4.42.45,6.38,1.29Z"/>
        <polygon class="cls-12" points="296.28 211.76 296.28 211.77 296.27 211.77 295.09 211.77 295.09 211.75 296.28 211.75 296.28 211.76"/>
        <polygon class="cls-12" points="295.09 242.84 295.09 242.84 295.08 242.84 295.08 212.24 295.09 212.24 295.09 242.84"/>
        <rect class="cls-12" x="295.08" y="212.23" width="0" height="0"/>
        <polygon class="cls-12" points="295.09 212.23 295.09 212.23 295.08 212.23 295.08 211.77 295.09 211.77 295.09 212.23"/>
        <rect class="cls-12" x="295.08" y="211.76" width="0" height="0"/>
        <path class="cls-10" d="M295.09,211.75h0s0,0,0,0c-19.04-.24-34-3.43-44.2-6.57h0c10.2,3.13,25.17,6.32,44.21,6.56Z"/>
        <path class="cls-11" d="M268.52,283.45c-.34.15-.68.29-1.03.43-.34.14-.69.27-1.03.41-2.09.79-4.25,1.43-6.48,1.9-.74.16-1.49.3-2.24.42h0c-.75.12-1.51.22-2.28.3s-1.53.14-2.31.18-1.57.06-2.35.06c-4.83,0-9.48-.77-13.82-2.2-1.09-.35-2.15-.75-3.21-1.19-.35-.14-.69-.29-1.04-.45h0c-4.97-2.22-9.46-5.34-13.26-9.14-8.02-8.02-12.98-19.09-12.98-31.32h0v-31.08s3.19.47,7.45.47c6,0,14.1-.93,18.38-5.44,1.81-1.9,2.93-4.43,2.93-7.81,0,0,5.44,3.07,15.65,6.21,10.2,3.13,25.16,6.33,44.2,6.57h0v.47h0v30.61h0c0,.29,0,.57,0,.85-.33,17.8-11.17,33.03-26.56,39.76ZM277.66,252.41c.12-.96-.23-1.86-.87-2.49-.54-.55-1.31-.9-2.15-.9h-47.71c-.85,0-1.61.35-2.15.9-.64.63-.99,1.53-.87,2.49.35,2.81,1.13,5.48,2.27,7.95.21.45.43.89.66,1.32h0c.81,1.53,1.75,2.96,2.83,4.29h0c.45.58.93,1.13,1.44,1.65.17.18.34.35.51.53,1.37,1.39,2.91,2.62,4.56,3.68,2.11,1.36,4.41,2.43,6.87,3.16.61.18,1.23.34,1.87.48,1.89.42,3.86.64,5.88.64h.03c1.01,0,2-.06,2.97-.17.33-.03.65-.07.97-.13.31-.05.63-.1.94-.15,0,0,.01,0,.02,0,.32-.06.64-.12.95-.19.63-.13,1.24-.29,1.85-.47t.01,0c.3-.09.6-.19.9-.29t.01,0c.29-.1.59-.21.89-.31h0c.29-.12.59-.23.87-.35,0,0,0,0,0,0,.29-.12.58-.25.86-.37,0,0,0,0,0,0,.29-.13.57-.27.85-.41,0,0,0,0,0,0,.28-.14.56-.29.83-.43.55-.3,1.09-.62,1.61-.96,1.65-1.06,3.19-2.29,4.56-3.68.17-.17.34-.35.51-.53.51-.53.99-1.07,1.44-1.65h0c1.08-1.34,2.02-2.77,2.83-4.29h0c.23-.44.45-.88.66-1.33,1.13-2.47,1.91-5.14,2.27-7.95Z"/>
        <path class="cls-5" d="M281.13,162.86c1.14.88,2.22,1.83,3.24,2.83-1.03-1.01-2.11-1.95-3.24-2.83h0Z"/>
        <path class="cls-5" d="M281.13,162.86h0c-6.06-4.67-13.66-7.46-21.91-7.46h0c8.26,0,15.85,2.78,21.91,7.46Z"/>
        <path class="cls-10" d="M276.79,249.93c.64.63.99,1.53.87,2.49-.35,2.81-1.13,5.48-2.27,7.95-.21.45-.43.89-.66,1.32h0c-.81,1.53-1.75,2.96-2.83,4.29h0c-.46.57-.94,1.13-1.44,1.65-.17.18-.34.35-.51.53-1.38,1.38-2.91,2.61-4.56,3.67l-.09-.15h0c-.5-.51-1.02-.98-1.56-1.41-.54-.44-1.09-.85-1.66-1.22-.85-.57-1.74-1.06-2.65-1.48-.61-.29-1.23-.53-1.85-.75-2.19-.77-4.49-1.15-6.79-1.15s-4.39.35-6.49,1.05c-.1.03-.2.07-.3.1-.63.21-1.25.47-1.85.75-.31.14-.61.29-.9.44h0c-.59.32-1.18.66-1.75,1.04-.57.37-1.12.78-1.66,1.22-.54.43-1.06.91-1.56,1.41h0s-.09.15-.09.15c-1.65-1.06-3.18-2.29-4.56-3.67-.17-.17-.34-.35-.51-.53-.5-.53-.98-1.08-1.44-1.65h0c-1.07-1.34-2.02-2.77-2.83-4.29h0c-.23-.44-.45-.88-.66-1.33-1.13-2.47-1.91-5.14-2.27-7.95-.12-.96.23-1.86.87-2.49.55-.55,1.31-.89,2.15-.89h47.71c.84,0,1.61.34,2.15.89Z"/>
        <path class="cls-5" d="M274.73,261.68c.23-.43.45-.87.66-1.32-.21.45-.43.89-.66,1.32Z"/>
        <path class="cls-12" d="M274.63,249.02c.85,0,1.61.35,2.15.9-.55-.55-1.31-.89-2.15-.89h0Z"/>
        <rect class="cls-12" x="226.93" y="249.02" width="47.71" height="0"/>
        <path class="cls-5" d="M271.91,265.98c1.07-1.33,2.02-2.77,2.83-4.29-.81,1.52-1.75,2.95-2.83,4.29Z"/>
        <path class="cls-5" d="M270.47,267.63c.5-.53.98-1.08,1.44-1.65-.45.57-.93,1.12-1.44,1.65Z"/>
        <path class="cls-11" d="M268.86,303.88h0c-5.46,3.91-11.86,5.86-18.27,5.86s-12.23-1.78-17.54-5.36h0l-.34-21.06h0s0,0,0,0c.35.15.69.31,1.04.45,1.05.44,2.12.84,3.21,1.19,4.34,1.43,8.99,2.2,13.82,2.2.79,0,1.57-.02,2.35-.06.77-.04,1.55-.1,2.31-.18s1.53-.18,2.28-.3h0c.75-.12,1.5-.25,2.24-.41,2.23-.47,4.39-1.11,6.48-1.9.35-.13.69-.27,1.03-.41.35-.14.69-.29,1.03-.43l.34,20.43Z"/>
        <path class="cls-12" d="M267.49,283.88c-.34.14-.69.28-1.03.41h0c.35-.14.69-.27,1.03-.41Z"/>
        <path class="cls-12" d="M266.46,284.29h0c-2.09.8-4.25,1.44-6.48,1.91h0c2.23-.48,4.39-1.11,6.48-1.91Z"/>
        <path class="cls-5" d="M265.39,271.83c1.65-1.06,3.18-2.29,4.56-3.67-1.37,1.39-2.91,2.62-4.56,3.68h0Z"/>
        <path class="cls-7" d="M265.39,271.83c-.26.17-.53.33-.8.49-.53.32-1.09.63-1.65.91,0,0,0,0,0,0-.28.14-.56.27-.85.41h0c-.28.13-.57.26-.86.38,0,0,0,0,0,0-.29.13-.58.24-.87.35h0c-.3.11-.6.22-.9.32s-.6.2-.9.29h-.01c-.17.05-.33.1-.51.14-.44.13-.89.24-1.34.34-.31.07-.63.13-.95.19h-.02c-.31.06-.63.11-.94.16-.32.05-.65.09-.97.13-.97.11-1.97.16-2.97.16h-.03c-1.68,0-3.33-.15-4.92-.45-.64-.12-1.27-.25-1.89-.41-.31-.08-.62-.17-.93-.26-2.45-.73-4.76-1.8-6.87-3.16l.09-.15c.5-.5,1.02-.97,1.56-1.41.54-.44,1.09-.85,1.66-1.22.57-.38,1.15-.72,1.75-1.03h0c.29-.15.59-.31.9-.45.61-.29,1.23-.54,1.85-.75.31-.11.62-.21.94-.3,1.91-.57,3.87-.85,5.85-.85,2.29,0,4.59.38,6.79,1.15.63.22,1.25.47,1.85.75.91.42,1.79.91,2.65,1.48.57.37,1.12.78,1.66,1.22s1.06.91,1.56,1.41l.09.15Z"/>
        <path class="cls-9" d="M265.3,271.68h0c-.5-.49-1.02-.97-1.56-1.41.54.43,1.06.91,1.56,1.41Z"/>
        <path class="cls-9" d="M264.59,272.33c-.27.17-.54.32-.81.47-.27.15-.55.29-.83.43.56-.28,1.11-.59,1.65-.91Z"/>
        <path class="cls-5" d="M259.42,267.57c.91.42,1.8.91,2.65,1.48-.86-.57-1.75-1.06-2.65-1.48Z"/>
        <path class="cls-12" d="M259.98,286.19h0c-.74.17-1.49.3-2.24.42.75-.12,1.5-.26,2.24-.42Z"/>
        <path class="cls-5" d="M259.22,155.39h0c-3.19,0-6.27.42-9.21,1.2,2.94-.79,6.02-1.2,9.21-1.2Z"/>
        <path class="cls-5" d="M257.57,266.82c-2.19-.77-4.49-1.15-6.79-1.15h0c2.3,0,4.59.38,6.79,1.15Z"/>
        <path class="cls-12" d="M255.45,286.91c.77-.08,1.53-.18,2.28-.3-.75.12-1.51.22-2.28.3Z"/>
        <path class="cls-12" d="M253.13,287.09c.78-.04,1.55-.1,2.31-.18-.77.08-1.54.14-2.31.18Z"/>
        <path class="cls-10" d="M250.88,205.18h0c-10.2-3.13-15.65-6.2-15.65-6.2h0s5.44,3.07,15.65,6.2Z"/>
        <path class="cls-5" d="M250.78,265.66h0c-1.97,0-3.94.29-5.85.85-.21.06-.43.13-.64.2,2.1-.7,4.29-1.05,6.49-1.05Z"/>
        <path class="cls-9" d="M244.93,266.52c-.32.09-.63.19-.94.3.1-.03.2-.07.3-.1.21-.07.43-.14.64-.2Z"/>
        <path class="cls-9" d="M242.14,267.57c-.31.14-.61.29-.9.45h0c.29-.16.59-.31.9-.45Z"/>
        <path class="cls-5" d="M241.24,268.01h0s0,0,0,0h0Z"/>
        <path class="cls-5" d="M239.48,269.05c.57-.38,1.15-.72,1.75-1.03-.59.31-1.18.65-1.75,1.03Z"/>
        <path class="cls-9" d="M236.26,271.68c.5-.5,1.02-.97,1.56-1.41-.54.44-1.06.91-1.56,1.41h0Z"/>
        <path class="cls-5" d="M235.37,164.48c.55-.49,1.11-.97,1.69-1.42-.58.45-1.15.93-1.69,1.42Z"/>
        <path class="cls-5" d="M236.17,271.83h0c-1.65-1.05-3.19-2.29-4.56-3.67,1.38,1.38,2.91,2.61,4.56,3.67Z"/>
        <path class="cls-5" d="M235.37,164.48c-.55.49-1.09,1-1.61,1.53.51-.53,1.05-1.03,1.61-1.53Z"/>
        <path class="cls-5" d="M229.65,265.98c.46.57.94,1.12,1.44,1.65-.51-.53-.99-1.07-1.44-1.65Z"/>
        <path class="cls-5" d="M228.93,172.06h0c-.98-.15-1.97-.25-3-.25h0c1.03,0,2.02.09,3,.25Z"/>
        <path class="cls-5" d="M226.83,261.69c.81,1.52,1.75,2.95,2.83,4.29-1.08-1.33-2.02-2.77-2.83-4.29Z"/>
        <path class="cls-12" d="M226.93,249.02h0c-.84,0-1.61.35-2.15.9.54-.55,1.31-.9,2.15-.9Z"/>
        <path class="cls-5" d="M226.16,260.36c.21.45.43.89.66,1.32-.23-.43-.45-.87-.66-1.32Z"/>
        <path class="cls-5" d="M225.93,171.81h0c-3.63,0-7.04,1.01-9.95,2.74h0c2.91-1.74,6.32-2.74,9.95-2.74Z"/>
        <path class="cls-5" d="M215.98,174.54h0c-1.46.87-2.79,1.93-3.97,3.13,1.17-1.21,2.51-2.26,3.97-3.13Z"/>
        <path class="cls-10" d="M213.92,212.23c6,0,14.1-.93,18.38-5.44-4.28,4.51-12.38,5.44-18.38,5.44h0Z"/>
        <path class="cls-10" d="M213.92,212.23h0c-4.25,0-7.45-.47-7.45-.47h0s3.19.47,7.45.47Z"/>
        <path class="cls-11" d="M206.47,242.84h0v1.75h-1.19c-4.53,0-8.64-1.84-11.61-4.81-2.97-2.97-4.81-7.07-4.81-11.6,0-5.68,2.87-10.67,7.24-13.62.36-.24.73-.47,1.1-.67,1.07-.61,2.21-1.1,3.41-1.45.38-.11.77-.21,1.17-.3,1.13-.25,2.29-.37,3.49-.37h1.19v31.08Z"/>
        <path class="cls-4" d="M206.24,309c-1.4.54-2.75,1.12-4.06,1.74,1.31-.63,2.66-1.2,4.06-1.74Z"/>
        <path class="cls-4" d="M202.18,310.74c-.98.47-1.94.95-2.87,1.47.93-.51,1.89-1.01,2.87-1.47Z"/>
        <path class="cls-4" d="M191.09,318.11c-.29.29-.58.57-.87.87.29-.3.57-.59.87-.87Z"/>
        <path class="cls-4" d="M190.23,318.98c-.57.59-1.13,1.21-1.67,1.86.55-.65,1.1-1.27,1.67-1.86Z"/>
        <path class="cls-4" d="M188.55,320.84c-.81.97-1.61,1.99-2.38,3.05.77-1.06,1.56-2.08,2.38-3.05Z"/>
        <path class="cls-4" d="M185.41,324.97c-.5.73-.99,1.47-1.47,2.23.47-.76.97-1.51,1.47-2.23Z"/>
        <path class="cls-4" d="M183.94,327.2c-.72,1.14-1.41,2.32-2.08,3.53.67-1.21,1.36-2.39,2.08-3.53Z"/>
        <path class="cls-4" d="M181.2,331.95c-.87,1.63-1.69,3.3-2.48,5,.78-1.7,1.61-3.37,2.48-5Z"/>
        <path class="cls-4" d="M178.14,338.22c-1.71,3.85-3.21,7.78-4.51,11.59h0c1.3-3.81,2.8-7.74,4.52-11.59Z"/>
        <path class="cls-4" d="M173.62,349.81h0c-4.41,12.9-6.5,24.28-6.68,25.32h0c.19-1.03,2.27-12.42,6.68-25.32Z"/>
        <path class="cls-4" d="M166.94,375.13h0c0,.05-.01.08-.01.08h0s0-.03.01-.08Z"/>
      </g>
      <g>
        <path class="cls-2" d="M318.42,328.52c.47.77.93,1.57,1.37,2.37"/>
        <path class="cls-2" d="M316.98,326.23c.49.75.97,1.51,1.44,2.29"/>
        <path class="cls-2" d="M314.69,322.98c.53.69,1.04,1.41,1.55,2.13"/>
        <path class="cls-2" d="M313.07,320.96c.55.65,1.09,1.32,1.61,2.01"/>
        <path class="cls-2" d="M296.46,309.26c1.02.44,2.01.9,2.98,1.38,2.26,1.13,4.4,2.39,6.45,3.75,1.94,1.29,3.77,2.87,5.5,4.67"/>
        <path class="cls-2" d="M294.39,308.42c.7.27,1.39.55,2.07.85"/>
        <path class="cls-2" d="M278.92,304.61c.89.12,1.77.25,2.63.39"/>
        <path class="cls-2" d="M268.86,303.88c3.58.07,6.92.32,10.05.73"/>
        <path class="cls-2" d="M202.18,310.74c1.31-.63,2.66-1.2,4.06-1.74"/>
        <path class="cls-2" d="M199.3,312.21c.93-.51,1.89-1.01,2.87-1.47"/>
        <path class="cls-2" d="M186.17,323.89c.77-1.06,1.56-2.08,2.38-3.05.55-.65,1.1-1.27,1.67-1.86.29-.3.57-.59.87-.87"/>
        <path class="cls-2" d="M181.86,330.73c.67-1.21,1.36-2.39,2.08-3.53.47-.76.97-1.51,1.47-2.23"/>
        <path class="cls-2" d="M178.72,336.95c.78-1.7,1.61-3.37,2.48-5"/>
        <path class="cls-2" d="M166.93,375.21h0s0-.03.01-.08c.19-1.03,2.27-12.42,6.68-25.32,1.3-3.81,2.8-7.74,4.52-11.59"/>
        <path class="cls-2" d="M301.17,243.85c-1.55.47-3.18.73-4.88.73h-1.19v-1.74h0v-30.61h0v-.47h0s1.19-.01,1.19-.01h0c2.27,0,4.42.47,6.38,1.3,1.97.83,3.73,2.03,5.22,3.51.19.19.37.37.54.57.53.58,1.02,1.2,1.46,1.85"/>
        <path class="cls-2" d="M310.31,219.67c.42.67.78,1.39,1.09,2.12.42.98.74,2.01.96,3.08.22,1.07.33,2.17.33,3.31h0c0,1.71-.26,3.35-.74,4.89"/>
        <polyline class="cls-2" points="295.09 211.76 295.09 211.77 295.09 212.23 295.09 212.23 295.09 212.24 295.09 242.84 295.09 242.84"/>
        <path class="cls-2" d="M263.78,272.8c.55-.3,1.09-.62,1.61-.96"/>
        <path class="cls-2" d="M262.08,273.65s0,0,0,0c.29-.13.57-.27.85-.41"/>
        <path class="cls-2" d="M261.22,274.03s0,0,0,0"/>
        <path class="cls-2" d="M260.34,274.39h0"/>
        <path class="cls-1" d="M259.44,274.71s0,0,.01,0"/>
        <path class="cls-2" d="M256.68,275.47c.63-.13,1.24-.29,1.85-.47t.01,0"/>
        <path class="cls-2" d="M255.7,275.67s.01,0,.02,0"/>
        <path class="cls-2" d="M236.17,271.84c2.11,1.36,4.41,2.43,6.87,3.16.61.18,1.23.34,1.87.48,1.89.42,3.86.64,5.88.64h.03c1.01,0,2-.06,2.97-.17.33-.03.65-.07.97-.13"/>
        <path class="cls-2" d="M250.01,156.59c2.94-.79,6.02-1.2,9.21-1.2,8.26,0,15.85,2.79,21.91,7.47,1.14.88,2.22,1.83,3.24,2.83"/>
        <path class="cls-2" d="M233.77,166.01c.51-.53,1.05-1.03,1.61-1.53.55-.49,1.11-.97,1.69-1.42"/>
        <path class="cls-2" d="M212.01,177.67c1.17-1.21,2.51-2.26,3.97-3.13,2.91-1.73,6.32-2.73,9.95-2.73,1.03,0,2.02.1,3,.25"/>
        <path class="cls-2" d="M224.77,249.93c.55-.55,1.31-.89,2.15-.89h47.71c.84,0,1.61.34,2.15.89"/>
        <path class="cls-2" d="M226.83,261.68c-.23-.43-.45-.87-.66-1.32"/>
        <path class="cls-2" d="M229.65,265.98c-1.08-1.33-2.02-2.77-2.83-4.29"/>
        <path class="cls-2" d="M231.09,267.63c-.51-.53-.99-1.07-1.44-1.65"/>
        <path class="cls-2" d="M236.17,271.83h0c-1.65-1.05-3.19-2.29-4.56-3.67"/>
        <path class="cls-2" d="M269.95,268.16c-1.37,1.39-2.91,2.62-4.56,3.68h0"/>
        <path class="cls-2" d="M271.91,265.98c-.45.57-.93,1.12-1.44,1.65"/>
        <path class="cls-2" d="M274.73,261.69c-.81,1.52-1.75,2.95-2.83,4.29"/>
        <path class="cls-2" d="M275.39,260.36c-.21.45-.43.89-.66,1.32"/>
        <path class="cls-2" d="M259.98,286.19c2.23-.47,4.39-1.11,6.48-1.9.35-.13.69-.27,1.03-.41"/>
        <path class="cls-1" d="M257.74,286.61c.75-.12,1.5-.26,2.24-.42"/>
        <path class="cls-2" d="M253.13,287.09c.78-.04,1.55-.1,2.31-.18s1.53-.18,2.28-.3"/>
        <path class="cls-2" d="M233.75,283.76c1.05.44,2.12.84,3.21,1.19"/>
        <line class="cls-2" x1="232.7" y1="283.32" x2="232.71" y2="283.31"/>
        <path class="cls-2" d="M259.42,267.57c.91.42,1.79.91,2.65,1.48"/>
        <path class="cls-2" d="M244.29,266.72c.21-.07.43-.14.64-.2,1.91-.57,3.87-.85,5.85-.85,2.29,0,4.59.38,6.79,1.15"/>
        <path class="cls-2" d="M239.48,269.05c.57-.38,1.15-.72,1.75-1.03h0"/>
        <polyline class="cls-2" points="236.17 271.83 236.26 271.69 236.26 271.68"/>
        <path class="cls-2" d="M245.86,275.67c-.64-.12-1.27-.25-1.89-.41"/>
        <path class="cls-2" d="M255.7,275.67c-.31.06-.63.11-.94.16"/>
        <path class="cls-2" d="M258.52,274.99c-.17.05-.33.1-.51.14"/>
        <path class="cls-2" d="M260.34,274.38c-.3.11-.6.22-.9.32s-.6.2-.9.29"/>
        <path class="cls-2" d="M261.22,274.03c-.29.13-.58.24-.87.35"/>
        <path class="cls-2" d="M262.08,273.65c-.28.13-.57.26-.86.38"/>
        <path class="cls-2" d="M264.59,272.33c-.27.17-.54.32-.81.47-.27.15-.55.29-.83.43"/>
        <polyline class="cls-2" points="265.3 271.68 265.3 271.69 265.39 271.83"/>
        <path class="cls-2" d="M200.62,212.43c.38-.11.77-.21,1.17-.3"/>
        <path class="cls-2" d="M196.11,214.56c.36-.24.73-.47,1.1-.67"/>
        <path class="cls-1" d="M202.18,310.74c-.98.47-1.94.95-2.87,1.47-1.25.69-2.46,1.41-3.63,2.18-1.6,1.05-3.12,2.29-4.57,3.72-.29.29-.58.57-.87.87-.57.59-1.13,1.21-1.67,1.86-.81.97-1.61,1.99-2.38,3.05-.25.35-.51.71-.76,1.08-.5.73-.99,1.47-1.47,2.23-.72,1.14-1.41,2.32-2.08,3.53-.22.4-.44.81-.66,1.21-.87,1.63-1.69,3.3-2.48,5-.19.43-.39.85-.58,1.27-1.71,3.85-3.21,7.78-4.51,11.59-4.41,12.9-6.5,24.28-6.68,25.32,0,.05-.01.08-.01.08h86.33"/>
        <line class="cls-2" x1="202.18" y1="310.74" x2="202.18" y2="310.74"/>
        <path class="cls-1" d="M233.04,304.38c-10.74.23-19.43,1.82-26.8,4.62-1.4.54-2.75,1.12-4.06,1.74"/>
        <path class="cls-1" d="M278.91,304.61c-3.13-.41-6.47-.66-10.04-.73"/>
        <path class="cls-2" d="M278.92,304.61h0"/>
        <path class="cls-1" d="M296.46,309.26c-.68-.29-1.37-.57-2.07-.85-3.87-1.49-8.11-2.65-12.84-3.42-.86-.15-1.73-.27-2.63-.39"/>
        <path class="cls-2" d="M296.46,309.26h0"/>
        <path class="cls-1" d="M314.69,322.97c-.52-.69-1.06-1.36-1.61-2.01-.55-.65-1.11-1.28-1.69-1.89-1.72-1.81-3.55-3.39-5.49-4.68-2.05-1.36-4.19-2.61-6.46-3.74-.97-.49-1.96-.95-2.98-1.38"/>
        <path class="cls-2" d="M314.69,322.98s0,0,0,0"/>
        <path class="cls-1" d="M318.42,328.52c-.47-.78-.95-1.54-1.44-2.29-.24-.38-.49-.75-.75-1.12-.5-.73-1.01-1.44-1.55-2.13"/>
        <path class="cls-2" d="M318.42,328.52s0,0,0,0"/>
        <path class="cls-1" d="M253.26,375.21h81.37s-4.33-25.38-14.84-44.31c-.44-.81-.9-1.6-1.37-2.37"/>
        <path class="cls-1" d="M295.09,242.84c0,.29,0,.57,0,.85-.33,17.8-11.17,33.03-26.56,39.76-.34.15-.68.29-1.03.43-.34.14-.69.28-1.03.41-2.09.79-4.25,1.43-6.48,1.9-.74.16-1.49.29-2.24.41h0c-.75.12-1.51.22-2.28.3s-1.54.14-2.31.18c-.78.04-1.57.06-2.35.06-4.83,0-9.48-.77-13.82-2.2-1.09-.35-2.15-.75-3.21-1.19-.35-.14-.69-.29-1.04-.45h0c-4.97-2.22-9.46-5.34-13.26-9.14-8.02-8.02-12.98-19.09-12.98-31.32"/>
        <path class="cls-1" d="M206.47,211.76h-1.19c-1.2,0-2.37.13-3.49.37-.4.09-.79.19-1.17.3-1.21.35-2.35.84-3.41,1.45-.38.21-.75.43-1.1.67-4.37,2.95-7.24,7.94-7.24,13.62,0,4.53,1.84,8.64,4.81,11.6,2.97,2.97,7.08,4.81,11.61,4.81h1.19v-1.75h0v-31.08Z"/>
        <path class="cls-1" d="M295.09,242.84v1.74h0s0,0,0,0h1.19c1.7,0,3.34-.26,4.89-.74,5.14-1.6,9.18-5.65,10.78-10.78.47-1.55.73-3.18.73-4.88,0-1.14-.11-2.25-.33-3.31-.22-1.07-.55-2.1-.96-3.08-.31-.73-.67-1.45-1.08-2.12-.14-.23-.29-.45-.43-.67-.45-.65-.93-1.27-1.46-1.85-.18-.19-.36-.38-.55-.57-1.49-1.48-3.25-2.69-5.22-3.51-1.96-.83-4.11-1.29-6.38-1.29h-1.2v.47h0v30.61h0Z"/>
        <polyline class="cls-1" points="295.09 191.27 295.09 211.75 295.09 211.76"/>
        <path class="cls-1" d="M206.47,191.27v20.48h0s3.19.48,7.45.48c6,0,14.1-.93,18.38-5.44,1.81-1.9,2.93-4.43,2.93-7.81,0,0,5.44,3.07,15.65,6.21,10.2,3.13,25.16,6.33,44.2,6.57h0"/>
        <path class="cls-1" d="M295.09,191.27c0-3.31-.45-6.52-1.29-9.56-1.7-6.16-5-11.66-9.42-16.01-1.03-1.01-2.11-1.95-3.24-2.83-6.06-4.68-13.66-7.47-21.91-7.47-3.19,0-6.27.41-9.21,1.19-4.77,1.27-9.16,3.5-12.94,6.47-.58.45-1.15.93-1.69,1.42-.55.49-1.09,1-1.61,1.53-1.82,1.83-3.44,3.86-4.83,6.05h0c-.98-.15-1.97-.25-3-.25-3.63,0-7.04,1-9.95,2.73-1.46.87-2.79,1.92-3.97,3.13-1.17,1.21-2.19,2.56-3.03,4.03h0c-1.6,2.83-2.51,6.09-2.51,9.56h0"/>
        <path class="cls-1" d="M268.52,283.42v.03l.34,20.43h0c-5.46,3.91-11.86,5.86-18.27,5.86s-12.23-1.78-17.54-5.36h0l-.34-21.06"/>
        <line class="cls-1" x1="206.47" y1="358.59" x2="206.47" y2="375.21"/>
        <line class="cls-1" x1="295.27" y1="358.41" x2="295.27" y2="375.03"/>
        <path class="cls-1" d="M224.7,229.92c3.37-3.37,8.85-3.37,12.22,0"/>
        <path class="cls-1" d="M264.63,229.92c3.37-3.37,8.85-3.37,12.22,0"/>
        <path class="cls-1" d="M262.94,273.23c.56-.28,1.11-.59,1.65-.91.27-.16.54-.33.8-.49,1.65-1.06,3.18-2.29,4.56-3.67.17-.17.34-.35.51-.53.5-.53.98-1.08,1.44-1.65"/>
        <path class="cls-2" d="M262.94,273.24s0,0,0,0"/>
        <path class="cls-1" d="M229.65,265.98c.46.57.94,1.12,1.44,1.65.17.18.34.35.51.53,1.38,1.38,2.91,2.61,4.56,3.67,2.11,1.36,4.41,2.43,6.87,3.16.31.09.61.18.93.26s.63.15.94.23c.31.07.63.13.95.19,1.59.29,3.24.45,4.92.45h.03c1.01,0,2-.05,2.97-.16.33-.04.65-.08.97-.13.31-.05.63-.1.94-.15h0s.01,0,.02,0c.32-.06.64-.12.95-.19.45-.1.9-.21,1.34-.34.17-.04.34-.09.51-.13h0s0,0,.01,0c.3-.09.6-.19.9-.29h0s0,0,.01,0c.29-.1.59-.21.89-.31h0s0,0,0,0c.29-.11.59-.23.87-.35h0s0,0,0,0c.29-.12.58-.25.86-.37h0c.29-.14.57-.27.85-.41"/>
        <path class="cls-2" d="M229.65,265.98h0"/>
        <path class="cls-1" d="M226.83,261.69c.81,1.52,1.75,2.95,2.83,4.29"/>
        <line class="cls-2" x1="226.83" y1="261.68" x2="226.83" y2="261.69"/>
        <path class="cls-1" d="M274.73,261.68c.23-.43.45-.87.66-1.32,1.13-2.47,1.91-5.14,2.27-7.95.12-.96-.23-1.86-.87-2.49-.54-.55-1.31-.9-2.15-.9h-47.71c-.85,0-1.61.35-2.15.9-.64.63-.99,1.53-.87,2.49.35,2.81,1.13,5.48,2.27,7.95.21.45.43.89.66,1.32"/>
        <line class="cls-2" x1="274.73" y1="261.69" x2="274.73" y2="261.68"/>
        <path class="cls-1" d="M271.91,265.98c1.07-1.33,2.02-2.77,2.83-4.29"/>
        <path class="cls-2" d="M271.91,265.98h0"/>
        <path class="cls-1" d="M236.26,271.68c.5-.5,1.02-.97,1.56-1.41.54-.44,1.09-.85,1.66-1.22.57-.38,1.15-.72,1.75-1.03h0c.29-.16.59-.31.9-.45.61-.29,1.23-.54,1.85-.75.1-.03.2-.07.3-.1,2.1-.7,4.29-1.05,6.49-1.05s4.59.39,6.79,1.15c.63.22,1.25.47,1.85.75.91.42,1.8.91,2.65,1.48.57.37,1.12.78,1.66,1.22.54.43,1.06.91,1.56,1.41"/>
      </g>
    </g>
  </g>
</svg>