<?xml version="1.0" encoding="UTF-8"?>
<svg id="Layer_1" xmlns="http://www.w3.org/2000/svg" version="1.1" viewBox="0 0 500 500">
  <!-- Generator: Adobe Illustrator 29.0.1, SVG Export Plug-In . SVG Version: 2.1.0 Build 192)  -->
  <defs>
    <style>
      .st0 {
        fill: #4197cb;
      }

      .st1 {
        fill: none;
      }

      .st1, .st2, .st3, .st4 {
        stroke: #231f20;
        stroke-linecap: round;
        stroke-miterlimit: 10;
        stroke-width: 5px;
      }

      .st2 {
        fill: #275b7a;
      }

      .st3 {
        fill: #fff;
      }

      .st4 {
        fill: #a0cae4;
      }
    </style>
  </defs>
  <rect class="st0" x="0" width="500" height="500"/>
  <path class="st4" d="M289.5,210.5c22,22,22,57.5,0,79.5s-57.5,22-79.5,0c-8.6-8.6-13.9-19.3-15.7-30.5-2.9-17.3,2.4-35.7,15.7-49,22-22,57.5-22,79.5,0Z"/>
  <g>
    <path class="st1" d="M149.9,230.7c3.4-5.1,7-10.1,10.9-15.1"/>
    <path class="st1" d="M189.1,383.1c-23.4,2.9-43.5-1.9-56.9-15.3-26-26-19.5-77.2,12.1-128.4"/>
    <path class="st1" d="M333.5,291.5c-6.2,7.6-13,15-20.2,22.3-31.9,31.9-67.6,53.9-99.9,63.9"/>
    <path class="st1" d="M356.9,258.4c-4.4,7.3-9.3,14.7-14.7,21.9"/>
    <path class="st1" d="M310.7,117.4c23.2-2.8,43.2,2,56.6,15.3,19.5,19.5,20.7,53.2,6.8,90.4"/>
    <path class="st1" d="M186.2,186.7c30.9-30.9,65.4-52.5,96.8-63"/>
    <path class="st1" d="M155.3,279.1c7.1-24.3,23.6-51.4,47.7-75.6,10-10,20.5-18.7,31.1-25.9"/>
    <path class="st1" d="M255.2,329.4c-36.8,21.9-73.3,26-92,7.3s-12.3-20.7-11.8-34.8"/>
    <path class="st1" d="M263.6,161.2c29.8-12.7,57.2-12.8,72.6,2.6,25.8,25.8,8,85.5-39.7,133.2"/>
    <path class="st1" d="M278.7,279.2c-29.6,29.6-66.6,40.6-82.6,24.6-9.4-9.4-9.5-26.2-1.9-44.4"/>
    <path class="st1" d="M286.2,189.4c6.9.5,12.8,2.9,17.2,7.2,12.4,12.4,8.6,37.3-7.5,61.7"/>
    <path class="st1" d="M259,194.8c6.1-2.6,12-4.2,17.6-5"/>
  </g>
  <path class="st1" d="M415.3,189.3c-10.1,44.6-39.7,96.1-85,141.5-15.3,15.3-31.4,28.9-47.6,40.5"/>
  <path class="st1" d="M408.6,114.1c3.7,6.3,6.4,13.3,8.1,20.9"/>
  <path class="st1" d="M251.4,107.7c59.6-32.1,117-36.7,147.3-6.4s2.5,2.6,3.7,4"/>
  <path class="st1" d="M205.1,138c6.5-5,13-9.8,19.6-14.2"/>
  <path class="st1" d="M99.3,267.7c15.1-32.7,38.8-66.8,69.9-97.9s12.7-12.3,19.2-18"/>
  <path class="st1" d="M117.6,411.3c-6.3-3.1-11.9-7.1-16.9-12.1-23-23-25.9-61.4-12.1-104.6"/>
  <path class="st1" d="M149.9,419.4c-6.2-.4-12.2-1.3-17.8-2.8"/>
  <path class="st1" d="M249.7,392c-31.4,17.2-62.3,26.7-89,27.6"/>
  <circle class="st2" cx="371.1" cy="230.7" r="8.4"/>
  <circle class="st2" cx="385.4" cy="339.8" r="8.4"/>
  <circle class="st4" cx="412.6" cy="189.2" r="13.4"/>
  <circle class="st4" cx="77.3" cy="207.5" r="13.4"/>
  <circle class="st2" cx="160.8" cy="331.4" r="8.4"/>
  <circle class="st2" cx="286.2" cy="121.8" r="8.4"/>
  <circle class="st2" cx="155.3" cy="75.5" r="8.4"/>
  <path class="st3" d="M202.4,80.6l2.9,7.9c.4,1,1.1,1.7,2.1,2.1l7.9,2.9c3.1,1.1,3.1,5.5,0,6.6l-7.9,2.9c-1,.4-1.7,1.1-2.1,2.1l-2.9,7.9c-1.1,3.1-5.5,3.1-6.6,0l-2.9-7.9c-.4-1-1.1-1.7-2.1-2.1l-7.9-2.9c-3.1-1.1-3.1-5.5,0-6.6l7.9-2.9c1-.4,1.7-1.1,2.1-2.1l2.9-7.9c1.1-3.1,5.5-3.1,6.6,0Z"/>
  <path class="st3" d="M276.7,400.4l2.9,7.9c.4,1,1.1,1.7,2.1,2.1l7.9,2.9c3.1,1.1,3.1,5.5,0,6.6l-7.9,2.9c-1,.4-1.7,1.1-2.1,2.1l-2.9,7.9c-1.1,3.1-5.5,3.1-6.6,0l-2.9-7.9c-.4-1-1.1-1.7-2.1-2.1l-7.9-2.9c-3.1-1.1-3.1-5.5,0-6.6l7.9-2.9c1-.4,1.7-1.1,2.1-2.1l2.9-7.9c1.1-3.1,5.5-3.1,6.6,0Z"/>
  <path class="st3" d="M429.4,290.2l2.9,7.9c.4,1,1.1,1.7,2.1,2.1l7.9,2.9c3.1,1.1,3.1,5.5,0,6.6l-7.9,2.9c-1,.4-1.7,1.1-2.1,2.1l-2.9,7.9c-1.1,3.1-5.5,3.1-6.6,0l-2.9-7.9c-.4-1-1.1-1.7-2.1-2.1l-7.9-2.9c-3.1-1.1-3.1-5.5,0-6.6l7.9-2.9c1-.4,1.7-1.1,2.1-2.1l2.9-7.9c1.1-3.1,5.5-3.1,6.6,0Z"/>
</svg>