<?xml version="1.0" encoding="UTF-8"?>
<svg xmlns="http://www.w3.org/2000/svg" viewBox="0 0 500 500">
  <defs>
    <style>
      .cls-1 {
        fill: none;
        stroke: #231f20;
        stroke-linecap: round;
        stroke-miterlimit: 10;
        stroke-width: 5px;
      }

      .cls-2 {
        fill: #a09dc3;
      }

      .cls-2, .cls-3, .cls-4 {
        stroke-width: 0px;
      }

      .cls-3 {
        fill: #4d4b7e;
      }

      .cls-4 {
        fill: #625d9c;
      }
    </style>
  </defs>
  <g id="Layer_2" data-name="Layer 2">
    <rect class="cls-4" width="500" height="500"/>
  </g>
  <g id="Layer_1" data-name="Layer 1">
    <g>
      <g>
        <path class="cls-3" d="M355.81,316.43c.36.87.38,1.85.07,2.74l-14.74,41.26c-.4,1.12-1.3,1.99-2.44,2.35l-6.55,2.09c-1.86.59-3.87-.32-4.66-2.12l-3.31-7.62c-.38-.89-.42-1.89-.09-2.8l4.5-12.6c.18-.52.25-1.07.21-1.62l-.8-9.13c-.12-1.36.5-2.68,1.62-3.47l14.69-10.23c.62-.44,1.1-1.04,1.38-1.74l.88-2.26c1.25-3.2,5.77-3.24,7.08-.07l2.16,5.22Z"/>
        <path class="cls-3" d="M164.76,328.67c.78,3.26.22,6.7-1.55,9.54l-1.21,1.96c-1.53,2.46-3.86,4.31-6.6,5.24l-.17.06c-4.44,1.51-7.67,5.38-8.36,10.02l-4.76,32.04c-35.3-27.73-59.66-68.75-65.54-115.52l18.05-7.23c3.91-1.56,8.36-.95,11.7,1.62l26.32,20.25c1.75,1.35,3.8,2.25,5.98,2.63l14.03,2.44c4.33.75,7.95,3.72,9.54,7.82l1.98,5.13c1.16,2.99,1.13,6.32-.1,9.29l-.25.61c-1,2.43-1.21,5.13-.6,7.69l1.54,6.41Z"/>
        <path class="cls-3" d="M325.88,255.78c3.58.52,5.17,4.78,2.81,7.52l-21.15,24.49c-2.22,2.57-3.09,6.03-2.35,9.35l2.95,13.1c.18.78.26,1.57.26,2.35,0,3.7-1.93,7.21-5.2,9.18-2.51,1.51-4.29,3.98-4.93,6.84l-1.4,6.24c-.51,2.31-1.78,4.38-3.59,5.9l-4.38,3.65c-1.53,1.27-2.67,2.95-3.3,4.84l-2.94,8.81c-.89,2.67-2.79,4.88-5.29,6.15l-14.12,7.21c-3.7,1.89-8.23.27-9.88-3.55l-17.99-41.53c-.76-1.76-.86-3.73-.28-5.56l4.52-14.24c.89-2.83.14-5.93-1.96-8.03l-6.22-6.21c-1.9-1.91-2.71-4.65-2.15-7.29l.96-4.42c.98-4.59-2.2-9.04-6.87-9.57l-6.67-.76c-.33-.04-.65-.09-.97-.14l-29.05-5.04c-6.24-1.08-11.37-5.51-13.34-11.53l-3.94-12.03c-2.17-6.61-1.24-13.86,2.54-19.71l3.98-6.16c.42-.66.88-1.28,1.38-1.86l16.62-19.39c3.1-3.62,7.49-5.9,12.25-6.35l18.99-1.81c.22-.02.43-.03.64-.03,3.5,0,6.44,2.75,6.61,6.31.12,2.55,1.69,4.8,4.04,5.79l12.27,5.16c2.42,1.02,5.21.52,7.12-1.29l2.88-2.71c2.09-1.97,5.21-2.37,7.73-.99l10.52,5.77c7.93,4.36,14.23,11.18,17.95,19.44l10.18,22.61c1.95,4.34,5.99,7.38,10.7,8.06l10.07,1.43Z"/>
        <path class="cls-3" d="M152.23,146.48c0,2.71-.5,5.37-1.45,7.86-.95,2.5-2.36,4.82-4.16,6.84l-7.61,8.53-15.6,31.17c-1.39,2.78-3.57,5.08-6.27,6.61l-13.21,7.51c-2.15,1.22-2.72,4.05-1.23,6.01l8.43,11.05c1.86,2.43.47,5.97-2.54,6.49l-12.33,2.15c-3.43.59-6.95-.26-9.73-2.37l-10.26-7.78c4.82-43.58,25.67-82.32,56.51-110.22l11.15,8.9c5.25,4.19,8.3,10.54,8.3,17.25Z"/>
        <path class="cls-3" d="M421.97,218.59l-6.13,1.48c-4.16,1-7.65,3.82-9.5,7.69l-3.27,6.88c-1.21,2.53-4.89,2.31-5.78-.36l-6.69-20.07c-.6-1.8-1.52-3.49-2.7-4.97l-5.47-6.91c-3.09-3.9-7.79-6.17-12.76-6.17h-.03c-3.83,0-6.92,3.1-6.92,6.93v.58c0,4.48-2.49,8.59-6.47,10.66l-21.25,11.09c-4.95,2.58-11.06.92-14.01-3.82l-15.72-25.23c-.43-.7-.65-1.48-.65-2.25,0-1.1.43-2.19,1.25-3.01,1.62-1.61,1.67-4.22.11-5.9l-5.99-6.45c-3.27-3.52-7.29-6.27-11.76-8.03l-25.91-10.22c-3.21-1.27-6.6-2.01-10.05-2.19l-13.41-.74c-6.81-.37-13.55,1.43-19.27,5.15l-17.11,11.12c-3.31,2.15-7.71,1.46-10.19-1.61l-9.07-11.21c-4.07-5.04-4.89-11.97-2.1-17.82l8.31-17.46c1.92-4.02,5.35-7.13,9.56-8.62l36.61-13.02c2.9-1.03,5.5-2.76,7.58-5.04l21.19-23.29c79.31,6.46,143.64,65.86,157.6,142.81Z"/>
        <path class="cls-2" d="M421.97,218.59c1.85,10.19,2.82,20.69,2.82,31.41,0,96.53-78.26,174.79-174.79,174.79-40.71,0-78.18-13.92-107.89-37.26l4.76-32.04c.69-4.64,3.92-8.51,8.36-10.02l.17-.06c2.74-.93,5.07-2.78,6.6-5.24l1.21-1.96c1.77-2.84,2.33-6.28,1.55-9.54l-1.54-6.41c-.61-2.56-.4-5.26.6-7.69l.25-.61c1.23-2.97,1.26-6.3.1-9.29l-1.98-5.13c-1.59-4.1-5.21-7.07-9.54-7.82l-14.03-2.44c-2.18-.38-4.23-1.28-5.98-2.63l-26.32-20.25c-3.34-2.57-7.79-3.18-11.7-1.62l-18.05,7.23c-.9-7.21-1.37-14.56-1.37-22.01,0-6.58.36-13.07,1.07-19.45l10.26,7.78c2.78,2.11,6.3,2.96,9.73,2.37l12.33-2.15c3.01-.52,4.4-4.06,2.54-6.49l-8.43-11.05c-1.49-1.96-.92-4.79,1.23-6.01l13.21-7.51c2.7-1.53,4.88-3.83,6.27-6.61l15.6-31.17,7.61-8.53c1.8-2.02,3.21-4.34,4.16-6.84.95-2.49,1.45-5.15,1.45-7.86,0-6.71-3.05-13.06-8.3-17.25l-11.15-8.9c31-28.05,72.12-45.13,117.22-45.13,4.84,0,9.63.2,14.37.58l-21.19,23.29c-2.08,2.28-4.68,4.01-7.58,5.04l-36.61,13.02c-4.21,1.49-7.64,4.6-9.56,8.62l-8.31,17.46c-2.79,5.85-1.97,12.78,2.1,17.82l9.07,11.21c2.48,3.07,6.88,3.76,10.19,1.61l17.11-11.12c5.72-3.72,12.46-5.52,19.27-5.15l13.41.74c3.45.18,6.84.92,10.05,2.19l25.91,10.22c4.47,1.76,8.49,4.51,11.76,8.03l5.99,6.45c1.56,1.68,1.51,4.29-.11,5.9-.82.82-1.25,1.91-1.25,3.01,0,.77.22,1.55.65,2.25l15.72,25.23c2.95,4.74,9.06,6.4,14.01,3.82l21.25-11.09c3.98-2.07,6.47-6.18,6.47-10.66v-.58c0-3.83,3.09-6.93,6.92-6.93h.03c4.97,0,9.67,2.27,12.76,6.17l5.47,6.91c1.18,1.48,2.1,3.17,2.7,4.97l6.69,20.07c.89,2.67,4.57,2.89,5.78.36l3.27-6.88c1.85-3.87,5.34-6.69,9.5-7.69l6.13-1.48ZM355.88,319.17c.31-.89.29-1.87-.07-2.74l-2.16-5.22c-1.31-3.17-5.83-3.13-7.08.07l-.88,2.26c-.28.7-.76,1.3-1.38,1.74l-14.69,10.23c-1.12.79-1.74,2.11-1.62,3.47l.8,9.13c.04.55-.03,1.1-.21,1.62l-4.5,12.6c-.33.91-.29,1.91.09,2.8l3.31,7.62c.79,1.8,2.8,2.71,4.66,2.12l6.55-2.09c1.14-.36,2.04-1.23,2.44-2.35l14.74-41.26ZM328.69,263.3c2.36-2.74.77-7-2.81-7.52l-10.07-1.43c-4.71-.68-8.75-3.72-10.7-8.06l-10.18-22.61c-3.72-8.26-10.02-15.08-17.95-19.44l-10.52-5.77c-2.52-1.38-5.64-.98-7.73.99l-2.88,2.71c-1.91,1.81-4.7,2.31-7.12,1.29l-12.27-5.16c-2.35-.99-3.92-3.24-4.04-5.79-.17-3.56-3.11-6.31-6.61-6.31-.21,0-.42.01-.64.03l-18.99,1.81c-4.76.45-9.15,2.73-12.25,6.35l-16.62,19.39c-.5.58-.96,1.2-1.38,1.86l-3.98,6.16c-3.78,5.85-4.71,13.1-2.54,19.71l3.94,12.03c1.97,6.02,7.1,10.45,13.34,11.53l29.05,5.04c.32.05.64.1.97.14l6.67.76c4.67.53,7.85,4.98,6.87,9.57l-.96,4.42c-.56,2.64.25,5.38,2.15,7.29l6.22,6.21c2.1,2.1,2.85,5.2,1.96,8.03l-4.52,14.24c-.58,1.83-.48,3.8.28,5.56l17.99,41.53c1.65,3.82,6.18,5.44,9.88,3.55l14.12-7.21c2.5-1.27,4.4-3.48,5.29-6.15l2.94-8.81c.63-1.89,1.77-3.57,3.3-4.84l4.38-3.65c1.81-1.52,3.08-3.59,3.59-5.9l1.4-6.24c.64-2.86,2.42-5.33,4.93-6.84,3.27-1.97,5.2-5.48,5.2-9.18,0-.78-.08-1.57-.26-2.35l-2.95-13.1c-.74-3.32.13-6.78,2.35-9.35l21.15-24.49Z"/>
      </g>
      <g>
        <path class="cls-1" d="M421.97,218.59c1.85,10.19,2.82,20.69,2.82,31.41,0,96.53-78.26,174.79-174.79,174.79-40.71,0-78.18-13.92-107.89-37.26-35.3-27.73-59.66-68.75-65.54-115.52-.9-7.21-1.37-14.56-1.37-22.01,0-6.58.36-13.07,1.07-19.45,4.82-43.58,25.67-82.32,56.51-110.22,31-28.05,72.12-45.13,117.22-45.13,4.84,0,9.63.2,14.37.58,79.31,6.46,143.64,65.86,157.6,142.81Z"/>
        <path class="cls-1" d="M264.37,75.78l-21.19,23.29c-2.08,2.28-4.68,4.01-7.58,5.04l-36.61,13.02c-4.21,1.49-7.64,4.6-9.56,8.62l-8.31,17.46c-2.79,5.85-1.97,12.78,2.1,17.82l9.07,11.21c2.48,3.07,6.88,3.76,10.19,1.61l17.11-11.12c5.72-3.72,12.46-5.52,19.27-5.15l13.41.74c3.45.18,6.84.92,10.05,2.19l25.91,10.22c4.47,1.76,8.49,4.51,11.76,8.03l5.99,6.45c1.56,1.68,1.51,4.29-.11,5.9-.82.82-1.25,1.91-1.25,3.01,0,.77.22,1.55.65,2.25l15.72,25.23c2.95,4.74,9.06,6.4,14.01,3.82l21.25-11.09c3.98-2.07,6.47-6.18,6.47-10.66v-.58c0-3.83,3.09-6.93,6.92-6.93h.03c4.97,0,9.67,2.27,12.76,6.17l5.47,6.91c1.18,1.48,2.1,3.17,2.7,4.97l6.69,20.07c.89,2.67,4.57,2.89,5.78.36l3.27-6.88c1.85-3.87,5.34-6.69,9.5-7.69l6.13-1.48h.01"/>
        <path class="cls-1" d="M225.17,186.23l-18.99,1.81c-4.76.45-9.15,2.73-12.25,6.35l-16.62,19.39c-.5.58-.96,1.2-1.38,1.86l-3.98,6.16c-3.78,5.85-4.71,13.1-2.54,19.71l3.94,12.03c1.97,6.02,7.1,10.45,13.34,11.53l29.05,5.04c.32.05.64.1.97.14l6.67.76c4.67.53,7.85,4.98,6.87,9.57l-.96,4.42c-.56,2.64.25,5.38,2.15,7.29l6.22,6.21c2.1,2.1,2.85,5.2,1.96,8.03l-4.52,14.24c-.58,1.83-.48,3.8.28,5.56l17.99,41.53c1.65,3.82,6.18,5.44,9.88,3.55l14.12-7.21c2.5-1.27,4.4-3.48,5.29-6.15l2.94-8.81c.63-1.89,1.77-3.57,3.3-4.84l4.38-3.65c1.81-1.52,3.08-3.59,3.59-5.9l1.4-6.24c.64-2.86,2.42-5.33,4.93-6.84,3.27-1.97,5.2-5.48,5.2-9.18,0-.78-.08-1.57-.26-2.35l-2.95-13.1c-.74-3.32.13-6.78,2.35-9.35l21.15-24.49c2.36-2.74.77-7-2.81-7.52l-10.07-1.43c-4.71-.68-8.75-3.72-10.7-8.06l-10.18-22.61c-3.72-8.26-10.02-15.08-17.95-19.44l-10.52-5.77c-2.52-1.38-5.64-.98-7.73.99l-2.88,2.71c-1.91,1.81-4.7,2.31-7.12,1.29l-12.27-5.16c-2.35-.99-3.92-3.24-4.04-5.79-.17-3.56-3.11-6.31-6.61-6.31-.21,0-.42.01-.64.03Z"/>
        <path class="cls-1" d="M353.65,311.21l2.16,5.22c.36.87.38,1.85.07,2.74l-14.74,41.26c-.4,1.12-1.3,1.99-2.44,2.35l-6.55,2.09c-1.86.59-3.87-.32-4.66-2.12l-3.31-7.62c-.38-.89-.42-1.89-.09-2.8l4.5-12.6c.18-.52.25-1.07.21-1.62l-.8-9.13c-.12-1.36.5-2.68,1.62-3.47l14.69-10.23c.62-.44,1.1-1.04,1.38-1.74l.88-2.26c1.25-3.2,5.77-3.24,7.08-.07Z"/>
        <path class="cls-1" d="M76.57,272.01l18.05-7.23c3.91-1.56,8.36-.95,11.7,1.62l26.32,20.25c1.75,1.35,3.8,2.25,5.98,2.63l14.03,2.44c4.33.75,7.95,3.72,9.54,7.82l1.98,5.13c1.16,2.99,1.13,6.32-.1,9.29l-.25.61c-1,2.43-1.21,5.13-.6,7.69l1.54,6.41c.78,3.26.22,6.7-1.55,9.54l-1.21,1.96c-1.53,2.46-3.86,4.31-6.6,5.24l-.17.06c-4.44,1.51-7.67,5.38-8.36,10.02l-4.76,32.04h0"/>
        <path class="cls-1" d="M132.78,120.33l11.15,8.9c5.25,4.19,8.3,10.54,8.3,17.25,0,2.71-.5,5.37-1.45,7.86-.95,2.5-2.36,4.82-4.16,6.84l-7.61,8.53-15.6,31.17c-1.39,2.78-3.57,5.08-6.27,6.61l-13.21,7.51c-2.15,1.22-2.72,4.05-1.23,6.01l8.43,11.05c1.86,2.43.47,5.97-2.54,6.49l-12.33,2.15c-3.43.59-6.95-.26-9.73-2.37l-10.26-7.78"/>
      </g>
    </g>
  </g>
</svg>