<?xml version="1.0" encoding="UTF-8"?>
<svg xmlns="http://www.w3.org/2000/svg" viewBox="0 0 500 500">
  <defs>
    <style>
      .cls-1 {
        fill: none;
        stroke: #231f20;
        stroke-linecap: round;
        stroke-miterlimit: 10;
        stroke-width: 5px;
      }

      .cls-2 {
        fill: #5b666d;
      }

      .cls-2, .cls-3, .cls-4, .cls-5 {
        stroke-width: 0px;
      }

      .cls-3 {
        fill: #323e48;
      }

      .cls-4 {
        fill: #eaecee;
      }

      .cls-5 {
        fill: #232c33;
      }
    </style>
  </defs>
  <g id="Layer_2" data-name="Layer 2">
    <rect class="cls-3" x="0" y="-.27" width="500" height="500"/>
  </g>
  <g id="Layer_1" data-name="Layer 1">
    <g>
      <g>
        <polygon class="cls-4" points="436.82 92.87 399.49 130.21 372.8 128.4 410.81 90.37 436.82 92.87"/>
        <polygon class="cls-2" points="408.3 64.37 410.81 90.37 372.8 128.4 370.97 101.71 408.3 64.37"/>
        <path class="cls-2" d="M336.39,164.82c-22.19-22.5-53.03-36.45-87.12-36.45-67.55,0-122.32,54.77-122.32,122.32s54.77,122.32,122.32,122.32,122.32-54.76,122.32-122.32c0-33.46-13.44-63.78-35.2-85.87ZM367.42,133.78c29.71,30.03,48.06,71.33,48.06,116.91,0,91.8-74.41,166.21-166.21,166.21s-166.21-74.41-166.21-166.21S157.48,84.48,249.27,84.48c46.21,0,88.02,18.86,118.15,49.3Z"/>
        <path class="cls-4" d="M336.39,164.82c21.76,22.09,35.2,52.41,35.2,85.87,0,67.56-54.76,122.32-122.32,122.32s-122.32-54.76-122.32-122.32,54.77-122.32,122.32-122.32c34.09,0,64.93,13.95,87.12,36.45ZM303.51,197.72c-13.77-14.09-32.98-22.84-54.24-22.84-41.87,0-75.81,33.94-75.81,75.81s33.94,75.81,75.81,75.81,75.81-33.94,75.81-75.81c0-20.61-8.23-39.31-21.57-52.97Z"/>
        <path class="cls-2" d="M303.51,197.72c13.34,13.66,21.57,32.36,21.57,52.97,0,41.87-33.94,75.81-75.81,75.81s-75.81-33.94-75.81-75.81,33.94-75.81,75.81-75.81c21.26,0,40.47,8.75,54.24,22.84ZM270.51,230.73c-5.31-5.66-12.87-9.19-21.24-9.19-16.1,0-29.15,13.05-29.15,29.15s13.05,29.16,29.15,29.16,29.16-13.06,29.16-29.16c0-7.73-3-14.75-7.92-19.96Z"/>
        <path class="cls-5" d="M270.51,230.73c4.92,5.21,7.92,12.23,7.92,19.96,0,16.1-13.06,29.16-29.16,29.16s-29.15-13.06-29.15-29.16,13.05-29.15,29.15-29.15c8.37,0,15.93,3.53,21.24,9.19Z"/>
      </g>
      <g>
        <path class="cls-1" d="M415.48,250.69c0,91.8-74.41,166.21-166.21,166.21s-166.21-74.41-166.21-166.21S157.48,84.48,249.27,84.48c46.21,0,88.02,18.86,118.15,49.3,29.71,30.03,48.06,71.33,48.06,116.91Z"/>
        <path class="cls-1" d="M371.59,250.69c0,67.56-54.76,122.32-122.32,122.32s-122.32-54.76-122.32-122.32,54.77-122.32,122.32-122.32c34.09,0,64.93,13.95,87.12,36.45,21.76,22.09,35.2,52.41,35.2,85.87Z"/>
        <path class="cls-1" d="M325.08,250.69c0,41.87-33.94,75.81-75.81,75.81s-75.81-33.94-75.81-75.81,33.94-75.81,75.81-75.81c21.26,0,40.47,8.75,54.24,22.84,13.34,13.66,21.57,32.36,21.57,52.97Z"/>
        <path class="cls-1" d="M278.43,250.69c0,16.1-13.06,29.16-29.16,29.16s-29.15-13.06-29.15-29.16,13.05-29.15,29.15-29.15c8.37,0,15.93,3.53,21.24,9.19,4.92,5.21,7.92,12.23,7.92,19.96Z"/>
        <polygon class="cls-1" points="410.81 90.37 436.82 92.87 399.49 130.21 372.8 128.4 370.97 101.71 408.3 64.37 410.81 90.37"/>
        <polyline class="cls-1" points="410.81 90.37 372.8 128.4 367.42 133.78 336.39 164.82 303.51 197.72 270.51 230.73 249.27 251.98"/>
      </g>
    </g>
  </g>
</svg>