<?xml version="1.0" encoding="UTF-8"?>
<svg xmlns="http://www.w3.org/2000/svg" viewBox="0 0 500 500">
  <defs>
    <style>
      .cls-1 {
        fill: none;
      }

      .cls-1, .cls-2, .cls-3 {
        stroke: #231f20;
        stroke-miterlimit: 10;
        stroke-width: 5px;
      }

      .cls-2 {
        fill: #5eb3e4;
      }

      .cls-4 {
        fill: #c0bed7;
      }

      .cls-4, .cls-5, .cls-6 {
        stroke-width: 0px;
      }

      .cls-5 {
        fill: #625d9c;
      }

      .cls-3 {
        fill: #918eba;
      }

      .cls-6 {
        fill: #817db0;
      }
    </style>
  </defs>
  <g id="Layer_2" data-name="Layer 2">
    <rect class="cls-5" width="500" height="500"/>
  </g>
  <g id="Layer_1" data-name="Layer 1">
    <g>
      <g>
        <line class="cls-2" x1="190.61" y1="219.75" x2="190.61" y2="108.85"/>
        <polygon class="cls-3" points="253.2 152.08 190.61 152.08 190.61 104.28 253.2 104.28 233.5 128.18 253.2 152.08"/>
      </g>
      <g>
        <g>
          <polygon class="cls-6" points="330.5 236.89 422.2 395.72 303.42 395.72 283.79 361.17 271.25 339.52 330.5 236.89"/>
          <polygon class="cls-6" points="283.79 361.17 303.42 395.72 238.8 395.72 271.25 339.52 283.79 361.17"/>
          <polygon class="cls-6" points="223.97 257.91 271.25 339.52 238.8 395.72 77.79 395.72 157.36 257.91 169.47 300.03 190.61 272.44 205.01 288.32 223.97 257.91"/>
          <polygon class="cls-4" points="223.97 257.91 205.01 288.32 190.61 272.44 169.47 300.03 157.36 257.91 157.36 257.91 190.61 200.33 223.97 257.91"/>
        </g>
        <g>
          <polyline class="cls-1" points="271.25 339.52 330.5 236.89 422.2 395.72 303.42 395.72"/>
          <polyline class="cls-1" points="157.36 257.91 190.61 200.33 223.97 257.91 271.25 339.52 283.79 361.17"/>
          <polyline class="cls-1" points="303.42 395.72 238.8 395.72 77.79 395.72 157.36 257.91"/>
          <polyline class="cls-1" points="157.36 257.91 157.36 257.91 169.47 300.03 190.61 272.44 205.01 288.32 223.97 257.91 223.97 257.91"/>
        </g>
      </g>
    </g>
  </g>
</svg>