<?xml version="1.0" encoding="UTF-8"?>
<svg id="Layer_1" xmlns="http://www.w3.org/2000/svg" version="1.1" viewBox="0 0 500 500">
  <!-- Generator: Adobe Illustrator 29.0.1, SVG Export Plug-In . SVG Version: 2.1.0 Build 192)  -->
  <defs>
    <style>
      .st0 {
        stroke-linecap: round;
      }

      .st0, .st1, .st2, .st3, .st4, .st5, .st6, .st7 {
        stroke-miterlimit: 10;
        stroke-width: 5px;
      }

      .st0, .st1, .st4, .st5, .st7 {
        fill: none;
      }

      .st0, .st2, .st3, .st4, .st6 {
        stroke: #231f20;
      }

      .st1 {
        stroke: #bfbdd6;
      }

      .st8, .st3 {
        fill: #bfbdd6;
      }

      .st9, .st2 {
        fill: #9f9cc2;
      }

      .st10 {
        fill: #625d9c;
      }

      .st11 {
        fill: #807daf;
      }

      .st5 {
        stroke: #46416e;
      }

      .st12, .st6 {
        fill: #46416e;
      }

      .st13 {
        fill: #a0cae4;
      }

      .st14 {
        fill: #d0e6f6;
      }

      .st7 {
        stroke: #9f9cc2;
      }
    </style>
  </defs>
  <rect class="st10" x="0" width="500" height="500"/>
  <g>
    <g>
      <g>
        <path class="st8" d="M188.6,95.6l-12.4,20.5-4.3-5.4-42.3,33.3-38.2,30.1-4.1,3.2.2.3c-2.4,2.5-4.4,5.3-5.9,8.3l-12.9,4.1,44.1-67.3,75.7-27.2Z"/>
        <path class="st12" d="M176.2,116.1l19.1,24.2c4.4,5.6-10.9,25-34.3,43.5-23.3,18.4-45.8,28.8-50.3,23.2l-19.1-24.2,54.8-17.5,29.8-49.2Z"/>
        <path class="st8" d="M171.9,110.7l4.3,5.4-29.8,49.2-54.8,17.5-4.1-5.1c1.2-1.2,2.5-2.4,3.8-3.5l38.2-30.1,42.3-33.3Z"/>
        <path class="st8" d="M87.3,177.4l4.1-3.2c-1.4,1.1-2.7,2.3-3.8,3.5l-.2-.3Z"/>
        <path class="st8" d="M87.6,177.7l4.1,5.1-9.9,3.2c1.5-3,3.5-5.8,5.9-8.3Z"/>
        <path class="st8" d="M82.1,219.5c2.6-1.7,6.1-1.2,8.1,1.3s1.6,6.4-1,8.5l-3.8-4.8c-1.3-1.6-2.4-3.3-3.3-5.1Z"/>
        <path class="st8" d="M81.7,219.8c.1-.1.3-.2.4-.3,1,1.7,2.1,3.4,3.3,5.1l3.8,4.8c-2.6,2.1-6.4,1.6-8.5-1s-1.6-6.4,1-8.5Z"/>
      </g>
      <g>
        <path class="st4" d="M91.6,182.8l19.1,24.2c4.4,5.6,26.9-4.8,50.3-23.2,23.4-18.4,38.7-37.9,34.3-43.5l-19.1-24.2"/>
        <polygon class="st4" points="176.2 116.1 146.4 165.3 91.6 182.8 81.7 186 68.8 190.1 112.9 122.8 188.6 95.6 176.2 116.1"/>
        <line class="st0" x1="89.2" y1="229.3" x2="94.6" y2="236.2"/>
        <path class="st0" d="M91.4,174.2c-1.4,1.1-2.7,2.3-3.8,3.5-2.4,2.5-4.4,5.3-5.9,8.3-5.3,10.4-5.3,23,.4,33.5"/>
        <path class="st4" d="M82.1,219.5c2.6-1.7,6.1-1.2,8.1,1.3s1.6,6.4-1,8.5-6.4,1.6-8.5-1-1.6-6.4,1-8.5.3-.2.4-.3Z"/>
      </g>
    </g>
    <g>
      <g>
        <path class="st9" d="M431.2,170.2l-18.4-7.6,3.9-4.2-32.8-30.4-29.6-27.5-3.2-2.9-.2.2c-2.4-1.6-4.9-2.9-7.6-3.8l-5-10,60.9,27.5,32,58.6Z"/>
        <path class="st12" d="M412.8,162.6l-17.4,18.8c-4,4.3-21.9-5.8-40.1-22.6-18.1-16.8-29.5-33.9-25.5-38.2l17.4-18.8,21.4,42.7,44.2,18.1Z"/>
        <path class="st9" d="M416.7,158.4l-3.9,4.2-44.2-18.1-21.4-42.7,3.7-4c1.2.8,2.3,1.7,3.4,2.7l29.6,27.5,32.8,30.4Z"/>
        <path class="st14" d="M351.1,97.6l3.2,2.9c-1.1-1-2.2-1.9-3.4-2.7l.2-.2Z"/>
        <path class="st13" d="M350.9,97.8l-3.7,4-3.9-7.7c2.7.9,5.2,2.1,7.6,3.8Z"/>
        <path class="st8" d="M315.9,98.7c1.7,1.9,1.8,4.9,0,6.8s-5.1,2.2-7.1.3l3.4-3.7c1.2-1.3,2.4-2.4,3.7-3.4Z"/>
        <path class="st8" d="M315.6,98.4c.1,0,.2.2.3.3-1.3,1-2.6,2.1-3.7,3.4l-3.4,3.7c-2-1.9-2.2-5.1-.3-7.1s5.1-2.2,7.1-.3Z"/>
      </g>
      <g>
        <path class="st4" d="M347.2,101.8l-17.4,18.8c-4,4.3,7.4,21.5,25.5,38.2,18.1,16.8,36,26.9,40.1,22.6l17.4-18.8"/>
        <polygon class="st4" points="412.8 162.6 368.6 144.5 347.2 101.8 343.3 94.1 338.3 84 399.2 111.5 431.2 170.2 412.8 162.6"/>
        <line class="st0" x1="308.8" y1="105.8" x2="303.8" y2="111.1"/>
        <path class="st0" d="M354.3,100.5c-1.1-1-2.2-1.9-3.4-2.7-2.4-1.6-4.9-2.9-7.6-3.8-9.2-3-19.5-1.4-27.4,4.7"/>
        <path class="st4" d="M315.9,98.7c1.7,1.9,1.8,4.9,0,6.8s-5.1,2.2-7.1.3-2.2-5.1-.3-7.1,5.1-2.2,7.1-.3.2.2.3.3Z"/>
      </g>
    </g>
    <g>
      <g>
        <path class="st8" d="M398.9,329.4l-11.4,11.8-2-4.3-33.3,15.8-30.1,14.3-3.2,1.5v.2c-1.9,1.3-3.6,2.9-5.1,4.7l-9.2.8,39.6-38.2,54.7-6.6Z"/>
        <path class="st12" d="M387.5,341.2l9.1,19.1c2.1,4.4-11.1,15.1-29.5,23.8-18.4,8.7-35,12.3-37.1,7.9l-9.1-19.1,39.2-3.4,27.3-28.3Z"/>
        <path class="st8" d="M385.5,336.9l2,4.3-27.3,28.3-39.2,3.4-1.9-4c1-.7,2-1.2,3.1-1.8l30.1-14.3,33.3-15.8Z"/>
        <path class="st14" d="M318.9,368.6l3.2-1.5c-1.1.5-2.1,1.1-3.1,1.8v-.2Z"/>
        <path class="st13" d="M319,368.8l1.9,4-7.1.6c1.5-1.8,3.2-3.3,5.2-4.7Z"/>
        <path class="st8" d="M309,395.9c2-.8,4.3.1,5.2,2.1s.1,4.5-2,5.5l-1.8-3.7c-.6-1.3-1.1-2.6-1.5-3.9Z"/>
        <path class="st8" d="M308.7,396.1c.1,0,.2,0,.3-.1.4,1.3.9,2.6,1.5,3.9l1.8,3.7c-2.1,1-4.5.1-5.5-2s-.1-4.5,2-5.5Z"/>
      </g>
      <g>
        <path class="st4" d="M321,372.9l9.1,19.1c2.1,4.4,18.7.9,37.1-7.9,18.4-8.7,31.6-19.4,29.5-23.8l-9.1-19.1"/>
        <polygon class="st4" points="387.5 341.2 360.2 369.5 321 372.9 313.8 373.5 304.6 374.3 344.2 336 398.9 329.4 387.5 341.2"/>
        <line class="st0" x1="312.3" y1="403.6" x2="314.9" y2="409"/>
        <path class="st0" d="M322.1,367.1c-1.1.5-2.1,1.1-3.1,1.8-2,1.3-3.7,2.9-5.2,4.7-5.1,6.1-7,14.5-4.8,22.5"/>
        <path class="st4" d="M309,395.9c2-.8,4.3.1,5.2,2.1s.1,4.5-2,5.5-4.5.1-5.5-2-.1-4.5,2-5.5.2,0,.3-.1Z"/>
      </g>
    </g>
    <g>
      <g>
        <path class="st12" d="M154,265c1.8-3.8,6.8-4.8,9.8-1.8l77,77c1.2,1.2,1.8,2.8,1.8,4.3,0,2.3-1.2,4.5-3.5,5.5l-36.3,16.7-65.4-65.4,16.7-36.3Z"/>
        <polygon class="st11" points="202.7 366.7 159.6 386.5 117.5 344.5 137.3 301.3 202.7 366.7"/>
        <path class="st9" d="M159.6,386.5l-62.9,28.9c-2.6,1.2-5.2.4-6.8-1.2s-1.8-2.6-1.8-4.3.2-1.7.6-2.6l28.9-62.9,42.1,42.1Z"/>
      </g>
      <g>
        <path class="st4" d="M117.5,344.5l-28.9,62.9c-.4.9-.6,1.7-.6,2.6,0,1.6.7,3.2,1.8,4.3,1.7,1.7,4.3,2.4,6.8,1.2l62.9-28.9,43.1-19.8,36.3-16.7c2.3-1.1,3.5-3.3,3.5-5.5s-.6-3.1-1.8-4.3l-77-77c-3-3-8.1-2.1-9.8,1.8l-16.7,36.3-19.8,43.1"/>
        <line class="st4" x1="202.7" y1="366.7" x2="137.3" y2="301.3"/>
        <line class="st4" x1="159.6" y1="386.5" x2="117.5" y2="344.5"/>
      </g>
    </g>
    <g>
      <path class="st7" d="M222.1,287.8c0-8.9,7.2-16.1,16.1-16.1"/>
      <path class="st7" d="M254.3,255.6c0,8.9-7.2,16.1-16.1,16.1"/>
      <path class="st7" d="M254.3,255.6c0-8.9,7.2-16.1,16.1-16.1"/>
      <path class="st7" d="M286.4,223.5c0,8.9-7.2,16.1-16.1,16.1"/>
    </g>
    <g>
      <path class="st4" d="M249.6,214.6c-2.1-8.6,3.1-17.3,11.7-19.5"/>
      <path class="st4" d="M273,175.6c2.1,8.6-3.1,17.3-11.7,19.5"/>
      <path class="st4" d="M273,175.6c-2.1-8.6,3.1-17.3,11.7-19.5"/>
      <path class="st4" d="M296.5,136.7c2.1,8.6-3.1,17.3-11.7,19.5"/>
    </g>
    <g>
      <path class="st1" d="M290,275c3-8.3,12.2-12.7,20.6-9.7"/>
      <path class="st1" d="M331.2,255.6c-3,8.3-12.2,12.7-20.6,9.7"/>
      <path class="st1" d="M331.2,255.6c3-8.3,12.2-12.7,20.6-9.7"/>
      <path class="st1" d="M372.3,236.3c-3,8.3-12.2,12.7-20.6,9.7"/>
    </g>
    <path class="st4" d="M248.7,311c23.3-15.4,54.7-9,70.1,14.3"/>
    <path class="st5" d="M195.4,261.3c17.9-21.4,15.1-53.3-6.4-71.2"/>
    <circle class="st2" cx="231" cy="192.5" r="7.8"/>
    <circle class="st3" cx="326.6" cy="192.5" r="7.8"/>
    <circle class="st6" cx="334.4" cy="292.3" r="7.8"/>
  </g>
</svg>