<?xml version="1.0" encoding="UTF-8"?>
<svg xmlns="http://www.w3.org/2000/svg" viewBox="0 0 500 500">
  <defs>
    <style>
      .cls-1 {
        fill: #03463f;
      }

      .cls-1, .cls-2, .cls-3, .cls-4, .cls-5, .cls-6 {
        stroke-width: 0px;
      }

      .cls-7 {
        fill: none;
      }

      .cls-7, .cls-8 {
        stroke: #231f20;
        stroke-miterlimit: 10;
        stroke-width: 5px;
      }

      .cls-8, .cls-2 {
        fill: #84cfc9;
      }

      .cls-3 {
        fill: #06af9a;
      }

      .cls-4 {
        fill: #00695d;
      }

      .cls-5 {
        fill: #078b7c;
      }

      .cls-6 {
        fill: #b6e1df;
      }
    </style>
  </defs>
  <g id="Layer_2" data-name="Layer 2">
    <rect class="cls-3" x="0" y="-.27" width="500" height="500"/>
  </g>
  <g id="Layer_1" data-name="Layer 1">
    <g>
      <g>
        <g>
          <path class="cls-6" d="M231.76,310.54h-27.81v-11.98h15.83c3.31,0,6.31,1.34,8.47,3.51,2.17,2.17,3.51,5.16,3.51,8.47Z"/>
          <path class="cls-4" d="M161.82,261.12h42.2c4.72,0,9,1.91,12.1,5.01s5.01,7.37,5.01,12.09l-4.22,20.34h-12.89v-15.8c0-2.5-2.03-4.54-4.53-4.54h-20.57c-4.72,0-9-1.91-12.09-5.01s-5.01-7.37-5.01-12.09Z"/>
          <polygon class="cls-1" points="391.33 225.4 391.33 428.67 320.66 428.67 320.66 267.97 320.66 225.4 391.33 225.4"/>
          <polygon class="cls-5" points="320.66 267.97 320.66 428.67 250 428.67 250 310.54 250 267.97 320.66 267.97"/>
          <polygon class="cls-2" points="250 310.54 250 428.67 179.34 428.67 179.34 353.12 179.34 310.54 203.96 310.54 231.76 310.54 250 310.54"/>
          <path class="cls-5" d="M206.34,175.47h-.03s0,0,0,0h.03Z"/>
          <path class="cls-1" d="M206.31,175.47h-19.33c-3.11,0-5.64,2.52-5.64,5.64v2.49c0,2.52-1.28,4.85-3.4,6.21l-4.79,3.05c-1.95-2.8-3.09-6.2-3.09-9.87v-6.58c0-9.56,7.75-17.32,17.32-17.32h1.64c9.24,0,16.8,7.25,17.29,16.37Z"/>
          <path class="cls-5" d="M200.55,214.57v46.55h-42.11l5.34-44.96c.97-8.19,7.92-14.36,16.17-14.36h7.83c7.05,0,12.77,5.72,12.77,12.77ZM191.29,218.02l-4.92-5.7c-1.48-1.72-3.58-2.61-5.7-2.61-1.74,0-3.49.6-4.91,1.83-3.15,2.72-3.49,7.46-.78,10.61l4.92,5.7,11.39-9.84Z"/>
          <path class="cls-5" d="M186.37,212.32l4.92,5.7-11.39,9.84-4.92-5.7c-2.72-3.14-2.37-7.89.78-10.61,1.42-1.23,3.17-1.83,4.91-1.83,2.11,0,4.21.89,5.7,2.61Z"/>
          <polygon class="cls-6" points="179.34 353.12 179.34 428.67 108.67 428.67 108.67 353.12 137.97 353.12 165.78 353.12 179.34 353.12"/>
          <path class="cls-2" d="M177.94,189.82c2.12-1.36,3.4-3.69,3.4-6.21v-2.49c0-3.12,2.52-5.64,5.64-5.64h19.33s0,.01,0,.01l-33.15,17.39,4.79-3.05Z"/>
          <path class="cls-2" d="M187.39,200.32c-5.9,0-11.1-2.94-14.23-7.45l33.15-17.39c.02.31.03.62.03.94v10.83c0,7.22-5.85,13.06-13.07,13.06h-5.88Z"/>
          <path class="cls-6" d="M165.78,353.12h-27.81v-11.98h15.83c3.31,0,6.3,1.34,8.47,3.51,2.17,2.17,3.51,5.17,3.51,8.47Z"/>
          <path class="cls-4" d="M161.82,261.12c0,4.72,1.91,9,5.01,12.09s7.37,5.01,12.09,5.01v1.13l-29.07,61.78h-13.14l21.73-80.01h3.39Z"/>
        </g>
        <g>
          <polyline class="cls-7" points="137.97 353.12 108.67 353.12 108.67 428.67 179.34 428.67"/>
          <line class="cls-7" x1="179.34" y1="353.12" x2="165.78" y2="353.12"/>
          <polyline class="cls-7" points="203.96 310.54 179.34 310.54 179.34 353.12 179.34 428.67 250 428.67"/>
          <line class="cls-7" x1="250" y1="310.54" x2="231.76" y2="310.54"/>
          <polyline class="cls-7" points="320.66 267.97 250 267.97 250 310.54 250 428.67 320.66 428.67"/>
          <polygon class="cls-7" points="320.66 428.67 391.33 428.67 391.33 225.4 320.66 225.4 320.66 267.97 320.66 428.67"/>
          <path class="cls-7" d="M161.82,261.12h-3.39l5.34-44.96c.97-8.19,7.92-14.36,16.17-14.36h7.83c7.05,0,12.77,5.72,12.77,12.77v46.55"/>
          <path class="cls-7" d="M216.91,298.56l4.22-20.34c0-4.72-1.91-9-5.01-12.09s-7.37-5.01-12.1-5.01h-42.2c0,4.72,1.91,9,5.01,12.09s7.37,5.01,12.09,5.01h20.57c2.5,0,4.53,2.03,4.53,4.54v15.8"/>
          <path class="cls-7" d="M231.76,310.54c0-3.31-1.34-6.31-3.51-8.47-2.17-2.17-5.17-3.51-8.47-3.51h-15.83v11.98h27.81Z"/>
          <path class="cls-7" d="M206.31,175.49c.02.31.03.62.03.94v10.83c0,7.22-5.85,13.06-13.07,13.06h-5.88c-5.9,0-11.1-2.94-14.23-7.45-1.95-2.8-3.09-6.2-3.09-9.87v-6.58c0-9.56,7.75-17.32,17.32-17.32h1.64c9.24,0,16.8,7.25,17.29,16.37"/>
          <path class="cls-7" d="M173.16,192.87l4.79-3.05c2.12-1.36,3.4-3.69,3.4-6.21v-2.49c0-3.12,2.52-5.64,5.64-5.64h19.36"/>
          <path class="cls-7" d="M191.29,218.02l-11.39,9.84-4.92-5.7c-2.72-3.14-2.37-7.89.78-10.61,1.42-1.23,3.17-1.83,4.91-1.83,2.11,0,4.21.89,5.7,2.61l4.92,5.7Z"/>
          <line class="cls-7" x1="149.85" y1="341.13" x2="178.92" y2="279.35"/>
          <polyline class="cls-7" points="158.43 261.12 136.7 341.13 137.97 341.13"/>
          <path class="cls-7" d="M165.78,353.12c0-3.31-1.34-6.31-3.51-8.47-2.17-2.17-5.16-3.51-8.47-3.51h-15.83v11.98h27.81Z"/>
        </g>
      </g>
      <g>
        <g>
          <path class="cls-4" d="M300.76,255.99h-12.88l.16-15.8c0-2.5-2.03-4.54-4.53-4.54h-20.57c-4.72,0-9-1.91-12.09-5.01s-5.01-7.37-5.01-12.09h42.2c4.72,0,9,1.91,12.1,5.01s5.01,7.37,5.01,12.09l-4.39,20.34Z"/>
          <path class="cls-6" d="M300.76,255.99h3.05c3.31,0,6.31,1.34,8.47,3.51,2.17,2.17,3.51,5.16,3.51,8.47h-27.81v-11.98h12.78Z"/>
          <polygon class="cls-6" points="359.06 71.33 343.58 89.11 359.06 106.9 313.7 106.9 313.7 71.33 359.06 71.33"/>
          <path class="cls-2" d="M313.7,153.61c1.95-.12,3.89.89,4.85,2.73,1.32,2.5.35,5.59-2.15,6.9l-31.83,16.72v-7.95c0-1.16-.16-2.29-.45-3.36l27.52-14.45c.66-.34,1.36-.54,2.05-.58Z"/>
          <path class="cls-2" d="M290.37,133.85v10.83c0,7.22-5.85,13.06-13.07,13.06h-5.88c-5.9,0-11.1-2.94-14.23-7.45l33.15-17.39c.02.31.03.62.03.94Z"/>
          <path class="cls-5" d="M290.37,132.9h-.03s0,0,0,0h.03Z"/>
          <path class="cls-2" d="M290.34,132.9s0,.01,0,.01l-33.15,17.39,4.79-3.05c2.12-1.36,3.4-3.69,3.4-6.21v-2.49c0-3.12,2.52-5.64,5.64-5.64h19.33Z"/>
          <path class="cls-1" d="M290.34,132.9h-19.33c-3.11,0-5.64,2.52-5.64,5.64v2.49c0,2.52-1.28,4.85-3.4,6.21l-4.79,3.05c-1.95-2.8-3.09-6.2-3.09-9.87v-6.58c0-9.56,7.75-17.32,17.32-17.32h1.64c9.24,0,16.8,7.25,17.29,16.37Z"/>
          <path class="cls-5" d="M284.57,183.47v35.08h-42.11l2.75-23.13,2.59-21.83c.97-8.19,7.92-14.36,16.17-14.36h7.83c5.89,0,10.85,3.99,12.32,9.41l-6.95,3.64-1.12-2.13-6.66,3.49c-2.56,1.35-4.02,3.96-4.02,6.67,0,1.18.28,2.38.86,3.49,1.93,3.67,6.48,5.09,10.16,3.16l6.66-3.5h1.52Z"/>
          <polygon class="cls-5" points="284.57 179.95 284.57 183.47 283.05 183.47 281.93 181.34 284.57 179.95"/>
          <path class="cls-2" d="M284.57,172v7.95l-2.64,1.39-4.76-9.06,6.95-3.64c.3,1.07.45,2.2.45,3.36Z"/>
          <path class="cls-5" d="M281.93,181.34l1.12,2.13-6.66,3.5c-3.68,1.93-8.23.51-10.16-3.16-.59-1.12-.86-2.31-.86-3.49,0-2.7,1.47-5.32,4.02-6.67l6.66-3.49,1.12,2.13,4.76,9.06Z"/>
          <path class="cls-4" d="M262.95,235.65v1.13l-29.07,61.78h-13.14l21.73-80.01h3.39c0,4.72,1.91,9,5.01,12.09s7.37,5.01,12.09,5.01Z"/>
          <path class="cls-6" d="M249.8,310.54h-27.81v-11.98h15.83c3.31,0,6.3,1.34,8.47,3.51,2.17,2.17,3.51,5.17,3.51,8.47Z"/>
          <path class="cls-2" d="M247.11,179.34l-1.91,16.08-19.83,17.08c-.07.06-.14.12-.22.17l.38-.32c2.14-1.84,2.38-5.07.54-7.21-1.83-2.13-5.03-2.37-7.17-.57l28.21-25.23Z"/>
          <path class="cls-2" d="M226.08,205.14c1.84,2.14,1.61,5.37-.54,7.21l-.38.32s-.07.07-.11.09c-2.13,1.55-5.13,1.23-6.88-.8-1.85-2.14-1.61-5.37.54-7.21l.16-.15.04-.03c2.14-1.8,5.34-1.56,7.17.57Z"/>
          <path class="cls-2" d="M225.04,212.76l-25,20.99.52-13.38,18.3-15.77-.16.15c-2.14,1.84-2.38,5.07-.54,7.21,1.75,2.03,4.75,2.35,6.88.8Z"/>
        </g>
        <g>
          <path class="cls-7" d="M218.91,204.57l28.21-25.23-1.91,16.08-19.83,17.08c-.07.06-.14.12-.22.17"/>
          <path class="cls-7" d="M218.91,204.57c2.14-1.8,5.34-1.56,7.17.57,1.84,2.14,1.61,5.37-.54,7.21l-.38.32s-.07.07-.11.09l-25,20.99.52-13.38,18.3-15.77.04-.03Z"/>
          <polyline class="cls-7" points="313.7 155.41 313.7 153.61 313.7 106.9"/>
          <polygon class="cls-7" points="313.7 71.33 359.06 71.33 343.58 89.11 359.06 106.9 313.7 106.9 313.7 71.33"/>
          <path class="cls-7" d="M245.84,218.55c0,4.72,1.91,9,5.01,12.09s7.37,5.01,12.09,5.01h20.57c2.5,0,4.53,2.03,4.53,4.54l-.16,15.8h.1"/>
          <path class="cls-7" d="M300.76,255.99l4.39-20.34c0-4.72-1.91-9-5.01-12.09s-7.37-5.01-12.1-5.01h-3.47"/>
          <path class="cls-7" d="M287.98,255.99v11.98h27.81c0-3.31-1.34-6.31-3.51-8.47-2.17-2.17-5.17-3.51-8.47-3.51h-15.83Z"/>
          <path class="cls-7" d="M290.34,132.91c.02.31.03.62.03.94v10.83c0,7.22-5.85,13.06-13.07,13.06h-5.88c-5.9,0-11.1-2.94-14.23-7.45-1.95-2.8-3.09-6.2-3.09-9.87v-6.58c0-9.56,7.75-17.32,17.32-17.32h1.64c9.24,0,16.8,7.25,17.29,16.37"/>
          <path class="cls-7" d="M257.18,150.3l4.79-3.05c2.12-1.36,3.4-3.69,3.4-6.21v-2.49c0-3.12,2.52-5.64,5.64-5.64h19.36"/>
          <path class="cls-7" d="M281.93,181.34l1.12,2.13-6.66,3.5c-3.68,1.93-8.23.51-10.16-3.16-.59-1.12-.86-2.31-.86-3.49,0-2.7,1.47-5.32,4.02-6.67l6.66-3.49,1.12,2.13"/>
          <path class="cls-7" d="M313.7,153.61c1.95-.12,3.89.89,4.85,2.73,1.32,2.5.35,5.59-2.15,6.9l-31.83,16.72-2.64,1.39-4.76-9.06,6.95-3.64,27.52-14.45c.66-.34,1.36-.54,2.05-.58Z"/>
          <line class="cls-7" x1="233.87" y1="298.56" x2="262.95" y2="236.78"/>
          <polyline class="cls-7" points="242.46 218.55 220.73 298.56 221.99 298.56"/>
          <path class="cls-7" d="M221.99,298.56v11.98h27.81c0-3.31-1.34-6.31-3.51-8.47-2.17-2.17-5.16-3.51-8.47-3.51h-15.83Z"/>
          <path class="cls-7" d="M284.57,179.95v38.6h-42.11l2.75-23.13,2.59-21.83c.97-8.19,7.92-14.36,16.17-14.36h7.83c5.89,0,10.85,3.99,12.32,9.41"/>
        </g>
      </g>
      <path class="cls-8" d="M194.88,217.57h10.23v38.93c0,2.82-2.29,5.11-5.11,5.11h0c-2.82,0-5.11-2.29-5.11-5.11v-38.93h0Z" transform="translate(-107.98 189.04) rotate(-40.83)"/>
    </g>
  </g>
</svg>