<?xml version="1.0" encoding="UTF-8"?>
<svg id="Layer_2" data-name="Layer 2" xmlns="http://www.w3.org/2000/svg" viewBox="0 0 500 500">
  <defs>
    <style>
      .cls-1 {
        fill: #46416e;
      }

      .cls-1, .cls-2, .cls-3, .cls-4 {
        stroke: #231f20;
        stroke-miterlimit: 10;
        stroke-width: 5px;
      }

      .cls-2 {
        fill: #e1dfeb;
      }

      .cls-5 {
        fill: #231f20;
      }

      .cls-5, .cls-6 {
        stroke-width: 0px;
      }

      .cls-6 {
        fill: #625d9c;
      }

      .cls-3 {
        fill: #817db0;
      }

      .cls-4 {
        fill: #a09dc3;
      }
    </style>
  </defs>
  <rect class="cls-6" y="-.27" width="500" height="500"/>
  <g>
    <g>
      <g>
        <path class="cls-4" d="M215.38,211.79l26.98,35.38c3.48,4.57,5.93,10.52,6.62,16.95.95,8.72-1.1,17.71-16.94,9.13-26.67-14.45-23.15-45.93-23.15-45.93l6.49-15.53Z"/>
        <path class="cls-4" d="M222.79,244.25l26.98,35.38c3.48,4.57,5.93,10.52,6.62,16.95.95,8.72-1.1,17.71-16.94,9.13-26.67-14.45-23.15-45.93-23.15-45.93l6.49-15.53Z"/>
        <path class="cls-4" d="M226.14,269.79l23.8,37.59c3.07,4.85,4.99,11,5.13,17.46.19,8.77-2.64,17.54-17.67,7.62-25.32-16.72-19.07-47.77-19.07-47.77l7.81-14.9Z"/>
        <path class="cls-4" d="M177.75,118.49l9.02,115.61c-1.81,20.78,1.94,41.64,10.81,60.51,12.85,27.34,31.96,63.42,43.78,64.45,14.31,1.25-3.95-50.86-13.97-76.99-3.76-9.81-5.26-20.33-4.35-30.79l7.9-90.56c.74-8.51-2.92-17.01-10.04-21.72-4.77-3.16-14.65-5.99-21.27-11.04-13.74-10.49-21.3-16.21-21.88-9.46Z"/>
        <g>
          <rect class="cls-2" x="189.38" y="76.83" width="42.12" height="93.1" transform="translate(333.82 -87.06) rotate(90)"/>
          <rect class="cls-1" x="198.15" y="34.58" width="23.45" height="119.58" transform="translate(304.24 -115.51) rotate(90)"/>
          <circle class="cls-5" cx="185.38" cy="125.37" r="5.18"/>
        </g>
        <path class="cls-4" d="M209.85,213.6c1.95,8.57-3.85,25.57-.97,36.55,3.67,13.98-7.06,35.41-17.01,13.34-9.76-21.67-9.82-47.5-9.81-63.83,0-6.71,2.94-16.82,6.53-22.49l11.12-17.54"/>
      </g>
      <g>
        <path class="cls-4" d="M298.43,297.27l-26.98-35.38c-3.48-4.57-5.93-10.52-6.62-16.95-.95-8.72,1.1-17.71,16.94-9.13,26.67,14.45,23.15,45.93,23.15,45.93l-6.49,15.53Z"/>
        <path class="cls-4" d="M291.01,264.81l-26.98-35.38c-3.48-4.57-5.93-10.52-6.62-16.95-.95-8.72,1.1-17.71,16.94-9.13,26.67,14.45,23.15,45.93,23.15,45.93l-6.49,15.53Z"/>
        <path class="cls-4" d="M287.66,239.27l-23.8-37.59c-3.07-4.85-4.99-11-5.13-17.46-.19-8.77,2.64-17.54,17.67-7.62,25.32,16.72,19.07,47.77,19.07,47.77l-7.81,14.9Z"/>
        <path class="cls-4" d="M336.05,390.57l-9.02-115.61c1.81-20.78-1.94-41.64-10.81-60.51-12.85-27.34-31.96-63.42-43.78-64.45-14.31-1.25,3.95,50.86,13.97,76.99,3.76,9.81,5.26,20.33,4.35,30.79l-7.9,90.56c-.74,8.51,2.92,17.01,10.04,21.72,4.77,3.16,14.65,5.99,21.27,11.04,13.74,10.49,21.3,16.21,21.88,9.46Z"/>
        <rect class="cls-3" x="287.91" y="333.52" width="30.9" height="93.1" transform="translate(-76.71 683.43) rotate(-90)"/>
        <rect class="cls-3" x="292.44" y="359.89" width="21.84" height="93.1" transform="translate(-103.08 709.8) rotate(-90)"/>
        <path class="cls-4" d="M303.95,295.46c-1.95-8.57,3.85-25.57.97-36.55-3.67-13.98,7.06-35.41,17.01-13.34,9.76,21.67,9.82,47.5,9.81,63.83,0,6.71-2.94,16.82-6.53,22.49l-11.12,17.54"/>
      </g>
    </g>
    <line class="cls-3" x1="272.4" y1="364.62" x2="272.4" y2="395.52"/>
    <line class="cls-3" x1="287.9" y1="364.62" x2="287.9" y2="395.52"/>
    <line class="cls-3" x1="303.41" y1="364.62" x2="303.41" y2="395.52"/>
    <line class="cls-3" x1="318.91" y1="364.62" x2="318.91" y2="395.52"/>
    <line class="cls-3" x1="334.41" y1="364.62" x2="334.41" y2="395.52"/>
  </g>
</svg>