<?xml version="1.0" encoding="UTF-8"?>
<svg id="Layer_1" xmlns="http://www.w3.org/2000/svg" version="1.1" viewBox="0 0 500 500">
  <!-- Generator: Adobe Illustrator 29.0.1, SVG Export Plug-In . SVG Version: 2.1.0 Build 192)  -->
  <defs>
    <style>
      .st0 {
        fill: #4197cb;
      }

      .st1 {
        fill: #112c3c;
      }

      .st2 {
        fill: #9ad2db;
      }

      .st3 {
        fill: #275b7a;
      }

      .st4 {
        fill: none;
        stroke: #231f20;
        stroke-miterlimit: 10;
        stroke-width: 5px;
      }

      .st5 {
        fill: #3579a2;
      }

      .st6 {
        fill: #d0e6f6;
      }
    </style>
  </defs>
  <rect class="st0" x=".3" y="-.4" width="500" height="500"/>
  <g>
    <g>
      <polygon class="st3" points="413.5 371.2 413.5 395.1 87.3 395.1 87.3 371.2 100 371.2 400.8 371.2 413.5 371.2"/>
      <path class="st2" d="M413.4,126.7v29.7H87.2v-29.7l163.2-22,163,22ZM261.3,130.5c0-6.1-4.9-11-11-11s-11,4.9-11,11,4.9,11,11,11,11-4.9,11-11Z"/>
      <polygon class="st5" points="400.8 347.3 400.8 371.2 100 371.2 100 347.3 113.1 347.3 178.9 347.3 217.5 347.3 283.3 347.3 321.9 347.3 387.7 347.3 400.8 347.3"/>
      <polygon class="st3" points="394.9 156.4 394.9 173.3 387.7 173.3 321.9 173.3 314.5 173.3 314.5 156.4 394.9 156.4"/>
      <polygon class="st6" points="387.7 330.4 387.7 347.3 321.9 347.3 321.9 330.4 332.6 330.4 377 330.4 387.7 330.4"/>
      <polygon class="st5" points="387.7 173.3 387.7 190.3 377 190.3 321.9 190.3 321.9 173.3 387.7 173.3"/>
      <rect class="st2" x="332.6" y="190.4" width="44.4" height="140"/>
      <polygon class="st3" points="290.5 156.4 290.5 173.3 283.3 173.3 217.5 173.3 210.1 173.3 210.1 156.4 290.5 156.4"/>
      <polygon class="st6" points="283.3 330.4 283.3 347.3 217.5 347.3 217.5 330.4 228.2 330.4 272.6 330.4 283.3 330.4"/>
      <polygon class="st5" points="283.3 173.3 283.3 190.3 272.6 190.3 217.5 190.3 217.5 173.3 283.3 173.3"/>
      <rect class="st2" x="228.2" y="190.4" width="44.4" height="140"/>
      <path class="st1" d="M250.3,119.5c6.1,0,11,4.9,11,11s-4.9,11-11,11-11-4.9-11-11,4.9-11,11-11Z"/>
      <polygon class="st3" points="186.1 156.4 186.1 173.3 178.9 173.3 113.1 173.3 105.6 173.3 105.6 156.4 186.1 156.4"/>
      <polygon class="st6" points="178.9 330.4 178.9 347.3 113.1 347.3 113.1 330.4 123.8 330.4 168.2 330.4 178.9 330.4"/>
      <polygon class="st5" points="178.9 173.3 178.9 190.3 168.2 190.3 113.1 190.3 113.1 173.3 178.9 173.3"/>
      <rect class="st2" x="123.8" y="190.4" width="44.4" height="140"/>
    </g>
    <g>
      <polyline class="st4" points="123.8 330.4 123.8 190.4 168.2 190.4 168.2 330.4"/>
      <polyline class="st4" points="228.2 330.4 228.2 190.4 272.6 190.4 272.6 330.4"/>
      <polyline class="st4" points="113.1 347.3 113.1 330.4 123.8 330.4 168.2 330.4 178.9 330.4 178.9 347.3"/>
      <polyline class="st4" points="387.7 347.3 400.8 347.3 400.8 371.2"/>
      <line class="st4" x1="283.3" y1="347.3" x2="321.9" y2="347.3"/>
      <polyline class="st4" points="100 371.2 100 347.3 113.1 347.3 178.9 347.3 217.5 347.3"/>
      <polygon class="st4" points="400.8 371.2 413.5 371.2 413.5 395.1 87.3 395.1 87.3 371.2 100 371.2 400.8 371.2"/>
      <line class="st4" x1="210.1" y1="156.4" x2="186.1" y2="156.4"/>
      <line class="st4" x1="314.5" y1="156.4" x2="290.5" y2="156.4"/>
      <polyline class="st4" points="105.6 156.4 87.2 156.4 87.2 126.7 250.4 104.7 413.4 126.7 413.4 156.4 394.9 156.4"/>
      <polygon class="st4" points="217.5 347.3 217.5 330.4 228.2 330.4 272.6 330.4 283.3 330.4 283.3 347.3 217.5 347.3"/>
      <polyline class="st4" points="377 330.4 387.7 330.4 387.7 347.3 321.9 347.3 321.9 330.4 332.6 330.4"/>
      <polyline class="st4" points="178.9 173.3 178.9 190.3 168.2 190.3 113.1 190.3 113.1 173.3"/>
      <polygon class="st4" points="113.1 173.3 105.6 173.3 105.6 156.4 186.1 156.4 186.1 173.3 178.9 173.3 113.1 173.3"/>
      <polyline class="st4" points="217.5 173.3 210.1 173.3 210.1 156.4 290.5 156.4 290.5 173.3 283.3 173.3"/>
      <polyline class="st4" points="321.9 173.3 314.5 173.3 314.5 156.4 394.9 156.4 394.9 173.3 387.7 173.3"/>
      <polygon class="st4" points="272.6 190.3 217.5 190.3 217.5 173.3 283.3 173.3 283.3 190.3 272.6 190.3"/>
      <polygon class="st4" points="377 190.3 321.9 190.3 321.9 173.3 387.7 173.3 387.7 190.3 377 190.3"/>
      <rect class="st4" x="332.6" y="190.4" width="44.4" height="140"/>
      <path class="st4" d="M261.3,130.5c0,6.1-4.9,11-11,11s-11-4.9-11-11,4.9-11,11-11,11,4.9,11,11Z"/>
    </g>
  </g>
</svg>