<?xml version="1.0" encoding="UTF-8"?>
<svg id="Layer_2" data-name="Layer 2" xmlns="http://www.w3.org/2000/svg" viewBox="0 0 500 500">
  <defs>
    <style>
      .cls-1 {
        fill: #322f4e;
      }

      .cls-1, .cls-2, .cls-3, .cls-4 {
        stroke: #231f20;
        stroke-miterlimit: 10;
        stroke-width: 5px;
      }

      .cls-2 {
        fill: #c0bed7;
      }

      .cls-5 {
        fill: #625d9c;
        stroke-width: 0px;
      }

      .cls-3 {
        fill: #817db0;
      }

      .cls-4 {
        fill: #a09dc3;
      }
    </style>
  </defs>
  <rect class="cls-5" y="-.27" width="500" height="500"/>
  <g>
    <path class="cls-3" d="M201.57,347.05c17.19-11.63,20.73-40.96,11.25-61.33-4.12-8.84.41-29.2,3.18-36.32,4.24-10.89,12.93-7.14,12.93-36.38,0-21.96-21.46-23.94-22.19-16.99-2.93,28.16-28.3,74.83-37.53,86.81v90.19h17.48c65.92,0,63.3-61.87,63.3-61.87v-167.52c0-12.25-7.32-22.19-16.34-22.19h0c-9.03,0-14.27,9.33-16.34,22.19-1.95,12.1-4.53,48.83-4.53,48.83"/>
    <polygon class="cls-2" points="169.21 373.02 119.16 391.41 119.16 304.38 169.21 282.84 169.21 373.02"/>
    <path class="cls-4" d="M298.43,367.54c-17.19-11.63-20.73-40.96-11.25-61.33,4.12-8.84-.41-29.2-3.18-36.32-4.24-10.89-12.93-7.14-12.93-36.38,0-21.96,21.46-23.94,22.19-16.99,2.93,28.16,28.3,74.83,37.53,86.81v90.19h-17.48c-65.92,0-63.3-61.87-63.3-61.87v-167.52c0-12.25,7.32-22.19,16.34-22.19h0c9.03,0,14.27,9.33,16.34,22.19,1.95,12.1,4.53,48.83,4.53,48.83"/>
    <polygon class="cls-1" points="330.79 393.51 380.84 411.9 380.84 324.87 330.79 303.32 330.79 393.51"/>
    <line class="cls-4" x1="179.93" y1="94.54" x2="212.13" y2="121.44"/>
    <line class="cls-4" x1="134.86" y1="141.93" x2="196.52" y2="150.9"/>
    <line class="cls-4" x1="336.81" y1="88.1" x2="287.66" y2="131.15"/>
    <line class="cls-4" x1="343.66" y1="152.15" x2="302.63" y2="160.94"/>
  </g>
</svg>