<?xml version="1.0" encoding="UTF-8"?>
<svg id="Layer_1" xmlns="http://www.w3.org/2000/svg" version="1.1" viewBox="0 0 500 500">
  <!-- Generator: Adobe Illustrator 29.0.1, SVG Export Plug-In . SVG Version: 2.1.0 Build 192)  -->
  <defs>
    <style>
      .st0 {
        fill: #fff;
      }

      .st0, .st1, .st2, .st3, .st4 {
        stroke: #231f20;
        stroke-miterlimit: 10;
        stroke-width: 5px;
      }

      .st5 {
        fill: #4197cb;
      }

      .st1 {
        fill: #3579a2;
      }

      .st2 {
        fill: #9f9cc2;
      }

      .st3 {
        fill: #a0cae4;
      }

      .st4 {
        fill: #112c3c;
      }
    </style>
  </defs>
  <rect class="st5" x=".3" y="-.4" width="500" height="500"/>
  <g>
    <path class="st1" d="M201.9,346.9c17.2-11.6,20.7-41,11.2-61.3-4.1-8.8.4-29.2,3.2-36.3,4.2-10.9,12.9-7.1,12.9-36.4s-21.5-23.9-22.2-17c-2.9,28.2-28.3,74.8-37.5,86.8v90.2h17.5c65.9,0,63.3-61.9,63.3-61.9v-167.5c0-12.3-7.3-22.2-16.3-22.2h0c-9,0-14.3,9.3-16.3,22.2-2,12.1-4.5,48.8-4.5,48.8"/>
    <polygon class="st0" points="169.5 372.9 119.5 391.3 119.5 304.3 169.5 282.7 169.5 372.9"/>
    <path class="st3" d="M298.8,367.4c-17.2-11.6-20.7-41-11.2-61.3,4.1-8.8-.4-29.2-3.2-36.3-4.2-10.9-12.9-7.1-12.9-36.4,0-22,21.5-23.9,22.2-17,2.9,28.2,28.3,74.8,37.5,86.8v90.2h-17.5c-65.9,0-63.3-61.9-63.3-61.9v-167.5c0-12.3,7.3-22.2,16.3-22.2h0c9,0,14.3,9.3,16.3,22.2,2,12.1,4.5,48.8,4.5,48.8"/>
    <polygon class="st4" points="331.1 393.4 381.2 411.8 381.2 324.7 331.1 303.2 331.1 393.4"/>
    <line class="st2" x1="180.3" y1="94.4" x2="212.5" y2="121.3"/>
    <line class="st2" x1="135.2" y1="141.8" x2="196.9" y2="150.8"/>
    <line class="st2" x1="337.1" y1="88" x2="288" y2="131"/>
    <line class="st2" x1="344" y1="152" x2="303" y2="160.8"/>
  </g>
</svg>