<?xml version="1.0" encoding="UTF-8"?>
<svg xmlns="http://www.w3.org/2000/svg" viewBox="0 0 500 500">
  <defs>
    <style>
      .cls-1 {
        fill: none;
        stroke: #231f20;
        stroke-linecap: round;
        stroke-miterlimit: 10;
        stroke-width: 5px;
      }

      .cls-2 {
        fill: #4cb6c3;
      }

      .cls-2, .cls-3, .cls-4, .cls-5 {
        stroke-width: 0px;
      }

      .cls-3 {
        fill: #82cad3;
      }

      .cls-4 {
        fill: #0095a9;
      }

      .cls-5 {
        fill: #0b8699;
      }
    </style>
  </defs>
  <g id="Layer_2" data-name="Layer 2">
    <rect class="cls-4" width="500" height="500"/>
  </g>
  <g id="Layer_1" data-name="Layer 1">
    <g>
      <g>
        <path class="cls-2" d="M412.73,282.95v73c0,6.48-3.46,12.47-9.08,15.71l-63.21,36.5c-2.81,1.62-5.94,2.43-9.08,2.43v-93.95c3.14,0,6.27-.81,9.08-2.43l68.71-39.67,1.15-.67c1.56,2.71,2.43,5.83,2.43,9.08Z"/>
        <path class="cls-3" d="M410.3,273.87l-1.15.67-68.71,39.67c-2.81,1.62-5.94,2.43-9.08,2.43s-6.26-.81-9.07-2.43l-8.65-4.99h0s-59.9-34.59-59.9-34.59l-1.6-.25c1.58-2.93,3.95-5.43,6.93-7.15l63.22-36.5c5.61-3.24,12.53-3.24,18.15,0l63.21,36.5c2.81,1.62,5.08,3.93,6.65,6.64Z"/>
        <path class="cls-5" d="M313.64,309.22l8.65,4.99c2.81,1.62,5.94,2.43,9.07,2.43v93.95c-3.13,0-6.26-.81-9.07-2.43l-63.22-36.5c-5.61-3.24-9.07-9.23-9.07-15.71v-73c0-3.05.76-5.98,2.14-8.57l1.6.25,59.9,34.58h0Z"/>
        <path class="cls-2" d="M300.23,148.75l13.41-7.75,14.15-8.17,1.14-.66c1.57,2.71,2.43,5.83,2.43,9.08v72.99c0,6.49-3.46,12.48-9.07,15.72l-63.22,36.5c-2.81,1.62-5.94,2.43-9.07,2.43v-93.95c3.13,0,6.26-.81,9.07-2.43l41.16-23.76Z"/>
        <path class="cls-3" d="M328.93,132.17l-1.14.66-14.15,8.17-13.41,7.75-41.16,23.76c-2.81,1.62-5.94,2.43-9.07,2.43s-6.27-.81-9.08-2.43l-68.55-39.58-1.59-.25c1.57-2.93,3.94-5.43,6.92-7.15l63.22-36.5c5.62-3.24,12.54-3.24,18.15,0l63.22,36.5c2.81,1.62,5.07,3.93,6.64,6.64Z"/>
        <path class="cls-2" d="M194.87,304.3l10.67-6.16,40.88-23.6,1.15-.67c1.57,2.71,2.43,5.83,2.43,9.08v73c0,6.48-3.46,12.47-9.08,15.71l-63.22,36.5c-2.8,1.62-5.94,2.43-9.07,2.43v-93.95c3.13,0,6.27-.81,9.07-2.43l17.17-9.91Z"/>
        <path class="cls-5" d="M250,177.75v91.14c-3.14,0-6.27-.81-9.08-2.43l-63.22-36.5c-5.61-3.24-9.07-9.23-9.07-15.72v-72.99c0-3.05.76-5.98,2.15-8.57l1.59.25,68.55,39.58c2.81,1.62,5.94,2.43,9.08,2.43v2.81Z"/>
        <path class="cls-3" d="M247.57,273.87l-1.15.67-40.88,23.6-10.67,6.16-17.17,9.91c-2.8,1.62-5.94,2.43-9.07,2.43s-6.27-.81-9.08-2.43l-68.55-39.58-1.6-.25c1.58-2.93,3.95-5.43,6.94-7.15l63.21-36.5c5.62-3.24,12.54-3.24,18.15,0l63.22,36.5c2.81,1.62,5.08,3.93,6.65,6.64Z"/>
        <path class="cls-5" d="M168.63,319.45v91.14c-3.13,0-6.27-.81-9.08-2.43l-63.21-36.5c-5.62-3.24-9.08-9.23-9.08-15.71v-73c0-3.05.76-5.98,2.14-8.57l1.6.25,68.55,39.58c2.81,1.62,5.95,2.43,9.08,2.43v2.81Z"/>
      </g>
      <g>
        <line class="cls-1" x1="194.87" y1="304.3" x2="194.87" y2="351.92"/>
        <line class="cls-1" x1="313.64" y1="309.22" x2="313.64" y2="330.49"/>
        <line class="cls-1" x1="205.54" y1="298.14" x2="205.54" y2="324.33"/>
        <path class="cls-1" d="M170.78,132.68c-1.39,2.59-2.15,5.52-2.15,8.57v72.99c0,6.49,3.46,12.48,9.07,15.72l63.22,36.5c2.81,1.62,5.94,2.43,9.08,2.43s6.26-.81,9.07-2.43l63.22-36.5c5.61-3.24,9.07-9.23,9.07-15.72v-72.99c0-3.25-.86-6.37-2.43-9.08s-3.83-5.02-6.64-6.64l-63.22-36.5c-5.61-3.24-12.53-3.24-18.15,0l-63.22,36.5c-2.98,1.72-5.35,4.22-6.92,7.15Z"/>
        <path class="cls-1" d="M172.37,132.93l68.55,39.58c2.81,1.62,5.94,2.43,9.08,2.43s6.26-.81,9.07-2.43l41.16-23.76,13.41-7.75,14.15-8.17"/>
        <polyline class="cls-1" points="250 177.75 250 268.89 250 271.7"/>
        <path class="cls-1" d="M250,282.95c0-3.25-.86-6.37-2.43-9.08s-3.84-5.02-6.65-6.64l-63.22-36.5c-5.61-3.24-12.53-3.24-18.15,0l-63.21,36.5c-2.99,1.72-5.36,4.22-6.94,7.15-1.38,2.59-2.14,5.52-2.14,8.57v73c0,6.48,3.46,12.47,9.08,15.71l63.21,36.5c2.81,1.62,5.95,2.43,9.08,2.43s6.27-.81,9.07-2.43l63.22-36.5c5.62-3.24,9.08-9.23,9.08-15.71"/>
        <path class="cls-1" d="M91,274.63l68.55,39.58c2.81,1.62,5.95,2.43,9.08,2.43s6.27-.81,9.07-2.43l17.17-9.91,10.67-6.16,40.88-23.6"/>
        <line class="cls-1" x1="168.63" y1="319.45" x2="168.63" y2="410.59"/>
        <path class="cls-1" d="M250,282.95v73c0,6.48,3.46,12.47,9.07,15.71l63.22,36.5c2.81,1.62,5.94,2.43,9.07,2.43s6.27-.81,9.08-2.43l63.21-36.5c5.62-3.24,9.08-9.23,9.08-15.71v-73c0-3.25-.87-6.37-2.43-9.08-1.57-2.71-3.84-5.02-6.65-6.64l-63.21-36.5c-5.62-3.24-12.54-3.24-18.15,0l-63.22,36.5c-2.98,1.72-5.35,4.22-6.93,7.15-1.38,2.59-2.14,5.52-2.14,8.57Z"/>
        <path class="cls-1" d="M253.74,274.63l59.9,34.58h0s8.65,5,8.65,5c2.81,1.62,5.94,2.43,9.07,2.43s6.27-.81,9.08-2.43l68.71-39.67"/>
        <line class="cls-1" x1="331.36" y1="319.45" x2="331.36" y2="410.59"/>
        <line class="cls-1" x1="313.64" y1="141" x2="313.64" y2="207.08"/>
        <line class="cls-1" x1="300.23" y1="148.75" x2="300.23" y2="185.34"/>
      </g>
    </g>
  </g>
</svg>