<?xml version="1.0" encoding="UTF-8"?>
<svg xmlns="http://www.w3.org/2000/svg" viewBox="0 0 500 500">
  <defs>
    <style>
      .cls-1 {
        fill: #275b7a;
      }

      .cls-1, .cls-2, .cls-3, .cls-4, .cls-5, .cls-6, .cls-7 {
        stroke-miterlimit: 10;
        stroke-width: 5px;
      }

      .cls-1, .cls-4, .cls-5, .cls-6 {
        stroke: #231f20;
      }

      .cls-1, .cls-5 {
        stroke-linecap: round;
      }

      .cls-2 {
        fill: #fff;
      }

      .cls-2, .cls-3 {
        stroke: #fff;
      }

      .cls-8 {
        fill: #4197cb;
        stroke-width: 0px;
      }

      .cls-3 {
        fill: none;
      }

      .cls-4, .cls-7 {
        fill: #a1cbe5;
      }

      .cls-5 {
        fill: #3579a3;
      }

      .cls-6 {
        fill: #231f20;
      }

      .cls-7 {
        stroke: #a1cbe5;
      }
    </style>
  </defs>
  <g id="Layer_2" data-name="Layer 2">
    <rect class="cls-8" y="-.27" width="500" height="500"/>
  </g>
  <g id="Layer_1" data-name="Layer 1">
    <g>
      <path class="cls-5" d="M269.73,382.39v3.74c0,10.9-8.84,19.73-19.73,19.73s-19.73-8.84-19.73-19.73v-3.74"/>
      <path class="cls-5" d="M215.96,339.85h68.08v36.5c0,3.33-2.71,6.04-6.04,6.04h-56c-3.33,0-6.04-2.71-6.04-6.04v-36.5h0Z"/>
      <circle class="cls-4" cx="250" cy="251.41" r="93.99"/>
      <g>
        <path class="cls-3" d="M312.65,259.45c-.6,4.7-1.71,9.25-3.29,13.57"/>
        <path class="cls-3" d="M250,188.26c34.88,0,63.15,28.27,63.15,63.15"/>
      </g>
      <path class="cls-1" d="M281.26,244.95h-25.16c-1.81,0-3.14-1.71-2.69-3.46l8.53-33.48c.75-2.95-3.1-4.79-4.92-2.34l-40.5,54.45c-1.36,1.83-.06,4.44,2.23,4.44h25.16c1.81,0,3.14,1.71,2.69,3.46l-8.53,33.48c-.75,2.95,3.1,4.79,4.92,2.34l40.5-54.45c1.36-1.83.06-4.44-2.23-4.44Z"/>
      <line class="cls-6" x1="284.04" y1="367.24" x2="215.96" y2="367.24"/>
      <g>
        <line class="cls-2" x1="296.48" y1="177.73" x2="315.81" y2="148.88"/>
        <line class="cls-2" x1="319.28" y1="200.41" x2="348.02" y2="180.93"/>
        <line class="cls-2" x1="331.92" y1="230.27" x2="365.92" y2="223.23"/>
        <line class="cls-2" x1="331.95" y1="264.07" x2="365.98" y2="270.99"/>
        <line class="cls-2" x1="319.3" y1="294.14" x2="348.05" y2="313.63"/>
        <line class="cls-2" x1="296.64" y1="316.72" x2="316.03" y2="345.53"/>
        <line class="cls-2" x1="203.15" y1="316.59" x2="183.66" y2="345.34"/>
        <line class="cls-2" x1="180.57" y1="293.93" x2="151.76" y2="313.32"/>
        <line class="cls-2" x1="168.06" y1="264.19" x2="134.04" y2="271.18"/>
        <line class="cls-2" x1="168.05" y1="230.5" x2="134.02" y2="223.59"/>
        <line class="cls-2" x1="180.7" y1="200.43" x2="151.95" y2="180.95"/>
        <line class="cls-2" x1="203.36" y1="177.86" x2="183.97" y2="149.04"/>
        <line class="cls-2" x1="233.1" y1="165.35" x2="226.1" y2="131.33"/>
        <line class="cls-2" x1="266.67" y1="165.32" x2="273.54" y2="131.27"/>
        <line class="cls-2" x1="296.48" y1="177.73" x2="315.81" y2="148.88"/>
      </g>
      <g>
        <line class="cls-7" x1="292.15" y1="149.03" x2="309.7" y2="105.74"/>
        <line class="cls-7" x1="328.38" y1="172.66" x2="360.9" y2="139.12"/>
        <line class="cls-7" x1="353.21" y1="208.51" x2="396.07" y2="189.92"/>
        <line class="cls-7" x1="362.52" y1="253.02" x2="409.23" y2="252.8"/>
        <line class="cls-7" x1="354.1" y1="296.08" x2="397.3" y2="313.86"/>
        <line class="cls-7" x1="330.45" y1="332.02" x2="363.87" y2="364.65"/>
        <line class="cls-7" x1="171.34" y1="333.81" x2="138.71" y2="367.24"/>
        <line class="cls-7" x1="146.73" y1="298.08" x2="103.84" y2="316.61"/>
        <line class="cls-7" x1="137.48" y1="253.72" x2="90.77" y2="253.93"/>
        <line class="cls-7" x1="145.9" y1="210.66" x2="102.7" y2="192.88"/>
        <line class="cls-7" x1="169.55" y1="174.71" x2="136.13" y2="142.08"/>
        <line class="cls-7" x1="205.29" y1="150.09" x2="186.76" y2="107.21"/>
        <line class="cls-7" x1="249.49" y1="140.85" x2="249.21" y2="94.14"/>
        <line class="cls-7" x1="292.15" y1="149.03" x2="309.7" y2="105.74"/>
      </g>
    </g>
  </g>
</svg>