<?xml version="1.0" encoding="UTF-8"?>
<svg xmlns="http://www.w3.org/2000/svg" viewBox="0 0 500 500">
  <defs>
    <style>
      .cls-1, .cls-2 {
        fill: none;
      }

      .cls-1, .cls-2, .cls-3, .cls-4, .cls-5, .cls-6 {
        stroke: #231f20;
        stroke-linecap: round;
        stroke-miterlimit: 10;
        stroke-width: 5px;
      }

      .cls-2 {
        stroke-dasharray: 0 0 11.71 11.71;
      }

      .cls-3 {
        fill: #8ec0e1;
      }

      .cls-4 {
        fill: #dae8f4;
      }

      .cls-7 {
        fill: #4197cb;
        stroke-width: 0px;
      }

      .cls-5 {
        fill: #2e6b8f;
      }

      .cls-6 {
        fill: #4d8fc2;
      }
    </style>
  </defs>
  <g id="Layer_2" data-name="Layer 2">
    <rect class="cls-7" width="500" height="500"/>
  </g>
  <g id="Layer_1" data-name="Layer 1">
    <path class="cls-3" d="M100.67,121.06v251.03h299.74V121.06c0-12.83-10.4-23.23-23.23-23.23H123.9c-12.83,0-23.23,10.4-23.23,23.23ZM388.39,372.09H112.7V122.49c0-7.54,6.12-13.66,13.66-13.66h248.37c7.54,0,13.66,6.12,13.66,13.66v249.6Z"/>
    <path class="cls-5" d="M95.1,371.66h309.81c5.51,0,9.99,4.47,9.99,9.99v19.1H85.11v-19.1c0-5.51,4.47-9.99,9.99-9.99Z"/>
    <line class="cls-6" x1="165.43" y1="109.46" x2="165.43" y2="288.77"/>
    <line class="cls-6" x1="278.91" y1="109.46" x2="278.91" y2="288.77"/>
    <line class="cls-6" x1="306.79" y1="109.46" x2="391.01" y2="288.77"/>
    <line class="cls-6" x1="222.17" y1="109.46" x2="222.17" y2="288.77"/>
    <g>
      <path class="cls-1" d="M350.78,235.37c-.83,1.85-1.78,3.62-2.82,5.3"/>
      <path class="cls-2" d="M340.56,249.7c-10.04,9.42-24.04,13.81-37.83,11.59"/>
      <path class="cls-1" d="M297.02,259.98c-1.89-.57-3.77-1.26-5.62-2.1"/>
    </g>
    <g>
      <circle class="cls-4" cx="278.91" cy="310.31" r="25.94"/>
      <path class="cls-1" d="M281.18,295.97c6.68,0,12.08,5.4,12.08,12.08"/>
    </g>
    <g>
      <circle class="cls-4" cx="401.13" cy="310.31" r="25.94"/>
      <path class="cls-1" d="M403.4,295.97c6.68,0,12.08,5.4,12.08,12.08"/>
    </g>
    <g>
      <circle class="cls-4" cx="222.17" cy="310.31" r="25.94"/>
      <path class="cls-1" d="M224.44,295.97c6.68,0,12.08,5.4,12.08,12.08"/>
    </g>
    <g>
      <circle class="cls-4" cx="165.43" cy="310.31" r="25.94"/>
      <path class="cls-1" d="M167.7,295.97c6.68,0,12.08,5.4,12.08,12.08"/>
    </g>
  </g>
</svg>