<?xml version="1.0" encoding="UTF-8"?>
<svg id="Layer_1" xmlns="http://www.w3.org/2000/svg" xmlns:xlink="http://www.w3.org/1999/xlink" version="1.1" viewBox="0 0 500 500">
  <!-- Generator: Adobe Illustrator 29.0.1, SVG Export Plug-In . SVG Version: 2.1.0 Build 192)  -->
  <defs>
    <style>
      .st0, .st1 {
        fill: none;
      }

      .st1 {
        stroke-linecap: round;
      }

      .st1, .st2 {
        stroke: #231f20;
        stroke-miterlimit: 10;
        stroke-width: 5px;
      }

      .st3 {
        fill: #231f20;
      }

      .st4 {
        fill: #05342e;
      }

      .st5 {
        fill: #068a7c;
      }

      .st6 {
        fill: #83cec8;
      }

      .st7 {
        fill: #00aa9a;
      }

      .st2 {
        fill: #b5e0de;
      }

      .st8 {
        clip-path: url(#clippath);
      }
    </style>
    <clipPath id="clippath">
      <polygon class="st0" points="250.2 68.7 309.6 180.7 434.5 202.6 346.4 293.7 364.1 419.2 250.2 363.5 136.4 419.2 154.1 293.7 66 202.6 190.8 180.7 250.2 68.7"/>
    </clipPath>
  </defs>
  <rect class="st7" x="0" width="500" height="500"/>
  <polygon class="st2" points="250 71.4 309.4 183.3 434.2 205.2 346.1 296.3 363.9 421.8 250 366.2 136.1 421.8 153.9 296.3 65.8 205.2 190.6 183.3 250 71.4"/>
  <polygon class="st2" points="116.1 74.4 140.3 93.8 170.4 86.7 159.4 115.7 175.5 142.2 144.5 140.7 124.3 164.1 116.2 134.2 87.6 122.2 113.5 105.3 116.1 74.4"/>
  <polygon class="st2" points="420.6 301.1 418.9 322.2 434.4 336.5 413.8 341.3 405 360.5 394.1 342.4 373.1 340 386.9 324 382.8 303.3 402.2 311.5 420.6 301.1"/>
  <g class="st8">
    <g>
      <g>
        <g>
          <path class="st5" d="M348.2,414.1h-195.9s9.7-55.4,33.6-71c11-7.2,24.5-11.3,43.7-11.7,6.2,4.2,13.4,6.3,20.5,6.3s15-2.3,21.3-6.8c19.1.4,32.3,5,43.3,12.3,24.2,16.1,33.6,71,33.6,71Z"/>
          <path class="st4" d="M302,213.9l10.7,103.8h-41.6l-.2-10.9c18.3-8,31-26.2,31-47.4v-45.5Z"/>
          <path class="st6" d="M270.9,306.9c-6.3,2.8-13.3,4.3-20.7,4.3s-14.7-1.6-21.1-4.5c-5.8-2.6-11-6.2-15.5-10.7-9.4-9.4-15.2-22.3-15.2-36.6v-40.5h17.6l6.4-10,6.5,10h72.9v40.5c0,21.2-12.8,39.4-31,47.4ZM279.7,243.4c0-3.1-2.5-5.6-5.6-5.6s-5.7,2.5-5.7,5.6,2.5,5.6,5.7,5.6,5.6-2.5,5.6-5.6ZM232,243.4c0-3.1-2.5-5.6-5.6-5.6s-5.6,2.5-5.6,5.6,2.5,5.6,5.6,5.6,5.6-2.5,5.6-5.6Z"/>
          <path class="st4" d="M302,218.9h-72.9l-6.5-10-6.4,10h-17.6c0-33.6,23.2-56.8,51.8-56.8s51.8,23.2,51.8,56.8Z"/>
          <path class="st3" d="M274.1,237.8c3.1,0,5.6,2.5,5.6,5.6s-2.5,5.6-5.6,5.6-5.7-2.5-5.7-5.6,2.5-5.6,5.7-5.6Z"/>
          <path class="st6" d="M271.1,317.7l.2,13c-6.4,4.6-13.8,6.8-21.3,6.8s-14.3-2.1-20.5-6.3l-.2-13.6-.2-11h0c6.4,2.9,13.6,4.5,21.1,4.5s14.4-1.5,20.7-4.3l.2,10.9Z"/>
          <circle class="st3" cx="226.4" cy="243.4" r="5.6"/>
          <path class="st4" d="M229.1,306.7l.2,11h-41.5l10.7-103.8v45.5c0,14.3,5.8,27.2,15.2,36.6,4.4,4.4,9.7,8.1,15.5,10.7h0Z"/>
        </g>
        <g>
          <path class="st1" d="M229.5,331.3c-19.1.4-32.7,4.5-43.7,11.7-23.9,15.6-33.6,71-33.6,71h100.8"/>
          <path class="st1" d="M253.1,414.1h95.1s-9.4-55-33.6-71c-10.9-7.3-24.1-11.9-43.3-12.3"/>
          <path class="st1" d="M302,213.9v45.5c0,21.2-12.8,39.4-31,47.4-6.3,2.8-13.3,4.3-20.7,4.3s-14.7-1.6-21.1-4.5c-5.8-2.6-11-6.2-15.5-10.7-9.4-9.4-15.2-22.3-15.2-36.6v-45.5"/>
          <path class="st1" d="M270.9,306.9h0s.2,10.9.2,10.9l.2,13c-6.4,4.6-13.8,6.8-21.3,6.8s-14.3-2.1-20.5-6.3l-.2-13.6-.2-11"/>
          <line class="st1" x1="198.5" y1="394.7" x2="198.5" y2="414.1"/>
          <line class="st1" x1="302.2" y1="394.5" x2="302.2" y2="413.9"/>
          <path class="st1" d="M198.5,218.9h17.6l6.4-10,6.5,10h72.9c0-33.6-23.2-56.8-51.8-56.8s-51.8,23.2-51.8,56.8Z"/>
          <polyline class="st1" points="302 213.9 312.7 317.7 271.3 317.7"/>
          <polyline class="st1" points="198.5 213.9 187.8 317.7 229.2 317.7"/>
        </g>
      </g>
      <path class="st1" d="M270.8,280.3c-11.5,11.2-29.9,10.8-41.1-.7"/>
    </g>
  </g>
</svg>