<?xml version="1.0" encoding="UTF-8"?>
<svg id="Layer_1" data-name="Layer 1" xmlns="http://www.w3.org/2000/svg" viewBox="0 0 500 500">
  <defs>
    <style>
      .cls-1 {
        stroke-linecap: round;
      }

      .cls-1, .cls-2 {
        fill: none;
      }

      .cls-1, .cls-2, .cls-3, .cls-4 {
        stroke: #231f20;
        stroke-miterlimit: 10;
        stroke-width: 5px;
      }

      .cls-5 {
        fill: #5eb3e4;
      }

      .cls-6 {
        fill: #a1ceee;
      }

      .cls-7, .cls-3 {
        fill: #1b3648;
      }

      .cls-8 {
        fill: #4d8ec1;
      }

      .cls-4 {
        fill: #d0e6f6;
      }
    </style>
  </defs>
  <rect class="cls-5" x="0" width="500" height="500"/>
  <g>
    <g>
      <g>
        <path class="cls-6" d="M200.61,387.06c-.83,6.82-6.64,12.1-13.68,12.1-3.8,0-7.25-1.55-9.76-4.03-2.48-2.5-4.03-5.94-4.03-9.76v-6.23s0-20.14,0-20.14c1.96,1.3,4.28,2.05,6.8,2.05h13.97c2.52,0,4.84-.76,6.8-2.05v26.37c0,.58-.04,1.13-.11,1.69Z"/>
        <path class="cls-8" d="M317.1,366.5c8.44,0,15.26,6.84,15.26,15.26,0,8.42-6.82,15.26-15.26,15.26,0,0-85.32,0-100.15,0-10.64,0-14.04-4.91-16.24-9.95l-.11-.02c.07-.56.11-1.12.11-1.69v-26.37c3.37-2.21,5.6-6.03,5.6-10.35v-25.32c0-4.32-2.23-8.14-5.6-10.35v-25.58s0-.09,0-.09c.07-15.3,18.95-24.39,33.15-30.22,4.68-1.91,9.49-3.47,14.38-4.66l29.25-7.09c1.85-.45,3.82-.34,5.6.32,7.51,2.75,13.86,10.24,8.84,29.3h29.82c8.44,0,15.26,6.82,15.26,15.25,0,8.44-6.82,15.26-15.26,15.26h4.99c8.42,0,15.25,6.84,15.25,15.26,0,8.42-6.82,15.26-15.25,15.26h-9.65c8.44,0,15.26,6.82,15.26,15.25s-6.82,15.26-15.26,15.26Z"/>
        <path class="cls-8" d="M173.14,379.14l-90.28,5.26v-99.45s90.28,5.26,90.28,5.26v22.77c-3.37,2.21-5.58,6.03-5.58,10.35v25.32c0,4.32,2.21,8.14,5.58,10.35v20.14Z"/>
        <path class="cls-7" d="M193.91,361.05h-13.97c-2.52,0-4.84-.76-6.8-2.05v-46.02c1.96-1.28,4.28-2.03,6.8-2.03h13.97c2.52,0,4.84.76,6.8,2.03v46.02c-1.96,1.3-4.28,2.05-6.8,2.05Z"/>
        <path class="cls-7" d="M200.71,359v-46.02c3.37,2.21,5.6,6.03,5.6,10.35v25.32c0,4.32-2.23,8.14-5.6,10.35Z"/>
        <path class="cls-7" d="M173.14,312.97v46.02c-3.37-2.21-5.58-6.03-5.58-10.35v-25.32c0-4.32,2.21-8.14,5.58-10.35Z"/>
        <path class="cls-6" d="M200.71,287.4v25.58c-1.96-1.28-4.28-2.03-6.8-2.03h-13.97c-2.52,0-4.84.76-6.8,2.03v-22.77s0-2.9,0-2.9c0-7.61,6.17-13.79,13.79-13.79,3.8,0,7.25,1.55,9.76,4.03,2.48,2.5,4.03,5.94,4.03,9.76v.09Z"/>
      </g>
      <g>
        <path class="cls-2" d="M200.71,359v26.37c0,.58-.04,1.13-.11,1.69-.83,6.82-6.64,12.1-13.68,12.1-3.8,0-7.25-1.55-9.76-4.03-2.48-2.5-4.03-5.94-4.03-9.76v-6.23s0-20.14,0-20.14"/>
        <line class="cls-2" x1="200.71" y1="287.4" x2="200.71" y2="312.97"/>
        <path class="cls-2" d="M173.14,312.97v-22.77s0-2.9,0-2.9c0-7.61,6.17-13.79,13.79-13.79,3.8,0,7.25,1.55,9.76,4.03,2.48,2.5,4.03,5.94,4.03,9.76"/>
        <path class="cls-2" d="M200.71,387.08c2.2,5.04,5.6,9.95,16.24,9.95,14.83,0,100.15,0,100.15,0"/>
        <polyline class="cls-1" points="321.76 274.96 291.93 274.96 236.05 274.96"/>
        <path class="cls-2" d="M200.71,287.4v-.09c.07-15.3,18.95-24.39,33.15-30.22,4.68-1.91,9.49-3.47,14.38-4.66l29.25-7.09c1.85-.45,3.82-.34,5.6.32,7.51,2.75,13.86,10.24,8.84,29.3"/>
        <path class="cls-2" d="M321.76,274.96c8.44,0,15.26,6.82,15.26,15.25,0,8.44-6.82,15.26-15.26,15.26"/>
        <path class="cls-1" d="M317.1,335.99c8.44,0,15.26,6.82,15.26,15.25s-6.82,15.26-15.26,15.26h-12.38"/>
        <line class="cls-1" x1="304.71" y1="335.99" x2="315.76" y2="335.99"/>
        <path class="cls-2" d="M317.1,366.5c8.44,0,15.26,6.84,15.26,15.26,0,8.42-6.82,15.26-15.26,15.26"/>
        <path class="cls-1" d="M304.71,305.47h17.05s4.99,0,4.99,0c8.42,0,15.25,6.84,15.25,15.26,0,8.42-6.82,15.26-15.25,15.26h-9.65s-1.33,0-1.33,0"/>
        <path class="cls-2" d="M173.14,359c-3.37-2.21-5.58-6.03-5.58-10.35v-25.32c0-4.32,2.21-8.14,5.58-10.35,1.96-1.28,4.28-2.03,6.8-2.03h13.97c2.52,0,4.84.76,6.8,2.03,3.37,2.21,5.6,6.03,5.6,10.35v25.32c0,4.32-2.23,8.14-5.6,10.35-1.96,1.3-4.28,2.05-6.8,2.05h-13.97c-2.52,0-4.84-.76-6.8-2.05Z"/>
        <polyline class="cls-2" points="173.14 290.2 82.85 284.95 82.85 384.39 173.14 379.14"/>
      </g>
    </g>
    <path class="cls-3" d="M266.3,101.39h0c6.96,0,12.61,5.65,12.61,12.61v160.95h-25.21V114c0-6.96,5.65-12.61,12.61-12.61Z"/>
    <rect class="cls-4" x="278.9" y="112.44" width="60.32" height="97.18"/>
    <polygon class="cls-4" points="417.14 245.06 316.32 245.06 316.32 147.88 417.14 147.88 384.3 196.47 417.14 245.06"/>
  </g>
</svg>