<?xml version="1.0" encoding="UTF-8"?>
<svg id="Layer_1" xmlns="http://www.w3.org/2000/svg" version="1.1" viewBox="0 0 500 500">
  <!-- Generator: Adobe Illustrator 29.0.1, SVG Export Plug-In . SVG Version: 2.1.0 Build 192)  -->
  <defs>
    <style>
      .st0 {
        fill: #fff;
      }

      .st0, .st1 {
        stroke: #231f20;
        stroke-miterlimit: 10;
        stroke-width: 5px;
      }

      .st2 {
        fill: #d1cee0;
      }

      .st1 {
        fill: none;
        stroke-linecap: round;
      }

      .st3 {
        fill: #231f20;
      }

      .st4 {
        fill: #9ad2db;
      }

      .st5 {
        fill: #27253d;
      }

      .st6 {
        fill: #625d9c;
      }

      .st7 {
        fill: #46416e;
      }
    </style>
  </defs>
  <rect class="st6" x="0" width="500" height="500"/>
  <g>
    <g>
      <g>
        <path class="st7" d="M130,387.4h-41.3s8.6-49.6,30-63.5c9.8-6.4,21.9-10.1,39.1-10.5,5.5,3.7,11.9,5.6,18.3,5.6s13.4-2,19.1-6.1c17.1.4,28.9,4.5,38.7,11,21.6,14.4,30,63.5,30,63.5h-133.9Z"/>
        <path class="st2" d="M222.6,217.2v-.5h1.3c4.7,0,9,1.9,12.1,5,3.1,3.1,5,7.4,5,12.1,0,9.5-7.7,17.2-17.1,17.2h-1.3v-33.8Z"/>
        <path class="st2" d="M222.6,216.7v32.5c0,19-11.4,35.3-27.8,42.4-5.7,2.5-11.9,3.9-18.5,3.9s-13.1-1.4-18.9-4c-5.2-2.3-9.9-5.6-13.9-9.5-8.4-8.4-13.6-19.9-13.6-32.7v-32.5s30.1,4.4,30.1-13.3c0,0,22.7,12.9,62.5,13.3ZM202.7,234.8c0-2.8-2.3-5-5-5s-5,2.3-5,5,2.3,5,5,5,5-2.3,5-5ZM160,234.8c0-2.8-2.3-5-5-5s-5.1,2.3-5.1,5,2.3,5,5.1,5,5-2.3,5-5Z"/>
        <path class="st5" d="M222.6,185.3v31.4c-39.8-.5-62.5-13.3-62.5-13.3,0,17.8-30.1,13.3-30.1,13.3v-31.4c0-11.2,9.1-20.3,20.3-20.3s2.1.1,3.1.3c6.6-10.5,18.3-17.4,31.6-17.4,20.7,0,37.5,16.8,37.5,37.5Z"/>
        <circle class="st3" cx="197.6" cy="234.8" r="5"/>
        <path class="st2" d="M194.8,291.6l.4,21.4c-5.7,4.1-12.4,6.1-19.1,6.1s-12.8-1.9-18.3-5.6l-.4-22h0c5.8,2.6,12.1,4,18.9,4s12.9-1.4,18.5-3.9Z"/>
        <path class="st3" d="M155,229.8c2.8,0,5,2.3,5,5s-2.3,5-5,5-5.1-2.3-5.1-5,2.3-5,5.1-5Z"/>
        <path class="st2" d="M130,249.1v1.8h-1.2c-4.7,0-9-1.9-12.1-5s-5-7.4-5-12.1c0-9.5,7.7-17.2,17.2-17.2h1.2v32.5Z"/>
      </g>
      <g>
        <path class="st1" d="M157.7,313.4c-17.1.4-29.2,4-39.1,10.5-21.4,14-30,63.5-30,63.5h90.2"/>
        <path class="st1" d="M178.9,387.4h85s-8.4-49.2-30-63.5c-9.8-6.5-21.6-10.6-38.7-11"/>
        <path class="st1" d="M222.6,249.1c0,19-11.4,35.3-27.8,42.4-5.7,2.5-11.9,3.9-18.5,3.9s-13.1-1.4-18.9-4c-5.2-2.3-9.9-5.6-13.9-9.5-8.4-8.4-13.6-19.9-13.6-32.7"/>
        <path class="st1" d="M130,216.7h-1.2c-9.5,0-17.2,7.7-17.2,17.2s1.9,9,5,12.1,7.4,5,12.1,5h1.2v-34.3Z"/>
        <path class="st1" d="M222.6,249.1v1.8h1.3c9.5,0,17.1-7.7,17.1-17.2s-1.9-9-5-12.1c-3.1-3.1-7.4-5-12.1-5h-1.3v32.5Z"/>
        <line class="st1" x1="222.6" y1="185.3" x2="222.6" y2="216.7"/>
        <path class="st1" d="M130,185.3v31.4s30.1,4.4,30.1-13.3c0,0,22.7,12.9,62.5,13.3"/>
        <path class="st1" d="M222.6,185.3c0-20.7-16.8-37.5-37.5-37.5s-25,7-31.6,17.4c-1-.2-2.1-.3-3.1-.3-11.2,0-20.3,9.1-20.3,20.3"/>
        <path class="st1" d="M194.8,291.6h0s.4,21.4.4,21.4c-5.7,4.1-12.4,6.1-19.1,6.1s-12.8-1.9-18.3-5.6l-.4-22"/>
        <line class="st1" x1="130" y1="370.1" x2="130" y2="387.4"/>
      </g>
    </g>
    <path class="st1" d="M195.1,260.4c-10.4,10.4-27.2,10.4-37.6,0"/>
  </g>
  <g>
    <g>
      <path class="st2" d="M240.7,212.5c-1.3-2.7-2-5.7-2-8.9s0-.4,0-.5c0-.5,0-1.1,0-1.6,1-10,9.2-17.8,19.3-18.3.3,0,.7,0,1,0h1.5v38.9h0v2.2h-1.5c-3.2,0-6.2-.7-8.9-2-1.6-.8-3.1-1.8-4.5-3-.4-.3-.8-.7-1.1-1s-.7-.7-1-1.1c-1.2-1.4-2.2-2.9-3-4.5Z"/>
      <path class="st5" d="M420.9,387.4h-209.7s10.3-59.3,35.9-76.1c4.2-2.7,8.6-5,13.6-6.9,8-3,17.2-4.9,28.3-5.5,1.6,0,3.2-.1,4.9-.2,6.6,4.5,14.3,6.7,22,6.7s16-2.4,22.8-7.3h0c13.2.3,23.8,2.4,32.8,6,4.9,2,9.4,4.3,13.5,7.1,25.9,17.2,35.9,76.1,35.9,76.1Z"/>
      <path class="st2" d="M387.5,189.1c3.7,3.7,6,8.8,6,14.5,0,11.3-9.2,20.5-20.5,20.5h-1.5v-2.2c0,.2,0,.5,0,.7v-39.6h1.5c5.7,0,10.8,2.3,14.5,6Z"/>
      <path class="st4" d="M371.5,221.9v2.2h0v-1.5c0-.2,0-.5,0-.7Z"/>
      <path class="st5" d="M371.5,155.4v27.6h0v39.6c0,7.6-1.7,14.8-4.6,21.3h-.3c0-.1-12.6-9.3-12.6-9.3l-12.7,9.2-12.7-9.2-12.6,9.2-12.7-9.2-12.7,9.2-12.6-9.2-12.7,9.2h-.3c-2.8-6.4-4.4-13.6-4.5-21.2v-.7h0v-66.5c0-3.4.5-6.8,1.5-10,5.8-18.9,27.7-32.9,53.9-32.9s48.1,14,53.9,32.9c1,3.2,1.5,6.5,1.5,10Z"/>
      <path class="st2" d="M366.7,243.8h.3c-2.8,6.6-6.8,12.4-11.7,17.3-4.9,4.9-10.6,8.8-17,11.6l.4,25.5c-6.8,4.9-14.8,7.3-22.8,7.3s-15.3-2.2-22-6.7c-1.7,0-3.3,0-4.9.2,1.6,0,3.2-.1,4.9-.2l-.4-26.2c-12.6-5.6-22.8-16-28.3-28.7h.3c0-.1,25.3-.1,25.3-.1h75.9Z"/>
      <polygon class="st2" points="366.7 243.8 341.4 243.8 354 234.7 366.7 243.8"/>
      <polygon class="st2" points="341.4 243.8 316.1 243.8 328.7 234.7 341.4 243.8"/>
      <polygon class="st2" points="316.1 243.8 290.8 243.8 303.4 234.7 316.1 243.8"/>
      <polygon class="st2" points="290.8 243.8 265.5 243.8 278.1 234.7 290.8 243.8"/>
      <path class="st2" d="M260.7,221.9v.7c0-.2,0-.5,0-.7h0s0,0,0,0Z"/>
      <path class="st4" d="M243.7,217c.3.4.7.8,1,1.1-.4-.4-.7-.7-1-1.1Z"/>
      <path class="st4" d="M238.7,203.6c0,3.2.7,6.2,2,8.9-1.3-2.7-2-5.7-2-8.9s0-.4,0-.5c0,.2,0,.4,0,.5Z"/>
    </g>
    <g>
      <path class="st1" d="M260.7,221.9c0,.2,0,.5,0,.7,0,7.6,1.7,14.8,4.5,21.3,5.5,12.8,15.6,23.1,28.3,28.7l.4,26.2c-1.7,0-3.3,0-4.9.2-11.1.6-20.3,2.5-28.3,5.5v-.2"/>
      <polyline class="st1" points="260.7 224.1 260.7 222.6 260.7 221.9 260.7 221.9"/>
      <path class="st1" d="M338.7,298.3l-.4-25.5c6.4-2.8,12.1-6.8,17-11.6,4.9-4.9,8.9-10.7,11.7-17.1,2.8-6.6,4.5-13.8,4.6-21.3,0-.2,0-.5,0-.7v2.2"/>
      <path class="st1" d="M371.5,304.3c4.9,2,9.4,4.3,13.5,7.1,25.9,17.2,35.9,76.1,35.9,76.1h-209.7s10.3-59.3,35.9-76.1c4.2-2.7,8.6-5,13.6-6.9,8-3,17.2-4.9,28.3-5.5,1.6,0,3.2-.1,4.9-.2,6.6,4.5,14.3,6.7,22,6.7s16-2.4,22.8-7.3h0c13.2.3,23.8,2.4,32.8,6Z"/>
      <path class="st1" d="M371.5,222.6v-39.6h1.5c5.7,0,10.8,2.3,14.5,6s6,8.8,6,14.5c0,11.3-9.2,20.5-20.5,20.5h-1.5"/>
      <path class="st1" d="M238.8,201.4c1-10,9.2-17.8,19.3-18.3"/>
      <path class="st1" d="M244.7,218.1c-.4-.4-.7-.7-1-1.1"/>
      <path class="st1" d="M260.7,224.1h-1.5c-3.2,0-6.2-.7-8.9-2"/>
      <path class="st1" d="M371.5,183v-27.6c0-3.4-.5-6.8-1.5-10-5.8-18.9-27.7-32.9-53.9-32.9s-48.1,14-53.9,32.9c-1,3.2-1.5,6.5-1.5,10v27.6"/>
      <path class="st1" d="M258.1,183.1c-11,.5-18.4,8.3-19.3,18.3,0,.5,0,1.1,0,1.6,0,.2,0,.4,0,.5,0,3.2.7,6.2,2,8.9.8,1.6,1.8,3.1,3,4.5.3.4.7.8,1,1.1s.7.7,1.1,1c1.4,1.2,2.9,2.2,4.5,3,2.7,1.3,5.7,2,8.9,2h1.5v-2.2h0v-38.9"/>
      <polyline class="st1" points="290.8 243.8 278.1 234.7 265.5 243.8"/>
      <polyline class="st1" points="316.1 243.8 303.4 234.7 290.8 243.8"/>
      <polyline class="st1" points="341.4 243.8 328.7 234.7 316.1 243.8"/>
      <polyline class="st1" points="366.7 243.8 354 234.7 341.4 243.8"/>
    </g>
  </g>
  <g>
    <path class="st0" d="M115,199.1l-19.8-14.8h-8.7c-4.1,0-7.4-3.3-7.4-7.4v-49.2c0-4.1,3.3-7.4,7.4-7.4h72.1c4.1,0,7.4,3.3,7.4,7.4v49.2c0,4.1-3.3,7.4-7.4,7.4h-45.4l1.9,14.8Z"/>
    <g>
      <rect class="st7" x="104.5" y="148.7" width="7" height="7"/>
      <rect class="st7" x="119" y="148.7" width="7" height="7"/>
      <rect class="st7" x="133.4" y="148.7" width="7" height="7"/>
    </g>
  </g>
</svg>