<?xml version="1.0" encoding="UTF-8"?>
<svg id="Layer_1" xmlns="http://www.w3.org/2000/svg" version="1.1" viewBox="0 0 500 500">
  <!-- Generator: Adobe Illustrator 29.0.1, SVG Export Plug-In . SVG Version: 2.1.0 Build 192)  -->
  <defs>
    <style>
      .st0 {
        fill: #d1cee0;
      }

      .st0, .st1, .st2, .st3 {
        stroke: #231f20;
        stroke-miterlimit: 10;
      }

      .st0, .st2, .st3 {
        stroke-width: 5px;
      }

      .st1 {
        fill: #625d9c;
      }

      .st2 {
        fill: #46416e;
      }

      .st3 {
        fill: #27253d;
      }
    </style>
  </defs>
  <rect class="st1" x=".3" y="-.4" width="500" height="500"/>
  <path class="st0" d="M255.1,202.2l-11.6-45.7c-2.6-10.1-3.7-20.6-3.2-31s4.7-30.2,18.9-23.8l36.7,107.8c2.6,7.6,2.9,15.8.8,23.6l-21.8,83.3c-.9,3.4-.7,6.9.5,10.2l18.9,52.3-60.5,20.7-8-30.3s-35.8-26.3-18.3-71.7c12.7-33,24.2-60,29.5-72.4s7.2-13.2,12.5-18.4c1.8-1.7,3.7-3.3,5.6-4.6,5-3.3,10.2-4.1,13.7,2.2l-20.7,89.2"/>
  <rect class="st2" x="311.5" y="181.6" width="34.4" height="135.9" rx="7.3" ry="7.3"/>
  <rect class="st3" x="355.5" y="181.6" width="34.4" height="135.9" rx="7.3" ry="7.3"/>
  <rect class="st2" x="399.5" y="181.6" width="34.4" height="135.9" rx="7.3" ry="7.3"/>
  <rect class="st2" x="165.6" y="181.6" width="34.4" height="135.9" rx="7.3" ry="7.3" transform="translate(71.6 -39.1) rotate(15.2)"/>
  <rect class="st3" x="120.1" y="181.6" width="34.4" height="135.9" rx="7.3" ry="7.3" transform="translate(70 -27.2) rotate(15.2)"/>
  <rect class="st2" x="74.3" y="181.6" width="34.4" height="135.9" rx="7.3" ry="7.3" transform="translate(68.4 -15.2) rotate(15.2)"/>
</svg>