<?xml version="1.0" encoding="UTF-8"?>
<svg id="Layer_1" xmlns="http://www.w3.org/2000/svg" version="1.1" viewBox="0 0 500 500">
  <!-- Generator: Adobe Illustrator 29.0.1, SVG Export Plug-In . SVG Version: 2.1.0 Build 192)  -->
  <defs>
    <style>
      .st0 {
        fill: #03463f;
      }

      .st1 {
        fill: #0c8b7c;
      }

      .st1, .st2, .st3 {
        stroke-miterlimit: 10;
        stroke-width: 5px;
      }

      .st1, .st3 {
        stroke: #000;
      }

      .st2 {
        fill: none;
        stroke: #231f20;
        stroke-linecap: round;
      }

      .st4 {
        fill: #231f20;
      }

      .st5 {
        fill: #00aa9a;
      }

      .st6 {
        fill: #00695d;
      }

      .st3, .st7 {
        fill: #9dd7d4;
      }
    </style>
  </defs>
  <rect class="st5" x="0" width="500" height="500"/>
  <g>
    <g>
      <g>
        <path class="st6" d="M182.2,415.4h-60.5s12.7-72.6,44-93.1c14.4-9.4,32.2-14.8,57.2-15.3,8.1,5.5,17.5,8.2,26.9,8.2s19.6-3,28-9c25.1.5,42.4,6.6,56.7,16.1,31.7,21.1,44,93.1,44,93.1h-196.2Z"/>
        <path class="st0" d="M317.8,153l14.1,136.1h-54.5l-.2-14.2c24-10.5,40.7-34.4,40.7-62.2v-59.7Z"/>
        <path class="st7" d="M277.2,274.9c-8.3,3.6-17.5,5.7-27.2,5.7s-19.2-2.1-27.7-5.9c-7.6-3.4-14.5-8.2-20.3-14-12.3-12.3-19.9-29.2-19.9-48v-53.1h23.1l8.4-13.1,8.6,13.1h95.5v53.1c0,27.8-16.7,51.7-40.7,62.2ZM288.7,191.7c0-4.1-3.3-7.4-7.4-7.4s-7.4,3.3-7.4,7.4,3.3,7.4,7.4,7.4,7.4-3.3,7.4-7.4ZM226.2,191.7c0-4.1-3.3-7.4-7.4-7.4s-7.4,3.3-7.4,7.4,3.3,7.4,7.4,7.4,7.4-3.3,7.4-7.4Z"/>
        <path class="st0" d="M317.8,159.6h-95.5l-8.6-13.1-8.4,13.1h-23.1c0-44.1,30.4-74.5,67.8-74.5s67.8,30.4,67.8,74.5Z"/>
        <path class="st4" d="M281.3,184.3c4.1,0,7.4,3.3,7.4,7.4s-3.3,7.4-7.4,7.4-7.4-3.3-7.4-7.4,3.3-7.4,7.4-7.4Z"/>
        <path class="st7" d="M277.4,289.1l.3,17c-8.4,6-18.1,9-28,9s-18.8-2.7-26.9-8.2l-.3-17.8-.2-14.4h0c8.5,3.7,17.8,5.9,27.7,5.9s18.8-2,27.2-5.7l.2,14.2Z"/>
        <circle class="st4" cx="218.8" cy="191.7" r="7.4"/>
        <path class="st0" d="M222.3,274.7l.2,14.4h-54.4l14-136.1v59.7c0,18.7,7.6,35.7,19.9,48,5.8,5.8,12.7,10.6,20.3,14h0Z"/>
      </g>
      <g>
        <path class="st2" d="M222.8,306.9c-25.1.5-42.8,5.9-57.2,15.3-31.3,20.5-44,93.1-44,93.1h132.2"/>
        <path class="st2" d="M253.8,415.4h124.6s-12.3-72-44-93.1c-14.3-9.5-31.6-15.6-56.7-16.1"/>
        <path class="st2" d="M317.8,153v59.7c0,27.8-16.7,51.7-40.7,62.2-8.3,3.6-17.5,5.7-27.2,5.7s-19.2-2.1-27.7-5.9c-7.6-3.4-14.5-8.2-20.3-14-12.3-12.3-19.9-29.2-19.9-48v-59.7"/>
        <path class="st2" d="M277.2,274.8h0s.2,14.3.2,14.3l.3,17c-8.4,6-18.1,9-28,9s-18.8-2.7-26.9-8.2l-.3-17.8-.2-14.4"/>
        <line class="st2" x1="182.2" y1="389.9" x2="182.2" y2="415.4"/>
        <path class="st2" d="M182.2,159.6h23.1l8.4-13.1,8.6,13.1h95.5c0-44.1-30.4-74.5-67.8-74.5s-67.8,30.4-67.8,74.5Z"/>
        <polyline class="st2" points="317.8 153 331.9 289.1 277.7 289.1"/>
        <polyline class="st2" points="182.2 153 168.2 289.1 222.4 289.1"/>
      </g>
    </g>
    <path class="st2" d="M274.8,241c-13.7,13.7-35.9,13.7-49.6,0"/>
  </g>
  <g>
    <polygon class="st3" points="269 444.8 264.6 426.8 247.4 433.8 273.5 382.7 295.1 393.8 269 444.8"/>
    <polygon class="st3" points="301.3 444.8 305.7 426.8 322.9 433.8 296.8 382.7 275.2 393.8 301.3 444.8"/>
    <path class="st3" d="M291.9,323.2l4.2,4.2c1.8,1.8,4.2,2.8,6.7,2.8h5.9c5.3,0,9.5,4.3,9.5,9.5v5.9c0,2.5,1,5,2.8,6.7l4.2,4.2c3.7,3.7,3.7,9.8,0,13.5l-4.2,4.2c-1.8,1.8-2.8,4.2-2.8,6.7v5.9c0,5.3-4.3,9.5-9.5,9.5h-5.9c-2.5,0-5,1-6.7,2.8l-4.2,4.2c-3.7,3.7-9.8,3.7-13.5,0l-4.2-4.2c-1.8-1.8-4.2-2.8-6.7-2.8h-5.9c-5.3,0-9.5-4.3-9.5-9.5v-5.9c0-2.5-1-5-2.8-6.7l-4.2-4.2c-3.7-3.7-3.7-9.8,0-13.5l4.2-4.2c1.8-1.8,2.8-4.2,2.8-6.7v-5.9c0-5.3,4.3-9.5,9.5-9.5h5.9c2.5,0,5-1,6.7-2.8l4.2-4.2c3.7-3.7,9.8-3.7,13.5,0Z"/>
    <circle class="st1" cx="285.2" cy="363.3" r="23.4"/>
  </g>
</svg>