<?xml version="1.0" encoding="UTF-8"?>
<svg id="Layer_1" xmlns="http://www.w3.org/2000/svg" version="1.1" viewBox="0 0 500 500">
  <!-- Generator: Adobe Illustrator 29.0.1, SVG Export Plug-In . SVG Version: 2.1.0 Build 192)  -->
  <defs>
    <style>
      .st0, .st1, .st2, .st3, .st4, .st5, .st6, .st7 {
        stroke-miterlimit: 10;
        stroke-width: 5px;
      }

      .st0, .st4 {
        fill: #056876;
      }

      .st0, .st7 {
        stroke: #000;
      }

      .st1 {
        fill: #fff;
      }

      .st1, .st2, .st3, .st4, .st5, .st6 {
        stroke: #231f20;
      }

      .st2 {
        fill: none;
        stroke-linecap: round;
      }

      .st3, .st7 {
        fill: #9ad2db;
      }

      .st5 {
        fill: #027787;
      }

      .st8 {
        fill: #0095a8;
      }

      .st6 {
        fill: #e9ebed;
      }
    </style>
  </defs>
  <rect class="st8" x="0" width="500" height="500"/>
  <rect class="st1" x="86.9" y="153.3" width="326.2" height="193.4" rx="22.8" ry="22.8"/>
  <line class="st2" x1="241.3" y1="214.5" x2="374" y2="214.5"/>
  <line class="st2" x1="241.3" y1="247.3" x2="323.5" y2="247.3"/>
  <line class="st2" x1="241.3" y1="280" x2="308.7" y2="280"/>
  <g>
    <polygon class="st7" points="358.4 443.4 351.3 414.3 323.5 425.5 365.7 343 400.5 360.8 358.4 443.4"/>
    <polygon class="st7" points="410.6 443.4 417.7 414.3 445.5 425.5 403.3 343 368.4 360.8 410.6 443.4"/>
    <path class="st7" d="M395.4,246.6l6.8,6.8c2.9,2.9,6.8,4.5,10.9,4.5h9.6c8.5,0,15.4,6.9,15.4,15.4v9.6c0,4.1,1.6,8,4.5,10.9l6.8,6.8c6,6,6,15.8,0,21.8l-6.8,6.8c-2.9,2.9-4.5,6.8-4.5,10.9v9.6c0,8.5-6.9,15.4-15.4,15.4h-9.6c-4.1,0-8,1.6-10.9,4.5l-6.8,6.8c-6,6-15.8,6-21.8,0l-6.8-6.8c-2.9-2.9-6.8-4.5-10.9-4.5h-9.6c-8.5,0-15.4-6.9-15.4-15.4v-9.6c0-4.1-1.6-8-4.5-10.9l-6.8-6.8c-6-6-6-15.8,0-21.8l6.8-6.8c2.9-2.9,4.5-6.8,4.5-10.9v-9.6c0-8.5,6.9-15.4,15.4-15.4h9.6c4.1,0,8-1.6,10.9-4.5l6.8-6.8c6-6,15.8-6,21.8,0Z"/>
    <circle class="st0" cx="384.5" cy="311.5" r="37.8"/>
  </g>
  <g>
    <rect class="st3" x="113.9" y="182.2" width="101.1" height="128.9" rx="12.9" ry="12.9"/>
    <circle class="st6" cx="164.4" cy="230.4" r="25.7"/>
    <path class="st4" d="M164.4,256.1h0c19.4,0,35.1,15.7,35.1,35.1v19.6h-70.3v-19.6c0-19.4,15.7-35.1,35.1-35.1Z"/>
  </g>
  <path class="st5" d="M250.5,92.7h0c12.3,0,22.4,10,22.4,22.4v48h-44.7v-48c0-12.3,10-22.4,22.4-22.4Z"/>
</svg>