<?xml version="1.0" encoding="UTF-8"?>
<svg id="Layer_1" data-name="Layer 1" xmlns="http://www.w3.org/2000/svg" version="1.1" viewBox="0 0 500 500">
  <defs>
    <style>
      .cls-1, .cls-2 {
        stroke-width: 5px;
      }

      .cls-1, .cls-2, .cls-3, .cls-4 {
        fill: none;
        stroke: #231f20;
        stroke-miterlimit: 10;
      }

      .cls-5 {
        fill: #027787;
      }

      .cls-5, .cls-6, .cls-7, .cls-8, .cls-9, .cls-10 {
        stroke-width: 0px;
      }

      .cls-2, .cls-3 {
        stroke-linecap: round;
      }

      .cls-6 {
        fill: #b5e0de;
      }

      .cls-3 {
        stroke-width: 4.3px;
      }

      .cls-7 {
        fill: #009dac;
      }

      .cls-4 {
        stroke-width: 2.2px;
      }

      .cls-8 {
        fill: #34a9ba;
      }

      .cls-9 {
        fill: #231f20;
      }

      .cls-10 {
        fill: #81c9d2;
      }
    </style>
  </defs>
  <rect class="cls-7" x=".5" y="-.1" width="500" height="500"/>
  <g>
    <g>
      <path class="cls-5" d="M279.7,170.3c-3.6,0-6.9-1.4-9.4-3.7v-.3c-3.7,0-6.8-3-6.8-6.8,1.2-10.3-6-5-12.1-1.9h0c-3.1,1.1-10.1-1.8-8.3-8.1.6-.1,1.3-.3,1.9-.5,5.6-2.2,8.5-8.5,6.3-14.1v-.5c2-.5,4.1-2.2,4.1-6.5,0-6.7,6.4-7.4,8.1-7.4h.4c10-.5,18.7,6.6,20.3,16.5h.3c4.9,0,8.9,4,8.9,8.9s-.5,3.4-1.4,4.8c.9,1.8,1.4,3.9,1.4,6.1s-.5,4.4-1.5,6.2c-2.3,4.4-6.9,7.5-12.2,7.5v-.2Z"/>
      <path class="cls-10" d="M280.4,180.2c6.5,5,4.7,20.8,4.7,20.8h-7.3s2.2-8.5-8.9-11.2c-11.1-2.8-11.8-11.6-11.8-11.6h0c-2.3-.2-4.6-1.1-6.5-2.7h-.8c-2.5,2.8-6.2,4.7-10.3,4.7-6.1,0-11.3-4-13.1-9.5-.4-1.3-.7-2.7-.7-4.2s0-1.1.1-1.7v-.3c1.6-.7,2.9-2.2,4.4-3.4,6.5-5.3,10,.9,18.7-2.3.8-.3,1.7-.7,2.6-1.2,6-3.1,13.3-8.4,12.1,1.9,0,3.7,3,6.8,6.8,6.8v.3c2.5,2.3,5.8,3.7,9.4,3.7,5.3,0,9.9-3,12.2-7.5h.2c-.3,7.8-5,14.4-11.7,17.4h-.1Z"/>
      <path class="cls-8" d="M226.4,123.4h0c1.3-3.2,4.4-6.1,8.6-7.4,5.1-1.7,10.3-.7,13.1,2.2,1.6-2.4,4.3-4,7.4-4s6.6,2.5,8,5.9v.3c-1.7,0-8,.7-8,7.4s-2.1,6-4.3,6.5v.5c2.3,5.6-.5,12-6.2,14.1-.6.2-1.3.4-1.9.5-1.8,6.3,5.2,9.2,8.3,8h0c-.9.5-1.8,1-2.6,1.3-8.7,3.3-12.1-2.9-18.7,2.3-1.5,1.2-2.8,2.7-4.5,3.4v2c0,1.5.2,2.9.7,4.2-2.1.8-4.3,1.3-6.7,1.3-10,0-18.1-8.1-18.1-18.1s1.1-7,2.9-9.8v-1.2c0-4.4,2.9-8.2,6.9-9.4,0-.5-.1-1-.1-1.5,0-5.5,4.4-9.9,9.9-9.9s3.7.5,5.2,1.5h.1Z"/>
    </g>
    <g>
      <path class="cls-3" d="M226.4,123.4c1.3-3.2,4.4-6,8.6-7.4,5.1-1.7,10.3-.7,13.1,2.2"/>
      <path class="cls-3" d="M263.9,120.3c10-.5,18.7,6.6,20.3,16.5"/>
      <path class="cls-3" d="M292.1,162.8c-.3,7.8-5,14.4-11.7,17.4-.7.3-1.5.6-2.3.9"/>
      <path class="cls-3" d="M266.1,174.4c-2.3,2.7-5.7,4-9,3.7-2.3-.2-4.6-1-6.5-2.7"/>
      <path class="cls-3" d="M281.9,137.2c.8-.2,1.6-.4,2.4-.4h.3c4.9,0,8.9,4,8.9,8.9s-.5,3.4-1.4,4.8c-.5.7-1.1,1.4-1.7,2"/>
      <path class="cls-3" d="M277.1,159.4c0,3.7-3,6.8-6.8,6.8s-6.8-3-6.8-6.8"/>
      <path class="cls-3" d="M204.6,144.1h0v-1.2c0-4.4,2.9-8.2,6.9-9.4"/>
      <path class="cls-3" d="M212.8,137.2c-.7-1.1-1.2-2.4-1.4-3.8,0-.5-.1-1-.1-1.5,0-5.5,4.4-9.9,9.9-9.9s3.7.5,5.2,1.5c.6.4,1.1.8,1.6,1.3"/>
      <path class="cls-3" d="M226.4,170.6c-2.1.8-4.3,1.3-6.7,1.3-10,0-18.1-8.1-18.1-18.1s1.1-7,2.9-9.8c1.1-1.7,2.4-3.1,4-4.4"/>
      <path class="cls-3" d="M251.6,172.8c-.5,1-1.1,1.8-1.8,2.7-2.5,2.9-6.2,4.7-10.3,4.7-6.1,0-11.3-4-13.1-9.5-.4-1.3-.7-2.7-.7-4.2s0-1.1.1-1.7"/>
      <path class="cls-3" d="M292,150.5c.9,1.8,1.4,3.9,1.4,6.1s-.5,4.4-1.5,6.2c-2.3,4.4-6.9,7.5-12.2,7.5s-6.9-1.4-9.4-3.7"/>
      <path class="cls-3" d="M280.4,180.2c6.5,5,4.7,20.8,4.7,20.8h-7.3s2.2-8.5-8.9-11.2c-11.1-2.8-11.8-11.6-11.8-11.6"/>
      <path class="cls-3" d="M228.2,124.8c2.9,2.8,3,7.5.2,10.5"/>
      <path class="cls-3" d="M251.3,134.8c2.2,5.6-.7,12-6.3,14.1-.6.2-1.3.4-1.9.5-4.3.8-8.7-1-11.1-4.6"/>
      <path class="cls-3" d="M263.9,120.3h-.4c-1.7,0-8,.7-8.1,7.4,0,4.2-2.1,6-4.3,6.5-1.4.3-2.9,0-3.8-.5"/>
      <path class="cls-3" d="M251.4,157.5c-3.1,1.2-10.1-1.7-8.3-8"/>
      <path class="cls-3" d="M263.5,120c-1.4-3.4-4.2-5.9-8-5.9s-5.9,1.6-7.4,4c-.4.7-.8,1.4-1,2.1"/>
      <path class="cls-3" d="M271.4,135.8c1.3-.6,2.8-.8,4.3-.5,3.5.8,5.8,4.3,5,7.8-.3,1.1-.6,1.8-1.5,3"/>
      <path class="cls-3" d="M263.6,159.4c1.2-10.3-6-5-12.1-1.9-.9.5-1.8.9-2.6,1.2-8.7,3.3-12.1-2.9-18.7,2.3-1.5,1.2-2.8,2.7-4.5,3.4-.7.3-1.4.5-2.2.5-4.3,0-7.7-3.5-7.7-7.7"/>
    </g>
  </g>
  <g>
    <g>
      <path class="cls-6" d="M354.9,261.1c44.4,0,80.4,36,80.4,80.4s-36,80.4-80.4,80.4-80.4-36-80.4-80.4,36-80.4,80.4-80.4ZM410.2,351.6v-20.2c0-3.3-2.7-6-5.9-6h-2.4c-3.3,0-5.9,2.7-5.9,6v-7.5c0-3.3-2.7-6-5.9-6h-2.4c-3.3,0-6,2.7-6,6v11.8h-53.6v-11.8c0-3.3-2.7-6-5.9-6h-2.4c-3.3,0-5.9,2.7-5.9,6v7.5c0-3.3-2.7-6-5.9-6h-2.4c-3.3,0-5.9,2.7-5.9,6v20.2c0,3.3,2.7,6,5.9,6h2.4c3.3,0,5.9-2.7,5.9-6v7.5c0,3.3,2.7,6,5.9,6h2.4c3.3,0,5.9-2.7,5.9-6v-11.8h53.6v11.8c0,3.3,2.7,6,6,6h2.4c3.3,0,5.9-2.7,5.9-6v-7.5c0,3.3,2.7,6,5.9,6h2.4c3.3,0,5.9-2.7,5.9-6Z"/>
      <path class="cls-10" d="M410.2,331.4v20.2c0,3.3-2.7,6-5.9,6h-2.4c-3.3,0-5.9-2.7-5.9-6v-20.2c0-3.3,2.7-6,5.9-6h2.4c3.3,0,5.9,2.7,5.9,6Z"/>
      <path class="cls-5" d="M395.9,351.6v7.5c0,3.3-2.7,6-5.9,6h-2.4c-3.3,0-6-2.7-6-6v-35.3c0-3.3,2.7-6,6-6h2.4c3.3,0,5.9,2.7,5.9,6v27.7h0Z"/>
      <rect class="cls-6" x="328" y="335.7" width="53.6" height="11.6"/>
      <path class="cls-5" d="M328,347.3v11.8c0,3.3-2.7,6-5.9,6h-2.4c-3.3,0-5.9-2.7-5.9-6v-35.3c0-3.3,2.7-6,5.9-6h2.4c3.3,0,5.9,2.7,5.9,6v23.4h0Z"/>
      <path class="cls-10" d="M313.8,331.4v20.2c0,3.3-2.7,6-5.9,6h-2.4c-3.3,0-5.9-2.7-5.9-6v-20.2c0-3.3,2.7-6,5.9-6h2.4c3.3,0,5.9,2.7,5.9,6Z"/>
      <circle class="cls-6" cx="250.5" cy="158.3" r="80.4"/>
      <path class="cls-6" d="M146.2,261.1c44.4,0,80.4,36,80.4,80.4s-36,80.4-80.4,80.4-80.4-36-80.4-80.4,36-80.4,80.4-80.4h0ZM186.1,347.5c1.4-6.7,1.5-13.4-.4-20.1-1.4-4.9-3.8-9.2-8.1-12.3-3.8-2.7-8.2-3.7-12.8-3.7h-4.6c.4-.2.6-.3.8-.5,5-5,7.1-11.2,7-18.2,0-1.2-.7-1.7-1.9-1.6-.3,0-.6.1-.9.1-9.7,1.5-16.2,6.7-19.3,16.1,0,.2-.2.4-.2.6-.9-1.5-1.7-3-2.7-4.5-1.5-2.1-3.5-3.8-5.9-4.8-1-.4-1.8,0-2.2.8-.3.8,0,1.6.9,2,2.7,1.1,4.5,3.1,5.8,5.5,1.2,2.2,2.1,4.6,2.6,7.3-.7-.2-1.2-.3-1.8-.4-4.8-1.2-9.7-2.4-14.8-2.5-8,0-14.4,2.9-18.6,9.9-2.8,4.6-3.8,9.8-3.9,15.1-.3,9.7,2,18.8,6.8,27.1,4,6.9,9.3,12.4,16.7,15.8,2.5,1.1,5,1.3,7.6.4,1.9-.7,3.8-1.3,5.7-2.1,2.5-1.1,5-1.1,7.6-.2,2.1.7,4.2,1.5,6.2,2.3,2.8,1,5.4.8,8.1-.4,4.9-2.1,8.8-5.4,12.1-9.5,5.3-6.5,8.5-14,10.2-22.2h0Z"/>
      <path class="cls-9" d="M185.8,327.4c1.9,6.7,1.7,13.4.4,20.1-1.7,8.2-4.9,15.7-10.2,22.2-3.3,4.1-7.2,7.4-12.1,9.5-2.7,1.2-5.4,1.4-8.1.4-2.1-.8-4.1-1.5-6.2-2.3-2.5-.9-5.1-.9-7.6.2-1.8.8-3.8,1.5-5.7,2.1-2.6.9-5.1.7-7.6-.4-7.3-3.4-12.7-8.9-16.7-15.8-4.8-8.4-7.1-17.5-6.8-27.1.2-5.3,1.1-10.5,3.9-15.1,4.2-7,10.6-10,18.6-9.9,5.1,0,9.9,1.2,14.8,2.5.6.1,1.1.3,1.8.4-.5-2.7-1.3-5.1-2.6-7.3-1.4-2.4-3.2-4.4-5.8-5.5-.9-.4-1.3-1.2-.9-2,.3-.8,1.2-1.2,2.2-.8,2.5,1,4.4,2.6,5.9,4.8,1,1.4,1.8,3,2.7,4.5,0-.1.2-.3.2-.6,3.1-9.4,9.6-14.6,19.3-16.1.3,0,.6-.1.9-.1,1.2-.1,1.9.5,1.9,1.6,0,7-2,13.2-7,18.2s-.4.3-.8.5h4.6c4.6,0,9,1,12.8,3.7,4.3,3,6.7,7.4,8.1,12.3h0ZM183.7,343.7c.7-5.5.5-10.9-1.2-16.3-2.5-8-8.1-12.4-16.5-12.9-4.6-.3-9.1.5-13.4,1.9-4.3,1.4-8.5,1.4-12.8,0-4.6-1.5-9.3-2.3-14.2-1.9-6.5.6-11.5,3.5-14.5,9.5-2.2,4.3-2.9,9-2.9,15.6.2,8.7,3.2,18.3,9.4,26.8,3.3,4.5,7.3,8.1,12.5,10.2,1.8.8,3.7.8,5.5.1,1.8-.7,3.5-1.3,5.3-2,3.4-1.4,6.8-1.4,10.2,0,1.8.7,3.5,1.4,5.3,2,2.1.8,4.1.7,6.1-.2,5.4-2.6,9.7-6.4,13.1-11.3,4.5-6.5,7.1-13.7,8.1-21.5h0ZM161.4,305.8c2.3-3.4,3.4-7.2,3.6-11.4-9.4.9-17.6,10.3-17.2,19.7,5.6-1.1,10.4-3.5,13.7-8.3h-.1Z"/>
      <path class="cls-5" d="M182.5,327.4c1.7,5.3,1.9,10.8,1.2,16.3-1,7.8-3.6,15-8.1,21.5-3.4,4.9-7.7,8.8-13.1,11.3-2,1-4.1,1-6.1.2-1.8-.7-3.5-1.4-5.3-2-3.4-1.3-6.8-1.3-10.2,0s-3.5,1.4-5.3,2c-1.9.7-3.7.7-5.5-.1-5.2-2.2-9.2-5.8-12.5-10.2-6.2-8.5-9.2-18.1-9.4-26.8,0-6.6.8-11.2,2.9-15.6,3-6,7.9-8.9,14.5-9.5,4.9-.4,9.6.4,14.2,1.9,4.3,1.4,8.5,1.4,12.8,0,4.4-1.4,8.8-2.1,13.4-1.9,8.4.5,14,4.9,16.5,12.9h0Z"/>
      <path class="cls-10" d="M165,294.4c-.2,4.1-1.3,8-3.6,11.4-3.3,4.8-8,7.2-13.7,8.3-.4-9.4,7.8-18.8,17.2-19.7h.1Z"/>
    </g>
    <g>
      <circle class="cls-1" cx="250.5" cy="158.3" r="80.4"/>
      <circle class="cls-1" cx="146.2" cy="341.5" r="80.4"/>
      <circle class="cls-1" cx="354.9" cy="341.5" r="80.4"/>
      <path class="cls-1" d="M313.8,331.4v-7.5c0-3.3,2.7-6,5.9-6h2.4c3.3,0,5.9,2.7,5.9,6v11.8"/>
      <path class="cls-1" d="M328,347.3v11.8c0,3.3-2.7,6-5.9,6h-2.4c-3.3,0-5.9-2.7-5.9-6v-7.5"/>
      <path class="cls-1" d="M313.8,351.6c0,3.3-2.7,6-5.9,6h-2.4c-3.3,0-5.9-2.7-5.9-6v-20.2c0-3.3,2.7-6,5.9-6h2.4c3.3,0,5.9,2.7,5.9,6v20.2Z"/>
      <path class="cls-1" d="M395.9,351.6v7.5c0,3.3-2.7,6-5.9,6h-2.4c-3.3,0-6-2.7-6-6v-11.8"/>
      <path class="cls-1" d="M381.6,335.7v-11.8c0-3.3,2.7-6,6-6h2.4c3.3,0,5.9,2.7,5.9,6v7.5"/>
      <path class="cls-1" d="M395.9,331.4c0-3.3,2.7-6,5.9-6h2.4c3.3,0,5.9,2.7,5.9,6v20.2c0,3.3-2.7,6-5.9,6h-2.4c-3.3,0-5.9-2.7-5.9-6v-20.2Z"/>
      <rect class="cls-1" x="328" y="335.7" width="53.6" height="11.6"/>
      <path class="cls-4" d="M144.2,314.3c-.5-2.7-1.3-5.1-2.6-7.3-1.4-2.4-3.2-4.4-5.8-5.5-.9-.4-1.3-1.2-.9-2,.3-.8,1.2-1.2,2.2-.8,2.5,1,4.4,2.6,5.9,4.8,1,1.4,1.8,3,2.7,4.5,0-.1.2-.3.2-.6,3.1-9.4,9.6-14.6,19.3-16.1.3,0,.6-.1.9-.1,1.2-.1,1.9.5,1.9,1.6,0,7-2,13.2-7,18.2s-.4.3-.8.5h4.6c4.6,0,9,1,12.8,3.7,4.3,3,6.7,7.4,8.1,12.3,1.9,6.7,1.7,13.4.4,20.1-1.7,8.2-4.9,15.7-10.2,22.2-3.3,4.1-7.2,7.4-12.1,9.5-2.7,1.2-5.4,1.4-8.1.4-2.1-.8-4.1-1.5-6.2-2.3-2.5-.9-5.1-.9-7.6.2-1.8.8-3.8,1.5-5.7,2.1-2.6.9-5.1.7-7.6-.4-7.3-3.4-12.7-8.9-16.7-15.8-4.8-8.4-7.1-17.5-6.8-27.1.2-5.3,1.1-10.5,3.9-15.1,4.2-7,10.6-10,18.6-9.9,5.1,0,9.9,1.2,14.8,2.5.6.1,1.1.3,1.8.4h0Z"/>
      <path class="cls-4" d="M108.2,339.6c.2,8.7,3.2,18.3,9.4,26.8,3.3,4.5,7.3,8.1,12.5,10.2,1.8.8,3.7.8,5.5.1,1.8-.7,3.5-1.3,5.3-2,3.4-1.4,6.8-1.4,10.2,0,1.8.7,3.5,1.4,5.3,2,2.1.8,4.1.7,6.1-.2,5.4-2.6,9.7-6.4,13.1-11.3,4.5-6.5,7.1-13.7,8.1-21.5.7-5.5.5-10.9-1.2-16.3-2.5-8-8.1-12.4-16.5-12.9-4.6-.3-9.1.5-13.4,1.9-4.3,1.4-8.5,1.4-12.8,0-4.6-1.5-9.3-2.3-14.2-1.9-6.5.6-11.5,3.5-14.5,9.5-2.2,4.3-2.9,9-2.9,15.6h0Z"/>
      <path class="cls-4" d="M147.8,314.1c5.6-1.1,10.4-3.5,13.7-8.3,2.3-3.4,3.4-7.2,3.6-11.4-9.4.9-17.6,10.3-17.2,19.7h-.1Z"/>
    </g>
  </g>
  <g>
    <g>
      <path class="cls-5" d="M296,149.6c.9,1.9,1.4,4,1.4,6.2s-.6,4.5-1.5,6.4c-2.3,4.5-7,7.6-12.5,7.6s-7.1-1.4-9.6-3.8v-.4c-3.8,0-6.9-3.1-6.9-6.9,1.3-10.5-6.2-5.1-12.4-1.9h0c-3.1,1.2-10.3-1.8-8.5-8.3h0c.6-.1,1.3-.3,1.9-.6,5.8-2.2,8.7-8.7,6.4-14.5v-.6c2.1-.5,4.2-2.3,4.2-6.6,0-6.8,6.5-7.6,8.2-7.6h.4c10.3-.5,19.1,6.8,20.8,16.9h.3c5,0,9.1,4.1,9.1,9.1s-.5,3.5-1.4,4.9h.1Z"/>
      <path class="cls-10" d="M284.1,180c6.7,5.1,4.8,21.3,4.8,21.3h-7.5s2.3-8.7-9.1-11.5-12.1-11.8-12.1-11.8h0c-2.4-.2-4.7-1.1-6.6-2.8h-.8c-2.6,2.9-6.4,4.8-10.6,4.8-6.3,0-11.6-4.1-13.4-9.7-.4-1.4-.7-2.8-.7-4.3s0-1.1.1-1.7v-.3c1.6-.7,2.9-2.2,4.5-3.5,6.7-5.4,10.3,1,19.1-2.4.8-.3,1.7-.7,2.7-1.2,6.2-3.2,13.6-8.6,12.4,1.9,0,3.8,3.1,6.9,6.9,6.9v.4c2.5,2.4,5.9,3.8,9.6,3.8,5.5,0,10.2-3.1,12.5-7.6h.2c-.3,8-5.1,14.7-12,17.8h0Z"/>
      <path class="cls-8" d="M228.8,121.9h0c1.3-3.3,4.5-6.2,8.8-7.6,5.2-1.7,10.5-.7,13.4,2.3,1.6-2.5,4.4-4.1,7.6-4.1s6.8,2.5,8.2,6v.3c-1.7,0-8.2.8-8.2,7.6s-2.1,6.2-4.4,6.6v.6c2.3,5.8-.5,12.2-6.3,14.5-.6.2-1.3.4-1.9.5h0c-1.9,6.5,5.3,9.4,8.5,8.2h0c-.9.6-1.8,1-2.7,1.3-8.9,3.4-12.4-3-19.1,2.4-1.5,1.2-2.9,2.7-4.6,3.5v2c0,1.5.2,2.9.7,4.3-2.1.8-4.4,1.3-6.8,1.3-10.2,0-18.5-8.3-18.5-18.5s1.1-7.1,3-10v-1.3c0-4.5,3-8.4,7-9.7,0-.5-.1-1-.1-1.5,0-5.6,4.5-10.2,10.2-10.2s3.8.6,5.3,1.5h0Z"/>
    </g>
    <g>
      <path class="cls-2" d="M228.8,121.9c1.3-3.3,4.5-6.2,8.8-7.6,5.2-1.7,10.5-.7,13.4,2.3"/>
      <path class="cls-2" d="M267.2,118.8c10.3-.5,19.1,6.8,20.8,16.9"/>
      <path class="cls-2" d="M296.1,162.2c-.3,8-5.1,14.7-12,17.8-.8.3-1.5.6-2.4.9"/>
      <path class="cls-2" d="M269.4,174.1c-2.4,2.8-5.8,4.1-9.2,3.8-2.4-.2-4.7-1.1-6.6-2.7"/>
      <path class="cls-2" d="M285.6,136.1c.8-.2,1.6-.4,2.4-.4h.3c5,0,9.1,4.1,9.1,9.1s-.5,3.5-1.4,4.9c-.5.8-1.1,1.4-1.8,2"/>
      <path class="cls-2" d="M280.7,158.7c0,3.8-3.1,6.9-6.9,6.9s-6.9-3.1-6.9-6.9"/>
      <path class="cls-2" d="M206.5,143v-1.3c0-4.5,3-8.4,7-9.7"/>
      <path class="cls-2" d="M215,136c-.7-1.2-1.3-2.5-1.5-3.9,0-.5-.1-1-.1-1.5,0-5.6,4.5-10.2,10.2-10.2s3.8.6,5.3,1.5c.6.4,1.2.8,1.7,1.3"/>
      <path class="cls-2" d="M228.8,170.2c-2.1.8-4.4,1.3-6.8,1.3-10.2,0-18.5-8.3-18.5-18.5s1.1-7.1,3-10"/>
      <path class="cls-2" d="M254.7,172.4c-.5,1-1.1,1.9-1.9,2.7-2.6,3-6.4,4.8-10.6,4.8-6.3,0-11.6-4.1-13.4-9.7-.4-1.4-.7-2.8-.7-4.3s0-1.1.1-1.7"/>
      <path class="cls-2" d="M296,149.6c.9,1.9,1.4,4,1.4,6.2s-.6,4.5-1.5,6.4c-2.3,4.5-7,7.6-12.5,7.6s-7.1-1.4-9.6-3.8"/>
      <path class="cls-2" d="M284.1,180h0c6.7,5.1,4.8,21.3,4.8,21.3h-7.5s2.3-8.7-9.1-11.5-12.1-11.8-12.1-11.8"/>
      <path class="cls-2" d="M230.7,123.3c3,2.9,3.1,7.7.2,10.7"/>
      <path class="cls-2" d="M246,148.6c-4.4.8-8.9-1.1-11.4-4.7"/>
      <path class="cls-2" d="M254.4,133.6c2.2,5.8-.7,12.2-6.4,14.5-.6.2-1.3.4-1.9.5"/>
      <path class="cls-2" d="M267.2,118.8h-.4c-1.7,0-8.2.8-8.2,7.6s-2.1,6.2-4.4,6.6c-1.5.3-2.9,0-3.9-.5"/>
      <path class="cls-2" d="M254.5,156.8c-3.1,1.3-10.3-1.7-8.5-8.2h0"/>
      <path class="cls-2" d="M266.8,118.5c-1.4-3.5-4.3-6-8.2-6s-6,1.6-7.6,4.1c-.4.7-.8,1.4-1,2.2"/>
      <path class="cls-2" d="M274.9,134.6c1.3-.6,2.8-.8,4.4-.5,3.6.8,5.9,4.4,5.1,8-.3,1.2-.6,1.8-1.6,3"/>
      <path class="cls-2" d="M266.9,158.7c1.3-10.5-6.2-5.1-12.4-1.9-.9.5-1.8.9-2.7,1.2-8.9,3.4-12.4-3-19.1,2.4-1.5,1.2-2.9,2.7-4.6,3.5-.7.3-1.4.5-2.2.5-4.4,0-7.9-3.5-7.9-7.9"/>
    </g>
  </g>
</svg>