<?xml version="1.0" encoding="UTF-8"?>
<svg xmlns="http://www.w3.org/2000/svg" viewBox="0 0 500 500">
  <defs>
    <style>
      .cls-1, .cls-2, .cls-3, .cls-4, .cls-5, .cls-6, .cls-7 {
        stroke-miterlimit: 10;
        stroke-width: 5px;
      }

      .cls-1, .cls-3, .cls-4, .cls-5, .cls-7 {
        stroke: #231f20;
      }

      .cls-1, .cls-3, .cls-5 {
        fill: none;
      }

      .cls-1, .cls-5 {
        stroke-linecap: round;
      }

      .cls-8, .cls-9, .cls-10, .cls-11, .cls-12, .cls-13, .cls-14 {
        stroke-width: 0px;
      }

      .cls-8, .cls-7 {
        fill: #a09dc3;
      }

      .cls-2 {
        fill: #e1c46d;
      }

      .cls-2, .cls-6 {
        stroke: #404450;
      }

      .cls-4, .cls-13 {
        fill: #e1dfeb;
      }

      .cls-9 {
        fill: #404450;
      }

      .cls-10 {
        fill: #46416e;
      }

      .cls-11 {
        fill: #231f20;
      }

      .cls-5 {
        stroke-dasharray: 0 0 11.77 11.77;
      }

      .cls-12 {
        fill: #625d9c;
      }

      .cls-6, .cls-14 {
        fill: #fff;
      }
    </style>
  </defs>
  <g id="Layer_2" data-name="Layer 2">
    <rect class="cls-12" y="-.27" width="500" height="500"/>
  </g>
  <g id="Layer_1" data-name="Layer 1">
    <path class="cls-6" d="M250,246.67s-40.95,61.12-91.46,61.12-91.46-61.12-91.46-61.12c0,0,40.95-61.12,91.46-61.12s91.46,61.12,91.46,61.12Z"/>
    <circle class="cls-2" cx="158.54" cy="246.67" r="47.3"/>
    <circle class="cls-9" cx="158.54" cy="246.67" r="18.22"/>
    <circle class="cls-14" cx="170.35" cy="235.59" r="8.32"/>
    <path class="cls-4" d="M250,246.67s-40.95,61.12-91.46,61.12-91.46-61.12-91.46-61.12c0,0,40.95-61.12,91.46-61.12s91.46,61.12,91.46,61.12Z"/>
    <circle class="cls-7" cx="158.54" cy="246.67" r="47.3"/>
    <circle class="cls-11" cx="158.54" cy="246.67" r="18.22"/>
    <circle class="cls-14" cx="170.35" cy="235.59" r="8.32"/>
    <polyline class="cls-1" points="145.37 126.43 354.63 247.24 145.37 368.05"/>
    <g>
      <line class="cls-1" x1="158.54" y1="247.24" x2="164.54" y2="247.24"/>
      <line class="cls-5" x1="176.31" y1="247.24" x2="335.23" y2="247.24"/>
      <line class="cls-1" x1="341.12" y1="247.24" x2="347.12" y2="247.24"/>
    </g>
    <g>
      <g>
        <path class="cls-10" d="M368.4,361.38l-5.58-186.52c0-7.06,4.09-13.17,10.03-16.09.05.02.1.05.16.06-5.66,2.97-9.36,9.1-8.84,15.95l5.43,71.89.71,9.42c.41,5.38,4.88,9.53,10.27,9.53s9.84-4.13,10.27-9.49l.75-9.44,5.67-71.85c.04-.45.05-.89.05-1.33,0-6.41-3.67-12.04-9.09-14.78.06-.03.12-.05.18-.08,1.88.88,3.58,2.08,5.03,3.53,3.24,3.25,5.25,7.73,5.25,12.68l-7.76,198.71h-22.17l-.36-12.19Z"/>
        <path class="cls-10" d="M397.32,173.51c0,.44-.01.88-.05,1.33l-5.67,71.85-.25-.02h-21.75l-5.43-71.89c-.52-6.85,3.18-12.98,8.84-15.95,2.31,1.04,4.84,1.61,7.49,1.61s5.35-.61,7.73-1.71c5.42,2.74,9.09,8.37,9.09,14.78Z"/>
        <path class="cls-13" d="M380.5,115.95c11.09,0,20.09,9.96,20.09,22.24,0,9.18-5.02,17.06-12.18,20.46-2.09-.99-4.4-1.59-6.83-1.7l-.86-.02c-.3,0-.6.01-.89.02-.56.03-1.11.09-1.65.17-1.89.26-3.68.83-5.33,1.65-7.3-3.33-12.44-11.29-12.44-20.58,0-12.28,8.99-22.24,20.09-22.24Z"/>
        <path class="cls-13" d="M391.6,246.69l-.75,9.44c-.43,5.36-4.9,9.49-10.27,9.49s-9.86-4.15-10.27-9.53l-.71-9.42h21.75l.25.02Z"/>
        <path class="cls-13" d="M388.41,158.65c-.06.03-.12.05-.18.08-2.01-1.03-4.26-1.66-6.65-1.78,2.43.11,4.74.71,6.83,1.7Z"/>
        <path class="cls-10" d="M381.58,156.95c2.39.12,4.64.75,6.65,1.78-2.38,1.1-4.99,1.71-7.73,1.71s-5.18-.57-7.49-1.61c1.58-.84,3.32-1.42,5.17-1.71.54-.08,1.09-.14,1.65-.17.29,0,.59-.02.89-.02l.86.02Z"/>
        <path class="cls-13" d="M379.83,156.95c-.56.03-1.11.09-1.65.17.54-.08,1.09-.14,1.65-.17Z"/>
        <path class="cls-13" d="M378.18,157.12c-1.85.29-3.59.87-5.17,1.71-.06-.01-.11-.04-.16-.06,1.65-.82,3.44-1.39,5.33-1.65Z"/>
        <path class="cls-8" d="M368.4,361.38l.36,12.19h-16.83c0-6.73,5.45-12.19,12.19-12.19h4.28Z"/>
      </g>
      <g>
        <path class="cls-3" d="M388.41,158.65c1.88.88,3.58,2.08,5.03,3.53,3.24,3.25,5.25,7.73,5.25,12.68l-7.76,198.71"/>
        <path class="cls-3" d="M368.76,373.57l-.36-12.19-5.58-186.52c0-7.06,4.09-13.17,10.03-16.09"/>
        <polyline class="cls-1" points="323.96 373.57 351.93 373.57 368.76 373.57 390.93 373.57 432.91 373.57"/>
        <path class="cls-3" d="M373.01,158.83c-.06-.01-.11-.04-.16-.06-7.3-3.33-12.44-11.29-12.44-20.58,0-12.28,8.99-22.24,20.09-22.24s20.09,9.96,20.09,22.24c0,9.18-5.02,17.06-12.18,20.46-.06.03-.12.05-.18.08"/>
        <path class="cls-3" d="M391.6,246.69l-.75,9.44c-.43,5.36-4.9,9.49-10.27,9.49s-9.86-4.15-10.27-9.53l-.71-9.42-5.43-71.89c-.52-6.85,3.18-12.98,8.84-15.95,1.58-.84,3.32-1.42,5.17-1.71.54-.08,1.09-.14,1.65-.17.29,0,.59-.02.89-.02l.86.02c2.39.12,4.64.75,6.65,1.78,5.42,2.74,9.09,8.37,9.09,14.78,0,.44-.01.88-.05,1.33l-5.67,71.85Z"/>
        <line class="cls-3" x1="391.35" y1="246.67" x2="369.64" y2="246.67"/>
        <path class="cls-3" d="M351.93,373.57c0-6.73,5.45-12.19,12.19-12.19h4.29"/>
      </g>
    </g>
  </g>
</svg>