<?xml version="1.0" encoding="UTF-8"?>
<svg xmlns="http://www.w3.org/2000/svg" viewBox="0 0 500 500">
  <defs>
    <style>
      .cls-1, .cls-2, .cls-3, .cls-4 {
        stroke: #231f20;
        stroke-miterlimit: 10;
        stroke-width: 5px;
      }

      .cls-1, .cls-2, .cls-4 {
        stroke-linecap: round;
      }

      .cls-1, .cls-3 {
        fill: none;
      }

      .cls-2 {
        fill: #0b8699;
      }

      .cls-5 {
        fill: #009eac;
      }

      .cls-5, .cls-6 {
        stroke-width: 0px;
      }

      .cls-6 {
        fill: #9bd4dd;
      }

      .cls-4 {
        fill: #016876;
      }
    </style>
  </defs>
  <g id="Layer_2" data-name="Layer 2">
    <rect class="cls-5" x="0" y="-.27" width="500" height="500"/>
  </g>
  <g id="Layer_1" data-name="Layer 1">
    <g>
      <g>
        <g>
          <path class="cls-6" d="M225.16,135.58c24.82,29.77,31.31,70.65,18.27,107.15-5.44,15.24-14.73,30.64-30.43,41.9-30.42,21.82-34.91,66.01-34.67,92.01.2,21.02-12.68,40.23-32.42,47.41-41.36,15.02-76.49-25.63-79.89-41.27-1.48-6.78,1.5-33.72-.54-45.76-6.94-40.97-14.38-121.25-14.76-136.99-.49-20.41,16.27-101.49,99.83-99.55,35.98.83,59.49,16.98,74.59,35.1ZM200.53,237.89s31.13-77.03-31.31-98c-25.37-8.52-48.13,1.1-60.85,10.47-17.23,12.68-25.65,34.16-22.48,55.32l2.16,14.43,12.18,81.37c1.78,11.91,9.98,22.03,21.45,25.71,11.25,3.61,30.35-.44,35.85-27.27,10.63-51.82-67.89-80.04-67.89-80.04l110.89,18.03Z"/>
          <path class="cls-6" d="M169.22,139.89c62.44,20.97,31.31,98,31.31,98l-110.89-18.03-1.59.24-2.16-14.43c-3.17-21.16,5.25-42.64,22.48-55.32,12.72-9.37,35.48-18.99,60.85-10.47Z"/>
          <path class="cls-6" d="M89.64,219.86s78.53,28.22,67.89,80.04c-5.51,26.83-24.61,30.89-35.85,27.27-11.47-3.68-19.67-13.8-21.45-25.71l-12.18-81.37,1.59-.24Z"/>
        </g>
        <g>
          <path class="cls-3" d="M145.92,424.05c19.74-7.18,32.62-26.4,32.42-47.41-.24-26,4.25-70.19,34.67-92.01,15.7-11.26,24.98-26.66,30.43-41.9,13.03-36.49,6.54-77.38-18.27-107.15-15.1-18.12-38.61-34.27-74.59-35.1-83.57-1.94-100.32,79.14-99.83,99.55.38,15.74,7.82,96.02,14.76,136.99,2.04,12.04-.93,38.98.54,45.76,3.4,15.64,38.53,56.29,79.89,41.27Z"/>
          <path class="cls-3" d="M200.53,237.89s31.13-77.03-31.31-98c-25.37-8.52-48.13,1.1-60.85,10.47-17.23,12.68-25.65,34.16-22.48,55.32l2.16,14.43,12.18,81.37c1.78,11.91,9.98,22.03,21.45,25.71,11.25,3.61,30.35-.44,35.85-27.27,10.63-51.82-67.89-80.04-67.89-80.04"/>
        </g>
      </g>
      <polyline class="cls-1" points="124.31 308.88 261.43 308.88 276.83 260.01 316.4 367.78 348.5 273.28 360.66 308.88 453.93 308.88"/>
      <g>
        <path class="cls-4" d="M332.35,104.37h-89.96c-8.18,0-14.82,6.63-14.82,14.82v67.24c0,8.18,6.63,14.82,14.82,14.82h6.9l4.05,7.01,9.33,16.16,9.33-16.16,4.05-7.01h56.3c8.18,0,14.82-6.63,14.82-14.82v-67.24c0-8.18-6.63-14.82-14.82-14.82Z"/>
        <g>
          <line class="cls-1" x1="248.08" y1="137.94" x2="326.66" y2="137.94"/>
          <line class="cls-1" x1="248.08" y1="153.58" x2="326.66" y2="153.58"/>
          <line class="cls-1" x1="248.08" y1="169.21" x2="326.66" y2="169.21"/>
        </g>
      </g>
      <g>
        <path class="cls-2" d="M329.43,147.6h89.96c8.18,0,14.82,6.63,14.82,14.82v67.24c0,8.18-6.63,14.82-14.82,14.82h-6.9s-4.05,7.01-4.05,7.01l-9.33,16.16-9.33-16.16-4.05-7.01h-56.3c-8.18,0-14.82-6.63-14.82-14.82v-67.24c0-8.18,6.63-14.82,14.82-14.82Z"/>
        <g>
          <line class="cls-1" x1="413.7" y1="181.17" x2="335.12" y2="181.17"/>
          <line class="cls-1" x1="413.7" y1="196.81" x2="335.12" y2="196.81"/>
          <line class="cls-1" x1="413.7" y1="212.45" x2="335.12" y2="212.45"/>
        </g>
      </g>
    </g>
  </g>
</svg>