<?xml version="1.0" encoding="UTF-8"?>
<svg xmlns="http://www.w3.org/2000/svg" viewBox="0 0 500 500">
  <defs>
    <style>
      .cls-1 {
        fill: none;
        stroke: #231f20;
        stroke-linecap: round;
        stroke-miterlimit: 10;
        stroke-width: 5px;
      }

      .cls-2 {
        fill: #3579a3;
      }

      .cls-2, .cls-3, .cls-4 {
        stroke-width: 0px;
      }

      .cls-3 {
        fill: #4197cb;
      }

      .cls-4 {
        fill: #275b7a;
      }
    </style>
  </defs>
  <g id="Layer_2" data-name="Layer 2">
    <rect class="cls-3" width="500" height="500"/>
  </g>
  <g id="Layer_1" data-name="Layer 1">
    <g>
      <g>
        <path class="cls-4" d="M288,306.74c81.21,4.95,142.09,25.49,142.09,50.09,0,28.3-80.63,51.25-180.08,51.25s-180.08-22.95-180.08-51.25c0-24.56,60.72-45.08,141.78-50.07,3.66,4.25,7.23,8.29,10.62,12.05-50.61,2.93-88.15,13.72-88.15,26.6,0,15.11,51.86,27.37,115.83,27.37s115.82-12.26,115.82-27.37c0-12.89-37.69-23.7-88.45-26.62,3.39-3.75,6.96-7.8,10.62-12.05Z"/>
        <path class="cls-2" d="M249.84,91.92c56.09,0,101.57,45.47,101.57,101.56,0,32.74-34.6,79.78-63.41,113.26-12.25-.76-24.96-1.15-37.99-1.15s-25.95.4-38.3,1.17c-28.81-33.49-63.42-80.54-63.42-113.28,0-56.08,45.47-101.56,101.56-101.56ZM304.38,193.48c0-30.12-24.42-54.53-54.54-54.53s-54.53,24.41-54.53,54.53,24.41,54.54,54.53,54.54,54.54-24.42,54.54-54.54Z"/>
        <path class="cls-2" d="M288,306.74c-3.66,4.25-7.23,8.29-10.62,12.05-8.77-.5-17.94-.77-27.37-.77s-18.81.27-27.68.79c-3.39-3.75-6.96-7.8-10.62-12.05,12.35-.77,25.16-1.17,38.3-1.17s25.74.39,37.99,1.15Z"/>
        <path class="cls-2" d="M250,318.02c9.43,0,18.6.27,27.37.77-15.64,17.35-27.53,28.84-27.53,28.84,0,0-11.89-11.47-27.52-28.82,8.87-.52,18.14-.79,27.68-.79Z"/>
      </g>
      <g>
        <path class="cls-1" d="M288,306.74c81.21,4.95,142.09,25.49,142.09,50.09,0,28.3-80.63,51.25-180.08,51.25s-180.08-22.95-180.08-51.25c0-24.56,60.72-45.08,141.78-50.07"/>
        <path class="cls-1" d="M277.38,318.79c50.76,2.91,88.45,13.72,88.45,26.62,0,15.11-51.85,27.37-115.82,27.37s-115.83-12.26-115.83-27.37c0-12.87,37.54-23.67,88.15-26.6"/>
        <path class="cls-1" d="M211.7,306.76c-28.81-33.49-63.42-80.54-63.42-113.28,0-56.08,45.47-101.56,101.56-101.56s101.57,45.47,101.57,101.56c0,32.74-34.6,79.78-63.41,113.26-3.66,4.25-7.23,8.29-10.62,12.05-15.64,17.35-27.53,28.84-27.53,28.84,0,0-11.89-11.47-27.52-28.82-3.39-3.75-6.96-7.8-10.62-12.05Z"/>
        <path class="cls-1" d="M304.38,193.48c0,30.12-24.42,54.54-54.54,54.54s-54.53-24.42-54.53-54.54,24.41-54.53,54.53-54.53,54.54,24.41,54.54,54.53Z"/>
      </g>
    </g>
  </g>
</svg>