<?xml version="1.0" encoding="UTF-8"?>
<svg xmlns="http://www.w3.org/2000/svg" viewBox="0 0 500 500">
  <defs>
    <style>
      .cls-1 {
        stroke-linecap: round;
      }

      .cls-1, .cls-2 {
        fill: none;
      }

      .cls-1, .cls-2, .cls-3, .cls-4, .cls-5, .cls-6 {
        stroke: #231f20;
        stroke-miterlimit: 10;
        stroke-width: 5px;
      }

      .cls-7 {
        stroke-width: 0px;
      }

      .cls-7, .cls-6 {
        fill: #625d9c;
      }

      .cls-3 {
        fill: #817db0;
      }

      .cls-4 {
        fill: #a09dc3;
      }

      .cls-5 {
        fill: #d2cfe1;
      }
    </style>
  </defs>
  <g id="Layer_2" data-name="Layer 2">
    <rect class="cls-7" width="500" height="500"/>
  </g>
  <g id="Layer_1" data-name="Layer 1">
    <g>
      <path class="cls-4" d="M321.84,152.55l-20.45,14.59c-2.33,1.66-5.39,1.85-7.92.53-5.01-2.62-10.2-4.75-15.52-6.41-2.74-.85-4.77-3.15-5.24-5.98l-4.13-24.8h-37.77s-4.14,24.8-4.14,24.8c-.47,2.83-2.5,5.12-5.24,5.97-5.31,1.66-10.51,3.79-15.52,6.41-2.54,1.32-5.59,1.13-7.92-.53l-20.43-14.6-26.71,26.71,14.59,20.45c1.66,2.33,1.85,5.39.53,7.92-2.62,5.01-4.75,10.2-6.41,15.52-.85,2.74-3.15,4.77-5.98,5.24l-24.8,4.13v37.77s24.8,4.14,24.8,4.14c2.82.47,5.12,2.5,5.97,5.24,1.66,5.31,3.79,10.51,6.41,15.52,1.32,2.54,1.13,5.59-.53,7.92l-14.6,20.43,26.71,26.71h0s20.45-14.59,20.45-14.59c2.33-1.66,5.38-1.85,7.92-.53,5.01,2.62,10.2,4.75,15.52,6.41,2.74.85,4.77,3.15,5.24,5.98l4.13,24.8h37.77s0,0,0,0l4.14-24.8c.47-2.82,2.5-5.12,5.24-5.97,5.31-1.66,10.51-3.79,15.52-6.41,2.54-1.32,5.59-1.13,7.92.53l20.43,14.6,26.71-26.71h0s-14.59-20.45-14.59-20.45c-1.66-2.33-1.85-5.38-.53-7.92,2.62-5.01,4.75-10.2,6.41-15.52.85-2.73,3.15-4.77,5.98-5.24l24.8-4.13v-37.77s-24.8-4.14-24.8-4.14c-2.82-.47-5.12-2.5-5.97-5.24-1.66-5.31-3.79-10.51-6.41-15.52-1.32-2.54-1.13-5.59.53-7.92l14.6-20.43-26.71-26.71Z"/>
      <g>
        <path class="cls-3" d="M199.78,222.04c17.95-27.1,54.46-34.51,81.55-16.57,27.1,17.95,34.51,54.46,16.57,81.55-17.95,27.1-54.46,34.51-81.55,16.57-27.1-17.95-34.51-54.46-16.57-81.55"/>
        <path class="cls-1" d="M174.19,273.64c-5.2-20.36-2.11-42.75,10.41-61.65"/>
        <path class="cls-1" d="M183.01,294.61c-2.47-4.06-4.54-8.32-6.21-12.72"/>
        <path class="cls-1" d="M184.6,211.99c23.5-35.48,71.31-45.19,106.79-21.7,35.48,23.5,45.19,71.31,21.7,106.79-23.5,35.48-71.31,45.19-106.79,21.7"/>
      </g>
      <polygon class="cls-5" points="233.74 282.71 211.31 262.45 219.22 253.7 233.74 266.81 278.47 226.36 286.38 235.11 233.74 282.71"/>
      <g>
        <path class="cls-2" d="M97.5,214.22c25.71-85.81,116.11-134.53,201.93-108.82"/>
        <path class="cls-2" d="M400.33,295.35c-25.71,85.81-116.11,134.53-201.93,108.82"/>
        <polygon class="cls-6" points="307.75 88.09 320.35 101.47 332.94 114.84 315.06 119.06 297.19 123.28 302.47 105.69 307.75 88.09"/>
        <polygon class="cls-6" points="193.12 421.77 180.52 408.39 167.93 395.02 185.81 390.8 203.68 386.58 198.4 404.17 193.12 421.77"/>
      </g>
    </g>
  </g>
</svg>