<?xml version="1.0" encoding="UTF-8"?>
<svg id="Layer_2" data-name="Layer 2" xmlns="http://www.w3.org/2000/svg" viewBox="0 0 500 500">
  <defs>
    <style>
      .cls-1 {
        fill: #3579a3;
      }

      .cls-1, .cls-2, .cls-3, .cls-4, .cls-5 {
        stroke-width: 0px;
      }

      .cls-6 {
        fill: none;
        stroke: #231f20;
        stroke-miterlimit: 10;
        stroke-width: 5px;
      }

      .cls-2 {
        fill: #4197cb;
      }

      .cls-3 {
        fill: #c8e0ee;
      }

      .cls-4 {
        fill: #275b7a;
      }

      .cls-5 {
        fill: #112c3c;
      }
    </style>
  </defs>
  <rect class="cls-2" y="-.27" width="500" height="500"/>
  <g>
    <g>
      <path class="cls-4" d="M410.05,356.7v39.25c0,7.79-6.31,14.1-14.1,14.1h-39.25c29.47,0,53.35-23.88,53.35-53.35Z"/>
      <path class="cls-4" d="M410.05,250v106.7c0-29.46-23.88-53.35-53.35-53.35,29.47,0,53.35-23.89,53.35-53.35Z"/>
      <path class="cls-4" d="M410.05,143.3v106.7c0-29.47-23.88-53.35-53.35-53.35,29.47,0,53.35-23.89,53.35-53.35Z"/>
      <path class="cls-4" d="M410.05,104.05v39.25c0-29.47-23.88-53.35-53.35-53.35h39.25c7.79,0,14.1,6.31,14.1,14.1Z"/>
      <path class="cls-1" d="M356.7,89.95c29.47,0,53.35,23.88,53.35,53.35s-23.88,53.35-53.35,53.35c-9.72,0-18.83-2.6-26.67-7.14,15.94-9.23,26.67-26.47,26.67-46.21s-10.73-36.98-26.67-46.21c7.84-4.54,16.95-7.14,26.67-7.14Z"/>
      <path class="cls-1" d="M356.7,196.65c29.47,0,53.35,23.88,53.35,53.35s-23.88,53.35-53.35,53.35c-9.72,0-18.83-2.6-26.67-7.14,15.94-9.23,26.67-26.47,26.67-46.21s-10.73-36.98-26.67-46.21c7.84-4.54,16.95-7.14,26.67-7.14Z"/>
      <path class="cls-1" d="M356.7,303.35c29.47,0,53.35,23.89,53.35,53.35s-23.88,53.35-53.35,53.35c-9.72,0-18.83-2.6-26.67-7.14,15.94-9.23,26.67-26.46,26.67-46.21s-10.73-36.98-26.67-46.21c7.84-4.54,16.95-7.14,26.67-7.14Z"/>
      <path class="cls-4" d="M303.35,89.95h53.35c-9.72,0-18.83,2.6-26.67,7.14-7.84-4.54-16.96-7.14-26.68-7.14Z"/>
      <path class="cls-4" d="M356.7,410.05h-53.35c9.72,0,18.84-2.6,26.68-7.14,7.84,4.54,16.95,7.14,26.67,7.14Z"/>
      <path class="cls-5" d="M330.03,97.09c15.94,9.23,26.67,26.46,26.67,46.21s-10.73,36.98-26.67,46.21c-15.95-9.22-26.68-26.47-26.68-46.21s10.73-36.99,26.68-46.21Z"/>
      <path class="cls-5" d="M330.03,203.79c15.94,9.23,26.67,26.46,26.67,46.21s-10.73,36.98-26.67,46.21c-15.95-9.22-26.68-26.47-26.68-46.21s10.73-36.99,26.68-46.21Z"/>
      <path class="cls-5" d="M330.03,310.49c15.94,9.23,26.67,26.47,26.67,46.21s-10.73,36.98-26.67,46.21c-15.95-9.22-26.68-26.46-26.68-46.21s10.73-36.99,26.68-46.21Z"/>
      <path class="cls-4" d="M330.03,189.51c7.84,4.54,16.95,7.14,26.67,7.14-9.72,0-18.83,2.6-26.67,7.14-7.84-4.54-16.96-7.14-26.68-7.14,9.72,0,18.84-2.6,26.68-7.14Z"/>
      <path class="cls-4" d="M330.03,296.21c7.84,4.54,16.95,7.14,26.67,7.14-9.72,0-18.83,2.6-26.67,7.14-7.84-4.54-16.96-7.14-26.68-7.14,9.72,0,18.84-2.6,26.68-7.14Z"/>
      <path class="cls-3" d="M330.03,97.09c-15.95,9.22-26.68,26.46-26.68,46.21s10.73,36.99,26.68,46.21c-7.84,4.54-16.96,7.14-26.68,7.14-29.47,0-53.35-23.89-53.35-53.35s23.88-53.35,53.35-53.35c9.72,0,18.84,2.6,26.68,7.14Z"/>
      <path class="cls-3" d="M330.03,203.79c-15.95,9.22-26.68,26.46-26.68,46.21s10.73,36.99,26.68,46.21c-7.84,4.54-16.96,7.14-26.68,7.14-29.47,0-53.35-23.89-53.35-53.35s23.88-53.35,53.35-53.35c9.72,0,18.84,2.6,26.68,7.14Z"/>
      <path class="cls-3" d="M330.03,310.49c-15.95,9.22-26.68,26.47-26.68,46.21s10.73,36.99,26.68,46.21c-7.84,4.54-16.96,7.14-26.68,7.14-29.47,0-53.35-23.88-53.35-53.35s23.88-53.35,53.35-53.35c9.72,0,18.84,2.6,26.68,7.14Z"/>
      <path class="cls-4" d="M196.65,89.95h106.7c-29.47,0-53.35,23.88-53.35,53.35,0-29.47-23.89-53.35-53.35-53.35Z"/>
      <path class="cls-4" d="M303.35,410.05h-106.7c29.46,0,53.35-23.88,53.35-53.35,0,29.47,23.88,53.35,53.35,53.35Z"/>
      <path class="cls-4" d="M250,143.3c0,29.46,23.88,53.35,53.35,53.35-29.47,0-53.35,23.88-53.35,53.35,0-29.47-23.89-53.35-53.35-53.35,29.46,0,53.35-23.89,53.35-53.35Z"/>
      <path class="cls-4" d="M250,250c0,29.46,23.88,53.35,53.35,53.35-29.47,0-53.35,23.89-53.35,53.35,0-29.46-23.89-53.35-53.35-53.35,29.46,0,53.35-23.89,53.35-53.35Z"/>
      <path class="cls-1" d="M196.65,89.95c29.46,0,53.35,23.88,53.35,53.35s-23.89,53.35-53.35,53.35c-9.72,0-18.83-2.6-26.68-7.14,15.95-9.22,26.68-26.47,26.68-46.21s-10.73-36.99-26.68-46.21c7.85-4.54,16.96-7.14,26.68-7.14Z"/>
      <path class="cls-1" d="M196.65,196.65c29.46,0,53.35,23.88,53.35,53.35s-23.89,53.35-53.35,53.35c-9.72,0-18.83-2.6-26.68-7.14,15.95-9.22,26.68-26.47,26.68-46.21s-10.73-36.99-26.68-46.21c7.85-4.54,16.96-7.14,26.68-7.14Z"/>
      <path class="cls-1" d="M196.65,303.35c29.46,0,53.35,23.89,53.35,53.35s-23.89,53.35-53.35,53.35c-9.72,0-18.83-2.6-26.68-7.14,15.95-9.22,26.68-26.46,26.68-46.21s-10.73-36.99-26.68-46.21c7.85-4.54,16.96-7.14,26.68-7.14Z"/>
      <path class="cls-4" d="M143.3,89.95h53.35c-9.72,0-18.83,2.6-26.68,7.14-7.84-4.54-16.95-7.14-26.67-7.14Z"/>
      <path class="cls-4" d="M196.65,410.05h-53.35c9.72,0,18.83-2.6,26.67-7.14,7.85,4.54,16.96,7.14,26.68,7.14Z"/>
      <path class="cls-5" d="M169.97,97.09c15.95,9.22,26.68,26.46,26.68,46.21s-10.73,36.99-26.68,46.21c-15.94-9.22-26.67-26.47-26.67-46.21s10.73-36.99,26.67-46.21Z"/>
      <path class="cls-5" d="M169.97,203.79c15.95,9.22,26.68,26.46,26.68,46.21s-10.73,36.99-26.68,46.21c-15.94-9.22-26.67-26.47-26.67-46.21s10.73-36.99,26.67-46.21Z"/>
      <path class="cls-5" d="M169.97,310.49c15.95,9.22,26.68,26.47,26.68,46.21s-10.73,36.99-26.68,46.21c-15.94-9.22-26.67-26.46-26.67-46.21s10.73-36.99,26.67-46.21Z"/>
      <path class="cls-4" d="M169.97,189.51c7.85,4.54,16.96,7.14,26.68,7.14-9.72,0-18.83,2.6-26.68,7.14-7.84-4.54-16.95-7.14-26.67-7.14,9.72,0,18.83-2.6,26.67-7.14Z"/>
      <path class="cls-4" d="M169.97,296.21c7.85,4.54,16.96,7.14,26.68,7.14-9.72,0-18.83,2.6-26.68,7.14-7.84-4.54-16.95-7.14-26.67-7.14,9.72,0,18.83-2.6,26.67-7.14Z"/>
      <path class="cls-3" d="M169.97,97.09c-15.94,9.22-26.67,26.46-26.67,46.21s10.73,36.99,26.67,46.21c-7.84,4.54-16.95,7.14-26.67,7.14-29.47,0-53.36-23.89-53.36-53.35s23.89-53.35,53.36-53.35c9.72,0,18.83,2.6,26.67,7.14Z"/>
      <path class="cls-3" d="M169.97,203.79c-15.94,9.22-26.67,26.46-26.67,46.21s10.73,36.99,26.67,46.21c-7.84,4.54-16.95,7.14-26.67,7.14-29.47,0-53.36-23.89-53.36-53.35s23.89-53.35,53.36-53.35c9.72,0,18.83,2.6,26.67,7.14Z"/>
      <path class="cls-3" d="M169.97,310.49c-15.94,9.22-26.67,26.47-26.67,46.21s10.73,36.99,26.67,46.21c-7.84,4.54-16.95,7.14-26.67,7.14-29.47,0-53.36-23.88-53.36-53.35s23.89-53.35,53.36-53.35c9.72,0,18.83,2.6,26.67,7.14Z"/>
      <path class="cls-4" d="M104.04,89.95h39.26c-29.47,0-53.36,23.88-53.36,53.35v-39.25c0-7.79,6.32-14.1,14.1-14.1Z"/>
      <path class="cls-4" d="M143.3,410.05h-39.26c-7.78,0-14.1-6.31-14.1-14.1v-39.25c0,29.47,23.89,53.35,53.36,53.35Z"/>
      <path class="cls-4" d="M89.94,143.3c0,29.46,23.89,53.35,53.36,53.35-29.47,0-53.36,23.88-53.36,53.35v-106.7Z"/>
      <path class="cls-4" d="M89.94,250c0,29.46,23.89,53.35,53.36,53.35-29.47,0-53.36,23.89-53.36,53.35v-106.7Z"/>
    </g>
    <g>
      <path class="cls-6" d="M410.05,356.7v39.25c0,7.79-6.31,14.1-14.1,14.1H104.04c-7.78,0-14.1-6.31-14.1-14.1V104.05c0-7.79,6.32-14.1,14.1-14.1h291.91c7.79,0,14.1,6.31,14.1,14.1v252.65Z"/>
      <path class="cls-6" d="M169.97,97.09c15.95,9.22,26.68,26.46,26.68,46.21s-10.73,36.99-26.68,46.21c-7.84,4.54-16.95,7.14-26.67,7.14-29.47,0-53.36-23.89-53.36-53.35s23.89-53.35,53.36-53.35c9.72,0,18.83,2.6,26.67,7.14Z"/>
      <path class="cls-6" d="M250,143.3c0,29.46-23.89,53.35-53.35,53.35-9.72,0-18.83-2.6-26.68-7.14-15.94-9.22-26.67-26.47-26.67-46.21s10.73-36.99,26.67-46.21c7.85-4.54,16.96-7.14,26.68-7.14,29.46,0,53.35,23.88,53.35,53.35Z"/>
      <path class="cls-6" d="M330.03,97.09c15.94,9.23,26.67,26.46,26.67,46.21s-10.73,36.98-26.67,46.21c-7.84,4.54-16.96,7.14-26.68,7.14-29.47,0-53.35-23.89-53.35-53.35s23.88-53.35,53.35-53.35c9.72,0,18.84,2.6,26.68,7.14Z"/>
      <path class="cls-6" d="M410.05,143.3c0,29.46-23.88,53.35-53.35,53.35-9.72,0-18.83-2.6-26.67-7.14-15.95-9.22-26.68-26.47-26.68-46.21s10.73-36.99,26.68-46.21c7.84-4.54,16.95-7.14,26.67-7.14,29.47,0,53.35,23.88,53.35,53.35Z"/>
      <path class="cls-6" d="M169.97,203.79c15.95,9.22,26.68,26.46,26.68,46.21s-10.73,36.99-26.68,46.21c-7.84,4.54-16.95,7.14-26.67,7.14-29.47,0-53.36-23.89-53.36-53.35s23.89-53.35,53.36-53.35c9.72,0,18.83,2.6,26.67,7.14Z"/>
      <path class="cls-6" d="M250,250c0,29.46-23.89,53.35-53.35,53.35-9.72,0-18.83-2.6-26.68-7.14-15.94-9.22-26.67-26.47-26.67-46.21s10.73-36.99,26.67-46.21c7.85-4.54,16.96-7.14,26.68-7.14,29.46,0,53.35,23.88,53.35,53.35Z"/>
      <path class="cls-6" d="M330.03,203.79c15.94,9.23,26.67,26.46,26.67,46.21s-10.73,36.98-26.67,46.21c-7.84,4.54-16.96,7.14-26.68,7.14-29.47,0-53.35-23.89-53.35-53.35s23.88-53.35,53.35-53.35c9.72,0,18.84,2.6,26.68,7.14Z"/>
      <path class="cls-6" d="M410.05,250c0,29.46-23.88,53.35-53.35,53.35-9.72,0-18.83-2.6-26.67-7.14-15.95-9.22-26.68-26.47-26.68-46.21s10.73-36.99,26.68-46.21c7.84-4.54,16.95-7.14,26.67-7.14,29.47,0,53.35,23.88,53.35,53.35Z"/>
      <path class="cls-6" d="M169.97,310.49c15.95,9.22,26.68,26.47,26.68,46.21s-10.73,36.99-26.68,46.21c-7.84,4.54-16.95,7.14-26.67,7.14-29.47,0-53.36-23.88-53.36-53.35s23.89-53.35,53.36-53.35c9.72,0,18.83,2.6,26.67,7.14Z"/>
      <path class="cls-6" d="M250,356.7c0,29.47-23.89,53.35-53.35,53.35-9.72,0-18.83-2.6-26.68-7.14-15.94-9.22-26.67-26.46-26.67-46.21s10.73-36.99,26.67-46.21c7.85-4.54,16.96-7.14,26.68-7.14,29.46,0,53.35,23.89,53.35,53.35Z"/>
      <path class="cls-6" d="M330.03,310.49c15.94,9.23,26.67,26.47,26.67,46.21s-10.73,36.98-26.67,46.21c-7.84,4.54-16.96,7.14-26.68,7.14-29.47,0-53.35-23.88-53.35-53.35s23.88-53.35,53.35-53.35c9.72,0,18.84,2.6,26.68,7.14Z"/>
      <path class="cls-6" d="M410.05,356.7c0,29.47-23.88,53.35-53.35,53.35-9.72,0-18.83-2.6-26.67-7.14-15.95-9.22-26.68-26.46-26.68-46.21s10.73-36.99,26.68-46.21c7.84-4.54,16.95-7.14,26.67-7.14,29.47,0,53.35,23.89,53.35,53.35Z"/>
    </g>
  </g>
</svg>