<?xml version="1.0" encoding="UTF-8"?>
<svg xmlns="http://www.w3.org/2000/svg" viewBox="0 0 500 500">
  <defs>
    <style>
      .cls-1 {
        stroke-linecap: round;
      }

      .cls-1, .cls-2 {
        fill: none;
      }

      .cls-1, .cls-2, .cls-3, .cls-4, .cls-5, .cls-6 {
        stroke: #231f20;
        stroke-miterlimit: 10;
        stroke-width: 5px;
      }

      .cls-3 {
        fill: #5b666d;
      }

      .cls-4 {
        fill: #fff;
      }

      .cls-7 {
        fill: #323e48;
      }

      .cls-7, .cls-8 {
        stroke-width: 0px;
      }

      .cls-8 {
        fill: #231f20;
      }

      .cls-5 {
        fill: #828d8f;
      }

      .cls-6 {
        fill: #232c33;
      }
    </style>
  </defs>
  <g id="Layer_2" data-name="Layer 2">
    <rect class="cls-7" x="0" y="-.27" width="500" height="500"/>
  </g>
  <g id="Layer_1" data-name="Layer 1">
    <path class="cls-6" d="M249.31,391.41c78.1,0,141.41-63.31,141.41-141.41h-141.41"/>
    <path class="cls-6" d="M250,391.41c-78.1,0-141.41-63.31-141.41-141.41s63.31-141.41,141.41-141.41v141.41"/>
    <line class="cls-1" x1="250" y1="250" x2="307.71" y2="306.17"/>
    <polygon class="cls-4" points="257.1 247.86 242.9 247.86 242.9 184.43 250 171.85 257.1 184.43 257.1 247.86"/>
    <polygon class="cls-4" points="250 242.9 250 257.1 202.77 257.1 190.19 250 202.77 242.9 250 242.9"/>
    <circle class="cls-3" cx="250" cy="250" r="13.88"/>
    <circle class="cls-8" cx="197.69" cy="158.9" r="6.01"/>
    <circle class="cls-8" cx="159.36" cy="196.18" r="6.01"/>
    <circle class="cls-8" cx="157.96" cy="301.37" r="6.01"/>
    <circle class="cls-8" cx="195.24" cy="339.7" r="6.01"/>
    <circle class="cls-8" cx="300.43" cy="341.1" r="6.01"/>
    <circle class="cls-8" cx="338.77" cy="303.82" r="6.01"/>
    <circle class="cls-4" cx="144.45" cy="249.74" r="8.65"/>
    <path class="cls-4" d="M362.83,250.27c-.01,5.05-4.12,9.14-9.17,9.12s-9.14-4.12-9.12-9.17"/>
    <g>
      <path class="cls-4" d="M249.79,154.03c-4.78-.01-8.64-3.9-8.62-8.67s3.9-8.64,8.67-8.62"/>
      <circle class="cls-4" cx="249.31" cy="354.61" r="9.15"/>
    </g>
    <circle class="cls-4" cx="296.61" cy="295.36" r="7.49"/>
    <line class="cls-2" x1="372.66" y1="250" x2="331.48" y2="250"/>
    <line class="cls-2" x1="250" y1="160.53" x2="250" y2="119.35"/>
    <g>
      <g>
        <path class="cls-5" d="M274.07,224.6h141.41c0-78.1-63.31-141.41-141.41-141.41v141.41Z"/>
        <circle class="cls-8" cx="364.9" cy="173.19" r="6.01"/>
        <circle class="cls-8" cx="327.63" cy="134.89" r="6.01"/>
        <path class="cls-4" d="M369.29,224.81c.01-5.05,4.12-9.14,9.17-9.12,5.05.01,9.14,4.12,9.12,9.17"/>
        <path class="cls-4" d="M274.59,111.33c4.78.01,8.64,3.9,8.62,8.67-.01,4.78-3.9,8.64-8.67,8.62"/>
      </g>
      <line class="cls-2" x1="394.79" y1="224.6" x2="358.9" y2="224.6"/>
      <line class="cls-2" x1="274.07" y1="136.69" x2="274.07" y2="100.8"/>
    </g>
  </g>
</svg>