<?xml version="1.0" encoding="UTF-8"?>
<svg id="Layer_1" xmlns="http://www.w3.org/2000/svg" width="500" height="500" version="1.1" viewBox="0 0 500 500">
  <!-- Generator: Adobe Illustrator 29.8.1, SVG Export Plug-In . SVG Version: 2.1.1 Build 2)  -->
  <defs>
    <style>
      .st0, .st1, .st2, .st3, .st4, .st5, .st6 {
        stroke-miterlimit: 10;
        stroke-width: 6.1px;
      }

      .st0, .st7 {
        fill: #9f9cc2;
      }

      .st0, .st2, .st3, .st5 {
        stroke: #231f20;
      }

      .st1 {
        stroke: #bfbdd6;
      }

      .st1, .st3, .st4, .st6 {
        fill: none;
      }

      .st8 {
        fill: #625d9c;
      }

      .st2 {
        fill: #bfbdd6;
      }

      .st9 {
        fill: #807daf;
      }

      .st4 {
        stroke: #46416e;
      }

      .st10, .st5 {
        fill: #46416e;
      }

      .st6 {
        stroke: #9f9cc2;
      }
    </style>
  </defs>
  <rect class="st8" width="500" height="500"/>
  <g>
    <g>
      <g>
        <path class="st10" d="M157.3,236.1c2.2-4.6,8.3-5.8,11.9-2.2l93.7,93.7c1.5,1.5,2.2,3.4,2.2,5.2,0,2.8-1.5,5.5-4.3,6.7l-44.2,20.3-79.6-79.6,20.3-44.2h-.1Z"/>
        <polygon class="st9" points="216.6 359.9 164.1 384 112.9 332.9 137 280.3 216.6 359.9"/>
        <path class="st7" d="M164.1,384l-76.6,35.2c-3.2,1.5-6.3.5-8.3-1.5s-2.2-3.2-2.2-5.2.2-2.1.7-3.2l35.2-76.6,51.2,51.2h-.1Z"/>
      </g>
      <g>
        <path class="st3" d="M112.9,332.9l-35.2,76.6c-.5,1.1-.7,2.1-.7,3.2,0,1.9.9,3.9,2.2,5.2,2.1,2.1,5.2,2.9,8.3,1.5l76.6-35.2,52.5-24.1,44.2-20.3c2.8-1.3,4.3-4,4.3-6.7s-.7-3.8-2.2-5.2l-93.7-93.7c-3.7-3.7-9.9-2.6-11.9,2.2l-20.3,44.2-24.1,52.5"/>
        <line class="st3" x1="216.6" y1="359.9" x2="137" y2="280.3"/>
        <line class="st3" x1="164.1" y1="384" x2="112.9" y2="332.9"/>
      </g>
    </g>
    <g>
      <path class="st6" d="M240.2,263.9c0-10.8,8.8-19.6,19.6-19.6"/>
      <path class="st6" d="M279.4,224.7c0,10.8-8.8,19.6-19.6,19.6"/>
      <path class="st6" d="M279.4,224.7c0-10.8,8.8-19.6,19.6-19.6"/>
      <path class="st6" d="M318.5,185.6c0,10.8-8.8,19.6-19.6,19.6"/>
    </g>
    <g>
      <path class="st3" d="M273.7,174.8c-2.6-10.5,3.8-21.1,14.2-23.7"/>
      <path class="st3" d="M302.1,127.3c2.6,10.5-3.8,21.1-14.2,23.7"/>
      <path class="st3" d="M302.1,127.3c-2.6-10.5,3.8-21.1,14.2-23.7"/>
      <path class="st3" d="M330.7,80c2.6,10.5-3.8,21.1-14.2,23.7"/>
    </g>
    <g>
      <path class="st1" d="M322.8,248.3c3.7-10.1,14.8-15.5,25.1-11.8"/>
      <path class="st1" d="M373,224.7c-3.7,10.1-14.8,15.5-25.1,11.8"/>
      <path class="st1" d="M373,224.7c3.7-10.1,14.8-15.5,25.1-11.8"/>
      <path class="st1" d="M423,201.2c-3.7,10.1-14.8,15.5-25.1,11.8"/>
    </g>
    <path class="st3" d="M272.6,292.1c28.4-18.7,66.6-11,85.3,17.4"/>
    <path class="st4" d="M207.7,231.6c21.8-26,18.4-64.9-7.8-86.7"/>
    <circle class="st0" cx="251" cy="147.9" r="9.5"/>
    <circle class="st2" cx="367.4" cy="147.9" r="9.5"/>
    <circle class="st5" cx="376.9" cy="269.4" r="9.5"/>
  </g>
</svg>