<?xml version="1.0" encoding="UTF-8"?>
<svg xmlns="http://www.w3.org/2000/svg" viewBox="0 0 500 500">
  <defs>
    <style>
      .cls-1 {
        fill: #a09dc3;
      }

      .cls-1, .cls-2, .cls-3, .cls-4, .cls-5, .cls-6 {
        stroke-width: 0px;
      }

      .cls-7 {
        fill: none;
        stroke: #231f20;
        stroke-miterlimit: 10;
        stroke-width: 5px;
      }

      .cls-2 {
        fill: #c0bed7;
      }

      .cls-3 {
        fill: #46416e;
      }

      .cls-4 {
        fill: #625d9c;
      }

      .cls-5 {
        fill: #322f4e;
      }

      .cls-6 {
        fill: #817db0;
      }
    </style>
  </defs>
  <g id="Layer_2" data-name="Layer 2">
    <rect class="cls-4" x="0" y="-.27" width="500" height="500"/>
  </g>
  <g id="Layer_1" data-name="Layer 1">
    <g>
      <g>
        <path class="cls-1" d="M395.72,129.32v194.17c0,6.11-4.95,11.06-11.06,11.06h-96.13l-18.68-18.68h100.15c3.4,0,6.15-2.75,6.15-6.15v-166.63c0-3.39-2.75-6.15-6.15-6.15h-110.3v-18.68h124.96c6.11,0,11.06,4.96,11.06,11.06Z"/>
        <path class="cls-6" d="M376.16,143.09v166.63c0,3.4-2.75,6.15-6.15,6.15h-12.9l-57.03-98.79-36.86,63.84-29.41-50.76-20.75-35.81-20.68,35.81h0s-49.49,85.72-49.49,85.72h-12.9c-3.39,0-6.15-2.75-6.15-6.15v-166.63c0-3.39,2.75-6.15,6.15-6.15h110.3v88.13c0,5.34,4.37,9.71,9.7,9.71s9.71-4.37,9.71-9.71v-88.13h110.3c3.4,0,6.15,2.75,6.15,6.15Z"/>
        <polygon class="cls-3" points="300.07 217.08 357.11 315.87 283.22 315.87 271.02 294.37 263.22 280.91 300.07 217.08"/>
        <path class="cls-5" d="M340.33,386.34c3.78,3.78,3.78,9.95,0,13.73-3.77,3.77-9.95,3.77-13.72,0l-65.53-65.53h27.45l51.8,51.8Z"/>
        <path class="cls-1" d="M288.53,334.55h-27.45l-11.08-11.08,7.02-7.03c.18-.18.36-.38.52-.58h12.3l18.68,18.68Z"/>
        <path class="cls-3" d="M271.02,294.37l12.2,21.49h-13.37l-11.52-11.52c-.36-.58-.8-1.13-1.3-1.63-1.39-1.38-3.09-2.26-4.88-2.62l11.07-19.18,7.8,13.46Z"/>
        <path class="cls-3" d="M269.85,315.87h-12.3c1.53-1.8,2.3-4.04,2.3-6.29,0-1.83-.51-3.65-1.52-5.24l11.52,11.52Z"/>
        <path class="cls-3" d="M233.81,230.15l29.41,50.76-11.07,19.18c-.7-.15-1.43-.22-2.15-.2-.06,0-.11,0-.16,0-2.49,0-4.97.94-6.86,2.83-.5.5-.94,1.05-1.31,1.63l-11.52,11.52h-87.25l49.49-85.71,7.53,26.19,13.15-17.16,8.96,9.87,11.79-18.91Z"/>
        <polygon class="cls-1" points="261.08 334.55 238.92 334.55 250 323.47 261.08 334.55"/>
        <path class="cls-6" d="M259.71,136.94v88.13c0,5.34-4.37,9.71-9.71,9.71s-9.7-4.37-9.7-9.71v-88.13h19.41Z"/>
        <rect class="cls-1" x="240.3" y="118.26" width="19.41" height="18.68"/>
        <path class="cls-5" d="M259.71,106.8v11.45h-19.41v-11.45c0-5.34,4.37-9.7,9.7-9.7,2.67,0,5.1,1.09,6.86,2.85s2.85,4.19,2.85,6.85Z"/>
        <path class="cls-3" d="M258.33,304.34c1.02,1.58,1.52,3.41,1.52,5.24,0,2.24-.77,4.49-2.3,6.29h-14.52l9.07-15.71c1.69.4,3.28,1.25,4.59,2.56l1.63,1.63Z"/>
        <path class="cls-3" d="M258.33,304.34l-1.63-1.63c-1.31-1.31-2.91-2.16-4.59-2.56l.04-.06c1.79.37,3.5,1.24,4.88,2.62.5.5.94,1.05,1.3,1.63Z"/>
        <path class="cls-1" d="M243.04,315.87h14.52c-.17.2-.34.39-.52.58l-7.02,7.03-7.03-7.03c-.18-.18-.36-.38-.52-.58h.58Z"/>
        <path class="cls-3" d="M252.14,300.09l-.04.06c-.69-.17-1.4-.25-2.11-.26.72-.02,1.44.05,2.15.2Z"/>
        <path class="cls-3" d="M252.11,300.15l-9.07,15.71h-.58c-2.79-3.27-3.05-7.99-.78-11.52l1.63-1.63c1.85-1.84,4.27-2.79,6.7-2.82.71,0,1.42.1,2.11.26Z"/>
        <path class="cls-1" d="M250,323.47l-11.08,11.08h-27.46l18.68-18.68h12.3c.16.2.34.39.52.58l7.03,7.03Z"/>
        <path class="cls-3" d="M249.84,299.89c.06,0,.11,0,.16,0-2.43.04-4.85.98-6.7,2.82l-1.63,1.63c.37-.58.81-1.13,1.31-1.63,1.89-1.88,4.37-2.83,6.86-2.83Z"/>
        <path class="cls-3" d="M242.45,315.87h-12.3l11.52-11.52c-2.27,3.54-2,8.25.78,11.52Z"/>
        <path class="cls-1" d="M240.3,118.26v18.68h-110.3c-3.39,0-6.15,2.75-6.15,6.15v166.63c0,3.4,2.75,6.15,6.15,6.15h100.15l-18.68,18.68h-96.13c-6.11,0-11.06-4.95-11.06-11.06v-194.17c0-6.11,4.95-11.06,11.06-11.06h124.96Z"/>
        <path class="cls-5" d="M238.92,334.55l-65.53,65.53c-3.78,3.77-9.95,3.77-13.73,0-3.77-3.78-3.77-9.95,0-13.73l51.8-51.8h27.46Z"/>
        <polygon class="cls-2" points="213.06 194.34 233.81 230.15 222.02 249.06 213.06 239.19 199.91 256.35 192.38 230.16 192.38 230.15 213.06 194.34"/>
      </g>
      <g>
        <path class="cls-7" d="M238.92,334.55l-65.53,65.53c-3.78,3.77-9.95,3.77-13.73,0-3.77-3.78-3.77-9.95,0-13.73l51.8-51.8"/>
        <path class="cls-7" d="M288.53,334.55l51.8,51.8c3.78,3.78,3.78,9.95,0,13.73-3.77,3.77-9.95,3.77-13.72,0l-65.53-65.53"/>
        <path class="cls-7" d="M240.3,118.26v-11.45c0-5.34,4.37-9.7,9.7-9.7,2.67,0,5.1,1.09,6.86,2.85s2.85,4.19,2.85,6.85v11.45"/>
        <path class="cls-7" d="M259.71,118.26h124.96c6.11,0,11.06,4.96,11.06,11.06v194.17c0,6.11-4.95,11.06-11.06,11.06H115.34c-6.11,0-11.06-4.95-11.06-11.06v-194.17c0-6.11,4.95-11.06,11.06-11.06h144.37Z"/>
        <path class="cls-7" d="M142.9,315.87h-12.9c-3.39,0-6.15-2.75-6.15-6.15v-166.63c0-3.39,2.75-6.15,6.15-6.15h240.01c3.4,0,6.15,2.75,6.15,6.15v166.63c0,3.4-2.75,6.15-6.15,6.15h-12.9"/>
        <polyline class="cls-7" points="263.22 280.91 300.07 217.08 357.11 315.87 283.22 315.87"/>
        <polyline class="cls-7" points="192.38 230.15 213.06 194.34 233.81 230.15 263.22 280.91 271.02 294.37"/>
        <polyline class="cls-7" points="283.22 315.87 269.85 315.87 257.55 315.87 243.04 315.87 242.45 315.87 230.15 315.87 142.9 315.87 192.38 230.16"/>
        <polyline class="cls-7" points="192.38 230.15 192.38 230.16 199.91 256.35 213.06 239.19 222.02 249.06 233.81 230.15"/>
      </g>
    </g>
  </g>
</svg>