<?xml version="1.0" encoding="UTF-8"?>
<svg xmlns="http://www.w3.org/2000/svg" viewBox="0 0 500 500">
  <defs>
    <style>
      .cls-1 {
        fill: #3c8396;
      }

      .cls-1, .cls-2, .cls-3 {
        stroke: #231f20;
        stroke-miterlimit: 10;
        stroke-width: 5px;
      }

      .cls-2 {
        fill: #9ed8d5;
      }

      .cls-4 {
        stroke-width: 0px;
      }

      .cls-4, .cls-3 {
        fill: #00af9a;
      }
    </style>
  </defs>
  <g id="Layer_2" data-name="Layer 2">
    <rect class="cls-4" width="500" height="500"/>
  </g>
  <g id="Layer_1" data-name="Layer 1">
    <g>
      <g>
        <path class="cls-1" d="M270.91,137.67l-12.97-2.17c-1.48-.25-2.68-1.31-3.13-2.74-.88-2.82-2.02-5.53-3.37-8.11-.7-1.33-.6-2.93.27-4.15l7.65-10.71-13.98-13.98-10.71,7.64c-1.22.87-2.82.97-4.15.27-2.58-1.35-5.29-2.49-8.11-3.37-1.43-.45-2.49-1.65-2.73-3.13l-2.16-12.97h-19.77l-2.17,12.97c-.25,1.48-1.31,2.68-2.74,3.13-2.82.88-5.53,2.02-8.11,3.37-1.33.7-2.93.6-4.15-.27l-10.71-7.65-13.98,13.98,7.64,10.71c.87,1.22.97,2.82.27,4.15-1.35,2.58-2.49,5.29-3.37,8.11-.45,1.43-1.65,2.49-3.13,2.73l-12.97,2.16v19.77h0s12.97,2.17,12.97,2.17c1.48.25,2.68,1.31,3.13,2.74.88,2.82,2.02,5.53,3.37,8.11.7,1.33.6,2.93-.27,4.15l-7.65,10.71,13.98,13.98s10.71-7.64,10.71-7.64c1.22-.87,2.82-.97,4.15-.27,2.58,1.35,5.29,2.49,8.11,3.37,1.43.45,2.49,1.65,2.73,3.13l2.16,12.97s19.77,0,19.77,0l2.17-12.97c.25-1.48,1.31-2.68,2.74-3.13,2.82-.89,5.53-2.02,8.11-3.37,1.33-.7,2.93-.6,4.15.27l10.71,7.65,13.98-13.98-7.64-10.71c-.87-1.22-.97-2.82-.27-4.15,1.35-2.58,2.49-5.29,3.37-8.11.45-1.43,1.65-2.49,3.13-2.73l12.97-2.16v-19.77Z"/>
        <path class="cls-2" d="M207.63,114.04c18.5,0,33.5,15,33.5,33.5s-15,33.5-33.5,33.5-33.5-15-33.5-33.5,15-33.5,33.5-33.5"/>
      </g>
      <path class="cls-3" d="M207.63,132.87c8.1,0,14.67,6.57,14.67,14.67s-6.57,14.67-14.67,14.67-14.67-6.57-14.67-14.67,6.57-14.67,14.67-14.67"/>
    </g>
    <g>
      <g>
        <path class="cls-1" d="M418.79,265.41l-22.13-.66c-2.52-.08-4.77-1.57-5.84-3.85-2.12-4.51-4.63-8.77-7.47-12.77-1.46-2.06-1.66-4.75-.49-6.99l10.33-19.6-26.5-20.14-16.13,15.19c-1.84,1.73-4.49,2.26-6.86,1.4-4.61-1.67-9.39-2.95-14.3-3.78-2.49-.42-4.53-2.19-5.27-4.6l-6.55-21.14-32.98,4.5-.66,22.13c-.08,2.52-1.57,4.77-3.85,5.84-4.51,2.12-8.77,4.63-12.77,7.47-2.06,1.46-4.75,1.66-6.99.49l-19.6-10.33-20.14,26.5,15.19,16.13c1.73,1.84,2.26,4.49,1.4,6.86-1.67,4.61-2.95,9.39-3.78,14.3-.42,2.49-2.19,4.53-4.6,5.27l-21.14,6.55,4.5,32.98h0s22.13.67,22.13.67c2.52.08,4.77,1.57,5.84,3.85,2.12,4.51,4.63,8.77,7.47,12.77,1.46,2.06,1.66,4.75.49,6.99l-10.33,19.6,26.5,20.14s16.13-15.19,16.13-15.19c1.84-1.73,4.49-2.26,6.86-1.4,4.61,1.67,9.4,2.94,14.31,3.78,2.48.42,4.53,2.19,5.27,4.6l6.55,21.14s32.98-4.5,32.98-4.5l.67-22.13c.08-2.52,1.57-4.77,3.85-5.84,4.51-2.12,8.77-4.63,12.77-7.47,2.06-1.46,4.75-1.66,6.99-.49l19.6,10.33,20.14-26.5-15.19-16.13c-1.73-1.84-2.26-4.49-1.4-6.86,1.67-4.61,2.95-9.39,3.78-14.31.42-2.49,2.19-4.53,4.6-5.27l21.14-6.55-4.5-32.98Z"/>
        <path class="cls-2" d="M307.84,240.39c30.87-4.21,59.31,17.4,63.52,48.27,4.21,30.87-17.4,59.31-48.27,63.52-30.87,4.21-59.31-17.4-63.52-48.27-4.21-30.87,17.4-59.31,48.27-63.52"/>
      </g>
      <path class="cls-3" d="M312.12,271.81c13.52-1.84,25.98,7.62,27.82,21.14,1.84,13.52-7.62,25.98-21.14,27.82-13.52,1.84-25.98-7.62-27.82-21.14-1.84-13.52,7.62-25.98,21.14-27.82"/>
    </g>
    <g>
      <g>
        <path class="cls-1" d="M199.32,261.45l-12.69-.38c-1.44-.04-2.73-.9-3.35-2.21-1.21-2.58-2.65-5.03-4.28-7.32-.84-1.18-.95-2.73-.28-4.01l5.92-11.24-15.2-11.55-9.25,8.71c-1.05.99-2.57,1.29-3.93.8-2.64-.96-5.39-1.69-8.2-2.17-1.42-.24-2.6-1.25-3.02-2.64l-3.76-12.12-18.91,2.58-.38,12.69c-.04,1.44-.9,2.73-2.21,3.35-2.58,1.21-5.03,2.65-7.32,4.28-1.18.84-2.73.95-4.01.28l-11.24-5.92-11.55,15.2,8.71,9.25c.99,1.05,1.29,2.57.8,3.93-.96,2.64-1.69,5.39-2.17,8.2-.24,1.42-1.25,2.6-2.64,3.02l-12.12,3.76,2.58,18.91h0s12.69.38,12.69.38c1.44.04,2.73.9,3.35,2.21,1.21,2.58,2.65,5.03,4.28,7.32.84,1.18.95,2.73.28,4.01l-5.92,11.24,15.2,11.55s9.25-8.71,9.25-8.71c1.05-.99,2.57-1.29,3.93-.8,2.64.96,5.39,1.69,8.2,2.17,1.42.24,2.6,1.25,3.02,2.64l3.76,12.12s18.91-2.58,18.91-2.58l.38-12.69c.04-1.44.9-2.73,2.21-3.35,2.58-1.21,5.03-2.65,7.32-4.28,1.18-.84,2.72-.95,4.01-.28l11.24,5.92,11.55-15.2-8.71-9.25c-.99-1.05-1.29-2.57-.8-3.93.96-2.64,1.69-5.39,2.17-8.2.24-1.42,1.25-2.6,2.64-3.02l12.12-3.76-2.58-18.91Z"/>
        <path class="cls-2" d="M135.71,247.11c17.7-2.41,34.01,9.98,36.42,27.68s-9.98,34.01-27.68,36.42c-17.7,2.41-34.01-9.98-36.42-27.68s9.98-34.01,27.68-36.42"/>
      </g>
      <path class="cls-3" d="M138.17,265.12c7.75-1.06,14.89,4.37,15.95,12.12s-4.37,14.89-12.12,15.95c-7.75,1.06-14.89-4.37-15.95-12.12-1.06-7.75,4.37-14.89,12.12-15.95"/>
    </g>
    <path class="cls-2" d="M378.04,110.44c0-16.39-9.54-30.56-23.37-37.25v44.79l-17.98,8.77-17.98-8.77v-44.79c-13.83,6.69-23.37,20.85-23.37,37.25,0,17.82,11.27,33.01,27.08,38.82v31.79h28.54v-31.79c15.8-5.81,27.08-21,27.08-38.82Z"/>
  </g>
</svg>