<?xml version="1.0" encoding="UTF-8"?>
<svg xmlns="http://www.w3.org/2000/svg" viewBox="0 0 500 500">
  <defs>
    <style>
      .cls-1 {
        fill: none;
        stroke-linecap: round;
      }

      .cls-1, .cls-2, .cls-3, .cls-4, .cls-5, .cls-6 {
        stroke: #231f20;
        stroke-miterlimit: 10;
        stroke-width: 5px;
      }

      .cls-2 {
        fill: #9bd4dd;
      }

      .cls-7 {
        fill: #009eac;
      }

      .cls-7, .cls-8 {
        stroke-width: 0px;
      }

      .cls-3 {
        fill: #eaecee;
      }

      .cls-4 {
        fill: #fff;
      }

      .cls-8 {
        fill: #231f20;
      }

      .cls-5 {
        fill: #9bd3dd;
      }

      .cls-6 {
        fill: #232c33;
      }
    </style>
  </defs>
  <g id="Layer_2" data-name="Layer 2">
    <rect class="cls-7" x="0" y="-.27" width="500" height="500"/>
  </g>
  <g id="Layer_1" data-name="Layer 1">
    <g>
      <g>
        <path class="cls-5" d="M284.88,302.81l35.38-26.98c4.57-3.48,10.52-5.93,16.95-6.62,8.72-.95,17.71,1.1,9.13,16.94-14.45,26.67-45.93,23.15-45.93,23.15l-15.53-6.49Z"/>
        <path class="cls-5" d="M317.34,295.39l35.38-26.98c4.57-3.48,10.52-5.93,16.95-6.62,8.72-.95,17.71,1.1,9.13,16.94-14.45,26.67-45.93,23.15-45.93,23.15l-15.53-6.49Z"/>
        <path class="cls-5" d="M342.88,292.04l37.59-23.8c4.85-3.07,11-4.99,17.46-5.13,8.77-.19,17.54,2.64,7.62,17.67-16.72,25.32-47.77,19.07-47.77,19.07l-14.9-7.81Z"/>
        <path class="cls-5" d="M191.58,340.43l115.61-9.02c20.78,1.81,41.64-1.94,60.51-10.81,27.34-12.85,63.42-31.96,64.45-43.78,1.25-14.31-50.86,3.95-76.99,13.97-9.81,3.76-20.33,5.26-30.79,4.35l-90.56-7.9c-8.51-.74-17.01,2.92-21.72,10.04-3.16,4.77-5.99,14.65-11.04,21.27-10.49,13.74-16.21,21.3-9.46,21.88Z"/>
        <g>
          <rect class="cls-3" x="169.41" y="261.19" width="42.12" height="93.1"/>
          <rect class="cls-6" x="67.83" y="248.51" width="105.36" height="119.58"/>
          <circle class="cls-8" cx="192.46" cy="332.8" r="5.18"/>
        </g>
        <path class="cls-5" d="M286.69,308.33c8.57-1.95,25.57,3.85,36.55.97,13.98-3.67,35.41,7.06,13.34,17.01-21.67,9.76-47.5,9.82-63.83,9.81-6.71,0-16.82-2.94-22.49-6.53l-17.54-11.12"/>
      </g>
      <rect class="cls-4" x="223.74" y="131.91" width="187.21" height="111.03" rx="13.09" ry="13.09"/>
      <g>
        <circle class="cls-2" cx="272.82" cy="177.23" r="12.63"/>
        <line class="cls-1" x1="310.77" y1="168.62" x2="387.06" y2="168.62"/>
        <line class="cls-1" x1="310.77" y1="187.42" x2="368.93" y2="187.42"/>
        <line class="cls-1" x1="310.77" y1="206.22" x2="376.77" y2="206.22"/>
      </g>
      <path class="cls-2" d="M272.82,189.86h0c9.54,0,17.29,7.75,17.29,17.29v9.65h-34.58v-9.65c0-9.54,7.75-17.29,17.29-17.29Z"/>
    </g>
  </g>
</svg>