<?xml version="1.0" encoding="UTF-8"?>
<svg id="Layer_1" xmlns="http://www.w3.org/2000/svg" version="1.1" viewBox="0 0 500 500">
  <!-- Generator: Adobe Illustrator 29.0.1, SVG Export Plug-In . SVG Version: 2.1.0 Build 192)  -->
  <defs>
    <style>
      .st0, .st1 {
        fill: none;
      }

      .st0, .st1, .st2, .st3, .st4 {
        stroke: #231f20;
        stroke-miterlimit: 10;
        stroke-width: 5px;
      }

      .st0, .st3 {
        stroke-linecap: round;
      }

      .st5 {
        fill: #9f9cc2;
      }

      .st6 {
        fill: #9ad2db;
      }

      .st7 {
        fill: #e0deea;
      }

      .st8, .st4 {
        fill: #032c33;
      }

      .st9 {
        fill: #d9e7f3;
      }

      .st10 {
        fill: #fff;
      }

      .st2, .st11 {
        fill: #056876;
      }

      .st12 {
        fill: #3579a2;
      }

      .st3 {
        fill: #e9ebed;
      }

      .st13 {
        fill: #009dac;
      }
    </style>
  </defs>
  <rect class="st13" x=".3" y="-.4" width="500" height="500"/>
  <g>
    <path class="st4" d="M408.7,147.9h-84.2c-1,0-2,.3-2.8.9l-31.4,23.3c-.8.6-1.8.9-2.8.9H92c-5.2,0-9.5,4.2-9.5,9.5v132.6h335.6v-157.7c0-5.2-4.2-9.5-9.5-9.5Z"/>
    <g>
      <g>
        <g>
          <path class="st9" d="M355.5,281.4l-28.8,9.7c-3.1,1-4.7,4.4-3.7,7.4l9.6,28.5,1.1,1.3c-.8.6-1.7,1.1-2.7,1.5l-153.5,51.9c-4.7,1.6-9.9-.9-11.5-5.7l-74.8-221.3c-1.6-4.7.9-9.9,5.7-11.5l183.2-61.9c4.7-1.6,9.9.9,11.5,5.7l64.8,191.6c.3.9.4,1.7.5,2.6h-1.2Z"/>
          <path class="st9" d="M355.5,281.4l-22.9,45.6-9.6-28.5c-1-3.1.6-6.4,3.7-7.4l28.8-9.7Z"/>
          <path class="st9" d="M332.6,327l22.9-45.6h1.2c0,1.4-.3,2.9-.9,4.2l-19.6,39.7c-.6,1.2-1.5,2.3-2.5,3.1l-1.1-1.3Z"/>
        </g>
        <g>
          <path class="st1" d="M333.7,328.3c-.8.6-1.7,1.1-2.7,1.5l-153.5,51.9c-4.7,1.6-9.9-.9-11.5-5.7l-74.8-221.3c-1.6-4.7.9-9.9,5.7-11.5l183.2-61.9c4.7-1.6,9.9.9,11.5,5.7l64.8,191.6c.3.9.4,1.7.5,2.6,0,1.5-.3,3-.9,4.3l-19.6,39.7c-.6,1.2-1.5,2.3-2.5,3.1Z"/>
          <path class="st1" d="M355.5,281.4l-28.8,9.7c-3.1,1-4.7,4.4-3.7,7.4l9.6,28.5"/>
        </g>
      </g>
      <g>
        <g>
          <path class="st10" d="M380,290.7c.2.9.2,1.8,0,2.7h-1.2c0,0-29.9,5.4-29.9,5.4-3.2.6-5.3,3.6-4.7,6.8l5.4,29.6.9,1.5c-.9.5-1.9.9-2.9,1.1l-159.4,29.2c-4.9.9-9.6-2.4-10.5-7.3l-42.1-229.8c-.9-4.9,2.4-9.6,7.3-10.5l190.2-34.8c4.9-.9,9.6,2.4,10.5,7.3l36.4,199Z"/>
          <path class="st11" d="M378.9,293.3l-29.3,41.8-5.4-29.6c-.6-3.2,1.5-6.2,4.7-6.8l29.9-5.5Z"/>
          <path class="st12" d="M380.1,293.4c-.2,1.5-.7,2.9-1.5,4.1l-25.1,36.4c-.8,1.1-1.8,2-2.9,2.7l-.9-1.5,29.3-41.8h1.2Z"/>
        </g>
        <g>
          <path class="st1" d="M350.5,336.6c-.9.5-1.9.9-2.9,1.1l-159.4,29.2c-4.9.9-9.6-2.4-10.5-7.3l-42.1-229.8c-.9-4.9,2.4-9.6,7.3-10.5l190.2-34.8c4.9-.9,9.6,2.4,10.5,7.3l36.4,199c.2.9.2,1.8,0,2.7-.2,1.5-.7,2.9-1.5,4.1l-25.1,36.4c-.8,1.1-1.8,2-2.9,2.7Z"/>
          <path class="st1" d="M378.9,293.3l-29.9,5.5c-3.2.6-5.3,3.6-4.7,6.8l5.4,29.6"/>
        </g>
      </g>
      <line class="st3" x1="169.3" y1="192.7" x2="327.8" y2="163.6"/>
      <line class="st3" x1="161.6" y1="151" x2="201.3" y2="143.8"/>
      <line class="st3" x1="163.8" y1="162.5" x2="190.2" y2="157.7"/>
      <line class="st3" x1="171.9" y1="207" x2="323.8" y2="179.2"/>
      <line class="st3" x1="174.5" y1="221.4" x2="339.7" y2="191.2"/>
      <line class="st3" x1="177.2" y1="235.7" x2="329.1" y2="207.9"/>
      <line class="st3" x1="179.8" y1="250.1" x2="338.3" y2="221.1"/>
      <line class="st3" x1="182.4" y1="264.5" x2="261.7" y2="250"/>
    </g>
    <rect class="st2" x="82.5" y="191.8" width="335.6" height="227" rx="9.5" ry="9.5"/>
    <g>
      <g>
        <path class="st8" d="M340.5,263.5v54.3c0,4.5-3.7,8.2-8.2,8.2h-13.8c-4.5,0-8.2-3.7-8.2-8.2v-54.3c0-4.5,3.7-8.2,8.2-8.2h13.8c4.5,0,8.2,3.7,8.2,8.2Z"/>
        <path class="st7" d="M310.4,283.5v14.3h-21.2v-14.3h21.2Z"/>
        <path class="st7" d="M283.5,328.6c3.9.5,6.9,3.8,6.9,7.8s-.9,4.1-2.3,5.6c-1.4,1.4-3.4,2.3-5.6,2.3h-15c.7-1.1,1.2-2.4,1.2-3.9v-7.9c0-1.4-.4-2.8-1.2-3.9h15c.3,0,.6,0,1,0Z"/>
        <path class="st6" d="M219.7,297.8v-38.2c0-4.8,3.9-8.7,8.7-8.7s8.7,3.9,8.7,8.7v-2.8c0-4.8,3.9-8.7,8.7-8.7s8.7,3.9,8.7,8.7v5.5c0-4.8,3.9-8.7,8.7-8.7s8.7,3.9,8.7,8.7c0-4.8,3.9-8.7,8.7-8.7s8.7,3.9,8.7,8.7v57c0,6.1-2.8,8-5.7,9.2h0c-.3,0-.6,0-1,0h-15c-1.2-1.9-3.4-3.2-5.9-3.2h-14.4c-2.5,0-4.6,1.3-5.9,3.2h-14.6c-10.3,0-15.7-15.1-18.9-23l-2.7-7.7h14.6Z"/>
        <path class="st6" d="M279,344.2l3,51.4h-56.6l3-51.4h13c1.3,1.9,3.4,3.2,5.9,3.2h14.4c2.5,0,4.6-1.3,5.9-3.2h11.5Z"/>
        <path class="st8" d="M268.7,332.4v7.9c0,1.4-.4,2.8-1.2,3.9h-26.2c-.7-1.1-1.2-2.4-1.2-3.9v-7.9c0-1.4.4-2.8,1.2-3.9h26.2c.7,1.1,1.2,2.4,1.2,3.9Z"/>
        <path class="st8" d="M267.5,328.5h-26.2c1.3-1.9,3.4-3.2,5.9-3.2h14.4c2.5,0,4.6,1.3,5.9,3.2Z"/>
        <path class="st8" d="M241.3,344.2h26.2c-1.2,1.9-3.4,3.2-5.9,3.2h-14.4c-2.5,0-4.6-1.3-5.9-3.2Z"/>
        <path class="st7" d="M226.8,328.5h14.6c-.7,1.1-1.2,2.4-1.2,3.9v7.9c0,1.4.4,2.8,1.2,3.9h-14.6c-4.3,0-7.8-3.5-7.8-7.8s.9-4.1,2.3-5.6c1.4-1.4,3.4-2.3,5.6-2.3h0Z"/>
        <polygon class="st7" points="219.7 283.5 219.7 297.8 205.1 297.8 198.5 297.8 198.5 283.5 202.5 283.5 219.7 283.5"/>
        <path class="st5" d="M219.7,276.6v6.9h-17.2c1-4.9,4.8-10.1,17.2-6.9Z"/>
        <path class="st8" d="M198.5,283.5v33.8c0,4.5-3.7,8.2-8.2,8.2h-13.8c-4.5,0-8.2-3.7-8.2-8.2v-54.3c0-4.5,3.7-8.2,8.2-8.2h13.8c4.5,0,8.2,3.7,8.2,8.2v20.5Z"/>
      </g>
      <g>
        <path class="st1" d="M267.5,328.5h15c.3,0,.6,0,1,0,3.9.5,6.9,3.8,6.9,7.8s-.9,4.1-2.3,5.6c-1.4,1.4-3.4,2.3-5.6,2.3h-15"/>
        <line class="st1" x1="226.8" y1="328.5" x2="241.3" y2="328.5"/>
        <path class="st1" d="M241.3,344.2h-14.6c-4.3,0-7.8-3.5-7.8-7.8s.9-4.1,2.3-5.6c1.4-1.4,3.4-2.3,5.6-2.3"/>
        <path class="st1" d="M289.2,283.5v-21.2"/>
        <path class="st1" d="M283.5,328.5c2.9-1.2,5.7-3.2,5.7-9.2v-21.5"/>
        <line class="st0" x1="219.7" y1="297.8" x2="219.7" y2="308.4"/>
        <polyline class="st0" points="219.7 259.6 219.7 276.6 219.7 283.5"/>
        <path class="st1" d="M202.5,283.5c1-4.9,4.8-10.1,17.2-6.9"/>
        <path class="st1" d="M226.8,328.5h0c-10.3,0-15.7-15.1-18.9-23l-2.7-7.7"/>
        <path class="st1" d="M219.7,259.6c0-4.8,3.9-8.7,8.7-8.7s8.7,3.9,8.7,8.7"/>
        <path class="st0" d="M254.4,262.3c0-4.8,3.9-8.7,8.7-8.7s8.7,3.9,8.7,8.7v7.1"/>
        <line class="st0" x1="254.4" y1="269.3" x2="254.4" y2="263.1"/>
        <path class="st1" d="M271.8,262.3c0-4.8,3.9-8.7,8.7-8.7s8.7,3.9,8.7,8.7"/>
        <path class="st0" d="M237.1,269.3v-12.5c0-4.8,3.9-8.7,8.7-8.7s8.7,3.9,8.7,8.7v6.2"/>
        <path class="st1" d="M267.5,344.2c-1.2,1.9-3.4,3.2-5.9,3.2h-14.4c-2.5,0-4.6-1.3-5.9-3.2-.7-1.1-1.2-2.4-1.2-3.9v-7.9c0-1.4.4-2.8,1.2-3.9,1.3-1.9,3.4-3.2,5.9-3.2h14.4c2.5,0,4.6,1.3,5.9,3.2.7,1.1,1.2,2.4,1.2,3.9v7.9c0,1.4-.4,2.8-1.2,3.9Z"/>
        <polyline class="st1" points="228.4 344.2 225.4 395.6 282 395.6 279 344.2"/>
        <line class="st1" x1="253.7" y1="209.1" x2="253.7" y2="223.6"/>
        <line class="st1" x1="286.3" y1="218.2" x2="277.6" y2="229.2"/>
        <line class="st1" x1="297.2" y1="248.1" x2="307" y2="241.5"/>
        <line class="st1" x1="221.3" y1="218.5" x2="228.4" y2="230.6"/>
        <line class="st1" x1="197.7" y1="240.6" x2="209.2" y2="248.1"/>
        <path class="st1" d="M310.4,297.8h-21.2v-14.3h21.2"/>
        <path class="st1" d="M310.4,283.5v-20c0-4.5,3.7-8.2,8.2-8.2h13.8c4.5,0,8.2,3.7,8.2,8.2v54.3c0,4.5-3.7,8.2-8.2,8.2h-13.8c-4.5,0-8.2-3.7-8.2-8.2v-34.3Z"/>
        <polyline class="st1" points="198.5 283.5 202.5 283.5 219.7 283.5 219.7 297.8 205.1 297.8 198.5 297.8"/>
        <path class="st1" d="M198.5,297.8v19.5c0,4.5-3.7,8.2-8.2,8.2h-13.8c-4.5,0-8.2-3.7-8.2-8.2v-54.3c0-4.5,3.7-8.2,8.2-8.2h13.8c4.5,0,8.2,3.7,8.2,8.2v34.8Z"/>
      </g>
    </g>
  </g>
</svg>