<?xml version="1.0" encoding="UTF-8"?>
<svg id="Layer_1" xmlns="http://www.w3.org/2000/svg" version="1.1" viewBox="0 0 500 500">
  <!-- Generator: Adobe Illustrator 29.0.1, SVG Export Plug-In . SVG Version: 2.1.0 Build 192)  -->
  <defs>
    <style>
      .st0 {
        fill: none;
      }

      .st0, .st1, .st2, .st3 {
        stroke: #231f20;
        stroke-miterlimit: 10;
        stroke-width: 5px;
      }

      .st4 {
        fill: #d9e7f3;
      }

      .st5 {
        fill: #fff;
      }

      .st1, .st6 {
        fill: #056876;
      }

      .st7 {
        fill: #3579a2;
      }

      .st2 {
        fill: #e9ebed;
        stroke-linecap: round;
      }

      .st3 {
        fill: #032c33;
      }

      .st8 {
        fill: #009dac;
      }
    </style>
  </defs>
  <rect class="st8" x=".3" y="-.4" width="500" height="500"/>
  <g>
    <path class="st3" d="M408.7,147.9h-84.2c-1,0-2,.3-2.8.9l-31.4,23.3c-.8.6-1.8.9-2.8.9H92c-5.2,0-9.5,4.2-9.5,9.5v132.6h335.6v-157.7c0-5.2-4.2-9.5-9.5-9.5Z"/>
    <g>
      <g>
        <g>
          <path class="st4" d="M355.5,281.4l-28.8,9.7c-3.1,1-4.7,4.4-3.7,7.4l9.6,28.5,1.1,1.3c-.8.6-1.7,1.1-2.7,1.5l-153.5,51.9c-4.7,1.6-9.9-.9-11.5-5.7l-74.8-221.3c-1.6-4.7.9-9.9,5.7-11.5l183.2-61.9c4.7-1.6,9.9.9,11.5,5.7l64.8,191.6c.3.9.4,1.7.5,2.6h-1.2Z"/>
          <path class="st4" d="M355.5,281.4l-22.9,45.6-9.6-28.5c-1-3.1.6-6.4,3.7-7.4l28.8-9.7Z"/>
          <path class="st4" d="M332.6,327l22.9-45.6h1.2c0,1.4-.3,2.9-.9,4.2l-19.6,39.7c-.6,1.2-1.5,2.3-2.5,3.1l-1.1-1.3Z"/>
        </g>
        <g>
          <path class="st0" d="M333.7,328.3c-.8.6-1.7,1.1-2.7,1.5l-153.5,51.9c-4.7,1.6-9.9-.9-11.5-5.7l-74.8-221.3c-1.6-4.7.9-9.9,5.7-11.5l183.2-61.9c4.7-1.6,9.9.9,11.5,5.7l64.8,191.6c.3.9.4,1.7.5,2.6,0,1.5-.3,3-.9,4.3l-19.6,39.7c-.6,1.2-1.5,2.3-2.5,3.1Z"/>
          <path class="st0" d="M355.5,281.4l-28.8,9.7c-3.1,1-4.7,4.4-3.7,7.4l9.6,28.5"/>
        </g>
      </g>
      <g>
        <g>
          <path class="st5" d="M380,290.7c.2.9.2,1.8,0,2.7h-1.2c0,0-29.9,5.4-29.9,5.4-3.2.6-5.3,3.6-4.7,6.8l5.4,29.6.9,1.5c-.9.5-1.9.9-2.9,1.1l-159.4,29.2c-4.9.9-9.6-2.4-10.5-7.3l-42.1-229.8c-.9-4.9,2.4-9.6,7.3-10.5l190.2-34.8c4.9-.9,9.6,2.4,10.5,7.3l36.4,199Z"/>
          <path class="st6" d="M378.9,293.3l-29.3,41.8-5.4-29.6c-.6-3.2,1.5-6.2,4.7-6.8l29.9-5.5Z"/>
          <path class="st7" d="M380.1,293.4c-.2,1.5-.7,2.9-1.5,4.1l-25.1,36.4c-.8,1.1-1.8,2-2.9,2.7l-.9-1.5,29.3-41.8h1.2Z"/>
        </g>
        <g>
          <path class="st0" d="M350.5,336.6c-.9.5-1.9.9-2.9,1.1l-159.4,29.2c-4.9.9-9.6-2.4-10.5-7.3l-42.1-229.8c-.9-4.9,2.4-9.6,7.3-10.5l190.2-34.8c4.9-.9,9.6,2.4,10.5,7.3l36.4,199c.2.9.2,1.8,0,2.7-.2,1.5-.7,2.9-1.5,4.1l-25.1,36.4c-.8,1.1-1.8,2-2.9,2.7Z"/>
          <path class="st0" d="M378.9,293.3l-29.9,5.5c-3.2.6-5.3,3.6-4.7,6.8l5.4,29.6"/>
        </g>
      </g>
      <line class="st2" x1="169.3" y1="192.7" x2="327.8" y2="163.6"/>
      <line class="st2" x1="161.6" y1="151" x2="201.3" y2="143.8"/>
      <line class="st2" x1="163.8" y1="162.5" x2="190.2" y2="157.7"/>
      <line class="st2" x1="171.9" y1="207" x2="323.8" y2="179.2"/>
      <line class="st2" x1="174.5" y1="221.4" x2="339.7" y2="191.2"/>
      <line class="st2" x1="177.2" y1="235.7" x2="329.1" y2="207.9"/>
      <line class="st2" x1="179.8" y1="250.1" x2="338.3" y2="221.1"/>
      <line class="st2" x1="182.4" y1="264.5" x2="261.7" y2="250"/>
    </g>
    <rect class="st1" x="82.5" y="191.8" width="335.6" height="227" rx="9.5" ry="9.5"/>
  </g>
  <line class="st1" x1="177" y1="278.8" x2="319.9" y2="278.8"/>
  <line class="st1" x1="177" y1="293.3" x2="319.9" y2="293.3"/>
</svg>