<?xml version="1.0" encoding="UTF-8"?>
<svg id="Layer_1" data-name="Layer 1" xmlns="http://www.w3.org/2000/svg" version="1.1" viewBox="0 0 500 500">
  <defs>
    <style>
      .cls-1 {
        fill: none;
        stroke-linejoin: round;
        stroke-width: 5px;
      }

      .cls-1, .cls-2, .cls-3, .cls-4, .cls-5 {
        stroke: #231f20;
      }

      .cls-2 {
        fill: #c0bed7;
      }

      .cls-2, .cls-3, .cls-4, .cls-5 {
        stroke-miterlimit: 10;
      }

      .cls-6 {
        fill: #625d9c;
        stroke-width: 0px;
      }

      .cls-3 {
        fill: #322f4e;
      }

      .cls-4 {
        fill: #817db0;
      }

      .cls-5 {
        fill: #a09dc3;
      }
    </style>
  </defs>
  <g id="Layer_2" data-name="Layer 2">
    <rect class="cls-6" y="-.3" width="500" height="500"/>
  </g>
  <g id="Layer_1-2" data-name="Layer 1">
    <g>
      <g>
        <polygon class="cls-2" points="402.4 275.2 402.4 337.5 351.6 361.6 351.6 299.4 402.4 275.2"/>
        <polygon class="cls-2" points="402.4 212.9 402.4 275.2 351.6 299.4 351.6 237.1 402.4 212.9"/>
        <polygon class="cls-4" points="402.4 151.6 402.4 212.9 351.6 237.1 351.6 174.9 353 174.3 402.4 151.6"/>
        <polygon class="cls-5" points="402.4 151.6 353 174.3 300.7 151.6 350.2 129.5 402.4 151.6"/>
        <polygon class="cls-5" points="351.6 174.9 302.1 197.7 249.8 174.3 300.7 151.6 353 174.3 351.6 174.9"/>
        <polygon class="cls-3" points="351.6 299.4 351.6 361.6 300.8 385.8 300.8 323.5 351.6 299.4"/>
        <polygon class="cls-3" points="351.6 237.1 351.6 299.4 300.8 323.5 300.8 261.2 351.6 237.1"/>
        <polygon class="cls-2" points="351.6 174.9 351.6 237.1 300.8 261.2 300.8 198.9 300.5 198.4 302.1 197.7 351.6 174.9"/>
        <polygon class="cls-3" points="350.2 129.5 300.7 151.6 250 129.5 299.5 108 350.2 129.5"/>
        <polygon class="cls-3" points="302.1 197.7 300.5 198.4 249.7 221.8 199.4 198.6 197.5 197.7 249.8 174.3 302.1 197.7"/>
        <polygon class="cls-5" points="300.8 323.5 300.8 385.8 250 410 250 347.7 300.8 323.5"/>
        <polygon class="cls-4" points="300.8 261.2 300.8 323.5 250 347.7 250 285.4 300.8 261.2"/>
        <polygon class="cls-5" points="300.8 198.9 300.8 261.2 250 285.4 250 223.1 249.7 221.8 300.5 198.4 300.8 198.9"/>
        <polygon class="cls-5" points="250 129.5 300.7 151.6 249.8 174.3 199.1 151.6 250 129.5"/>
        <polygon class="cls-3" points="299.5 108 250 129.5 200.6 108 250.1 87.1 299.5 108"/>
        <polygon class="cls-3" points="250 347.7 250 410 199.2 385.8 199.2 323.5 250 347.7"/>
        <polygon class="cls-2" points="250 285.4 250 347.7 199.2 323.5 199.2 261.2 250 285.4"/>
        <polygon class="cls-5" points="250 223.1 250 285.4 199.2 261.2 199.2 198.9 199.4 198.6 249.7 221.8 250 223.1"/>
        <polygon class="cls-2" points="250 129.5 199.1 151.6 149.8 129.5 200.6 108 200.6 108 250 129.5"/>
        <polygon class="cls-4" points="148.4 175 146.8 174.3 199.1 151.6 249.8 174.3 197.5 197.7 148.4 175"/>
        <polygon class="cls-2" points="197.5 197.7 199.4 198.6 199.2 198.9 199.2 261.2 148.4 237.1 148.4 175 197.5 197.7"/>
        <polygon class="cls-5" points="199.2 261.2 199.2 323.5 148.4 299.4 148.4 237.1 199.2 261.2"/>
        <polygon class="cls-4" points="199.2 323.5 199.2 385.8 148.4 361.6 148.4 299.4 199.2 323.5"/>
        <polygon class="cls-4" points="199.1 151.6 146.8 174.3 97.6 151.6 149.8 129.5 199.1 151.6"/>
        <polygon class="cls-3" points="148.4 299.4 148.4 361.6 97.6 337.5 97.6 275.2 148.4 299.4"/>
        <polygon class="cls-3" points="148.4 237.1 148.4 299.4 97.6 275.2 97.6 212.9 148.4 237.1"/>
        <polygon class="cls-3" points="148.4 175 148.4 237.1 97.6 212.9 97.6 151.6 146.8 174.3 148.4 175"/>
      </g>
      <g>
        <polyline class="cls-1" points="200.6 108 250.1 87.1 299.5 108 350.2 129.5 402.4 151.6 353 174.3 351.6 174.9 302.1 197.7 300.5 198.4 249.7 221.8 199.4 198.6 197.5 197.7 148.4 175 146.8 174.3 97.6 151.6 149.8 129.5 200.6 108"/>
        <polyline class="cls-1" points="197.5 197.7 249.8 174.3 300.7 151.6 350.2 129.5"/>
        <polyline class="cls-1" points="146.8 174.3 199.1 151.6 250 129.5 299.5 108"/>
        <polyline class="cls-1" points="200.6 108 200.6 108 250 129.5 300.7 151.6 353 174.3"/>
        <polyline class="cls-1" points="149.8 129.5 199.1 151.6 249.8 174.3 302.1 197.7"/>
        <polyline class="cls-1" points="250 410 199.2 385.8 148.4 361.6 97.6 337.5 97.6 275.2 97.6 212.9 97.6 151.6 97.6 150.6"/>
        <polyline class="cls-1" points="97.6 275.2 148.4 299.4 199.2 323.5 250 347.7"/>
        <polyline class="cls-1" points="97.6 212.9 148.4 237.1 199.2 261.2 250 285.4"/>
        <polyline class="cls-1" points="199.2 198.9 199.2 261.2 199.2 323.5 199.2 385.8"/>
        <polyline class="cls-1" points="148.4 174.8 148.4 175 148.4 237.1 148.4 299.4 148.4 361.6"/>
        <polyline class="cls-1" points="250 223.1 250 285.4 250 347.7 250 410 300.8 385.8 351.6 361.6 402.4 337.5 402.4 275.2 402.4 212.9 402.4 151.6 402.4 150.6"/>
        <polyline class="cls-1" points="402.4 275.2 351.6 299.4 300.8 323.5 250 347.7"/>
        <polyline class="cls-1" points="402.4 212.9 351.6 237.1 300.8 261.2 250 285.4"/>
        <polyline class="cls-1" points="300.8 198.9 300.8 261.2 300.8 323.5 300.8 385.8"/>
        <polyline class="cls-1" points="351.6 174.8 351.6 174.9 351.6 237.1 351.6 299.4 351.6 361.6"/>
      </g>
    </g>
  </g>
</svg>