<?xml version="1.0" encoding="UTF-8"?>
<svg xmlns="http://www.w3.org/2000/svg" viewBox="0 0 500 500">
  <defs>
    <style>
      .cls-1 {
        fill: #00ab9b;
        stroke-width: 0px;
      }

      .cls-2 {
        fill: #078b7c;
      }

      .cls-2, .cls-3 {
        stroke: #231f20;
        stroke-miterlimit: 10;
        stroke-width: 5px;
      }

      .cls-3 {
        fill: #b6e1df;
      }
    </style>
  </defs>
  <g id="Layer_2" data-name="Layer 2">
    <rect class="cls-1" width="500" height="500"/>
  </g>
  <g id="Layer_1" data-name="Layer 1">
    <rect class="cls-2" x="104.28" y="104.28" width="291.44" height="291.44" rx="12.84" ry="12.84"/>
    <path class="cls-3" d="M188.16,208.07c0-7.83,2.51-15.77,7.54-23.81,5.03-8.04,12.37-14.7,22.02-19.97,9.65-5.28,20.9-7.92,33.77-7.92,11.95,0,22.51,2.21,31.66,6.62,9.15,4.41,16.22,10.41,21.21,18,4.99,7.59,7.48,15.83,7.48,24.74,0,7.01-1.42,13.15-4.27,18.43-2.84,5.28-6.23,9.83-10.14,13.67-3.92,3.83-10.95,10.29-21.09,19.36-2.8,2.56-5.05,4.8-6.74,6.74-1.69,1.94-2.95,3.71-3.77,5.32-.83,1.61-1.47,3.22-1.92,4.82-.45,1.61-1.14,4.43-2.04,8.47-1.57,8.58-6.47,12.86-14.72,12.86-4.29,0-7.9-1.4-10.82-4.21-2.93-2.8-4.39-6.97-4.39-12.49,0-6.93,1.07-12.92,3.22-18,2.14-5.07,4.99-9.52,8.53-13.36,3.54-3.83,8.33-8.39,14.35-13.67,5.28-4.62,9.09-8.1,11.44-10.45,2.35-2.35,4.33-4.97,5.94-7.85,1.61-2.89,2.41-6.02,2.41-9.4,0-6.6-2.46-12.16-7.36-16.7-4.91-4.53-11.24-6.8-18.99-6.8-9.07,0-15.75,2.29-20.04,6.86-4.29,4.58-7.92,11.32-10.88,20.22-2.8,9.32-8.12,13.98-15.96,13.98-4.62,0-8.51-1.63-11.69-4.89-3.18-3.26-4.76-6.78-4.76-10.57ZM248.52,343.63c-5.03,0-9.42-1.63-13.17-4.89-3.75-3.26-5.63-7.81-5.63-13.67,0-5.19,1.81-9.56,5.44-13.11,3.63-3.54,8.08-5.32,13.36-5.32s9.56,1.77,13.11,5.32c3.54,3.55,5.32,7.92,5.32,13.11,0,5.77-1.85,10.31-5.57,13.61-3.71,3.3-8,4.95-12.86,4.95Z"/>
  </g>
</svg>