<?xml version="1.0" encoding="UTF-8"?>
<svg id="Layer_1" xmlns="http://www.w3.org/2000/svg" version="1.1" viewBox="0 0 500 500">
  <!-- Generator: Adobe Illustrator 29.0.1, SVG Export Plug-In . SVG Version: 2.1.0 Build 192)  -->
  <defs>
    <style>
      .st0 {
        stroke-linecap: round;
      }

      .st0, .st1 {
        fill: none;
      }

      .st0, .st1, .st2 {
        stroke: #231f20;
        stroke-miterlimit: 10;
        stroke-width: 5px;
      }

      .st3 {
        fill: #5eb3e4;
      }

      .st4 {
        fill: #3c6b92;
      }

      .st5 {
        fill: #9f9cc2;
      }

      .st6 {
        fill: #e0deea;
      }

      .st2 {
        fill: #e9ebed;
      }

      .st7 {
        fill: #a0cae4;
      }
    </style>
  </defs>
  <rect class="st3" x="0" width="500" height="500"/>
  <g>
    <path class="st1" d="M98.6,222c25.7-85.8,116.1-134.5,201.9-108.8"/>
    <path class="st1" d="M401.4,303.1c-25.7,85.8-116.1,134.5-201.9,108.8"/>
    <polygon class="st2" points="308.8 95.8 321.4 109.2 334 122.6 316.1 126.8 298.3 131 303.6 113.4 308.8 95.8"/>
    <polygon class="st2" points="194.2 429.5 181.6 416.1 169 402.8 186.9 398.6 204.8 394.3 199.5 411.9 194.2 429.5"/>
  </g>
  <g>
    <g>
      <path class="st6" d="M374.2,334.4h0s-224.9,0-224.9,0c-5.5,0-10.4-2.2-14-5.8-3.6-3.6-5.8-8.5-5.8-14,0-11,8.9-19.8,19.8-19.8h224.9c-10.8.2-19.5,9-19.5,19.8s8.7,19.7,19.5,19.8Z"/>
      <path class="st7" d="M358,201.1l-31.2,11.7v-9.6h-149.8v.5c-4.8.7-9.3,2.1-13.6,4l-17.6-6.6,106.1-35.6,106.1,35.6Z"/>
      <path class="st6" d="M251.8,273.7c31.8,0,58.9-4.7,69.8-11.4h28.1c-8.9.1-16,7.4-16,16.3s7.2,16.1,16,16.2h0s-184.4,0-184.4,0c-4.5,0-8.6-1.8-11.5-4.8-2.9-2.9-4.8-7-4.8-11.5,0-9,7.3-16.3,16.3-16.3h16.6c10.9,6.7,38,11.4,69.8,11.4Z"/>
      <path class="st4" d="M326.7,212.8v42.9c0,2.3-1.8,4.5-5.1,6.5h-139.6c-3.3-2-5.1-4.2-5.1-6.5v-42.9l74.9,28,74.9-28Z"/>
      <path class="st7" d="M326.7,203.2v9.6l-74.9,28-74.9-28v-9.1c2.4-.3,4.8-.5,7.2-.5h142.6Z"/>
      <path class="st4" d="M182,262.3h139.6c-10.9,6.7-38,11.4-69.8,11.4s-58.9-4.7-69.8-11.4Z"/>
      <path class="st7" d="M176.9,203.2h7.2c-2.5,0-4.9.2-7.2.5v-.5Z"/>
      <path class="st7" d="M176.9,203.7v9.1l-13.6-5.1c4.2-1.9,8.8-3.3,13.6-4Z"/>
      <path class="st5" d="M134.9,244.7c4.3.4,7.7,4,7.7,8.4s-3.8,8.4-8.4,8.4v-8.4c0-2.9.2-5.7.7-8.4Z"/>
      <path class="st5" d="M134.2,244.7c.2,0,.5,0,.7,0-.5,2.7-.7,5.5-.7,8.4v8.4c-4.7,0-8.4-3.8-8.4-8.4s3.8-8.4,8.4-8.4Z"/>
    </g>
    <g>
      <path class="st1" d="M182,262.3h-16.6c-9,0-16.3,7.3-16.3,16.3s1.8,8.6,4.8,11.5c2.9,2.9,7,4.8,11.5,4.8"/>
      <path class="st1" d="M349.8,294.8h0c-8.9-.2-16-7.4-16-16.3s7.2-16.1,16-16.2h0s-28.1,0-28.1,0"/>
      <line class="st0" x1="263.7" y1="283.4" x2="174.4" y2="283.4"/>
      <polyline class="st0" points="334.1 273.7 251.8 273.7 245.2 273.7"/>
      <path class="st1" d="M165.4,294.8h-16.1c-11,0-19.8,8.9-19.8,19.8s2.2,10.4,5.8,14c3.6,3.6,8.5,5.8,14,5.8h224.9c-10.8-.2-19.5-9-19.5-19.8s8.7-19.7,19.5-19.8h0s-24.4,0-24.4,0h-184.4Z"/>
      <line class="st0" x1="269.3" y1="320.5" x2="160.3" y2="320.5"/>
      <line class="st0" x1="355.1" y1="308.7" x2="246.6" y2="308.7"/>
      <path class="st1" d="M176.9,212.8v42.9c0,2.3,1.8,4.5,5.1,6.5,10.9,6.7,38,11.4,69.8,11.4s58.9-4.7,69.8-11.4c3.3-2,5.1-4.2,5.1-6.5v-42.9"/>
      <polygon class="st1" points="326.7 212.8 251.8 240.8 176.9 212.8 163.3 207.7 145.7 201.1 251.8 165.5 358 201.1 326.7 212.8"/>
      <line class="st0" x1="134.2" y1="261.6" x2="134.2" y2="273.7"/>
      <path class="st0" d="M184.1,203.2c-2.5,0-4.9.2-7.2.5-4.8.7-9.3,2.1-13.6,4-14.7,6.8-25.6,20.5-28.4,37"/>
      <path class="st1" d="M134.9,244.7c4.3.4,7.7,4,7.7,8.4s-3.8,8.4-8.4,8.4-8.4-3.8-8.4-8.4,3.8-8.4,8.4-8.4.5,0,.7,0Z"/>
    </g>
  </g>
</svg>