<?xml version="1.0" encoding="UTF-8"?>
<svg id="Layer_1" xmlns="http://www.w3.org/2000/svg" version="1.1" viewBox="0 0 500 500">
  <!-- Generator: Adobe Illustrator 29.0.1, SVG Export Plug-In . SVG Version: 2.1.0 Build 192)  -->
  <defs>
    <style>
      .st0 {
        fill: #322f4e;
      }

      .st0, .st1, .st2, .st3, .st4 {
        stroke: #231f20;
        stroke-miterlimit: 10;
        stroke-width: 5px;
      }

      .st1 {
        stroke-linecap: round;
      }

      .st1, .st3 {
        fill: none;
      }

      .st5 {
        fill: #625d9c;
      }

      .st2 {
        fill: #bfbdd6;
      }

      .st6 {
        fill: #807daf;
      }

      .st4 {
        fill: #e9ebed;
      }
    </style>
  </defs>
  <rect class="st5" x="0" y="-.2" width="500" height="500"/>
  <g>
    <path class="st3" d="M98.7,209.4c25.7-85.8,116.1-134.5,201.9-108.8"/>
    <path class="st3" d="M401.5,290.5c-25.7,85.8-116.1,134.5-201.9,108.8"/>
    <polygon class="st4" points="308.9 83.2 321.5 96.6 334.1 110 316.2 114.2 298.4 118.4 303.6 100.8 308.9 83.2"/>
    <polygon class="st4" points="194.3 416.9 181.7 403.5 169.1 390.2 187 386 204.9 381.7 199.6 399.3 194.3 416.9"/>
  </g>
  <g>
    <g>
      <g>
        <g>
          <path class="st6" d="M250.1,180.6v137.6h-109v-125.9c0-6.5,5.3-11.7,11.7-11.7h97.2Z"/>
          <path class="st3" d="M250.1,318.2h-109v-125.9c0-6.5,5.3-11.7,11.7-11.7h97.2v137.6Z"/>
        </g>
        <path class="st2" d="M152.8,309.3h97.2v23.5h-97.2c-6.5,0-11.7-5.3-11.7-11.7h0c0-6.5,5.3-11.7,11.7-11.7Z"/>
        <polygon class="st0" points="176.1 343.1 164.2 335.4 152.4 343.1 152.4 322.4 176.1 322.4 176.1 343.1"/>
        <line class="st1" x1="159.9" y1="180.6" x2="159.9" y2="309.3"/>
      </g>
      <rect class="st0" x="181.2" y="203.3" width="48.5" height="31.6"/>
      <line class="st1" x1="181.2" y1="261.4" x2="229.6" y2="261.4"/>
      <line class="st1" x1="181.2" y1="251.9" x2="229.6" y2="251.9"/>
    </g>
    <g>
      <g>
        <g>
          <path class="st6" d="M359.1,180.6v137.6h-109v-125.9c0-6.5,5.3-11.7,11.7-11.7h97.2Z"/>
          <path class="st3" d="M359.1,318.2h-109v-125.9c0-6.5,5.3-11.7,11.7-11.7h97.2v137.6Z"/>
        </g>
        <path class="st2" d="M261.8,309.3h97.2v23.5h-97.2c-6.5,0-11.7-5.3-11.7-11.7h0c0-6.5,5.3-11.7,11.7-11.7Z"/>
        <polygon class="st0" points="285 343.1 273.2 335.4 261.3 343.1 261.3 322.4 285 322.4 285 343.1"/>
        <line class="st1" x1="268.9" y1="180.6" x2="268.9" y2="309.3"/>
      </g>
      <rect class="st0" x="290.1" y="203.3" width="48.5" height="31.6"/>
      <line class="st1" x1="290.1" y1="261.4" x2="338.6" y2="261.4"/>
      <line class="st1" x1="290.1" y1="251.9" x2="338.6" y2="251.9"/>
    </g>
    <g>
      <g>
        <g>
          <path class="st6" d="M304.6,157v137.6h-109v-125.9c0-6.5,5.3-11.7,11.7-11.7h97.2Z"/>
          <path class="st3" d="M304.6,294.6h-109v-125.9c0-6.5,5.3-11.7,11.7-11.7h97.2v137.6Z"/>
        </g>
        <path class="st2" d="M207.3,285.7h97.2v23.5h-97.2c-6.5,0-11.7-5.3-11.7-11.7h0c0-6.5,5.3-11.7,11.7-11.7Z"/>
        <polygon class="st0" points="230.5 319.6 218.7 311.8 206.9 319.6 206.9 298.8 230.5 298.8 230.5 319.6"/>
        <line class="st1" x1="214.4" y1="157" x2="214.4" y2="285.7"/>
      </g>
      <rect class="st0" x="235.7" y="179.7" width="48.5" height="31.6"/>
      <line class="st1" x1="235.7" y1="237.8" x2="284.1" y2="237.8"/>
      <line class="st1" x1="235.7" y1="228.3" x2="284.1" y2="228.3"/>
    </g>
  </g>
</svg>