<?xml version="1.0" encoding="UTF-8"?>
<svg id="Layer_1" xmlns="http://www.w3.org/2000/svg" version="1.1" viewBox="0 0 500 500">
  <!-- Generator: Adobe Illustrator 29.0.1, SVG Export Plug-In . SVG Version: 2.1.0 Build 192)  -->
  <defs>
    <style>
      .st0 {
        fill: #03463f;
      }

      .st1 {
        fill: #068a7c;
      }

      .st2 {
        fill: #05342e;
      }

      .st2, .st3, .st4 {
        stroke: #231f20;
        stroke-miterlimit: 10;
        stroke-width: 5px;
      }

      .st3 {
        fill: none;
      }

      .st5 {
        fill: #83cec8;
      }

      .st6 {
        fill: #00aa9a;
      }

      .st7, .st4 {
        fill: #b5e0de;
      }
    </style>
  </defs>
  <rect class="st6" x=".3" y="-.4" width="500" height="500"/>
  <g>
    <g>
      <g>
        <polygon class="st0" points="109 92.4 109 344.9 179.7 344.9 179.7 142.3 179.7 92.4 109 92.4"/>
        <polygon class="st1" points="179.7 142.3 179.7 344.9 250.3 344.9 250.3 190.8 250.3 142.3 179.7 142.3"/>
        <polygon class="st5" points="250.3 190.8 250.3 344.9 321 344.9 321 246.8 321 190.8 250.3 190.8"/>
        <rect class="st7" x="321" y="246.8" width="70.7" height="98.1"/>
      </g>
      <g>
        <polyline class="st3" points="321 246.8 391.7 246.8 391.7 344.9 321 344.9"/>
        <polyline class="st3" points="250.3 190.8 321 190.8 321 246.8 321 344.9 250.3 344.9"/>
        <polyline class="st3" points="179.7 142.3 250.3 142.3 250.3 190.8 250.3 344.9 179.7 344.9"/>
        <polygon class="st3" points="179.7 344.9 109 344.9 109 92.4 179.7 92.4 179.7 142.3 179.7 344.9"/>
      </g>
    </g>
    <line class="st3" x1="360.7" y1="92.4" x2="360.7" y2="240"/>
    <polyline class="st3" points="383.7 219.4 360.7 242.4 337.6 219.4"/>
    <path class="st2" d="M237.6,238l-85,147.3c-5.5,9.5,1.4,21.5,12.4,21.5h170.1c11,0,17.9-11.9,12.4-21.5l-85-147.3c-5.5-9.5-19.3-9.5-24.8,0l-85,147.3c-5.5,9.5,1.4,21.5,12.4,21.5h170.1c11,0,17.9-11.9,12.4-21.5l-85-147.3c-5.5-9.5-19.3-9.5-24.8,0Z"/>
    <path class="st4" d="M250.3,284.6c3.1,0,5.6.9,7.4,2.8,1.9,1.9,2.8,4.3,2.8,7.3s-.2,6.9-.5,12c-.3,5.1-.8,10.6-1.5,16.6-.7,6-1.5,12-2.5,18.3-1,6.2-2.2,11.9-3.5,17.2-.2.4-.5.7-.9.9-.4.2-.8.3-1.3.3s-1-.1-1.4-.3c-.4-.2-.7-.5-.9-.9-1.3-5.2-2.5-11-3.5-17.2-1-6.2-1.8-12.3-2.5-18.3-.7-6-1.2-11.5-1.5-16.6-.3-5.1-.5-9.1-.5-12s.9-5.4,2.8-7.3c1.9-1.9,4.3-2.8,7.3-2.8ZM250.5,363.7c2,0,3.7.7,5.1,2.1,1.4,1.4,2.1,3.1,2.1,5.1s-.7,3.6-2.1,5-3.1,2.1-5.1,2.1-3.6-.7-5-2.1c-1.4-1.4-2.1-3.1-2.1-5s.7-3.7,2.1-5.1c1.4-1.4,3.1-2.1,5-2.1Z"/>
  </g>
</svg>