<?xml version="1.0" encoding="UTF-8"?>
<svg id="Layer_1" xmlns="http://www.w3.org/2000/svg" version="1.1" viewBox="0 0 500 500">
  <!-- Generator: Adobe Illustrator 29.0.1, SVG Export Plug-In . SVG Version: 2.1.0 Build 192)  -->
  <defs>
    <style>
      .st0 {
        fill: #03463f;
      }

      .st1, .st2 {
        stroke-linecap: round;
      }

      .st1, .st2, .st3 {
        stroke-width: 5px;
      }

      .st1, .st2, .st3, .st4, .st5 {
        stroke: #231f20;
        stroke-miterlimit: 10;
      }

      .st1, .st3 {
        fill: none;
      }

      .st6 {
        fill: #5eb3e4;
      }

      .st7 {
        fill: #231f20;
      }

      .st8 {
        fill: #3c6b92;
      }

      .st2, .st9, .st5 {
        fill: #1b3648;
      }

      .st10 {
        fill: #032c33;
      }

      .st11 {
        fill: #fff;
      }

      .st4, .st12 {
        fill: #a0cae4;
      }

      .st13 {
        fill: #056876;
      }

      .st14 {
        fill: #b5e0de;
      }
    </style>
  </defs>
  <rect class="st6" x=".3" y="-.4" width="500" height="500"/>
  <g>
    <g>
      <g>
        <g>
          <polygon class="st9" points="147.2 92.6 147.2 278.7 199.3 278.7 199.3 129.4 199.3 92.6 147.2 92.6"/>
          <polygon class="st8" points="199.3 129.4 199.3 278.7 251.3 278.7 251.3 165.1 251.3 129.4 199.3 129.4"/>
          <polygon class="st12" points="251.3 165.1 251.3 278.7 303.4 278.7 303.4 206.4 303.4 165.1 251.3 165.1"/>
          <rect class="st11" x="303.4" y="206.4" width="52.1" height="72.3"/>
        </g>
        <g>
          <polyline class="st3" points="303.4 206.4 355.5 206.4 355.5 278.7 303.4 278.7"/>
          <polyline class="st3" points="251.3 165.1 303.4 165.1 303.4 206.4 303.4 278.7 251.3 278.7"/>
          <polyline class="st3" points="199.3 129.4 251.3 129.4 251.3 165.1 251.3 278.7 199.3 278.7"/>
          <polygon class="st3" points="199.3 278.7 147.2 278.7 147.2 92.6 199.3 92.6 199.3 129.4 199.3 278.7"/>
        </g>
      </g>
      <line class="st3" x1="332.7" y1="92.6" x2="332.7" y2="201.4"/>
      <polyline class="st3" points="349.6 186.2 332.7 203.2 315.7 186.2"/>
    </g>
    <g>
      <g>
        <g>
          <path class="st5" d="M329.5,312.6c0,12.9,7.7,23.9,18.7,28.9h0s.2,15,.2,15c-7.6.2-13.7,1.3-18.9,3.2h0v-47.1h0Z"/>
          <path class="st5" d="M392.7,312.6v47c-5.1-2-11.2-3.3-18.7-3.4l-.2-14.6c3.6-1.6,6.9-3.9,9.7-6.6,5.7-5.7,9.3-13.6,9.3-22.4Z"/>
          <path class="st4" d="M372.2,281.3c0,12.2,20.5,9.1,20.5,9.1v22.2c0,8.7-3.5,16.6-9.3,22.4-2.8,2.8-6.1,5-9.7,6.6-3.9,1.7-8.2,2.6-12.7,2.6s-9-1-12.9-2.7c-11-4.9-18.7-16-18.7-28.9v-22.2c27.2-.3,42.7-9.1,42.7-9.1Z"/>
          <path class="st8" d="M329.5,407.1h-28.2s5.9-33.9,20.5-43.4c2.4-1.5,4.9-2.9,7.8-3.9,5.2-2,11.3-3.1,18.9-3.2,3.8,2.5,8.2,3.8,12.5,3.8s9.1-1.4,13-4.2c7.6.2,13.6,1.4,18.7,3.4,2.8,1.1,5.4,2.5,7.7,4.1,14.8,9.8,20.5,43.4,20.5,43.4h-91.5Z"/>
          <path class="st4" d="M401.9,293.9c2.1,2.1,3.4,5,3.4,8.3,0,6.5-5.2,11.7-11.7,11.7h-.8v-23.4h.8c3.2,0,6.2,1.3,8.3,3.4Z"/>
          <path class="st4" d="M373.8,341.6l.2,14.6c-3.9,2.8-8.5,4.2-13,4.2s-8.7-1.3-12.5-3.8l-.2-15h0c3.9,1.7,8.3,2.7,12.9,2.7,4.5,0,8.8-.9,12.7-2.6Z"/>
          <path class="st4" d="M329.5,290.8v23.1h-.9c-3.2,0-6.2-1.3-8.3-3.4-2.1-2.1-3.4-5-3.4-8.3,0-6.5,5.2-11.7,11.7-11.7h.9v.3Z"/>
        </g>
        <g>
          <path class="st1" d="M348.4,356.6c-7.6.2-13.7,1.3-18.9,3.2-2.8,1.1-5.4,2.4-7.8,3.9-14.6,9.5-20.5,43.4-20.5,43.4h61.6"/>
          <path class="st1" d="M362.9,407.1h58.1s-5.7-33.6-20.5-43.4c-2.4-1.6-4.9-2.9-7.7-4.1-5.1-2-11.2-3.3-18.7-3.4"/>
          <path class="st1" d="M329.5,312.6c0,12.9,7.7,23.9,18.7,28.9,3.9,1.8,8.3,2.7,12.9,2.7s8.8-.9,12.7-2.6c3.6-1.6,6.9-3.9,9.7-6.6,5.7-5.7,9.3-13.6,9.3-22.4"/>
          <path class="st2" d="M329.5,290.5c27.2-.3,42.7-9.1,42.7-9.1,0,12.2,20.5,9.1,20.5,9.1v-15.8c0-2-.3-3.9-.9-5.7-3.3-10.8-15.8-18.8-30.8-18.8s-27.4,8-30.8,18.8c-.6,1.8-.9,3.7-.9,5.7v15.8"/>
          <path class="st1" d="M329.5,290.5h-.9c-6.5,0-11.7,5.2-11.7,11.7s1.3,6.2,3.4,8.3c2.1,2.1,5,3.4,8.3,3.4h.8v-23.4Z"/>
          <path class="st1" d="M392.7,313.9h.8c6.5,0,11.7-5.2,11.7-11.7s-1.3-6.2-3.4-8.3c-2.1-2.1-5.1-3.4-8.3-3.4h-.8v23.4Z"/>
          <path class="st1" d="M373.8,341.6h0s.2,14.6.2,14.6c-3.9,2.8-8.5,4.2-13,4.2s-8.7-1.3-12.5-3.8l-.2-15"/>
          <line class="st1" x1="392.7" y1="313.9" x2="392.7" y2="359.7"/>
          <line class="st1" x1="329.5" y1="313.9" x2="329.5" y2="359.7"/>
        </g>
      </g>
      <circle class="st7" cx="345.7" cy="302.3" r="3.6"/>
      <circle class="st7" cx="376.5" cy="302.3" r="3.6"/>
      <path class="st1" d="M372.9,317c0,6.5-5.3,11.8-11.8,11.8s-11.8-5.3-11.8-11.8"/>
    </g>
    <g>
      <g>
        <g>
          <path class="st8" d="M201.7,407.1h-122s6-34.5,20.9-44.2c6.8-4.5,15.3-7,27.2-7.3,3.9,2.6,8.3,3.9,12.8,3.9s9.3-1.4,13.3-4.3c11.9.2,20.1,3.1,26.9,7.6,15.1,10,20.9,44.2,20.9,44.2Z"/>
          <path class="st9" d="M173,282.5l6.7,64.7h-25.9v-6.8c11.3-5,19.2-16.3,19.2-29.5v-28.4Z"/>
          <path class="st12" d="M153.6,340.4c-4,1.7-8.3,2.7-12.9,2.7s-9.1-1-13.1-2.8c-3.6-1.6-6.9-3.9-9.6-6.6-5.8-5.8-9.4-13.9-9.4-22.8v-25.2h11l4-6.2,4.1,6.2h45.4v25.2c0,13.2-8,24.6-19.3,29.5ZM159.1,300.9c0-1.9-1.6-3.5-3.5-3.5s-3.5,1.6-3.5,3.5,1.6,3.5,3.5,3.5,3.5-1.6,3.5-3.5ZM129.4,300.9c0-1.9-1.6-3.5-3.5-3.5s-3.5,1.6-3.5,3.5,1.6,3.5,3.5,3.5,3.5-1.6,3.5-3.5Z"/>
          <path class="st9" d="M173,285.6h-45.4l-4.1-6.2-4,6.2h-11c0-20.9,14.4-35.4,32.2-35.4s32.2,14.4,32.2,35.4Z"/>
          <path class="st7" d="M155.6,297.3c1.9,0,3.5,1.6,3.5,3.5s-1.6,3.5-3.5,3.5-3.5-1.6-3.5-3.5,1.6-3.5,3.5-3.5Z"/>
          <path class="st12" d="M153.8,347.1v8.1c-3.8,2.8-8.5,4.3-13.2,4.3s-8.9-1.3-12.8-3.9v-8.5c-.1,0-.2-6.9-.2-6.9h0c4,1.8,8.5,2.8,13.1,2.8s9-1,12.9-2.7v6.8Z"/>
          <path class="st7" d="M125.9,297.3c1.9,0,3.5,1.6,3.5,3.5s-1.6,3.5-3.5,3.5-3.5-1.6-3.5-3.5,1.6-3.5,3.5-3.5Z"/>
          <path class="st9" d="M127.6,340.3v6.9c.1,0,0,0,0,0h-25.8l6.6-64.7v28.4c0,8.9,3.6,17,9.4,22.8,2.8,2.8,6,5,9.6,6.6h0Z"/>
        </g>
        <g>
          <path class="st1" d="M127.8,355.6c-11.9.2-20.4,2.8-27.2,7.3-14.9,9.7-20.9,44.2-20.9,44.2h62.8"/>
          <path class="st1" d="M142.5,407.1h59.2s-5.8-34.2-20.9-44.2c-6.8-4.5-15-7.4-26.9-7.6"/>
          <path class="st1" d="M173,282.5v28.4c0,13.2-8,24.6-19.3,29.5-4,1.7-8.3,2.7-12.9,2.7s-9.1-1-13.1-2.8c-3.6-1.6-6.9-3.9-9.6-6.6-5.8-5.8-9.4-13.9-9.4-22.8v-28.4"/>
          <path class="st1" d="M153.6,340.3h0s.1,6.8.1,6.8v8.1c-3.8,2.8-8.5,4.3-13.2,4.3s-8.9-1.3-12.8-3.9v-8.5c-.1,0-.2-6.9-.2-6.9"/>
          <path class="st1" d="M108.5,285.6h11l4-6.2,4.1,6.2h45.4c0-20.9-14.4-35.4-32.2-35.4s-32.2,14.4-32.2,35.4Z"/>
          <polyline class="st1" points="173 282.5 179.7 347.1 153.9 347.1"/>
          <polyline class="st1" points="108.5 282.5 101.9 347.1 127.6 347.1"/>
        </g>
      </g>
      <path class="st1" d="M139,329.9c-6.3,0-11.4-5.1-11.4-11.4"/>
    </g>
    <g>
      <g>
        <path class="st8" d="M312.7,407.1h-123.6s0,0,0,0c.1-.8,1.7-9.2,4.9-18.7,2.9-8.4,7.1-17.7,12.9-23.4.2-.2.4-.4.6-.6.4-.4.9-.8,1.3-1.1h0c.5-.4.9-.7,1.4-1h0c6.9-4.5,15.5-7.1,27.5-7.4h0c3.9,2.6,8.4,3.9,12.9,3.9s9.4-1.4,13.5-4.3c2.6,0,5.1.2,7.4.5h0c.7,0,1.3.2,1.9.3,3.5.6,6.6,1.4,9.5,2.5.5.2,1,.4,1.5.6h0c2.5,1.1,4.8,2.3,7,3.8,1.4.9,2.8,2.1,4.1,3.4,0,0,0,0,0,0,1.3,1.3,2.5,2.8,3.6,4.4.2.3.4.5.6.8.4.6.7,1.1,1.1,1.7t0,0c1.2,2,2.3,4.1,3.3,6.3h0c.6,1.3,1.1,2.5,1.6,3.8,0,0,0,0,0,0,.8,1.9,1.5,3.8,2.1,5.7.1.3.2.6.3.9t0,0c.2.5.3.9.4,1.4,0,0,0,0,0,0,0,.3.2.6.3.9,0,.2,0,.3.1.5.1.4.3.9.4,1.3,0,.1,0,.3.1.4,0,.3.2.6.2.9h0c0,.3.2.6.2.8,0,.3.2.5.2.8.1.4.2.8.3,1.2,0,.4.2.8.3,1.1,1.3,5,1.8,8.4,1.8,8.4Z"/>
        <path class="st14" d="M296.6,298.8h0s0,0,0,0c0-.8,0-1.7-.2-2.4h0c.2.8.2,1.6.2,2.4Z"/>
        <path class="st14" d="M296.5,298.8h0c0,1.3-.2,2.5-.5,3.6.3-1.1.5-2.3.5-3.6Z"/>
        <path class="st12" d="M296.3,296.3c.2.8.2,1.6.2,2.4,0,1.3-.2,2.5-.5,3.6-.6,1.9-1.6,3.6-3,5-.3.3-.6.5-.9.8-1.2,1-2.6,1.7-4.1,2.2-1.1.3-2.3.5-3.6.5h-.9v-1.3h0v-22.6h0v-.3h.9c1.7,0,3.3.3,4.7,1,.9.4,1.8.9,2.5,1.5.5.3.9.7,1.3,1.1s.5.6.8.9c.7.9,1.4,1.9,1.8,3,.3.7.5,1.5.7,2.3Z"/>
        <path class="st14" d="M296.3,296.3h0c-.2-.8-.4-1.5-.7-2.3h0c.3.7.5,1.5.7,2.3Z"/>
        <path class="st14" d="M293.8,291.1c.7.9,1.4,1.9,1.8,3h0c-.5-1.1-1.1-2.1-1.8-3h0Z"/>
        <path class="st14" d="M293.8,291.1h0c-.3-.3-.5-.6-.8-.9-.4-.4-.9-.8-1.3-1.1h0c.5.3.9.7,1.3,1.1s.5.6.8.9Z"/>
        <path class="st14" d="M291.7,289.1h0c-.8-.6-1.6-1.1-2.5-1.4h0c.9.4,1.8.9,2.5,1.4Z"/>
        <path class="st14" d="M289.2,287.6h0c-1.4-.6-3-.9-4.7-.9h0c1.7,0,3.3.3,4.7.9Z"/>
        <polygon class="st14" points="284.5 286.6 284.5 286.7 284.5 286.7 283.6 286.7 283.6 286.6 284.5 286.6 284.5 286.6"/>
        <polygon class="st14" points="283.6 309.6 283.6 309.6 283.6 309.6 283.6 287 283.6 287 283.6 309.6"/>
        <rect class="st14" x="283.6" y="287" width="0" height="0"/>
        <polygon class="st14" points="283.6 287 283.6 287 283.6 287 283.6 286.7 283.6 286.7 283.6 287"/>
        <rect class="st14" x="283.6" y="286.6" width="0" height="0"/>
        <path class="st10" d="M283.6,286.6h0s0,0,0,0c-14-.2-25.1-2.5-32.6-4.8h0c7.5,2.3,18.5,4.7,32.6,4.8Z"/>
        <path class="st9" d="M283.6,271.5v15.1c-14-.2-25.1-2.5-32.6-4.8s-11.5-4.6-11.5-4.6h0c0,2.5-.8,4.4-2.2,5.8-3.2,3.3-9.1,4-13.5,4s-5.5-.3-5.5-.3v-15.1h0c0-2.6.7-5,1.9-7h0c.6-1.1,1.4-2.1,2.2-3,.9-.9,1.8-1.7,2.9-2.3,2.1-1.3,4.7-2,7.3-2s1.5,0,2.2.2h0c1-1.6,2.2-3.1,3.6-4.5.4-.4.8-.8,1.2-1.1.4-.4.8-.7,1.2-1,2.8-2.2,6-3.8,9.5-4.8,2.2-.6,4.4-.9,6.8-.9,6.1,0,11.7,2.1,16.1,5.5.8.6,1.6,1.3,2.4,2.1.1.1.3.2.4.4,3.1,3.1,5.4,7.1,6.6,11.4.6,2.2,1,4.6,1,7Z"/>
        <path class="st0" d="M275.7,252.7c.1.1.3.2.4.4-.1-.1-.2-.3-.4-.4Z"/>
        <path class="st0" d="M273.3,250.6c.8.6,1.6,1.3,2.4,2.1-.8-.7-1.6-1.4-2.4-2.1h0Z"/>
        <path class="st0" d="M273.3,250.6h0c-4.5-3.4-10.1-5.5-16.1-5.5h0c6.1,0,11.7,2,16.1,5.5Z"/>
        <path class="st12" d="M264,339.5c-.3.1-.5.2-.8.3-1.8.7-3.6,1.3-5.5,1.7-.5.1-1.1.2-1.7.3h0c-.6,0-1.1.2-1.7.2-.6,0-1.1.1-1.7.1-.6,0-1.2,0-1.7,0-4.7,0-9.3-1-13.3-2.8-3.7-1.6-7-3.9-9.8-6.7-5.9-5.9-9.6-14.1-9.6-23.1v-22.9s2.4.3,5.5.3,10.4-.7,13.5-4c1.3-1.4,2.2-3.3,2.2-5.8,0,0,4,2.3,11.5,4.6s18.5,4.7,32.6,4.8h0v.3h0v22.6h0c0,.2,0,.4,0,.6-.2,13.1-8.2,24.3-19.6,29.3ZM265.6,318.6c.1-1-.7-1.9-1.7-1.9h-26.1c-1,0-1.8.9-1.7,1.9.6,4.5,3.1,8.3,6.7,10.6,2.3,1.5,5.1,2.3,8,2.3s5.7-.9,8-2.3c3.6-2.3,6.2-6.2,6.7-10.6Z"/>
        <path class="st9" d="M264,316.7c1,0,1.8.9,1.7,1.9-.6,4.5-3.1,8.3-6.7,10.6-2.3,1.5-5.1,2.3-8,2.3s-5.7-.9-8-2.3c-3.6-2.3-6.1-6.2-6.7-10.6-.1-1,.7-1.9,1.7-1.9h26.1Z"/>
        <path class="st12" d="M264.2,354.5h0c-4,2.9-8.7,4.3-13.5,4.3s-9-1.3-12.9-3.9h0l-.3-15.5h0c4.1,1.8,8.6,2.8,13.3,2.8s1.2,0,1.7,0,1.1,0,1.7-.1,1.1-.1,1.7-.2h0c.6,0,1.1-.2,1.7-.3,1.9-.4,3.8-1,5.5-1.7.3-.1.5-.2.8-.3l.3,15.1Z"/>
        <path class="st14" d="M263.2,339.8c-1.8.7-3.6,1.3-5.5,1.7h0c1.9-.4,3.8-1,5.5-1.7Z"/>
        <path class="st14" d="M257.7,341.5h0c-.5.1-1.1.2-1.7.3.6,0,1.1-.2,1.7-.3Z"/>
        <path class="st0" d="M257.1,245.1h0c-2.3,0-4.6.3-6.8.9,2.2-.6,4.4-.9,6.8-.9Z"/>
        <path class="st14" d="M254.4,342c.6,0,1.1-.1,1.7-.2-.6,0-1.1.2-1.7.2Z"/>
        <path class="st14" d="M254.4,342c-.6,0-1.1.1-1.7.1.6,0,1.1,0,1.7-.1Z"/>
        <path class="st10" d="M251,281.8h0c-7.5-2.3-11.5-4.6-11.5-4.6h0s4,2.3,11.5,4.6Z"/>
        <path class="st0" d="M239.6,251.8c.4-.4.8-.7,1.2-1-.4.3-.8.7-1.2,1Z"/>
        <path class="st0" d="M239.6,251.8c-.4.4-.8.7-1.2,1.1.4-.4.8-.8,1.2-1.1Z"/>
        <path class="st0" d="M234.8,257.4h0c-.7-.1-1.5-.2-2.2-.2h0c.8,0,1.5,0,2.2.2Z"/>
        <path class="st0" d="M232.6,257.2h0c-2.7,0-5.2.7-7.3,2h0c2.1-1.3,4.7-2,7.3-2Z"/>
        <path class="st0" d="M225.3,259.2h0c-1.1.6-2.1,1.4-2.9,2.3.9-.9,1.8-1.7,2.9-2.3Z"/>
        <path class="st10" d="M223.7,287c4.4,0,10.4-.7,13.5-4-3.2,3.3-9.1,4-13.5,4h0Z"/>
        <path class="st10" d="M223.7,287h0c-3.1,0-5.5-.3-5.5-.3h0s2.4.3,5.5.3Z"/>
        <path class="st12" d="M218.3,287v23.9h-.9c-3.3,0-6.4-1.4-8.6-3.5-2.2-2.2-3.5-5.2-3.5-8.6s0-1.7.2-2.4c0-.4.2-.8.3-1.2.2-.6.4-1.1.6-1.7,0-.2.2-.3.3-.5.3-.5.6-1,.9-1.5.1-.2.2-.3.4-.5.2-.3.5-.6.8-.9s.6-.5.9-.8c.1-.1.3-.2.5-.4.5-.3,1-.7,1.5-.9s.3-.2.5-.3c.5-.3,1.1-.5,1.7-.6.4-.1.8-.2,1.2-.3.8-.2,1.6-.2,2.4-.2h.9v.3Z"/>
        <path class="st13" d="M210.3,362.3c-.5.3-.9.6-1.4,1,.5-.4.9-.7,1.4-1Z"/>
        <path class="st12" d="M208.8,290.2c-.3.3-.5.6-.8.9.2-.3.5-.6.8-.9Z"/>
        <path class="st13" d="M208.9,363.3c-.5.4-.9.7-1.3,1.1.4-.4.9-.8,1.3-1.1Z"/>
        <path class="st12" d="M207.7,291.5c-.3.5-.7,1-.9,1.5.3-.5.6-1,.9-1.5Z"/>
        <path class="st12" d="M206.5,293.5c-.3.5-.5,1.1-.6,1.7.2-.6.4-1.1.6-1.7Z"/>
        <path class="st12" d="M205.8,295.2c-.1.4-.2.8-.3,1.2,0-.4.2-.8.3-1.2Z"/>
        <path class="st13" d="M206.9,365c-5.8,5.7-10,15-12.9,23.4h0c2.9-8.4,7.1-17.7,12.9-23.4Z"/>
        <path class="st13" d="M194,388.4h0c-3.2,9.5-4.8,17.9-4.9,18.7h0c.1-.8,1.7-9.2,4.9-18.7Z"/>
        <path class="st13" d="M189.1,407.1h0s0,0,0,0h0s0,0,0,0Z"/>
      </g>
      <g>
        <path class="st1" d="M310.6,397.6c0,.4.2.8.3,1.1"/>
        <path class="st1" d="M309.8,394.8c0,.3.2.6.2.8,0,.3.2.5.2.8"/>
        <path class="st1" d="M309.6,393.9c0,.3.2.6.2.9"/>
        <path class="st1" d="M309,392.2c.1.4.3.9.4,1.3"/>
        <path class="st1" d="M308.6,390.8c0,.3.2.6.3.9"/>
        <path class="st1" d="M308.2,389.4c.2.5.3.9.4,1.4"/>
        <path class="st3" d="M307.9,388.5c.1.3.2.6.3.9"/>
        <path class="st1" d="M305.7,382.8c.8,1.9,1.5,3.8,2.1,5.7"/>
        <path class="st1" d="M304.1,379.1c.6,1.2,1.1,2.5,1.6,3.8"/>
        <path class="st3" d="M300.8,372.7c1.2,2,2.3,4.1,3.3,6.3"/>
        <path class="st3" d="M299.7,371c.4.6.7,1.1,1.1,1.7"/>
        <path class="st3" d="M295.6,365.7c1.3,1.3,2.5,2.8,3.6,4.4"/>
        <path class="st3" d="M284.6,358.5c2.5,1.1,4.8,2.3,7,3.8,1.4.9,2.8,2.1,4.1,3.4"/>
        <path class="st3" d="M283.1,357.9c.5.2,1,.4,1.5.6"/>
        <path class="st3" d="M271.7,355.1c.7,0,1.3.2,1.9.3"/>
        <path class="st3" d="M264.2,354.6c2.6,0,5.1.2,7.4.5"/>
        <path class="st3" d="M208.9,363.3c.5-.4.9-.7,1.4-1"/>
        <path class="st3" d="M207.6,364.4c.4-.4.9-.8,1.3-1.1"/>
        <path class="st3" d="M189.1,407.1h0s0,0,0,0c.1-.8,1.7-9.2,4.9-18.7,2.9-8.4,7.1-17.7,12.9-23.4"/>
        <path class="st3" d="M288.1,310.3c-1.1.3-2.3.5-3.6.5h-.9v-1.3h0v-22.6h0v-.3h0s.9,0,.9,0h0c1.7,0,3.3.3,4.7,1,.9.4,1.8.9,2.5,1.5.5.3.9.7,1.3,1.1s.5.6.8.9c.7.9,1.4,1.9,1.8,3,.3.7.5,1.5.7,2.3s.2,1.6.2,2.4h0c0,1.3-.2,2.5-.5,3.6"/>
        <path class="st3" d="M293,307.3c-.3.3-.6.5-.9.8"/>
        <polyline class="st3" points="283.6 286.6 283.6 286.7 283.6 287 283.6 287 283.6 287 283.6 309.6 283.6 309.6"/>
        <path class="st1" d="M237.6,339.4c-3.7-1.6-7-3.9-9.8-6.7-5.9-5.9-9.6-14.1-9.6-23.1"/>
        <path class="st1" d="M256,341.8c-.6,0-1.1.2-1.7.2s-1.1.1-1.7.1"/>
        <path class="st1" d="M263.2,339.8c-1.8.7-3.6,1.3-5.5,1.7-.5.1-1.1.2-1.7.3"/>
        <path class="st1" d="M283.6,309.6c0,.2,0,.4,0,.6-.2,13.1-8.2,24.3-19.6,29.3"/>
        <path class="st3" d="M265.6,318.6c.1-1-.7-1.9-1.7-1.9h-26.1c-1,0-1.8.9-1.7,1.9.6,4.5,3.1,8.3,6.7,10.6,2.3,1.5,5.1,2.3,8,2.3s5.7-.9,8-2.3c3.6-2.3,6.2-6.2,6.7-10.6Z"/>
        <path class="st3" d="M275.7,252.7c.1.1.3.2.4.4"/>
        <path class="st1" d="M273.3,250.6c.8.6,1.6,1.3,2.4,2.1"/>
        <path class="st3" d="M250.3,246c2.2-.6,4.4-.9,6.8-.9,6.1,0,11.7,2.1,16.1,5.5"/>
        <path class="st3" d="M238.4,252.9c.4-.4.8-.8,1.2-1.1.4-.4.8-.7,1.2-1"/>
        <path class="st3" d="M222.3,261.5c.9-.9,1.8-1.7,2.9-2.3,2.1-1.3,4.7-2,7.3-2s1.5,0,2.2.2"/>
        <path class="st1" d="M256,341.8h0c.6,0,1.1-.2,1.7-.3,1.9-.4,3.8-1,5.5-1.7.3-.1.5-.2.8-.3"/>
        <path class="st3" d="M252.6,342.2c.6,0,1.1,0,1.7-.1.6,0,1.1-.1,1.7-.2"/>
        <path class="st1" d="M237.6,339.4c4.1,1.8,8.6,2.8,13.3,2.8s1.2,0,1.7,0"/>
        <line class="st3" x1="237.6" y1="339.4" x2="237.6" y2="339.4"/>
        <path class="st3" d="M213.8,287.2c.4-.1.8-.2,1.2-.3"/>
        <path class="st1" d="M212.1,287.8c.5-.3,1.1-.5,1.7-.6"/>
        <path class="st3" d="M210.1,289.1c.5-.3,1-.7,1.5-.9"/>
        <path class="st1" d="M208,291.1c.2-.3.5-.6.8-.9s.6-.5.9-.8"/>
        <path class="st1" d="M206.7,293c.3-.5.6-1,.9-1.5"/>
        <path class="st1" d="M205.5,296.3c0-.4.2-.8.3-1.2.2-.6.4-1.1.6-1.7"/>
        <path class="st1" d="M208.9,363.3c-.5.4-.9.7-1.3,1.1-.2.2-.4.4-.6.6-5.8,5.7-10,15-12.9,23.4-3.2,9.5-4.8,17.9-4.9,18.7,0,0,0,0,0,0h63.6"/>
        <path class="st3" d="M208.9,363.3h0"/>
        <path class="st1" d="M237.8,354.9c-12.1.3-20.6,2.9-27.5,7.4h0c-.5.3-.9.6-1.4,1"/>
        <path class="st3" d="M271.7,355.1h0c-2.3-.3-4.8-.5-7.4-.5"/>
        <path class="st1" d="M284.6,358.5c-.5-.2-1-.4-1.5-.6-2.9-1.1-6-2-9.5-2.5-.6-.1-1.3-.2-1.9-.3"/>
        <line class="st3" x1="284.6" y1="358.5" x2="284.6" y2="358.5"/>
        <path class="st1" d="M295.6,365.7c-1.3-1.3-2.6-2.5-4-3.5-2.2-1.4-4.4-2.7-7-3.8"/>
        <path class="st3" d="M295.6,365.7s0,0,0,0"/>
        <path class="st1" d="M300.8,372.7c-.3-.6-.7-1.1-1.1-1.7-.2-.3-.4-.6-.6-.8-1.1-1.6-2.3-3.1-3.6-4.4"/>
        <path class="st3" d="M300.8,372.7s0,0,0,0"/>
        <path class="st1" d="M304.1,379.1c-1-2.2-2.1-4.3-3.3-6.3"/>
        <path class="st3" d="M304.1,379.1h0"/>
        <path class="st1" d="M307.9,388.5c-.6-1.9-1.3-3.8-2.1-5.7,0,0,0,0,0,0-.5-1.3-1.1-2.5-1.6-3.8"/>
        <path class="st3" d="M308.2,389.4s0,0,0,0c0-.3-.2-.6-.3-.9"/>
        <path class="st1" d="M252.7,407.1h60s-.6-3.4-1.8-8.4c0-.4-.2-.8-.3-1.1s-.2-.8-.3-1.2c0-.3-.1-.5-.2-.8,0-.3-.2-.6-.2-.8h0c0-.3-.2-.6-.2-.9,0-.1,0-.3-.1-.4-.1-.4-.3-.9-.4-1.3,0-.1,0-.3-.1-.5,0-.3-.2-.6-.3-.9,0,0,0,0,0,0-.1-.5-.3-.9-.4-1.4"/>
        <path class="st1" d="M205.5,296.3c-.2.8-.2,1.6-.2,2.4,0,3.3,1.4,6.4,3.5,8.6,2.2,2.2,5.2,3.5,8.6,3.5h.9v-24.2h-.9c-.8,0-1.7,0-2.4.2-.4,0-.8.2-1.2.3-.6.2-1.1.4-1.7.6-.2,0-.3.2-.5.3-.5.3-1,.6-1.5.9-.2.1-.3.2-.5.4-.3.2-.6.5-.9.8"/>
        <path class="st1" d="M206.7,293c0,.2-.2.3-.3.5"/>
        <path class="st1" d="M208,291.1c-.1.1-.2.3-.4.5"/>
        <path class="st1" d="M283.6,309.6v1.3h0s0,0,0,0h.9c1.3,0,2.5-.2,3.6-.5,1.5-.5,2.9-1.2,4.1-2.2.3-.2.6-.5.9-.8,1.4-1.4,2.4-3.1,3-5,.3-1.1.5-2.3.5-3.6s0-1.7-.2-2.4-.4-1.5-.7-2.3c-.5-1.1-1.1-2.1-1.8-3-.3-.3-.5-.6-.8-.9-.4-.4-.9-.8-1.3-1.1-.8-.6-1.6-1.1-2.5-1.5-1.4-.6-3-1-4.7-1h-.9v.3h0v22.6h0Z"/>
        <polyline class="st1" points="283.6 271.5 283.6 286.6 283.6 286.6"/>
        <path class="st1" d="M218.3,271.5v15.1h0s2.4.4,5.5.4,10.4-.7,13.5-4c1.3-1.4,2.2-3.3,2.2-5.8,0,0,4,2.3,11.5,4.6s18.5,4.7,32.6,4.8h0"/>
        <path class="st1" d="M283.6,271.5c0-2.4-.3-4.8-1-7-1.2-4.4-3.5-8.3-6.6-11.4-.1-.1-.2-.3-.4-.4-.8-.7-1.6-1.4-2.4-2.1-4.5-3.5-10.1-5.5-16.1-5.5s-4.6.3-6.8.9c-3.5.9-6.8,2.6-9.5,4.8-.4.3-.8.7-1.2,1-.4.4-.8.7-1.2,1.1-1.3,1.4-2.5,2.8-3.6,4.5h0c-.7-.1-1.5-.2-2.2-.2-2.7,0-5.2.7-7.3,2s-2.1,1.4-2.9,2.3c-.9.9-1.6,1.9-2.2,3h0c-1.2,2.1-1.9,4.5-1.9,7h0"/>
        <path class="st1" d="M264,339.5h0s.3,15.1.3,15.1h0c-4,2.9-8.7,4.3-13.5,4.3s-9-1.3-12.9-3.9h0l-.3-15.5"/>
        <path class="st1" d="M231.7,300c2.5-2.5,6.5-2.5,9,0"/>
        <path class="st1" d="M261.1,300c2.5-2.5,6.5-2.5,9,0"/>
      </g>
    </g>
  </g>
</svg>