<?xml version="1.0" encoding="UTF-8"?>
<svg id="Layer_1" xmlns="http://www.w3.org/2000/svg" version="1.1" viewBox="0 0 500 500">
  <!-- Generator: Adobe Illustrator 29.0.1, SVG Export Plug-In . SVG Version: 2.1.0 Build 192)  -->
  <defs>
    <style>
      .st0 {
        fill: #fff;
      }

      .st0, .st1, .st2, .st3, .st4, .st5 {
        stroke: #231f20;
        stroke-miterlimit: 10;
        stroke-width: 5px;
      }

      .st1 {
        fill: #322f4e;
      }

      .st6 {
        fill: #625d9c;
      }

      .st2 {
        fill: #807daf;
      }

      .st3 {
        fill: #bfbdd6;
      }

      .st4 {
        fill: none;
      }

      .st5 {
        fill: #e9ebed;
      }
    </style>
  </defs>
  <rect class="st6" x=".3" y="-.4" width="500" height="500"/>
  <g>
    <path class="st3" d="M365.3,249.6c0-63.5-51.5-114.9-114.9-114.9s-114.9,51.5-114.9,114.9,4.9,37.8,13.4,53.9h203.1c8.6-16.1,13.4-34.4,13.4-53.9Z"/>
    <path class="st1" d="M148.8,303.5c19.3,36.3,57.5,61,101.5,61s82.2-24.7,101.5-61h-203.1Z"/>
  </g>
  <g>
    <path class="st4" d="M98.9,208.9c25.7-85.8,116.1-134.5,201.9-108.8"/>
    <path class="st4" d="M401.8,290c-25.7,85.8-116.1,134.5-201.9,108.8"/>
    <polygon class="st5" points="309.2 82.8 321.8 96.1 334.4 109.5 316.5 113.7 298.6 117.9 303.9 100.4 309.2 82.8"/>
    <polygon class="st5" points="194.5 416.4 181.9 403.1 169.4 389.7 187.2 385.5 205.1 381.2 199.8 398.8 194.5 416.4"/>
  </g>
  <g>
    <g>
      <polygon class="st2" points="222.8 303.5 167.7 303.5 167.7 212.7 222.8 195 222.8 303.5"/>
      <rect class="st0" x="180" y="234.5" width="9.9" height="17.8"/>
      <rect class="st0" x="200.7" y="234.5" width="9.9" height="17.8"/>
      <rect class="st0" x="180" y="266.9" width="9.9" height="17.8"/>
      <rect class="st0" x="200.7" y="266.9" width="9.9" height="17.8"/>
    </g>
    <g>
      <polygon class="st2" points="277.8 303.5 222.7 303.5 222.7 212.7 277.8 195 277.8 303.5"/>
      <rect class="st0" x="235" y="234.5" width="9.9" height="17.8"/>
      <rect class="st0" x="255.6" y="234.5" width="9.9" height="17.8"/>
      <rect class="st0" x="235" y="266.9" width="9.9" height="17.8"/>
      <rect class="st0" x="255.6" y="266.9" width="9.9" height="17.8"/>
    </g>
    <g>
      <polygon class="st2" points="332.9 303.5 277.8 303.5 277.8 212.7 332.9 195 332.9 303.5"/>
      <rect class="st0" x="290.1" y="234.5" width="9.9" height="17.8"/>
      <rect class="st0" x="310.7" y="234.5" width="9.9" height="17.8"/>
      <rect class="st0" x="290.1" y="266.9" width="9.9" height="17.8"/>
      <rect class="st0" x="310.7" y="266.9" width="9.9" height="17.8"/>
    </g>
  </g>
</svg>