<?xml version="1.0" encoding="UTF-8"?>
<svg id="Layer_1" xmlns="http://www.w3.org/2000/svg" version="1.1" viewBox="0 0 500 500">
  <!-- Generator: Adobe Illustrator 29.0.1, SVG Export Plug-In . SVG Version: 2.1.0 Build 192)  -->
  <defs>
    <style>
      .st0 {
        fill: #232c33;
      }

      .st1 {
        fill: #9ad2db;
      }

      .st2 {
        fill: #e9ebed;
      }

      .st3 {
        fill: none;
        stroke: #231f20;
        stroke-miterlimit: 10;
        stroke-width: 5px;
      }

      .st4 {
        fill: #056876;
      }

      .st5 {
        fill: #b5e0de;
      }

      .st6 {
        fill: #027787;
      }

      .st7 {
        fill: #022c33;
      }

      .st8 {
        fill: #009dac;
      }
    </style>
  </defs>
  <rect class="st8" x=".3" y="-.4" width="500" height="500"/>
  <g>
    <g>
      <g>
        <polygon class="st5" points="396.7 118.9 381.2 136.7 396.7 154.5 351.3 154.5 351.3 118.9 396.7 118.9"/>
        <polygon class="st7" points="386.7 203 386.7 406.3 316 406.3 316 245.6 316 203 351.3 203 386.7 203"/>
        <polygon class="st6" points="316 245.6 316 406.3 245.3 406.3 245.3 288.2 245.3 245.6 316 245.6"/>
        <polygon class="st1" points="245.3 288.2 245.3 406.3 174.7 406.3 174.7 330.7 174.7 288.2 245.3 288.2"/>
        <rect class="st2" x="104" y="330.7" width="70.7" height="75.6"/>
      </g>
      <g>
        <polyline class="st3" points="174.7 330.7 104 330.7 104 406.3 174.7 406.3"/>
        <polyline class="st3" points="245.3 288.2 174.7 288.2 174.7 330.7 174.7 406.3 245.3 406.3"/>
        <polyline class="st3" points="316 245.6 245.3 245.6 245.3 288.2 245.3 406.3 316 406.3"/>
        <polygon class="st3" points="316 406.3 386.7 406.3 386.7 203 351.3 203 316 203 316 245.6 316 406.3"/>
        <line class="st3" x1="351.3" y1="203" x2="351.3" y2="154.5"/>
        <polygon class="st3" points="351.3 118.9 396.7 118.9 381.2 136.7 396.7 154.5 351.3 154.5 351.3 118.9"/>
      </g>
    </g>
    <g>
      <g>
        <polygon class="st0" points="182.5 223.1 182.5 223.1 151.2 280.9 148 280.9 134.1 280.9 161.5 194.9 203.6 194.9 225.3 274.9 223.9 274.9 212.2 274.9 182.5 223.1"/>
        <path class="st1" d="M220.4,184.5c0,1.2-.4,2.4-1.2,3.3-1.8,2.1-5.1,2.4-7.2.5l-10.2-8.9-1.8-15.1,18.7,16.2c1.2,1,1.8,2.4,1.8,3.9Z"/>
        <path class="st2" d="M212.2,274.9h11.7v12h-27.8c0-3.3,1.3-6.3,3.5-8.5s5.2-3.5,8.5-3.5h4.1Z"/>
        <path class="st0" d="M191.9,110.2v6.6c0,3.7-1.1,7.1-3.1,9.9l-4.8-3.1c-2.1-1.4-3.4-3.7-3.4-6.2v-2.5c0-3.1-2.5-5.6-5.6-5.6h-19.3c.5-9.1,8.1-16.4,17.3-16.4h1.6c9.6,0,17.3,7.8,17.3,17.3Z"/>
        <path class="st1" d="M184.1,123.6l4.8,3.1c-3.1,4.5-8.3,7.4-14.2,7.4h-5.9c-7.2,0-13.1-5.9-13.1-13.1v-10.8c0-.3,0-.6,0-.9h19.3c3.1,0,5.6,2.5,5.6,5.6v2.5c0,2.5,1.3,4.8,3.4,6.2Z"/>
        <path class="st4" d="M186.3,145.3c3.1,2.7,3.5,7.5.8,10.6l-4.9,5.7-1.8-1.6-7.7-6.7-1.8-1.6,4.9-5.7c1.5-1.7,3.6-2.6,5.7-2.6s3.5.6,4.9,1.8Z"/>
        <path class="st1" d="M161.5,166.2l11.1-12.8,7.7,6.7-18.8,21.8-6.6,7.7c-1.9,2.1-5.1,2.4-7.2.5-2.1-1.8-2.4-5.1-.5-7.2l14.4-16.6Z"/>
        <path class="st4" d="M170.7,151.8l1.8,1.6-11.1,12.8v-17.8c0-7.1,5.7-12.8,12.8-12.8h7.8c8.2,0,15.2,6.2,16.2,14.4l1.7,14.5,1.8,15.1,1.8,15.4h-42.1v-13.1l18.8-21.8,1.8,1.6,4.9-5.7c2.7-3.1,2.4-7.9-.8-10.6-1.4-1.2-3.2-1.8-4.9-1.8s-4.2.9-5.7,2.6l-4.9,5.7Z"/>
        <path class="st2" d="M134.1,280.9h13.9v12h-27.8c0-3.3,1.3-6.3,3.5-8.5,2.2-2.2,5.2-3.5,8.5-3.5h1.9Z"/>
      </g>
      <g>
        <path class="st3" d="M161.5,181.9v13.1h42.1l-1.8-15.4-1.8-15.1-1.7-14.5c-1-8.2-7.9-14.4-16.2-14.4h-7.8c-7.1,0-12.8,5.7-12.8,12.8v18.4"/>
        <path class="st3" d="M155.7,109.3c0,.3,0,.6,0,.9v10.8c0,7.2,5.8,13.1,13.1,13.1h5.9c5.9,0,11.1-2.9,14.2-7.4,1.9-2.8,3.1-6.2,3.1-9.9v-6.6c0-9.6-7.8-17.3-17.3-17.3h-1.6c-9.2,0-16.8,7.2-17.3,16.4Z"/>
        <path class="st3" d="M188.9,126.7l-4.8-3.1c-2.1-1.4-3.4-3.7-3.4-6.2v-2.5c0-3.1-2.5-5.6-5.6-5.6h-19.4"/>
        <path class="st3" d="M180.3,160.1l1.8,1.6,4.9-5.7c2.7-3.1,2.4-7.9-.8-10.6-1.4-1.2-3.2-1.8-4.9-1.8s-4.2.9-5.7,2.6l-4.9,5.7,1.8,1.6"/>
        <path class="st3" d="M161.5,166.2l-14.4,16.6c-1.8,2.1-1.6,5.4.5,7.2,2.1,1.8,5.4,1.6,7.2-.5l6.6-7.7,18.8-21.8-7.7-6.7-11.1,12.8Z"/>
        <path class="st3" d="M201.8,179.5l10.2,8.9c2.1,1.8,5.4,1.6,7.2-.5.8-1,1.2-2.2,1.2-3.3s-.6-2.9-1.8-3.9l-18.7-16.2"/>
        <polyline class="st3" points="212.2 274.9 182.5 223.1 177.5 214.3"/>
        <polyline class="st3" points="203.6 194.9 225.3 274.9 223.9 274.9"/>
        <path class="st3" d="M223.9,274.9v12h-27.8c0-3.3,1.3-6.3,3.5-8.5s5.2-3.5,8.5-3.5h15.8Z"/>
        <polyline class="st3" points="148 280.9 151.2 280.9 182.5 223.1"/>
        <line class="st3" x1="161.5" y1="194.9" x2="134.1" y2="280.9"/>
        <path class="st3" d="M148,280.9v12h-27.8c0-3.3,1.3-6.3,3.5-8.5,2.2-2.2,5.2-3.5,8.5-3.5h15.8Z"/>
      </g>
    </g>
  </g>
</svg>