<?xml version="1.0" encoding="UTF-8"?>
<svg xmlns="http://www.w3.org/2000/svg" viewBox="0 0 500 500">
  <defs>
    <style>
      .cls-1 {
        stroke-linecap: round;
      }

      .cls-1, .cls-2 {
        fill: none;
        stroke: #231f20;
        stroke-miterlimit: 10;
        stroke-width: 5px;
      }

      .cls-3 {
        fill: #1b3648;
      }

      .cls-3, .cls-4, .cls-5, .cls-6, .cls-7, .cls-8 {
        stroke-width: 0px;
      }

      .cls-4 {
        fill: #2f5a79;
      }

      .cls-5 {
        fill: #d1e7f7;
      }

      .cls-6 {
        fill: #5eb3e4;
      }

      .cls-7 {
        fill: #95c8ec;
      }

      .cls-8 {
        fill: #c2e0f6;
      }
    </style>
  </defs>
  <g id="Layer_2" data-name="Layer 2">
    <rect class="cls-6" width="500" height="500"/>
  </g>
  <g id="Layer_1" data-name="Layer 1">
    <g>
      <g>
        <path class="cls-8" d="M376.78,219.79c0,.64-.07,1.3-.2,1.95-1.07,5.3-6.23,8.72-11.52,7.64l-10.72-2.01,4.32-19.13,10.28,1.98c4.64.94,7.84,5.02,7.84,9.57Z"/>
        <path class="cls-7" d="M358.66,208.24l-4.32,19.13-57.36-10.78c-.76-.15-1.19-.94-.91-1.65l6.75-17.16.1-.25h.01l55.73,10.71Z"/>
        <path class="cls-5" d="M332.2,386.23c9.82.03,17.77,8.01,17.75,17.83v5.26s-51.06-.12-51.06-.12l.05-23.04,20.98.05h0s12.28.02,12.28.02Z"/>
        <path class="cls-3" d="M340.99,117.32c.9,3.98-2.59,7.44-6.43,6.75.08-.48.17-.95.26-1.39,2.93-14.44-6.41-28.53-20.86-31.46-14.45-2.92-28.53,6.41-31.46,20.86-1.07,5.27-1.53,10.05.11,15.14-4.64-3.32-6.8-9.23-5.27-14.84l3.21-11.75c1.12-4.12,3.27-7.8,6.17-10.75,2.89-2.94,6.53-5.16,10.63-6.36,4.98-1.46,10.3-1.29,15.19.46l9.36,3.37c8.38,3.01,14.64,10.1,16.59,18.79l2.5,11.18Z"/>
        <path class="cls-3" d="M313.96,91.22c14.45,2.93,23.79,17.02,20.86,31.46-.09.44-.18.91-.26,1.39-.29-.05-.59-.13-.89-.23l-14.54-5.09c-1.62-.56-3.4-.36-4.86.55l-3.25,2.03c-.7.44-1.5.66-2.3.66-.71,0-1.42-.18-2.07-.53-2.42-1.34-5.45-.72-7.16,1.45l-4.61,5.87c-1.73,2.21-4.82,2.81-7.25,1.41l-3.84-2.2c-.41-.24-.8-.49-1.18-.77-1.64-5.09-1.18-9.87-.11-15.14,2.93-14.45,17.01-23.78,31.46-20.86Z"/>
        <path class="cls-8" d="M333.67,123.84c.3.1.6.18.89.23-1.4,8.17-1.91,21.08-9.33,20.74-7.06-.32-5.9,7.01-10.26,7.7-2.82.45-10.9-1.49-13.64-3.38l-1.69,5.46c-3.33-2.66-7.33-4.59-11.79-5.49l-6.27-1.27-.05-.02,5.52-12.36c-2.18-2.9-3.59-5.6-4.44-8.23.38.28.77.53,1.18.77l3.84,2.2c2.43,1.4,5.52.8,7.25-1.41l4.61-5.87c1.71-2.17,4.74-2.79,7.16-1.45.65.35,1.36.53,2.07.53.8,0,1.6-.22,2.3-.66l3.25-2.03c1.46-.91,3.24-1.11,4.86-.55l14.54,5.09Z"/>
        <path class="cls-4" d="M309.37,263.01c11.42,2.35,19.31,12.83,18.38,24.45l-7.83,98.74-20.98-.04.19-84.7c0-5-3.5-9.3-8.39-10.3l-38.8-7.86c-.13-.03-.26-.05-.38-.09l6.23-30.79,51.58,10.59Z"/>
        <polygon class="cls-5" points="319.92 386.2 319.92 386.21 298.94 386.16 319.92 386.2"/>
        <path class="cls-7" d="M299.64,154.59c7.87,6.29,12.03,16.64,9.89,27.19l-6.6,15.75h-.01l-.1.25-4.95,11.81c-3.12,7.43-4.66,15.43-4.53,23.49l.41,26.55-35.94-7.28-30.49-6.18,17.39-85.86,3.89-19.17,32.93,6.68h.05s18.03,6.85,18.03,6.85l.03-.08Z"/>
        <path class="cls-7" d="M299.64,154.59l-.03.08-18.03-6.84,6.27,1.27c4.46.9,8.46,2.83,11.79,5.49Z"/>
        <polygon class="cls-4" points="257.81 252.35 257.79 252.42 227.32 246.17 257.81 252.35"/>
        <path class="cls-4" d="M257.79,252.42l-6.23,30.79c-16.85-3.59-27.94-18.6-24.51-35.53l.27-1.51,30.47,6.25Z"/>
        <path class="cls-4" d="M251.56,283.21l-3.77,18.6-1.79,8.79c-2.4,11.86-14.46,19.11-26.06,15.65l-68.2-22.38,4.16-20.51,54.42,10.86c3.85.78,7.61-1.71,8.39-5.56l8.61-42.49-.27,1.51c-3.43,16.93,7.66,31.94,24.51,35.53Z"/>
        <path class="cls-7" d="M248.6,141.14l-3.89,19.17-22.21-4.5c-2.17-.44-4.28.96-4.72,3.12l-11.27,55.65-19.16-3.9,12.06-59.55c1.88-9.28,10.04-15.68,19.14-15.68,1.29,0,2.6.13,3.91.4l26.14,5.29Z"/>
        <path class="cls-8" d="M206.51,214.58l-2.2,10.84c-.94,4.64-5.02,7.84-9.57,7.84-.64,0-1.3-.07-1.95-.2-5.3-1.07-8.72-6.23-7.64-11.53l2.2-10.85,19.16,3.9Z"/>
        <path class="cls-5" d="M155.94,283.17l-.04.19-1.06-.21-4.13,20.38,1.03.34-2.41,11.9c-1.95,9.62-11.34,15.85-20.97,13.9l-5.14-1.05,10.13-50.02,22.59,4.57Z"/>
        <polygon class="cls-5" points="155.9 283.36 151.74 303.87 150.71 303.53 154.84 283.15 155.9 283.36"/>
      </g>
      <g>
        <path class="cls-2" d="M299.64,154.59l1.69-5.46c2.74,1.89,10.82,3.83,13.64,3.38,4.36-.69,3.2-8.02,10.26-7.7,7.42.34,7.93-12.57,9.33-20.74"/>
        <path class="cls-2" d="M282.61,127.22c.85,2.63,2.26,5.33,4.44,8.23l-5.52,12.36.05.02"/>
        <line class="cls-2" x1="257.79" y1="252.42" x2="257.81" y2="252.35"/>
        <path class="cls-2" d="M151.74,303.87l68.2,22.38c11.6,3.46,23.66-3.79,26.06-15.65l1.79-8.79,3.77-18.6"/>
        <path class="cls-2" d="M227.32,246.17l-8.61,42.49c-.78,3.85-4.54,6.34-8.39,5.56l-54.42-10.86"/>
        <path class="cls-2" d="M151.74,303.87l-2.41,11.9c-1.95,9.62-11.34,15.85-20.97,13.9l-5.14-1.05,10.13-50.02,22.59,4.57-.04.19-4.16,20.51Z"/>
        <path class="cls-2" d="M248.6,141.14l32.93,6.68h.05s6.27,1.28,6.27,1.28c4.46.9,8.46,2.83,11.79,5.49,7.87,6.29,12.03,16.64,9.89,27.19l-6.6,15.75"/>
        <path class="cls-2" d="M302.82,197.78l-4.95,11.81c-3.12,7.43-4.66,15.43-4.53,23.49l.41,26.55-35.94-7.28-30.49-6.18,17.39-85.86"/>
        <path class="cls-2" d="M248.6,141.14l-26.14-5.29c-1.31-.27-2.62-.4-3.91-.4-9.1,0-17.26,6.4-19.14,15.68l-12.06,59.55-2.2,10.85c-1.08,5.3,2.34,10.46,7.64,11.53.65.13,1.31.2,1.95.2,4.55,0,8.63-3.2,9.57-7.84l2.2-10.84,11.27-55.65c.44-2.16,2.55-3.56,4.72-3.12l22.21,4.5,3.89-19.17Z"/>
        <path class="cls-2" d="M354.34,227.37l10.72,2.01c5.29,1.08,10.45-2.34,11.52-7.64.13-.65.2-1.31.2-1.95,0-4.55-3.2-8.63-7.84-9.57l-10.28-1.98-55.73-10.71h-.01l-.1.25-6.75,17.16c-.28.71.15,1.5.91,1.65l57.36,10.78Z"/>
        <path class="cls-2" d="M319.92,386.2l7.83-98.74c.93-11.62-6.96-22.1-18.38-24.45l-51.58-10.59-30.47-6.25-.27,1.51c-3.43,16.93,7.66,31.94,24.51,35.53.12.04.25.06.38.09l38.8,7.86c4.89,1,8.4,5.3,8.39,10.3l-.19,84.7"/>
        <path class="cls-2" d="M319.92,386.2l12.28.03c9.82.03,17.77,8.01,17.75,17.83v5.26s-51.06-.12-51.06-.12l.05-23.04,20.98.04Z"/>
        <polyline class="cls-2" points="358.68 208.14 358.66 208.24 354.34 227.37 354.08 228.54"/>
        <line class="cls-2" x1="187.35" y1="210.68" x2="206.51" y2="214.58"/>
        <line class="cls-1" x1="274.55" y1="386.21" x2="224.22" y2="386.21"/>
        <line class="cls-1" x1="267.11" y1="403.08" x2="173.96" y2="403.08"/>
        <line class="cls-1" x1="155.5" y1="198.58" x2="91.44" y2="198.58"/>
        <line class="cls-1" x1="164.64" y1="218.87" x2="118.06" y2="218.87"/>
        <line class="cls-1" x1="156.86" y1="238.1" x2="82.77" y2="238.1"/>
        <path class="cls-2" d="M282.61,127.22c.38.28.77.53,1.18.77l3.84,2.2c2.43,1.4,5.52.8,7.25-1.41l4.61-5.87c1.71-2.17,4.74-2.79,7.16-1.45.65.35,1.36.53,2.07.53.8,0,1.6-.22,2.3-.66l3.25-2.03c1.46-.91,3.24-1.11,4.86-.55l14.54,5.09c.3.1.6.18.89.23,3.84.69,7.33-2.77,6.43-6.75l-2.5-11.18c-1.95-8.69-8.21-15.78-16.59-18.79l-9.36-3.37c-4.89-1.75-10.21-1.92-15.19-.46-4.1,1.2-7.74,3.42-10.63,6.36-2.9,2.95-5.05,6.63-6.17,10.75l-3.21,11.75c-1.53,5.61.63,11.52,5.27,14.84Z"/>
        <line class="cls-1" x1="319.46" y1="127.49" x2="323.31" y2="129.09"/>
      </g>
    </g>
  </g>
</svg>