<?xml version="1.0" encoding="UTF-8"?>
<svg id="Layer_1" xmlns="http://www.w3.org/2000/svg" version="1.1" viewBox="0 0 500 500">
  <!-- Generator: Adobe Illustrator 29.0.1, SVG Export Plug-In . SVG Version: 2.1.0 Build 192)  -->
  <defs>
    <style>
      .st0 {
        fill: #fff;
      }

      .st0, .st1, .st2, .st3, .st4, .st5 {
        stroke: #231f20;
        stroke-miterlimit: 10;
        stroke-width: 5px;
      }

      .st1 {
        fill: #9f9cc2;
      }

      .st6 {
        fill: #625d9c;
      }

      .st2 {
        fill: #807daf;
      }

      .st3 {
        fill: #bfbdd6;
      }

      .st4 {
        fill: none;
      }

      .st5 {
        fill: #46416e;
      }
    </style>
  </defs>
  <rect class="st6" x=".7" y="-.4" width="499.4" height="500"/>
  <g>
    <g>
      <g>
        <g>
          <g>
            <polygon class="st2" points="208.1 361.2 153 361.2 153 270.4 208.1 252.7 208.1 361.2"/>
            <rect class="st0" x="165.2" y="292.2" width="9.9" height="17.8"/>
            <rect class="st0" x="185.9" y="292.2" width="9.9" height="17.8"/>
            <rect class="st0" x="165.2" y="324.5" width="9.9" height="17.8"/>
            <rect class="st0" x="185.9" y="324.5" width="9.9" height="17.8"/>
          </g>
          <g>
            <polygon class="st2" points="263 361.2 207.9 361.2 207.9 270.4 263 252.7 263 361.2"/>
            <rect class="st0" x="220.2" y="292.2" width="9.9" height="17.8"/>
            <rect class="st0" x="240.9" y="292.2" width="9.9" height="17.8"/>
            <rect class="st0" x="220.2" y="324.5" width="9.9" height="17.8"/>
            <rect class="st0" x="240.9" y="324.5" width="9.9" height="17.8"/>
          </g>
          <g>
            <polygon class="st2" points="318.1 361.2 263 361.2 263 270.4 318.1 252.7 318.1 361.2"/>
            <rect class="st0" x="275.3" y="292.2" width="9.9" height="17.8"/>
            <rect class="st0" x="296" y="292.2" width="9.9" height="17.8"/>
            <rect class="st0" x="275.3" y="324.5" width="9.9" height="17.8"/>
            <rect class="st0" x="296" y="324.5" width="9.9" height="17.8"/>
          </g>
        </g>
        <g>
          <polygon class="st1" points="128 361.2 72.9 361.2 72.9 299.7 100.4 292.2 128 299.7 128 361.2"/>
          <g>
            <rect class="st0" x="84.6" y="317.4" width="9.9" height="12"/>
            <rect class="st0" x="106.5" y="317.4" width="9.9" height="12"/>
          </g>
          <rect class="st3" x="91.8" y="338.2" width="17.3" height="22.9"/>
        </g>
        <g>
          <polygon class="st5" points="427.8 361.2 344.5 361.2 344.5 137.4 386 175.7 427.8 175.7 427.8 361.2"/>
          <polyline class="st4" points="361.2 360.7 361.2 155.9 411.1 155.9 411.1 175.7 411.1 361.2"/>
          <line class="st4" x1="377.8" y1="338.2" x2="377.8" y2="169.1"/>
          <line class="st4" x1="394.5" y1="175.2" x2="394.5" y2="336.4"/>
          <rect class="st3" x="370.8" y="336.4" width="30.3" height="24.4"/>
          <line class="st4" x1="386" y1="336.4" x2="386" y2="361.2"/>
        </g>
      </g>
      <line class="st4" x1="46.6" y1="361.8" x2="454.1" y2="361.8"/>
    </g>
    <g>
      <path class="st0" d="M113,217c-6.8,0-12.3-5.5-12.3-12.3,0,6.8-5.5,12.3-12.3,12.3s-12.3-5.5-12.3-12.3v39.7c0,5.9,2.8,11.4,7.6,14.8l16.9,12,16.9-12c4.8-3.4,7.6-8.9,7.6-14.8v-39.7c0,6.8-5.5,12.3-12.3,12.3Z"/>
      <polyline class="st4" points="90.6 239.8 96.7 246.3 111.6 229.6"/>
    </g>
  </g>
</svg>