<?xml version="1.0" encoding="UTF-8"?>
<svg id="Layer_1" data-name="Layer 1" xmlns="http://www.w3.org/2000/svg" version="1.1" viewBox="0 0 500 500">
  <defs>
    <style>
      .cls-1 {
        fill: #1b3648;
      }

      .cls-1, .cls-2, .cls-3, .cls-4, .cls-5, .cls-6 {
        stroke: #231f20;
        stroke-miterlimit: 10;
      }

      .cls-2 {
        fill: none;
      }

      .cls-2, .cls-3, .cls-6 {
        stroke-width: 5px;
      }

      .cls-3, .cls-7 {
        fill: #5eb3e4;
      }

      .cls-4 {
        fill: #3c6b93;
      }

      .cls-7, .cls-8, .cls-9 {
        stroke-width: 0px;
      }

      .cls-5, .cls-8 {
        fill: #d1e7f7;
      }

      .cls-9 {
        fill: #231f20;
      }

      .cls-6 {
        fill: #fff;
      }
    </style>
  </defs>
  <g id="Layer_2" data-name="Layer 2">
    <rect class="cls-7" y="-.3" width="500" height="500"/>
  </g>
  <g id="Layer_1-2" data-name="Layer 1">
    <g>
      <g>
        <path class="cls-4" d="M274.8,310.7c-50.9,34.2-120.4,28.8-165.3-16.2-51.1-51.1-51.1-133.9,0-185,51.1-51.1,133.9-51.1,185,0,45,44.9,50.4,114.5,16.2,165.3-4.6,7-10.1,13.6-16.2,19.7s-12.7,11.5-19.7,16.2h0ZM279.4,279.4c42.7-42.7,42.7-112,0-154.8-42.7-42.7-112-42.7-154.8,0s-42.7,112,0,154.8c42.7,42.7,112,42.7,154.8,0Z"/>
        <path class="cls-1" d="M421.4,385.5c9.9,9.9,9.9,26,0,35.9-5,5-11.5,7.4-17.9,7.4s-13-2.5-18-7.4l-85.5-85.5,35.9-35.9,85.5,85.5h0Z"/>
        <path class="cls-5" d="M336,300.1l-35.9,35.9-25.3-25.3c7-4.6,13.5-10,19.7-16.2s11.5-12.8,16.2-19.7l25.3,25.3h0Z"/>
        <circle class="cls-5" cx="202" cy="202" r="109.4"/>
      </g>
      <g>
        <path class="cls-2" d="M274.8,310.7c-50.9,34.2-120.4,28.8-165.3-16.2-51.1-51.1-51.1-133.9,0-185,51.1-51.1,133.9-51.1,185,0,45,44.9,50.4,114.5,16.2,165.3-4.6,7-10.1,13.6-16.2,19.7s-12.7,11.5-19.7,16.2h0Z"/>
        <circle class="cls-2" cx="202" cy="202" r="109.4"/>
        <polyline class="cls-2" points="310.6 274.7 310.7 274.8 336 300.1 300.1 336 274.8 310.7 274.7 310.6"/>
        <path class="cls-2" d="M336,300.1l85.5,85.5c9.9,9.9,9.9,26,0,35.9-5,5-11.5,7.4-17.9,7.4s-13-2.5-18-7.4l-85.5-85.5"/>
      </g>
    </g>
    <g>
      <path class="cls-6" d="M107.2,202c51.7,51.7,135.3,51.7,187,0-51.7-51.7-135.3-51.7-187,0Z"/>
      <circle class="cls-3" cx="200.6" cy="201.2" r="28.2"/>
      <circle class="cls-9" cx="200.6" cy="201.2" r="17"/>
      <circle class="cls-8" cx="190.3" cy="188.1" r="3.9"/>
    </g>
  </g>
</svg>