<?xml version="1.0" encoding="UTF-8"?>
<svg id="Layer_1" xmlns="http://www.w3.org/2000/svg" width="176.4mm" height="176.4mm" version="1.1" viewBox="0 0 500 500">
  <!-- Generator: Adobe Illustrator 30.1.0, SVG Export Plug-In . SVG Version: 2.1.1 Build 136)  -->
  <defs>
    <style>
      .st0 {
        fill: #5eb3e4;
      }

      .st1 {
        fill: #d1e7f7;
      }

      .st1, .st2, .st3, .st4 {
        stroke: #231f20;
        stroke-miterlimit: 10;
      }

      .st2 {
        fill: #3c6b93;
      }

      .st3 {
        fill: none;
        stroke-width: 5px;
      }

      .st4 {
        fill: #1b3648;
      }
    </style>
  </defs>
  <g id="Layer_2">
    <rect class="st0" y="-.3" width="500" height="500"/>
  </g>
  <g id="Layer_1-2">
    <g>
      <g>
        <path class="st4" d="M422.4,386.6c9.9,9.9,9.9,26,0,35.9s-11.5,7.4-17.9,7.4-13-2.5-18-7.4l-85.5-85.5,35.9-35.9,85.5,85.5Z"/>
        <path class="st1" d="M337,301.1l-35.9,35.9-25.3-25.3c7-4.6,13.5-10,19.7-16.2s11.5-12.8,16.2-19.7l25.3,25.3h0Z"/>
        <path class="st2" d="M311.7,275.8c-4.6,7-10.1,13.6-16.2,19.7s-12.7,11.5-19.7,16.2c-50.9,34.2-120.4,28.8-165.3-16.2-51.1-51.1-51.1-133.9,0-185,51.1-51.1,133.9-51.1,185,0,45,44.9,50.4,114.5,16.2,165.3h0ZM280.4,280.4c42.7-42.7,42.7-112,0-154.8-42.7-42.7-112-42.7-154.8,0s-42.7,112,0,154.8c42.7,42.7,112,42.7,154.8,0Z"/>
        <path class="st1" d="M280.4,125.6c42.7,42.7,42.7,112,0,154.8-42.7,42.7-112,42.7-154.8,0-42.7-42.7-42.7-112,0-154.8s112-42.7,154.8,0Z"/>
      </g>
      <g>
        <path class="st3" d="M275.8,311.7c-50.9,34.2-120.4,28.8-165.3-16.2-51.1-51.1-51.1-133.9,0-185,51.1-51.1,133.9-51.1,185,0,45,44.9,50.4,114.5,16.2,165.3-4.6,7-10.1,13.6-16.2,19.7s-12.7,11.5-19.7,16.2h0Z"/>
        <circle class="st3" cx="203" cy="203" r="109.4"/>
        <polyline class="st3" points="311.6 275.8 311.7 275.8 337 301.1 301.1 337 275.8 311.7 275.7 311.6"/>
        <path class="st3" d="M337,301.1l85.5,85.5c9.9,9.9,9.9,26,0,35.9s-11.5,7.4-17.9,7.4-13-2.5-18-7.4l-85.5-85.5"/>
      </g>
    </g>
  </g>
</svg>