<?xml version="1.0" encoding="UTF-8"?>
<svg xmlns="http://www.w3.org/2000/svg" viewBox="0 0 500 500">
  <defs>
    <style>
      .cls-1 {
        fill: #e1dfeb;
      }

      .cls-1, .cls-2 {
        stroke: #231f20;
        stroke-miterlimit: 10;
        stroke-width: 5px;
      }

      .cls-3 {
        fill: #625d9c;
        stroke-width: 0px;
      }

      .cls-2 {
        fill: #b1aece;
      }
    </style>
  </defs>
  <g id="Layer_2" data-name="Layer 2">
    <rect class="cls-3" width="500" height="500"/>
  </g>
  <g id="Layer_1" data-name="Layer 1">
    <g>
      <path class="cls-1" d="M261.43,322.71c-48.05-.67-87.27-39.9-87.94-87.94-.49-35.26,19.48-65.91,48.79-80.83,3.08-1.57,2.04-6.23-1.42-6.24-.05,0-.1,0-.15,0-70.58,0-127.79,57.21-127.79,127.79,0,70.51,57.28,127.79,127.79,127.79,70.58,0,127.79-57.21,127.79-127.79,0-.05,0-.1,0-.15,0-3.46-4.67-4.51-6.24-1.42-14.92,29.32-45.57,49.29-80.83,48.79Z"/>
      <path class="cls-2" d="M245.88,119.8h56.21v12.85l-36.08,37.62h37.4v13.81h-60.99v-13.33l35.7-37.22h-32.24v-13.72Z"/>
      <path class="cls-2" d="M338.46,96.72h67.06v15.33l-43.05,44.88h44.62v16.48h-72.76v-15.9l42.6-44.41h-38.46v-16.37Z"/>
      <path class="cls-2" d="M323.53,198h46.09v10.53l-29.59,30.85h30.67v11.33h-50.01v-10.93l29.28-30.53h-26.44v-11.25Z"/>
    </g>
  </g>
</svg>