<?xml version="1.0" encoding="UTF-8"?>
<svg id="Layer_1" data-name="Layer 1" xmlns="http://www.w3.org/2000/svg" version="1.1" viewBox="0 0 500 500">
  <defs>
    <style>
      .cls-1 {
        fill: #a09dc3;
      }

      .cls-1, .cls-2, .cls-3, .cls-4 {
        stroke-width: 0px;
      }

      .cls-5, .cls-6 {
        fill: none;
        stroke: #231f20;
        stroke-miterlimit: 10;
        stroke-width: 5px;
      }

      .cls-6 {
        stroke-linecap: round;
      }

      .cls-2 {
        fill: #625d9c;
      }

      .cls-3 {
        fill: #46416e;
      }

      .cls-4 {
        fill: #e1dfeb;
      }
    </style>
  </defs>
  <g id="Layer_2" data-name="Layer 2">
    <rect class="cls-2" width="500" height="500"/>
  </g>
  <g id="Layer_1-2" data-name="Layer 1">
    <g>
      <g>
        <g>
          <path class="cls-1" d="M394.2,264.8c11.6,0,21,9.4,21,21s-9.4,21-21,21c11.6,0,21,9.4,21,21s-9.4,21-21,21h-138c-14.7,0-19.3-6.7-22.4-13.7h-.1c.1-.8.1-1.5.1-2.3v-36.3c4.6-3,7.7-8.3,7.7-14.3v-34.9c0-5.9-3.1-11.2-7.7-14.3v-35.3h0c0-21.2,26.1-33.7,45.7-41.7,6.4-2.6,13-4.8,19.8-6.4l40.3-9.8c2.5-.6,5.2-.5,7.7.4,10.3,3.8,19.1,14.1,12.2,40.4h41.1c11.6,0,21,9.4,21,21s-9.4,21-21,21h6.8c11.6,0,21,9.4,21,21s-9.4,21-21,21h-13.3,0Z"/>
          <path class="cls-4" d="M233.7,335.1c-1.1,9.4-9.1,16.7-18.9,16.7s-10-2.1-13.4-5.5c-3.4-3.5-5.6-8.2-5.6-13.4v-36.3c2.7,1.8,5.9,2.8,9.4,2.8h19.2c3.5,0,6.7-1,9.4-2.8v36.3c0,.8,0,1.6-.1,2.3h0Z"/>
          <path class="cls-1" d="M195.9,324.2l-124.4,7.3v-137l124.4,7.3v31.4c-4.6,3.1-7.7,8.3-7.7,14.3v34.9c0,6,3.1,11.2,7.7,14.3v27.7h0Z"/>
          <path class="cls-3" d="M224.5,299.3h-19.2c-3.5,0-6.7-1-9.4-2.8v-63.4c2.7-1.8,5.9-2.8,9.4-2.8h19.2c3.5,0,6.7,1,9.4,2.8v63.4c-2.7,1.8-5.9,2.8-9.4,2.8Z"/>
          <path class="cls-3" d="M233.9,296.5v-63.4c4.6,3.1,7.7,8.3,7.7,14.3v34.9c0,6-3.1,11.2-7.7,14.3Z"/>
          <path class="cls-3" d="M195.9,233.1v63.4c-4.6-3-7.7-8.3-7.7-14.3v-34.9c0-5.9,3.1-11.2,7.7-14.3Z"/>
          <path class="cls-4" d="M233.9,197.8v35.3c-2.7-1.8-5.9-2.8-9.4-2.8h-19.2c-3.5,0-6.7,1-9.4,2.8v-35.4c0-10.5,8.5-19,19-19s10,2.1,13.4,5.6c3.4,3.4,5.6,8.2,5.6,13.4h0q0,.1,0,.1Z"/>
        </g>
        <g>
          <path class="cls-5" d="M233.9,296.5v36.3c0,.8,0,1.6-.1,2.3-1.1,9.4-9.1,16.7-18.9,16.7s-10-2.1-13.4-5.5c-3.4-3.5-5.6-8.2-5.6-13.4v-36.3"/>
          <line class="cls-5" x1="233.9" y1="197.8" x2="233.9" y2="233.1"/>
          <path class="cls-5" d="M195.9,233.1v-35.4c0-10.5,8.5-19,19-19s10,2.1,13.4,5.6c3.4,3.4,5.6,8.2,5.6,13.4"/>
          <path class="cls-5" d="M233.9,335.1c3,7,7.7,13.7,22.4,13.7h138"/>
          <polyline class="cls-6" points="400.6 180.7 359.5 180.7 282.5 180.7"/>
          <path class="cls-5" d="M233.9,197.8h0c0-21.2,26.1-33.7,45.7-41.7,6.4-2.6,13-4.8,19.8-6.4l40.3-9.8c2.5-.6,5.2-.5,7.7.4,10.3,3.8,19.1,14.1,12.2,40.4"/>
          <path class="cls-5" d="M400.6,180.7c11.6,0,21,9.4,21,21s-9.4,21-21,21"/>
          <path class="cls-6" d="M394.2,264.8c11.6,0,21,9.4,21,21s-9.4,21-21,21h-17.1"/>
          <line class="cls-6" x1="377.1" y1="264.8" x2="392.3" y2="264.8"/>
          <path class="cls-5" d="M394.2,306.8c11.6,0,21,9.4,21,21s-9.4,21-21,21"/>
          <path class="cls-6" d="M377.1,222.8h30.4c11.6,0,21,9.4,21,21s-9.4,21-21,21h-15.1"/>
          <path class="cls-5" d="M195.9,296.5c-4.6-3-7.7-8.3-7.7-14.3v-34.9c0-5.9,3.1-11.2,7.7-14.3,2.7-1.8,5.9-2.8,9.4-2.8h19.2c3.5,0,6.7,1,9.4,2.8,4.6,3.1,7.7,8.3,7.7,14.3v34.9c0,6-3.1,11.2-7.7,14.3-2.7,1.8-5.9,2.8-9.4,2.8h-19.2c-3.5,0-6.7-1-9.4-2.8Z"/>
          <polyline class="cls-5" points="195.9 201.7 71.5 194.5 71.5 331.5 195.9 324.2"/>
        </g>
      </g>
      <g>
        <line class="cls-5" x1="241.2" y1="72.9" x2="241.2" y2="108.1"/>
        <line class="cls-5" x1="320.3" y1="94.9" x2="299.2" y2="121.6"/>
        <line class="cls-5" x1="162.9" y1="95.7" x2="180" y2="125"/>
      </g>
      <g>
        <line class="cls-5" x1="241.8" y1="427.1" x2="241.9" y2="391.9"/>
        <line class="cls-5" x1="162.8" y1="404.9" x2="183.9" y2="378.2"/>
        <line class="cls-5" x1="320.3" y1="404.5" x2="303.2" y2="375.1"/>
      </g>
    </g>
  </g>
</svg>