<?xml version="1.0" encoding="UTF-8"?>
<svg id="Layer_1" xmlns="http://www.w3.org/2000/svg" version="1.1" viewBox="0 0 500 500">
  <!-- Generator: Adobe Illustrator 29.0.1, SVG Export Plug-In . SVG Version: 2.1.0 Build 192)  -->
  <defs>
    <style>
      .st0, .st1, .st2, .st3, .st4, .st5 {
        stroke: #231f20;
        stroke-miterlimit: 10;
        stroke-width: 5px;
      }

      .st0, .st2 {
        fill: none;
      }

      .st0, .st4 {
        stroke-linecap: round;
      }

      .st6, .st1 {
        fill: #9ad2db;
      }

      .st7 {
        fill: #e0deea;
      }

      .st8, .st5 {
        fill: #032c33;
      }

      .st9 {
        fill: #d9e7f3;
      }

      .st10 {
        fill: #fff;
      }

      .st3, .st11 {
        fill: #056876;
      }

      .st12 {
        fill: #3579a2;
      }

      .st4 {
        fill: #e9ebed;
      }

      .st13 {
        fill: #009dac;
      }
    </style>
  </defs>
  <rect class="st13" x=".3" y="-.4" width="500" height="500"/>
  <g>
    <path class="st5" d="M408.7,147.7h-84.2c-1,0-2,.3-2.8.9l-31.4,23.3c-.8.6-1.8.9-2.8.9H92c-5.2,0-9.5,4.2-9.5,9.5v132.6h335.6v-157.7c0-5.2-4.2-9.5-9.5-9.5Z"/>
    <g>
      <g>
        <g>
          <path class="st9" d="M355.5,281.1l-28.8,9.7c-3.1,1-4.7,4.4-3.7,7.4l9.6,28.5,1.1,1.3c-.8.6-1.7,1.1-2.7,1.5l-153.5,51.9c-4.7,1.6-9.9-.9-11.5-5.7l-74.8-221.3c-1.6-4.7.9-9.9,5.7-11.5l183.2-61.9c4.7-1.6,9.9.9,11.5,5.7l64.8,191.6c.3.9.4,1.7.5,2.6h-1.2Z"/>
          <path class="st9" d="M355.5,281.1l-22.9,45.6-9.6-28.5c-1-3.1.6-6.4,3.7-7.4l28.8-9.7Z"/>
          <path class="st9" d="M332.6,326.7l22.9-45.6h1.2c0,1.4-.3,2.9-.9,4.2l-19.6,39.7c-.6,1.2-1.5,2.3-2.5,3.1l-1.1-1.3Z"/>
        </g>
        <g>
          <path class="st2" d="M333.7,328.1c-.8.6-1.7,1.1-2.7,1.5l-153.5,51.9c-4.7,1.6-9.9-.9-11.5-5.7l-74.8-221.3c-1.6-4.7.9-9.9,5.7-11.5l183.2-61.9c4.7-1.6,9.9.9,11.5,5.7l64.8,191.6c.3.9.4,1.7.5,2.6,0,1.5-.3,2.9-.9,4.3l-19.6,39.7c-.6,1.2-1.5,2.3-2.5,3.1Z"/>
          <path class="st2" d="M355.5,281.1l-28.8,9.7c-3.1,1-4.7,4.4-3.7,7.4l9.6,28.5"/>
        </g>
      </g>
      <g>
        <g>
          <path class="st10" d="M378.9,293l-29.9,5.5c-3.2.6-5.3,3.6-4.7,6.8l5.4,29.6.9,1.5c-.9.5-1.9.9-2.9,1.1l-159.4,29.2c-4.9.9-9.6-2.4-10.5-7.3l-42.1-229.8c-.9-4.9,2.4-9.6,7.3-10.5l190.2-34.8c4.9-.9,9.6,2.4,10.5,7.3l36.4,199c.2.9.2,1.8,0,2.7h-1.2Z"/>
          <path class="st11" d="M378.9,293l-29.3,41.8-5.4-29.6c-.6-3.2,1.5-6.2,4.7-6.8l29.9-5.5Z"/>
          <path class="st12" d="M349.6,334.9l29.3-41.8h1.2c-.2,1.5-.7,3-1.5,4.2l-25.1,36.5c-.8,1.1-1.8,2-2.9,2.7l-.9-1.5Z"/>
        </g>
        <g>
          <path class="st2" d="M350.5,336.4c-.9.5-1.9.9-2.9,1.1l-159.4,29.2c-4.9.9-9.6-2.4-10.5-7.3l-42.1-229.8c-.9-4.9,2.4-9.6,7.3-10.5l190.2-34.8c4.9-.9,9.6,2.4,10.5,7.3l36.4,199c.2.9.2,1.8,0,2.7-.2,1.5-.7,2.9-1.5,4.1l-25.1,36.5c-.8,1.1-1.8,2-2.9,2.7Z"/>
          <path class="st2" d="M378.9,293l-29.9,5.5c-3.2.6-5.3,3.6-4.7,6.8l5.4,29.6"/>
        </g>
      </g>
      <line class="st4" x1="169.3" y1="192.4" x2="327.8" y2="163.4"/>
      <line class="st4" x1="161.6" y1="150.7" x2="201.3" y2="143.5"/>
      <line class="st4" x1="163.8" y1="162.3" x2="190.2" y2="157.4"/>
      <line class="st4" x1="171.9" y1="206.7" x2="323.8" y2="178.9"/>
      <line class="st4" x1="174.5" y1="221.1" x2="339.7" y2="190.9"/>
      <line class="st4" x1="177.2" y1="235.5" x2="329.1" y2="207.7"/>
      <line class="st4" x1="179.8" y1="249.8" x2="338.3" y2="220.8"/>
      <line class="st4" x1="182.4" y1="264.2" x2="261.7" y2="249.7"/>
    </g>
    <rect class="st3" x="82.5" y="191.6" width="335.6" height="227" rx="9.5" ry="9.5"/>
  </g>
  <g>
    <g>
      <polyline class="st2" points="192.3 338.8 165.8 276.2 139.3 338.8"/>
      <path class="st1" d="M126.8,338.8c0,21.5,17.5,39,39,39s39-17.5,39-39h-78Z"/>
      <line class="st2" x1="128.3" y1="349.7" x2="202.3" y2="349.7"/>
    </g>
    <g>
      <polyline class="st2" points="358.3 338.8 331.8 276.2 305.3 338.8"/>
      <path class="st1" d="M292.8,338.8c0,21.5,17.5,39,39,39s39-17.5,39-39h-78Z"/>
      <line class="st2" x1="294.4" y1="349.7" x2="368.4" y2="349.7"/>
    </g>
    <g>
      <g>
        <g>
          <path class="st7" d="M283.3,313.2c4.3.5,7.7,4.2,7.7,8.7s-1,4.6-2.6,6.2c-1.6,1.6-3.8,2.6-6.2,2.6h-4s-12.8,0-12.8,0c.8-1.2,1.3-2.7,1.3-4.3v-8.9c0-1.6-.5-3.1-1.3-4.3h16.7c.4,0,.7,0,1.1,0Z"/>
          <path class="st6" d="M270.3,239.2c0-5.4,4.3-9.7,9.7-9.7s9.7,4.3,9.7,9.7c0,0,0,54.2,0,63.6,0,6.8-3.1,8.9-6.3,10.3h0c-.4,0-.7,0-1.1,0h-16.7c-1.4-2.1-3.8-3.6-6.6-3.6h-16.1c-2.7,0-5.2,1.4-6.6,3.6h-16.2s0,0,0,0c-9.7,0-15.5-12-19.2-21.1-1.2-3-2.2-6-2.9-9.1l-4.5-18.6c-.3-1.2-.2-2.4.2-3.6,1.7-4.8,6.5-8.8,18.6-5.6v-18.9c0-5.4,4.3-9.7,9.7-9.7s9.7,4.3,9.7,9.7v-3.2c0-5.3,4.3-9.7,9.7-9.7s9.7,4.3,9.7,9.7v6.1c0-5.4,4.3-9.7,9.7-9.7s9.7,4.3,9.7,9.7Z"/>
          <path class="st6" d="M278.3,330.6l3.3,57.3h-63.2s3.3-57.3,3.3-57.3h14.4c1.4,2.1,3.8,3.5,6.6,3.5h16.1c2.8,0,5.2-1.4,6.6-3.5h12.8Z"/>
          <path class="st8" d="M266.8,317.4v8.9c0,1.6-.5,3.1-1.3,4.3h-29.2c-.8-1.2-1.3-2.7-1.3-4.3v-8.9c0-1.6.5-3.1,1.3-4.3h29.2c.8,1.2,1.3,2.7,1.3,4.3Z"/>
          <path class="st8" d="M265.5,313.1h-29.2c1.4-2.1,3.8-3.6,6.6-3.6h16.1c2.8,0,5.2,1.4,6.6,3.6Z"/>
          <path class="st8" d="M236.3,330.6h29.2c-1.4,2.1-3.8,3.5-6.6,3.5h-16.1c-2.7,0-5.2-1.4-6.6-3.5Z"/>
          <path class="st7" d="M220.1,313.1h16.2c-.8,1.2-1.3,2.7-1.3,4.3v8.9c0,1.6.5,3.1,1.3,4.3h-14.4s-1.8,0-1.8,0c-4.8,0-8.8-3.9-8.8-8.8s1-4.6,2.6-6.2c1.6-1.6,3.8-2.6,6.2-2.6h0Z"/>
        </g>
        <g>
          <path class="st2" d="M265.5,313.1h16.7c.4,0,.7,0,1.1,0,4.3.5,7.7,4.2,7.7,8.7s-1,4.6-2.6,6.2c-1.6,1.6-3.8,2.6-6.2,2.6h-4s-12.8,0-12.8,0"/>
          <line class="st2" x1="220.1" y1="313.1" x2="236.3" y2="313.1"/>
          <path class="st2" d="M236.3,330.6h-14.4s-1.8,0-1.8,0c-4.8,0-8.8-3.9-8.8-8.8s1-4.6,2.6-6.2c1.6-1.6,3.8-2.6,6.2-2.6"/>
          <path class="st2" d="M283.4,313.1c3.2-1.4,6.3-3.6,6.3-10.3,0-9.4,0-63.6,0-63.6"/>
          <polyline class="st0" points="212.2 236.2 212.2 255.2 212.2 290.7"/>
          <path class="st2" d="M220.1,313.1h0c-9.7,0-15.5-12-19.2-21.1-1.2-3-2.2-6-2.9-9.1l-4.5-18.6c-.3-1.2-.2-2.4.2-3.6,1.7-4.8,6.5-8.8,18.6-5.6"/>
          <path class="st2" d="M212.2,236.2c0-5.4,4.3-9.7,9.7-9.7s9.7,4.3,9.7,9.7"/>
          <path class="st0" d="M250.9,239.2c0-5.4,4.3-9.7,9.7-9.7s9.7,4.3,9.7,9.7v7.9"/>
          <line class="st0" x1="250.9" y1="247.1" x2="250.9" y2="240.1"/>
          <path class="st2" d="M270.3,239.2c0-5.4,4.3-9.7,9.7-9.7s9.7,4.3,9.7,9.7"/>
          <path class="st0" d="M231.5,247.1v-10.8s0-3.2,0-3.2c0-5.3,4.3-9.7,9.7-9.7s9.7,4.3,9.7,9.7v6.1s0,.8,0,.8"/>
          <path class="st2" d="M265.5,330.6c-1.4,2.1-3.8,3.5-6.6,3.5h-16.1c-2.7,0-5.2-1.4-6.6-3.5-.8-1.2-1.3-2.7-1.3-4.3v-8.9c0-1.6.5-3.1,1.3-4.3,1.4-2.1,3.8-3.6,6.6-3.6h16.1c2.8,0,5.2,1.4,6.6,3.6.8,1.2,1.3,2.7,1.3,4.3v8.9c0,1.6-.5,3.1-1.3,4.3Z"/>
          <polyline class="st2" points="221.8 330.6 218.5 388 281.7 388 278.3 330.6"/>
        </g>
      </g>
      <path class="st5" d="M170,229.4h0c4.4,0,8,3.6,8,8v76.2h-16v-76.2c0-4.4,3.6-8,8-8Z" transform="translate(-101.4 441.5) rotate(-90)"/>
      <path class="st5" d="M331.8,229.4h0c4.4,0,8,3.6,8,8v76.2h-16v-76.2c0-4.4,3.6-8,8-8Z" transform="translate(603.3 -60.3) rotate(90)"/>
    </g>
  </g>
</svg>