<?xml version="1.0" encoding="UTF-8"?>
<svg id="Layer_1" data-name="Layer 1" xmlns="http://www.w3.org/2000/svg" version="1.1" viewBox="0 0 501 501">
  <defs>
    <style>
      .cls-1, .cls-2, .cls-3, .cls-4, .cls-5, .cls-6, .cls-7 {
        stroke: #231f20;
        stroke-miterlimit: 10;
      }

      .cls-1, .cls-4 {
        fill: none;
      }

      .cls-1, .cls-4, .cls-7 {
        stroke-width: 5px;
      }

      .cls-2 {
        fill: #e0deea;
      }

      .cls-3 {
        fill: #9f9cc2;
      }

      .cls-4 {
        stroke-linecap: round;
      }

      .cls-8 {
        fill: #625d9c;
        stroke-width: 0px;
      }

      .cls-5 {
        fill: #807daf;
      }

      .cls-6 {
        fill: #bfbdd6;
      }

      .cls-7 {
        fill: #46416e;
      }
    </style>
  </defs>
  <rect class="cls-8" x=".5" y=".5" width="500" height="500"/>
  <g>
    <g>
      <g>
        <g>
          <path class="cls-2" d="M347.7,209.7c3.2,4.1,2.9,10-.9,13.8-2,2-4.7,3.1-7.4,3.1s-5.4-1-7.4-3.1l-3.3-3.3-10.8-10.8c1.7-.4,3.4-1.2,4.7-2.5l7.5-7.5c1.4-1.4,2.2-3,2.5-4.7l14.1,14.1c.3.3.6.6.9,1h0Z"/>
          <path class="cls-5" d="M336.6,100.8l16-16c4.5-4.5,11.8-4.5,16.3,0s4.5,11.8,0,16.3l2.7-2.7c4.5-4.5,11.8-4.5,16.3,0s4.5,11.8,0,16.3l-5.1,5.2c4.5-4.5,11.8-4.5,16.3,0s4.5,11.8,0,16.3c4.5-4.5,11.8-4.5,16.3,0s4.5,11.8,0,16.3c0,0-45.7,45.7-53.6,53.6-5.7,5.7-10.1,4.9-14,3.4h0c-.3-.3-.5-.6-.9-.9l-14.1-14.1c.6-3-.2-6.2-2.5-8.5l-13.5-13.6c-2.3-2.3-5.5-3.2-8.5-2.5l-13.7-13.7h0c-8.2-8.3-2.9-23.2,1.6-34,1.5-3.5,3.2-6.9,5.2-10.2l11.9-19.5c.8-1.2,1.9-2.2,3.2-2.8,5.5-2.5,12.9-1.9,20.4,10.9h0l-.3.2Z"/>
          <path class="cls-5" d="M308.3,243.1c-.5.5-1,1-1.4,1.5-13.8,13.8-36.2,13.9-50.2,0-14.4-14.4-13.8-38.1,1.5-51.6l23-20.5,12.2,12.2c-.6,3,.2,6.2,2.5,8.5l13.5,13.6c2.3,2.3,5.6,3.2,8.5,2.5l10.8,10.8-20.5,23h.1Z"/>
          <path class="cls-2" d="M294.5,156.3l13.7,13.7c-1.7.4-3.4,1.2-4.7,2.5l-7.5,7.5c-1.3,1.3-2.2,3-2.5,4.7l-12.2-12.2-1.5-1.6c-4.1-4.1-4.1-10.7,0-14.8s4.7-3.1,7.4-3.1,5.4,1,7.4,3.1h0v.2Z"/>
        </g>
        <g>
          <path class="cls-1" d="M332.8,194.6l14.1,14.1c.3.3.6.6.9,1,3.2,4.1,2.9,10-.9,13.8-2,2-4.7,3.1-7.4,3.1s-5.4-1-7.4-3.1l-3.3-3.3-10.8-10.8"/>
          <line class="cls-1" x1="294.5" y1="156.3" x2="308.2" y2="170"/>
          <path class="cls-1" d="M293.4,184.7l-12.2-12.2-1.5-1.6c-4.1-4.1-4.1-10.7,0-14.8s4.7-3.1,7.4-3.1,5.4,1,7.4,3.1"/>
          <path class="cls-1" d="M347.8,209.6c3.9,1.5,8.3,2.3,14-3.4l53.6-53.6"/>
          <polyline class="cls-4" points="352.6 84.8 336.6 100.8 306.7 130.7"/>
          <path class="cls-1" d="M294.5,156.3h0c-8.2-8.3-2.9-23.2,1.6-34,1.5-3.5,3.2-6.9,5.2-10.2l11.9-19.5c.8-1.2,1.9-2.2,3.2-2.8,5.5-2.5,12.9-1.9,20.4,10.9"/>
          <path class="cls-1" d="M352.6,84.8c4.5-4.5,11.8-4.5,16.3,0s4.5,11.8,0,16.3"/>
          <path class="cls-4" d="M382.8,120c4.5-4.5,11.8-4.5,16.3,0s4.5,11.8,0,16.3l-6.6,6.6"/>
          <line class="cls-4" x1="376.1" y1="126.6" x2="382" y2="120.7"/>
          <path class="cls-1" d="M399.1,136.3c4.5-4.5,11.8-4.5,16.3,0s4.5,11.8,0,16.3"/>
          <path class="cls-4" d="M359.8,110.3l9.1-9.1,2.7-2.7c4.5-4.5,11.8-4.5,16.3,0s4.5,11.8,0,16.3l-5.1,5.2-.7.7"/>
          <path class="cls-1" d="M318,209.4c-3,.6-6.2-.2-8.5-2.5l-13.5-13.6c-2.3-2.3-3.2-5.6-2.5-8.5.3-1.7,1.2-3.4,2.5-4.7l7.5-7.5c1.4-1.4,3-2.2,4.7-2.5,3-.6,6.2.2,8.5,2.5l13.5,13.6c2.3,2.3,3.2,5.5,2.5,8.5-.4,1.7-1.2,3.4-2.5,4.7l-7.5,7.5c-1.3,1.3-3,2.2-4.7,2.5Z"/>
          <path class="cls-1" d="M281.2,172.5l-23,20.5c-15.3,13.6-15.9,37.2-1.5,51.6,14.4,14.4,36.4,13.8,50.2,0,.5-.5,1-1,1.4-1.5l20.5-23"/>
        </g>
      </g>
      <g>
        <g>
          <path class="cls-2" d="M153.3,291.9c-3.2-4.1-2.9-10,.8-13.8,2-2,4.7-3,7.4-3.1,2.7,0,5.4,1,7.4,3.1l3.3,3.3,10.8,10.8c-1.7.4-3.4,1.2-4.7,2.5l-7.5,7.5c-1.4,1.4-2.2,3-2.6,4.7l-14.1-14.1c-.3-.3-.6-.6-.8-1h0Z"/>
          <path class="cls-6" d="M132.1,400.4l-2.7,2.7c-4.5,4.5-11.8,4.5-16.3,0s-4.5-11.8,0-16.3l5.2-5.2c-4.5,4.5-11.8,4.5-16.3,0s-4.5-11.8,0-16.3c-4.5,4.5-11.8,4.5-16.3,0s-4.5-11.8,0-16.3l53.6-53.6c5.7-5.7,10.1-4.9,14-3.4h0c.2.3.5.6.8.9l14.1,14.1c-.6,3,.2,6.2,2.5,8.5l13.6,13.5c2.3,2.3,5.6,3.2,8.5,2.5l13.7,13.7h0c8.2,8.3,2.9,23.2-1.6,34-1.5,3.5-3.2,6.9-5.2,10.2l-11.9,19.5c-.8,1.2-1.9,2.2-3.2,2.8-5.5,2.5-12.9,1.9-20.4-11l-16,16c-4.5,4.5-11.8,4.5-16.3,0s-4.5-11.8,0-16.3h.2Z"/>
          <path class="cls-6" d="M192.7,258.4c.5-.5.9-1,1.4-1.5,13.8-13.8,36.2-13.9,50.2,0,14.4,14.4,13.7,38.1-1.5,51.6l-23,20.5-12.2-12.2c.6-3-.2-6.2-2.6-8.5l-13.6-13.5c-2.3-2.3-5.5-3.2-8.5-2.5l-10.8-10.8,20.5-23h.1Z"/>
          <path class="cls-2" d="M206.5,345.3l-13.7-13.7c1.7-.4,3.4-1.2,4.7-2.5l7.5-7.5c1.4-1.4,2.2-3,2.5-4.7l12.2,12.2,1.6,1.5c4.1,4.1,4.1,10.7,0,14.8-2,2-4.7,3-7.4,3.1-2.7,0-5.4-1-7.4-3.1h0Z"/>
        </g>
        <g>
          <path class="cls-1" d="M168.2,306.9l-14.1-14.1c-.3-.3-.6-.6-.8-1-3.2-4.1-2.9-10,.8-13.8,2-2,4.7-3,7.4-3.1,2.7,0,5.4,1,7.4,3.1l3.3,3.3,10.8,10.8"/>
          <line class="cls-1" x1="206.5" y1="345.3" x2="192.8" y2="331.6"/>
          <path class="cls-1" d="M207.6,316.8l12.2,12.2,1.6,1.5c4.1,4.1,4.1,10.7,0,14.8-2,2-4.7,3-7.4,3.1-2.7,0-5.4-1-7.4-3.1"/>
          <path class="cls-1" d="M153.2,291.9c-3.9-1.5-8.3-2.3-14,3.4l-53.6,53.6"/>
          <polyline class="cls-4" points="148.4 416.7 164.4 400.7 194.3 370.8"/>
          <path class="cls-1" d="M206.5,345.3h0c8.2,8.3,2.9,23.2-1.6,34-1.5,3.5-3.2,6.9-5.2,10.2l-11.9,19.5c-.8,1.2-1.9,2.2-3.2,2.8-5.5,2.5-12.9,1.9-20.4-11"/>
          <path class="cls-1" d="M148.4,416.7c-4.5,4.5-11.8,4.5-16.3,0s-4.5-11.8,0-16.3"/>
          <path class="cls-4" d="M118.2,381.5c-4.5,4.5-11.8,4.5-16.3,0s-4.5-11.8,0-16.3l6.6-6.6"/>
          <line class="cls-4" x1="124.9" y1="374.9" x2="119" y2="380.8"/>
          <path class="cls-1" d="M101.9,365.2c-4.5,4.5-11.8,4.5-16.3,0-4.5-4.5-4.5-11.8,0-16.3"/>
          <path class="cls-4" d="M141.2,391.2l-9.1,9.1-2.7,2.7c-4.5,4.5-11.8,4.5-16.3,0s-4.5-11.8,0-16.3l5.2-5.2.7-.7"/>
          <path class="cls-1" d="M183,292.2c3-.6,6.2.2,8.5,2.5l13.6,13.5c2.3,2.3,3.2,5.5,2.6,8.5-.4,1.7-1.2,3.4-2.5,4.7l-7.5,7.5c-1.4,1.4-3,2.2-4.7,2.5-3,.6-6.2-.2-8.5-2.5l-13.6-13.5c-2.3-2.3-3.2-5.5-2.5-8.5.4-1.7,1.2-3.4,2.6-4.7l7.5-7.5c1.4-1.4,3-2.2,4.7-2.5h-.2Z"/>
          <path class="cls-1" d="M219.8,329l23-20.5c15.3-13.6,15.9-37.2,1.5-51.6-13.9-13.9-36.4-13.8-50.2,0-.5.5-1,1-1.4,1.5l-20.5,23"/>
        </g>
      </g>
    </g>
    <g>
      <g>
        <g>
          <path class="cls-2" d="M209.4,153.5c4.1-3.2,10-2.9,13.8.9,2,2,3.1,4.7,3.1,7.4s-1,5.4-3.1,7.4l-3.3,3.3-10.8,10.8c-.4-1.7-1.2-3.4-2.5-4.7l-7.5-7.5c-1.4-1.4-3-2.2-4.7-2.5l14.1-14.1c.3-.3.6-.6,1-.9h-.1Z"/>
          <path class="cls-2" d="M100.5,164.6l-16-16c-4.5-4.5-4.5-11.8,0-16.3s11.8-4.5,16.3,0l-2.7-2.7c-4.5-4.5-4.5-11.8,0-16.3s11.8-4.5,16.3,0l5.2,5.2c-4.5-4.5-4.5-11.8,0-16.3s11.8-4.5,16.3,0c-4.5-4.5-4.5-11.8,0-16.3s11.8-4.5,16.3,0l53.6,53.6c5.7,5.7,4.9,10.1,3.4,14h0c-.3.3-.6.6-1,.9l-14.1,14.1c-3-.6-6.2.2-8.5,2.5l-13.6,13.6c-2.3,2.3-3.2,5.5-2.5,8.5l-13.7,13.7h0c-8.2,8.2-23.2,3-33.9-1.5-3.5-1.5-6.9-3.2-10.2-5.2l-19.5-11.9c-1.2-.8-2.2-1.9-2.8-3.2-2.5-5.5-1.9-12.9,10.9-20.4h.2Z"/>
          <path class="cls-2" d="M242.9,192.9c.5.5,1,.9,1.5,1.4,13.8,13.8,13.9,36.2,0,50.2-14.4,14.4-38.1,13.8-51.6-1.5l-20.5-23,12.2-12.2c3,.6,6.2-.2,8.5-2.5l13.6-13.6c2.3-2.3,3.2-5.6,2.5-8.5l10.8-10.8,23,20.5h0Z"/>
          <path class="cls-2" d="M156,206.8l13.7-13.7c.4,1.7,1.2,3.4,2.5,4.7l7.5,7.5c1.4,1.4,3,2.2,4.7,2.5l-12.2,12.2-1.6,1.6c-4.1,4.1-10.7,4.1-14.8,0s-3.1-4.7-3.1-7.4,1-5.3,3.1-7.4h.2Z"/>
        </g>
        <g>
          <path class="cls-1" d="M194.3,168.5l14.1-14.1c.3-.3.6-.6,1-.9,4.1-3.2,10-2.9,13.8.9,2,2,3.1,4.7,3.1,7.4s-1,5.4-3.1,7.4l-3.3,3.3-10.8,10.8"/>
          <line class="cls-1" x1="156" y1="206.8" x2="169.7" y2="193.1"/>
          <path class="cls-1" d="M184.4,207.9l-12.2,12.2-1.6,1.6c-4.1,4.1-10.7,4.1-14.8,0s-3.1-4.7-3.1-7.4,1-5.3,3.1-7.4"/>
          <path class="cls-1" d="M209.3,153.5c1.5-3.9,2.3-8.3-3.4-14l-53.6-53.6"/>
          <polyline class="cls-4" points="84.6 148.7 100.5 164.6 130.4 194.6"/>
          <path class="cls-1" d="M156,206.8h0c-8.2,8.2-23.2,3-33.9-1.5-3.5-1.5-6.9-3.2-10.2-5.2l-19.5-11.9c-1.2-.8-2.2-1.9-2.8-3.2-2.5-5.5-1.9-12.9,10.9-20.4"/>
          <path class="cls-1" d="M84.6,148.7c-4.5-4.5-4.5-11.8,0-16.3s11.8-4.5,16.3,0"/>
          <path class="cls-4" d="M119.7,118.5c-4.5-4.5-4.5-11.8,0-16.3s11.8-4.5,16.3,0l6.6,6.6"/>
          <line class="cls-4" x1="126.4" y1="125.2" x2="120.4" y2="119.2"/>
          <path class="cls-1" d="M136.1,102.2c-4.5-4.5-4.5-11.8,0-16.3s11.8-4.5,16.3,0"/>
          <path class="cls-4" d="M110,141.5l-9.1-9.1-2.7-2.7c-4.5-4.5-4.5-11.8,0-16.3s11.8-4.5,16.3,0l5.2,5.2.7.7"/>
          <path class="cls-1" d="M209.1,183.2c.6,3-.2,6.2-2.5,8.5l-13.6,13.6c-2.3,2.3-5.6,3.2-8.5,2.5-1.7-.4-3.4-1.2-4.7-2.5l-7.5-7.5c-1.4-1.4-2.2-3-2.5-4.7-.6-3,.2-6.2,2.5-8.5l13.6-13.6c2.3-2.3,5.5-3.2,8.5-2.5,1.7.4,3.4,1.2,4.7,2.5l7.5,7.5c1.4,1.4,2.2,3,2.5,4.7h0Z"/>
          <path class="cls-1" d="M172.3,220.1l20.5,23c13.6,15.3,37.2,15.9,51.6,1.5s13.8-36.4,0-50.2-1-1-1.5-1.4l-23-20.5"/>
        </g>
      </g>
      <g>
        <g>
          <path class="cls-2" d="M291.6,348c-4.1,3.2-10,2.9-13.8-.9s-3-4.7-3.1-7.4c0-2.7,1-5.3,3.1-7.4l3.3-3.3,10.8-10.8c.4,1.7,1.2,3.4,2.5,4.7l7.5,7.5c1.4,1.4,3,2.2,4.7,2.5l-14.1,14.1c-.3.3-.6.6-1,.9h.1Z"/>
          <path class="cls-3" d="M400.5,336.9l16,16c4.5,4.5,4.5,11.8,0,16.3s-11.8,4.5-16.3,0l2.7,2.7c4.5,4.5,4.5,11.8,0,16.3s-11.8,4.5-16.3,0l-5.1-5.1c4.5,4.5,4.5,11.8,0,16.3s-11.8,4.5-16.3,0c4.5,4.5,4.5,11.8,0,16.3s-11.8,4.5-16.3,0l-53.6-53.6c-5.7-5.7-4.9-10.1-3.4-14h0c.3-.3.6-.6,1-.9l14.1-14.1c3,.6,6.2-.2,8.5-2.5l13.5-13.5c2.3-2.3,3.2-5.5,2.5-8.5l13.7-13.7h0c8.2-8.2,23.2-3,33.9,1.5,3.5,1.5,6.9,3.2,10.2,5.2l19.5,11.9c1.2.8,2.2,1.9,2.8,3.2,2.5,5.5,1.9,12.9-11,20.4h0v-.2Z"/>
          <path class="cls-3" d="M258.1,308.6l-1.5-1.5c-13.7-13.7-13.9-36.2,0-50.2,14.4-14.4,38.1-13.7,51.6,1.5l20.5,23-12.2,12.2c-3-.6-6.2.2-8.5,2.5l-13.5,13.5c-2.3,2.3-3.2,5.5-2.5,8.5l-10.8,10.8-23-20.5h0v.2Z"/>
          <path class="cls-2" d="M345,294.7l-13.7,13.7c-.4-1.7-1.2-3.4-2.5-4.7l-7.5-7.5c-1.4-1.4-3-2.2-4.7-2.5l12.2-12.2,1.5-1.5c4.1-4.1,10.7-4.1,14.8,0,2,2,3,4.7,3.1,7.4,0,2.7-1,5.3-3.1,7.4h0Z"/>
        </g>
        <g>
          <path class="cls-1" d="M306.7,333.1l-14.1,14.1c-.3.3-.6.6-1,.9-4.1,3.2-10,2.9-13.8-.9s-3-4.7-3.1-7.4c0-2.7,1-5.3,3.1-7.4l3.3-3.3,10.8-10.8"/>
          <line class="cls-1" x1="345" y1="294.7" x2="331.3" y2="308.4"/>
          <path class="cls-1" d="M316.5,293.7l12.2-12.2,1.5-1.5c4.1-4.1,10.7-4.1,14.8,0,2,2,3,4.7,3.1,7.4,0,2.7-1,5.3-3.1,7.4"/>
          <path class="cls-1" d="M291.6,348.1c-1.5,3.9-2.3,8.3,3.4,14l53.6,53.6"/>
          <polyline class="cls-4" points="416.4 352.9 400.5 336.9 370.5 307"/>
          <path class="cls-1" d="M345,294.7h0c8.2-8.2,23.2-3,33.9,1.5,3.5,1.5,6.9,3.2,10.2,5.2l19.5,11.9c1.2.8,2.2,1.9,2.8,3.2,2.5,5.5,1.9,12.9-11,20.4"/>
          <path class="cls-1" d="M416.4,352.9c4.5,4.5,4.5,11.8,0,16.3s-11.8,4.5-16.3,0"/>
          <path class="cls-4" d="M381.3,383c4.5,4.5,4.5,11.8,0,16.3s-11.8,4.5-16.3,0l-6.6-6.6"/>
          <line class="cls-4" x1="374.6" y1="376.4" x2="380.5" y2="382.3"/>
          <path class="cls-1" d="M364.9,399.4c4.5,4.5,4.5,11.8,0,16.3s-11.8,4.5-16.3,0"/>
          <path class="cls-4" d="M391,360.1l9.1,9.1,2.7,2.7c4.5,4.5,4.5,11.8,0,16.3s-11.8,4.5-16.3,0l-5.1-5.1-.7-.7"/>
          <path class="cls-1" d="M291.9,318.3c-.6-3,.2-6.2,2.5-8.5l13.5-13.5c2.3-2.3,5.5-3.2,8.5-2.5,1.7.4,3.4,1.2,4.7,2.5l7.5,7.5c1.4,1.4,2.2,3,2.5,4.7.6,3-.2,6.2-2.5,8.5l-13.5,13.5c-2.3,2.3-5.5,3.2-8.5,2.5-1.7-.4-3.4-1.2-4.7-2.5l-7.5-7.5c-1.4-1.4-2.2-3-2.5-4.7Z"/>
          <path class="cls-1" d="M328.7,281.5l-20.5-23c-13.6-15.3-37.2-15.9-51.6-1.5-13.9,14-13.8,36.4,0,50.2l1.5,1.5,23,20.5"/>
        </g>
      </g>
    </g>
    <path class="cls-7" d="M311.4,236.6c0-18.8-15.2-34-34-34s-20.7,5.2-26.9,13.2c-6.2-8.1-16-13.2-26.9-13.2-18.8,0-34,15.2-34,34,0,34.4,61.5,62.4,61.5,62.4,0,0,60.4-28.1,60.4-62.4h-.1Z"/>
  </g>
</svg>