<?xml version="1.0" encoding="UTF-8"?>
<svg id="Layer_1" xmlns="http://www.w3.org/2000/svg" version="1.1" viewBox="0 0 500 500">
  <!-- Generator: Adobe Illustrator 29.0.1, SVG Export Plug-In . SVG Version: 2.1.0 Build 192)  -->
  <defs>
    <style>
      .st0 {
        fill: #d1cee0;
      }

      .st1 {
        stroke-linecap: round;
      }

      .st1, .st2 {
        fill: none;
        stroke: #231f20;
        stroke-miterlimit: 10;
        stroke-width: 5px;
      }

      .st3 {
        fill: #9ad2db;
      }

      .st4 {
        fill: #27253d;
      }

      .st5 {
        fill: #e0deea;
      }

      .st6 {
        fill: #032c33;
      }

      .st7 {
        fill: #625d9c;
      }

      .st8 {
        fill: #46416e;
      }
    </style>
  </defs>
  <rect class="st7" x="0" width="500" height="500"/>
  <g>
    <g>
      <path class="st4" d="M408.7,192.3c6.1,0,11,4.9,11,11,0,6.1-4.9,11-11,11h-44.9s-1.9-4.6-1.9-4.6l-1.9,4.6h-55.9v-22h104.7Z"/>
      <path class="st8" d="M398.3,295.8h17.1c0,5.3-.8,10.5-2.2,15.4l-1.1-.3h-101.6c-1.4-4.8-2.1-9.8-2.1-15h17.1s72.8,0,72.8,0Z"/>
      <path class="st8" d="M412.1,310.8l1.1.3c-6.6,22.1-27.1,38.2-51.3,38.2-24.3,0-44.9-16.3-51.4-38.5h101.6Z"/>
      <polygon class="st6" points="361.9 209.7 363.8 214.3 359.9 214.3 361.9 209.7"/>
      <path class="st5" d="M295.3,260.6c6,.7,10.6,5.8,10.6,11.9s-1.4,6.3-3.5,8.5c-2.2,2.2-5.2,3.5-8.5,3.5h-5.4s-17.6,0-17.6,0c1.1-1.7,1.8-3.7,1.8-5.9v-12.2c0-2.2-.6-4.2-1.8-5.9h23c.5,0,1,0,1.5,0Z"/>
      <path class="st0" d="M295.3,260.5h0c-.5,0-1,0-1.5,0h-23c-1.9-2.9-5.2-4.9-9-4.9h-22.1c-3.8,0-7.1,1.9-9,4.9h-22.3s0,0,0,0c-13.3,0-21.3-16.5-26.4-28.9-1.7-4.1-3-8.3-4.1-12.5l-1.1-4.8h20.8s0-22,0-22v-11.4s0-26,0-26c0-7.3,6-13.3,13.3-13.3s13.3,6,13.3,13.3v-4.3c0-7.3,6-13.3,13.3-13.3s13.3,6,13.3,13.3v8.4c0-7.3,6-13.3,13.3-13.3s13.3,6,13.3,13.3c0-7.3,6-13.3,13.3-13.3s13.3,6,13.3,13.3c0,0,0,15.4,0,33.3v22c0,14.5,0,27.4,0,32.1,0,9.3-4.3,12.2-8.7,14.2Z"/>
      <path class="st0" d="M288.4,284.5l4.6,78.8h-86.8s4.6-78.8,4.6-78.8h19.9c1.9,2.9,5.2,4.9,9,4.9h22.1c3.8,0,7.1-1.9,9-4.9h17.6Z"/>
      <path class="st4" d="M272.6,266.4v12.2c0,2.2-.6,4.2-1.8,5.9h-40.1c-1.1-1.7-1.8-3.7-1.8-5.9v-12.2c0-2.2.6-4.2,1.8-5.9h40.2c1.1,1.7,1.8,3.7,1.8,5.9Z"/>
      <path class="st4" d="M270.9,260.5h-40.2c1.9-2.9,5.3-4.9,9-4.9h22.1c3.8,0,7.1,1.9,9,4.9Z"/>
      <path class="st4" d="M230.7,284.5h40.1c-1.9,2.9-5.2,4.9-9,4.9h-22.1c-3.8,0-7.1-1.9-9-4.9Z"/>
      <path class="st5" d="M230.7,284.5h-19.9s-2.5,0-2.5,0c-6.6,0-12-5.4-12-12s1.4-6.3,3.5-8.5c2.2-2.2,5.2-3.5,8.5-3.5h0s22.3,0,22.3,0c-1.1,1.7-1.8,3.7-1.8,5.9v12.2c0,2.2.6,4.2,1.8,5.9Z"/>
      <path class="st6" d="M197.5,192.3v22h-20.8s-5-20.8-5-20.8c0-.4-.2-.8-.2-1.2h26Z"/>
      <path class="st8" d="M170.2,295.8h17.1c0,5.3-.8,10.5-2.2,15.4l-1.1-.3h-101.6c-1.4-4.8-2.2-9.8-2.2-15h17.1s72.8,0,72.8,0Z"/>
      <path class="st8" d="M184,310.8l1.1.3c-6.6,22.1-27.1,38.2-51.3,38.2s-44.9-16.3-51.4-38.5h101.6Z"/>
      <path class="st4" d="M176.7,214.3h-41s-1.9-4.6-1.9-4.6l-1.9,4.6h-39.1c-6.1,0-11-4.9-11-11,0-6.1,4.9-11,11-11h78.7c0,.4,0,.8.2,1.2l5,20.8Z"/>
      <path class="st3" d="M172,188.6c2.4-6.5,9-12.1,25.6-7.7v11.4h-26c-.1-1.2,0-2.5.5-3.7Z"/>
      <polygon class="st6" points="133.8 209.7 135.7 214.3 131.9 214.3 133.8 209.7"/>
    </g>
    <g>
      <line class="st2" x1="131.9" y1="214.3" x2="97.4" y2="295.8"/>
      <line class="st2" x1="170.2" y1="295.8" x2="135.7" y2="214.3"/>
      <path class="st2" d="M97.4,295.8h-17.1c0,5.2.8,10.3,2.2,15,6.5,22.3,27.1,38.5,51.4,38.5s44.7-16.1,51.3-38.2c1.4-4.9,2.2-10,2.2-15.4h-17.1s-72.8,0-72.8,0Z"/>
      <line class="st2" x1="82.4" y1="310.8" x2="184" y2="310.8"/>
      <line class="st2" x1="359.9" y1="214.3" x2="325.5" y2="295.8"/>
      <line class="st2" x1="398.3" y1="295.8" x2="363.8" y2="214.3"/>
      <path class="st2" d="M325.5,295.8h-17.1c0,5.2.8,10.3,2.1,15,6.5,22.3,27.1,38.5,51.4,38.5,24.2,0,44.7-16.1,51.3-38.2,1.4-4.9,2.2-10,2.2-15.4h-17.1s-72.8,0-72.8,0Z"/>
      <line class="st2" x1="310.5" y1="310.8" x2="412.1" y2="310.8"/>
      <path class="st2" d="M270.9,260.5h23c.5,0,1,0,1.5,0,6,.7,10.6,5.8,10.6,11.9s-1.4,6.3-3.5,8.5c-2.2,2.2-5.2,3.5-8.5,3.5h-5.4s-17.6,0-17.6,0"/>
      <line class="st2" x1="208.4" y1="260.5" x2="230.7" y2="260.5"/>
      <path class="st2" d="M230.7,284.5h-19.9s-2.5,0-2.5,0c-6.6,0-12-5.4-12-12s1.4-6.3,3.5-8.5c2.2-2.2,5.2-3.5,8.5-3.5"/>
      <path class="st2" d="M304,192.3c0-18,0-33.3,0-33.3"/>
      <path class="st2" d="M295.3,260.5c4.4-1.9,8.7-4.9,8.7-14.2s0-17.6,0-32.1"/>
      <line class="st1" x1="197.5" y1="214.3" x2="197.5" y2="229.7"/>
      <polyline class="st1" points="197.5 154.9 197.5 180.9 197.5 192.3"/>
      <path class="st2" d="M171.5,192.3c-.1-1.2,0-2.5.5-3.7,2.4-6.5,9-12.1,25.6-7.7"/>
      <path class="st2" d="M208.4,260.5h0c-13.3,0-21.3-16.5-26.4-28.9-1.7-4.1-3-8.3-4.1-12.5l-1.1-4.8"/>
      <path class="st2" d="M197.5,154.9c0-7.3,6-13.3,13.3-13.3s13.3,6,13.3,13.3"/>
      <path class="st1" d="M250.8,158.9c0-7.3,6-13.3,13.3-13.3s13.3,6,13.3,13.3v10.8"/>
      <line class="st1" x1="250.8" y1="169.8" x2="250.8" y2="160.1"/>
      <path class="st2" d="M277.4,158.9c0-7.3,6-13.3,13.3-13.3s13.3,6,13.3,13.3"/>
      <path class="st1" d="M224.2,169.8v-14.9s0-4.3,0-4.3c0-7.3,6-13.3,13.3-13.3s13.3,6,13.3,13.3v8.4s0,1.2,0,1.2"/>
      <path class="st2" d="M270.9,284.5c-1.9,2.9-5.2,4.9-9,4.9h-22.1c-3.8,0-7.1-1.9-9-4.9-1.1-1.7-1.8-3.7-1.8-5.9v-12.2c0-2.2.6-4.2,1.8-5.9,1.9-2.9,5.3-4.9,9-4.9h22.1c3.8,0,7.1,1.9,9,4.9,1.1,1.7,1.8,3.7,1.8,5.9v12.2c0,2.2-.6,4.2-1.8,5.9Z"/>
      <polyline class="st2" points="210.9 284.5 206.2 363.3 293 363.3 288.4 284.5"/>
      <path class="st2" d="M171.5,192.3h-78.7c-6.1,0-11,4.9-11,11,0,6.1,4.9,11,11,11h39.1s3.9,0,3.9,0h41s20.8,0,20.8,0v-22s-26,0-26,0Z"/>
      <path class="st2" d="M363.8,214.3h44.9c6.1,0,11-4.9,11-11,0-6.1-4.9-11-11-11h-104.7v22s55.9,0,55.9,0h3.9Z"/>
    </g>
  </g>
</svg>