<?xml version="1.0" encoding="UTF-8"?>
<svg id="Layer_1" data-name="Layer 1" xmlns="http://www.w3.org/2000/svg" version="1.1" viewBox="0 0 500 500">
  <defs>
    <style>
      .cls-1 {
        fill: none;
        stroke-width: 5px;
      }

      .cls-1, .cls-2, .cls-3, .cls-4, .cls-5 {
        stroke: #231f20;
        stroke-miterlimit: 10;
      }

      .cls-2 {
        fill: #108c7d;
      }

      .cls-6 {
        fill: #06af9a;
        stroke-width: 0px;
      }

      .cls-3 {
        fill: #06342f;
      }

      .cls-4 {
        fill: #fff;
      }

      .cls-5 {
        fill: #9ed8d5;
      }
    </style>
  </defs>
  <g id="Layer_2" data-name="Layer 2">
    <g id="Layer_2-2" data-name="Layer 2-2">
      <rect class="cls-6" y=".3" width="500" height="500"/>
    </g>
  </g>
  <g id="Layer_1-2" data-name="Layer 1">
    <g>
      <g>
        <path class="cls-3" d="M83.2,214.6l23.9,41.3-23.9,41.3c-3.3-13.2-5-27.1-5-41.3s1.8-28.1,5-41.3Z"/>
        <path class="cls-3" d="M178.8,379.2l24.3,42c-27.7-7.9-52.6-22.5-72.7-42h48.4,0Z"/>
        <path class="cls-3" d="M416.2,213.9h.4c3.4,13.5,5.2,27.6,5.2,42.1s-1.8,28.6-5.2,42h-.4l-24.3-42.1,24.3-42.1h0Z"/>
        <path class="cls-3" d="M297.2,90.7c27.5,7.8,52.2,22.4,72.2,41.7h-48.1s-24.1-41.7-24.1-41.7Z"/>
        <polygon class="cls-3" points="274.3 213.9 298.5 255.9 272.5 298 225.7 298 201.4 255.9 227.5 213.9 274.3 213.9"/>
        <path class="cls-3" d="M366.2,382.4h0c-20,18.4-44.3,32.1-71.3,39.4l22.6-39.2v-.2h48.7Z"/>
        <path class="cls-3" d="M207.4,89.5l-23.9,41.4h-48.6l-.9-1.6c20.5-18.8,45.6-32.7,73.4-39.8Z"/>
        <path class="cls-4" d="M416.2,298h.4c-8.3,32.9-26.1,62.1-50.3,84.4h-48.6s0,.1,0,.1l-45.1-84.5h1.8l24.3-42.1h93.4l24.3,42.1h0Z"/>
        <path class="cls-5" d="M272.5,298l45.1,84.5-22.6,39.2c-14.3,3.9-29.4,6-44.9,6s-32-2.3-46.9-6.5l-24.3-42,46.9-81.2h46.7,0Z"/>
        <path class="cls-4" d="M201.4,255.9l24.3,42-46.9,81.2h-48.4c-22.7-22-39.3-50.2-47.1-81.9l23.9-41.3h94.3Z"/>
        <path class="cls-5" d="M183.2,130.9l44.3,83h-1.8l-24.3,42.1h-94.3l-23.9-41.3c8.2-33.3,26.2-62.9,50.7-85.3l.9,1.6h48.3Z"/>
        <path class="cls-4" d="M183.5,130.9l23.9-41.4c13.6-3.5,27.9-5.3,42.6-5.3s32.2,2.3,47.2,6.6l24.1,41.7-47,81.4h-46.7l-44.3-83h.3Z"/>
        <path class="cls-5" d="M416.6,213.9h-.4l-24.3,42.1h-93.4l-24.3-42.1,47-81.4h48.1c22.6,21.9,39.2,49.9,47.2,81.4Z"/>
        <polygon class="cls-2" points="272.5 298 298.5 255.9 274.3 298 272.5 298"/>
        <polygon class="cls-2" points="225.7 213.9 227.5 213.9 201.4 255.9 225.7 213.9"/>
      </g>
      <g>
        <path class="cls-1" d="M416.6,213.9c-7.9-31.5-24.5-59.5-47.2-81.4"/>
        <path class="cls-1" d="M83.2,297.3c7.8,31.7,24.4,59.9,47.1,81.9"/>
        <line class="cls-1" x1="107.1" y1="255.9" x2="201.4" y2="255.9"/>
        <path class="cls-1" d="M134,129.3c-24.5,22.5-42.5,52-50.7,85.3"/>
        <path class="cls-1" d="M203.1,421.2c14.9,4.2,30.6,6.5,46.9,6.5s30.6-2.1,44.9-6"/>
        <line class="cls-1" x1="225.7" y1="298" x2="178.8" y2="379.2"/>
        <path class="cls-1" d="M366.2,382.4c24.2-22.3,42-51.4,50.3-84.4"/>
        <line class="cls-1" x1="272.5" y1="298" x2="317.6" y2="382.5"/>
        <line class="cls-1" x1="391.9" y1="255.9" x2="298.5" y2="255.9"/>
        <path class="cls-1" d="M297.2,90.7c-15-4.3-30.8-6.6-47.2-6.6s-29,1.8-42.6,5.3"/>
        <line class="cls-1" x1="274.3" y1="213.9" x2="321.3" y2="132.5"/>
        <line class="cls-1" x1="183.2" y1="130.9" x2="227.5" y2="213.9"/>
        <line class="cls-1" x1="298.5" y1="255.9" x2="274.3" y2="213.9"/>
        <polyline class="cls-1" points="272.5 298 274.3 298 298.5 255.9"/>
        <line class="cls-1" x1="274.3" y1="213.9" x2="227.5" y2="213.9"/>
        <line class="cls-1" x1="225.7" y1="298" x2="272.5" y2="298"/>
        <polyline class="cls-1" points="227.5 213.9 225.7 213.9 201.4 255.9"/>
        <line class="cls-1" x1="201.4" y1="255.9" x2="225.7" y2="298"/>
        <path class="cls-1" d="M183.2,130.9h.3l23.9-41.4c-27.8,7.1-52.9,21-73.4,39.8l.9,1.6h48.3"/>
        <line class="cls-1" x1="297.2" y1="90.7" x2="321.3" y2="132.5"/>
        <line class="cls-1" x1="321.3" y1="132.5" x2="369.4" y2="132.5"/>
        <path class="cls-1" d="M317.6,382.5l-22.6,39.2c27-7.3,51.3-21,71.3-39.4h-48.6s0,.1,0,.1"/>
        <path class="cls-1" d="M178.8,379.2h-48.4c20.1,19.5,45,34.2,72.7,42l-24.3-42"/>
        <path class="cls-1" d="M391.9,255.9l24.3,42h.4c3.4-13.5,5.2-27.5,5.2-42.1"/>
        <path class="cls-1" d="M421.8,255.9c0-14.5-1.8-28.6-5.2-42.1h-.4l-24.3,42.1"/>
        <path class="cls-1" d="M107.1,255.9l-23.9-41.3c-3.3,13.2-5,27.1-5,41.3"/>
        <path class="cls-1" d="M78.2,255.9c0,14.2,1.8,28.1,5,41.3l23.9-41.3"/>
        <path class="cls-1" d="M369.4,132.5c-20-19.4-44.7-33.9-72.2-41.7"/>
      </g>
    </g>
  </g>
</svg>