<?xml version="1.0" encoding="UTF-8"?>
<svg xmlns="http://www.w3.org/2000/svg" viewBox="0 0 500 500">
  <defs>
    <style>
      .cls-1 {
        stroke-miterlimit: 10;
      }

      .cls-1, .cls-2 {
        fill: none;
        stroke: #231f20;
        stroke-width: 5px;
      }

      .cls-3 {
        fill: #5eb3e4;
      }

      .cls-3, .cls-4, .cls-5 {
        stroke-width: 0px;
      }

      .cls-4 {
        fill: #b1d9f3;
      }

      .cls-2 {
        stroke-linecap: round;
        stroke-linejoin: round;
      }

      .cls-5 {
        fill: #4d8fc2;
      }
    </style>
  </defs>
  <g id="Layer_2" data-name="Layer 2">
    <rect class="cls-3" x="-2.44" width="500" height="500"/>
  </g>
  <g id="Layer_1" data-name="Layer 1">
    <g>
      <g>
        <g>
          <path class="cls-5" d="M417.01,201.25c0,3.24-1.98,6.01-4.8,7.17v-98.58c2.82,1.16,4.8,3.94,4.8,7.18v84.23Z"/>
          <path class="cls-4" d="M392.7,410.26v-201.84c.91.37,1.91.58,2.96.58h13.6c1.04,0,2.05-.21,2.96-.58v201.84c0,5.39-4.37,9.76-9.76,9.76s-9.76-4.37-9.76-9.76Z"/>
          <path class="cls-5" d="M392.7,109.84c.91-.37,1.91-.58,2.96-.58h13.6c1.04,0,2.05.21,2.96.58v98.58c-.91.37-1.91.58-2.96.58h-13.6c-1.04,0-2.05-.21-2.96-.58v-98.58Z"/>
          <path class="cls-4" d="M392.7,109.84v-20.1c0-5.39,4.37-9.76,9.76-9.76,2.69,0,5.14,1.09,6.9,2.86,1.77,1.77,2.86,4.21,2.86,6.9v20.1c-.91-.37-1.91-.58-2.96-.58h-13.6c-1.04,0-2.05.21-2.96.58Z"/>
          <path class="cls-5" d="M392.7,208.42c-2.82-1.16-4.8-3.93-4.8-7.17v-84.23c0-3.24,1.98-6.02,4.8-7.18v98.58Z"/>
          <rect class="cls-5" x="112.1" y="117.02" width="275.81" height="84.23"/>
          <path class="cls-5" d="M112.1,201.25c0,3.24-1.98,6.01-4.8,7.17v-98.58c2.82,1.16,4.8,3.94,4.8,7.18v84.23Z"/>
          <path class="cls-4" d="M87.78,410.26v-201.85c.92.38,1.91.59,2.96.59h13.59c1.04,0,2.05-.21,2.96-.58v201.84c0,5.39-4.36,9.76-9.76,9.76s-9.76-4.37-9.76-9.76Z"/>
          <path class="cls-5" d="M104.34,209h-13.59c-1.05,0-2.05-.21-2.96-.59v-98.56c.92-.38,1.91-.59,2.96-.59h13.59c1.04,0,2.05.21,2.96.58v98.58c-.91.37-1.91.58-2.96.58Z"/>
          <path class="cls-4" d="M87.78,109.85v-20.11c0-5.39,4.37-9.76,9.76-9.76,2.7,0,5.14,1.09,6.91,2.86,1.76,1.77,2.85,4.21,2.85,6.9v20.1c-.91-.37-1.91-.58-2.96-.58h-13.59c-1.05,0-2.05.21-2.96.59Z"/>
          <path class="cls-5" d="M82.99,117.02c0-3.24,1.98-6.01,4.79-7.17v98.56c-2.81-1.16-4.79-3.93-4.79-7.16v-84.23Z"/>
        </g>
        <g>
          <path class="cls-1" d="M87.78,109.85v-20.11c0-5.39,4.37-9.76,9.76-9.76,2.7,0,5.14,1.09,6.91,2.86,1.76,1.77,2.85,4.21,2.85,6.9v20.1"/>
          <path class="cls-1" d="M107.29,208.42v201.84c0,5.39-4.36,9.76-9.76,9.76s-9.76-4.37-9.76-9.76v-201.85"/>
          <path class="cls-1" d="M392.7,109.84v-20.1c0-5.39,4.37-9.76,9.76-9.76,2.69,0,5.14,1.09,6.9,2.86,1.77,1.77,2.86,4.21,2.86,6.9v20.1"/>
          <path class="cls-1" d="M412.21,208.42v201.84c0,5.39-4.37,9.76-9.76,9.76s-9.76-4.37-9.76-9.76v-201.84"/>
          <path class="cls-1" d="M412.21,208.42c-.91.37-1.91.58-2.96.58h-13.6c-1.04,0-2.05-.21-2.96-.58-2.82-1.16-4.8-3.93-4.8-7.17v-84.23c0-3.24,1.98-6.02,4.8-7.18.91-.37,1.91-.58,2.96-.58h13.6c1.04,0,2.05.21,2.96.58,2.82,1.16,4.8,3.94,4.8,7.18v84.23c0,3.24-1.98,6.01-4.8,7.17Z"/>
          <path class="cls-1" d="M107.29,208.42c-.91.37-1.91.58-2.96.58h-13.59c-1.05,0-2.05-.21-2.96-.59-2.81-1.16-4.79-3.93-4.79-7.16v-84.23c0-3.24,1.98-6.01,4.79-7.17.92-.38,1.91-.59,2.96-.59h13.59c1.04,0,2.05.21,2.96.58,2.82,1.16,4.8,3.94,4.8,7.18v84.23c0,3.24-1.98,6.01-4.8,7.17Z"/>
          <line class="cls-1" x1="112.1" y1="117.02" x2="387.9" y2="117.02"/>
          <line class="cls-1" x1="112.1" y1="201.25" x2="387.9" y2="201.25"/>
        </g>
      </g>
      <g>
        <path class="cls-2" d="M145.85,177.49h22.32c5.08,0,9.19-4.12,9.19-9.19h0c0-5.08-4.12-9.19-9.19-9.19h-12.75c-5.08,0-9.19-4.12-9.19-9.19h0c0-5.08,4.12-9.19,9.19-9.19h22.01"/>
        <line class="cls-2" x1="187.82" y1="140.72" x2="223.08" y2="140.72"/>
        <line class="cls-2" x1="318.89" y1="140.72" x2="354.15" y2="140.72"/>
        <line class="cls-2" x1="205.45" y1="141.47" x2="205.45" y2="177.54"/>
        <line class="cls-2" x1="336.52" y1="141.47" x2="336.52" y2="177.54"/>
        <line class="cls-2" x1="238.26" y1="163.46" x2="260.02" y2="163.46"/>
        <path class="cls-2" d="M231.51,177.54l17.59-36.69s.06-.03.08,0l17.59,36.69"/>
        <path class="cls-2" d="M277.29,159.16h22.38c5.08,0,9.19-4.12,9.19-9.19h0c0-5.08-4.12-9.19-9.19-9.19h-22.38v36.77"/>
        <line class="cls-2" x1="288.55" y1="159.1" x2="308.85" y2="177.54"/>
        <line class="cls-2" x1="318.89" y1="140.77" x2="354.15" y2="140.77"/>
      </g>
    </g>
  </g>
</svg>