<?xml version="1.0" encoding="UTF-8"?>
<svg id="Layer_1" xmlns="http://www.w3.org/2000/svg" version="1.1" viewBox="0 0 500 500">
  <!-- Generator: Adobe Illustrator 29.0.1, SVG Export Plug-In . SVG Version: 2.1.0 Build 192)  -->
  <defs>
    <style>
      .st0, .st1 {
        stroke: #d7d8da;
      }

      .st0, .st1, .st2, .st3, .st4 {
        fill: none;
      }

      .st0, .st1, .st2, .st3, .st4, .st5 {
        stroke-width: 5px;
      }

      .st0, .st1, .st2, .st4, .st5 {
        stroke-miterlimit: 10;
      }

      .st0, .st2, .st3 {
        stroke-linecap: round;
      }

      .st2, .st3, .st4, .st5 {
        stroke: #231f20;
      }

      .st6 {
        fill: #5eb3e4;
      }

      .st3 {
        stroke-linejoin: round;
      }

      .st5 {
        fill: #1b3648;
      }

      .st7 {
        fill: #b0d8f2;
      }

      .st8 {
        fill: #4d8ec1;
      }
    </style>
  </defs>
  <rect class="st6" x=".3" y="-.4" width="500" height="500"/>
  <g>
    <g>
      <g>
        <g>
          <path class="st8" d="M417.4,116.6v84.2c0,3.2-2,6-4.8,7.2v-98.6c2.8,1.2,4.8,3.9,4.8,7.2Z"/>
          <path class="st7" d="M412.5,208v201.8c0,5.4-4.4,9.8-9.7,9.8s-9.8-4.4-9.8-9.8v-201.8c.9.4,1.9.6,3,.6h13.6c1,0,2-.2,3-.6Z"/>
          <path class="st8" d="M412.5,109.4v98.6c-.9.4-1.9.6-3,.6h-13.6c-1,0-2-.2-3-.6v-98.6c.9-.4,1.9-.6,3-.6h13.6c1,0,2,.2,3,.6Z"/>
          <path class="st7" d="M412.5,89.3v20.1c-.9-.4-1.9-.6-3-.6h-13.6c-1,0-2,.2-3,.6v-20.1c0-5.4,4.4-9.8,9.8-9.8s5.1,1.1,6.9,2.9c1.8,1.8,2.9,4.2,2.9,6.9Z"/>
          <path class="st8" d="M393,109.4v98.6c-2.8-1.2-4.8-3.9-4.8-7.2v-84.2c0-3.2,2-6,4.8-7.2Z"/>
          <rect class="st8" x="112.4" y="116.6" width="275.8" height="84.2"/>
          <path class="st8" d="M112.4,116.6v84.2c0,3.2-2,6-4.8,7.2v-98.6c2.8,1.2,4.8,3.9,4.8,7.2Z"/>
          <path class="st7" d="M107.6,208v201.9c0,5.4-4.4,9.8-9.8,9.8s-9.8-4.4-9.8-9.8v-201.8c.9.4,1.9.6,3,.6h13.6c1.1,0,2-.2,3-.6Z"/>
          <path class="st8" d="M107.6,109.4v98.6c-.9.4-1.9.6-3,.6h-13.6c-1,0-2-.2-3-.6v-98.6c.9-.4,1.9-.6,3-.6h13.6c1.1,0,2,.2,3,.6Z"/>
          <path class="st7" d="M107.6,89.3v20.1c-.9-.4-1.9-.6-3-.6h-13.6c-1,0-2,.2-3,.6v-20.1c0-5.4,4.4-9.8,9.8-9.8s5.1,1.1,6.9,2.9c1.8,1.8,2.9,4.2,2.9,6.9Z"/>
          <path class="st8" d="M88.1,109.4v98.6c-2.8-1.2-4.8-3.9-4.8-7.2v-84.2c0-3.2,2-6,4.8-7.2Z"/>
        </g>
        <g>
          <path class="st4" d="M88.1,109.4v-20.1c0-5.4,4.4-9.8,9.8-9.8s5.1,1.1,6.9,2.9c1.8,1.8,2.9,4.2,2.9,6.9v20.1"/>
          <path class="st4" d="M107.6,208v201.9c0,5.4-4.4,9.8-9.8,9.8s-9.8-4.4-9.8-9.8v-201.8"/>
          <path class="st4" d="M393,109.4v-20.1c0-5.4,4.4-9.8,9.8-9.8s5.1,1.1,6.9,2.9c1.8,1.8,2.9,4.2,2.9,6.9v20.1"/>
          <path class="st4" d="M412.5,208v201.8c0,5.4-4.4,9.8-9.7,9.8s-9.8-4.4-9.8-9.8v-201.8"/>
          <path class="st4" d="M412.5,208c-.9.4-1.9.6-3,.6h-13.6c-1,0-2-.2-3-.6-2.8-1.2-4.8-3.9-4.8-7.2v-84.2c0-3.2,2-6,4.8-7.2.9-.4,1.9-.6,3-.6h13.6c1,0,2,.2,3,.6,2.8,1.2,4.8,3.9,4.8,7.2v84.2c0,3.2-2,6-4.8,7.2Z"/>
          <path class="st4" d="M107.6,208c-.9.4-1.9.6-3,.6h-13.6c-1,0-2-.2-3-.6-2.8-1.2-4.8-3.9-4.8-7.2v-84.2c0-3.2,2-6,4.8-7.2.9-.4,1.9-.6,3-.6h13.6c1.1,0,2,.2,3,.6,2.8,1.2,4.8,3.9,4.8,7.2v84.2c0,3.2-2,6-4.8,7.2Z"/>
          <line class="st4" x1="112.4" y1="116.6" x2="388.2" y2="116.6"/>
          <line class="st4" x1="112.4" y1="200.8" x2="388.2" y2="200.8"/>
        </g>
      </g>
      <g>
        <path class="st3" d="M146.2,177.1h22.3c5.1,0,9.2-4.1,9.2-9.2h0c0-5.1-4.1-9.2-9.2-9.2h-12.8c-5.1,0-9.2-4.1-9.2-9.2h0c0-5.1,4.1-9.2,9.2-9.2h22"/>
        <line class="st3" x1="188.2" y1="140.3" x2="223.4" y2="140.3"/>
        <line class="st3" x1="319.2" y1="140.3" x2="354.5" y2="140.3"/>
        <line class="st3" x1="205.8" y1="141.1" x2="205.8" y2="177.1"/>
        <line class="st3" x1="336.9" y1="141.1" x2="336.9" y2="177.1"/>
        <line class="st3" x1="238.6" y1="163.1" x2="260.4" y2="163.1"/>
        <path class="st3" d="M231.9,177.1l17.6-36.7s0,0,0,0l17.6,36.7"/>
        <path class="st3" d="M277.6,158.8h22.4c5.1,0,9.2-4.1,9.2-9.2h0c0-5.1-4.1-9.2-9.2-9.2h-22.4v36.8"/>
        <line class="st3" x1="288.9" y1="158.7" x2="309.2" y2="177.1"/>
        <line class="st3" x1="319.2" y1="140.4" x2="354.5" y2="140.4"/>
      </g>
    </g>
    <g>
      <rect class="st5" x="247.5" y="308.2" width="109.3" height="109.3" rx="54.6" ry="54.6"/>
      <circle class="st1" cx="302.1" cy="362.8" r="36"/>
      <rect class="st5" x="144.8" y="308.2" width="109.3" height="109.3" rx="8.5" ry="8.5"/>
      <path class="st0" d="M163.4,398.8v-71.1c0-.4.4-.5.7-.3l70.7,70.7c.3.3.7,0,.7-.3v-71.1"/>
      <line class="st2" x1="134.2" y1="417.5" x2="366.5" y2="417.5"/>
    </g>
  </g>
</svg>