<?xml version="1.0" encoding="UTF-8"?>
<svg xmlns="http://www.w3.org/2000/svg" viewBox="0 0 500 500">
  <defs>
    <style>
      .cls-1 {
        stroke-linecap: round;
      }

      .cls-1, .cls-2 {
        fill: none;
      }

      .cls-1, .cls-2, .cls-3, .cls-4 {
        stroke: #231f20;
        stroke-miterlimit: 10;
        stroke-width: 5px;
      }

      .cls-5 {
        fill: #224d68;
      }

      .cls-5, .cls-6, .cls-7, .cls-8, .cls-9, .cls-10 {
        stroke-width: 0px;
      }

      .cls-6 {
        fill: #3579a3;
      }

      .cls-7 {
        fill: #4197cb;
      }

      .cls-8, .cls-4 {
        fill: #c8e0ee;
      }

      .cls-3 {
        fill: #275b7a;
      }

      .cls-9 {
        fill: #84cfc9;
      }

      .cls-10 {
        fill: #112c3c;
      }
    </style>
  </defs>
  <g id="Layer_2" data-name="Layer 2">
    <rect class="cls-7" width="500" height="500"/>
  </g>
  <g id="Layer_1" data-name="Layer 1">
    <g>
      <path class="cls-4" d="M135.92,213.45h0c-3.2-2.2-4.01-6.58-1.81-9.77l34.33-49.71,11.58,7.97-34.33,49.71c-2.2,3.2-6.58,4.01-9.77,1.81Z"/>
      <g>
        <g>
          <path class="cls-8" d="M217.52,110.18c.03.43.04.86.04,1.3v14.88c0,9.92-8.05,17.97-17.97,17.97h-1.05v-10.25h-15.36v8.75c-4.59-1.71-8.5-4.79-11.25-8.74l6.58-4.21c2.9-1.86,4.67-5.08,4.67-8.53v-3.43c0-4.28,3.47-7.75,7.75-7.75h26.58Z"/>
          <path class="cls-8" d="M252.51,295.86h-38.23v-16.47h21.76c4.55,0,8.66,1.84,11.64,4.83,2.99,2.98,4.83,7.09,4.83,11.64Z"/>
          <path class="cls-5" d="M237.89,252.98l-5.8,26.4h-17.72v-20.17c0-3.44-2.79-6.23-6.24-6.23h-28.26c-6.5,0-12.37-2.63-16.62-6.89s-6.89-10.14-6.89-16.63h58.01c6.5,0,12.38,2.63,16.63,6.89s6.89,10.14,6.89,16.63Z"/>
          <path class="cls-8" d="M235.18,208.47c2.94,2.54,3.25,6.98.71,9.91-2.55,2.94-6.98,3.25-9.91.71l-16.7-14.46.15-18.47,25.75,22.3Z"/>
          <path class="cls-10" d="M217.52,110.18h-26.58c-4.28,0-7.75,3.47-7.75,7.75v3.43c0,3.45-1.77,6.67-4.67,8.53l-6.58,4.21c-2.68-3.85-4.25-8.53-4.25-13.57v-9.04c0-13.15,10.66-23.81,23.81-23.81h2.25c12.71,0,23.09,9.96,23.77,22.51Z"/>
          <path class="cls-6" d="M151.28,229.47h-.09l7.85-63.35c1.34-11.27,10.89-19.74,22.23-19.74h2.01c.55,3.7,3.73,6.55,7.59,6.55,3.46,0,6.39-2.28,7.35-5.43,6.65,2.5,11.38,8.91,11.38,16.44l-.17,22.24-14.72-12.73,2.17-2.51-7.81-6.77c-1.96-1.69-4.37-2.52-6.77-2.52-2.9,0-5.77,1.21-7.82,3.57-3.74,4.32-3.27,10.85,1.05,14.59l7.81,6.77,2.17-2.51,23.77,20.57-.2,24.83h-57.8Z"/>
          <polygon class="cls-8" points="209.43 186.17 209.28 204.64 185.51 184.06 194.71 173.44 209.43 186.17"/>
          <path class="cls-9" d="M198.55,144.34v.9c0,.78-.12,1.53-.33,2.25-1.92-.72-4.01-1.12-6.18-1.12h-8.76c-.06-.37-.08-.75-.08-1.13v-2.4c2.59.96,5.39,1.49,8.31,1.49h7.04Z"/>
          <path class="cls-8" d="M198.55,134.09v10.25h-7.04c-2.92,0-5.72-.53-8.31-1.49v-8.75h15.36Z"/>
          <path class="cls-6" d="M196.88,170.93l-2.17,2.51-9.2,10.63-2.17,2.51-7.81-6.77c-4.32-3.74-4.79-10.27-1.05-14.59,2.05-2.36,4.93-3.57,7.82-3.57,2.4,0,4.81.83,6.77,2.52l7.81,6.77Z"/>
          <path class="cls-9" d="M198.22,147.49c-.96,3.14-3.89,5.43-7.35,5.43-3.86,0-7.04-2.85-7.59-6.55h8.76c2.17,0,4.26.4,6.18,1.12Z"/>
          <path class="cls-5" d="M179.87,252.98l-39.98,84.93h-18.06l29.45-108.45h5.08c0,6.5,2.63,12.38,6.89,16.63s10.13,6.89,16.62,6.89Z"/>
          <path class="cls-8" d="M161.8,354.38h-38.23v-16.47h21.76c4.55,0,8.67,1.84,11.65,4.82,2.99,2.99,4.83,7.1,4.83,11.65Z"/>
        </g>
        <g>
          <line class="cls-2" x1="209.28" y1="204.64" x2="209.08" y2="229.47"/>
          <path class="cls-2" d="M198.22,147.49c6.65,2.5,11.38,8.91,11.38,16.44l-.17,22.24"/>
          <path class="cls-2" d="M156.36,229.47h-5.17l7.85-63.35c1.34-11.27,10.89-19.74,22.23-19.74h2.01"/>
          <path class="cls-2" d="M232.09,279.39l5.8-26.4c0-6.5-2.63-12.38-6.89-16.63s-10.14-6.89-16.63-6.89h-58.01c0,6.5,2.63,12.38,6.89,16.63s10.13,6.89,16.62,6.89h28.26c3.45,0,6.24,2.79,6.24,6.23v20.17"/>
          <path class="cls-2" d="M214.37,279.39h-.08v16.47h38.23c0-4.55-1.84-8.66-4.83-11.64-2.98-2.99-7.09-4.83-11.64-4.83h-21.68Z"/>
          <path class="cls-2" d="M198.55,144.34v.9c0,.78-.12,1.53-.33,2.25-.96,3.14-3.89,5.43-7.35,5.43-3.86,0-7.04-2.85-7.59-6.55-.06-.37-.08-.75-.08-1.13v-2.4"/>
          <path class="cls-2" d="M217.52,110.18c.03.43.04.86.04,1.3v14.88c0,9.92-8.05,17.97-17.97,17.97h-8.09c-2.92,0-5.72-.53-8.31-1.49-4.59-1.71-8.5-4.79-11.25-8.74-2.68-3.85-4.25-8.53-4.25-13.57v-9.04c0-13.15,10.66-23.81,23.81-23.81h2.25c12.71,0,23.09,9.96,23.77,22.51Z"/>
          <path class="cls-2" d="M171.95,134.1l6.58-4.21c2.9-1.86,4.67-5.08,4.67-8.53v-3.43c0-4.28,3.47-7.75,7.75-7.75h26.62"/>
          <path class="cls-2" d="M185.51,184.06l-2.17,2.51-7.81-6.77c-4.32-3.74-4.79-10.27-1.05-14.59,2.05-2.36,4.93-3.57,7.82-3.57,2.4,0,4.81.83,6.77,2.52l7.81,6.77-2.17,2.51"/>
          <path class="cls-2" d="M209.43,186.17l25.75,22.3c2.94,2.54,3.25,6.98.71,9.91-2.55,2.94-6.98,3.25-9.91.71l-16.7-14.46-23.77-20.57,9.2-10.63,14.72,12.73Z"/>
          <line class="cls-2" x1="139.89" y1="337.91" x2="179.87" y2="252.98"/>
          <polyline class="cls-2" points="151.71 227.91 151.28 229.47 121.83 337.91 123.57 337.91"/>
          <path class="cls-2" d="M123.57,337.91v16.47h38.23c0-4.55-1.84-8.66-4.83-11.65-2.98-2.98-7.09-4.82-11.65-4.82h-21.76Z"/>
        </g>
      </g>
      <rect class="cls-3" x="214.29" y="296.44" width="163.88" height="57.94"/>
      <rect class="cls-3" x="301.06" y="237.95" width="77.11" height="57.94"/>
      <rect class="cls-3" x="123.57" y="354.38" width="254.59" height="57.94"/>
    </g>
    <line class="cls-2" x1="378.16" y1="237.95" x2="378.16" y2="86.93"/>
    <line class="cls-1" x1="194.75" y1="120.31" x2="199.64" y2="120.31"/>
    <line class="cls-1" x1="211.17" y1="120.31" x2="216.06" y2="120.31"/>
  </g>
</svg>