<?xml version="1.0" encoding="UTF-8"?>
<svg xmlns="http://www.w3.org/2000/svg" viewBox="0 0 500 500">
  <defs>
    <style>
      .cls-1 {
        fill: #00ab9b;
      }

      .cls-1, .cls-2 {
        stroke-width: 0px;
      }

      .cls-3 {
        fill: #078b7c;
      }

      .cls-3, .cls-4, .cls-5 {
        stroke: #231f20;
        stroke-miterlimit: 10;
        stroke-width: 5px;
      }

      .cls-4 {
        fill: #b6e1df;
      }

      .cls-5 {
        fill: none;
      }

      .cls-2 {
        fill: #84cfc9;
      }
    </style>
  </defs>
  <g id="Layer_2" data-name="Layer 2">
    <rect class="cls-1" width="500" height="500"/>
  </g>
  <g id="Layer_1" data-name="Layer 1">
    <g>
      <g>
        <path class="cls-4" d="M319.65,106.44h-139.3c-8.19,0-15.76,4.37-19.85,11.46l-69.65,120.64c-4.1,7.09-4.1,15.83,0,22.93l69.65,120.64c4.1,7.09,11.66,11.46,19.85,11.46h139.3c8.19,0,15.76-4.37,19.85-11.46l69.65-120.64c4.1-7.09,4.1-15.83,0-22.93l-69.65-120.64c-4.1-7.09-11.66-11.46-19.85-11.46Z"/>
        <path class="cls-3" d="M306.84,128.62h-113.69c-8.19,0-15.76,4.37-19.85,11.46l-56.84,98.45c-4.1,7.09-4.1,15.83,0,22.93l56.84,98.45c4.1,7.09,11.66,11.46,19.85,11.46h113.69c8.19,0,15.76-4.37,19.85-11.46l56.84-98.45c4.1-7.09,4.1-15.83,0-22.93l-56.84-98.45c-4.1-7.09-11.66-11.46-19.85-11.46Z"/>
      </g>
      <g>
        <g>
          <path class="cls-2" d="M214.21,204.38v-14.95c0-7.38,4.85-13.37,10.83-13.37,2.99,0,5.7,1.5,7.65,3.91,1.96,2.42,3.17,5.76,3.17,9.45v-12.61c0-7.38,4.85-13.37,10.83-13.37,3,0,5.7,1.5,7.66,3.92,1.96,2.42,3.17,5.76,3.17,9.45v16.89c0-7.38,4.85-13.37,10.83-13.37,2.99,0,5.7,1.5,7.65,3.91,1.96,2.42,3.17,5.76,3.17,9.45v72.38c3.09-8.38,9.36-15.03,17.4-17.81,3.55-1.24,7.54.03,9.74,3.47,1.23,1.92,1.76,4.29.04,6.86-4.22,6.32-11.76,15.29-6.11,43.42,2.35,17.48-10.08,32.88-21.07,34.5l-86.6-68.65v-63.51c0-7.38,4.85-13.37,10.82-13.37,2.99,0,5.7,1.5,7.66,3.91,1.96,2.42,3.17,5.76,3.17,9.45Z"/>
          <path class="cls-2" d="M279.17,336.54h-36.79c-27.52,0-49.82-23.37-49.82-52.21v-16.45l86.6,68.65Z"/>
        </g>
        <g>
          <line class="cls-5" x1="214.21" y1="247.48" x2="214.21" y2="258.66"/>
          <path class="cls-5" d="M192.56,267.89v-63.51c0-7.38,4.85-13.37,10.82-13.37,2.99,0,5.7,1.5,7.66,3.91,1.96,2.42,3.17,5.76,3.17,9.45"/>
          <line class="cls-5" x1="235.86" y1="245.32" x2="235.86" y2="254.55"/>
          <path class="cls-5" d="M214.21,247.48v-58.05c0-7.38,4.85-13.37,10.83-13.37,2.99,0,5.7,1.5,7.65,3.91,1.96,2.42,3.17,5.76,3.17,9.45"/>
          <line class="cls-5" x1="257.52" y1="251.98" x2="257.52" y2="254.55"/>
          <path class="cls-5" d="M235.86,245.32v-68.5c0-7.38,4.85-13.37,10.83-13.37,3,0,5.7,1.5,7.66,3.92,1.96,2.42,3.17,5.76,3.17,9.45v16.89"/>
          <path class="cls-5" d="M257.52,251.98v-58.27c0-7.38,4.85-13.37,10.83-13.37,2.99,0,5.7,1.5,7.65,3.91,1.96,2.42,3.17,5.76,3.17,9.45v72.38"/>
          <path class="cls-5" d="M279.17,336.54h-36.79c-27.52,0-49.82-23.37-49.82-52.21v-16.45"/>
          <path class="cls-5" d="M257.93,308.57c.86-11.92,8.11-22.74,19.27-27.29.54-.23,1.09-.43,1.64-.62"/>
          <path class="cls-5" d="M277.38,282.93c-.07-.55-.14-1.1-.17-1.65-.48-5.36.25-10.53,1.96-15.18,3.09-8.38,9.36-15.03,17.4-17.81,3.55-1.24,7.54.03,9.74,3.47,1.23,1.92,1.76,4.29.04,6.86-4.22,6.32-11.76,15.29-6.11,43.42,2.35,17.48-10.08,32.88-21.07,34.5"/>
        </g>
      </g>
    </g>
  </g>
</svg>