<?xml version="1.0" encoding="UTF-8"?>
<svg id="Layer_1" xmlns="http://www.w3.org/2000/svg" version="1.1" viewBox="0 0 500 500">
  <!-- Generator: Adobe Illustrator 29.0.1, SVG Export Plug-In . SVG Version: 2.1.0 Build 192)  -->
  <defs>
    <style>
      .st0 {
        fill: #4197cb;
      }

      .st1 {
        fill: #231f20;
      }

      .st2 {
        fill: #193c51;
      }

      .st3 {
        fill: none;
        stroke: #231f20;
        stroke-miterlimit: 10;
        stroke-width: 5px;
      }

      .st4 {
        fill: #d9e7f3;
      }

      .st5 {
        fill: #3579a2;
      }

      .st6 {
        fill: #a0cae4;
      }
    </style>
  </defs>
  <rect class="st0" x=".3" y="-.4" width="500" height="500"/>
  <g>
    <g>
      <path class="st2" d="M416.6,222.9c0,2.3.9,4.5.6,7.2-1.3,12.8-16.3,18.8-27.4,14.9-9.3-3.3-11.8-13.4-23.2-11.4-2.6.4-5,1.7-7.5,2.3-6.7,1.6-13.2,2.1-20.1,1.1,11.4,12.4,23.4,24.1,32.4,38.5,9.2,14.7,16,30.9,12.3,48.6h0c0,0-92.5,0-92.5,0h0c1.5-6.5-.8-13.5-2.3-19.8-8.1-34.1-23.8-62.9-12.5-99,6.6-21.1,19.6-37.6,40-46.6,3-1.3,6.7-2.2,9.5-3.5,4.1-1.9,6.8-8.1,9.8-11.6,2.6-3.1,5.8-6.1,9.2-8.5,1.2,5.8-.3,12.4.4,18.1.6,4.5,8.7,3.8,12,5.2.2,3-.7,6.8,1.8,9.1,2.3,2.2,9.5,3.9,12.7,5.6,6.1,3.2,9.6,10,14.1,14.9,3.3,3.6,7.9,7.4,11.6,10.7,4,3.6,17.1,13,19,16.8,1.6,3.2.1,4.5,0,7.3ZM365.5,190.2c0-3-2.5-5.5-5.5-5.5s-5.5,2.4-5.5,5.5,2.5,5.5,5.5,5.5,5.5-2.4,5.5-5.5Z"/>
      <path class="st2" d="M413.4,346.9v17.2h-150.1v-17.2c0-5.6,4.5-10.2,10.2-10.2h7.8c0,0,114.2,0,114.2,0h0c0,0,7.8,0,7.8,0,5.6,0,10.2,4.5,10.2,10.2Z"/>
      <path class="st6" d="M395.5,333v3.8h-114.2v-3.8c0-4.9,4-8.9,8.9-8.9h96.5c4.9,0,8.9,4,8.9,8.9Z"/>
      <path class="st1" d="M360,184.8c3,0,5.5,2.4,5.5,5.5s-2.5,5.5-5.5,5.5-5.5-2.4-5.5-5.5,2.5-5.5,5.5-5.5Z"/>
      <path class="st4" d="M263.3,346.9v17.2H113.1v-17.2c0-5.6,4.6-10.2,10.2-10.2h7.8c0,0,114.2,0,114.2,0h0c0,0,7.8,0,7.8,0,5.6,0,10.2,4.5,10.2,10.2Z"/>
      <path class="st4" d="M250.2,205.3c11.3,36.1-4.4,64.9-12.5,99-1.5,6.3-3.8,13.3-2.3,19.7h0c0,.1-92.5.1-92.5.1h0c-3.7-17.8,3.1-34,12.3-48.7,9-14.4,21-26.1,32.4-38.5-6.9,1-13.4.5-20.1-1.1-2.5-.6-4.9-1.9-7.5-2.3-11.4-2-13.9,8.1-23.2,11.4-11.1,3.9-26-2-27.4-14.9-.3-2.7.7-4.8.6-7.2,0-2.8-1.5-4.1,0-7.3,1.9-3.8,14.9-13.2,18.9-16.8,3.7-3.3,8.3-7.1,11.6-10.7,4.5-4.9,8-11.8,14.1-14.9,3.2-1.7,10.4-3.4,12.7-5.6,2.5-2.4,1.6-6.1,1.8-9.1,3.4-1.4,11.5-.6,12-5.2.7-5.7-.8-12.3.4-18.1,3.3,2.4,6.5,5.3,9.2,8.5,3,3.6,5.8,9.8,9.8,11.6,2.8,1.3,6.5,2.2,9.5,3.5,20.5,9,33.4,25.5,40,46.6ZM172,190.2c0-3-2.5-5.5-5.5-5.5s-5.5,2.4-5.5,5.5,2.5,5.5,5.5,5.5,5.5-2.4,5.5-5.5Z"/>
      <path class="st5" d="M245.3,333v3.8h-114.2v-3.8c0-4.9,4-8.9,8.9-8.9h96.5c4.9,0,8.9,4,8.9,8.9Z"/>
      <path class="st1" d="M166.6,184.8c3,0,5.5,2.4,5.5,5.5s-2.5,5.5-5.5,5.5-5.5-2.4-5.5-5.5,2.5-5.5,5.5-5.5Z"/>
    </g>
    <g>
      <path class="st3" d="M142.9,324.1c-3.7-17.7,3.1-34,12.3-48.6,9-14.4,21-26.1,32.4-38.5-6.9,1-13.4.5-20.1-1.1-2.5-.6-4.9-1.9-7.5-2.3-11.4-2-13.9,8.1-23.2,11.4-11.1,3.9-26-2-27.4-14.9-.3-2.7.7-4.8.6-7.2,0-2.8-1.5-4.1,0-7.3,1.9-3.8,14.9-13.2,18.9-16.8,3.7-3.3,8.3-7.1,11.6-10.7,4.5-4.9,8-11.8,14.1-14.9,3.2-1.7,10.4-3.4,12.7-5.6,2.5-2.4,1.6-6.1,1.8-9.1,3.4-1.4,11.5-.6,12-5.2.7-5.7-.8-12.3.4-18.1,3.3,2.4,6.5,5.3,9.2,8.5,3,3.6,5.8,9.8,9.8,11.6,2.8,1.3,6.5,2.2,9.5,3.5,20.5,9,33.4,25.5,40,46.6,11.3,36.1-4.4,64.9-12.5,99-1.5,6.3-3.8,13.3-2.3,19.7"/>
      <path class="st3" d="M245.3,336.8h0c0,0-114.2,0-114.2,0h0v-3.8c0-4.9,4-8.9,8.9-8.9h96.5c4.9,0,8.9,4,8.9,8.9v3.8Z"/>
      <path class="st3" d="M263.3,364.1H113.1v-17.2c0-5.6,4.6-10.2,10.2-10.2h129.8c5.6,0,10.2,4.5,10.2,10.2"/>
      <path class="st3" d="M383.7,324.1c3.7-17.7-3.1-34-12.3-48.6-9-14.4-21-26.1-32.4-38.5,6.9,1,13.4.5,20.1-1.1,2.5-.6,4.9-1.9,7.5-2.3,11.5-2,13.9,8.1,23.2,11.4,11.1,3.9,26-2,27.4-14.9.3-2.7-.7-4.8-.6-7.2,0-2.8,1.5-4.1,0-7.3-1.9-3.8-14.9-13.2-19-16.8-3.7-3.3-8.3-7.1-11.6-10.7-4.5-4.9-8-11.8-14.1-14.9-3.2-1.7-10.4-3.4-12.7-5.6-2.5-2.4-1.6-6.1-1.8-9.1-3.4-1.4-11.5-.6-12-5.2-.7-5.7.8-12.3-.4-18.1-3.3,2.4-6.5,5.3-9.2,8.5-3,3.6-5.8,9.8-9.8,11.6-2.8,1.3-6.4,2.2-9.5,3.5-20.5,9-33.4,25.5-40,46.6-11.3,36.1,4.4,64.9,12.5,99,1.5,6.3,3.8,13.3,2.3,19.7"/>
      <path class="st3" d="M281.3,336.8h0c0,0,114.2,0,114.2,0h0v-3.8c0-4.9-4-8.9-8.9-8.9h-96.5c-4.9,0-8.9,4-8.9,8.9v3.8Z"/>
      <path class="st3" d="M263.3,364.1h150.1v-17.2c0-5.6-4.6-10.2-10.2-10.2h-129.8c-5.6,0-10.2,4.5-10.2,10.2v17.2Z"/>
    </g>
  </g>
</svg>