<?xml version="1.0" encoding="UTF-8"?>
<svg id="Layer_1" data-name="Layer 1" xmlns="http://www.w3.org/2000/svg" version="1.1" viewBox="0 0 500 500">
  <defs>
    <style>
      .cls-1 {
        fill: none;
      }

      .cls-1, .cls-2, .cls-3, .cls-4, .cls-5 {
        stroke: #231f20;
        stroke-miterlimit: 10;
      }

      .cls-1, .cls-4 {
        stroke-linecap: round;
        stroke-width: 5px;
      }

      .cls-6 {
        fill: #625d9c;
      }

      .cls-6, .cls-7, .cls-8, .cls-9, .cls-10, .cls-11, .cls-12, .cls-13 {
        stroke-width: 0px;
      }

      .cls-7, .cls-3 {
        fill: #27253d;
      }

      .cls-8, .cls-2 {
        fill: #46416e;
      }

      .cls-9 {
        fill: #042c33;
      }

      .cls-4, .cls-10, .cls-5 {
        fill: #d2cfe1;
      }

      .cls-11 {
        fill: #9bd3dd;
      }

      .cls-12 {
        fill: #086977;
      }

      .cls-13 {
        fill: #231f20;
      }
    </style>
  </defs>
  <g id="Layer_2" data-name="Layer 2">
    <rect class="cls-6" y="-.3" width="500" height="500"/>
  </g>
  <g id="Layer_1-2" data-name="Layer 1">
    <g>
      <g>
        <g>
          <path class="cls-12" d="M214.8,271.7h0s-2.2-12.9-7.3-25.9c5.1,13,7.3,25.9,7.3,25.9h0Z"/>
          <path class="cls-3" d="M214.8,271.7H77.8s2.8-15.9,9.2-30.2c.5-1.1.9-2.1,1.5-3.1s1.4-2.7,2.1-4h0c.4-.6.8-1.3,1.2-1.9h0c.4-.6.8-1.2,1.2-1.8s.3-.4,0,0c.4-.6.8-1.2,1.3-1.7h0c.4-.6.9-1.1,1.3-1.6.2-.3.4-.5.7-.8,1.6-1.8,3.3-3.3,5.1-4.5,2.7-1.8,5.6-3.3,8.9-4.5,5.2-1.9,11.2-3.2,18.5-3.6,1,0,2.1-.1,3.2-.1.5.4,1.1.7,1.6,1,.3.2.6.3.9.5.6.3,1.1.6,1.7.8.6.2,1.2.5,1.8.7,2.7.9,5.5,1.4,8.3,1.4s2.6-.1,3.9-.3c1.9-.3,3.9-.8,5.7-1.6.6-.2,1.2-.5,1.8-.8s1.2-.6,1.8-1c.3-.2.6-.4.9-.5.3-.2.6-.4.8-.6.5,0,1.1,0,1.6,0,4.1.2,7.8.6,11.2,1.3.6.1,1.2.3,1.9.4.6.1,1.2.3,1.8.5,1.3.4,2.6.8,3.8,1.2.4.1.7.3,1.1.4,3.2,1.3,6.1,2.8,8.8,4.6,1.3.9,2.6,1.9,3.8,3.1.5.5.9,1,1.4,1.5.7.8,1.4,1.6,2,2.4.9,1.1,1.7,2.3,2.5,3.6.4.6.8,1.3,1.1,1.9,1.7,2.9,3.2,6.1,4.5,9.2.3.7.6,1.4.9,2.1,5.1,13,7.3,25.9,7.3,25.9h0Z"/>
          <path class="cls-12" d="M206.6,243.7c.3.7.6,1.4.9,2.1-.3-.7-.6-1.4-.9-2.1Z"/>
          <path class="cls-12" d="M200.9,232.6c.4.6.8,1.3,1.1,1.9-.4-.6-.8-1.3-1.1-1.9Z"/>
          <path class="cls-12" d="M196.5,226.6c.7.8,1.4,1.6,2,2.4-.6-.9-1.3-1.7-2-2.4Z"/>
          <path class="cls-5" d="M182.5,164v-25.9h1c3.7,0,7,1.5,9.5,3.9,1.2,1.2,2.2,2.7,2.9,4.3.2.4.3.8.4,1.2.4,1.3.6,2.6.6,4,0,3-1,5.8-2.7,8-1.7,2.3-4.1,4-6.9,4.8-.3.1-.6.2-1,.2,0,0-.2,0-.3,0-.4,0-.8.1-1.1.2-.5,0-1,0-1.4,0h-1v-1h0Z"/>
          <path class="cls-12" d="M195.1,225.1c.5.5.9,1,1.4,1.5-.5-.5-.9-1-1.4-1.5Z"/>
          <path class="cls-11" d="M186.3,164.6c.3,0,.6-.1,1-.2-.3.1-.6.2-1,.2Z"/>
          <path class="cls-11" d="M184.9,164.9c.4,0,.8-.1,1.1-.2-.4,0-.8.1-1.1.2Z"/>
          <path class="cls-12" d="M182.5,217.4h0c-.4-.1-.7-.3-1.1-.4.4.1.7.3,1.1.4Z"/>
          <path class="cls-2" d="M182.5,165v52.4c-.4-.1-.7-.3-1.1-.4-1.2-.4-2.5-.9-3.8-1.2-.6-.2-1.2-.3-1.8-.5-.6-.1-1.2-.3-1.9-.4-3.4-.7-7.1-1.1-11.2-1.3-.5,0-1.1,0-1.6,0h0l-.3-16.7h0c.3-.1.5-.2.8-.4q.2,0,0,0c.2-.1.5-.2.8-.4.1,0,.3-.1.4-.2.1,0,.2-.1.4-.2h0c.2-.1.5-.3.7-.4.1,0,.3-.2.4-.2.1,0,.2-.1.3-.2h0c.2-.1.5-.3.7-.4h0c.2-.2.5-.3.7-.4q.2,0,0,0c.2-.2.5-.3.7-.5h0c.2-.2.5-.3.7-.5h0c.3-.2.6-.5,1-.7.4-.3.7-.5,1-.8h0c.4-.4.9-.7,1.3-1.1.1-.1.2-.2.3-.3.3-.3.6-.6.9-.9h0c.8-.8,1.6-1.7,2.3-2.6.2-.2.4-.4.5-.7h0c.2-.2.4-.5.5-.7.2-.2.3-.5.5-.7h0l.5-.7c.4-.6.8-1.3,1.2-1.9.1-.2.2-.4.3-.6,2.8-5,4.5-10.7,4.6-16.8v.5h0Z"/>
          <path class="cls-11" d="M182.5,164v1h0v-1Z"/>
          <path class="cls-11" d="M182.5,163.5v.9-.9Z"/>
          <path class="cls-11" d="M182.5,138.5v25.5-25.9h0v.4Z"/>
          <path class="cls-2" d="M182.5,120.1v18h0c-.6,0-23.5,3.3-23.5-10.4,0,0-17.8,10.1-48.9,10.4h0v-18c0-2.2.3-4.4,1-6.5,3.8-12.3,18.1-21.5,35.2-21.5s31.4,9.2,35.2,21.5c.6,2.1,1,4.3,1,6.5h0Z"/>
          <path class="cls-9" d="M182.5,164v.5c-.1,6.1-1.8,11.8-4.6,16.8,2.9-5.1,4.6-11,4.6-17.3Z"/>
          <path class="cls-5" d="M160.8,196.7c-.3.1-.6.2-.8.4-4.2,1.7-8.8,2.7-13.6,2.7s-10.3-1.1-14.8-3.1h0c-3.9-1.8-7.5-4.2-10.6-7.2-2.1-2.1-4-4.4-5.6-7-.2-.4-.4-.7-.7-1.1-.4-.8-.8-1.5-1.2-2.3-.4-.8-.7-1.6-1-2.4s-.6-1.6-.9-2.5c-1-3.4-1.6-6.9-1.6-10.6h0v-25.4c31.1-.4,48.9-10.4,48.9-10.4,0,13.8,22.9,10.5,23.5,10.4v25.9c0,6.3-1.8,12.2-4.6,17.3-.1.2-.2.4-.3.6-.4.7-.8,1.3-1.2,1.9-.2.2-.3.5-.5.7h0c-.2.2-.3.5-.5.7-.2.2-.4.5-.5.7h0c-.2.2-.4.5-.5.7-.7.9-1.5,1.8-2.3,2.6-.2.2-.4.4-.6.6-.2.2-.4.4-.6.6-.4.4-.8.8-1.3,1.1h0c-.2.2-.4.4-.6.5-.1.1-.2.2-.4.3-.3.2-.6.5-1,.7h0c-.2.2-.4.3-.7.5h0c-.2.2-.5.3-.7.5h0c-.2.1-.5.3-.7.4h0c-.2.1-.5.3-.7.4h0c-.1,0-.2.1-.3.2-.1,0-.3.2-.4.2-.2.1-.5.3-.7.4h0c-.1,0-.2.1-.4.2-.1,0-.3.1-.4.2-.2.1-.5.2-.8.4h0c-.2.1-.5.2-.8.4h0ZM168,151.7c0-2.3-1.9-4.2-4.2-4.2s-4.2,1.9-4.2,4.2,1.9,4.2,4.2,4.2,4.2-1.9,4.2-4.2ZM132.8,151.7c0-2.3-1.9-4.2-4.2-4.2s-4.2,1.9-4.2,4.2,1.9,4.2,4.2,4.2,4.2-1.9,4.2-4.2Z"/>
          <path class="cls-9" d="M177.5,181.8c-.4.7-.8,1.3-1.2,1.9.4-.6.8-1.3,1.2-1.9Z"/>
          <path class="cls-9" d="M175.8,184.5h0Z"/>
          <path class="cls-9" d="M174.8,185.9h0Z"/>
          <circle class="cls-13" cx="163.9" cy="151.7" r="4.2"/>
          <path class="cls-5" d="M160.8,196.7l.3,16.7c-.3.2-.6.4-.8.6-.3.2-.6.4-.9.5-.6.3-1.2.7-1.8,1-.6.3-1.2.6-1.8.8-1.9.7-3.8,1.3-5.7,1.6-1.3.2-2.6.3-3.9.3-2.8,0-5.6-.5-8.3-1.4-.6-.2-1.2-.4-1.8-.7-.6-.2-1.2-.5-1.7-.8-.3-.1-.6-.3-.9-.5-.6-.3-1.1-.7-1.6-1l-.3-17.2h0c4.5,2,9.5,3.1,14.8,3.1s9.4-.9,13.6-2.7c.3-.1.6-.2.8-.4h0Z"/>
          <path class="cls-11" d="M160.8,196.7h0c-.3.1-.6.2-.8.4.3-.1.6-.2.8-.4Z"/>
          <path class="cls-13" d="M128.7,147.6c2.3,0,4.2,1.9,4.2,4.2s-1.9,4.2-4.2,4.2-4.2-1.9-4.2-4.2,1.9-4.2,4.2-4.2Z"/>
          <path class="cls-2" d="M131.5,196.6l.3,17.2c-1.1,0-2.1,0-3.2.1-7.2.4-13.3,1.6-18.5,3.6h0v-52.5h0v-1.4c0,3.7.6,7.2,1.6,10.6.3.8.5,1.7.9,2.5.3.8.7,1.6,1,2.4s.8,1.5,1.2,2.3c.2.4.4.7.7,1.1,1.6,2.6,3.4,4.9,5.6,7,3.1,3,6.6,5.4,10.6,7.2h0s0,0,0,0Z"/>
          <polygon class="cls-11" points="131.5 196.6 131.5 196.6 131.5 196.6 131.5 196.6"/>
          <path class="cls-11" d="M115.3,182.4c1.6,2.6,3.4,4.9,5.6,7-2.1-2.1-4-4.4-5.6-7Z"/>
          <path class="cls-11" d="M113.5,179c.4.8.8,1.5,1.2,2.3-.4-.8-.8-1.5-1.2-2.3Z"/>
          <path class="cls-11" d="M112.5,176.6c.3.8.7,1.6,1,2.4-.4-.8-.7-1.6-1-2.4Z"/>
          <path class="cls-11" d="M111.6,174.1c.3.8.5,1.7.9,2.5-.3-.8-.6-1.6-.9-2.5Z"/>
          <path class="cls-5" d="M110.1,163.5v1.4h-1c-1.4,0-2.7-.2-4-.6-1.8-.5-3.4-1.4-4.7-2.6-.3-.2-.5-.4-.8-.7-1.1-1.1-1.9-2.3-2.6-3.7-.8-1.8-1.3-3.7-1.3-5.8s0-1.4.2-2c0-.4.2-.9.3-1.3.1-.4.2-.8.4-1.3.4-1,.9-2,1.5-2.9,2.4-3.6,6.5-5.9,11.1-5.9h1v25.4h0Z"/>
          <polygon class="cls-11" points="110.1 138.1 110.1 138.1 110.1 138.1 110.1 138.1"/>
          <path class="cls-11" d="M110.1,138.1h-1c-4.6,0-8.7,2.3-11.1,5.9,2.4-3.6,6.5-5.9,11.1-5.9h1Z"/>
          <path class="cls-11" d="M95.7,151.6c0,2.1.5,4.1,1.3,5.8-.8-1.8-1.3-3.7-1.3-5.8s0-1.4.2-2c0,.7-.2,1.4-.2,2h0Z"/>
          <path class="cls-11" d="M96.5,146.9c-.2.4-.3.8-.4,1.3.1-.4.2-.9.4-1.3Z"/>
          <path class="cls-11" d="M96.1,148.2c-.1.4-.2.9-.3,1.3,0-.4.2-.9.3-1.3Z"/>
        </g>
        <g>
          <path class="cls-1" d="M131.8,213.8c-1.1,0-2.1,0-3.2.1-7.2.4-13.3,1.6-18.5,3.6-3.2,1.2-6.2,2.7-8.9,4.5-1.8,1.2-3.5,2.7-5.1,4.5-.2.3-.5.5-.7.8-.4.5-.9,1.1-1.3,1.6h0c-.4.6-.8,1.1-1.3,1.7q-.3.4,0,0c-.4.6-.8,1.2-1.2,1.8h0c-.4.6-.8,1.3-1.2,1.9h0c-.8,1.3-1.5,2.6-2.1,4-.5,1-1,2.1-1.5,3.1-6.4,14.3-9.2,30.2-9.2,30.2h70.5"/>
          <path class="cls-1" d="M148.3,271.7h66.5s-2.2-12.9-7.3-25.9c-.3-.7-.6-1.4-.9-2.1-1.3-3.2-2.8-6.3-4.5-9.2-.4-.6-.8-1.3-1.1-1.9-.8-1.2-1.6-2.4-2.5-3.6-.6-.9-1.3-1.7-2-2.4-.5-.5-.9-1-1.4-1.5-1.2-1.2-2.5-2.2-3.8-3.1-2.7-1.8-5.6-3.4-8.8-4.6-.4-.1-.7-.3-1.1-.4-1.2-.4-2.5-.9-3.8-1.2-.6-.2-1.2-.3-1.8-.5-.6-.1-1.2-.3-1.9-.4-3.4-.7-7.1-1.1-11.2-1.3-.5,0-1.1,0-1.6,0"/>
          <path class="cls-1" d="M160.8,196.7h0c.3-.1.5-.2.8-.3h0l.8-.4c.1,0,.3-.1.4-.2.1,0,.2-.1.4-.2h0c.2-.1.5-.3.7-.4.1,0,.3-.2.4-.2.1,0,.2-.1.3-.2h0c.2-.1.5-.3.7-.4h0c.2-.2.5-.3.7-.4h0c.2-.2.5-.3.7-.5h0c.2-.2.5-.3.7-.5h0c.3-.2.6-.5,1-.7.1-.1.2-.2.4-.3.2-.2.4-.3.6-.5h0c.4-.4.9-.7,1.3-1.1.1-.1.2-.2.3-.3.1-.1.2-.2.3-.3.2-.2.4-.4.6-.6.8-.8,1.6-1.7,2.3-2.6.2-.2.4-.4.5-.7h0c.2-.2.4-.5.5-.7.2-.2.3-.5.5-.7h0l.5-.7c.4-.6.8-1.3,1.2-1.9.1-.2.2-.4.3-.6,2.8-5,4.5-10.7,4.6-16.8v-.9"/>
          <path class="cls-1" d="M110.1,163.5c0,3.7.6,7.2,1.6,10.6.3.8.5,1.7.9,2.5s.7,1.6,1,2.4c.4.8.8,1.5,1.2,2.3.2.4.4.7.7,1.1,1.6,2.6,3.4,4.9,5.6,7,3.1,3,6.6,5.4,10.6,7.2h0c4.5,2,9.5,3.1,14.8,3.1s9.4-.9,13.6-2.7c.3-.1.6-.2.8-.4"/>
          <path class="cls-1" d="M110.1,138.1c31.1-.4,48.9-10.4,48.9-10.4,0,13.8,22.9,10.5,23.5,10.4h0v-18c0-2.2-.3-4.4-1-6.5-3.8-12.3-18.1-21.5-35.2-21.5s-31.4,9.2-35.2,21.5c-.7,2.1-1,4.3-1,6.5v18h0"/>
          <path class="cls-1" d="M110.1,165v-1.4h0v-25.4h-1c-4.6,0-8.7,2.3-11.1,5.9-.6.9-1.1,1.9-1.5,2.9-.2.4-.3.8-.4,1.3s-.2.9-.3,1.3c0,.7-.2,1.4-.2,2,0,2.1.5,4.1,1.3,5.8.7,1.4,1.6,2.6,2.6,3.7.2.2.5.5.8.7,1.4,1.2,3,2.1,4.7,2.6,1.3.4,2.6.6,4,.6h1"/>
          <path class="cls-1" d="M182.5,165h1c.5,0,1,0,1.4,0,.4,0,.8-.1,1.1-.2,0,0,.2,0,.3,0,.3,0,.6-.1,1-.2,2.8-.8,5.2-2.6,6.9-4.8,1.7-2.2,2.7-5,2.7-8s-.2-2.7-.6-4c-.1-.4-.3-.8-.4-1.2-.7-1.6-1.6-3.1-2.9-4.3h0c-2.4-2.4-5.8-3.9-9.5-3.9h-1v26.8h0Z"/>
          <path class="cls-1" d="M160.8,196.7h0s.3,16.7.3,16.7c-.3.2-.6.4-.8.6-.3.2-.6.4-.9.5-.6.3-1.2.7-1.8,1-.6.3-1.2.6-1.8.8-1.9.7-3.8,1.3-5.7,1.6-1.3.2-2.6.3-3.9.3-2.8,0-5.6-.5-8.3-1.4-.6-.2-1.2-.4-1.8-.7-.6-.2-1.2-.5-1.7-.8-.3-.1-.6-.3-.9-.5-.6-.3-1.1-.7-1.6-1l-.3-17.2"/>
          <line class="cls-1" x1="182.5" y1="165" x2="182.5" y2="217.4"/>
          <polyline class="cls-1" points="110.1 165 110.1 165 110.1 217.4"/>
          <path class="cls-1" d="M159.7,168.5c0,7.4-6,13.5-13.5,13.5s-13.5-6-13.5-13.5"/>
        </g>
      </g>
      <g>
        <g>
          <g>
            <path class="cls-8" d="M254.7,407.9h-51.7s10.8-62,37.6-79.5c12.3-8,27.5-12.6,48.9-13.1,6.9,4.7,15,7,23,7s16.8-2.5,23.9-7.6c21.4.5,36.2,5.6,48.4,13.7,27.1,18,37.6,79.5,37.6,79.5h-167.6Z"/>
            <path class="cls-10" d="M387.3,200.5c3.9,3.9,6.3,9.2,6.3,15.2,0,11.9-9.6,21.4-21.5,21.4h-1.5v-42.9h1.5c5.9,0,11.3,2.4,15.2,6.3h0Z"/>
            <path class="cls-10" d="M335.8,288c-7.1,3.1-15,4.8-23.2,4.8s-16.4-1.8-23.6-5c-6.5-2.9-12.4-7-17.3-11.9-10.5-10.5-17-25-17-41v-40.6s37.6,5.6,37.6-16.7c0,0,28.5,16.1,78.2,16.7v40.6c0,23.8-14.3,44.2-34.7,53.1h0ZM345.6,216.9c0-3.5-2.8-6.3-6.3-6.3s-6.3,2.8-6.3,6.3,2.8,6.3,6.3,6.3,6.3-2.8,6.3-6.3ZM292.3,216.9c0-3.5-2.8-6.3-6.3-6.3s-6.3,2.8-6.3,6.3,2.8,6.3,6.3,6.3,6.3-2.8,6.3-6.3Z"/>
            <path class="cls-7" d="M370.5,154.9v39.3c-49.8-.6-78.2-16.7-78.2-16.7,0,22.3-37.6,16.7-37.6,16.7v-39.3c0-14.1,11.4-25.4,25.4-25.4s2.6.1,3.9.3c8.3-13.1,22.9-21.8,39.6-21.8,25.9,0,46.9,21,46.9,46.9h0Z"/>
            <path class="cls-13" d="M339.3,210.6c3.5,0,6.3,2.8,6.3,6.3s-2.8,6.3-6.3,6.3-6.3-2.8-6.3-6.3,2.8-6.3,6.3-6.3Z"/>
            <path class="cls-10" d="M335.8,288l.5,26.7c-7.1,5.1-15.5,7.6-23.9,7.6s-16-2.3-23-7l-.5-27.5h0c7.2,3.2,15.2,5,23.6,5s16.1-1.7,23.2-4.8h0Z"/>
            <path class="cls-13" d="M286,210.6c3.5,0,6.3,2.8,6.3,6.3s-2.8,6.3-6.3,6.3-6.3-2.8-6.3-6.3,2.8-6.3,6.3-6.3Z"/>
            <path class="cls-10" d="M254.7,194.8v42.3h-1.6c-5.9,0-11.3-2.4-15.2-6.3s-6.3-9.2-6.3-15.2c0-11.9,9.6-21.5,21.4-21.5h1.6v.6Z"/>
          </g>
          <g>
            <path class="cls-1" d="M289.4,315.3c-21.4.5-36.6,5-48.9,13.1-26.8,17.5-37.6,79.5-37.6,79.5h112.9"/>
            <path class="cls-1" d="M315.9,407.9h106.4s-10.5-61.5-37.6-79.5c-12.2-8.1-27-13.3-48.4-13.7"/>
            <path class="cls-1" d="M370.5,234.9c0,23.8-14.3,44.2-34.7,53.1-7.1,3.1-15,4.8-23.2,4.8s-16.4-1.8-23.6-5c-6.5-2.9-12.4-7-17.3-11.9-10.5-10.5-17-25-17-41"/>
            <path class="cls-1" d="M254.7,194.2h-1.6c-11.9,0-21.4,9.6-21.4,21.5s2.4,11.3,6.3,15.2,9.2,6.3,15.2,6.3h1.6v-42.9h0Z"/>
            <path class="cls-1" d="M370.5,234.9v2.3h1.5c11.9,0,21.5-9.6,21.5-21.4s-2.4-11.3-6.3-15.2c-3.9-3.9-9.3-6.3-15.2-6.3h-1.5v40.6h0Z"/>
            <line class="cls-1" x1="370.5" y1="154.9" x2="370.5" y2="194.2"/>
            <path class="cls-1" d="M254.7,154.9v39.3s37.6,5.6,37.6-16.7c0,0,28.5,16.1,78.2,16.7"/>
            <path class="cls-1" d="M370.5,154.9c0-25.9-21-46.9-46.9-46.9s-31.3,8.7-39.6,21.8c-1.3-.2-2.6-.3-3.9-.3-14,0-25.4,11.4-25.4,25.4"/>
            <path class="cls-1" d="M335.8,287.9h0s.5,26.8.5,26.8c-7.1,5.1-15.5,7.6-23.9,7.6s-16-2.3-23-7l-.5-27.5"/>
            <line class="cls-1" x1="254.7" y1="386.2" x2="254.7" y2="407.9"/>
          </g>
        </g>
        <path class="cls-1" d="M336.2,249c-13,13-34.1,13-47.1,0"/>
      </g>
      <path class="cls-4" d="M239.5,344.3l-49.7-36.6v16.1h-50.2s-39.9.9-39.9-33-19.8,74.1,39.9,74.1h50.2v16.1l49.7-36.6h0Z"/>
    </g>
  </g>
</svg>