<?xml version="1.0" encoding="UTF-8"?>
<svg xmlns="http://www.w3.org/2000/svg" viewBox="0 0 500 500">
  <defs>
    <style>
      .cls-1 {
        fill: none;
        stroke: #231f20;
        stroke-linecap: round;
        stroke-miterlimit: 10;
        stroke-width: 5px;
      }

      .cls-2 {
        fill: #9ed8d5;
      }

      .cls-2, .cls-3, .cls-4, .cls-5, .cls-6 {
        stroke-width: 0px;
      }

      .cls-3 {
        fill: #00af9a;
      }

      .cls-4 {
        fill: #55c2b5;
      }

      .cls-5 {
        fill: #00695d;
      }

      .cls-6 {
        fill: #078b7c;
      }
    </style>
  </defs>
  <g id="Layer_2" data-name="Layer 2">
    <rect class="cls-3" width="500" height="500"/>
  </g>
  <g id="Layer_1" data-name="Layer 1">
    <g>
      <g>
        <polygon class="cls-2" points="437.54 92.18 400.22 129.52 373.52 127.71 411.54 89.68 437.54 92.18"/>
        <polygon class="cls-4" points="409.03 63.67 411.54 89.68 373.52 127.71 371.7 101.02 409.03 63.67"/>
        <path class="cls-2" d="M337.11,164.14c21.77,22.08,35.2,52.4,35.2,85.86,0,67.56-54.76,122.32-122.31,122.32s-122.32-54.76-122.32-122.32,54.76-122.32,122.32-122.32c34.09,0,64.93,13.95,87.11,36.46ZM304.23,197.03c-13.76-14.09-32.98-22.84-54.23-22.84-41.87,0-75.81,33.94-75.81,75.81s33.94,75.81,75.81,75.81,75.81-33.94,75.81-75.81c0-20.62-8.23-39.31-21.58-52.97Z"/>
        <path class="cls-5" d="M271.23,230.04c4.92,5.21,7.92,12.23,7.92,19.96,0,16.1-13.05,29.16-29.15,29.16s-29.16-13.06-29.16-29.16,13.05-29.15,29.16-29.15c8.37,0,15.92,3.53,21.23,9.19Z"/>
        <path class="cls-6" d="M368.14,133.1c29.72,30.03,48.06,71.32,48.06,116.9,0,91.8-74.41,166.21-166.2,166.21s-166.21-74.41-166.21-166.21S158.2,83.79,250,83.79c46.21,0,88.02,18.86,118.14,49.31ZM337.11,164.14c-22.18-22.51-53.02-36.46-87.11-36.46-67.56,0-122.32,54.77-122.32,122.32s54.76,122.32,122.32,122.32,122.31-54.76,122.31-122.32c0-33.46-13.43-63.78-35.2-85.86Z"/>
        <path class="cls-6" d="M271.23,230.04c-5.31-5.66-12.86-9.19-21.23-9.19-16.11,0-29.16,13.05-29.16,29.15s13.05,29.16,29.16,29.16,29.15-13.06,29.15-29.16c0-7.73-3-14.75-7.92-19.96ZM304.23,197.03c13.35,13.66,21.58,32.35,21.58,52.97,0,41.87-33.95,75.81-75.81,75.81s-75.81-33.94-75.81-75.81,33.94-75.81,75.81-75.81c21.25,0,40.47,8.75,54.23,22.84Z"/>
      </g>
      <g>
        <path class="cls-1" d="M416.2,250c0,91.8-74.41,166.21-166.2,166.21s-166.21-74.41-166.21-166.21S158.2,83.79,250,83.79c46.21,0,88.02,18.86,118.14,49.31,29.72,30.03,48.06,71.32,48.06,116.9Z"/>
        <path class="cls-1" d="M372.31,250c0,67.56-54.76,122.32-122.31,122.32s-122.32-54.76-122.32-122.32,54.76-122.32,122.32-122.32c34.09,0,64.93,13.95,87.11,36.46,21.77,22.08,35.2,52.4,35.2,85.86Z"/>
        <path class="cls-1" d="M325.81,250c0,41.87-33.95,75.81-75.81,75.81s-75.81-33.94-75.81-75.81,33.94-75.81,75.81-75.81c21.25,0,40.47,8.75,54.23,22.84,13.35,13.66,21.58,32.35,21.58,52.97Z"/>
        <path class="cls-1" d="M279.15,250c0,16.1-13.05,29.16-29.15,29.16s-29.16-13.06-29.16-29.16,13.05-29.15,29.16-29.15c8.37,0,15.92,3.53,21.23,9.19,4.92,5.21,7.92,12.23,7.92,19.96Z"/>
        <polygon class="cls-1" points="411.54 89.68 437.54 92.18 400.22 129.52 373.52 127.71 371.7 101.02 409.03 63.67 411.54 89.68"/>
        <polyline class="cls-1" points="411.54 89.68 373.52 127.71 368.14 133.1 337.11 164.14 304.23 197.03 271.23 230.04 250 251.28"/>
      </g>
    </g>
  </g>
</svg>