<?xml version="1.0" encoding="UTF-8"?>
<svg xmlns="http://www.w3.org/2000/svg" viewBox="0 0 500 500">
  <defs>
    <style>
      .cls-1 {
        fill: none;
        stroke-linecap: round;
      }

      .cls-1, .cls-2 {
        stroke: #231f20;
        stroke-miterlimit: 10;
        stroke-width: 5px;
      }

      .cls-3 {
        fill: #a09dc3;
      }

      .cls-3, .cls-4, .cls-5 {
        stroke-width: 0px;
      }

      .cls-2 {
        fill: #46416e;
      }

      .cls-4 {
        fill: #625d9c;
      }

      .cls-5 {
        fill: #e1dfeb;
      }
    </style>
  </defs>
  <g id="Layer_2" data-name="Layer 2">
    <rect class="cls-4" y="-.27" width="500" height="500"/>
  </g>
  <g id="Layer_1" data-name="Layer 1">
    <path class="cls-2" d="M284.84,244.4c0-10.73-8.7-19.44-19.44-19.44-6.27,0-11.85,2.97-15.4,7.58-3.55-4.61-9.13-7.58-15.4-7.58-10.73,0-19.44,8.7-19.44,19.44,0,19.65,35.16,35.71,35.16,35.71,0,0,34.52-16.06,34.52-35.71Z"/>
    <g>
      <g>
        <circle class="cls-3" cx="250" cy="250" r="75.81"/>
        <path class="cls-3" d="M250,83.79c91.79,0,166.21,74.42,166.21,166.21s-74.42,166.21-166.21,166.21-166.21-74.41-166.21-166.21S158.2,83.79,250,83.79ZM372.32,250c0-67.55-54.77-122.32-122.32-122.32s-122.32,54.77-122.32,122.32,54.76,122.32,122.32,122.32,122.32-54.76,122.32-122.32Z"/>
        <path class="cls-5" d="M250,127.68c67.55,0,122.32,54.77,122.32,122.32s-54.77,122.32-122.32,122.32-122.32-54.76-122.32-122.32,54.76-122.32,122.32-122.32ZM325.81,250c0-41.87-33.94-75.81-75.81-75.81s-75.81,33.94-75.81,75.81,33.94,75.81,75.81,75.81,75.81-33.94,75.81-75.81Z"/>
      </g>
      <g>
        <circle class="cls-1" cx="250" cy="250" r="166.21"/>
        <circle class="cls-1" cx="250" cy="250" r="122.32"/>
        <circle class="cls-1" cx="250" cy="250" r="75.81"/>
      </g>
    </g>
  </g>
</svg>