<?xml version="1.0" encoding="UTF-8"?>
<svg id="Layer_1" xmlns="http://www.w3.org/2000/svg" version="1.1" viewBox="0 0 500 500">
  <!-- Generator: Adobe Illustrator 29.0.1, SVG Export Plug-In . SVG Version: 2.1.0 Build 192)  -->
  <defs>
    <style>
      .st0 {
        fill: #068a7c;
        fill-rule: evenodd;
      }

      .st0, .st1, .st2 {
        stroke: #221f1f;
        stroke-linecap: round;
        stroke-miterlimit: 10;
        stroke-width: 5px;
      }

      .st3 {
        fill: #00aa9a;
      }

      .st1 {
        fill: #83cec8;
      }

      .st2 {
        fill: #03463f;
      }
    </style>
  </defs>
  <rect class="st3" x="0" width="500" height="500"/>
  <g>
    <g>
      <path class="st0" d="M403.2,293.9c-6.7-3.7-22.3-9.4-34.1,9-6.6,10.2-8.3,22.9-5.3,34.6,2.5,9.9,6.5,22.5,11.3,28.7,8.6,11.1,1.5,61.3-61.1,49-62.6-12.2-42.7-83.4-42.7-83.4,0,0,9.7-44.1-18.3-48.8-28-4.6-27.1-12.6-59.4,17.6-31.5,29.5-62.1,12.6-99.5-10.3-1.6-1-2.4-3-1.8-4.8l5.8-17.6c.5-1.6,1.9-2.7,3.6-2.8l9.9-.9c2.6-.2,4.3-2.7,3.6-5.2l-4.2-15.7c-.2-.6-.5-1.2-.9-1.6l-18.5-21.2c-1-1.2-1.3-2.9-.7-4.3l27-64.7c.4-1,1.2-1.8,2.2-2.2l74.1-31.3c.7-.3,1.5-.4,2.3-.3l18.2,3.2c1.5.3,2.9-.3,3.9-1.4l38.9-46.5c1.4-1.6,3.7-2,5.5-.8l14.4,9.5c.8.6,1.9.8,2.9.6l33.9-4.7c1.3-.2,2.7.3,3.6,1.2l1.3,1.4c1.3,1.3,1.5,3.3.6,4.9l-15.7,27.6c-.8,1.5-.7,3.3.4,4.6l46.1,57.5c1,1.2,1.2,2.8.6,4.2l-4.9,11.6c-.5,1.2-.4,2.5.2,3.6l17.8,32.4c.4.7,1,1.3,1.8,1.7l25.1,12.6c1.7.9,2.6,2.7,2.2,4.6h0c-1,4.5,4.9,7,7.5,3.2l.8-1.2c1-1.5,2.8-2.1,4.5-1.7l3,.8c2.8.8,4,4.1,2.3,6.4l-7,9.8c-1.4,2-.8,4.8,1.4,6l9.8,5.4c2.1,1.2,2.8,3.9,1.5,5.9l-8,12.3c-1.2,1.8-3.6,2.4-5.5,1.4Z"/>
      <path class="st1" d="M333,429.1c-6.2,0-13.1-.7-20.8-2.2-20.3-4-35.4-13.7-44.8-29-17.2-27.9-8.4-64.2-7.2-68.8,1.7-8.1,2.5-23.2-2.4-30.4-1.5-2.2-3.4-3.4-6.3-3.9-5.3-.9-9.7-1.9-13.3-2.7-7.8-1.8-10-2.1-12.7-1.1-4.4,1.7-11.4,7.1-23.4,18.3-39.3,36.7-78.9,12.5-113.9-8.8-5.6-3.4-7.4-10.8-4-16.4,3.4-5.6,10.8-7.4,16.4-4,41.1,25.1,61.6,33.8,85.2,11.7,28.3-26.5,36.2-28,57.7-23.1,3.4.8,7.2,1.7,11.9,2.4,9.4,1.6,17,6.4,22.2,14,12.2,18,6.5,45.9,5.8,49.1l-.2.7c0,.3-8.1,30.2,4.5,50.4,5.9,9.5,15.4,15.4,29,18.1,21.2,4.1,36.6.7,44.6-10,6.1-8.2,5.8-17.7,4.7-20.2-4.9-6.5-9.3-17.2-13.3-32.9-3.9-15.2-1.4-31.3,6.9-44.1,14.1-21.9,35-21,49.8-12.9,5.8,3.2,7.9,10.4,4.7,16.2-3.2,5.8-10.4,7.9-16.2,4.7-9.8-5.4-14.8-.6-18.3,4.9-4.7,7.3-6.1,16.5-3.8,25.3,4.5,17.4,8.2,23.1,9.2,24.4,8.1,10.4,7.2,30.2-2,45.2-6.2,10.1-20.4,25-50,25ZM366.1,373.3h0,0Z"/>
    </g>
    <circle class="st2" cx="319.2" cy="266.7" r="18.2"/>
    <circle class="st2" cx="347.9" cy="176.8" r="18.2"/>
    <circle class="st2" cx="156.1" cy="252.2" r="18.2"/>
  </g>
</svg>