<?xml version="1.0" encoding="UTF-8"?>
<svg id="Layer_1" xmlns="http://www.w3.org/2000/svg" version="1.1" viewBox="0 0 500 500">
  <!-- Generator: Adobe Illustrator 29.0.1, SVG Export Plug-In . SVG Version: 2.1.0 Build 192)  -->
  <defs>
    <style>
      .st0 {
        fill: #84bfe8;
      }

      .st0, .st1 {
        stroke: #231f20;
        stroke-linecap: round;
        stroke-miterlimit: 10;
        stroke-width: 5px;
      }

      .st1 {
        fill: none;
      }

      .st2 {
        fill: #5eb3e4;
      }

      .st3 {
        fill: #3579a2;
      }
    </style>
  </defs>
  <rect class="st2" x=".3" y="-.4" width="500" height="500"/>
  <g>
    <g>
      <path class="st1" d="M371,297.1h-197.8c-28.9,0-52.4-23.4-52.4-52.4h0c0-28.9,23.4-52.4,52.4-52.4h155.3"/>
      <path class="st1" d="M371,297.5c28.9,0,52.4,23.4,52.4,52.4h0c0,28.9-23.4,52.4-52.4,52.4H120.8"/>
    </g>
    <circle class="st0" cx="329.5" cy="192.4" r="16.3"/>
    <circle class="st0" cx="120.8" cy="400.5" r="16.3"/>
    <g>
      <path class="st3" d="M120.8,294.8c24,0,43.5,19.5,43.5,43.5s-43.5,66-43.5,66c0,0-43.5-42-43.5-66s19.5-43.5,43.5-43.5ZM144.2,338.3c0-12.9-10.5-23.3-23.3-23.3s-23.3,10.5-23.3,23.3,10.5,23.3,23.3,23.3,23.3-10.5,23.3-23.3Z"/>
      <g>
        <path class="st1" d="M164.3,338.3c0,24-43.5,66-43.5,66,0,0-43.5-42-43.5-66s19.5-43.5,43.5-43.5,43.5,19.5,43.5,43.5Z"/>
        <path class="st1" d="M144.2,338.3c0,12.9-10.5,23.3-23.3,23.3s-23.3-10.5-23.3-23.3,10.5-23.3,23.3-23.3,23.3,10.5,23.3,23.3Z"/>
      </g>
    </g>
    <g>
      <path class="st3" d="M329.5,82.9c24,0,43.5,19.5,43.5,43.5s-43.5,66-43.5,66c0,0-43.5-42-43.5-66s19.5-43.5,43.5-43.5ZM352.9,126.4c0-12.9-10.5-23.3-23.3-23.3s-23.3,10.5-23.3,23.3,10.5,23.3,23.3,23.3,23.3-10.5,23.3-23.3Z"/>
      <g>
        <path class="st1" d="M373,126.4c0,24-43.5,66-43.5,66,0,0-43.5-42-43.5-66s19.5-43.5,43.5-43.5,43.5,19.5,43.5,43.5Z"/>
        <path class="st1" d="M352.9,126.4c0,12.9-10.5,23.3-23.3,23.3s-23.3-10.5-23.3-23.3,10.5-23.3,23.3-23.3,23.3,10.5,23.3,23.3Z"/>
      </g>
    </g>
  </g>
</svg>