<?xml version="1.0" encoding="UTF-8"?>
<svg xmlns="http://www.w3.org/2000/svg" viewBox="0 0 500 500">
  <defs>
    <style>
      .cls-1, .cls-2, .cls-3 {
        stroke: #231f20;
      }

      .cls-1, .cls-2, .cls-3, .cls-4 {
        fill: none;
        stroke-miterlimit: 10;
      }

      .cls-1, .cls-3, .cls-4 {
        stroke-width: 5px;
      }

      .cls-1, .cls-4 {
        stroke-linecap: round;
      }

      .cls-5 {
        fill: #1b3648;
      }

      .cls-5, .cls-6, .cls-7, .cls-8, .cls-9, .cls-10, .cls-11, .cls-12, .cls-13 {
        stroke-width: 0px;
      }

      .cls-6 {
        fill: #2f5a79;
      }

      .cls-7 {
        fill: #d1e7f7;
      }

      .cls-8 {
        fill: #03463f;
      }

      .cls-9 {
        fill: #5b666d;
      }

      .cls-10 {
        fill: #5eb3e4;
      }

      .cls-11 {
        fill: #95c8ec;
      }

      .cls-4 {
        stroke: #010101;
      }

      .cls-12 {
        fill: #eaecee;
      }

      .cls-13 {
        fill: #232c33;
      }
    </style>
  </defs>
  <g id="Layer_2" data-name="Layer 2">
    <rect class="cls-10" x="0" y="-.27" width="500" height="500"/>
  </g>
  <g id="Layer_1" data-name="Layer 1">
    <g>
      <g>
        <path class="cls-5" d="M314.51,143.55c1.27,4.56,1.94,9.37,1.94,14.33v30.72c-28.56-.36-50.99-5.15-66.29-9.85s-23.46-9.31-23.46-9.31h0c0,5.07-1.69,8.87-4.4,11.72-6.42,6.75-18.57,8.15-27.56,8.15-3.19,0-5.98-.18-7.98-.35-1.99-.18-3.19-.36-3.19-.36v-30.71h0c0-5.21,1.37-10.1,3.77-14.33h0c.16-.28.32-.55.48-.82,1.16-1.9,2.52-3.66,4.07-5.24,1.76-1.8,3.76-3.38,5.94-4.69,2.18-1.3,4.54-2.33,7.05-3.03,1.25-.34,2.53-.61,3.85-.8,1.31-.18,2.66-.27,4.02-.27,1.54,0,3.03.15,4.5.38h0c6.27-9.86,15.64-17.54,26.74-21.66,1.05-.39,2.13-.75,3.22-1.08,4.89-1.46,10.08-2.25,15.45-2.25,12.37,0,23.77,4.18,32.85,11.2,1.7,1.32,3.33,2.73,4.86,4.24.26.25.51.5.76.76,6.26,6.4,10.93,14.37,13.38,23.25Z"/>
        <path class="cls-8" d="M187.82,142.74l-.48.81c.15-.27.31-.54.48-.81Z"/>
        <path class="cls-7" d="M434.49,245.17c0,1.42-.47,2.9-1.47,4.26-3.45,4.68-6.96,9.32-10.46,13.98-3.85,5.12-7.78,10.18-10.38,16.12-2.24,5.11-3.71,10.41-4.59,15.93-.05.3-.1.6-.16.9-1.12,5.97-3.72,11.57-7.43,16.39-2.08,2.7-3.74,4.62-5.38,6.14l.86-8.14h-42.67l-2.75,10.51c-1.46-.72-2.88-1.54-4.27-2.5-3.44-2.36-6.44-5.19-8.93-8.54-10.04-13.48-20.07-26.97-30.11-40.44,2.61-4.26,4.75-8.84,6.34-13.66,3.48,1.49,6.42,3.88,8.71,7.29,3.07,4.57,6.06,9.2,9.09,13.8,1.69,2.56,4.17,3.6,7.04,2.94,2.83-.64,4.7-2.73,5.07-5.71.45-3.66,1.1-7.31,1.24-10.98.1-2.55-.43-5.14-.79-7.7-1.41-9.88-2.83-19.75-4.25-29.63h0c1.07-1.74,1.92-3.6,2.54-5.57.72-2.32,1.11-4.77,1.11-7.32h0c0-3.42-.69-6.65-1.94-9.59-.44-1.06-.96-2.08-1.55-3.06,1.25-.98,2.86-1.59,4.66-1.66,3.64-.15,6.91,2.59,7.58,6.53,1.46,8.73,2.84,17.47,4.25,26.21,1.44,8.88,2.86,17.75,4.29,26.63.08.49.16.99.34,1.45.38.97,1.18,1.38,2.18,1.3.99-.07,1.71-.6,1.93-1.62.11-.49.14-.99.2-1.49,2.23-18.58,4.46-37.16,6.69-55.74.49-4.06,3.14-6.83,6.82-7.2,4.91-.5,8.87,3.41,8.45,8.35-.04.45-.1.91-.16,1.36-2.13,17.77-4.26,35.53-6.39,53.3-.04.36-.09.72-.13,1.09-.12,1.37.47,2.34,1.66,2.58,1.25.25,2.12-.29,2.59-1.46l4.32-10.74c4.62-11.55,9.33-23.06,13.83-34.65,2.29-5.93,9.16-7.18,12.97-3.01,1.99,2.17,2.71,4.76,1.61,7.57-4.09,10.39-8.25,20.76-12.39,31.13-2.18,5.48-4.37,10.96-6.59,16.43-.39.95-.37,1.77.3,2.53,1.03,1.15,2.54,1.01,3.6-.38,2.74-3.63,5.45-7.27,8.18-10.91,4.14-5.53,8.28-11.07,12.44-16.59,2.04-2.7,5.07-3.51,7.99-2.22,2.52,1.11,3.91,3.36,3.91,5.79Z"/>
        <path class="cls-7" d="M395.48,310.75l-.86,8.14c-.15.14-.3.28-.45.41-5.39,4.73-12.25,6.78-19.41,6.64-8.54-.16-17.01-.87-24.7-4.68l2.75-10.51h42.67Z"/>
        <path class="cls-6" d="M394.62,318.89l-12.11,114.81h-6.76s-1.18-6.89-3.74-17c-.19-.75-.39-1.53-.6-2.32s-.42-1.6-.65-2.43c-.15-.55-.3-1.1-.46-1.66-.15-.57-.31-1.13-.48-1.71-.16-.57-.33-1.15-.5-1.74-.08-.29-.17-.58-.26-.88-.26-.88-.53-1.78-.81-2.69-.09-.3-.18-.6-.28-.91-.19-.61-.38-1.22-.58-1.84-.29-.92-.59-1.85-.91-2.79-.2-.63-.41-1.26-.63-1.89-1.29-3.79-2.72-7.67-4.3-11.54,0,0,.01,0,0-.01-1.04-2.58-2.15-5.16-3.33-7.7-2.06-4.45-4.31-8.8-6.78-12.89t0-.01c-.7-1.17-1.42-2.31-2.16-3.43-.36-.57-.74-1.13-1.12-1.68-1.86-2.7-3.82-5.24-5.89-7.56l7.79-29.76c7.69,3.81,16.16,4.52,24.7,4.68,7.16.14,14.02-1.91,19.41-6.64.15-.13.3-.27.45-.41Z"/>
        <path class="cls-6" d="M375.75,433.7h-55.13l21.64-82.66c2.08,2.32,4.04,4.85,5.9,7.54.38.55.76,1.11,1.12,1.68.73,1.12,1.45,2.26,2.16,3.43t0,.01c2.46,4.09,4.72,8.44,6.78,12.89,1.17,2.55,2.28,5.12,3.33,7.7.01.01,0,.01,0,.01,1.57,3.87,3,7.75,4.29,11.54.22.63.43,1.26.64,1.89.31.94.61,1.87.91,2.79.19.62.39,1.23.58,1.84.1.31.19.61.28.91.28.91.55,1.81.81,2.69.09.3.18.59.26.88.17.59.34,1.17.5,1.74.16.58.32,1.14.48,1.71.16.56.31,1.11.46,1.66.23.83.44,1.64.65,2.43s.41,1.57.6,2.32c2.56,10.11,3.74,17,3.74,17Z"/>
        <path class="cls-9" d="M371.41,414.38c.21.79.41,1.57.6,2.32-.19-.75-.39-1.53-.6-2.32Z"/>
        <path class="cls-9" d="M370.3,410.29c.16.56.31,1.11.46,1.66-.15-.55-.3-1.1-.46-1.66Z"/>
        <path class="cls-9" d="M369.82,408.58c.17.58.33,1.14.48,1.71-.16-.57-.32-1.13-.48-1.71Z"/>
        <path class="cls-9" d="M369.32,406.84c.17.59.34,1.17.5,1.74-.16-.57-.33-1.15-.5-1.74Z"/>
        <path class="cls-9" d="M368.25,403.27c.28.91.55,1.81.81,2.69-.26-.88-.53-1.78-.81-2.69Z"/>
        <path class="cls-9" d="M367.39,400.52c.2.62.39,1.23.58,1.84-.19-.61-.39-1.22-.58-1.84Z"/>
        <path class="cls-9" d="M366.48,397.73c.32.94.62,1.87.91,2.79-.3-.92-.6-1.85-.91-2.79Z"/>
        <path class="cls-9" d="M365.85,395.84c.22.63.43,1.26.63,1.89-.21-.63-.42-1.26-.64-1.89h0Z"/>
        <path class="cls-9" d="M365.85,395.84h0c-1.29-3.79-2.72-7.67-4.29-11.54,1.58,3.87,3.01,7.75,4.3,11.54Z"/>
        <path class="cls-9" d="M358.22,376.59c1.18,2.54,2.29,5.12,3.33,7.7-1.05-2.58-2.16-5.15-3.33-7.7Z"/>
        <path class="cls-9" d="M351.44,363.7c2.47,4.09,4.72,8.44,6.78,12.89-2.06-4.45-4.32-8.8-6.78-12.89Z"/>
        <path class="cls-9" d="M349.28,360.26c.74,1.12,1.46,2.26,2.16,3.43-.71-1.17-1.43-2.31-2.16-3.43Z"/>
        <path class="cls-9" d="M342.27,351.02c2.07,2.32,4.03,4.86,5.89,7.56-1.86-2.69-3.82-5.22-5.9-7.54v-.02Z"/>
        <path class="cls-12" d="M342.85,213.23h0s0,.01,0,.01c0-3.4-.69-6.64-1.94-9.59h.01c1.25,2.94,1.94,6.17,1.94,9.58Z"/>
        <path class="cls-12" d="M342.84,213.24h0c0,2.55-.39,5-1.11,7.32.71-2.31,1.1-4.77,1.1-7.32Z"/>
        <path class="cls-6" d="M342.26,351.04l-21.64,82.66h-137.05l-22.55-86.11c.26-.26.53-.51.8-.76h.01c.88-.81,1.79-1.58,2.71-2.31,0,0,0,0,.01,0,.92-.72,1.85-1.39,2.81-2.02h.01c.88-.58,1.78-1.14,2.68-1.68.91-.54,1.83-1.07,2.76-1.59,0,0,0,.01,0,0,1.87-1.02,3.8-1.99,5.8-2.89,2.5-1.12,5.1-2.14,7.82-3.07,3.26-1.1,6.7-2.05,10.35-2.85,1.81-.4,3.67-.76,5.58-1.08h.01c1.92-.32,3.88-.6,5.9-.84,4.72-.56,9.76-.9,15.13-1.01h.01c7.96,5.36,17.13,8.03,26.3,8.03,9.62,0,19.22-2.92,27.4-8.77,2.3.05,4.53.14,6.71.28h.01c1.44.1,2.86.21,4.25.34,8.36.81,15.76,2.33,22.43,4.47,1.11.36,2.2.73,3.27,1.12t.01,0c1.61.59,3.17,1.21,4.7,1.86,0,0,0,0,0,0,1.01.44,2.01.89,3,1.36,0,0,.01-.01.01,0,.98.47,1.94.95,2.9,1.45.96.49,1.9,1.01,2.83,1.54,1.39.8,2.74,1.62,4.08,2.47,0,0,0-.01.01,0,.44.29.87.58,1.31.87,2.91,1.93,5.65,4.3,8.24,7.01,0,0,0,0,0,0,.46.49.93,1,1.37,1.51Z"/>
        <path class="cls-7" d="M342.84,213.24c0,2.55-.39,5.01-1.1,7.32-.62,1.97-1.47,3.83-2.54,5.56-.87-6.11-1.75-12.23-2.61-18.35-.42-2.95.7-5.56,2.76-7.17.59.97,1.1,1.99,1.55,3.05,1.25,2.95,1.94,6.19,1.94,9.59Z"/>
        <path class="cls-12" d="M339.36,200.59c.59.98,1.11,2,1.55,3.06h-.01c-.45-1.06-.96-2.08-1.55-3.05,0,0,0-.01.01-.01Z"/>
        <path class="cls-12" d="M339.36,200.59s-.01.01-.01.01c-1.04-1.74-2.3-3.34-3.72-4.77-.28-.28-.56-.55-.85-.82.3.26.58.53.86.81,1.43,1.42,2.68,3.03,3.72,4.77Z"/>
        <path class="cls-7" d="M339.2,226.12h0c-.6.98-1.26,1.9-1.97,2.77-.5.61-1.03,1.19-1.58,1.74t0,.01c-.55.55-1.13,1.08-1.74,1.58-2.43,2-5.25,3.55-8.33,4.51-2.31.71-4.77,1.1-7.32,1.1h-1.79v-2.61h0v-45.9h0v-.7h1.78c3.4,0,6.63.69,9.57,1.94,1.1.46,2.17,1.01,3.18,1.62.34.21.68.43,1.01.64.98.67,1.91,1.4,2.78,2.19.29.27.57.54.85.82,1.42,1.43,2.68,3.03,3.72,4.77-2.06,1.61-3.18,4.22-2.76,7.17.86,6.12,1.74,12.24,2.61,18.35Z"/>
        <path class="cls-12" d="M337.23,228.89c-.5.61-1.03,1.19-1.58,1.74.55-.55,1.08-1.13,1.58-1.74Z"/>
        <path class="cls-12" d="M332,192.82c.98.66,1.91,1.39,2.78,2.19-.87-.79-1.8-1.52-2.78-2.19Z"/>
        <path class="cls-12" d="M327.81,190.55c1.11.46,2.17,1,3.18,1.63-1.01-.61-2.08-1.16-3.18-1.62h0Z"/>
        <path class="cls-12" d="M327.81,190.55h0c-2.94-1.24-6.17-1.93-9.57-1.93h0c3.4-.01,6.63.68,9.57,1.93Z"/>
        <polygon class="cls-12" points="318.24 188.61 318.24 188.62 318.23 188.62 316.46 188.62 316.46 188.6 318.24 188.6 318.24 188.61"/>
        <polygon class="cls-12" points="316.45 235.21 316.45 235.22 316.44 235.22 316.44 189.33 316.45 189.33 316.45 235.21"/>
        <rect class="cls-12" x="316.44" y="189.32" width=".01" height=".01"/>
        <polygon class="cls-12" points="316.45 189.31 316.45 189.32 316.44 189.32 316.44 188.62 316.45 188.62 316.45 189.31"/>
        <rect class="cls-12" x="316.44" y="188.61" width=".01" height=".01"/>
        <path class="cls-13" d="M316.45,188.6h0s-.01,0-.01,0c-28.56-.36-50.98-5.15-66.28-9.85h0c15.3,4.69,37.73,9.48,66.29,9.84Z"/>
        <path class="cls-7" d="M276.61,296.11c-1.53.67-3.08,1.29-4.67,1.84-2.64.92-5.35,1.68-8.13,2.27h-.01c-3.34.7-6.77,1.16-10.27,1.35-1.16.06-2.34.09-3.52.09-9.65,0-18.82-2.05-27.09-5.76h-.01c-7.46-3.33-14.18-8-19.88-13.71-3.73-3.72-7.01-7.89-9.78-12.41,1.44-1.93,2.88-3.87,4.32-5.8,1.19-1.6,1.98-3.31,1.48-5.33-.69-2.83-3.23-4.61-6.16-4.18-2.13.31-4.12.85-5.96,1.64-2.18-6.57-3.36-13.59-3.36-20.89h0v-46.61s1.2.18,3.19.35c2,.18,4.79.36,7.98.36,8.99,0,21.14-1.4,27.56-8.16,2.71-2.85,4.4-6.65,4.4-11.71,0,0,8.16,4.61,23.46,9.31s37.72,9.49,66.28,9.85h0v.71h0v45.9h.01c0,.43,0,.85-.01,1.27-.13,6.85-1.3,13.44-3.35,19.63-1.84-.8-3.84-1.34-5.97-1.65-2.94-.43-5.48,1.35-6.17,4.18-.5,2.02.29,3.73,1.48,5.33,1.44,1.93,2.88,3.87,4.32,5.8-7.07,11.59-17.59,20.85-30.14,26.33ZM271.95,280.59c.1-.03.19-.06.29-.1,11.33-4.07,15.67-19.46,5.96-28.68-7.34-6.97-17.28-11.25-28.2-11.25s-20.86,4.28-28.2,11.25c-9.71,9.22-5.37,24.61,5.96,28.69.1.03.19.07.29.1,1.74.6,3.65.92,5.68.92h32.52c2.05,0,3.95-.32,5.7-.93Z"/>
        <path class="cls-7" d="M307.12,254.47c2.13.31,4.13.85,5.97,1.65-1.59,4.82-3.73,9.4-6.34,13.66-1.44-1.93-2.88-3.87-4.32-5.8-1.19-1.6-1.98-3.31-1.48-5.33.69-2.83,3.23-4.61,6.17-4.18Z"/>
        <path class="cls-8" d="M300.37,119.54c.26.24.51.5.76.76-.25-.26-.5-.51-.76-.76Z"/>
        <path class="cls-8" d="M295.51,115.29c1.7,1.32,3.33,2.73,4.86,4.25-1.53-1.51-3.16-2.92-4.86-4.24h0Z"/>
        <path class="cls-8" d="M295.51,115.29h0c-9.08-7.01-20.48-11.19-32.85-11.19h0c12.37-.01,23.77,4.17,32.85,11.19Z"/>
        <path class="cls-5" d="M278.2,251.81c9.71,9.22,5.37,24.61-5.96,28.68-.1.04-.19.07-.29.1-12.13-12.12-31.77-12.12-43.9.01-.1-.03-.19-.07-.29-.1-11.33-4.08-15.67-19.47-5.96-28.69,7.34-6.97,17.27-11.25,28.2-11.25s20.86,4.28,28.2,11.25Z"/>
        <path class="cls-7" d="M277.12,326.74h0c-8.18,5.86-17.78,8.78-27.4,8.78s-18.34-2.67-26.3-8.03h-.01l-.51-31.58h.01s.01-.01.01-.01c8.27,3.71,17.44,5.76,27.09,5.76,1.18,0,2.36-.03,3.52-.09,3.5-.18,6.93-.63,10.27-1.34h.01c2.78-.59,5.49-1.35,8.13-2.28,1.59-.55,3.14-1.17,4.67-1.84l.51,30.63Z"/>
        <path class="cls-11" d="M271.95,280.59c-1.75.61-3.65.93-5.7.93h-32.52c-2.03,0-3.94-.32-5.68-.92,12.13-12.13,31.77-12.13,43.9-.01Z"/>
        <path class="cls-12" d="M271.94,297.95c-2.64.93-5.35,1.69-8.13,2.28h0c2.78-.6,5.49-1.36,8.13-2.28Z"/>
        <rect class="cls-12" x="263.8" y="300.22" width=".01" height="0"/>
        <path class="cls-12" d="M263.8,300.22h0c-3.34.72-6.77,1.17-10.27,1.35,3.5-.19,6.93-.65,10.27-1.35Z"/>
        <path class="cls-8" d="M262.66,104.09h0c-5.37.01-10.56.8-15.45,2.26,4.89-1.47,10.08-2.26,15.45-2.26Z"/>
        <path class="cls-13" d="M250.16,178.75h0c-15.3-4.69-23.46-9.3-23.46-9.3h0s8.16,4.6,23.46,9.3Z"/>
        <path class="cls-8" d="M243.99,107.43c1.05-.4,2.13-.76,3.22-1.08-1.09.33-2.17.69-3.22,1.08Z"/>
        <path class="cls-8" d="M217.25,129.08h0c-1.47-.22-2.96-.37-4.5-.37h0c1.54-.01,3.03.14,4.5.37Z"/>
        <path class="cls-8" d="M212.75,128.7h0c-1.36.01-2.71.1-4.02.28,1.31-.19,2.66-.28,4.02-.28Z"/>
        <path class="cls-8" d="M204.88,129.78c1.25-.36,2.53-.62,3.85-.8-1.32.19-2.6.46-3.85.8Z"/>
        <path class="cls-9" d="M208.28,328.5c-2.02.24-3.98.52-5.9.84,1.92-.32,3.88-.6,5.9-.84Z"/>
        <path class="cls-7" d="M199.05,258.65c.5,2.02-.29,3.73-1.48,5.33-1.44,1.93-2.88,3.87-4.32,5.8-2.59-4.26-4.73-8.84-6.32-13.67,1.84-.79,3.83-1.33,5.96-1.64,2.93-.43,5.47,1.35,6.16,4.18Z"/>
        <path class="cls-8" d="M197.83,132.8c2.18-1.3,4.54-2.32,7.05-3.02-2.51.7-4.87,1.73-7.05,3.03h0Z"/>
        <path class="cls-9" d="M202.37,329.34c-1.91.32-3.77.68-5.58,1.08,1.81-.4,3.67-.76,5.58-1.08Z"/>
        <path class="cls-8" d="M197.83,132.8h0c-2.18,1.32-4.18,2.9-5.94,4.7,1.76-1.81,3.76-3.39,5.94-4.7Z"/>
        <path class="cls-13" d="M194.74,189.31c8.99,0,21.14-1.4,27.56-8.15-6.42,6.76-18.57,8.16-27.56,8.16h0Z"/>
        <path class="cls-13" d="M194.74,189.31h0c-3.19,0-5.98-.17-7.98-.35,2,.17,4.79.35,7.98.35Z"/>
        <path class="cls-7" d="M186.93,256.11c1.59,4.83,3.73,9.41,6.32,13.67-10.04,13.47-20.07,26.96-30.11,40.44-2.49,3.35-5.49,6.18-8.93,8.54-.21.14-.42.29-.63.42l-2.21-8.43h-42.67l1.21,11.47c-1.43-.82-2.79-1.8-4.07-2.92-1.8-1.58-3.57-3.6-5.84-6.55-3.7-4.82-6.31-10.42-7.43-16.39-.05-.3-.11-.6-.16-.9-.88-5.52-2.35-10.82-4.59-15.93-2.6-5.94-6.53-11-10.38-16.12-3.5-4.66-7.01-9.3-10.46-13.98-1-1.36-1.47-2.84-1.47-4.26,0-2.43,1.39-4.68,3.91-5.79,2.93-1.29,5.95-.48,7.99,2.22,4.16,5.52,8.3,11.06,12.44,16.59,2.73,3.64,5.44,7.28,8.18,10.91,1.06,1.39,2.58,1.53,3.6.38.67-.76.69-1.58.3-2.53-2.22-5.47-4.4-10.95-6.59-16.43-4.14-10.37-8.29-20.74-12.38-31.13-1.11-2.81-.39-5.4,1.6-7.57,3.82-4.17,10.68-2.92,12.98,3.01,4.49,11.59,9.2,23.1,13.83,34.65,1.43,3.58,2.87,7.16,4.31,10.74.47,1.17,1.35,1.71,2.59,1.46,1.19-.24,1.78-1.21,1.66-2.58-.04-.37-.09-.73-.13-1.09-2.13-17.77-4.26-35.53-6.39-53.3-.06-.45-.12-.91-.16-1.36-.42-4.94,3.54-8.85,8.46-8.35,3.68.37,6.32,3.14,6.81,7.2,2.24,18.58,4.46,37.16,6.69,55.74.06.5.09,1,.2,1.49.22,1.02.94,1.55,1.94,1.62.99.08,1.79-.33,2.17-1.3.18-.46.26-.96.34-1.45,1.43-8.88,2.86-17.75,4.29-26.63,1.41-8.74,2.79-17.48,4.26-26.21.66-3.94,3.94-6.68,7.57-6.53,1.81.07,3.41.68,4.67,1.67h0c-1.05,1.76-1.89,3.65-2.47,5.64-.17.57-.32,1.15-.45,1.75-.37,1.69-.56,3.44-.56,5.24,0,4.72,1.33,9.13,3.63,12.87-1.42,9.89-2.84,19.77-4.24,29.66-.37,2.56-.9,5.15-.8,7.7.15,3.67.79,7.32,1.25,10.98.37,2.98,2.23,5.07,5.06,5.71,2.87.66,5.35-.38,7.04-2.94,3.03-4.6,6.02-9.23,9.09-13.8,2.29-3.42,5.24-5.81,8.73-7.3Z"/>
        <path class="cls-13" d="M183.57,188.6s1.2.18,3.19.36c-1.99-.17-3.19-.35-3.19-.35h0Z"/>
        <path class="cls-7" d="M183.57,235.21h0v2.63h-1.78c-6.79,0-12.95-2.76-17.41-7.21-1.36-1.36-2.57-2.88-3.58-4.53.88-6.11,1.75-12.22,2.62-18.33.42-2.95-.71-5.57-2.77-7.16.23-.39.47-.77.72-1.14,4.42-6.55,11.92-10.86,20.42-10.86h1.78v46.6Z"/>
        <path class="cls-6" d="M161.02,347.59l22.55,86.11h-59.29s.01-.04.02-.12c.28-1.55,3.41-18.62,10.02-37.96,5.85-17.13,14.44-36.04,26.19-47.55l.51-.48Z"/>
        <path class="cls-9" d="M178.62,336.34c2.5-1.13,5.1-2.15,7.82-3.07-2.72.93-5.32,1.95-7.82,3.07Z"/>
        <path class="cls-9" d="M172.82,339.23c1.87-1.03,3.8-2,5.8-2.89-2,.9-3.93,1.87-5.8,2.89Z"/>
        <path class="cls-9" d="M172.81,339.23c-.93.52-1.85,1.05-2.76,1.59.91-.55,1.83-1.08,2.76-1.59Z"/>
        <path class="cls-9" d="M167.36,342.5c-.96.63-1.89,1.3-2.81,2.02.92-.72,1.85-1.4,2.81-2.02Z"/>
        <path class="cls-7" d="M160.65,200.61c2.06,1.59,3.19,4.21,2.77,7.16-.87,6.11-1.74,12.22-2.62,18.33-2.3-3.74-3.63-8.15-3.63-12.87,0-1.8.19-3.55.56-5.24.13-.59.28-1.18.45-1.75.58-1.99,1.42-3.88,2.47-5.63Z"/>
        <path class="cls-9" d="M164.54,344.52c-.92.73-1.83,1.5-2.71,2.31.88-.82,1.79-1.59,2.71-2.31Z"/>
        <path class="cls-9" d="M161.82,346.83c-.27.25-.54.5-.8.76h0c.26-.27.53-.52.8-.76Z"/>
        <path class="cls-6" d="M161.02,347.59l-.51.48c-11.77,11.5-20.35,30.42-26.2,47.55-6.61,19.34-9.74,36.41-10.02,37.96-.01.08-.02.12-.02.12h-2.6l-11.76-111.48c4.59,2.66,9.87,3.83,15.33,3.72,9.91-.19,19.73-1.11,28.34-6.76l7.44,28.4h0Z"/>
        <path class="cls-12" d="M161.37,199.47c-.25.37-.49.75-.72,1.14h0c.23-.39.47-.77.72-1.14Z"/>
        <path class="cls-12" d="M158.18,206.24c-.17.57-.32,1.16-.45,1.75.13-.6.28-1.18.45-1.75Z"/>
        <path class="cls-7" d="M151.37,310.75l2.21,8.43c-8.61,5.65-18.43,6.57-28.34,6.76-5.46.11-10.74-1.06-15.33-3.72l-1.21-11.47h42.67Z"/>
        <path class="cls-9" d="M160.51,348.07c-11.75,11.51-20.34,30.42-26.19,47.55h0c5.85-17.13,14.43-36.05,26.2-47.55Z"/>
        <path class="cls-9" d="M134.31,395.62h0c-6.61,19.34-9.74,36.41-10.02,37.96h-.01c.28-1.55,3.41-18.62,10.02-37.96Z"/>
        <path class="cls-9" d="M124.29,433.58h.01c-.01.08-.02.12-.02.12h-.01s.01-.04.02-.12Z"/>
      </g>
      <g>
        <polygon class="cls-3" points="434.49 245.17 434.49 434.22 65.51 434.22 65.51 245.17 65.51 65.24 434.49 65.24 434.49 245.17"/>
        <path class="cls-2" d="M340.89,349.53c.46.49.93,1,1.37,1.51"/>
        <path class="cls-2" d="M331.34,341.64c.44.29.87.58,1.31.87,2.91,1.93,5.65,4.3,8.24,7.01"/>
        <path class="cls-2" d="M327.25,339.17c1.39.8,2.74,1.62,4.08,2.47"/>
        <path class="cls-2" d="M321.52,336.18c.98.47,1.94.95,2.9,1.45"/>
        <path class="cls-2" d="M318.51,334.82c1.01.44,2.01.89,3,1.36"/>
        <path class="cls-2" d="M313.8,332.96c1.61.59,3.17,1.21,4.7,1.86"/>
        <path class="cls-2" d="M310.52,331.84c1.11.36,2.2.73,3.27,1.12"/>
        <path class="cls-2" d="M283.84,327.03c1.44.1,2.86.21,4.25.34"/>
        <path class="cls-2" d="M277.12,326.75c2.3.05,4.53.14,6.71.28"/>
        <path class="cls-2" d="M202.38,329.34c1.92-.32,3.88-.6,5.9-.84"/>
        <path class="cls-2" d="M196.79,330.42c1.81-.4,3.67-.76,5.58-1.08"/>
        <path class="cls-2" d="M172.82,339.23c1.87-1.03,3.8-2,5.8-2.89,2.5-1.13,5.1-2.15,7.82-3.07"/>
        <path class="cls-2" d="M170.05,340.82c.91-.55,1.83-1.08,2.76-1.59"/>
        <path class="cls-2" d="M164.55,344.52c.92-.72,1.85-1.4,2.81-2.02"/>
        <path class="cls-2" d="M161.83,346.83c.88-.82,1.79-1.59,2.71-2.31"/>
        <path class="cls-2" d="M161.02,347.58c.26-.26.53-.51.8-.75"/>
        <path class="cls-2" d="M325.57,236.73c-2.31.71-4.77,1.1-7.32,1.1h-1.79v-2.61h0v-45.9h0v-.72h1.78c3.4,0,6.63.7,9.57,1.95,1.11.46,2.17,1,3.18,1.63"/>
        <path class="cls-2" d="M335.64,230.64c-.55.55-1.13,1.08-1.74,1.58"/>
        <path class="cls-2" d="M337.23,228.89c-.5.61-1.03,1.19-1.58,1.74"/>
        <path class="cls-2" d="M332,192.82c.98.66,1.91,1.39,2.78,2.19.3.26.58.53.86.81,1.43,1.42,2.68,3.03,3.72,4.77"/>
        <polyline class="cls-2" points="316.45 188.61 316.45 188.62 316.45 189.31 316.45 189.32 316.45 189.33 316.45 235.21 316.45 235.22"/>
        <path class="cls-2" d="M243.99,107.43c1.05-.4,2.13-.76,3.22-1.08,4.89-1.47,10.08-2.26,15.45-2.26,12.37,0,23.77,4.18,32.85,11.2,1.7,1.32,3.33,2.73,4.86,4.25.26.24.51.5.76.76"/>
        <path class="cls-2" d="M191.89,137.5c1.76-1.81,3.76-3.39,5.94-4.7,2.18-1.3,4.54-2.32,7.05-3.02,1.25-.36,2.53-.62,3.85-.8,1.31-.19,2.66-.28,4.02-.28,1.54,0,3.03.15,4.5.38"/>
        <path class="cls-2" d="M187.34,143.55c.15-.27.31-.54.48-.81"/>
        <path class="cls-2" d="M253.53,301.57c3.5-.19,6.93-.65,10.27-1.35h.01c2.78-.59,5.49-1.35,8.13-2.27"/>
        <line class="cls-2" x1="222.9" y1="295.91" x2="222.91" y2="295.9"/>
        <path class="cls-2" d="M160.65,200.6c.23-.38.47-.76.72-1.13"/>
        <polyline class="cls-1" points="183.57 433.7 183.58 433.7 253.73 433.7"/>
        <path class="cls-1" d="M161.82,346.83c-.27.25-.54.5-.8.76"/>
        <line class="cls-2" x1="161.83" y1="346.83" x2="161.82" y2="346.83"/>
        <path class="cls-1" d="M164.54,344.52c-.92.73-1.83,1.5-2.71,2.31"/>
        <path class="cls-2" d="M164.55,344.52s-.01,0-.01,0"/>
        <path class="cls-1" d="M172.81,339.23c-.93.52-1.85,1.05-2.76,1.59-.9.54-1.8,1.1-2.68,1.68h-.01c-.96.63-1.89,1.3-2.81,2.02"/>
        <path class="cls-2" d="M172.82,339.23s0,0,0,0"/>
        <path class="cls-1" d="M202.37,329.34c-1.91.32-3.77.68-5.58,1.08-3.65.8-7.09,1.75-10.35,2.85-2.72.93-5.32,1.95-7.82,3.07-2,.9-3.93,1.87-5.8,2.89"/>
        <path class="cls-2" d="M202.38,329.34h-.01"/>
        <path class="cls-1" d="M223.41,327.49c-5.37.11-10.41.45-15.13,1.01-2.02.24-3.98.52-5.9.84"/>
        <path class="cls-1" d="M283.83,327.03c-2.17-.15-4.4-.24-6.7-.29"/>
        <line class="cls-2" x1="283.84" y1="327.03" x2="283.83" y2="327.03"/>
        <path class="cls-1" d="M313.79,332.96c-1.07-.4-2.16-.77-3.27-1.12-6.67-2.14-14.07-3.66-22.43-4.47-1.39-.13-2.81-.25-4.25-.34"/>
        <path class="cls-2" d="M313.8,332.96s0-.01-.01,0"/>
        <path class="cls-1" d="M318.5,334.82c-1.53-.66-3.09-1.28-4.7-1.86"/>
        <path class="cls-2" d="M318.51,334.82s0,0,0,0"/>
        <path class="cls-1" d="M321.51,336.18c-.98-.48-1.98-.93-3-1.36"/>
        <path class="cls-2" d="M321.52,336.18s-.01,0-.01,0"/>
        <path class="cls-1" d="M331.33,341.64c-1.33-.86-2.69-1.68-4.08-2.47-.93-.53-1.87-1.05-2.83-1.54-.95-.51-1.92-.99-2.9-1.45"/>
        <path class="cls-2" d="M331.34,341.64s-.01,0-.01,0"/>
        <path class="cls-1" d="M340.89,349.52c-2.58-2.71-5.32-5.08-8.23-7.02-.44-.29-.88-.58-1.32-.86"/>
        <path class="cls-2" d="M340.89,349.53s0,0,0,0"/>
        <path class="cls-1" d="M342.27,351.02c-.45-.51-.91-1-1.38-1.49"/>
        <polyline class="cls-1" points="253.73 433.7 253.74 433.7 320.62 433.7"/>
        <path class="cls-1" d="M186.93,256.11c-2.18-6.57-3.36-13.59-3.36-20.89"/>
        <path class="cls-1" d="M306.75,269.78c-7.07,11.59-17.59,20.85-30.14,26.33-1.53.67-3.08,1.29-4.67,1.84-2.64.93-5.35,1.69-8.13,2.28h-.01c-3.34.71-6.77,1.16-10.27,1.34-1.16.06-2.34.09-3.52.09-9.65,0-18.82-2.05-27.09-5.76h-.01c-7.46-3.33-14.18-8-19.88-13.71-3.73-3.72-7.01-7.89-9.78-12.41"/>
        <path class="cls-1" d="M316.45,235.22c0,.43,0,.85-.01,1.27-.13,6.85-1.3,13.44-3.35,19.63"/>
        <path class="cls-1" d="M160.8,226.1c1.01,1.65,2.22,3.17,3.58,4.53,4.46,4.45,10.62,7.21,17.41,7.21h1.78v-2.62h0v-46.61h-1.78c-8.5,0-16,4.31-20.42,10.86-.25.37-.49.75-.72,1.14"/>
        <path class="cls-1" d="M339.35,200.6c-1.04-1.74-2.3-3.34-3.72-4.77-.28-.28-.56-.55-.85-.82-.87-.79-1.8-1.52-2.78-2.19-.33-.21-.67-.43-1.01-.64-1.01-.61-2.08-1.16-3.18-1.62-2.94-1.25-6.17-1.94-9.57-1.94h-1.8v.7h0v45.9h.01v2.61h0s.01.01.01.01h1.78c2.55,0,5.01-.39,7.33-1.11,3.08-.96,5.9-2.51,8.33-4.51.61-.5,1.19-1.03,1.74-1.58"/>
        <path class="cls-1" d="M335.65,230.63c.55-.55,1.08-1.13,1.58-1.74.71-.87,1.37-1.79,1.97-2.76"/>
        <path class="cls-2" d="M335.64,230.64s0-.01,0-.01"/>
        <polyline class="cls-1" points="316.45 157.88 316.45 188.6 316.45 188.61"/>
        <path class="cls-1" d="M183.57,157.89v30.71h0s1.2.19,3.19.36c2,.18,4.79.36,7.98.36,8.99,0,21.14-1.4,27.56-8.16,2.71-2.85,4.4-6.65,4.4-11.71,0,0,8.16,4.61,23.46,9.31s37.72,9.49,66.28,9.85h.01"/>
        <path class="cls-1" d="M316.45,157.88c0-4.96-.67-9.77-1.94-14.33-2.45-8.88-7.12-16.85-13.38-23.25-.25-.26-.5-.51-.76-.76-1.53-1.51-3.16-2.92-4.86-4.24-9.08-7.02-20.48-11.2-32.85-11.2-5.37,0-10.56.79-15.45,2.25-1.09.33-2.17.69-3.22,1.08-11.1,4.12-20.47,11.8-26.74,21.65h0c-1.47-.22-2.96-.37-4.5-.37-1.36,0-2.71.09-4.02.27-1.32.19-2.6.46-3.85.8-2.51.7-4.87,1.73-7.05,3.03-2.18,1.31-4.18,2.89-5.94,4.69-1.55,1.58-2.91,3.34-4.07,5.24l-.48.81h0c-2.4,4.24-3.77,9.13-3.77,14.33h0"/>
        <path class="cls-1" d="M276.61,296.07v.04l.51,30.63h0c-8.18,5.86-17.78,8.78-27.4,8.78s-18.34-2.67-26.3-8.03h-.01l-.51-31.58"/>
        <polyline class="cls-3" points="394.62 318.89 382.51 433.7 375.75 433.7 320.62 433.7 342.26 351.04 342.27 351.02 350.06 321.26"/>
        <polyline class="cls-3" points="109.91 322.22 121.67 433.7 124.27 433.7 124.28 433.7 183.57 433.7 161.02 347.59 161.02 347.58 153.58 319.18"/>
        <path class="cls-3" d="M186.93,256.11c1.84-.79,3.83-1.33,5.96-1.64,2.93-.43,5.47,1.35,6.16,4.18.5,2.02-.29,3.73-1.48,5.33-1.44,1.93-2.88,3.87-4.32,5.8-10.04,13.47-20.07,26.96-30.11,40.44-2.49,3.35-5.49,6.18-8.93,8.54-.21.14-.42.29-.63.42-8.61,5.65-18.43,6.57-28.34,6.76-5.46.11-10.74-1.06-15.33-3.72-1.43-.82-2.79-1.8-4.07-2.92-1.8-1.58-3.57-3.6-5.84-6.55-3.7-4.82-6.31-10.42-7.43-16.39-.05-.3-.11-.6-.16-.9-.88-5.52-2.35-10.82-4.59-15.93-2.6-5.94-6.53-11-10.38-16.12-3.5-4.66-7.01-9.3-10.46-13.98-1-1.36-1.47-2.84-1.47-4.26,0-2.43,1.39-4.68,3.91-5.79,2.93-1.29,5.95-.48,7.99,2.22,4.16,5.52,8.3,11.06,12.44,16.59,2.73,3.64,5.44,7.28,8.18,10.91,1.06,1.39,2.58,1.53,3.6.38.67-.76.69-1.58.3-2.53-2.22-5.47-4.4-10.95-6.59-16.43-4.14-10.37-8.29-20.74-12.38-31.13-1.11-2.81-.39-5.4,1.6-7.57,3.82-4.17,10.68-2.92,12.98,3.01,4.49,11.59,9.2,23.1,13.83,34.65,1.43,3.58,2.87,7.16,4.31,10.74.47,1.17,1.35,1.71,2.59,1.46,1.19-.24,1.78-1.21,1.66-2.58-.04-.37-.09-.73-.13-1.09-2.13-17.77-4.26-35.53-6.39-53.3-.06-.45-.12-.91-.16-1.36-.42-4.94,3.54-8.85,8.46-8.35,3.68.37,6.32,3.14,6.81,7.2,2.24,18.58,4.46,37.16,6.69,55.74.06.5.09,1,.2,1.49.22,1.02.94,1.55,1.94,1.62.99.08,1.79-.33,2.17-1.3.18-.46.26-.96.34-1.45,1.43-8.88,2.86-17.75,4.29-26.63,1.41-8.74,2.79-17.48,4.26-26.21.66-3.94,3.94-6.68,7.57-6.53,1.81.07,3.41.68,4.67,1.67h0c2.06,1.6,3.19,4.22,2.77,7.17-.87,6.11-1.74,12.22-2.62,18.33-1.42,9.89-2.84,19.77-4.24,29.66-.37,2.56-.9,5.15-.8,7.7.15,3.67.79,7.32,1.25,10.98.37,2.98,2.23,5.07,5.06,5.71,2.87.66,5.35-.38,7.04-2.94,3.03-4.6,6.02-9.23,9.09-13.8,2.29-3.42,5.24-5.81,8.73-7.3Z"/>
        <path class="cls-3" d="M339.2,226.12c-.87-6.11-1.75-12.23-2.61-18.35-.42-2.95.7-5.56,2.76-7.17,0,0,0-.01.01-.01,1.25-.98,2.86-1.59,4.66-1.66,3.64-.15,6.91,2.59,7.58,6.53,1.46,8.73,2.84,17.47,4.25,26.21,1.44,8.88,2.86,17.75,4.29,26.63.08.49.16.99.34,1.45.38.97,1.18,1.38,2.18,1.3.99-.07,1.71-.6,1.93-1.62.11-.49.14-.99.2-1.49,2.23-18.58,4.46-37.16,6.69-55.74.49-4.06,3.14-6.83,6.82-7.2,4.91-.5,8.87,3.41,8.45,8.35-.04.45-.1.91-.16,1.36-2.13,17.77-4.26,35.53-6.39,53.3-.04.36-.09.72-.13,1.09-.12,1.37.47,2.34,1.66,2.58,1.25.25,2.12-.29,2.59-1.46l4.32-10.74c4.62-11.55,9.33-23.06,13.83-34.65,2.29-5.93,9.16-7.18,12.97-3.01,1.99,2.17,2.71,4.76,1.61,7.57-4.09,10.39-8.25,20.76-12.39,31.13-2.18,5.48-4.37,10.96-6.59,16.43-.39.95-.37,1.77.3,2.53,1.03,1.15,2.54,1.01,3.6-.38,2.74-3.63,5.45-7.27,8.18-10.91,4.14-5.53,8.28-11.07,12.44-16.59,2.04-2.7,5.07-3.51,7.99-2.22,2.52,1.11,3.91,3.36,3.91,5.79,0,1.42-.47,2.9-1.47,4.26-3.45,4.68-6.96,9.32-10.46,13.98-3.85,5.12-7.78,10.18-10.38,16.12-2.24,5.11-3.71,10.41-4.59,15.93-.05.3-.1.6-.16.9-1.12,5.97-3.72,11.57-7.43,16.39-2.08,2.7-3.74,4.62-5.38,6.14-.15.14-.3.28-.45.41-5.39,4.73-12.25,6.78-19.41,6.64-8.54-.16-17.01-.87-24.7-4.68-1.46-.72-2.88-1.54-4.27-2.5-3.44-2.36-6.44-5.19-8.93-8.54-10.04-13.48-20.07-26.97-30.11-40.44-1.44-1.93-2.88-3.87-4.32-5.8-1.19-1.6-1.98-3.31-1.48-5.33.69-2.83,3.23-4.61,6.17-4.18,2.13.31,4.13.85,5.97,1.65,3.48,1.49,6.42,3.88,8.71,7.29,3.07,4.57,6.06,9.2,9.09,13.8,1.69,2.56,4.17,3.6,7.04,2.94,2.83-.64,4.7-2.73,5.07-5.71.45-3.66,1.1-7.31,1.24-10.98.1-2.55-.43-5.14-.79-7.7-1.41-9.88-2.83-19.75-4.25-29.63"/>
        <path class="cls-4" d="M271.95,280.59c.1-.03.19-.06.29-.1,11.33-4.07,15.67-19.46,5.96-28.68-7.34-6.97-17.28-11.25-28.2-11.25s-20.86,4.28-28.2,11.25c-9.71,9.22-5.37,24.61,5.96,28.69.1.03.19.07.29.1,1.74.6,3.65.92,5.68.92h32.52c2.05,0,3.95-.32,5.7-.93Z"/>
        <path class="cls-4" d="M228.05,280.6c12.13-12.13,31.77-12.13,43.9-.01h.01"/>
        <polyline class="cls-4" points="295.36 200.51 269.59 214.45 279.16 222.11"/>
        <polyline class="cls-4" points="204.65 200.51 230.42 214.45 220.84 222.11"/>
      </g>
    </g>
  </g>
</svg>