<?xml version="1.0" encoding="UTF-8"?>
<svg id="Layer_1" xmlns="http://www.w3.org/2000/svg" width="176.4mm" height="176.4mm" version="1.1" viewBox="0 0 500 500">
  <!-- Generator: Adobe Illustrator 30.1.0, SVG Export Plug-In . SVG Version: 2.1.1 Build 136)  -->
  <defs>
    <style>
      .st0 {
        fill: #03463f;
      }

      .st1 {
        fill: #06af9a;
      }

      .st2 {
        fill: #b6e1df;
      }

      .st3 {
        fill: none;
        stroke: #231f20;
        stroke-miterlimit: 10;
        stroke-width: 5px;
      }

      .st4 {
        fill: #078b7c;
      }
    </style>
  </defs>
  <g id="Layer_2">
    <rect class="st1" x="0" y="-.3" width="500" height="500"/>
  </g>
  <g>
    <g>
      <polygon class="st2" points="345.8 69.8 368.1 111.8 302.7 186.3 250 119 250 117.6 345.8 69.8"/>
      <polygon class="st4" points="293.2 330.2 299.9 374.7 250.7 430.2 231.7 408.8 231.7 408.8 293.2 330.2"/>
      <polygon class="st0" points="286.8 287.6 293.2 330.2 231.7 408.8 231.7 408.8 210.5 385 210.5 385 286.8 287.6"/>
      <polygon class="st4" points="280.4 245 286.8 287.6 210.5 385 210.5 385 201.4 374.8 206.8 338.9 280.4 245"/>
      <polygon class="st0" points="274 202.3 280.4 245 206.8 338.9 216.3 275.9 273.9 202.3 274 202.3"/>
      <polygon class="st0" points="250 136.2 275.6 169.4 271.8 188.1 271.9 188.6 271.8 188.6 263.6 188.6 236.7 154.1 236.4 153.9 250 136.2"/>
      <polygon class="st4" points="271.9 188.6 274 202.3 273.9 202.3 216.3 275.9 225.8 213 244.9 188.6 263.6 188.6 271.8 188.6 271.9 188.6"/>
      <polygon class="st4" points="244.9 188.6 229.5 188.6 224.9 168.9 236.4 153.9 236.7 154.1 263.6 188.6 244.9 188.6"/>
      <polygon class="st2" points="250 117.6 250 119 197.3 186.3 131.9 111.8 154.2 69.8 250 117.6"/>
      <polygon class="st0" points="244.9 188.6 225.8 213 229.5 188.6 244.9 188.6"/>
    </g>
    <g>
      <polygon class="st3" points="293.2 330.2 299.9 374.7 250.7 430.2 231.7 408.8 210.5 385 201.4 374.8 206.8 338.9 216.3 275.9 225.8 213 229.5 188.6 224.9 168.9 236.4 153.9 250 136.2 275.6 169.4 271.8 188.1 271.9 188.6 274 202.3 280.4 245 286.8 287.6 293.2 330.2"/>
      <polygon class="st3" points="250 117.6 345.8 69.8 368.1 111.8 302.7 186.3 250 119 197.3 186.3 131.9 111.8 154.2 69.8 250 117.6"/>
      <polyline class="st3" points="229.5 188.6 244.9 188.6 263.6 188.6 271.8 188.6"/>
      <polyline class="st3" points="245 188.5 244.9 188.6 225.8 213 225.8 213"/>
      <line class="st3" x1="236.7" y1="154.1" x2="263.6" y2="188.6"/>
      <polyline class="st3" points="273.9 202.3 216.3 275.9 216.3 275.9"/>
      <polyline class="st3" points="280.4 245 280.4 245 206.8 338.9 206.8 338.9"/>
      <polyline class="st3" points="286.8 287.6 286.8 287.6 210.5 385"/>
      <line class="st3" x1="293.2" y1="330.2" x2="231.7" y2="408.8"/>
    </g>
  </g>
</svg>