<?xml version="1.0" encoding="UTF-8"?>
<svg xmlns="http://www.w3.org/2000/svg" viewBox="0 0 500 500">
  <defs>
    <style>
      .cls-1 {
        fill: #00ab9b;
      }

      .cls-1, .cls-2 {
        stroke-width: 0px;
      }

      .cls-3 {
        fill: #03463f;
      }

      .cls-3, .cls-4, .cls-5, .cls-6 {
        stroke: #231f20;
        stroke-miterlimit: 10;
        stroke-width: 5px;
      }

      .cls-4 {
        fill: #078b7c;
      }

      .cls-5 {
        fill: #b6e1df;
      }

      .cls-6 {
        fill: #eaecee;
      }

      .cls-2 {
        fill: #231f20;
      }
    </style>
  </defs>
  <g id="Layer_2" data-name="Layer 2">
    <g id="Layer_2-2" data-name="Layer 2">
      <rect class="cls-1" y="-.27" width="500" height="500"/>
    </g>
  </g>
  <g id="Layer_1" data-name="Layer 1">
    <g>
      <path class="cls-5" d="M284.88,301.58l35.38-26.98c4.57-3.48,10.52-5.93,16.95-6.62,8.72-.95,17.71,1.1,9.13,16.94-14.45,26.67-45.93,23.15-45.93,23.15l-15.53-6.49Z"/>
      <path class="cls-5" d="M317.34,294.17l35.38-26.98c4.57-3.48,10.52-5.93,16.95-6.62,8.72-.95,17.71,1.1,9.13,16.94-14.45,26.67-45.93,23.15-45.93,23.15l-15.53-6.49Z"/>
      <path class="cls-5" d="M342.88,290.81l37.59-23.8c4.85-3.07,11-4.99,17.46-5.13,8.77-.19,17.54,2.64,7.62,17.67-16.72,25.32-47.77,19.07-47.77,19.07l-14.9-7.81Z"/>
      <path class="cls-3" d="M382.26,180.73c0-26.28-21.31-47.59-47.59-47.59-15.35,0-29.01,7.27-37.71,18.56-8.7-11.29-22.36-18.56-37.71-18.56-26.28,0-47.59,21.31-47.59,47.59,0,48.12,86.08,87.43,86.08,87.43,0,0,84.52-39.31,84.52-87.43Z"/>
      <path class="cls-5" d="M191.58,339.2l115.61-9.02c20.78,1.81,41.64-1.94,60.51-10.81,27.34-12.85,63.42-31.96,64.45-43.78,1.25-14.31-50.86,3.95-76.99,13.97-9.81,3.76-20.33,5.26-30.79,4.35l-90.56-7.9c-8.51-.74-17.01,2.92-21.72,10.04-3.16,4.77-5.99,14.65-11.04,21.27-10.49,13.74-16.21,21.3-9.46,21.88Z"/>
      <g>
        <rect class="cls-6" x="169.41" y="259.96" width="42.12" height="93.1"/>
        <rect class="cls-4" x="67.83" y="247.29" width="105.36" height="119.58"/>
        <circle class="cls-2" cx="192.46" cy="331.58" r="5.18"/>
      </g>
      <path class="cls-5" d="M286.69,307.1c8.57-1.95,25.57,3.85,36.55.97,13.98-3.67,35.41,7.06,13.34,17.01-21.67,9.76-47.5,9.82-63.83,9.81-6.71,0-16.82-2.94-22.49-6.53l-17.54-11.12"/>
    </g>
  </g>
</svg>