<?xml version="1.0" encoding="UTF-8"?>
<svg id="Layer_1" data-name="Layer 1" xmlns="http://www.w3.org/2000/svg" version="1.1" viewBox="0 0 500 500">
  <defs>
    <style>
      .cls-1, .cls-2 {
        fill: none;
      }

      .cls-1, .cls-2, .cls-3 {
        stroke: #231f20;
        stroke-miterlimit: 10;
        stroke-width: 5px;
      }

      .cls-2, .cls-3 {
        stroke-linecap: round;
      }

      .cls-4 {
        fill: #264763;
      }

      .cls-4, .cls-5, .cls-6, .cls-7, .cls-8, .cls-9, .cls-10 {
        stroke-width: 0px;
      }

      .cls-5, .cls-3 {
        fill: #1b3648;
      }

      .cls-6 {
        fill: #5eb3e4;
      }

      .cls-7 {
        fill: #d1e7f7;
      }

      .cls-8 {
        fill: #2f5a79;
      }

      .cls-9 {
        fill: #3c6b93;
      }

      .cls-10 {
        fill: #57a0d8;
      }
    </style>
  </defs>
  <g id="Layer_2" data-name="Layer 2">
    <rect class="cls-6" width="500" height="500"/>
  </g>
  <g id="Layer_1-2" data-name="Layer 1">
    <g>
      <g>
        <polygon class="cls-10" points="413.8 329.4 413.8 391.5 399.8 387.8 399.8 325.8 413.8 329.4"/>
        <polygon class="cls-4" points="399.8 325.8 399.8 387.8 299 361.7 299 299.6 346.7 312 399.8 325.8"/>
        <path class="cls-4" d="M299,361.7v41.8h-23.6V129.5l16.2,10.7c4.6,3.1,7.4,8.2,7.4,13.8v207.7Z"/>
        <path class="cls-5" d="M275.4,360.2v43.2h-36.1c-2.6,0-5.1-.3-7.5-1-8.8-2.3-15.9-8.6-19.3-16.9h0c-1.4-3.5-2.2-7.2-2.2-11.2v-14.2h65.2Z"/>
        <rect class="cls-8" x="210.2" y="344.2" width="65.2" height="16.1"/>
        <rect class="cls-5" x="210.2" y="328.1" width="65.2" height="16.1"/>
        <rect class="cls-8" x="210.2" y="312" width="65.2" height="16.1"/>
        <polygon class="cls-5" points="275.4 129.5 275.4 312 210.2 312 210.2 119.2 210.2 106.8 226.2 106.8 259.3 106.8 275.4 106.8 275.4 129.5"/>
        <rect class="cls-8" x="226.2" y="86.6" width="33.1" height="20.3"/>
        <path class="cls-8" d="M231.8,402.5l-10.5,11.4c-4.3,4.4-11.7.8-11.1-5.3l2.3-23c3.4,8.2,10.6,14.5,19.3,16.9Z"/>
        <path class="cls-7" d="M164.6,185v83.2c0,52.5-20.2,102.2-55,135.3v-218.5h55Z"/>
        <polygon class="cls-4" points="157 158.5 157 185 117.2 185 117.2 179.7 157 158.5"/>
        <polygon class="cls-9" points="157 134.9 157 158.5 117.2 179.7 117.2 156.1 157 134.9"/>
        <polygon class="cls-4" points="157 111.3 157 134.9 117.2 156.1 117.2 132.5 157 111.3"/>
        <path class="cls-9" d="M157,110.5v.8l-39.8,21.3v-22c0-11,8.9-19.9,19.9-19.9s19.9,8.9,19.9,19.9Z"/>
      </g>
      <g>
        <path class="cls-1" d="M164.6,185v83.2c0,52.5-20.2,102.2-55,135.3v-218.5"/>
        <path class="cls-1" d="M117.2,185v-74.5c0-11,8.9-19.9,19.9-19.9s19.9,8.9,19.9,19.9v74.5"/>
        <polyline class="cls-2" points="86.2 185 109.6 185 117.2 185 157 185 164.6 185 187.9 185"/>
        <line class="cls-2" x1="127.6" y1="205.2" x2="127.6" y2="309"/>
        <line class="cls-2" x1="157" y1="158.5" x2="117.2" y2="179.7"/>
        <line class="cls-2" x1="157" y1="134.9" x2="117.2" y2="156.1"/>
        <line class="cls-2" x1="157" y1="111.3" x2="117.2" y2="132.5"/>
        <path class="cls-2" d="M212.4,385.6c3.4,8.2,10.6,14.5,19.3,16.9,2.4.6,4.9,1,7.5,1h36.1"/>
        <path class="cls-2" d="M226.2,106.8h-16v267.6c0,4,.8,7.8,2.2,11.2"/>
        <polyline class="cls-2" points="275.4 129.5 275.4 106.8 259.3 106.8"/>
        <path class="cls-2" d="M299,299.6v-145.6c0-5.6-2.8-10.7-7.4-13.8l-16.2-10.7v274h23.6v-41.8"/>
        <rect class="cls-2" x="226.2" y="86.6" width="33.1" height="20.3"/>
        <polygon class="cls-3" points="399.8 387.8 413.8 391.5 413.8 329.4 399.8 325.8 346.7 312 299 299.6 299 361.7 399.8 387.8"/>
        <path class="cls-2" d="M346.7,312v-44.7c0-12.3-10-22.2-22.2-22.2h-25.4"/>
        <polyline class="cls-2" points="210.2 360.2 210.2 360.2 275.4 360.2"/>
        <line class="cls-2" x1="210.2" y1="344.2" x2="275.4" y2="344.2"/>
        <line class="cls-2" x1="210.2" y1="328.1" x2="275.4" y2="328.1"/>
        <line class="cls-2" x1="210.2" y1="312" x2="275.4" y2="312"/>
        <path class="cls-2" d="M231.8,402.5l-10.5,11.4c-4.3,4.4-11.7.8-11.1-5.3l2.3-23h0"/>
        <line class="cls-2" x1="210.2" y1="119.2" x2="200.8" y2="119.2"/>
        <polyline class="cls-1" points="399.8 325.8 399.8 387.8 399.8 388.1"/>
        <path class="cls-2" d="M324.6,262.5c0,12.8-10.4,23.1-23.1,23.1"/>
      </g>
    </g>
  </g>
</svg>